
<svg width="55" height="58" viewBox="0 0 55 58" fill="none" xmlns="http://www.w3.org/2000/svg">
    <path d="M12.1953 6C10.4078 6 8.94531 7.4625 8.94531 9.25V54.75C8.94531 56.5375 10.4078 58 12.1953 58H48.5002C50.2877 58 51.7502 56.5375 51.7502 54.75V19L38.7502 6H12.1953Z" fill="#E2E5E7"/>
    <path d="M44.4271 29.7725V34.207H43.0674V28.6343H44.355L44.4271 29.7725ZM46.1216 28.5982L46.101 29.8652C46.0254 29.8515 45.9396 29.8412 45.8435 29.8343C45.7508 29.8274 45.6632 29.824 45.5808 29.824C45.3713 29.824 45.1876 29.8532 45.0297 29.9116C44.8717 29.9665 44.7396 30.0472 44.6331 30.1536C44.5301 30.2601 44.4511 30.3906 44.3962 30.5451C44.3413 30.6961 44.3104 30.8678 44.3035 31.0601L44.0099 31.0241C44.0099 30.6704 44.046 30.3425 44.1181 30.0403C44.1902 29.7382 44.2949 29.4738 44.4322 29.2472C44.5696 29.0205 44.7413 28.8454 44.9473 28.7218C45.1567 28.5948 45.3971 28.5312 45.6683 28.5312C45.7439 28.5312 45.8246 28.5381 45.9104 28.5519C45.9997 28.5622 46.0701 28.5776 46.1216 28.5982Z" fill="#576D7E"/>
    <path d="M39.895 34.31C39.4726 34.31 39.0932 34.2414 38.7567 34.104C38.4202 33.9667 38.1335 33.7761 37.8966 33.5323C37.6631 33.2851 37.4829 32.9984 37.3558 32.6722C37.2322 32.3426 37.1704 31.9889 37.1704 31.6112V31.4052C37.1704 30.976 37.2322 30.5863 37.3558 30.236C37.4794 29.8824 37.6546 29.5785 37.8812 29.3244C38.1078 29.0703 38.379 28.8746 38.6949 28.7373C39.0108 28.5999 39.3593 28.5312 39.7405 28.5312C40.1353 28.5312 40.4838 28.5982 40.786 28.7321C41.0882 28.8626 41.3405 29.048 41.5431 29.2884C41.7457 29.5287 41.8985 29.8171 42.0015 30.1536C42.1045 30.4867 42.156 30.8558 42.156 31.261V31.8327H37.7885V30.8953H40.8169V30.7923C40.81 30.576 40.7688 30.3785 40.6933 30.2C40.6178 30.018 40.501 29.8738 40.3431 29.7674C40.1851 29.6575 39.9808 29.6025 39.7302 29.6025C39.5276 29.6025 39.3508 29.6472 39.1997 29.7364C39.052 29.8223 38.9284 29.9459 38.8288 30.1073C38.7327 30.2652 38.6606 30.4541 38.6125 30.6738C38.5645 30.8936 38.5404 31.1374 38.5404 31.4052V31.6112C38.5404 31.8447 38.5713 32.061 38.6331 32.2602C38.6984 32.4593 38.7928 32.6327 38.9164 32.7803C39.0434 32.9246 39.1945 33.0379 39.3696 33.1203C39.5482 33.1993 39.7508 33.2387 39.9774 33.2387C40.2624 33.2387 40.5199 33.1838 40.75 33.0739C40.9834 32.9606 41.186 32.7941 41.3577 32.5743L42.0427 33.2851C41.926 33.4568 41.768 33.6216 41.5689 33.7795C41.3732 33.9375 41.1362 34.0662 40.8581 34.1658C40.58 34.262 40.2589 34.31 39.895 34.31Z" fill="#576D7E"/>
    <path d="M33.2826 26.293V34.2092H31.9229V26.293H33.2826ZM36.7746 28.6364L34.3487 31.361L33.0353 32.6949L32.6027 31.6391L33.6173 30.3618L35.1316 28.6364H36.7746ZM35.3839 34.2092L33.6585 31.6134L34.565 30.7326L36.96 34.2092H35.3839Z" fill="#576D7E"/>
    <path d="M28.7085 33.2387C28.9008 33.2387 29.0725 33.201 29.2236 33.1254C29.3747 33.0499 29.4948 32.9434 29.5841 32.8061C29.6768 32.6688 29.7266 32.5091 29.7335 32.3271H31.0159C31.0091 32.7048 30.9026 33.043 30.6966 33.3417C30.4906 33.6405 30.2159 33.8774 29.8725 34.0525C29.5326 34.2242 29.1515 34.31 28.7291 34.31C28.2999 34.31 27.9257 34.2379 27.6064 34.0937C27.287 33.9495 27.0209 33.7486 26.808 33.4911C26.5986 33.2336 26.4406 32.9349 26.3342 32.5949C26.2312 32.255 26.1797 31.891 26.1797 31.503V31.3382C26.1797 30.9502 26.2312 30.5863 26.3342 30.2463C26.4406 29.9064 26.5986 29.6077 26.808 29.3502C27.0209 29.0926 27.287 28.8918 27.6064 28.7476C27.9257 28.6034 28.2982 28.5312 28.724 28.5312C29.1738 28.5312 29.5687 28.6188 29.9086 28.7939C30.252 28.969 30.5198 29.2163 30.7121 29.5356C30.9078 29.8549 31.0091 30.2309 31.0159 30.6635H29.7335C29.7266 30.4644 29.682 30.2858 29.5996 30.1279C29.5172 29.9699 29.4004 29.8429 29.2493 29.7467C29.0983 29.6506 28.9146 29.6025 28.6982 29.6025C28.4682 29.6025 28.2759 29.6506 28.1214 29.7467C27.9703 29.8429 27.8519 29.9751 27.766 30.1433C27.6836 30.3081 27.6252 30.4936 27.5909 30.6996C27.56 30.9022 27.5445 31.115 27.5445 31.3382V31.503C27.5445 31.7297 27.56 31.946 27.5909 32.152C27.6252 32.358 27.6836 32.5434 27.766 32.7082C27.8519 32.8696 27.9703 32.9984 28.1214 33.0945C28.2759 33.1907 28.4716 33.2387 28.7085 33.2387Z" fill="#576D7E"/>
    <path d="M23.8258 33.0224V30.4524C23.8258 30.2635 23.7932 30.1004 23.7279 29.9631C23.6627 29.8257 23.5631 29.7193 23.4292 29.6437C23.2953 29.5682 23.1253 29.5304 22.9193 29.5304C22.7373 29.5304 22.5777 29.5613 22.4403 29.6231C22.3064 29.6849 22.2034 29.7725 22.1313 29.8858C22.0592 29.9957 22.0231 30.1227 22.0231 30.2669H20.6583C20.6583 30.0369 20.7132 29.8189 20.8231 29.6128C20.933 29.4034 21.0892 29.218 21.2918 29.0566C21.4978 28.8918 21.7433 28.763 22.0283 28.6703C22.3167 28.5776 22.6395 28.5312 22.9966 28.5312C23.4189 28.5312 23.7949 28.6034 24.1245 28.7476C24.4576 28.8883 24.7185 29.1012 24.9074 29.3862C25.0997 29.6712 25.1958 30.03 25.1958 30.4627V32.8937C25.1958 33.1718 25.213 33.4104 25.2473 33.6096C25.2851 33.8053 25.34 33.9752 25.4121 34.1195V34.207H24.0267C23.9614 34.0662 23.9116 33.8877 23.8773 33.6714C23.843 33.4516 23.8258 33.2353 23.8258 33.0224ZM24.0164 30.8129L24.0267 31.6215H23.1665C22.9537 31.6215 22.7665 31.6438 22.6051 31.6885C22.4438 31.7297 22.3116 31.7915 22.2086 31.8739C22.1055 31.9528 22.0283 32.049 21.9768 32.1623C21.9253 32.2722 21.8995 32.3975 21.8995 32.5383C21.8995 32.6756 21.9304 32.7992 21.9922 32.9091C22.0575 33.019 22.1502 33.1065 22.2704 33.1718C22.394 33.2336 22.5382 33.2645 22.703 33.2645C22.9433 33.2645 23.1528 33.2164 23.3313 33.1203C23.5099 33.0207 23.649 32.9005 23.7485 32.7597C23.8481 32.619 23.9013 32.4851 23.9082 32.358L24.2996 32.9452C24.2516 33.0859 24.1795 33.2353 24.0833 33.3932C23.9872 33.5512 23.8636 33.6988 23.7125 33.8362C23.5614 33.9735 23.3794 34.0868 23.1665 34.1761C22.9537 34.2654 22.7064 34.31 22.4249 34.31C22.0643 34.31 21.7416 34.2379 21.4566 34.0937C21.1716 33.9495 20.9467 33.7521 20.7819 33.5014C20.6171 33.2508 20.5347 32.9658 20.5347 32.6464C20.5347 32.3511 20.5896 32.0902 20.6995 31.8636C20.8094 31.637 20.9725 31.4464 21.1888 31.2919C21.4051 31.1339 21.6729 31.0155 21.9922 30.9365C22.315 30.8541 22.6841 30.8129 23.0996 30.8129H24.0164Z" fill="#576D7E"/>
    <path d="M18.4901 29.7725V34.207H17.1304V28.6343H18.418L18.4901 29.7725ZM20.1846 28.5982L20.164 29.8652C20.0884 29.8515 20.0026 29.8412 19.9064 29.8343C19.8137 29.8274 19.7262 29.824 19.6438 29.824C19.4343 29.824 19.2506 29.8532 19.0927 29.9116C18.9347 29.9665 18.8025 30.0472 18.6961 30.1536C18.5931 30.2601 18.5141 30.3906 18.4592 30.5451C18.4042 30.6961 18.3733 30.8678 18.3665 31.0601L18.0729 31.0241C18.0729 30.6704 18.109 30.3425 18.1811 30.0403C18.2532 29.7382 18.3579 29.4738 18.4952 29.2472C18.6326 29.0205 18.8043 28.8454 19.0103 28.7218C19.2197 28.5948 19.4601 28.5312 19.7313 28.5312C19.8069 28.5312 19.8876 28.5381 19.9734 28.5519C20.0627 28.5622 20.1331 28.5776 20.1846 28.5982Z" fill="#576D7E"/>
    <path d="M14.3233 26.7031V34.2021H12.9121V26.7031H14.3233ZM16.6513 26.7031V27.8208H10.6099V26.7031H16.6513Z" fill="#576D7E"/>
    <path d="M42 19H51.75L38.75 6V15.75C38.75 17.5375 40.2125 19 42 19Z" fill="#B0B7BD"/>
    <path d="M43.6247 55.0156H8.94482V56.6406H43.6247C44.5184 56.6406 45.2497 55.9094 45.2497 55.0156V53.3906C45.2497 54.2844 44.5184 55.0156 43.6247 55.0156Z" fill="#CAD1D8"/>
    <path d="M51.75 28.75L42 19H51.75V28.75Z" fill="#CAD1D8"/>
    <path d="M45.6868 53.9295C45.6868 54.8232 44.9555 55.5545 44.0618 55.5545H7.04346C6.14971 55.5545 5.41846 54.8232 5.41846 53.9295V41.4844C5.41846 40.5906 6.14971 39.8594 7.04346 39.8594H44.0618C44.9555 39.8594 45.6868 40.5906 45.6868 41.4844V53.9295Z" fill="#576D7E"/>
    <path d="M22.0374 43.4713C22.0374 42.3793 23.7534 42.3793 23.7534 43.4713V48.6031C23.7534 50.6425 22.7784 51.8775 20.5326 51.8775C19.4276 51.8775 18.5046 51.5768 17.7002 50.5401C17.0372 49.7471 18.2836 48.6047 18.9596 49.4351C19.5056 50.1111 20.089 50.2671 20.661 50.2395C21.389 50.2135 22.026 49.8885 22.039 48.6031V43.4713H22.0374Z" fill="white"/>
    <path d="M25.747 44.6386C26.046 42.1183 29.8518 41.6649 31.6458 43.0429C32.5298 43.7563 31.5938 44.8873 30.8138 44.3153C29.8518 43.7043 27.6694 43.4183 27.3964 44.7686C27.0454 46.9006 32.6972 45.6803 32.6062 49.135C32.5152 52.4354 27.7344 52.5134 25.9404 51.0314C25.5114 50.682 25.5244 50.1116 25.7584 49.759C26.0964 49.4226 26.4718 49.3056 26.9154 49.668C27.9798 50.396 30.7228 50.942 30.9178 49.0944C30.7488 47.1736 25.344 48.3306 25.747 44.6386Z" fill="white"/>
    <circle cx="13" cy="11.5" r="11.5" fill="white"/>
    <g clip-path="url(#clip0_19558_91880)">
        <path d="M0.65003 21.2118L4.31771 17.5441C4.52225 17.8587 4.74315 18.1619 4.97909 18.4525L6.33192 17.0997C6.27361 17.0236 6.2159 16.9469 6.15944 16.8689C6.12141 16.8163 6.08399 16.7636 6.04789 16.7104C6.04154 16.7021 6.03586 16.6933 6.03011 16.685C5.99337 16.6311 5.95659 16.5766 5.92105 16.5221C5.84371 16.4042 5.76954 16.285 5.69851 16.1633C4.93835 14.8667 4.50154 13.3578 4.50154 11.7493C4.50154 10.1408 4.93835 8.63191 5.69851 7.33538C6.45872 6.04008 7.54157 4.95723 8.83682 4.19702C10.1334 3.43682 11.6423 3 13.2508 3C14.8592 3 16.3682 3.43682 17.6647 4.19702C17.7179 4.22809 17.7706 4.2598 17.8232 4.29276C17.8904 4.33396 17.9576 4.37646 18.0236 4.41956C18.1408 4.49626 18.2569 4.57554 18.3703 4.65795C18.4084 4.68519 18.4458 4.71312 18.4832 4.74101C18.5225 4.77083 18.5618 4.80061 18.6011 4.83043C18.6373 4.85896 18.674 4.88749 18.7102 4.91662C18.7812 4.97368 18.8516 5.03139 18.9207 5.09099C19.2757 5.39336 19.6066 5.7243 19.9091 6.07936C19.9687 6.14845 20.0264 6.21823 20.0834 6.28986C20.1126 6.326 20.1411 6.36278 20.1696 6.39891C20.1994 6.43823 20.2292 6.47755 20.259 6.51682C20.2869 6.5542 20.3148 6.59163 20.3421 6.62966C20.4245 6.74314 20.5037 6.85915 20.5804 6.97646C20.6236 7.04241 20.666 7.10962 20.7072 7.17682C20.7402 7.22941 20.7719 7.28205 20.803 7.33533C21.5632 8.63187 22 10.1408 22 11.7493C22 13.3578 21.5632 14.8667 20.803 16.1633C20.0428 17.4585 18.96 18.5414 17.6647 19.3016C16.3682 20.0618 14.8592 20.4986 13.2508 20.4986C11.6423 20.4986 10.1334 20.0618 8.83687 19.3016C8.75574 19.254 8.67582 19.2052 8.59659 19.1551C8.55667 19.1304 8.51735 19.105 8.47803 19.0791C8.42351 19.0436 8.36898 19.0068 8.3151 18.97C8.30685 18.9643 8.298 18.9586 8.28975 18.9523C8.23651 18.9161 8.18387 18.8787 8.13123 18.8407C8.05325 18.7843 7.97655 18.7266 7.90045 18.6683L6.54766 20.021C6.8383 20.2569 7.14149 20.4779 7.45602 20.6825L3.7883 24.3502C3.3553 24.7832 2.78721 25 2.21916 25C1.65112 25 1.08303 24.7832 0.65003 24.3501C-0.216648 23.4835 -0.216648 22.0785 0.65003 21.2118ZM9.76757 16.8911C9.78532 16.9037 9.80306 16.9158 9.82145 16.9272C9.84173 16.9418 9.86266 16.9551 9.88359 16.9684C9.90258 16.9811 9.92166 16.9931 9.94065 17.0052C9.9654 17.021 9.99006 17.0363 10.0148 17.0508C10.0383 17.0654 10.0611 17.0794 10.0846 17.0933C10.1347 17.1231 10.1848 17.1516 10.2355 17.1802C10.2393 17.1827 10.2431 17.1846 10.2475 17.1871C10.2887 17.2099 10.3305 17.2322 10.3724 17.2537C10.3889 17.2632 10.4054 17.2721 10.4225 17.2803C10.4555 17.2974 10.4891 17.3139 10.5226 17.3304C10.5867 17.3621 10.6514 17.3926 10.7167 17.4217C11.4908 17.7691 12.3486 17.9625 13.2507 17.9625C14.1529 17.9625 15.0107 17.7691 15.7848 17.4217C17.1771 16.7978 18.2993 15.6757 18.9231 14.2834C19.2706 13.5093 19.464 12.6515 19.464 11.7493C19.464 10.8471 19.2706 9.9893 18.9232 9.21517C18.8256 8.99771 18.7159 8.7866 18.5948 8.58306C18.5808 8.5596 18.5669 8.53678 18.5523 8.51332C18.513 8.44801 18.4718 8.38334 18.4287 8.31996C18.4052 8.28382 18.3811 8.24833 18.3558 8.2128C18.326 8.16841 18.2949 8.12467 18.2625 8.08157C18.2138 8.01501 18.1637 7.94905 18.1123 7.88439C17.8188 7.51606 17.484 7.18129 17.1157 6.88773C17.051 6.83638 16.985 6.78628 16.9185 6.73746C16.8753 6.70511 16.8316 6.67404 16.7872 6.64427C16.7517 6.61891 16.7162 6.59481 16.6801 6.57135C16.6167 6.52825 16.552 6.48704 16.4867 6.44773C16.4633 6.43312 16.4404 6.4192 16.417 6.40523C16.2135 6.28414 16.0023 6.17445 15.7849 6.07682C15.0107 5.72938 14.153 5.53602 13.2508 5.53602C12.3486 5.53602 11.4908 5.72938 10.7167 6.07682C9.32443 6.70068 8.20226 7.82286 7.5784 9.21513C7.23095 9.98925 7.03759 10.8471 7.03759 11.7493C7.03759 12.6514 7.23095 13.5093 7.5784 14.2834C7.60757 14.3487 7.63795 14.4134 7.66966 14.4774C7.68616 14.511 7.70266 14.5446 7.71977 14.5776C7.72802 14.5947 7.73691 14.6112 7.74641 14.6277C7.76798 14.6695 7.79015 14.7114 7.81297 14.7526C7.8155 14.757 7.81739 14.7608 7.81993 14.7646C7.84786 14.8153 7.87699 14.8654 7.90681 14.9155C7.92077 14.939 7.9347 14.9618 7.94926 14.9853C7.96383 15.01 7.97908 15.0347 7.99494 15.0594C8.00697 15.0785 8.019 15.0975 8.03172 15.1165C8.04504 15.1374 8.05836 15.1584 8.07293 15.1786C8.08431 15.197 8.09639 15.2148 8.10906 15.2325C8.12109 15.2503 8.13317 15.268 8.14584 15.2858C8.1522 15.2965 8.15981 15.3073 8.16802 15.3175C8.18194 15.3384 8.19719 15.36 8.2124 15.3809C8.32777 15.5413 8.45079 15.6954 8.58138 15.8431C8.60479 15.8703 8.6289 15.8969 8.653 15.9236C8.68407 15.9578 8.71514 15.9921 8.74685 16.025C8.78363 16.0637 8.82166 16.1024 8.85973 16.1404C8.89771 16.1785 8.93643 16.2165 8.9751 16.2533C9.00805 16.285 9.0423 16.316 9.07655 16.3471C9.10319 16.3712 9.12978 16.3953 9.15707 16.4188C9.30475 16.5494 9.45884 16.6724 9.61924 16.7878C9.64017 16.803 9.66174 16.8182 9.68266 16.8322C9.69281 16.8404 9.70359 16.848 9.71437 16.8543C9.73208 16.867 9.74987 16.879 9.76757 16.8911Z" fill="#576D7E"/>
    </g>
    <defs>
        <clipPath id="clip0_19558_91880">
            <rect width="22" height="22" fill="white" transform="matrix(-1 0 0 1 22 3)"/>
        </clipPath>
    </defs>
</svg>
