<svg width="170" height="28" viewBox="0 0 170 28" fill="none" xmlns="http://www.w3.org/2000/svg">
<path d="M42.5063 23L36.5737 4.40869H39.894L44.3252 19.0693L48.7563 4.40869H52.0278L46.1074 23H42.5063Z" fill="#13152D"/>
<path d="M58.4854 23.2441C57.6309 23.2441 56.8171 23.0814 56.0439 22.7559C55.279 22.4303 54.6117 21.9787 54.042 21.4009C53.4723 20.8231 53.0166 20.1151 52.6748 19.2769C52.3411 18.4386 52.1743 17.5312 52.1743 16.5547C52.1743 14.6178 52.7765 13.0269 53.981 11.7817C55.1935 10.5285 56.6991 9.90186 58.4976 9.90186C60.1821 9.90186 61.5697 10.4756 62.6602 11.623C63.7588 12.7705 64.3081 14.2923 64.3081 16.1885C64.3081 16.5384 64.2837 16.8761 64.2349 17.2017H55.1406C55.2301 18.284 55.6045 19.1304 56.2637 19.7407C56.931 20.3511 57.696 20.6562 58.5586 20.6562C59.2992 20.6562 59.9339 20.465 60.4629 20.0825C60.9919 19.6919 61.3743 19.1711 61.6104 18.52L64.125 19.4478C63.7995 20.5789 63.124 21.4945 62.0986 22.1943C61.0814 22.8942 59.877 23.2441 58.4854 23.2441ZM55.2017 15.1143H61.4028C61.2889 14.1865 60.9552 13.4704 60.4019 12.9658C59.8566 12.4613 59.2096 12.209 58.4609 12.209C57.6715 12.209 56.9717 12.4653 56.3613 12.978C55.751 13.4826 55.3644 14.1947 55.2017 15.1143Z" fill="#13152D"/>
<path d="M67.0303 23V10.2192H69.8501V12.5874H69.8745C70.1838 11.7736 70.6395 11.151 71.2417 10.7197C71.8521 10.2803 72.5682 10.0605 73.3901 10.0605C73.8703 10.0605 74.2161 10.1297 74.4277 10.2681V13.2832C74.1104 13.1774 73.736 13.1245 73.3047 13.1245C72.2305 13.1245 71.4248 13.4744 70.8877 14.1743C70.3506 14.8742 70.082 15.8467 70.082 17.0918V23H67.0303Z" fill="#13152D"/>
<path d="M85.0356 22.3042C84.0591 22.9308 82.9523 23.2441 81.7153 23.2441C80.4784 23.2441 79.3716 22.9308 78.395 22.3042C77.4185 21.6694 76.6779 20.8475 76.1733 19.8384C75.6688 18.8293 75.4165 17.7347 75.4165 16.5547C75.4165 15.6758 75.5671 14.8376 75.8682 14.04C76.1693 13.2344 76.5843 12.5264 77.1133 11.916C77.6504 11.2975 78.3177 10.8092 79.1152 10.4512C79.9128 10.085 80.7795 9.90186 81.7153 9.90186C82.9604 9.90186 84.0672 10.2152 85.0356 10.8418C86.0122 11.4603 86.7528 12.2741 87.2573 13.2832C87.77 14.2842 88.0264 15.3747 88.0264 16.5547C88.0264 17.7347 87.77 18.8293 87.2573 19.8384C86.7528 20.8475 86.0122 21.6694 85.0356 22.3042ZM78.5049 16.5547C78.5049 17.6696 78.7979 18.6095 79.3838 19.3745C79.9779 20.1395 80.755 20.522 81.7153 20.522C82.6756 20.522 83.4528 20.1395 84.0469 19.3745C84.6409 18.6095 84.938 17.6696 84.938 16.5547C84.938 15.4561 84.6409 14.5283 84.0469 13.7715C83.4528 13.0065 82.6756 12.624 81.7153 12.624C80.755 12.624 79.9779 13.0065 79.3838 13.7715C78.7979 14.5283 78.5049 15.4561 78.5049 16.5547Z" fill="#13152D"/>
<path d="M90.6753 23V10.2192H93.4829V11.9282H93.5073C93.9305 11.269 94.4595 10.7686 95.0942 10.4268C95.7371 10.0768 96.4451 9.90186 97.2183 9.90186C98.5041 9.90186 99.5742 10.325 100.429 11.1714C101.283 12.0177 101.71 13.2303 101.71 14.8091V23H98.6587V15.5049C98.6587 14.626 98.4512 13.9383 98.0361 13.4419C97.6292 12.9455 97.0596 12.6973 96.3271 12.6973C95.6436 12.6973 95.0535 12.9373 94.5571 13.4175C94.0688 13.8895 93.7922 14.5243 93.7271 15.3218V23H90.6753Z" fill="#13152D"/>
<path d="M104.457 14.4551C104.506 13.7552 104.697 13.1123 105.031 12.5264C105.364 11.9404 105.788 11.4603 106.3 11.0859C106.821 10.7116 107.403 10.4227 108.046 10.2192C108.689 10.0076 109.348 9.90186 110.023 9.90186C111.513 9.90186 112.725 10.2925 113.661 11.0737C114.597 11.8468 115.065 12.974 115.065 14.4551V23H112.233V20.9858H112.172C111.854 21.6206 111.358 22.1536 110.683 22.585C110.007 23.0081 109.201 23.2197 108.266 23.2197C107.134 23.2197 106.186 22.8901 105.421 22.231C104.665 21.5636 104.286 20.6766 104.286 19.5698C104.286 18.6258 104.628 17.8161 105.312 17.1406C106.003 16.4652 106.935 16.0298 108.107 15.8345L110.451 15.4316C111.069 15.3258 111.517 15.159 111.793 14.9312C112.07 14.7033 112.208 14.3696 112.208 13.9302C112.208 13.4907 112.013 13.1082 111.623 12.7827C111.232 12.4572 110.707 12.2944 110.048 12.2944C109.267 12.2944 108.603 12.5426 108.058 13.0391C107.513 13.5355 107.228 14.1621 107.204 14.9189L104.457 14.4551ZM107.387 19.3745C107.387 19.8465 107.562 20.2209 107.912 20.4976C108.262 20.7743 108.729 20.9126 109.315 20.9126C109.568 20.9126 109.82 20.876 110.072 20.8027C110.333 20.7295 110.593 20.6074 110.854 20.4365C111.114 20.2656 111.342 20.0581 111.537 19.814C111.741 19.5698 111.903 19.2565 112.025 18.874C112.147 18.4834 112.208 18.0562 112.208 17.5923V16.9819C111.859 17.104 111.26 17.2424 110.414 17.397L109.315 17.5923C108.673 17.7144 108.188 17.93 107.863 18.2393C107.545 18.5485 107.387 18.9269 107.387 19.3745Z" fill="#13152D"/>
<path d="M119.081 23V4.40869H122.169V20.0825H128.847V23H119.081Z" fill="#13152D"/>
<path d="M130.727 14.4551C130.775 13.7552 130.967 13.1123 131.3 12.5264C131.634 11.9404 132.057 11.4603 132.57 11.0859C133.091 10.7116 133.673 10.4227 134.315 10.2192C134.958 10.0076 135.618 9.90186 136.293 9.90186C137.782 9.90186 138.995 10.2925 139.931 11.0737C140.867 11.8468 141.334 12.974 141.334 14.4551V23H138.502V20.9858H138.441C138.124 21.6206 137.628 22.1536 136.952 22.585C136.277 23.0081 135.471 23.2197 134.535 23.2197C133.404 23.2197 132.456 22.8901 131.691 22.231C130.934 21.5636 130.556 20.6766 130.556 19.5698C130.556 18.6258 130.897 17.8161 131.581 17.1406C132.273 16.4652 133.205 16.0298 134.376 15.8345L136.72 15.4316C137.339 15.3258 137.786 15.159 138.063 14.9312C138.34 14.7033 138.478 14.3696 138.478 13.9302C138.478 13.4907 138.283 13.1082 137.892 12.7827C137.501 12.4572 136.977 12.2944 136.317 12.2944C135.536 12.2944 134.873 12.5426 134.328 13.0391C133.782 13.5355 133.498 14.1621 133.473 14.9189L130.727 14.4551ZM133.656 19.3745C133.656 19.8465 133.831 20.2209 134.181 20.4976C134.531 20.7743 134.999 20.9126 135.585 20.9126C135.837 20.9126 136.09 20.876 136.342 20.8027C136.602 20.7295 136.863 20.6074 137.123 20.4365C137.383 20.2656 137.611 20.0581 137.807 19.814C138.01 19.5698 138.173 19.2565 138.295 18.874C138.417 18.4834 138.478 18.0562 138.478 17.5923V16.9819C138.128 17.104 137.53 17.2424 136.684 17.397L135.585 17.5923C134.942 17.7144 134.458 17.93 134.132 18.2393C133.815 18.5485 133.656 18.9269 133.656 19.3745Z" fill="#13152D"/>
<path d="M144.801 23V4.12793H147.853V11.8306H147.89C148.874 10.5448 150.148 9.90186 151.71 9.90186C153.265 9.90186 154.559 10.5 155.592 11.6963C156.634 12.8844 157.155 14.4958 157.155 16.5303C157.155 17.5557 157.012 18.4915 156.728 19.3379C156.443 20.1842 156.052 20.8882 155.556 21.4497C155.067 22.0031 154.49 22.4344 153.822 22.7437C153.163 23.0448 152.459 23.1953 151.71 23.1953C150.018 23.1953 148.671 22.4425 147.67 20.937H147.609V23H144.801ZM147.853 16.5547C147.853 17.7103 148.134 18.6665 148.695 19.4233C149.257 20.1802 150.022 20.5586 150.99 20.5586C151.942 20.5586 152.691 20.1802 153.236 19.4233C153.782 18.6665 154.054 17.7103 154.054 16.5547C154.054 15.4154 153.778 14.4714 153.224 13.7227C152.679 12.9658 151.934 12.5874 150.99 12.5874C150.022 12.5874 149.257 12.9618 148.695 13.7104C148.134 14.4591 147.853 15.4072 147.853 16.5547Z" fill="#13152D"/>
<path d="M164.406 23.2441C162.892 23.2441 161.618 22.8332 160.585 22.0112C159.551 21.1893 159.002 20.1924 158.937 19.0205L161.684 18.6299C161.798 19.3542 162.115 19.9279 162.636 20.3511C163.157 20.7743 163.779 20.9858 164.503 20.9858C165.138 20.9858 165.643 20.8312 166.017 20.522C166.391 20.2127 166.579 19.8262 166.579 19.3623C166.579 18.5078 166.029 17.9788 164.931 17.7754L162.794 17.3481C161.688 17.1366 160.825 16.7337 160.207 16.1396C159.596 15.5374 159.291 14.7643 159.291 13.8203C159.291 12.7217 159.787 11.7939 160.78 11.0371C161.781 10.2803 162.986 9.90186 164.394 9.90186C165.753 9.90186 166.92 10.2681 167.897 11.0005C168.882 11.7329 169.427 12.7054 169.533 13.918L166.884 14.394C166.811 13.7267 166.534 13.1815 166.054 12.7583C165.582 12.327 165 12.1113 164.308 12.1113C163.69 12.1113 163.193 12.266 162.819 12.5752C162.444 12.8844 162.257 13.2507 162.257 13.6738C162.257 14.0726 162.388 14.39 162.648 14.626C162.908 14.862 163.336 15.0329 163.93 15.1387L166.273 15.5659C167.315 15.7531 168.129 16.1396 168.715 16.7256C169.309 17.3034 169.606 18.0887 169.606 19.0815C169.606 20.2778 169.134 21.2707 168.19 22.0601C167.246 22.8494 165.985 23.2441 164.406 23.2441Z" fill="#13152D"/>
<path d="M27.4657 28H0.509524C0.163192 28 -0.0869367 27.642 0.0285074 27.304L6.41641 12.3295C6.53186 11.9716 6.97439 11.8523 7.24376 12.1108L13.3623 20.2642C13.6894 20.5824 14.2089 20.5824 14.5552 20.2642L20.77 12.1108C21.0393 11.8523 21.4819 11.9716 21.5973 12.3295L27.9852 27.3239C28.0622 27.642 27.8313 28 27.4657 28Z" fill="#00BEFF"/>
<path d="M14.7092 15.9688C14.3051 16.3665 13.6702 16.3665 13.2661 15.9688L7.12833 7.77557C6.99365 7.63636 6.91669 7.45739 6.91669 7.25852V0.894886C6.91669 0.397727 7.3015 0 7.78252 0H20.1928C20.6738 0 21.0778 0.397727 21.0778 0.914773V7.25852C21.0778 7.45739 21.0009 7.63636 20.8662 7.77557L14.7092 15.9688Z" fill="#00BEFF"/>
</svg>
