
<svg width="148" height="35" viewBox="0 0 148 35" fill="none" xmlns="http://www.w3.org/2000/svg">
    <path d="M32.193 21.7533C29.557 29.8406 20.8961 34.2291 12.8 31.6587C4.70398 29.0883 0.310752 20.374 2.88392 12.2867C5.4571 4.19943 14.1807 -0.189041 22.2768 2.38134C26.8584 3.88597 30.4984 7.45942 32.0674 12.036H33.8247C31.0633 3.07096 21.5238 -2.00712 12.549 0.75134C3.57428 3.50981 -1.5093 13.039 1.25216 22.0041C4.01361 30.969 13.5531 36.0471 22.5279 33.2887C28.0508 31.596 32.3184 27.2703 33.8874 21.7533H32.193Z" fill="white"/>
    <path d="M26.9219 23.6346H26.7336C26.0432 23.5719 25.4156 23.1957 25.0391 22.6315L21.399 17.7415C21.2107 17.4281 20.8342 17.1772 20.3949 17.1772C20.0183 17.1772 19.6417 17.3653 19.3907 17.6788L16.8175 22.13C16.1271 23.1331 14.8091 23.4465 13.805 22.7569C13.6167 22.6315 13.4284 22.4434 13.303 22.2553L13.2401 22.1927L9.66283 16.2996C9.47455 16.0488 9.2235 15.8608 8.9097 15.8608C8.40762 15.9234 8.03106 16.1115 7.71726 16.4877L2.31988 21.9419L1.62952 21.2523L7.0269 15.7353C7.52898 15.1711 8.21934 14.7949 8.97246 14.7949C9.60006 14.8577 10.1022 15.1711 10.4787 15.6727L10.5415 15.7353L14.1815 21.7538C14.6208 22.2553 15.374 22.3181 15.8761 21.8792C15.9388 21.8165 16.0016 21.7538 16.0644 21.6284L18.6376 17.1772C19.0141 16.5503 19.7044 16.1742 20.4576 16.1742C21.2107 16.1742 21.901 16.5503 22.2776 17.1772L25.9178 22.0672C26.2943 22.6315 26.9846 22.7569 27.5495 22.4434C27.6122 22.3807 27.7378 22.3181 27.8005 22.2553L31.6289 14.7949L32.5075 15.2337L28.6164 22.7569L28.5536 22.8196C28.1771 23.3212 27.5495 23.6346 26.9219 23.6346Z" fill="white"/>
    <path d="M9.03516 17.4267C10.0748 17.4267 10.9176 16.5849 10.9176 15.5464C10.9176 14.5078 10.0748 13.666 9.03516 13.666C7.99551 13.666 7.15271 14.5078 7.15271 15.5464C7.15271 16.5849 7.99551 17.4267 9.03516 17.4267Z" fill="white"/>
    <path d="M15.1224 24.4492C16.1623 24.4492 17.0054 23.6071 17.0054 22.5683C17.0054 21.5295 16.1623 20.6875 15.1224 20.6875C14.0824 20.6875 13.2395 21.5295 13.2395 22.5683C13.2395 23.6071 14.0824 24.4492 15.1224 24.4492Z" fill="white"/>
    <path d="M20.454 18.5563C21.4939 18.5563 22.3369 17.7143 22.3369 16.6756C22.3369 15.6369 21.4939 14.7949 20.454 14.7949C19.4142 14.7949 18.5713 15.6369 18.5713 16.6756C18.5713 17.7143 19.4142 18.5563 20.454 18.5563Z" fill="white"/>
    <path d="M27.0207 24.6982C28.0604 24.6982 28.9031 23.8563 28.9031 22.8179C28.9031 21.7794 28.0604 20.9375 27.0207 20.9375C25.9811 20.9375 25.1384 21.7794 25.1384 22.8179C25.1384 23.8563 25.9811 24.6982 27.0207 24.6982Z" fill="white"/>
    <path d="M40.3594 8.62513H42.8951L45.8839 16.5902C46.0781 17.1147 46.2399 17.5746 46.3694 17.9698C46.5061 18.365 46.6247 18.7351 46.7255 19.0799C46.9772 18.2465 47.2398 17.4309 47.5132 16.6334C47.5491 16.5327 47.5743 16.4644 47.5886 16.4285L50.7608 8L54.1057 16.5902C54.264 17.007 54.4114 17.4238 54.5481 17.8405C54.692 18.2573 54.825 18.6776 54.9474 19.1015C55.0193 18.7782 55.1164 18.4225 55.2386 18.0345C55.361 17.6465 55.5192 17.1866 55.7135 16.6549L58.6807 8.62513H61.2378L55.12 25.0187L51.5161 16.019C51.3579 15.6166 51.2141 15.2322 51.0845 14.8657C50.9551 14.4921 50.8401 14.14 50.7393 13.8094C50.617 14.2334 50.4947 14.6322 50.3725 15.0058C50.2501 15.3723 50.1243 15.7244 49.9948 16.0621L46.4557 25.0187L40.3594 8.62513Z" fill="white"/>
    <path d="M64.8058 15.2154H65.464C66.8882 15.2154 67.8378 15.0609 68.3125 14.7519C68.7872 14.443 69.0247 13.8969 69.0247 13.1136C69.0247 12.2729 68.7693 11.6801 68.2586 11.3352C67.755 10.9903 66.8235 10.8179 65.464 10.8179H64.8058V15.2154ZM64.644 17.3172V24.3984H62.2379V8.61914H66.1222C67.2731 8.61914 68.1182 8.68381 68.6578 8.81315C69.2045 8.9353 69.6792 9.14009 70.082 9.4275C70.5784 9.79396 70.9668 10.2898 71.2473 10.9149C71.5278 11.5328 71.6682 12.2155 71.6682 12.9627C71.6682 13.71 71.5278 14.3998 71.2473 15.0321C70.9668 15.6645 70.5784 16.1603 70.082 16.5196C69.6792 16.807 69.2045 17.0118 68.6578 17.1339C68.1182 17.2561 67.2731 17.3172 66.1222 17.3172H64.644Z" fill="white"/>
    <path d="M80.073 15.6263C81.1016 16.0645 81.8748 16.6465 82.3928 17.3724C82.9179 18.0981 83.1804 18.9567 83.1804 19.9483C83.1804 21.3997 82.7165 22.571 81.7886 23.462C80.8678 24.3458 79.6449 24.7877 78.12 24.7877C76.8755 24.7877 75.8325 24.4715 74.9909 23.8393C74.1494 23.1997 73.5811 22.2944 73.2862 21.1231L74.9909 20.2825C75.2211 21.2381 75.5987 21.9638 76.1239 22.4596C76.6562 22.9483 77.3216 23.1926 78.12 23.1926C79.0623 23.1926 79.8248 22.9231 80.4075 22.3842C80.9901 21.838 81.2814 21.1303 81.2814 20.2609C81.2814 19.5567 81.0764 18.9459 80.6664 18.4286C80.2636 17.904 79.6522 17.4622 78.8322 17.1029L76.9115 16.2837C75.8613 15.8455 75.0772 15.2813 74.5594 14.5915C74.0487 13.9017 73.7932 13.0754 73.7932 12.1126C73.7932 10.9916 74.2105 10.0647 75.0449 9.3318C75.8793 8.59888 76.9439 8.23242 78.2387 8.23242C79.1882 8.23242 80.0082 8.43361 80.6988 8.836C81.3966 9.23839 81.9396 9.83119 82.3281 10.6144L80.7743 11.606C80.4218 10.9952 80.0262 10.5425 79.5874 10.2479C79.1487 9.94615 78.6523 9.79526 78.0984 9.79526C77.3935 9.79526 76.8144 10.0108 76.3613 10.4419C75.9153 10.8731 75.6923 11.4228 75.6923 12.091C75.6923 12.6515 75.8649 13.1365 76.2102 13.5461C76.5555 13.9556 77.0913 14.3185 77.8179 14.6347L80.073 15.6263Z" fill="white"/>
    <path d="M85.993 16.3168H84.1804V14.9264H85.993V10.9492H87.7194V14.9264H89.532V16.3168H87.7194V24.7884H85.993V16.3168Z" fill="white"/>
    <path d="M98.8404 19.5287C98.8404 18.4149 98.5346 17.5204 97.9232 16.8449C97.319 16.1623 96.5277 15.821 95.5495 15.821C94.5351 15.821 93.7439 16.1336 93.1757 16.7588C92.6074 17.3838 92.3232 18.2569 92.3232 19.3778C92.3232 20.5706 92.6074 21.4904 93.1757 22.137C93.7511 22.7837 94.5639 23.1071 95.6141 23.1071C96.6212 23.1071 97.4089 22.7945 97.9772 22.1693C98.5526 21.5371 98.8404 20.6569 98.8404 19.5287ZM100.48 14.5061V24.3681H98.8404V22.579C98.4447 23.2975 97.9376 23.8471 97.319 24.228C96.7075 24.6016 96.0205 24.7885 95.2581 24.7885C93.8411 24.7885 92.6973 24.3035 91.827 23.3334C90.9638 22.3561 90.5322 21.0664 90.5322 19.464C90.5322 17.8401 90.9529 16.5504 91.7945 15.5946C92.6362 14.6318 93.7618 14.1504 95.1718 14.1504C95.999 14.1504 96.7147 14.3372 97.319 14.7109C97.9304 15.0773 98.4231 15.627 98.7971 16.3599V14.5061H100.48Z" fill="white"/>
    <path d="M103.293 16.3168H101.48V14.9264H103.293V10.9492H105.019V14.9264H106.832V16.3168H105.019V24.7884H103.293V16.3168Z" fill="white"/>
    <path d="M107.832 10.1721C107.832 9.83436 107.951 9.54694 108.189 9.30982C108.433 9.06551 108.728 8.94336 109.073 8.94336C109.411 8.94336 109.699 9.06551 109.937 9.30982C110.181 9.55412 110.303 9.84873 110.303 10.1936C110.303 10.5313 110.185 10.8188 109.947 11.0559C109.71 11.293 109.418 11.4116 109.073 11.4116C108.728 11.4116 108.433 11.293 108.189 11.0559C107.951 10.8188 107.832 10.5242 107.832 10.1721ZM108.231 24.7872V14.9252H109.937V24.7872H108.231Z" fill="white"/>
    <path d="M111.303 22.7082L112.749 21.7382C113.022 22.2628 113.368 22.658 113.785 22.9238C114.202 23.1825 114.695 23.3118 115.263 23.3118C115.817 23.3118 116.263 23.1753 116.601 22.9023C116.946 22.6292 117.118 22.27 117.118 21.8245C117.118 21.4796 117.001 21.1921 116.763 20.9622C116.533 20.7322 116.133 20.5203 115.565 20.3262L115.285 20.2293C112.882 19.4029 111.681 18.3682 111.681 17.1252C111.681 16.2485 112.005 15.5336 112.651 14.9804C113.299 14.427 114.14 14.1504 115.177 14.1504C116.033 14.1504 116.766 14.3228 117.377 14.6677C117.99 15.0055 118.428 15.4869 118.694 16.1121L117.324 16.9527C117.123 16.5 116.824 16.1515 116.428 15.9072C116.039 15.663 115.587 15.5408 115.068 15.5408C114.573 15.5408 114.166 15.6809 113.849 15.9611C113.54 16.2342 113.386 16.5863 113.386 17.0174C113.386 17.621 114.04 18.1275 115.349 18.5372C115.594 18.6162 115.788 18.6772 115.932 18.7203C117.004 19.0653 117.748 19.4605 118.165 19.9059C118.59 20.3442 118.802 20.9263 118.802 21.652C118.802 22.5861 118.467 23.3441 117.799 23.9262C117.136 24.5011 116.271 24.7885 115.198 24.7885C114.277 24.7885 113.494 24.616 112.846 24.2711C112.206 23.9262 111.691 23.4053 111.303 22.7082Z" fill="white"/>
    <path d="M121.615 16.3168H119.802V14.9264H121.615V10.9492H123.342V14.9264H125.154V16.3168H123.342V24.7884H121.615V16.3168Z" fill="white"/>
    <path d="M126.154 10.1721C126.154 9.83436 126.273 9.54694 126.511 9.30982C126.755 9.06551 127.05 8.94336 127.395 8.94336C127.733 8.94336 128.021 9.06551 128.259 9.30982C128.503 9.55412 128.625 9.84873 128.625 10.1936C128.625 10.5313 128.506 10.8188 128.269 11.0559C128.032 11.293 127.74 11.4116 127.395 11.4116C127.05 11.4116 126.755 11.293 126.511 11.0559C126.273 10.8188 126.154 10.5242 126.154 10.1721ZM126.553 24.7872V14.9252H128.259V24.7872H126.553Z" fill="white"/>
    <path d="M138.019 22.0293V23.9908C137.573 24.2568 137.069 24.4544 136.509 24.5836C135.954 24.7202 135.354 24.7885 134.707 24.7885C133.182 24.7885 131.952 24.307 131.016 23.3441C130.088 22.3741 129.625 21.1023 129.625 19.5287C129.625 17.9479 130.106 16.6581 131.071 15.6593C132.034 14.6534 133.268 14.1504 134.771 14.1504C135.318 14.1504 135.85 14.2079 136.368 14.3228C136.893 14.4378 137.386 14.6067 137.847 14.8294V16.6402C137.415 16.3599 136.969 16.148 136.509 16.0043C136.048 15.8533 135.581 15.7779 135.105 15.7779C133.998 15.7779 133.11 16.1264 132.441 16.8233C131.772 17.5132 131.437 18.4329 131.437 19.5826C131.437 20.5957 131.772 21.4436 132.441 22.1262C133.116 22.8089 133.962 23.1502 134.977 23.1502C135.487 23.1502 135.987 23.0604 136.476 22.8807C136.966 22.7011 137.479 22.4173 138.019 22.0293Z" fill="white"/>
    <path d="M139.019 22.7082L140.464 21.7382C140.738 22.2628 141.083 22.658 141.5 22.9238C141.918 23.1825 142.41 23.3118 142.978 23.3118C143.533 23.3118 143.978 23.1753 144.317 22.9023C144.662 22.6292 144.835 22.27 144.835 21.8245C144.835 21.4796 144.716 21.1921 144.478 20.9622C144.248 20.7322 143.849 20.5203 143.28 20.3262L143 20.2293C140.598 19.4029 139.397 18.3682 139.397 17.1252C139.397 16.2485 139.72 15.5336 140.368 14.9804C141.015 14.427 141.857 14.1504 142.892 14.1504C143.748 14.1504 144.482 14.3228 145.094 14.6677C145.705 15.0055 146.144 15.4869 146.41 16.1121L145.039 16.9527C144.838 16.5 144.539 16.1515 144.144 15.9072C143.756 15.663 143.302 15.5408 142.785 15.5408C142.288 15.5408 141.881 15.6809 141.566 15.9611C141.256 16.2342 141.101 16.5863 141.101 17.0174C141.101 17.621 141.756 18.1275 143.065 18.5372C143.309 18.6162 143.504 18.6772 143.647 18.7203C144.719 19.0653 145.464 19.4605 145.881 19.9059C146.305 20.3442 146.517 20.9263 146.517 21.652C146.517 22.5861 146.183 23.3441 145.514 23.9262C144.853 24.5011 143.986 24.7885 142.914 24.7885C141.993 24.7885 141.209 24.616 140.561 24.2711C139.921 23.9262 139.408 23.4053 139.019 22.7082Z" fill="white"/>
</svg>
