<svg width="18" height="13" viewBox="0 0 18 13" fill="none" xmlns="http://www.w3.org/2000/svg">
<path d="M1.5495 13C1.12336 13 0.758571 12.8466 0.455143 12.5398C0.151714 12.233 0 11.8642 0 11.4333V1.56672C0 1.13584 0.151714 0.767 0.455143 0.4602C0.758571 0.1534 1.12336 0 1.5495 0H16.4505C16.8766 0 17.2414 0.1534 17.5449 0.4602C17.8483 0.767 18 1.13584 18 1.56672V11.4333C18 11.8642 17.8483 12.233 17.5449 12.5398C17.2414 12.8466 16.8766 13 16.4505 13H1.5495ZM3.64286 11.7H14.3571V1.3H3.64286V11.7Z" fill="#283544"/>
</svg>
