<svg viewBox="0 0 640 480" fill="none" xmlns="http://www.w3.org/2000/svg"><g clip-path="url(#a)"><path d="M0 0h640v160H0V0Z" fill="#000"/><path d="M0 160h640v160H0V160Z" fill="#D00"/><path d="M0 320h640v160H0V320Z" fill="#FFCE00"/><path d="M394.252 238.746c0 41.441-33.259 75.036-74.287 75.036-41.027 0-74.286-33.595-74.286-75.036s33.259-75.036 74.286-75.036c41.028 0 74.287 33.595 74.287 75.036Z" fill="#D00"/><path fill-rule="evenodd" clip-rule="evenodd" d="m323.687 330.109-22.983 10.857-2.429-1.822 21.574-10.165 3.838 1.13ZM326.119 331.93l-22.983 10.857-2.428-1.821 21.573-10.166 3.838 1.13Z" fill="#FFC709" stroke="#BA6D00" stroke-width="1.279"/><path fill-rule="evenodd" clip-rule="evenodd" d="M328.549 333.743 305.566 344.6l-2.429-1.822 21.574-10.165 3.838 1.13Z" fill="#FFC709" stroke="#BA6D00" stroke-width="1.279"/><path fill-rule="evenodd" clip-rule="evenodd" d="m330.974 335.562-22.983 10.856-2.429-1.821 21.574-10.165 3.838 1.13ZM333.401 337.379l-22.983 10.857-2.428-1.821 21.574-10.166 3.837 1.13Z" fill="#FFC709" stroke="#BA6D00" stroke-width="1.279"/><path fill-rule="evenodd" clip-rule="evenodd" d="m316.063 330.095 22.983 10.856 2.429-1.821-21.574-10.165-3.838 1.13ZM313.604 331.921l22.984 10.857 2.428-1.821-21.574-10.166-3.838 1.13ZM311.146 333.748l22.983 10.857 2.428-1.822-21.574-10.165-3.837 1.13Z" fill="#FFC709" stroke="#BA6D00" stroke-width="1.279"/><path fill-rule="evenodd" clip-rule="evenodd" d="m308.712 335.556 22.983 10.857 2.428-1.821-21.573-10.165-3.838 1.129Z" fill="#FFC709" stroke="#BA6D00" stroke-width="1.279"/><path fill-rule="evenodd" clip-rule="evenodd" d="m306.293 337.358 22.983 10.856 2.428-1.821-21.573-10.165-3.838 1.13Z" fill="#FFC709" stroke="#BA6D00" stroke-width="1.279"/><path d="m321.005 176.297-32.675 1.754v19.234l32.675 1.754h3.539l27.245-3.999v-14.745l-27.245-3.998h-3.539Z" fill="#000" stroke="#000" stroke-width="2.557" stroke-miterlimit="5" stroke-linejoin="round"/><path d="M325.5 209.083h-11.266a2.862 2.862 0 0 0-2.863 2.861v90.429a2.862 2.862 0 0 0 2.863 2.861H325.5a2.862 2.862 0 0 0 2.863-2.861v-90.429a2.862 2.862 0 0 0-2.863-2.861Z" fill="#FFC709" stroke="#000" stroke-width="2.813" stroke-linejoin="round"/><path d="M358.303 239.85c-9.657 9.963-23.175 16.167-38.141 16.167a52.852 52.852 0 0 1-28.996-8.623l-6.797 10.038a64.925 64.925 0 0 0 35.793 10.705c18.344 0 34.918-7.59 46.775-19.782l-8.634-8.505Z" fill="#FFC709" stroke="#000" stroke-width="2.813"/><path fill-rule="evenodd" clip-rule="evenodd" d="m313.766 196.855-46.8 86.378 52.979-68.317 52.983 68.317-46.796-86.378-6.183 8.677-6.183-8.677Z" fill="#FFC709" stroke="#000" stroke-width="2.813"/><path d="m320.948 177.21-22.445 1.074-9.32 3.739v11.29l9.198 3.738 22.567 1.197h3.44l26.487-3.882v-13.457l-26.487-3.699h-3.44Z" fill="#FFC709"/><path d="M327.638 202.058a7.775 7.775 0 0 0-7.777-7.772 7.775 7.775 0 0 0-7.778 7.772v.386a7.775 7.775 0 0 0 7.778 7.772 7.775 7.775 0 0 0 7.777-7.772v-.386Z" fill="#FFC709" stroke="#000" stroke-width="3.624" stroke-miterlimit="5" stroke-linejoin="round"/><path d="M323.166 202.12a3.293 3.293 0 0 1-3.295 3.292 3.293 3.293 0 1 1 0-6.583 3.293 3.293 0 0 1 3.295 3.291Z" fill="#FFC709" stroke="#000" stroke-width="1.213" stroke-linejoin="round"/><path fill-rule="evenodd" clip-rule="evenodd" d="m259.372 318.307-29.41-32.863-11.542-41.237 4.111-38.077 18.816-36.496 29.093-22.436 17.393-6.478 4.901 7.11 8.538 2.528-4.901 4.108-.633 10.586-29.725 19.433-18.026 30.019-1.739 33.811 9.013 29.387 34.469 32.863-30.358 7.742Z" fill="#FFC709"/><path fill-rule="evenodd" clip-rule="evenodd" d="M222.988 270.967s1.279 3.753 4.229 8.238c3.264 4.66 5.549 4.38 5.549 4.38s3.504.518 3.906-2.216c.094-2.725-1.781-3.644-1.783-3.705.002.062-2.058-1.408-4.692-2.484-2.277-1.395-2.133-1.37-3.481-3.108-.865-1.998-.573-.596-2.797-8.447-2.225-7.851-3.189-12.231-3.25-12.228l-2.794.644 2.927 11.442 1.022 3.898 1.164 3.586Z" fill="#FFC709" stroke="#BA6D00" stroke-width="1.279" stroke-linejoin="round"/><path fill-rule="evenodd" clip-rule="evenodd" d="m221.416 244.178 6.083 20.335s.72 2.207 1.158 4.471c.024 2.708-.457 3.789-.457 3.789-.061.003-.289 1.443-.42 2.921-.05 2.028.853 3.406.851 3.344.002.062.693 1.059 2.684 1.172 2.289-.144 2.576-1.791 2.576-1.791s.348-.176.17-2.461c-.178-2.285-1.453-5.839-1.453-5.839l-8.688-27.444-2.504 1.503Z" fill="#FFC709" stroke="#BA6D00" stroke-width="1.279" stroke-linejoin="round"/><path fill-rule="evenodd" clip-rule="evenodd" d="m217.687 239.187 5.345 20.541s.64 2.232.996 4.51c-.074 2.707-.594 3.77-.594 3.77-.061 0-.34 1.432-.525 2.904-.123 2.024.73 3.434.73 3.373 0 .061.654 1.083 2.64 1.267 2.292-.061 2.639-1.697 2.639-1.697s.354-.163.259-2.453c-.096-2.29-1.241-5.888-1.241-5.888l-7.693-27.739-2.556 1.412Z" fill="#FFC709" stroke="#BA6D00" stroke-width="1.279" stroke-linejoin="round"/><path fill-rule="evenodd" clip-rule="evenodd" d="M219.558 269.358s1.23 3.77 4.123 8.293c3.203 4.701 5.491 4.451 5.491 4.451s3.497.564 3.934-2.165c.13-2.723-1.733-3.666-1.734-3.727.001.061-2.04-1.435-4.66-2.545-2.258-1.425-2.115-1.398-3.44-3.153-.839-2.009-.565-.604-2.687-8.483-2.123-7.878-3.03-12.271-3.091-12.269l-2.802.608 2.779 11.479.97 3.911 1.117 3.6Z" fill="#FFC709" stroke="#BA6D00" stroke-width="1.279" stroke-linejoin="round"/><path fill-rule="evenodd" clip-rule="evenodd" d="M230.241 257.166s1.022 3.747 3.503 8.271c2.753 4.706 4.784 4.504 4.784 4.504s3.087.627 3.523-2.059c.164-2.686-1.469-3.655-1.469-3.715 0 .061-1.781-1.458-4.082-2.606-1.974-1.452-1.848-1.422-2.99-3.181-.708-2.002-.49-.608-2.228-8.43-1.739-7.823-2.463-12.178-2.518-12.178l-2.493.545 2.256 11.39.79 3.881.924 3.578Z" fill="#FFC709" stroke="#BA6D00" stroke-width="1.196" stroke-linejoin="round"/><path fill-rule="evenodd" clip-rule="evenodd" d="M233.154 257.653s1.155 3.793 3.956 8.373c3.108 4.764 5.401 4.56 5.401 4.56s3.485.634 3.977-2.086c.184-2.72-1.659-3.7-1.659-3.762 0 .062-2.011-1.475-4.609-2.637-2.229-1.47-2.086-1.44-3.376-3.221-.799-2.026-.553-.615-2.517-8.534-1.964-7.92-2.783-12.33-2.844-12.33l-2.814.553 2.549 11.532.892 3.929 1.044 3.623Z" fill="#FFC709" stroke="#BA6D00" stroke-width="1.279" stroke-linejoin="round"/><path fill-rule="evenodd" clip-rule="evenodd" d="m230.126 236.411 5.346 20.541s.64 2.232.995 4.509c-.074 2.708-.593 3.771-.593 3.771-.062 0-.341 1.432-.525 2.904-.123 2.024.73 3.434.73 3.372 0 .062.654 1.084 2.639 1.268 2.293-.061 2.639-1.697 2.639-1.697s.354-.164.259-2.453c-.095-2.29-1.241-5.888-1.241-5.888l-7.693-27.739-2.556 1.412ZM240.158 242.725l6.587 20.178s.775 2.188 1.269 4.44c.091 2.707-.363 3.8-.363 3.8-.061.004-.253 1.45-.347 2.93.001 2.028.938 3.384.934 3.322.004.062.719 1.042 2.712 1.105 2.284-.201 2.531-1.854 2.531-1.854s.343-.185.109-2.465c-.235-2.28-1.598-5.801-1.598-5.801l-9.368-27.22-2.466 1.565Z" fill="#FFC709" stroke="#BA6D00" stroke-width="1.279" stroke-linejoin="round"/><path fill-rule="evenodd" clip-rule="evenodd" d="M243.688 269.371s1.269 3.756 4.208 8.25c3.251 4.668 5.537 4.394 5.537 4.394s3.502.528 3.911-2.206c.102-2.724-1.77-3.648-1.772-3.709.002.061-2.055-1.414-4.686-2.497-2.273-1.401-2.129-1.376-3.473-3.117-.86-2.001-.571-.598-2.774-8.455-2.203-7.856-3.156-12.239-3.217-12.237l-2.796.637 2.897 11.45 1.011 3.9 1.154 3.59ZM228.941 262.396s1.154 3.793 3.955 8.373c3.108 4.764 5.402 4.56 5.402 4.56s3.484.634 3.976-2.086c.184-2.72-1.659-3.7-1.659-3.762 0 .062-2.011-1.475-4.608-2.637-2.229-1.47-2.087-1.44-3.377-3.22-.799-2.027-.552-.616-2.517-8.535-1.964-7.92-2.783-12.329-2.844-12.329l-2.814.552 2.549 11.532.892 3.929 1.045 3.623Z" fill="#FFC709" stroke="#BA6D00" stroke-width="1.279" stroke-linejoin="round"/><path fill-rule="evenodd" clip-rule="evenodd" d="M225.81 260.211s1.154 3.794 3.955 8.374c3.109 4.764 5.402 4.559 5.402 4.559s3.485.634 3.976-2.086c.184-2.72-1.659-3.7-1.659-3.761 0 .061-2.011-1.475-4.608-2.638-2.229-1.469-2.086-1.44-3.377-3.22-.798-2.026-.552-.615-2.516-8.535-1.965-7.92-2.783-12.329-2.845-12.329l-2.814.552 2.549 11.532.892 3.93 1.045 3.622Z" fill="#FFC709" stroke="#BA6D00" stroke-width="1.279" stroke-linejoin="round"/><path fill-rule="evenodd" clip-rule="evenodd" d="m233.429 238.353 5.345 20.541s.64 2.232.996 4.51c-.074 2.707-.594 3.77-.594 3.77-.061 0-.34 1.432-.525 2.904-.122 2.024.73 3.434.73 3.373 0 .061.655 1.083 2.64 1.267 2.292-.061 2.639-1.697 2.639-1.697s.354-.163.259-2.453c-.095-2.29-1.241-5.888-1.241-5.888l-7.693-27.739-2.556 1.412ZM247.239 270.376s1.433 3.697 4.567 8.057c3.453 4.521 5.725 4.147 5.725 4.147s3.522.374 3.81-2.375c-.018-2.726-1.929-3.567-1.933-3.628.004.061-2.115-1.322-4.792-2.289-2.332-1.3-2.187-1.281-3.606-2.961-.947-1.961-.597-.573-3.143-8.325-2.547-7.752-3.691-12.089-3.752-12.084l-2.765.759 3.397 11.311 1.182 3.853 1.31 3.535Z" fill="#FFC709" stroke="#BA6D00" stroke-width="1.279" stroke-linejoin="round"/><path fill-rule="evenodd" clip-rule="evenodd" d="m244.087 246.749 7.345 19.617s.857 2.123 1.436 4.331c.194 2.696-.218 3.823-.218 3.823-.061.009-.197 1.468-.235 2.953.077 2.025 1.065 3.303 1.059 3.242.006.061.757.983 2.75.886 2.273-.384 2.456-2.054 2.456-2.054s.336-2.177-.292-4.312c-.505-2.687-5.318-11.497-7.223-17.452l-4.246-12.978-2.832 1.944Z" fill="#FFC709" stroke="#BA6D00" stroke-width="1.279" stroke-linejoin="round"/><path fill-rule="evenodd" clip-rule="evenodd" d="M241.088 171.405s-2.76 3.12-6.572 9.449c-3.689 6.207-3.846 6.461-5.565 11.122-1.228 4.538-1.24 6.072-.389 8.607 1.097 2.044 2.171 2.474 3.171 2.515 1.001.04 1.515-.233 2.25-1.363 1.474-3.34-.383-5.016-.94-7.796-.557-2.781-.327-.644-.328-2.703.307-2.735 1.166-3.451 1.535-4.187.553-1.044.942-1.83 4.03-6.435 3.212-4.912 4.747-7.61 4.747-7.61s.339-1.098-.403-1.636c-.711-.516-1.536.037-1.536.037Z" fill="#FFC709" stroke="#BA6D00" stroke-width="1.279"/><path fill-rule="evenodd" clip-rule="evenodd" d="M239.036 170.423s-2.76 3.12-6.572 9.45c-3.689 6.207-3.846 6.461-5.565 11.122-1.228 4.538-1.239 6.072-.388 8.607 1.097 2.043 2.17 2.474 3.171 2.514 1 .041 1.514-.233 2.25-1.362 1.473-3.34-.384-5.016-.941-7.797-.557-2.78-.326-.643-.327-2.702.306-2.735 1.165-3.451 1.534-4.188.553-1.043.942-1.829 4.031-6.434 3.211-4.912 4.746-7.611 4.746-7.611s.339-1.097-.403-1.635c-.711-.516-1.536.036-1.536.036ZM256.117 165.476s-3.142 2.735-7.744 8.517c-4.464 5.676-4.652 5.907-6.962 10.306-1.807 4.34-2.018 5.86-1.503 8.484.822 2.168 1.831 2.734 2.817 2.904.987.171 1.532-.034 2.408-1.059 1.895-3.12.271-5.023.08-7.852-.191-2.83-.24-.681.027-2.722.658-2.672 1.604-3.271 2.065-3.954.684-.963 1.172-1.691 4.832-5.857 3.822-4.453 5.695-6.93 5.695-6.93s.479-1.045-.187-1.674c-.638-.604-1.528-.163-1.528-.163Z" fill="#FFC709" stroke="#BA6D00" stroke-width="1.279"/><path fill-rule="evenodd" clip-rule="evenodd" d="M246.469 165.484s-4.911 8.024-6.688 11.097c-2.166 3.378-4.145 8.153-6.031 10.685-2.277 2.404-4.549 2.8-6.143 4.338-1.827 1.634-2.164 2.427-2.25 3.804a2.809 2.809 0 0 0 3.693 2.596c1.82-.227 3.837-3.145 3.837-3.145s2.6-4.928 4.395-8.32c3.902-8.049 11.716-19.916 11.716-19.916l-2.529-1.139Z" fill="#FFC709" stroke="#BA6D00" stroke-width="1.279"/><path fill-rule="evenodd" clip-rule="evenodd" d="M236.501 170.509s-2.76 3.12-6.572 9.449c-3.689 6.207-3.846 6.461-5.565 11.122-1.228 4.539-1.24 6.072-.389 8.607 1.097 2.044 2.171 2.474 3.171 2.515 1.001.041 1.515-.233 2.251-1.363 1.473-3.339-.384-5.016-.941-7.796-.557-2.781-.326-.644-.328-2.703.307-2.734 1.166-3.45 1.535-4.187.553-1.044.942-1.83 4.03-6.434 3.212-4.912 4.747-7.611 4.747-7.611s.339-1.098-.403-1.636c-.711-.516-1.536.037-1.536.037ZM261.557 166.562s-6.032 7.22-8.239 10.001c-2.637 3.026-5.293 7.461-7.529 9.69-2.604 2.045-4.91 2.106-6.711 3.394-2.047 1.35-2.496 2.085-2.782 3.435a2.807 2.807 0 0 0 3.273 3.107c1.834.042 4.256-2.551 4.256-2.551s3.293-4.495 5.565-7.589c5.037-7.392 14.502-17.991 14.502-17.991l-2.335-1.496Z" fill="#FFC709" stroke="#BA6D00" stroke-width="1.279"/><path fill-rule="evenodd" clip-rule="evenodd" d="M258.099 167.09s-3.107 2.776-7.634 8.617c-4.39 5.733-4.575 5.966-6.829 10.395-1.75 4.363-1.941 5.885-1.393 8.502.85 2.158 1.866 2.711 2.855 2.868.989.158 1.531-.054 2.394-1.09 1.854-3.145.206-5.026-.021-7.853-.228-2.826-.249-.677-.009-2.722.624-2.68 1.562-3.291 2.014-3.98.671-.971 1.15-1.706 4.756-5.918 3.764-4.503 5.605-7.004 5.605-7.004s.465-1.051-.208-1.672c-.647-.595-1.53-.143-1.53-.143Z" fill="#FFC709" stroke="#BA6D00" stroke-width="1.279"/><path fill-rule="evenodd" clip-rule="evenodd" d="M263.857 167.61s-6.031 7.221-8.238 10.001c-2.637 3.026-5.294 7.461-7.529 9.691-2.604 2.045-4.91 2.105-6.711 3.393-2.047 1.35-2.496 2.085-2.783 3.435-.225 1.841 1.379 3.435 3.274 3.108 1.834.041 4.256-2.552 4.256-2.552s3.293-4.495 5.565-7.589c5.037-7.392 14.501-17.991 14.501-17.991l-2.335-1.496Z" fill="#FFC709" stroke="#BA6D00" stroke-width="1.279"/><path fill-rule="evenodd" clip-rule="evenodd" d="M253.116 164.173s-3.118 2.763-7.668 8.586c-4.414 5.715-4.6 5.948-6.871 10.367-1.768 4.357-1.966 5.878-1.428 8.497.842 2.161 1.856 2.718 2.843 2.88.989.161 1.532-.049 2.399-1.081 1.867-3.137.227-5.026.01-7.853-.216-2.827-.246-.678.003-2.722.635-2.678 1.575-3.285 2.03-3.972.675-.969 1.157-1.702 4.78-5.899 3.782-4.488 5.633-6.981 5.633-6.981s.469-1.049-.202-1.673c-.644-.598-1.529-.149-1.529-.149Z" fill="#FFC709" stroke="#BA6D00" stroke-width="1.279"/><path fill-rule="evenodd" clip-rule="evenodd" d="M264.52 170.939s-6.032 7.22-8.239 10.001c-2.637 3.026-5.293 7.461-7.529 9.69-2.604 2.045-4.91 2.106-6.711 3.394-2.047 1.35-2.496 2.085-2.783 3.435-.225 1.841 1.379 3.435 3.274 3.107 1.834.042 4.256-2.551 4.256-2.551s3.293-4.495 5.565-7.589c5.037-7.392 14.502-17.991 14.502-17.991l-2.335-1.496Z" fill="#FFC709" stroke="#BA6D00" stroke-width="1.279"/><path fill-rule="evenodd" clip-rule="evenodd" d="M262.682 176.796s-6.288 7.826-8.582 10.835c-2.757 3.285-5.46 8.047-7.814 10.48-2.772 2.256-5.318 2.42-7.241 3.848-2.192 1.503-2.65 2.292-2.896 3.719-.152 1.938 1.705 3.538 3.783 3.113 2.03-.037 4.571-2.858 4.571-2.858s3.405-4.852 5.754-8.193c5.179-7.963 15.085-19.478 15.085-19.478l-2.66-1.466Z" fill="#FFC709" stroke="#BA6D00" stroke-width="1.377"/><path fill-rule="evenodd" clip-rule="evenodd" d="M264.582 183.249s-.871 1.05-8.234 10.495c-6.733 10.339-7.756 12.286-7.756 12.286s-1.085 1.997-2.183 2.595c-1.097.599-2.968.533-3.53.104-.536-.409-.836-.472-1.019-2.468.204-1.177.547-1.646 1.037-2.087.996-.755 1.506-.881 2.729-1.269 1.209-.627 1.674-1.23 2.497-2.349 1.628-2.564 2.355-3.817 5.09-7.553 3.545-4.937 6.333-7.945 9.572-11.815l1.797 2.061Z" fill="#FFC709" stroke="#BA6D00" stroke-width="1.279"/><path fill-rule="evenodd" clip-rule="evenodd" d="M264.914 181.473s-5.754 7.915-7.839 10.949c-2.535 3.33-4.889 8.061-7.086 10.552-2.637 2.353-5.222 2.701-7.064 4.204-2.11 1.594-2.51 2.38-2.64 3.754.01 1.854 2.042 3.235 4.127 2.674 2.068-.188 4.423-3.062 4.423-3.062s3.062-4.87 5.176-8.223c4.61-7.961 13.743-19.655 13.743-19.655l-2.84-1.193Z" fill="#FFC709" stroke="#BA6D00" stroke-width="1.362"/><path fill-rule="evenodd" clip-rule="evenodd" d="M269.435 184.262s-.816 1.094-7.68 10.907c-6.189 10.672-7.111 12.67-7.111 12.67s-.98 2.05-2.045 2.704c-1.064.655-2.936.686-3.52.287-.556-.381-.859-.429-1.145-2.413.143-1.186.461-1.672.928-2.138.955-.805 1.458-.957 2.659-1.408 1.175-.688 1.608-1.315 2.372-2.475 1.494-2.644 2.155-3.933 4.693-7.806 3.285-5.113 5.913-8.261 8.948-12.293l1.901 1.965Z" fill="#FFC709" stroke="#BA6D00" stroke-width="1.279"/><path d="M309.105 131.495a105.98 105.98 0 0 0-27.044 6.497l.728 1.46a105.394 105.394 0 0 1 26.577-6.371c.792-.09.617-1.672-.261-1.586Z" fill="#FFC709" stroke="#BA6D00" stroke-width="1.051" stroke-linecap="round" stroke-linejoin="round"/><path d="M314.56 134.013c-8.664.449-15.647 1.77-22.862 3.877a100.39 100.39 0 0 0-8.295 2.78l.741 1.48a102.566 102.566 0 0 1 30.559-6.509c.962-.104.827-1.612-.143-1.628Z" fill="#FFC709" stroke="#BA6D00" stroke-width="1.023" stroke-linecap="round" stroke-linejoin="round"/><path d="M310.55 137.309c-8.81.895-17.512 2.92-25.796 6.052l.622 1.243c8.159-3.068 16.728-5.048 25.399-5.937.803-.058.64-1.432-.225-1.358ZM285.866 145.585l.737 1.468c11.649-4.237 22.03-5.861 30.956-6.125.925-.057.928-1.563-.123-1.62-10.138.352-21.801 2.613-31.57 6.277Z" fill="#FFC709" stroke="#BA6D00" stroke-width="1.023" stroke-linecap="round" stroke-linejoin="round"/><path d="M312.71 142.498c-7.76.641-16.493 2.465-25.493 5.782l.753 1.5c7.74-2.864 18.111-5.161 25.022-5.671.96-.142.734-1.689-.282-1.611h0Zm-24.004 8.746.733 1.464c7.879-2.891 20.817-5.626 28.329-5.5.811-.064.744-1.576-.07-1.639-9.42-.005-19.269 2.151-28.992 5.675Zm23.145-2.183a94.51 94.51 0 0 0-21.676 5.115l.733 1.459c6.583-2.376 13.851-4.209 21.131-4.935 1.079-.151.928-1.707-.188-1.639Zm-20.215 8.03.737 1.464c6.448-2.311 16.636-4.466 23.57-4.825 1.007-.115.873-1.633-.14-1.66-8.116.308-16.96 2.496-24.167 5.021Zm24.9-1.488c-6.011.045-16.543 2.258-23.304 4.665l.737 1.468c6.462-2.285 17.108-4.388 22.645-4.518 1.116-.012 1.09-1.604-.078-1.615Zm-5.127 3.798a87.047 87.047 0 0 0-16.585 4.044l.732 1.46c5.135-1.86 10.857-3.232 16.192-3.93 1.029-.217.784-1.795-.339-1.574Zm4.918 2.691c-6.209.222-14.317 2.046-20.136 4.08l.736 1.468c5.425-1.87 13.17-3.686 19.425-3.913 1.134-.062 1.038-1.705-.025-1.635h0Z" fill="#FFC709" stroke="#BA6D00" stroke-width="1.023" stroke-linecap="round" stroke-linejoin="round"/><path fill-rule="evenodd" clip-rule="evenodd" d="M304.927 157.633s-12.995-2.743-12.188 4.529c3.356 5.999 12.188-4.529 12.188-4.529Z" fill="#FFC709" stroke="#BA6D00" stroke-width="1.232" stroke-linejoin="round"/><path fill-rule="evenodd" clip-rule="evenodd" d="M302.12 165.946s-10.54 6.819-12.382.11c.861-6.444 12.382-.11 12.382-.11Z" fill="#FFC709" stroke="#BA6D00" stroke-width="1.17" stroke-linejoin="round"/><path fill-rule="evenodd" clip-rule="evenodd" d="M294.146 157.091s-12.168 2.984-8.419 8.982c5.373 3.834 8.419-8.982 8.419-8.982Z" fill="#FFC709" stroke="#BA6D00" stroke-width="1.176" stroke-linejoin="round"/><path fill-rule="evenodd" clip-rule="evenodd" d="M294.38 169.424s-10.437 5.955-11.701-.683c1.27-6.208 11.701.683 11.701.683Z" fill="#FFC709" stroke="#BA6D00" stroke-width="1.124" stroke-linejoin="round"/><path fill-rule="evenodd" clip-rule="evenodd" d="M286.169 159.739s-11.551 4.35-7.169 9.724c5.713 3.081 7.169-9.724 7.169-9.724Z" fill="#FFC709" stroke="#BA6D00" stroke-width="1.155" stroke-linejoin="round"/><path fill-rule="evenodd" clip-rule="evenodd" d="M287.807 172.714s-9.891 6.046-10.982-.586c1.284-6.222 10.982.586 10.982.586Z" fill="#FFC709" stroke="#BA6D00" stroke-width="1.091" stroke-linejoin="round"/><path fill-rule="evenodd" clip-rule="evenodd" d="M278.587 163.165s-10.332 6.341-4.96 10.486c6.192 1.744 4.96-10.486 4.96-10.486Z" fill="#FFC709" stroke="#BA6D00" stroke-width="1.125" stroke-linejoin="round"/><path fill-rule="evenodd" clip-rule="evenodd" d="M282.59 175.441s-9.45 7.658-11.74 1.257c.298-6.392 11.74-1.257 11.74-1.257Z" fill="#FFC709" stroke="#BA6D00" stroke-width="1.133" stroke-linejoin="round"/><path fill-rule="evenodd" clip-rule="evenodd" d="M277.043 178.995s-7.951 8.2-10.869 2.525c-.488-5.966 10.869-2.525 10.869-2.525Z" fill="#FFC709" stroke="#BA6D00" stroke-width="1.066" stroke-linejoin="round"/><path fill-rule="evenodd" clip-rule="evenodd" d="M272.315 167.95s-10.079 6.33-4.731 10.31c6.12 1.623 4.731-10.31 4.731-10.31Z" fill="#FFC709" stroke="#BA6D00" stroke-width="1.103" stroke-linejoin="round"/><path fill-rule="evenodd" clip-rule="evenodd" d="M266.065 172.293s-9.17 7.521-3.381 10.9c6.257.923 3.381-10.9 3.381-10.9Z" fill="#FFC709" stroke="#BA6D00" stroke-width="1.107" stroke-linejoin="round"/><path fill-rule="evenodd" clip-rule="evenodd" d="M271.719 183.695s-7.958 8.875-10.917 2.61c-.517-6.548 10.917-2.61 10.917-2.61Z" fill="#FFC709" stroke="#BA6D00" stroke-width="1.121" stroke-linejoin="round"/><path fill-rule="evenodd" clip-rule="evenodd" d="M295.106 138.146s-14.227-2.733-13.127 5.537c3.836 6.741 13.127-5.537 13.127-5.537Z" fill="#FFC709" stroke="#BA6D00" stroke-width="1.373" stroke-linejoin="round"/><path fill-rule="evenodd" clip-rule="evenodd" d="M283.313 137.278s-13.068 5.675-7.66 11.521c6.8 3.152 7.66-11.521 7.66-11.521Z" fill="#FFC709" stroke="#BA6D00" stroke-width="1.327" stroke-linejoin="round"/><path fill-rule="evenodd" clip-rule="evenodd" d="M275.845 140.608s-13.383 6.747-7.498 12.856c7.222 3.12 7.498-12.856 7.498-12.856Z" fill="#FFC709" stroke="#BA6D00" stroke-width="1.413" stroke-linejoin="round"/><path fill-rule="evenodd" clip-rule="evenodd" d="M268.107 144.392s-12.451 7.558-6.321 13.049c7.206 2.488 6.321-13.049 6.321-13.049Z" fill="#FFC709" stroke="#BA6D00" stroke-width="1.374" stroke-linejoin="round"/><path fill-rule="evenodd" clip-rule="evenodd" d="M260.052 149.426s-11.069 8.71-4.3 12.946c7.389 1.309 4.3-12.946 4.3-12.946Z" fill="#FFC709" stroke="#BA6D00" stroke-width="1.319" stroke-linejoin="round"/><path fill-rule="evenodd" clip-rule="evenodd" d="M253.931 153.874s-10.732 9.225-3.872 13.281c7.386 1.066 3.872-13.281 3.872-13.281Z" fill="#FFC709" stroke="#BA6D00" stroke-width="1.325" stroke-linejoin="round"/><path fill-rule="evenodd" clip-rule="evenodd" d="M248.104 158.097s-10.806 9.084-3.98 13.188c7.377 1.132 3.98-13.188 3.98-13.188Z" fill="#FFC709" stroke="#BA6D00" stroke-width="1.323" stroke-linejoin="round"/><path fill-rule="evenodd" clip-rule="evenodd" d="M242.021 163.442s-9.504 10.351-2.291 13.572c7.388.205 2.291-13.572 2.291-13.572Z" fill="#FFC709" stroke="#BA6D00" stroke-width="1.316" stroke-linejoin="round"/><path fill-rule="evenodd" clip-rule="evenodd" d="M308.303 147.091s-8.298 11.438-12.845 4.922c-1.629-7.279 12.845-4.922 12.845-4.922Z" fill="#FFC709" stroke="#BA6D00" stroke-width="1.321" stroke-linejoin="round"/><path fill-rule="evenodd" clip-rule="evenodd" d="M301.876 141.463s-13.745-.059-11.325 7.922c4.717 5.958 11.325-7.922 11.325-7.922Z" fill="#FFC709" stroke="#BA6D00" stroke-width="1.342" stroke-linejoin="round"/><path fill-rule="evenodd" clip-rule="evenodd" d="M301.347 154.966s-12.977 6.763-14.267-1.369c1.79-7.491 14.267 1.369 14.267 1.369Z" fill="#FFC709" stroke="#BA6D00" stroke-width="1.371" stroke-linejoin="round"/><path fill-rule="evenodd" clip-rule="evenodd" d="M292.507 142.453s-14.287 3.65-9.768 10.511c6.395 4.339 9.768-10.511 9.768-10.511Z" fill="#FFC709" stroke="#BA6D00" stroke-width="1.372" stroke-linejoin="round"/><path fill-rule="evenodd" clip-rule="evenodd" d="M292.343 157.794s-12.992 7.281-14.408-1.223c1.699-7.879 14.408 1.223 14.408 1.223Z" fill="#FFC709" stroke="#BA6D00" stroke-width="1.41" stroke-linejoin="round"/><path fill-rule="evenodd" clip-rule="evenodd" d="M284.178 161.988s-12.19 7.027-13.727-.791c1.439-7.314 13.727.791 13.727.791Z" fill="#FFC709" stroke="#BA6D00" stroke-width="1.321" stroke-linejoin="round"/><path fill-rule="evenodd" clip-rule="evenodd" d="M283.354 144.901s-14.878 5.685-9.245 12.736c7.351 4.047 9.245-12.736 9.245-12.736Z" fill="#FFC709" stroke="#BA6D00" stroke-width="1.501" stroke-linejoin="round"/><path fill-rule="evenodd" clip-rule="evenodd" d="M273.297 150.216s-13.057 7.583-6.583 13.018c7.592 2.442 6.583-13.018 6.583-13.018Z" fill="#FFC709" stroke="#BA6D00" stroke-width="1.405" stroke-linejoin="round"/><path fill-rule="evenodd" clip-rule="evenodd" d="M276.85 165.708s-11.118 8.488-13.447.75c.622-7.563 13.447-.75 13.447-.75Z" fill="#FFC709" stroke="#BA6D00" stroke-width="1.32" stroke-linejoin="round"/><path fill-rule="evenodd" clip-rule="evenodd" d="M264.768 155.065s-12.232 8.881-5.244 13.721c7.799 1.723 5.244-13.721 5.244-13.721Z" fill="#FFC709" stroke="#BA6D00" stroke-width="1.412" stroke-linejoin="round"/><path fill-rule="evenodd" clip-rule="evenodd" d="M257.515 159.905s-11.014 9.214-4.064 13.358c7.512 1.133 4.064-13.358 4.064-13.358Z" fill="#FFC709" stroke="#BA6D00" stroke-width="1.343" stroke-linejoin="round"/><path fill-rule="evenodd" clip-rule="evenodd" d="M270.272 170.059s-10.356 10.081-13.939 2.816c-.473-7.549 13.939-2.816 13.939-2.816Z" fill="#FFC709" stroke="#BA6D00" stroke-width="1.353" stroke-linejoin="round"/><path fill-rule="evenodd" clip-rule="evenodd" d="M234.728 298.765s9.868 11.248 14.929 4.444c1.679-7.453-14.929-4.444-14.929-4.444Z" fill="#FFC709" stroke="#BA6D00" stroke-width="1.431" stroke-linejoin="round"/><path fill-rule="evenodd" clip-rule="evenodd" d="M239.546 305.072s10.842 12.11 15.437 4.232c1.124-8.436-15.437-4.232-15.437-4.232Z" fill="#FFC709" stroke="#BA6D00" stroke-width="1.523" stroke-linejoin="round"/><path fill-rule="evenodd" clip-rule="evenodd" d="M246.661 311.472s9.536 9.892 13.115 3.049c.645-7.195-13.115-3.049-13.115-3.049ZM254.867 286.844s9.178 10.225 2.087 13.293c-7.228.118-2.087-13.293-2.087-13.293Z" fill="#FFC709" stroke="#BA6D00" stroke-width="1.287" stroke-linejoin="round"/><path fill-rule="evenodd" clip-rule="evenodd" d="M247.306 298.304s6.975 12.577 12.366 6.577c2.538-7.137-12.366-6.577-12.366-6.577Z" fill="#FFC709" stroke="#BA6D00" stroke-width="1.343" stroke-linejoin="round"/><path fill-rule="evenodd" clip-rule="evenodd" d="M259.59 295.906s8.416 10.86 12.711 4.441c1.416-7.084-12.711-4.441-12.711-4.441Z" fill="#FFC709" stroke="#BA6D00" stroke-width="1.287" stroke-linejoin="round"/><path fill-rule="evenodd" clip-rule="evenodd" d="M259.62 292.733s10.287 9.706 3.325 13.511c-7.367.777-3.325-13.511-3.325-13.511Z" fill="#FFC709" stroke="#BA6D00" stroke-width="1.325" stroke-linejoin="round"/><path fill-rule="evenodd" clip-rule="evenodd" d="M252.547 306.517s9.471 10.76 13.58 3.844c1.052-7.433-13.58-3.844-13.58-3.844Z" fill="#FFC709" stroke="#BA6D00" stroke-width="1.343" stroke-linejoin="round"/><path fill-rule="evenodd" clip-rule="evenodd" d="M271.234 287.669s10.006 8.761 3.989 12.684c-6.604 1.066-3.989-12.684-3.989-12.684Z" fill="#FFC709" stroke="#BA6D00" stroke-width="1.231" stroke-linejoin="round"/><path fill-rule="evenodd" clip-rule="evenodd" d="M265.188 300.439s8.725 9.814 12.41 3.421c.895-6.844-12.41-3.421-12.41-3.421Z" fill="#FFC709" stroke="#BA6D00" stroke-width="1.23" stroke-linejoin="round"/><path fill-rule="evenodd" clip-rule="evenodd" d="M277.289 292.305s9.317 8.231 3.15 11.669c-6.57.815-3.15-11.669-3.15-11.669Z" fill="#FFC709" stroke="#BA6D00" stroke-width="1.167" stroke-linejoin="round"/><path fill-rule="evenodd" clip-rule="evenodd" d="M269.461 305.339s10.434 8.94 13.346 1.788c-.043-7.224-13.346-1.788-13.346-1.788Z" fill="#FFC709" stroke="#BA6D00" stroke-width="1.287" stroke-linejoin="round"/><path fill-rule="evenodd" clip-rule="evenodd" d="M265.263 298.676s11.506 8.439 4.944 13.054c-7.328 1.648-4.944-13.054-4.944-13.054Z" fill="#FFC709" stroke="#BA6D00" stroke-width="1.336" stroke-linejoin="round"/><path fill-rule="evenodd" clip-rule="evenodd" d="M271.872 304.257s10.968 8.278 4.597 12.647c-7.072 1.5-4.597-12.647-4.597-12.647ZM283.156 298.142s9.66 9.771 2.725 13.177c-7.215.466-2.725-13.177-2.725-13.177Z" fill="#FFC709" stroke="#BA6D00" stroke-width="1.287" stroke-linejoin="round"/><path fill-rule="evenodd" clip-rule="evenodd" d="M222.064 196.316s-4.858 13.436 3.327 13.592c7.128-2.732-3.327-13.592-3.327-13.592Z" fill="#FFC709" stroke="#BA6D00" stroke-width="1.349" stroke-linejoin="round"/><path fill-rule="evenodd" clip-rule="evenodd" d="M219.245 204.301s-3.833 13.858 4.42 13.416c6.96-3.267-4.42-13.416-4.42-13.416Z" fill="#FFC709" stroke="#BA6D00" stroke-width="1.361" stroke-linejoin="round"/><path fill-rule="evenodd" clip-rule="evenodd" d="M216.958 212.378s-3.092 13.847 5.598 12.932c7.13-3.617-5.598-12.932-5.598-12.932Z" fill="#FFC709" stroke="#BA6D00" stroke-width="1.391" stroke-linejoin="round"/><path fill-rule="evenodd" clip-rule="evenodd" d="M215.549 220.468s-1.623 15.081 6.458 13.265c6.365-4.549-6.458-13.265-6.458-13.265Z" fill="#FFC709" stroke="#BA6D00" stroke-width="1.398" stroke-linejoin="round"/><path fill-rule="evenodd" clip-rule="evenodd" d="M214.699 228.803s-1.077 14.392 6.977 12.389c6.228-4.543-6.977-12.389-6.977-12.389Z" fill="#FFC709" stroke="#BA6D00" stroke-width="1.368" stroke-linejoin="round"/><path fill-rule="evenodd" clip-rule="evenodd" d="M236.531 188.883s-9.741 11.787-1.275 14.54c8.372-.448 1.275-14.54 1.275-14.54Z" fill="#FFC709" stroke="#BA6D00" stroke-width="1.444" stroke-linejoin="round"/><path fill-rule="evenodd" clip-rule="evenodd" d="M245.62 199.198s-4.513 13.677-11.068 8.855c-3.927-6.492 11.068-8.855 11.068-8.855Z" fill="#FFC709" stroke="#BA6D00" stroke-width="1.354" stroke-linejoin="round"/><path fill-rule="evenodd" clip-rule="evenodd" d="M230.352 197.819s-6.743 12.885 1.515 14.092c7.581-1.833-1.515-14.092-1.515-14.092Z" fill="#FFC709" stroke="#BA6D00" stroke-width="1.373" stroke-linejoin="round"/><path fill-rule="evenodd" clip-rule="evenodd" d="M245.635 201.688s-8.168 10.629-.727 12.407c7.275-.929.727-12.407.727-12.407Z" fill="#FFC709" stroke="#BA6D00" stroke-width="1.243" stroke-linejoin="round"/><path fill-rule="evenodd" clip-rule="evenodd" d="M254.077 209.566s-3.453 11.893-8.784 7.786c-3.24-5.581 8.784-7.786 8.784-7.786Z" fill="#FFC709" stroke="#BA6D00" stroke-width="1.13" stroke-linejoin="round"/><path fill-rule="evenodd" clip-rule="evenodd" d="M241.51 209.115s-5.308 11.731 1.56 12.196c6.241-2.141-1.56-12.196-1.56-12.196Z" fill="#FFC709" stroke="#BA6D00" stroke-width="1.168" stroke-linejoin="round"/><path fill-rule="evenodd" clip-rule="evenodd" d="M242.89 206.947s-3.818 13.784-10.418 9.279c-4.108-6.278 10.418-9.279 10.418-9.279Z" fill="#FFC709" stroke="#BA6D00" stroke-width="1.334" stroke-linejoin="round"/><path fill-rule="evenodd" clip-rule="evenodd" d="M226.222 206.897s-4.393 14.667 4.358 14.355c7.451-3.343-4.358-14.355-4.358-14.355Z" fill="#FFC709" stroke="#BA6D00" stroke-width="1.445" stroke-linejoin="round"/><path fill-rule="evenodd" clip-rule="evenodd" d="M251.799 216.043s-2.257 11.517-8.122 8.281c-3.892-4.853 8.122-8.281 8.122-8.281Z" fill="#FFC709" stroke="#BA6D00" stroke-width="1.11" stroke-linejoin="round"/><path fill-rule="evenodd" clip-rule="evenodd" d="M239.464 217.021s-4.472 11.071 2.547 11.097c6.178-2.328-2.547-11.097-2.547-11.097Z" fill="#FFC709" stroke="#BA6D00" stroke-width="1.133" stroke-linejoin="round"/><path fill-rule="evenodd" clip-rule="evenodd" d="M240.141 214.175s-1.438 14.402-8.914 11.071c-5.265-5.536 8.914-11.071 8.914-11.071Z" fill="#FFC709" stroke="#BA6D00" stroke-width="1.36" stroke-linejoin="round"/><path fill-rule="evenodd" clip-rule="evenodd" d="M223.47 215.731s-2.542 15.495 5.61 14.19c6.612-4.257-5.61-14.19-5.61-14.19Z" fill="#FFC709" stroke="#BA6D00" stroke-width="1.423" stroke-linejoin="round"/><path fill-rule="evenodd" clip-rule="evenodd" d="M250.489 221.895s-1.612 12.619-7.666 9.469c-4.168-5.022 7.666-9.469 7.666-9.469Z" fill="#FFC709" stroke="#BA6D00" stroke-width="1.157" stroke-linejoin="round"/><path fill-rule="evenodd" clip-rule="evenodd" d="M237.973 224.797s-3.319 11.608 3.618 11.044c5.871-2.882-3.618-11.044-3.618-11.044Z" fill="#FFC709" stroke="#BA6D00" stroke-width="1.138" stroke-linejoin="round"/><path fill-rule="evenodd" clip-rule="evenodd" d="M238.431 222.454s-.433 14.389-8.012 11.596c-5.554-5.13 8.012-11.596 8.012-11.596Z" fill="#FFC709" stroke="#BA6D00" stroke-width="1.346" stroke-linejoin="round"/><path fill-rule="evenodd" clip-rule="evenodd" d="M222.021 225.315s-.253 15.284 7.614 12.702c5.914-5.164-7.614-12.702-7.614-12.702Z" fill="#FFC709" stroke="#BA6D00" stroke-width="1.402" stroke-linejoin="round"/><path fill-rule="evenodd" clip-rule="evenodd" d="M213.876 236.391s.364 14.635 8.035 11.831c5.637-5.191-8.035-11.831-8.035-11.831Z" fill="#FFC709" stroke="#BA6D00" stroke-width="1.365" stroke-linejoin="round"/><path fill-rule="evenodd" clip-rule="evenodd" d="M249.127 228.738s.367 12.161-6.323 10.234c-5.062-4.014 6.323-10.234 6.323-10.234Z" fill="#FFC709" stroke="#BA6D00" stroke-width="1.152" stroke-linejoin="round"/><path fill-rule="evenodd" clip-rule="evenodd" d="M236.468 233.149s-1.498 12.7 5.87 10.88c5.806-4.048-5.87-10.88-5.87-10.88Z" fill="#FFC709" stroke="#BA6D00" stroke-width="1.223" stroke-linejoin="round"/><path fill-rule="evenodd" clip-rule="evenodd" d="M237.9 230.004s.688 14.581-7.022 12.382c-5.889-4.73 7.022-12.382 7.022-12.382Z" fill="#FFC709" stroke="#BA6D00" stroke-width="1.351" stroke-linejoin="round"/><path fill-rule="evenodd" clip-rule="evenodd" d="M221.023 234.113s1.137 14.592 8.471 11.366c5.223-5.496-8.471-11.366-8.471-11.366Z" fill="#FFC709" stroke="#BA6D00" stroke-width="1.349" stroke-linejoin="round"/><path fill-rule="evenodd" clip-rule="evenodd" d="M248.805 235.606s1.687 12.202-5.158 10.871c-5.458-3.578 5.158-10.871 5.158-10.871Z" fill="#FFC709" stroke="#BA6D00" stroke-width="1.156" stroke-linejoin="round"/><path fill-rule="evenodd" clip-rule="evenodd" d="M236.79 240.836s-.568 12.704 5.801 10.433c4.865-4.385-5.801-10.433-5.801-10.433Z" fill="#FFC709" stroke="#BA6D00" stroke-width="1.144" stroke-linejoin="round"/><path fill-rule="evenodd" clip-rule="evenodd" d="M249.194 242.382s1.952 11.764-4.981 10.299c-5.578-3.585 4.981-10.299 4.981-10.299Z" fill="#FFC709" stroke="#BA6D00" stroke-width="1.139" stroke-linejoin="round"/><path fill-rule="evenodd" clip-rule="evenodd" d="M213.944 245.011s2.025 13.585 8.913 10.086c4.703-5.487-8.913-10.086-8.913-10.086Z" fill="#FFC709" stroke="#BA6D00" stroke-width="1.287" stroke-linejoin="round"/><path fill-rule="evenodd" clip-rule="evenodd" d="M240.127 273.289s-7.693.095-12.824-1.53c-6.736-1.84-9.419-8.06-9.419-8.06s-.988 1.424-.926 3.45c.061 1.842 1.378 6.094 4.685 10.595 3.43 5.545 5.764 12.082 8.53 16.376 2.212 3.864 6.881 7.36 6.881 7.36s14.859-1.775 16.297-2.082c1.914-.292 15.043-3.315 17.989-3.479 2.946-.164 9.637.266 9.637.266s-2.355-4.335-3.492-5.173c-2.274-1.881-5.021-2.649-7.865-5.397-1.553-1.705-4.172-4.722-5.645-6.358-1.842-1.758-3.233-3.49-5.238-4.618-1.637-1.066-18.61-1.35-18.61-1.35Z" fill="#000" stroke="#BA6D00" stroke-width=".639"/><path fill-rule="evenodd" clip-rule="evenodd" d="M273.711 288.838s-5.462.139-8.092.476c-2.906.459-9.152 1.214-14.166 1.727-4.505.497-8.321.787-13.405.841l-9.235-.422c.295.547 1.118 2.022 1.935 3.195.982 1.504 1.754 2.504 3.551 4.177 1.475 1.395 2.386 2.121 2.808 2.444 1.107-.123 8.093-.96 10.913-1.35 4.64-.451 6.995-1.072 12.338-2.203 2.793-.569 9.267-1.93 10.951-2.022 1.9-.154 8.654.202 9.361.263a294.744 294.744 0 0 1-1.715-2.851c-1.047-1.769-1.857-2.224-3.331-3.209-.583-.379-1.865-1.046-1.913-1.066Z" fill="#FFC709"/><path fill-rule="evenodd" clip-rule="evenodd" d="M223.321 280.24c.43.798 1.565 3.085 2.578 5.13 1.297 2.802 2.011 4.329 2.959 6.168 2.058.154 4.066.212 9.192.376 5.084-.054 8.898-.345 13.402-.84 5.015-.512 11.264-1.261 14.17-1.72 2.629-.335 8.174-.468 8.174-.468s-2.463-1.487-3.609-2.469c-1.422-1.318-2.075-2.26-3.235-3.48-1.505-.123-3.601-.133-5.893-.297-4.012-.225-10.178.195-13.616.195-3.437 0-9.248-.118-14.148-.687-6.652-.478-8.253-1.571-9.974-1.908Z" fill="#D00"/><path d="M217.781 265.076c1.019 1.576 2.045 3.182 3.684 4.518 2.783 1.985 3.5 2.38 8.876 3.64 4.843.766 5.934.554 12.392.753 6.293.193 8.111.34 12.182.669 1.968.159 2.627.324 3.475.46" stroke="#FFC709" stroke-width="1.023" stroke-linecap="round"/><path fill-rule="evenodd" clip-rule="evenodd" d="m380.637 318.307 29.409-32.863 11.543-41.237-4.111-38.077-18.816-36.496-29.093-22.436-17.393-6.478-4.901 7.11-8.539 2.528 4.902 4.108.632 10.586 29.726 19.433 18.025 30.019 1.74 33.811-9.013 29.387-34.469 32.863 30.358 7.742Z" fill="#FFC709"/><path fill-rule="evenodd" clip-rule="evenodd" d="M417.021 270.967s-1.279 3.753-4.23 8.238c-3.264 4.66-5.549 4.38-5.549 4.38s-3.503.518-3.905-2.216c-.094-2.725 1.78-3.644 1.782-3.705-.002.062 2.059-1.408 4.693-2.484 2.277-1.395 2.133-1.37 3.481-3.108.865-1.998.573-.596 2.797-8.447 2.225-7.851 3.189-12.231 3.25-12.228l2.794.644-2.928 11.442-1.021 3.898-1.164 3.586Z" fill="#FFC709" stroke="#BA6D00" stroke-width="1.279" stroke-linejoin="round"/><path fill-rule="evenodd" clip-rule="evenodd" d="m418.593 244.178-6.084 20.335s-.72 2.207-1.158 4.471c-.023 2.708.458 3.789.458 3.789.061.003.289 1.443.42 2.921.049 2.028-.854 3.406-.851 3.344-.003.062-.693 1.059-2.684 1.172-2.289-.144-2.576-1.791-2.576-1.791s-.348-.176-.17-2.461c.178-2.285 1.452-5.839 1.452-5.839l8.689-27.444 2.504 1.503Z" fill="#FFC709" stroke="#BA6D00" stroke-width="1.279" stroke-linejoin="round"/><path fill-rule="evenodd" clip-rule="evenodd" d="m422.322 239.187-5.345 20.541s-.64 2.232-.996 4.51c.074 2.707.594 3.77.594 3.77.061 0 .34 1.432.525 2.904.122 2.024-.73 3.434-.73 3.373 0 .061-.655 1.083-2.64 1.267-2.292-.061-2.639-1.697-2.639-1.697s-.354-.163-.259-2.453c.095-2.29 1.241-5.888 1.241-5.888l7.693-27.739 2.556 1.412Z" fill="#FFC709" stroke="#BA6D00" stroke-width="1.279" stroke-linejoin="round"/><path fill-rule="evenodd" clip-rule="evenodd" d="M420.451 269.358s-1.231 3.77-4.123 8.293c-3.203 4.701-5.491 4.451-5.491 4.451s-3.497.564-3.934-2.165c-.13-2.723 1.732-3.666 1.734-3.727-.002.061 2.039-1.435 4.66-2.545 2.258-1.425 2.114-1.398 3.44-3.153.839-2.009.565-.604 2.687-8.483 2.122-7.878 3.029-12.271 3.091-12.269l2.802.608-2.779 11.479-.971 3.911-1.116 3.6Z" fill="#FFC709" stroke="#BA6D00" stroke-width="1.279" stroke-linejoin="round"/><path fill-rule="evenodd" clip-rule="evenodd" d="M409.768 257.166s-1.022 3.747-3.503 8.271c-2.753 4.706-4.784 4.504-4.784 4.504s-3.087.627-3.523-2.059c-.164-2.686 1.469-3.655 1.469-3.715 0 .061 1.781-1.458 4.082-2.606 1.974-1.452 1.847-1.422 2.99-3.181.707-2.002.49-.608 2.228-8.43 1.738-7.823 2.463-12.178 2.518-12.178l2.492.545-2.255 11.39-.79 3.881-.924 3.578Z" fill="#FFC709" stroke="#BA6D00" stroke-width="1.196" stroke-linejoin="round"/><path fill-rule="evenodd" clip-rule="evenodd" d="M406.854 257.653s-1.154 3.793-3.955 8.373c-3.109 4.764-5.402 4.56-5.402 4.56s-3.484.634-3.976-2.086c-.184-2.72 1.659-3.7 1.659-3.762 0 .062 2.011-1.475 4.608-2.637 2.229-1.47 2.086-1.44 3.377-3.221.799-2.026.552-.615 2.516-8.534 1.965-7.92 2.783-12.33 2.845-12.33l2.814.553-2.549 11.532-.892 3.929-1.045 3.623Z" fill="#FFC709" stroke="#BA6D00" stroke-width="1.279" stroke-linejoin="round"/><path fill-rule="evenodd" clip-rule="evenodd" d="m409.883 236.411-5.346 20.541s-.64 2.232-.996 4.509c.075 2.708.594 3.771.594 3.771.062 0 .341 1.432.525 2.904.123 2.024-.73 3.434-.73 3.372 0 .062-.654 1.084-2.639 1.268-2.293-.061-2.639-1.697-2.639-1.697s-.354-.164-.259-2.453c.095-2.29 1.241-5.888 1.241-5.888l7.693-27.739 2.556 1.412ZM399.85 242.725l-6.587 20.178s-.774 2.188-1.268 4.44c-.091 2.707.363 3.8.363 3.8.061.004.252 1.45.347 2.93-.001 2.028-.938 3.384-.934 3.322-.004.062-.719 1.042-2.712 1.105-2.285-.201-2.531-1.854-2.531-1.854s-.343-.185-.109-2.465c.235-2.28 1.598-5.801 1.598-5.801l9.368-27.22 2.465 1.565Z" fill="#FFC709" stroke="#BA6D00" stroke-width="1.279" stroke-linejoin="round"/><path fill-rule="evenodd" clip-rule="evenodd" d="M396.321 269.371s-1.269 3.756-4.208 8.25c-3.251 4.668-5.537 4.394-5.537 4.394s-3.503.528-3.911-2.206c-.102-2.724 1.77-3.648 1.772-3.709-.002.061 2.054-1.414 4.686-2.497 2.273-1.401 2.129-1.376 3.473-3.117.859-2.001.571-.598 2.774-8.455 2.203-7.856 3.155-12.239 3.217-12.237l2.796.637-2.897 11.45-1.011 3.9-1.154 3.59ZM411.068 262.396s-1.154 3.793-3.955 8.373c-3.109 4.764-5.402 4.56-5.402 4.56s-3.485.634-3.976-2.086c-.185-2.72 1.659-3.7 1.659-3.762 0 .062 2.011-1.475 4.608-2.637 2.229-1.47 2.086-1.44 3.377-3.22.798-2.027.552-.616 2.516-8.535 1.965-7.92 2.783-12.329 2.845-12.329l2.814.552-2.549 11.532-.892 3.929-1.045 3.623Z" fill="#FFC709" stroke="#BA6D00" stroke-width="1.279" stroke-linejoin="round"/><path fill-rule="evenodd" clip-rule="evenodd" d="M414.199 260.211s-1.154 3.794-3.955 8.374c-3.109 4.764-5.402 4.559-5.402 4.559s-3.485.634-3.976-2.086c-.185-2.72 1.659-3.7 1.659-3.761 0 .061 2.01-1.475 4.608-2.638 2.229-1.469 2.086-1.44 3.376-3.22.799-2.026.553-.615 2.517-8.535s2.783-12.329 2.845-12.329l2.814.552-2.549 11.532-.892 3.93-1.045 3.622Z" fill="#FFC709" stroke="#BA6D00" stroke-width="1.279" stroke-linejoin="round"/><path fill-rule="evenodd" clip-rule="evenodd" d="m406.58 238.353-5.346 20.541s-.639 2.232-.995 4.51c.074 2.707.593 3.77.593 3.77.062 0 .341 1.432.525 2.904.123 2.024-.73 3.434-.73 3.373 0 .061-.654 1.083-2.639 1.267-2.293-.061-2.639-1.697-2.639-1.697s-.354-.163-.259-2.453c.095-2.29 1.241-5.888 1.241-5.888l7.693-27.739 2.556 1.412ZM392.769 270.376s-1.432 3.697-4.566 8.057c-3.453 4.521-5.725 4.147-5.725 4.147s-3.522.374-3.81-2.375c.018-2.726 1.929-3.567 1.933-3.628-.004.061 2.115-1.322 4.792-2.289 2.332-1.3 2.187-1.281 3.606-2.961.947-1.961.597-.573 3.143-8.325 2.547-7.752 3.691-12.089 3.752-12.084l2.765.759-3.397 11.311-1.182 3.853-1.311 3.535Z" fill="#FFC709" stroke="#BA6D00" stroke-width="1.279" stroke-linejoin="round"/><path fill-rule="evenodd" clip-rule="evenodd" d="m395.922 246.749-7.345 19.617s-.857 2.123-1.436 4.331c-.194 2.696.218 3.823.218 3.823.061.009.197 1.468.235 2.953-.078 2.025-1.065 3.303-1.059 3.242-.006.061-.757.983-2.75.886-2.274-.384-2.456-2.054-2.456-2.054s-.336-2.177.292-4.312c.505-2.687 5.318-11.497 7.223-17.452l4.245-12.978 2.833 1.944Z" fill="#FFC709" stroke="#BA6D00" stroke-width="1.279" stroke-linejoin="round"/><path fill-rule="evenodd" clip-rule="evenodd" d="M398.921 171.405s2.76 3.12 6.572 9.449c3.689 6.207 3.846 6.461 5.565 11.122 1.228 4.538 1.239 6.072.388 8.607-1.096 2.044-2.17 2.474-3.171 2.515-1 .04-1.514-.233-2.25-1.363-1.473-3.34.384-5.016.941-7.796.557-2.781.326-.644.327-2.703-.306-2.735-1.165-3.451-1.534-4.187-.553-1.044-.942-1.83-4.031-6.435-3.211-4.912-4.746-7.61-4.746-7.61s-.339-1.098.403-1.636c.711-.516 1.536.037 1.536.037Z" fill="#FFC709" stroke="#BA6D00" stroke-width="1.279"/><path fill-rule="evenodd" clip-rule="evenodd" d="M400.973 170.423s2.76 3.12 6.572 9.45c3.689 6.207 3.846 6.461 5.565 11.122 1.228 4.538 1.239 6.072.388 8.607-1.097 2.043-2.171 2.474-3.171 2.514-1 .041-1.514-.233-2.25-1.362-1.473-3.34.384-5.016.941-7.797.557-2.78.326-.643.327-2.702-.306-2.735-1.166-3.451-1.534-4.188-.553-1.043-.943-1.829-4.031-6.434-3.211-4.912-4.747-7.611-4.747-7.611s-.338-1.097.403-1.635c.712-.516 1.537.036 1.537.036ZM383.891 165.476s3.142 2.735 7.744 8.517c4.465 5.676 4.653 5.907 6.963 10.306 1.807 4.34 2.018 5.86 1.503 8.484-.822 2.168-1.831 2.734-2.817 2.904-.987.171-1.532-.034-2.408-1.059-1.895-3.12-.272-5.023-.08-7.852.191-2.83.24-.681-.027-2.722-.659-2.672-1.604-3.271-2.065-3.954-.684-.963-1.172-1.691-4.833-5.857-3.822-4.453-5.695-6.93-5.695-6.93s-.478-1.045.187-1.674c.639-.604 1.528-.163 1.528-.163Z" fill="#FFC709" stroke="#BA6D00" stroke-width="1.279"/><path fill-rule="evenodd" clip-rule="evenodd" d="M393.54 165.484s4.91 8.024 6.687 11.097c2.167 3.378 4.146 8.153 6.032 10.685 2.277 2.404 4.549 2.8 6.142 4.338 1.828 1.634 2.165 2.427 2.251 3.804-.047 1.854-1.866 3.196-3.693 2.596-1.82-.227-3.837-3.145-3.837-3.145s-2.601-4.928-4.396-8.32c-3.902-8.049-11.715-19.916-11.715-19.916l2.529-1.139Z" fill="#FFC709" stroke="#BA6D00" stroke-width="1.279"/><path fill-rule="evenodd" clip-rule="evenodd" d="M403.508 170.509s2.76 3.12 6.572 9.449c3.689 6.207 3.846 6.461 5.565 11.122 1.228 4.539 1.239 6.072.388 8.607-1.097 2.044-2.17 2.474-3.171 2.515-1 .041-1.514-.233-2.25-1.363-1.473-3.339.384-5.016.941-7.796.557-2.781.326-.644.327-2.703-.306-2.734-1.165-3.45-1.534-4.187-.553-1.044-.942-1.83-4.031-6.434-3.211-4.912-4.746-7.611-4.746-7.611s-.339-1.098.403-1.636c.711-.516 1.536.037 1.536.037ZM378.452 166.562s6.031 7.22 8.239 10.001c2.637 3.026 5.293 7.461 7.529 9.69 2.604 2.045 4.91 2.106 6.711 3.394 2.046 1.35 2.496 2.085 2.782 3.435a2.807 2.807 0 0 1-3.273 3.107c-1.834.042-4.256-2.551-4.256-2.551s-3.293-4.495-5.565-7.589c-5.037-7.392-14.502-17.991-14.502-17.991l2.335-1.496Z" fill="#FFC709" stroke="#BA6D00" stroke-width="1.279"/><path fill-rule="evenodd" clip-rule="evenodd" d="M381.91 167.09s3.107 2.776 7.633 8.617c4.391 5.733 4.576 5.966 6.829 10.395 1.751 4.363 1.942 5.885 1.394 8.502-.85 2.158-1.867 2.711-2.855 2.868-.989.158-1.531-.054-2.394-1.09-1.854-3.145-.207-5.026.021-7.853.228-2.826.249-.677.009-2.722-.624-2.68-1.562-3.291-2.014-3.98-.672-.971-1.15-1.706-4.756-5.918-3.765-4.503-5.606-7.004-5.606-7.004s-.464-1.051.209-1.672c.646-.595 1.53-.143 1.53-.143Z" fill="#FFC709" stroke="#BA6D00" stroke-width="1.279"/><path fill-rule="evenodd" clip-rule="evenodd" d="M376.151 167.61s6.032 7.221 8.239 10.001c2.637 3.026 5.293 7.461 7.529 9.691 2.604 2.045 4.91 2.105 6.711 3.393 2.047 1.35 2.496 2.085 2.782 3.435a2.808 2.808 0 0 1-3.273 3.108c-1.834.041-4.256-2.552-4.256-2.552s-3.293-4.495-5.565-7.589c-5.037-7.392-14.502-17.991-14.502-17.991l2.335-1.496Z" fill="#FFC709" stroke="#BA6D00" stroke-width="1.279"/><path fill-rule="evenodd" clip-rule="evenodd" d="M386.893 164.173s3.118 2.763 7.668 8.586c4.414 5.715 4.6 5.948 6.871 10.367 1.768 4.357 1.965 5.878 1.427 8.497-.841 2.161-1.855 2.718-2.843 2.88-.988.161-1.531-.049-2.398-1.081-1.867-3.137-.227-5.026-.01-7.853.216-2.827.246-.678-.003-2.722-.635-2.678-1.575-3.285-2.03-3.972-.675-.969-1.157-1.702-4.78-5.899-3.782-4.488-5.633-6.981-5.633-6.981s-.469-1.049.202-1.673c.643-.598 1.529-.149 1.529-.149Z" fill="#FFC709" stroke="#BA6D00" stroke-width="1.279"/><path fill-rule="evenodd" clip-rule="evenodd" d="M375.489 170.939s6.031 7.22 8.239 10.001c2.637 3.026 5.293 7.461 7.529 9.69 2.604 2.045 4.91 2.106 6.711 3.394 2.046 1.35 2.496 2.085 2.782 3.435.225 1.841-1.378 3.435-3.273 3.107-1.834.042-4.256-2.551-4.256-2.551s-3.293-4.495-5.565-7.589c-5.037-7.392-14.502-17.991-14.502-17.991l2.335-1.496Z" fill="#FFC709" stroke="#BA6D00" stroke-width="1.279"/><path fill-rule="evenodd" clip-rule="evenodd" d="M377.327 176.796s6.288 7.826 8.582 10.835c2.756 3.285 5.46 8.047 7.814 10.48 2.772 2.256 5.318 2.42 7.241 3.848 2.192 1.503 2.65 2.292 2.896 3.719.152 1.938-1.706 3.538-3.784 3.113-2.029-.037-4.571-2.858-4.571-2.858s-3.404-4.852-5.753-8.193c-5.179-7.963-15.085-19.478-15.085-19.478l2.66-1.466Z" fill="#FFC709" stroke="#BA6D00" stroke-width="1.377"/><path fill-rule="evenodd" clip-rule="evenodd" d="M375.427 183.249s.871 1.05 8.234 10.495c6.733 10.339 7.756 12.286 7.756 12.286s1.085 1.997 2.182 2.595c1.098.599 2.968.533 3.531.104.536-.409.835-.472 1.019-2.468-.205-1.177-.548-1.646-1.038-2.087-.996-.755-1.505-.881-2.728-1.269-1.209-.627-1.674-1.23-2.497-2.349-1.628-2.564-2.355-3.817-5.09-7.553-3.545-4.937-6.333-7.945-9.572-11.815l-1.797 2.061Z" fill="#FFC709" stroke="#BA6D00" stroke-width="1.279"/><path fill-rule="evenodd" clip-rule="evenodd" d="M375.095 181.473s5.753 7.915 7.839 10.949c2.534 3.33 4.889 8.061 7.086 10.552 2.637 2.353 5.222 2.701 7.064 4.204 2.11 1.594 2.51 2.38 2.64 3.754-.01 1.854-2.042 3.235-4.127 2.674-2.069-.188-4.423-3.062-4.423-3.062s-3.062-4.87-5.176-8.223c-4.61-7.961-13.743-19.655-13.743-19.655l2.84-1.193Z" fill="#FFC709" stroke="#BA6D00" stroke-width="1.362"/><path fill-rule="evenodd" clip-rule="evenodd" d="M370.574 184.262s.815 1.094 7.68 10.907c6.189 10.672 7.11 12.67 7.11 12.67s.981 2.05 2.045 2.704c1.065.655 2.937.686 3.52.287.557-.381.86-.429 1.146-2.413-.143-1.186-.462-1.672-.928-2.138-.956-.805-1.458-.957-2.66-1.408-1.174-.688-1.608-1.315-2.371-2.475-1.494-2.644-2.155-3.933-4.693-7.806-3.285-5.113-5.913-8.261-8.948-12.293l-1.901 1.965Z" fill="#FFC709" stroke="#BA6D00" stroke-width="1.279"/><path d="M330.904 131.495a105.99 105.99 0 0 1 27.044 6.497l-.728 1.46a105.39 105.39 0 0 0-26.578-6.371c-.791-.09-.616-1.672.262-1.586Z" fill="#FFC709" stroke="#BA6D00" stroke-width="1.051" stroke-linecap="round" stroke-linejoin="round"/><path d="M325.449 134.013c8.663.449 15.647 1.77 22.862 3.877 2.804.804 5.571 1.735 8.294 2.78l-.74 1.48a102.566 102.566 0 0 0-30.559-6.509c-.963-.104-.827-1.612.143-1.628Z" fill="#FFC709" stroke="#BA6D00" stroke-width="1.023" stroke-linecap="round" stroke-linejoin="round"/><path d="M329.459 137.309c8.81.895 17.511 2.92 25.796 6.052l-.622 1.243c-8.159-3.068-16.728-5.048-25.399-5.937-.804-.058-.641-1.432.225-1.358Z" fill="#FFC709" stroke="#BA6D00" stroke-width="1.023" stroke-linecap="round" stroke-linejoin="round"/><path d="m354.143 145.585-.737 1.468c-11.649-4.237-22.031-5.861-30.956-6.125-.925-.057-.928-1.563.123-1.62 10.138.352 21.801 2.613 31.57 6.277Z" fill="#FFC709" stroke="#BA6D00" stroke-width="1.023" stroke-linecap="round" stroke-linejoin="round"/><path d="M327.299 142.498c7.76.641 16.492 2.465 25.493 5.782l-.753 1.5c-7.741-2.864-18.111-5.161-25.023-5.671-.959-.142-.734-1.689.283-1.611h0Zm24.004 8.746-.733 1.464c-7.88-2.891-20.817-5.626-28.329-5.5-.811-.064-.744-1.576.07-1.639 9.42-.005 19.269 2.151 28.992 5.675Zm-23.145-2.183a94.49 94.49 0 0 1 21.675 5.115l-.732 1.459c-6.584-2.376-13.851-4.209-21.131-4.935-1.079-.151-.929-1.707.188-1.639Zm20.215 8.03-.737 1.464c-6.448-2.311-16.637-4.466-23.57-4.825-1.008-.115-.873-1.633.139-1.66 8.117.308 16.961 2.496 24.168 5.021Zm-24.9-1.488c6.011.045 16.543 2.258 23.304 4.665l-.737 1.468c-6.462-2.285-17.108-4.388-22.645-4.518-1.116-.012-1.09-1.604.078-1.615Zm5.127 3.798a87.047 87.047 0 0 1 16.585 4.044l-.732 1.46c-5.136-1.86-10.858-3.232-16.193-3.93-1.028-.217-.783-1.795.34-1.574Zm-4.919 2.691c6.21.222 14.318 2.046 20.137 4.08l-.736 1.468c-5.425-1.87-13.171-3.686-19.425-3.913-1.134-.062-1.038-1.705.025-1.635h-.001Z" fill="#FFC709" stroke="#BA6D00" stroke-width="1.023" stroke-linecap="round" stroke-linejoin="round"/><path fill-rule="evenodd" clip-rule="evenodd" d="M335.082 157.633s12.994-2.743 12.188 4.529c-3.356 5.999-12.188-4.529-12.188-4.529Z" fill="#FFC709" stroke="#BA6D00" stroke-width="1.232" stroke-linejoin="round"/><path fill-rule="evenodd" clip-rule="evenodd" d="M337.889 165.946s10.539 6.819 12.382.11c-.862-6.444-12.382-.11-12.382-.11Z" fill="#FFC709" stroke="#BA6D00" stroke-width="1.17" stroke-linejoin="round"/><path fill-rule="evenodd" clip-rule="evenodd" d="M345.863 157.091s12.168 2.984 8.419 8.982c-5.373 3.834-8.419-8.982-8.419-8.982Z" fill="#FFC709" stroke="#BA6D00" stroke-width="1.176" stroke-linejoin="round"/><path fill-rule="evenodd" clip-rule="evenodd" d="M345.629 169.424s10.436 5.955 11.701-.683c-1.271-6.208-11.701.683-11.701.683Z" fill="#FFC709" stroke="#BA6D00" stroke-width="1.124" stroke-linejoin="round"/><path fill-rule="evenodd" clip-rule="evenodd" d="M353.84 159.739s11.551 4.35 7.169 9.724c-5.713 3.081-7.169-9.724-7.169-9.724Z" fill="#FFC709" stroke="#BA6D00" stroke-width="1.155" stroke-linejoin="round"/><path fill-rule="evenodd" clip-rule="evenodd" d="M352.202 172.714s9.891 6.046 10.982-.586c-1.284-6.222-10.982.586-10.982.586Z" fill="#FFC709" stroke="#BA6D00" stroke-width="1.091" stroke-linejoin="round"/><path fill-rule="evenodd" clip-rule="evenodd" d="M361.422 163.165s10.332 6.341 4.96 10.486c-6.192 1.744-4.96-10.486-4.96-10.486Z" fill="#FFC709" stroke="#BA6D00" stroke-width="1.125" stroke-linejoin="round"/><path fill-rule="evenodd" clip-rule="evenodd" d="M357.419 175.441s9.45 7.658 11.74 1.257c-.298-6.392-11.74-1.257-11.74-1.257Z" fill="#FFC709" stroke="#BA6D00" stroke-width="1.133" stroke-linejoin="round"/><path fill-rule="evenodd" clip-rule="evenodd" d="M362.966 178.995s7.95 8.2 10.868 2.525c.489-5.966-10.868-2.525-10.868-2.525Z" fill="#FFC709" stroke="#BA6D00" stroke-width="1.066" stroke-linejoin="round"/><path fill-rule="evenodd" clip-rule="evenodd" d="M367.693 167.95s10.08 6.33 4.732 10.31c-6.121 1.623-4.732-10.31-4.732-10.31Z" fill="#FFC709" stroke="#BA6D00" stroke-width="1.103" stroke-linejoin="round"/><path fill-rule="evenodd" clip-rule="evenodd" d="M373.943 172.293s9.171 7.521 3.381 10.9c-6.256.923-3.381-10.9-3.381-10.9Z" fill="#FFC709" stroke="#BA6D00" stroke-width="1.107" stroke-linejoin="round"/><path fill-rule="evenodd" clip-rule="evenodd" d="M368.29 183.695s7.958 8.875 10.916 2.61c.517-6.548-10.916-2.61-10.916-2.61Z" fill="#FFC709" stroke="#BA6D00" stroke-width="1.121" stroke-linejoin="round"/><path fill-rule="evenodd" clip-rule="evenodd" d="M344.902 138.146s14.228-2.733 13.128 5.537c-3.836 6.741-13.128-5.537-13.128-5.537Z" fill="#FFC709" stroke="#BA6D00" stroke-width="1.373" stroke-linejoin="round"/><path fill-rule="evenodd" clip-rule="evenodd" d="M356.695 137.278s13.069 5.675 7.661 11.521c-6.801 3.152-7.661-11.521-7.661-11.521Z" fill="#FFC709" stroke="#BA6D00" stroke-width="1.327" stroke-linejoin="round"/><path fill-rule="evenodd" clip-rule="evenodd" d="M364.164 140.608s13.383 6.747 7.498 12.856c-7.222 3.12-7.498-12.856-7.498-12.856Z" fill="#FFC709" stroke="#BA6D00" stroke-width="1.413" stroke-linejoin="round"/><path fill-rule="evenodd" clip-rule="evenodd" d="M371.901 144.392s12.452 7.558 6.322 13.049c-7.207 2.488-6.322-13.049-6.322-13.049Z" fill="#FFC709" stroke="#BA6D00" stroke-width="1.374" stroke-linejoin="round"/><path fill-rule="evenodd" clip-rule="evenodd" d="M379.957 149.426s11.069 8.71 4.3 12.946c-7.389 1.309-4.3-12.946-4.3-12.946Z" fill="#FFC709" stroke="#BA6D00" stroke-width="1.319" stroke-linejoin="round"/><path fill-rule="evenodd" clip-rule="evenodd" d="M386.078 153.874s10.732 9.225 3.871 13.281c-7.385 1.066-3.871-13.281-3.871-13.281Z" fill="#FFC709" stroke="#BA6D00" stroke-width="1.325" stroke-linejoin="round"/><path fill-rule="evenodd" clip-rule="evenodd" d="M391.905 158.097s10.806 9.084 3.979 13.188c-7.376 1.132-3.979-13.188-3.979-13.188Z" fill="#FFC709" stroke="#BA6D00" stroke-width="1.323" stroke-linejoin="round"/><path fill-rule="evenodd" clip-rule="evenodd" d="M397.988 163.442s9.504 10.351 2.291 13.572c-7.388.205-2.291-13.572-2.291-13.572Z" fill="#FFC709" stroke="#BA6D00" stroke-width="1.316" stroke-linejoin="round"/><path fill-rule="evenodd" clip-rule="evenodd" d="M331.706 147.091s8.297 11.438 12.845 4.922c1.629-7.279-12.845-4.922-12.845-4.922Z" fill="#FFC709" stroke="#BA6D00" stroke-width="1.321" stroke-linejoin="round"/><path fill-rule="evenodd" clip-rule="evenodd" d="M338.133 141.463s13.745-.059 11.325 7.922c-4.717 5.958-11.325-7.922-11.325-7.922Z" fill="#FFC709" stroke="#BA6D00" stroke-width="1.342" stroke-linejoin="round"/><path fill-rule="evenodd" clip-rule="evenodd" d="M338.662 154.966s12.977 6.763 14.267-1.369c-1.791-7.491-14.267 1.369-14.267 1.369Z" fill="#FFC709" stroke="#BA6D00" stroke-width="1.371" stroke-linejoin="round"/><path fill-rule="evenodd" clip-rule="evenodd" d="M347.502 142.453s14.287 3.65 9.768 10.511c-6.395 4.339-9.768-10.511-9.768-10.511Z" fill="#FFC709" stroke="#BA6D00" stroke-width="1.372" stroke-linejoin="round"/><path fill-rule="evenodd" clip-rule="evenodd" d="M347.666 157.794s12.991 7.281 14.408-1.223c-1.699-7.879-14.408 1.223-14.408 1.223Z" fill="#FFC709" stroke="#BA6D00" stroke-width="1.41" stroke-linejoin="round"/><path fill-rule="evenodd" clip-rule="evenodd" d="M355.831 161.988s12.19 7.027 13.727-.791c-1.44-7.314-13.727.791-13.727.791Z" fill="#FFC709" stroke="#BA6D00" stroke-width="1.321" stroke-linejoin="round"/><path fill-rule="evenodd" clip-rule="evenodd" d="M356.655 144.901s14.878 5.685 9.245 12.736c-7.351 4.047-9.245-12.736-9.245-12.736Z" fill="#FFC709" stroke="#BA6D00" stroke-width="1.501" stroke-linejoin="round"/><path fill-rule="evenodd" clip-rule="evenodd" d="M366.712 150.216s13.057 7.583 6.582 13.018c-7.591 2.442-6.582-13.018-6.582-13.018Z" fill="#FFC709" stroke="#BA6D00" stroke-width="1.405" stroke-linejoin="round"/><path fill-rule="evenodd" clip-rule="evenodd" d="M363.159 165.708s11.118 8.488 13.447.75c-.623-7.563-13.447-.75-13.447-.75Z" fill="#FFC709" stroke="#BA6D00" stroke-width="1.32" stroke-linejoin="round"/><path fill-rule="evenodd" clip-rule="evenodd" d="M375.241 155.065s12.232 8.881 5.244 13.721c-7.8 1.723-5.244-13.721-5.244-13.721Z" fill="#FFC709" stroke="#BA6D00" stroke-width="1.412" stroke-linejoin="round"/><path fill-rule="evenodd" clip-rule="evenodd" d="M382.494 159.905s11.014 9.214 4.064 13.358c-7.513 1.133-4.064-13.358-4.064-13.358Z" fill="#FFC709" stroke="#BA6D00" stroke-width="1.343" stroke-linejoin="round"/><path fill-rule="evenodd" clip-rule="evenodd" d="M369.736 170.059s10.357 10.081 13.94 2.816c.473-7.549-13.94-2.816-13.94-2.816Z" fill="#FFC709" stroke="#BA6D00" stroke-width="1.353" stroke-linejoin="round"/><path fill-rule="evenodd" clip-rule="evenodd" d="M405.281 298.765s-9.868 11.248-14.93 4.444c-1.678-7.453 14.93-4.444 14.93-4.444Z" fill="#FFC709" stroke="#BA6D00" stroke-width="1.431" stroke-linejoin="round"/><path fill-rule="evenodd" clip-rule="evenodd" d="M400.463 305.072s-10.843 12.11-15.437 4.232c-1.124-8.436 15.437-4.232 15.437-4.232Z" fill="#FFC709" stroke="#BA6D00" stroke-width="1.523" stroke-linejoin="round"/><path fill-rule="evenodd" clip-rule="evenodd" d="M393.348 311.472s-9.536 9.892-13.116 3.049c-.645-7.195 13.116-3.049 13.116-3.049ZM385.142 286.844s-9.179 10.225-2.088 13.293c7.229.118 2.088-13.293 2.088-13.293Z" fill="#FFC709" stroke="#BA6D00" stroke-width="1.287" stroke-linejoin="round"/><path fill-rule="evenodd" clip-rule="evenodd" d="M392.703 298.304s-6.975 12.577-12.366 6.577c-2.538-7.137 12.366-6.577 12.366-6.577Z" fill="#FFC709" stroke="#BA6D00" stroke-width="1.343" stroke-linejoin="round"/><path fill-rule="evenodd" clip-rule="evenodd" d="M380.419 295.906s-8.416 10.86-12.711 4.441c-1.416-7.084 12.711-4.441 12.711-4.441Z" fill="#FFC709" stroke="#BA6D00" stroke-width="1.287" stroke-linejoin="round"/><path fill-rule="evenodd" clip-rule="evenodd" d="M380.389 292.733s-10.287 9.706-3.325 13.511c7.367.777 3.325-13.511 3.325-13.511Z" fill="#FFC709" stroke="#BA6D00" stroke-width="1.325" stroke-linejoin="round"/><path fill-rule="evenodd" clip-rule="evenodd" d="M387.462 306.517s-9.471 10.76-13.58 3.844c-1.052-7.433 13.58-3.844 13.58-3.844Z" fill="#FFC709" stroke="#BA6D00" stroke-width="1.343" stroke-linejoin="round"/><path fill-rule="evenodd" clip-rule="evenodd" d="M368.774 287.669s-10.006 8.761-3.988 12.684c6.604 1.066 3.988-12.684 3.988-12.684Z" fill="#FFC709" stroke="#BA6D00" stroke-width="1.231" stroke-linejoin="round"/><path fill-rule="evenodd" clip-rule="evenodd" d="M374.821 300.439s-8.725 9.814-12.41 3.421c-.895-6.844 12.41-3.421 12.41-3.421Z" fill="#FFC709" stroke="#BA6D00" stroke-width="1.23" stroke-linejoin="round"/><path fill-rule="evenodd" clip-rule="evenodd" d="M362.72 292.305s-9.317 8.231-3.15 11.669c6.57.815 3.15-11.669 3.15-11.669Z" fill="#FFC709" stroke="#BA6D00" stroke-width="1.167" stroke-linejoin="round"/><path fill-rule="evenodd" clip-rule="evenodd" d="M370.548 305.339s-10.434 8.94-13.346 1.788c.043-7.224 13.346-1.788 13.346-1.788Z" fill="#FFC709" stroke="#BA6D00" stroke-width="1.287" stroke-linejoin="round"/><path fill-rule="evenodd" clip-rule="evenodd" d="M374.746 298.676s-11.506 8.439-4.944 13.054c7.328 1.648 4.944-13.054 4.944-13.054Z" fill="#FFC709" stroke="#BA6D00" stroke-width="1.336" stroke-linejoin="round"/><path fill-rule="evenodd" clip-rule="evenodd" d="M368.137 304.257s-10.968 8.278-4.597 12.647c7.072 1.5 4.597-12.647 4.597-12.647ZM356.853 298.142s-9.66 9.771-2.725 13.177c7.214.466 2.725-13.177 2.725-13.177Z" fill="#FFC709" stroke="#BA6D00" stroke-width="1.287" stroke-linejoin="round"/><path fill-rule="evenodd" clip-rule="evenodd" d="M417.944 196.316s4.859 13.436-3.326 13.592c-7.128-2.732 3.326-13.592 3.326-13.592Z" fill="#FFC709" stroke="#BA6D00" stroke-width="1.349" stroke-linejoin="round"/><path fill-rule="evenodd" clip-rule="evenodd" d="M420.764 204.301s3.832 13.858-4.42 13.416c-6.96-3.267 4.42-13.416 4.42-13.416Z" fill="#FFC709" stroke="#BA6D00" stroke-width="1.361" stroke-linejoin="round"/><path fill-rule="evenodd" clip-rule="evenodd" d="M423.051 212.378s3.091 13.847-5.599 12.932c-7.129-3.617 5.599-12.932 5.599-12.932Z" fill="#FFC709" stroke="#BA6D00" stroke-width="1.391" stroke-linejoin="round"/><path fill-rule="evenodd" clip-rule="evenodd" d="M424.46 220.468s1.623 15.081-6.458 13.265c-6.365-4.549 6.458-13.265 6.458-13.265Z" fill="#FFC709" stroke="#BA6D00" stroke-width="1.398" stroke-linejoin="round"/><path fill-rule="evenodd" clip-rule="evenodd" d="M425.31 228.803s1.077 14.392-6.977 12.389c-6.228-4.543 6.977-12.389 6.977-12.389Z" fill="#FFC709" stroke="#BA6D00" stroke-width="1.368" stroke-linejoin="round"/><path fill-rule="evenodd" clip-rule="evenodd" d="M403.478 188.883s9.741 11.787 1.275 14.54c-8.372-.448-1.275-14.54-1.275-14.54Z" fill="#FFC709" stroke="#BA6D00" stroke-width="1.444" stroke-linejoin="round"/><path fill-rule="evenodd" clip-rule="evenodd" d="M394.389 199.198s4.512 13.677 11.068 8.855c3.926-6.492-11.068-8.855-11.068-8.855Z" fill="#FFC709" stroke="#BA6D00" stroke-width="1.354" stroke-linejoin="round"/><path fill-rule="evenodd" clip-rule="evenodd" d="M409.657 197.819s6.742 12.885-1.515 14.092c-7.581-1.833 1.515-14.092 1.515-14.092Z" fill="#FFC709" stroke="#BA6D00" stroke-width="1.373" stroke-linejoin="round"/><path fill-rule="evenodd" clip-rule="evenodd" d="M394.374 201.688s8.168 10.629.727 12.407c-7.275-.929-.727-12.407-.727-12.407Z" fill="#FFC709" stroke="#BA6D00" stroke-width="1.243" stroke-linejoin="round"/><path fill-rule="evenodd" clip-rule="evenodd" d="M385.932 209.566s3.453 11.893 8.784 7.786c3.24-5.581-8.784-7.786-8.784-7.786Z" fill="#FFC709" stroke="#BA6D00" stroke-width="1.13" stroke-linejoin="round"/><path fill-rule="evenodd" clip-rule="evenodd" d="M398.499 209.115s5.308 11.731-1.56 12.196c-6.241-2.141 1.56-12.196 1.56-12.196Z" fill="#FFC709" stroke="#BA6D00" stroke-width="1.168" stroke-linejoin="round"/><path fill-rule="evenodd" clip-rule="evenodd" d="M397.119 206.947s3.818 13.784 10.418 9.279c4.108-6.278-10.418-9.279-10.418-9.279Z" fill="#FFC709" stroke="#BA6D00" stroke-width="1.334" stroke-linejoin="round"/><path fill-rule="evenodd" clip-rule="evenodd" d="M413.787 206.897s4.393 14.667-4.358 14.355c-7.451-3.343 4.358-14.355 4.358-14.355Z" fill="#FFC709" stroke="#BA6D00" stroke-width="1.445" stroke-linejoin="round"/><path fill-rule="evenodd" clip-rule="evenodd" d="M388.21 216.043s2.257 11.517 8.122 8.281c3.891-4.853-8.122-8.281-8.122-8.281Z" fill="#FFC709" stroke="#BA6D00" stroke-width="1.11" stroke-linejoin="round"/><path fill-rule="evenodd" clip-rule="evenodd" d="M400.545 217.021s4.472 11.071-2.547 11.097c-6.178-2.328 2.547-11.097 2.547-11.097Z" fill="#FFC709" stroke="#BA6D00" stroke-width="1.133" stroke-linejoin="round"/><path fill-rule="evenodd" clip-rule="evenodd" d="M399.868 214.175s1.438 14.402 8.914 11.071c5.264-5.536-8.914-11.071-8.914-11.071Z" fill="#FFC709" stroke="#BA6D00" stroke-width="1.36" stroke-linejoin="round"/><path fill-rule="evenodd" clip-rule="evenodd" d="M416.539 215.731s2.542 15.495-5.61 14.19c-6.612-4.257 5.61-14.19 5.61-14.19Z" fill="#FFC709" stroke="#BA6D00" stroke-width="1.423" stroke-linejoin="round"/><path fill-rule="evenodd" clip-rule="evenodd" d="M389.52 221.895s1.612 12.619 7.666 9.469c4.168-5.022-7.666-9.469-7.666-9.469Z" fill="#FFC709" stroke="#BA6D00" stroke-width="1.157" stroke-linejoin="round"/><path fill-rule="evenodd" clip-rule="evenodd" d="M402.036 224.797s3.319 11.608-3.618 11.044c-5.871-2.882 3.618-11.044 3.618-11.044Z" fill="#FFC709" stroke="#BA6D00" stroke-width="1.138" stroke-linejoin="round"/><path fill-rule="evenodd" clip-rule="evenodd" d="M401.578 222.454s.433 14.389 8.012 11.596c5.554-5.13-8.012-11.596-8.012-11.596Z" fill="#FFC709" stroke="#BA6D00" stroke-width="1.346" stroke-linejoin="round"/><path fill-rule="evenodd" clip-rule="evenodd" d="M417.988 225.315s.253 15.284-7.614 12.702c-5.914-5.164 7.614-12.702 7.614-12.702Z" fill="#FFC709" stroke="#BA6D00" stroke-width="1.402" stroke-linejoin="round"/><path fill-rule="evenodd" clip-rule="evenodd" d="M426.133 236.391s-.364 14.635-8.035 11.831c-5.637-5.191 8.035-11.831 8.035-11.831Z" fill="#FFC709" stroke="#BA6D00" stroke-width="1.365" stroke-linejoin="round"/><path fill-rule="evenodd" clip-rule="evenodd" d="M390.882 228.738s-.367 12.161 6.323 10.234c5.062-4.014-6.323-10.234-6.323-10.234Z" fill="#FFC709" stroke="#BA6D00" stroke-width="1.152" stroke-linejoin="round"/><path fill-rule="evenodd" clip-rule="evenodd" d="M403.541 233.149s1.497 12.7-5.87 10.88c-5.806-4.048 5.87-10.88 5.87-10.88Z" fill="#FFC709" stroke="#BA6D00" stroke-width="1.223" stroke-linejoin="round"/><path fill-rule="evenodd" clip-rule="evenodd" d="M402.108 230.004s-.687 14.581 7.022 12.382c5.89-4.73-7.022-12.382-7.022-12.382Z" fill="#FFC709" stroke="#BA6D00" stroke-width="1.351" stroke-linejoin="round"/><path fill-rule="evenodd" clip-rule="evenodd" d="M418.985 234.113s-1.137 14.592-8.471 11.366c-5.222-5.496 8.471-11.366 8.471-11.366Z" fill="#FFC709" stroke="#BA6D00" stroke-width="1.349" stroke-linejoin="round"/><path fill-rule="evenodd" clip-rule="evenodd" d="M391.204 235.606s-1.687 12.202 5.158 10.871c5.457-3.578-5.158-10.871-5.158-10.871Z" fill="#FFC709" stroke="#BA6D00" stroke-width="1.156" stroke-linejoin="round"/><path fill-rule="evenodd" clip-rule="evenodd" d="M403.219 240.836s.568 12.704-5.801 10.433c-4.865-4.385 5.801-10.433 5.801-10.433Z" fill="#FFC709" stroke="#BA6D00" stroke-width="1.144" stroke-linejoin="round"/><path fill-rule="evenodd" clip-rule="evenodd" d="M390.814 242.382s-1.951 11.764 4.982 10.299c5.578-3.585-4.982-10.299-4.982-10.299Z" fill="#FFC709" stroke="#BA6D00" stroke-width="1.139" stroke-linejoin="round"/><path fill-rule="evenodd" clip-rule="evenodd" d="M426.064 245.011s-2.024 13.585-8.913 10.086c-4.702-5.487 8.913-10.086 8.913-10.086Z" fill="#FFC709" stroke="#BA6D00" stroke-width="1.287" stroke-linejoin="round"/><path fill-rule="evenodd" clip-rule="evenodd" d="M399.882 273.289s7.693.095 12.824-1.53c6.736-1.84 9.419-8.06 9.419-8.06s.987 1.424.926 3.45c-.061 1.842-1.378 6.094-4.685 10.595-3.43 5.545-5.764 12.082-8.53 16.376-2.212 3.864-6.882 7.36-6.882 7.36s-14.858-1.775-16.296-2.082c-1.914-.292-15.043-3.315-17.989-3.479-2.947-.164-9.637.266-9.637.266s2.355-4.335 3.492-5.173c2.273-1.881 5.021-2.649 7.865-5.397 1.553-1.705 4.172-4.722 5.645-6.358 1.842-1.758 3.232-3.49 5.238-4.618 1.637-1.066 18.61-1.35 18.61-1.35Z" fill="#000" stroke="#BA6D00" stroke-width=".639"/><path fill-rule="evenodd" clip-rule="evenodd" d="M366.298 288.838s5.462.139 8.091.476c2.906.459 9.152 1.214 14.167 1.727 4.505.497 8.321.787 13.405.841l9.234-.422c-.294.547-1.117 2.022-1.934 3.195-.982 1.504-1.754 2.504-3.552 4.177-1.474 1.395-2.385 2.121-2.808 2.444-1.106-.123-8.092-.96-10.912-1.35-4.641-.451-6.995-1.072-12.338-2.203-2.793-.569-9.267-1.93-10.952-2.022-1.899-.154-8.653.202-9.36.263a316.4 316.4 0 0 0 1.715-2.851c1.047-1.769 1.857-2.224 3.33-3.209.583-.379 1.866-1.046 1.914-1.066Z" fill="#FFC709"/><path fill-rule="evenodd" clip-rule="evenodd" d="M416.688 280.24c-.431.798-1.565 3.085-2.578 5.13-1.297 2.802-2.012 4.329-2.959 6.168-2.058.154-4.067.212-9.192.376-5.084-.054-8.898-.345-13.403-.84-5.014-.512-11.263-1.261-14.169-1.72-2.63-.335-8.174-.468-8.174-.468s2.463-1.487 3.609-2.469c1.422-1.318 2.075-2.26 3.235-3.48 1.505-.123 3.601-.133 5.892-.297 4.012-.225 10.179.195 13.617.195 3.437 0 9.248-.118 14.148-.687 6.651-.478 8.253-1.571 9.974-1.908Z" fill="#D00"/><path d="M422.228 265.076c-1.019 1.576-2.045 3.182-3.685 4.518-2.782 1.985-3.499 2.38-8.875 3.64-4.844.766-5.934.554-12.392.753-6.293.193-8.111.34-12.182.669-1.969.159-2.627.324-3.475.46" stroke="#FFC709" stroke-width="1.023" stroke-linecap="round"/><path fill-rule="evenodd" clip-rule="evenodd" d="M293.682 302.091c-.898.007-1.854.132-2.779.294-6.165 1.068-10.811 4.679-26.172 8.309-5.291 1.448-10.701 1.922-16.949 1.611-.462-.129-.832-.647-.839-1.19l-1.506-.859c-.659 1.017-.257 2.058-.02 2.691.194.521.505 1.11.965 1.476 11.106 7.901 11.392 9.601 17.78 15.623 3.522 3.47 4.584 4.567 16.311 2.707 2.313 3.749 2.813 5.705 9.485 3.766l1.121 2.809c1.038 1.936 2.46 1.966 6.069 1.198 9.347-2.009 12.05-4.286 22.723-4.522 10.676.235 13.379 2.513 22.727 4.522 3.609.768 5.03.738 6.068-1.198l1.121-2.809c6.672 1.939 7.172-.017 9.485-3.766 11.727 1.86 12.789.763 16.311-2.707 6.388-6.022 6.674-7.722 17.78-15.623.46-.366.767-.955.962-1.476.236-.633.642-1.674-.017-2.691l-1.506.859c-.007.543-.377 1.061-.838 1.19-6.249.311-11.658-.163-16.95-1.611-15.361-3.63-20.007-7.241-26.172-8.309-2.466-.433-5.172-.597-6.322 1.002-1.329 1.618-2.432 4.691-4.334 7.552-3.565-1.131-6.396-2.174-9.313-2.788-3.896-.821-6.705-.77-9.002-.77-2.259 0-5.104-.05-8.999.77-2.917.613-5.748 1.657-9.313 2.788-1.902-2.861-3.005-5.934-4.333-7.552-.719-.999-2.048-1.309-3.544-1.296Z" fill="#000" stroke="#BA6D00" stroke-width=".639"/><path d="M292.545 309.724c.961 1.711 1.352 3.064 1.724 4.553" stroke="#FFC709" stroke-width="1.023"/><path fill-rule="evenodd" clip-rule="evenodd" d="M255.307 321.071c3.927-.425 5.07-.533 8.318-1.073 3.046-.555 5.56-1.112 8.298-1.852.83 1.233 1.601 2.417 2.46 3.64.77 1.227 1.113 1.678 2.307 4.206-2.464.224-4.504.597-7.097.929-2.225.29-4.776.638-7.385.957-1.001-.98-1.764-1.782-2.854-2.91-1.329-1.338-2.343-2.381-4.047-3.897Zm27.548-.838c-3.952.833-4.441.913-7.409 1.873 1.507 2.623 2.352 5.1 3.402 7.279a331.008 331.008 0 0 1 7.538-1.616l-1.493-3.206-2.038-4.33Z" fill="#D00"/><path fill-rule="evenodd" clip-rule="evenodd" d="M262.196 327.871c2.415-.287 4.787-.617 7.245-.939 2.874-.385 4.809-.709 7.448-.972.546 1.268.826 1.949 1.473 3.373.54 1.19 1.255 2.318 1.793 3.279-1.748.243-3.086.451-5.008.65-2.075.175-2.825.242-4.505.134-1.652-.149-2.86-.471-4.329-1.619-.951-.766-2.463-2.305-4.117-3.906Zm16.654 1.515a237.477 237.477 0 0 1 7.755-1.662c.66 1.59.918 2.315 1.481 3.954.586 1.649 1.075 3.142 1.614 4.714-1.317.353-1.807.465-3.279.653-1.19.088-2.302-.038-3.161-.728-.689-.496-1.67-2.003-2.592-3.616-.697-1.241-1.18-1.996-1.818-3.315Z" fill="#FFC709"/><path fill-rule="evenodd" clip-rule="evenodd" d="M318.353 317.363c-2.311.123-4.618.416-5.373.597-4.451 1.088-7.107 2.016-10.152 3.038-5.389 1.8-7.088 2.627-10.12 3.553-2.398.734-4.101 1.131-6.285 1.632 1.05 2.49 1.834 4.759 2.778 7.47 2.742-.471 4.94-.96 7.673-1.783a373.038 373.038 0 0 1 9.06-2.866c2.858-.865 4.885-1.351 8.687-1.996 1.518-.142 2.622-.23 3.773-.269v.004a50.88 50.88 0 0 1 1.477-.029c.461.003.932.01 1.481.029v-.004c1.15.039 2.256.127 3.773.269 3.801.645 5.829 1.131 8.687 1.996 3.303 1 5.996 1.857 9.06 2.866 2.733.823 4.931 1.312 7.672 1.783.945-2.711 1.729-4.98 2.779-7.471-2.184-.5-3.887-.897-6.285-1.631-3.032-.926-4.731-1.754-10.12-3.553-3.045-1.022-5.701-1.95-10.152-3.038-.755-.181-3.063-.474-5.373-.597-1.414-.058-1.633-.058-3.04 0Z" fill="#D00"/><path fill-rule="evenodd" clip-rule="evenodd" d="M318.582 326.71v.008c-2.528.043-4.306.248-8.081 1.059-6.251 1.454-11.713 3.592-15.308 4.575-2.116.535-3.943.913-5.987 1.317a58.87 58.87 0 0 0 2.169 5.79c.806 1.316 1.955 1.464 3.208 1.317 2.001-.307 3.646-.661 5.671-1.182 4.022-1.082 7.304-2.201 11.147-2.985 3.073-.558 5.509-.72 8.47-.806 2.962.086 5.398.248 8.471.806 3.843.784 7.129 1.903 11.151 2.985 2.025.521 3.67.875 5.671 1.182 1.253.147 2.402-.001 3.208-1.317a58.87 58.87 0 0 0 2.169-5.79c-2.044-.404-3.876-.782-5.991-1.317-3.595-.983-9.052-3.121-15.304-4.575-3.773-.811-5.555-1.016-8.081-1.059v-.008c-.497-.003-.863.004-1.294.004-.43 0-.793-.007-1.289-.004Z" fill="#FFC709"/><path d="M347.166 309.826c-.757 1.575-1.352 3.03-1.758 4.452" stroke="#FFC709" stroke-width="1.023"/><path fill-rule="evenodd" clip-rule="evenodd" d="M384.439 321.071c-3.927-.425-5.071-.533-8.318-1.073-3.046-.555-5.561-1.112-8.299-1.852-.829 1.233-1.601 2.417-2.459 3.64-.77 1.227-1.113 1.678-2.308 4.206 2.465.224 4.505.597 7.098.929 2.225.29 4.775.638 7.385.957 1-.98 1.764-1.782 2.853-2.91 1.33-1.338 2.343-2.381 4.048-3.897Zm-27.548-.838c3.952.833 4.441.913 7.408 1.873-1.507 2.623-2.352 5.1-3.401 7.279a331.075 331.075 0 0 0-7.539-1.616l1.494-3.206 2.038-4.33Z" fill="#D00"/><path fill-rule="evenodd" clip-rule="evenodd" d="M377.549 327.871c-2.415-.287-4.786-.617-7.245-.939-2.874-.385-4.809-.709-7.448-.972-.545 1.268-.826 1.949-1.472 3.373-.541 1.19-1.255 2.318-1.794 3.279 1.748.243 3.087.451 5.008.65 2.076.175 2.826.242 4.505.134 1.652-.149 2.86-.471 4.33-1.619.95-.766 2.462-2.305 4.116-3.906Zm-16.654 1.515a237.41 237.41 0 0 0-7.754-1.662c-.66 1.59-.918 2.315-1.481 3.954-.587 1.649-1.076 3.142-1.614 4.714 1.316.353 1.807.465 3.278.653 1.19.088 2.302-.038 3.162-.728.689-.496 1.669-2.003 2.592-3.616.697-1.241 1.179-1.996 1.817-3.315Z" fill="#FFC709"/><path d="M281.145 316.592c.628 1.747 1.996 3.974 2.888 5.852.379.725 1.607 3.292 2.498 5.64m-16.692-13.338c1.465 2.288 2.835 4.387 4.403 6.631 1.129 1.644 1.835 3.245 2.56 4.898m93.07-11.291c-1.465 2.287-2.802 4.149-4.369 6.393-1.13 1.644-1.836 3.245-2.56 4.898m-4.352-9.85c-.629 1.747-1.997 4.144-2.888 6.022-.38.725-1.608 3.292-2.499 5.64" stroke="#FFC709" stroke-width=".639"/><path d="M246.149 310.656c-.241.366-.081.926.105 1.263.158.288.682.972 1.39 1.071 5.354.211 8.799.142 14.331-.919 5.845-1.379 11.107-2.683 17.017-4.891 3.478-1.253 7.622-3.029 10.11-3.707 3.128-.841 6.186-1.369 7.275-.042.782 1.223-1.816 2.658-4.438 3.526-3.047.924-5.914 1.399-8.979 1.801-3.235.592-6.669 1.237-9.562 2.117-1.811.586-3.882 2.059-3.66 3.346.375 1.683 2.774 1.203 4.913.494l14.186-5.412c1.618-.591 3.353-.392 3.719.477.321.887.065 2.117-2.117 2.555l-6.791 1.146c-2.411.438-2.68 2.188-2.497 2.819.202.657 1.182 1.575 4.084.883 6.662-1.63 11.308-3.944 15.612-5.268 10.489-3.56 12.44-3.828 19.015-3.854 6.342.013 8.352.232 19.037 3.854 4.304 1.324 8.95 3.638 15.612 5.268 2.902.692 3.848-.328 4.05-.984.183-.632-.154-2.009-2.463-2.718l-6.791-1.146c-2.182-.438-2.437-1.668-2.117-2.555.366-.869 2.101-1.068 3.719-.477l14.186 5.412c2.139.709 4.64 1.257 5.015-.426.222-1.288-1.441-2.726-3.762-3.414-2.893-.88-6.327-1.525-9.562-2.117-3.065-.402-5.932-.877-8.979-1.801-2.622-.868-5.22-2.269-4.472-3.526 1.259-1.361 4.385-.833 7.309.042 2.488.678 6.632 2.454 10.11 3.707 5.911 2.208 11.172 3.512 17.017 4.891 5.532 1.061 8.977 1.13 14.331.919.708-.099 1.232-.783 1.39-1.071.186-.337.346-.897.105-1.263" stroke="#FFC709" stroke-width="1.023"/></g><defs><clipPath id="a"><path fill="#fff" d="M0 0h640v480H0z"/></clipPath></defs></svg>