<svg viewBox="0 0 640 480" fill="none" xmlns="http://www.w3.org/2000/svg">
<g clip-path="url(#clip0_21670_184502)">
<path d="M640 0H0V480H640V0Z" fill="#004A9C"/>
<path d="M640 138H0V342H640V138Z" fill="white"/>
<path fill-rule="evenodd" clip-rule="evenodd" d="M207.609 114.41C217.722 106.922 230.135 96.3242 255.664 92.8134C310.983 85.2057 431.265 93.6278 458.386 110.839C375.182 99.7282 349.562 106.564 326.649 115.204C295.957 111.482 265.164 107.8 207.609 114.41Z" fill="#FFCE18"/>
<path fill-rule="evenodd" clip-rule="evenodd" d="M344.108 118.775C437.784 88.494 578.178 157.672 586.949 171.946C569.174 162.632 550.96 153.975 529.016 150.916L550.84 160.042C547.38 160.135 532.788 155.715 512.032 152.417C476.706 150.905 449.752 143.571 434.238 137.472C390.344 120.215 346.463 119.234 344.108 118.775Z" fill="#FFCE18"/>
<path fill-rule="evenodd" clip-rule="evenodd" d="M260.383 130.084C278.122 109.946 301.29 119.197 313.355 127.505C311.512 127.658 298.909 122.464 292.127 127.703C286.029 132.413 283.476 132.338 280.487 129.707C274.493 124.429 266.068 131.396 260.383 130.084Z" fill="#FFCE18"/>
<path fill-rule="evenodd" clip-rule="evenodd" d="M254.035 147.741C182.757 104.608 108.667 143.804 106.426 207.658C120.92 179.944 144.404 166.316 190.547 179.088C199.825 158.493 224.745 150.432 254.035 147.741Z" fill="#FFCE18"/>
<path fill-rule="evenodd" clip-rule="evenodd" d="M201.658 187.421C234.88 156.712 284.384 161.617 320.69 181.122C383.357 214.788 449.672 302.222 454.418 335.03C439.714 314.815 403.913 271.279 386.963 269.161C381.99 268.54 416.959 295.19 423.865 303.683C406.793 294.16 374.155 280.968 351.251 271.542C322.174 259.576 308.601 251.042 279.034 224.323C252.662 200.492 225.285 189.06 201.658 187.421Z" fill="#FFCE18"/>
<path fill-rule="evenodd" clip-rule="evenodd" d="M83.8088 151.961L91.2578 174.884L115.361 174.885L95.8616 189.053L103.309 211.977L83.8088 197.81L64.3086 211.977L71.7559 189.053L52.2568 174.885L76.3597 174.884L83.8088 151.961Z" fill="#004A9C"/>
<path fill-rule="evenodd" clip-rule="evenodd" d="M234.194 237.669L241.644 260.592L265.746 260.593L246.247 274.761L253.695 297.685L234.194 283.518L214.694 297.685L222.142 274.761L202.643 260.593L226.745 260.592L234.194 237.669Z" fill="#004A9C"/>
<path fill-rule="evenodd" clip-rule="evenodd" d="M184.067 209.1L191.516 232.023L215.618 232.024L196.119 246.192L203.567 269.115L184.067 254.949L164.566 269.115L172.014 246.192L152.515 232.024L176.618 232.023L184.067 209.1Z" fill="#004A9C"/>
<path fill-rule="evenodd" clip-rule="evenodd" d="M133.938 180.531L141.387 203.454L165.49 203.454L145.991 217.623L153.438 240.546L133.938 226.379L114.438 240.546L121.885 217.623L102.386 203.454L126.489 203.454L133.938 180.531Z" fill="#004A9C"/>
<path d="M149.296 353.726L149.095 353.908C147.725 353.988 146.939 354.056 146.737 354.109C146.348 354.217 146.119 354.465 146.052 354.855C145.878 355.836 145.79 357.918 145.79 361.101V376.093C145.79 378.793 145.501 380.895 144.924 382.4C144.266 384.119 143.083 385.724 141.377 387.216C139.51 388.854 137.724 389.674 136.018 389.674C135.453 389.674 134.903 389.573 134.365 389.372C134.432 388.364 134.466 387.122 134.466 385.644L134.929 385.362C136.018 386.342 136.978 386.833 137.811 386.833C138.966 386.833 139.611 386.222 139.745 384.999C139.92 383.414 140.007 381.036 140.007 377.866V361.101C140.007 357.918 139.92 355.836 139.745 354.855C139.678 354.465 139.45 354.217 139.06 354.109C138.966 354.082 138.026 354.015 136.239 353.908L136.038 353.706V352.336L136.239 352.155C138.093 352.235 140.309 352.276 142.889 352.276C145.817 352.276 147.886 352.235 149.095 352.155L149.296 352.336V353.726ZM404.132 383.251L403.951 383.452C400.969 383.372 399.169 383.331 398.551 383.331C396.079 383.331 393.782 383.372 391.66 383.452L391.478 383.251V381.981L391.68 381.76L393.433 381.659C394.172 381.619 394.541 381.357 394.541 380.873C394.541 380.591 394.353 379.96 393.977 378.979L392.345 374.727C390.491 374.7 388.597 374.687 386.662 374.687C385.615 374.687 384.056 374.7 381.988 374.727L381.101 377.186C380.429 379.053 380.094 380.222 380.094 380.692C380.094 381.202 380.409 381.504 381.041 381.598C381.39 381.652 382.075 381.706 383.096 381.76L383.297 381.961V383.251L383.096 383.452C380.611 383.372 379.012 383.331 378.3 383.331C377.749 383.331 376.386 383.372 374.21 383.452L374.008 383.271V381.961L374.23 381.76C375.614 381.679 376.46 381.404 376.769 380.933C377.091 380.463 378.28 377.662 380.335 372.531L385.595 359.373C385.984 358.352 386.575 356.814 387.368 354.759H390.229L400.908 379.886C401.325 380.839 401.701 381.377 402.037 381.498C402.48 381.659 403.118 381.739 403.951 381.739L404.132 381.961V383.251ZM391.357 372.41L387.045 361.852L382.915 372.41C384.016 372.45 385.447 372.471 387.207 372.471C388.913 372.471 390.296 372.45 391.357 372.41ZM177.521 373.506C177.521 376.938 176.521 379.63 174.521 381.583C172.578 383.48 169.923 384.429 166.556 384.429C163.375 384.429 160.878 383.536 159.065 381.75C157.251 379.955 156.345 377.463 156.345 374.273C156.345 369.8 158.051 366.703 161.464 364.983C163.017 364.201 164.929 363.811 167.198 363.811C170.443 363.811 172.968 364.662 174.773 366.364C176.605 368.093 177.521 370.474 177.521 373.506ZM173.224 374.231C173.224 371.534 172.68 369.395 171.592 367.814C170.513 366.224 168.928 365.429 166.835 365.429C164.073 365.429 162.241 366.67 161.339 369.154C160.874 370.428 160.641 371.855 160.641 373.436C160.641 376.31 161.171 378.579 162.232 380.244C163.329 381.964 164.97 382.824 167.156 382.824C169.806 382.824 171.587 381.518 172.499 378.905C172.982 377.519 173.224 375.961 173.224 374.231ZM208.88 383.759L208.741 383.899C207.82 383.843 206.388 383.815 204.444 383.815C202.454 383.815 201.022 383.843 200.147 383.899L200.008 383.773V382.824L200.161 382.685C201.11 382.629 201.654 382.583 201.794 382.545C202.063 382.471 202.221 382.299 202.268 382.029C202.389 381.36 202.449 379.918 202.449 377.705V374.343C201.975 374.296 200.468 374.273 197.929 374.273C195.586 374.273 194.042 374.296 193.298 374.343V377.705C193.298 379.918 193.358 381.36 193.479 382.029C193.526 382.299 193.684 382.471 193.954 382.545C194.093 382.583 194.637 382.629 195.586 382.685L195.725 382.824V383.759L195.6 383.899C194.67 383.843 193.238 383.815 191.303 383.815C189.304 383.815 187.872 383.843 187.007 383.899L186.867 383.773V382.824L187.007 382.685C187.955 382.629 188.499 382.583 188.639 382.545C188.908 382.471 189.067 382.299 189.113 382.029C189.234 381.36 189.294 379.918 189.294 377.705V370.325C189.294 368.112 189.234 366.67 189.113 366.001C189.067 365.731 188.908 365.559 188.639 365.485C188.499 365.448 187.955 365.401 187.007 365.345L186.867 365.206V364.257L187.007 364.132C187.899 364.187 189.332 364.215 191.303 364.215C193.321 364.215 194.753 364.187 195.6 364.132L195.725 364.257V365.22L195.586 365.345C194.637 365.401 194.093 365.448 193.954 365.485C193.684 365.559 193.526 365.731 193.479 366.001C193.358 366.67 193.298 368.112 193.298 370.325V372.627C194.284 372.674 195.642 372.697 197.371 372.697C200.087 372.697 201.78 372.674 202.449 372.627V370.325C202.449 368.112 202.389 366.67 202.268 366.001C202.221 365.731 202.063 365.559 201.794 365.485C201.654 365.448 201.11 365.401 200.161 365.345L200.008 365.206V364.257L200.147 364.132C201.05 364.187 202.482 364.215 204.444 364.215C206.471 364.215 207.904 364.187 208.741 364.132L208.88 364.257V365.22L208.755 365.345C207.787 365.401 207.239 365.448 207.108 365.485C206.839 365.559 206.681 365.731 206.634 366.001C206.513 366.67 206.453 368.112 206.453 370.325V377.705C206.453 379.918 206.513 381.36 206.634 382.029C206.681 382.299 206.839 382.471 207.108 382.545C207.248 382.583 207.792 382.629 208.741 382.685L208.88 382.824V383.759ZM239.793 365.206L239.64 365.345C238.691 365.401 238.147 365.448 238.008 365.485C237.738 365.559 237.58 365.731 237.533 366.001C237.412 366.67 237.352 368.112 237.352 370.325V375.989C237.352 380.165 237.412 382.885 237.533 384.15L237.352 384.275C236.301 384.099 235.506 383.973 234.966 383.899C232.474 381.099 228.219 375.994 222.202 368.582V377.705C222.202 379.918 222.263 381.36 222.384 382.029C222.43 382.299 222.588 382.471 222.858 382.545C222.997 382.583 223.541 382.629 224.49 382.685L224.63 382.824V383.773L224.49 383.899C223.421 383.843 222.425 383.815 221.505 383.815C220.435 383.815 219.361 383.843 218.282 383.899L218.143 383.773V382.824L218.282 382.685C219.231 382.629 219.775 382.583 219.914 382.545C220.184 382.471 220.342 382.299 220.389 382.029C220.51 381.36 220.57 379.918 220.57 377.705V370.325C220.57 368.112 220.51 366.67 220.389 366.001C220.342 365.731 220.184 365.559 219.914 365.485C219.775 365.448 219.231 365.401 218.282 365.345L218.143 365.206V364.257L218.282 364.132C219.166 364.187 220.007 364.215 220.807 364.215C222.063 364.215 223.104 364.187 223.932 364.132C227.28 368.596 231.214 373.38 235.734 378.486V370.325C235.734 368.112 235.673 366.67 235.552 366.001C235.506 365.731 235.348 365.559 235.078 365.485C234.939 365.448 234.394 365.401 233.446 365.345L233.306 365.206V364.257L233.446 364.132C234.487 364.187 235.478 364.215 236.417 364.215C237.617 364.215 238.696 364.187 239.654 364.132L239.793 364.257V365.206ZM263.815 377.37C263.815 378.905 263.378 380.258 262.504 381.429C261.741 382.462 260.741 383.229 259.504 383.731C258.37 384.196 257.017 384.429 255.445 384.429C253.492 384.429 251.576 383.982 249.698 383.09L249.53 382.783C249.791 381.713 249.921 380.193 249.921 378.221L250.06 378.081H250.953L251.079 378.221V378.542C251.079 379.063 251.134 379.751 251.246 380.606C251.581 381.202 252.181 381.713 253.046 382.141C253.948 382.587 254.887 382.811 255.863 382.811C257.705 382.811 258.979 382.169 259.686 380.885C260.048 380.225 260.23 379.542 260.23 378.835C260.23 377.644 259.732 376.793 258.737 376.282C258.244 376.031 257.449 375.822 256.352 375.654C253.869 375.273 252.236 374.794 251.455 374.217C250.274 373.343 249.684 371.99 249.684 370.158C249.684 368.251 250.325 366.731 251.609 365.596C252.967 364.406 254.854 363.811 257.272 363.811C259.449 363.811 261.206 364.159 262.545 364.857L262.643 365.192C262.42 366.298 262.285 367.628 262.239 369.181L262.085 369.321H261.206L261.067 369.181C261.039 368.065 260.992 367.34 260.927 367.005C260.639 366.568 260.137 366.196 259.421 365.889C258.658 365.573 257.863 365.415 257.035 365.415C255.789 365.415 254.803 365.745 254.078 366.405C253.399 367.029 253.059 367.833 253.06 368.819C253.059 369.888 253.445 370.674 254.217 371.176C254.72 371.502 255.905 371.813 257.775 372.111C257.97 372.139 258.514 372.232 259.407 372.39C259.955 372.483 260.462 372.618 260.927 372.794C261.867 373.148 262.573 373.687 263.048 374.413C263.559 375.203 263.815 376.189 263.815 377.37ZM290.934 364.215C290.822 364.903 290.761 365.615 290.752 366.35L290.724 368.679L290.585 368.819H289.706L289.552 368.693C289.506 367.503 289.455 366.805 289.399 366.601C289.287 366.229 288.99 366.01 288.506 365.945C288.32 365.917 287.446 365.903 285.884 365.903H284.014C283.996 366.229 283.986 367.521 283.986 369.781V377.705C283.986 379.918 284.047 381.36 284.168 382.029C284.214 382.299 284.372 382.471 284.642 382.545C284.782 382.583 285.326 382.629 286.274 382.685L286.414 382.824V383.759L286.274 383.899C285.354 383.843 283.921 383.815 281.978 383.815C279.987 383.815 278.555 383.843 277.681 383.899L277.556 383.773V382.824L277.695 382.685C278.644 382.629 279.188 382.583 279.327 382.545C279.597 382.471 279.755 382.299 279.802 382.029C279.922 381.36 279.983 379.918 279.983 377.705V369.781C279.983 367.484 279.969 366.192 279.941 365.903H277.946C276.281 365.903 275.31 365.954 275.031 366.057C274.882 366.112 274.78 366.182 274.724 366.266C274.64 366.415 274.57 366.712 274.514 367.159C274.449 367.652 274.408 368.158 274.389 368.679L274.249 368.819H273.371L273.217 368.679L273.189 366.294C273.18 365.624 273.124 364.931 273.022 364.215L273.147 364.076C273.696 364.169 275.696 364.215 279.146 364.215H284.796C287.976 364.215 289.976 364.169 290.794 364.076L290.934 364.215ZM321.135 373.506C321.135 376.938 320.135 379.63 318.136 381.583C316.192 383.48 313.537 384.429 310.17 384.429C306.99 384.429 304.493 383.536 302.679 381.75C300.866 379.955 299.959 377.463 299.959 374.273C299.959 369.8 301.666 366.703 305.079 364.983C306.632 364.201 308.543 363.811 310.812 363.811C314.058 363.811 316.583 364.662 318.387 366.364C320.219 368.093 321.135 370.474 321.135 373.506ZM316.839 374.231C316.839 371.534 316.294 369.395 315.206 367.814C314.128 366.224 312.542 365.429 310.449 365.429C307.687 365.429 305.855 366.67 304.953 369.154C304.488 370.428 304.256 371.855 304.256 373.436C304.256 376.31 304.786 378.579 305.846 380.244C306.943 381.964 308.585 382.824 310.77 382.824C313.421 382.824 315.202 381.518 316.113 378.905C316.597 377.519 316.839 375.961 316.839 374.231ZM352.467 365.206L352.313 365.345C351.365 365.401 350.821 365.448 350.681 365.485C350.411 365.559 350.253 365.731 350.207 366.001C350.086 366.67 350.025 368.112 350.025 370.325V375.989C350.025 380.165 350.086 382.885 350.207 384.15L350.025 384.275C348.975 384.099 348.179 383.973 347.64 383.899C345.148 381.099 340.893 375.994 334.876 368.582V377.705C334.876 379.918 334.936 381.36 335.057 382.029C335.104 382.299 335.262 382.471 335.531 382.545C335.671 382.583 336.215 382.629 337.164 382.685L337.303 382.824V383.773L337.164 383.899C336.094 383.843 335.099 383.815 334.178 383.815C333.109 383.815 332.035 383.843 330.956 383.899L330.816 383.773V382.824L330.956 382.685C331.904 382.629 332.448 382.583 332.588 382.545C332.858 382.471 333.016 382.299 333.062 382.029C333.183 381.36 333.244 379.918 333.244 377.705V370.325C333.244 368.112 333.183 366.67 333.062 366.001C333.016 365.731 332.858 365.559 332.588 365.485C332.448 365.448 331.904 365.401 330.956 365.345L330.816 365.206V364.257L330.956 364.132C331.839 364.187 332.681 364.215 333.481 364.215C334.736 364.215 335.778 364.187 336.606 364.132C339.954 368.596 343.887 373.38 348.407 378.486V370.325C348.407 368.112 348.347 366.67 348.226 366.001C348.179 365.731 348.021 365.559 347.752 365.485C347.612 365.448 347.068 365.401 346.119 365.345L345.98 365.206V364.257L346.119 364.132C347.161 364.187 348.151 364.215 349.091 364.215C350.29 364.215 351.369 364.187 352.327 364.132L352.467 364.257V365.206ZM429.01 364.215C428.898 364.903 428.838 365.615 428.828 366.35L428.801 368.679L428.661 368.819H427.782L427.629 368.693C427.582 367.503 427.531 366.805 427.475 366.601C427.364 366.229 427.066 366.01 426.583 365.945C426.397 365.917 425.522 365.903 423.96 365.903H422.091C422.072 366.229 422.063 367.521 422.063 369.781V377.705C422.063 379.918 422.123 381.36 422.244 382.029C422.291 382.299 422.449 382.471 422.718 382.545C422.858 382.583 423.402 382.629 424.351 382.685L424.49 382.824V383.759L424.351 383.899C423.43 383.843 421.998 383.815 420.054 383.815C418.064 383.815 416.632 383.843 415.757 383.899L415.632 383.773V382.824L415.771 382.685C416.72 382.629 417.264 382.583 417.403 382.545C417.673 382.471 417.831 382.299 417.878 382.029C417.999 381.36 418.059 379.918 418.059 377.705V369.781C418.059 367.484 418.045 366.192 418.017 365.903H416.022C414.358 365.903 413.386 365.954 413.107 366.057C412.958 366.112 412.856 366.182 412.8 366.266C412.716 366.415 412.647 366.712 412.591 367.159C412.526 367.652 412.484 368.158 412.465 368.679L412.326 368.819H411.447L411.293 368.679L411.266 366.294C411.256 365.624 411.2 364.931 411.098 364.215L411.224 364.076C411.772 364.169 413.772 364.215 417.222 364.215H422.872C426.052 364.215 428.052 364.169 428.87 364.076L429.01 364.215ZM459.211 373.506C459.211 376.938 458.212 379.63 456.212 381.583C454.268 383.48 451.613 384.429 448.247 384.429C445.066 384.429 442.569 383.536 440.756 381.75C438.942 379.955 438.035 377.463 438.035 374.273C438.035 369.8 439.742 366.703 443.155 364.983C444.708 364.201 446.619 363.811 448.889 363.811C452.134 363.811 454.659 364.662 456.463 366.364C458.295 368.093 459.211 370.474 459.211 373.506ZM454.915 374.231C454.915 371.534 454.371 369.395 453.283 367.814C452.204 366.224 450.618 365.429 448.526 365.429C445.764 365.429 443.932 366.67 443.03 369.154C442.565 370.428 442.332 371.855 442.332 373.436C442.332 376.31 442.862 378.579 443.922 380.244C445.02 381.964 446.661 382.824 448.847 382.824C451.497 382.824 453.278 381.518 454.189 378.905C454.673 377.519 454.915 375.961 454.915 374.231ZM483.917 379.156C483.712 380.513 483.61 382.048 483.61 383.759L483.47 383.899L473.329 383.815C471.636 383.815 470.441 383.843 469.744 383.899L469.604 383.759V383.369L469.674 383.201C470.362 382.764 470.734 382.49 470.79 382.378C470.874 382.211 470.925 381.592 470.943 380.523L470.985 377.398V370.325C470.985 368.112 470.925 366.67 470.804 366.001C470.757 365.731 470.599 365.559 470.33 365.485C470.19 365.448 469.646 365.401 468.697 365.345L468.558 365.206V364.257L468.697 364.132C469.655 364.187 471.06 364.215 472.91 364.215C474.826 364.215 476.281 364.187 477.277 364.132L477.416 364.257V365.22L477.277 365.345C476.328 365.401 475.784 365.448 475.644 365.485C475.375 365.559 475.217 365.731 475.17 366.001C475.049 366.67 474.989 368.112 474.989 370.325V378.667C474.989 379.886 475.012 381.067 475.059 382.211H476.956C479.671 382.211 481.336 382.104 481.95 381.89C482.052 381.853 482.126 381.801 482.173 381.736C482.266 381.606 482.354 381.327 482.438 380.899L482.773 379.17L482.912 379.016H483.763L483.917 379.156ZM508.371 379.156C508.166 380.513 508.064 382.048 508.064 383.759L507.925 383.899L497.783 383.815C496.09 383.815 494.895 383.843 494.198 383.899L494.058 383.759V383.369L494.128 383.201C494.816 382.764 495.188 382.49 495.244 382.378C495.328 382.211 495.379 381.592 495.398 380.523L495.439 377.398V370.325C495.439 368.112 495.379 366.67 495.258 366.001C495.212 365.731 495.053 365.559 494.784 365.485C494.644 365.448 494.1 365.401 493.152 365.345L493.012 365.206V364.257L493.152 364.132C494.109 364.187 495.514 364.215 497.364 364.215C499.28 364.215 500.736 364.187 501.731 364.132L501.87 364.257V365.22L501.731 365.345C500.782 365.401 500.238 365.448 500.099 365.485C499.829 365.559 499.671 365.731 499.624 366.001C499.503 366.67 499.443 368.112 499.443 370.325V378.667C499.443 379.886 499.466 381.067 499.513 382.211H501.41C504.126 382.211 505.79 382.104 506.404 381.89C506.506 381.853 506.581 381.801 506.627 381.736C506.72 381.606 506.809 381.327 506.892 380.899L507.227 379.17L507.367 379.016H508.217L508.371 379.156Z" fill="#FFCE18"/>
</g>
</svg>
