<svg viewBox="0 0 640 480" fill="none" xmlns="http://www.w3.org/2000/svg">
<g clip-path="url(#clip0_21670_184517)">
<path d="M640 0H0V295H640V0Z" fill="#227ADC"/>
<path d="M640 330H0V480H640V330Z" fill="#01A9CD"/>
<path d="M640 295H0V330H640V295Z" fill="white"/>
<path d="M294.611 128.25C294.611 130.397 304.135 127.762 310.389 129.35C312.998 130.012 314.121 134.863 316.683 137.318C321.955 142.371 341.056 158.633 335.713 166.58C327.99 178.067 309.895 186.49 289.434 193.633C278.297 197.521 266.036 198.919 255.339 205.081C235.307 216.621 213.899 255.52 215.287 261.75C216.199 265.843 224.9 256.193 236.252 248.409C243.342 243.547 248.722 236.951 258.797 232.518C272.793 226.36 287.819 225.413 303.023 220.17C330.082 210.84 354.851 198.472 362.367 194.198C366.588 197.464 374.913 205.317 382.874 211.053C390.886 216.826 391.731 215.828 395.473 219.95C398.137 222.885 401.335 227.316 403.384 230.08C411.186 240.607 416.594 246.842 423.813 243.563C427.641 241.824 424.265 231.878 420.03 224.018C417.616 219.538 414.518 216.241 413.335 214.257C410.222 209.037 400.997 202.175 397.649 190.927C394.576 180.603 390.592 177.64 390.201 171.761C389.374 159.364 417.313 135.654 431.678 122.326C450.656 104.719 462.73 84.7538 467.528 81.3007C478.626 73.3124 488.261 67.7886 500.391 62.9011C512.282 58.1103 514.554 51.6262 514.554 50.2501C514.554 48.7927 489.398 53.5708 473.121 55.1175C457.168 56.6335 453.112 63.7788 446.586 70.3189C431.669 85.268 415.433 101.418 396.603 118.818C380.612 133.594 364.728 138.466 359.518 138.466C349.739 138.466 341.525 126.926 331.591 122.299C322.651 118.134 310.078 120.809 302.121 120.433C294.337 120.066 294.611 125.201 294.611 128.25Z" fill="#4E4418"/>
<path d="M311.875 123.586C311.788 125.053 311.341 127.298 308.092 126.797C308.102 124.977 312.21 128.789 317.183 135.41C324.487 145.134 336.228 151.911 339.672 165.586C355.136 187.146 374.531 202.751 394.864 215.707C402.619 220.649 408.496 241.547 420.019 243.082C417.288 239.875 410.129 234.333 402.207 221.65C402.878 221.356 401.984 221.564 403.002 221.162C411.701 234.547 419.636 242.337 421.86 242.279C423.289 242.242 405.082 223.181 404.233 220.64C404.715 220.407 404.644 220.374 405.378 220.558C405.946 221.46 419.343 239.166 422.875 241.072C425.085 242.264 408.607 222.992 406.776 220.118C407.085 220.211 406.2 220.482 407.369 220.193C411.241 223.976 425.725 244.31 423.991 239.203C423.23 236.962 410.391 222.283 408.808 219.205C409.098 219.044 409.203 218.934 409.844 218.539C410.916 220.296 421.668 234.881 423.913 237.202C423.709 232.176 412.688 218.167 412.064 217.361C405.237 208.541 397.197 198.107 394.179 186.445C385.25 171.426 375.989 152.958 361.371 146.531C357.96 145.824 348.804 148.366 353.475 143.027C355.351 141.326 366.296 143.544 355.399 139.922C342.876 132.89 331.034 119.114 316.153 122.385C310.866 123.027 313.355 123.571 311.875 123.586Z" fill="#E8D2D2"/>
<path d="M385.383 200.532C392.773 206.28 410.817 215.522 410.194 214.716C403.366 205.896 397.196 198.107 394.178 186.445C388.676 177.191 381.968 164.868 374.4 156.513C369.686 151.309 363.755 147.959 360.275 146.885C359.397 146.615 355.463 147.755 353.095 146.242C350.527 144.6 346.54 143.403 345.094 148.41C344.369 150.92 349.784 162.575 358.278 173.786C365.954 183.918 376.22 193.404 385.383 200.532Z" fill="white"/>
<path d="M315.568 132.961C318.198 135.073 315.056 128.718 317.784 130.723C321.493 133.448 326.718 137.677 338.395 143.946C346.394 148.24 350.171 137.158 346.949 134.778C335.405 126.247 331.034 119.114 316.152 122.385C310.866 123.026 310.763 129.103 315.568 132.961Z" fill="white"/>
<path d="M295.214 127.712C295.214 128.095 299.358 129.527 299.35 126.901C299.343 124.463 301.526 124.169 303.021 124.137C305.932 124.074 310.771 123.189 310.771 125.399C308.354 125.399 301.274 124.321 301.274 126.774C301.274 128.234 309.21 127.781 310.303 128.058C312.911 128.721 315.285 124.36 313.987 122.429C312.767 120.615 303.397 121.364 299.932 121.364C296.38 121.364 295.214 124.663 295.214 127.712Z" fill="#F9B127" stroke="#4E4418" stroke-width="0.624863"/>
<path d="M319.644 122.48C319.304 123.623 318.494 123.851 318.202 125.309C317.889 126.869 317.511 127.11 320.057 127.11C321.109 127.11 321.85 126.097 322.324 125.309C323.261 123.749 322.311 123.115 321.293 122.48C320.569 122.028 320.523 122.261 319.644 122.48Z" fill="black" stroke="black" stroke-width="1.87647"/>
<path d="M222.498 250.688C223.474 248.344 226.629 244.031 228.807 241.875C230.986 239.719 232.188 239.719 231.211 242.063C230.235 244.406 227.08 249.094 224.901 251.25C222.723 253.406 221.521 253.031 222.498 250.688Z" fill="white"/>
<path d="M228.352 238.593C228.587 238.839 228.536 239.47 228.21 240.347C227.884 241.224 227.31 242.276 226.614 243.271C225.918 244.266 225.157 245.122 224.498 245.652C223.84 246.182 223.338 246.341 223.103 246.095C222.868 245.849 222.919 245.218 223.245 244.34C223.571 243.463 224.145 242.411 224.842 241.416C225.538 240.421 226.299 239.565 226.957 239.035C227.616 238.506 228.117 238.347 228.352 238.593Z" fill="white"/>
<path d="M234.061 242.53C234.296 242.776 234.245 243.407 233.919 244.285C233.593 245.162 233.019 246.214 232.323 247.209C231.627 248.204 230.866 249.06 230.207 249.589C229.549 250.119 229.047 250.278 228.812 250.032C228.577 249.786 228.628 249.155 228.954 248.278C229.28 247.401 229.854 246.349 230.551 245.354C231.247 244.359 232.008 243.503 232.666 242.973C233.325 242.443 233.826 242.284 234.061 242.53Z" fill="white"/>
<path d="M245.752 237.458C245.859 237.737 245.656 238.155 245.188 238.618C244.72 239.082 244.025 239.553 243.257 239.929C242.488 240.305 241.708 240.555 241.09 240.623C240.471 240.691 240.063 240.572 239.956 240.292C239.849 240.013 240.052 239.595 240.52 239.132C240.988 238.668 241.683 238.196 242.452 237.821C243.22 237.445 244 237.195 244.619 237.127C245.238 237.059 245.645 237.178 245.752 237.458Z" fill="white"/>
<path d="M232.413 233.25C228.131 239.25 235.753 237.98 239.774 235.875C244.432 233.437 244.64 231.98 250.065 229.5C255.399 227.062 260.24 225.058 261.483 224.531C262.702 224.015 262.41 221.622 263.5 221.421C264.67 221.205 264.415 223.529 265.151 223.508C266.444 223.471 265.772 220.171 266.852 220.208C267.568 220.232 267.752 223.731 269.366 223.48C271.047 223.217 269.16 220.061 270.306 219.944C271.366 219.836 271.257 223.096 272.365 222.869C273.472 222.642 271.9 219.55 273.069 219.324C273.969 219.149 273.562 222.725 275.577 221.99C276.118 221.793 275.492 219.163 276.416 219.032C276.921 218.96 278.705 221.457 279.69 221.416C280.734 221.374 279.884 216.761 280.263 216.656C280.96 216.463 282.521 220.28 283.468 219.704C284.396 219.139 284.261 215.675 284.908 215.873C286.055 216.224 286.096 219.3 287.371 218.8C287.932 218.581 287.31 215.509 287.901 215.078C288.576 214.586 289.347 216.451 290.861 216.127C291.388 216.014 291.055 213.217 291.742 212.654C292.08 212.377 292.725 214.827 293.411 215.624C293.829 216.109 294.144 212.397 294.532 212.271C294.823 212.177 295.206 215.701 295.421 215.717C296.241 215.776 296.045 212.32 296.552 212.169C299.011 211.44 297.744 214.643 298.389 214.546C299.98 214.307 299.216 211.83 299.82 211.67C300.536 211.48 300.66 214.307 302.269 213.99C302.534 213.938 302.522 211.037 303.057 210.765C303.615 210.482 304.725 212.831 305.078 212.083C305.58 211.021 305.121 208.807 305.879 208.51C306.587 208.233 307.531 212.044 308.724 211.794C309.918 211.544 309.201 209.165 310.224 208.58C312.057 207.531 317.417 209.572 317.446 207C317.463 205.504 303.698 202.22 296.602 202.262C294.252 202.276 294.797 204.447 293.946 204.406C292.317 204.327 291.511 200.818 291.165 200.858C289.199 201.082 291.829 205.716 290.792 205.777C290.004 205.823 288.253 201.68 287.774 202.207C287.035 203.018 287.648 206.224 286.752 206.524C286.285 206.681 284.697 202.551 284.345 202.85C283.092 203.914 284.507 207.876 283.273 208.172C281.848 208.513 281.017 203.928 279.961 204.46C278.431 205.232 280.144 207.561 278.882 207.841C277.511 208.145 277.777 203.644 276.806 204.178C275.155 205.087 277.469 208.837 276.289 209.087C274.222 209.526 275.105 204.33 274.218 204.776C271.633 206.075 273.859 207.6 273.648 209.782C271.442 210.138 269.87 205.497 269.341 206.226C268.558 207.306 269.266 208.812 269.472 211.572C267.645 212.26 265.503 207.274 264.804 207.946C263.544 209.158 265.018 211.913 265.551 213.6C263.633 214.864 262.981 209.221 261.898 209.965C260.815 210.709 261.285 214.755 261.465 216.265C259.651 213.691 259.058 211.477 257.105 212.145C255.198 212.797 258.379 219.159 258.69 221.039C257.343 221.919 254.176 214.93 252.985 215.773C251.794 216.615 252.06 216.309 255.06 224.937C251.957 223.998 250.893 218.453 249.637 219.236C248.382 220.02 249.736 225.529 249.893 226.847C249.125 226.796 248.174 227.774 247.966 226.344C247.453 222.823 246.291 221.193 246.015 221.281C244.193 221.862 244.669 227.84 244.721 230.42C243.389 231.939 242.6 224.972 242.409 225.13C241.436 225.931 241.839 229.61 242.035 232.305C238.918 232.759 238.649 226.563 237.91 227.674C236.46 229.851 237.971 233.555 237.037 234.142C236.476 234.494 235.509 232.576 234.414 232.126C233.684 231.827 232.731 232.805 232.413 233.25Z" fill="white"/>
<path d="M321.062 191.936C321.922 191.036 322.421 196.461 324.005 195.019C325.59 193.577 321.911 190.706 323.908 189.302C326.018 187.819 324.525 193.872 328.148 193.871C328.431 193.871 326.503 188.241 327.199 187.924C329.087 187.065 330.895 194.679 331.084 193.874C331.545 191.915 330.504 185.764 331.125 185.749C332.014 185.727 333.537 194.096 333.822 193.056C334.361 191.088 331.999 184.858 333.607 184.029C334.346 183.647 335.773 191.24 337.682 192.502C338.947 193.338 334.575 184.237 336.381 182.778C336.813 182.429 339.365 191.211 339.681 191.191C340.368 191.148 336.804 182.719 337.938 181.86C338.841 181.176 341.702 189.321 342.706 187.731C343.16 187.011 339.857 183.489 339.964 181.609C340.007 180.861 342.989 183.533 342.812 182.588C342.645 181.697 340.457 177.569 341.148 176.899C342.381 175.704 345.823 181.941 345.665 181.151C345.148 178.564 340.85 172.459 341.361 172.733C347.494 176.021 355.951 189.366 356.512 190.39C356.56 190.477 353.646 192.379 352.57 192.063C351.367 191.71 351.935 189.148 350.897 189.529C349.62 189.998 350.311 193.142 349.155 193.011C347.597 192.835 348.124 189.125 346.511 189.706C345.602 190.034 345.41 193.932 344.529 194.663C343.228 195.743 341.973 196.332 340.253 196.801C338.271 197.342 339.354 194.371 337.295 195.252C336.735 195.491 338.497 197.518 337.826 198.158C336.08 199.826 335.489 196.996 334.531 197.358C333.494 197.748 333.958 200.755 332.055 201.132C330.01 201.536 329.214 198.756 328.234 199.597C326.787 200.837 326.645 203.583 325.568 204.047C324.401 204.548 324.951 199.968 323.924 200.694C323.221 201.191 322.853 203.739 322.232 204.344C319.802 206.712 317.586 207.561 317.436 207.262C316.581 205.554 319.217 205.835 320.697 202.053C321.777 199.294 320.203 192.836 321.062 191.936Z" fill="#E8D2D2"/>
<path d="M383.933 163.137C389.135 155.985 389.787 155.787 391.762 152.311C388.235 148.306 384.339 141.375 378.856 140.604C376.904 140.33 388.613 150.352 387.108 151.143C386.031 151.709 377.571 140.957 375.965 142.295C374.705 143.343 385.191 152.806 384.33 153.414C383.798 153.79 374.33 141.601 373.576 143.039C373.113 143.924 382.327 155.297 381.811 155.497C381.085 155.779 374.128 145.306 372.597 146.632C371.348 147.713 380.197 156.288 379.694 156.505C378.164 157.166 371.227 146.672 370.604 147.734C368.017 152.144 379.085 157.35 383.933 163.137Z" fill="#E8D2D2"/>
<path d="M404.257 126.997C403.734 127.285 402.213 123.032 401.819 124.38C401.496 125.488 403.417 128.137 403.026 128.435C402.565 128.787 400.322 125.378 399.877 125.688C398.991 126.304 402.113 129.018 401.321 129.729C400.529 130.441 399.545 126.076 398.52 127.697C397.525 129.271 400.376 131.82 399.587 132.927C399.033 133.705 397.777 129.967 396.637 131.562C395.533 133.105 398.984 135.569 398.439 136.288C396.927 138.285 396.363 132.739 395.028 134.863C394.31 136.005 396.337 137.526 395.548 138.381C394.535 139.48 392.447 133.856 390.84 135.462C389.303 136.998 393.859 140.24 393.23 140.97C392.675 141.613 389.082 137.528 388.65 138.106C387.391 139.791 391.029 144.366 390.274 144.097C388.348 143.412 385.742 138.018 384.525 139.041C383.343 140.036 389.278 147.088 390.013 148.254C392.194 151.713 394.307 150.639 395.17 149.696C395.392 149.454 392.586 145.78 393.619 144.867C394.958 143.681 394.764 149.374 396.574 147.798C398.384 146.222 393.872 144.367 396.266 142.275C396.636 141.951 398.307 146.025 399.673 145.056C401.024 144.099 397.679 141.613 398.81 140.745C399.333 140.342 401.407 144.297 402.214 143.429C402.892 142.7 400.894 139.016 401.178 138.569C401.429 138.176 403.991 140.991 404.132 140.794C405.251 139.24 402.461 136.155 403.775 135.078C404.619 134.386 405.57 139.825 406.862 138.821C408.154 137.818 406.033 135.821 407.08 134.816C408.128 133.81 409.081 137.099 410.729 135.702C413.206 133.601 414.618 132.298 414.657 132.264C415.065 131.91 411.893 128.403 408.74 126.62C407.733 126.051 405.189 123.661 404.449 123.825C403.655 124 404.687 126.76 404.257 126.997Z" fill="white"/>
<path d="M419.762 127.213C419.762 127.213 421.598 125.092 425.465 120.846C425.857 120.416 427.378 120.679 427.726 119.867C428.007 119.212 427.105 117.465 427.477 117.127C428.159 116.508 429.976 117.936 430.652 117.426C432.377 116.121 429.366 115.945 430.338 114.977C430.859 114.457 431.853 116.15 433.093 115.658C433.793 115.379 431.122 113.635 431.804 112.892C432.272 112.381 434.612 114.183 435.621 113.897C436.543 113.636 434.439 111.07 434.833 110.127C435.519 108.481 439.57 109.232 441.583 107.218C442.656 106.144 444.331 102.101 447.609 97.4844C448.803 95.8026 451.07 95.7323 452.563 94.0141C454.744 91.5038 456.211 87.3908 458.01 85.4112C459.563 83.7023 462.001 83.3149 463.482 81.9703C468.634 77.2897 472.196 73.5178 474.24 71.6916C479.295 67.1755 481.023 63.9799 482.992 60.3936C480.905 56.2448 479.23 54.9045 476.419 56.7057C473.726 58.4311 477.341 63.2715 475.946 64.3173C475.624 64.5585 474.269 60.8702 473.592 61.5236C472.935 62.1566 472.961 67.1412 472.354 66.8147C471.487 66.3473 471.016 62.3287 470.686 62.937C470.029 64.1479 470.539 69.4172 469.746 69.8486C468.908 70.3044 466.677 67.335 466.454 67.9447C465.914 69.4279 467.948 72.8845 466.926 72.8286C465.668 72.7597 463.392 68.144 462.896 68.8688C462.066 70.0822 464.627 74.4473 463.639 74.4147C462.246 74.3687 459.231 68.8115 458.308 69.4051C456.888 70.3184 458.887 75.3001 457.566 75.476C455.392 75.7653 454.044 71.689 451.326 73.5235C448.52 75.4181 454.768 79.5521 454.124 80.2074C452.899 81.4548 449.477 76.0248 447.951 77.0093C447.72 77.158 448.899 81.2894 448.389 81.4473C447.849 81.6146 446.66 77.9201 446.251 78.7695C445.667 79.9831 445.882 83.4106 445.247 83.7372C444.217 84.2671 443.106 80.2792 442.545 81.163C442.084 81.8895 443.367 84.2056 442.975 84.857C442.538 85.5829 441.782 83.436 441.473 84.329C441.358 84.6592 441.419 87.4758 441.184 87.7361C440.472 88.5244 438.753 87.564 437.904 88.0406C437.083 88.5014 437.501 91.0434 436.913 91.9209C436.298 92.8376 434.681 92.1006 434.003 93.0634C433.331 94.0182 433.651 95.7431 433.015 96.733C432.461 97.5953 430.947 97.719 430.43 98.6006C430.144 99.0876 429.999 102.337 429.295 103.309C428.472 104.445 427.078 103.363 426.724 104.678C426.304 106.236 427.174 109.111 425.819 111.248C422.379 116.674 419.762 127.213 419.762 127.213Z" fill="white"/>
<path d="M493.794 55.7451C493.781 56.0287 493.36 56.2711 492.624 56.419C491.888 56.5669 490.897 56.6082 489.87 56.5337C488.842 56.4592 487.862 56.2751 487.145 56.0219C486.427 55.7687 486.032 55.4671 486.045 55.1835C486.058 54.8998 486.479 54.6574 487.215 54.5095C487.951 54.3616 488.942 54.3203 489.969 54.3948C490.997 54.4693 491.977 54.6534 492.695 54.9066C493.412 55.1598 493.807 55.4614 493.794 55.7451Z" fill="white"/>
<path d="M491.86 59.1904C491.86 59.4745 491.498 59.747 490.854 59.9479C490.21 60.1488 489.337 60.2616 488.426 60.2616C487.516 60.2616 486.643 60.1488 485.999 59.9479C485.355 59.747 484.993 59.4745 484.993 59.1904C484.993 58.9063 485.355 58.6338 485.999 58.4329C486.643 58.232 487.516 58.1191 488.426 58.1191C489.337 58.1191 490.21 58.232 490.854 58.4329C491.498 58.6338 491.86 58.9063 491.86 59.1904Z" fill="white"/>
<path d="M490.796 62.4241C490.809 62.5516 490.754 62.6883 490.633 62.8264C490.513 62.9644 490.33 63.101 490.094 63.2284C489.859 63.3558 489.575 63.4715 489.261 63.5688C488.946 63.6662 488.606 63.7433 488.26 63.7957C487.914 63.8482 487.569 63.8749 487.245 63.8745C486.921 63.874 486.624 63.8463 486.371 63.793C486.118 63.7397 485.914 63.6618 485.77 63.5638C485.627 63.4658 485.547 63.3496 485.535 63.2218C485.522 63.0943 485.577 62.9576 485.698 62.8195C485.818 62.6815 486.001 62.5449 486.237 62.4175C486.472 62.2901 486.756 62.1744 487.07 62.0771C487.385 61.9797 487.725 61.9026 488.071 61.8502C488.417 61.7977 488.761 61.771 489.086 61.7714C489.41 61.7719 489.707 61.7996 489.96 61.8529C490.213 61.9062 490.417 61.9841 490.561 62.0821C490.704 62.1801 490.784 62.2963 490.796 62.4241Z" fill="white"/>
</g>

</svg>
