<svg viewBox="0 0 640 480" fill="none" xmlns="http://www.w3.org/2000/svg">
<g clip-path="url(#clip0_21670_184632)">
<path d="M0 480H640V0H0V480Z" fill="#0099FF"/>
<path d="M432.494 161.536L521.59 250.631L462.193 310.028L373.097 220.933L432.494 161.536Z" fill="#00247D"/>
<path d="M510.849 239.89L380.259 213.771L373.097 220.933L383.838 231.674L514.428 257.793L521.59 250.631L510.849 239.89ZM432.494 161.536L425.332 168.697L451.452 299.287L462.193 310.028L469.354 302.866L443.235 172.277L432.494 161.536Z" fill="white"/>
<path d="M432.494 161.536L427.745 166.284L440.222 228.66L447.343 235.782L373.097 220.933L380.219 228.054L442.595 240.531L447.343 235.782L462.193 310.028L466.941 305.279L454.465 242.903L447.343 235.782L521.59 250.631L514.468 243.51L452.092 231.033L447.343 235.782L432.494 161.536Z" fill="#CF142B"/>
<path d="M412.695 181.335L392.896 201.134L481.992 290.229L501.791 270.43L412.695 181.335ZM467.142 196.184L407.745 255.581L427.544 275.38L486.941 215.983L467.142 196.184Z" fill="white"/>
<path d="M408.736 185.294L497.832 274.39L485.952 286.269L396.857 197.174L408.736 185.294Z" fill="#CF142B"/>
<path d="M471.103 200.144L482.982 212.023L423.585 271.42L411.706 259.541L471.103 200.144Z" fill="#CF142B"/>
<path d="M207.506 161.595L118.41 250.691L177.807 310.088L266.903 220.992L207.506 161.595Z" fill="white"/>
<path d="M148.108 220.992L118.41 250.691L177.807 310.088L207.505 280.389L148.108 220.992Z" fill="#ED2939"/>
<path d="M207.506 161.595L177.807 191.294L237.204 250.691L266.903 220.992L207.506 161.595Z" fill="#002395"/>
<path d="M432.648 145.827L444.345 157.33C445.505 158.49 445.505 160.327 444.345 161.39L443.669 162.067C442.509 163.227 440.672 163.227 439.608 162.067L436.128 158.684L263.285 333.944C261.932 335.297 259.805 335.297 258.548 333.944C257.195 332.591 257.195 330.464 258.548 329.207L431.295 154.044L427.815 150.66C426.655 149.5 426.655 147.664 427.815 146.6L428.492 145.924C429.652 144.763 431.488 144.763 432.648 145.827Z" fill="white"/>
<path d="M207.352 145.875L195.655 157.475C194.495 158.635 194.495 160.472 195.655 161.535L196.332 162.212C197.492 163.372 199.329 163.372 200.392 162.212L203.872 158.829L376.715 333.896C378.069 335.249 380.196 335.249 381.452 333.896C382.709 332.542 382.806 330.415 381.452 329.159L208.609 154.092L212.089 150.709C213.249 149.549 213.249 147.712 212.089 146.649L211.412 145.972C210.252 144.812 208.415 144.812 207.352 145.875Z" fill="white"/>
</g>

</svg>
