<svg viewBox="0 0 640 480" fill="none" xmlns="http://www.w3.org/2000/svg">
<g clip-path="url(#clip0_175_8)">
<path d="M640 0H0V480H640V0Z" fill="#6B86BD"/>
<path d="M320 105.685L309.591 137.72L325.609 142.925L320 105.685Z" fill="white"/>
<path d="M320 105.685L330.409 137.72L314.391 142.925L320 105.685Z" fill="white"/>
<path d="M352.036 128.96L319.554 131.601L318.351 145.802L352.036 128.96Z" fill="white"/>
<path d="M352.036 127.454L323.668 148.759L314.885 136.639L352.036 127.454Z" fill="white"/>
<path d="M287.964 127.454L316.333 148.759L325.115 136.639L287.964 127.454Z" fill="white"/>
<path d="M287.964 128.96L320.446 131.601L321.649 145.802L287.964 128.96Z" fill="white"/>
<path d="M339.799 165.85L330.504 134.584L313.372 140.559L339.799 165.85Z" fill="white"/>
<path d="M339.04 166.62L312.548 147.709L323.207 133.195L339.04 166.62Z" fill="white"/>
<path d="M300.96 166.62L327.452 147.709L316.793 133.195L300.96 166.62Z" fill="white"/>
<path d="M300.201 165.85L309.496 134.584L326.628 140.559L300.201 165.85Z" fill="white"/>
<path d="M437.957 173.053L403.737 181.973L405.968 196.53L437.957 173.053Z" fill="white"/>
<path d="M436.686 171.709L412.892 198.086L401.63 188.16L436.686 171.709Z" fill="white"/>
<path d="M432.546 211.343L416.94 183.263L401.119 192.777L432.546 211.343Z" fill="white"/>
<path d="M431.561 212.435L401.774 200.228L409.61 183.348L431.561 212.435Z" fill="white"/>
<path d="M402.268 156.947L396.99 191.682L411.982 192.207L402.268 156.947Z" fill="white"/>
<path d="M401.829 156.947L417.353 184.988L401.449 194.54L401.829 156.947Z" fill="white"/>
<path d="M393.309 220.668L416.353 194.936L404.341 184.366L393.309 220.668Z" fill="white"/>
<path d="M393.814 221.41L398.177 187.168L414.084 188.186L393.814 221.41Z" fill="white"/>
<path d="M374.014 187.848L404.207 200.075L411.637 183.216L374.014 187.848Z" fill="white"/>
<path d="M374.014 187.952L407.568 179.371L410.464 194.267L374.014 187.952Z" fill="white"/>
<path d="M203.314 171.708L227.108 198.085L238.37 188.159L203.314 171.708Z" fill="white"/>
<path d="M202.043 173.053L236.263 181.973L234.032 196.53L202.043 173.053Z" fill="white"/>
<path d="M238.171 156.946L222.647 184.987L238.551 194.539L238.171 156.946Z" fill="white"/>
<path d="M237.732 156.946L243.01 191.681L228.018 192.206L237.732 156.946Z" fill="white"/>
<path d="M208.439 212.434L238.226 200.227L230.39 183.347L208.439 212.434Z" fill="white"/>
<path d="M207.454 211.342L223.06 183.262L238.881 192.776L207.454 211.342Z" fill="white"/>
<path d="M265.986 187.951L232.432 179.37L229.536 194.266L265.986 187.951Z" fill="white"/>
<path d="M265.986 187.847L235.793 200.074L228.363 183.215L265.986 187.847Z" fill="white"/>
<path d="M246.186 221.409L241.823 187.167L225.916 188.185L246.186 221.409Z" fill="white"/>
<path d="M246.691 220.667L223.647 194.935L235.659 184.365L246.691 220.667Z" fill="white"/>
<path d="M436.686 309.134L412.892 282.757L401.63 292.682L436.686 309.134Z" fill="white"/>
<path d="M437.957 307.789L403.737 298.868L405.968 284.312L437.957 307.789Z" fill="white"/>
<path d="M401.829 323.896L417.353 295.855L401.449 286.303L401.829 323.896Z" fill="white"/>
<path d="M402.268 323.896L396.99 289.161L411.982 288.635L402.268 323.896Z" fill="white"/>
<path d="M431.561 268.408L401.774 280.615L409.61 297.495L431.561 268.408Z" fill="white"/>
<path d="M432.546 269.5L416.94 297.579L401.119 288.066L432.546 269.5Z" fill="white"/>
<path d="M374.015 292.891L407.568 301.472L410.464 286.576L374.015 292.891Z" fill="white"/>
<path d="M374.015 292.995L404.207 280.768L411.637 297.627L374.015 292.995Z" fill="white"/>
<path d="M393.814 259.433L398.177 293.675L414.084 292.656L393.814 259.433Z" fill="white"/>
<path d="M393.309 260.175L416.353 285.907L404.341 296.477L393.309 260.175Z" fill="white"/>
<path d="M202.043 307.789L236.263 298.868L234.032 284.312L202.043 307.789Z" fill="white"/>
<path d="M203.314 309.133L227.108 282.756L238.37 292.681L203.314 309.133Z" fill="white"/>
<path d="M207.454 269.499L223.06 297.578L238.881 288.065L207.454 269.499Z" fill="white"/>
<path d="M208.439 268.407L238.226 280.614L230.39 297.494L208.439 268.407Z" fill="white"/>
<path d="M237.732 323.895L243.01 289.16L228.018 288.634L237.732 323.895Z" fill="white"/>
<path d="M238.171 323.895L222.647 295.854L238.551 286.302L238.171 323.895Z" fill="white"/>
<path d="M246.691 260.174L223.647 285.906L235.659 296.476L246.691 260.174Z" fill="white"/>
<path d="M246.186 259.432L241.823 293.674L225.916 292.655L246.186 259.432Z" fill="white"/>
<path d="M265.986 292.994L235.793 280.767L228.363 297.626L265.986 292.994Z" fill="white"/>
<path d="M265.986 292.89L232.432 301.471L229.536 286.575L265.986 292.89Z" fill="white"/>
<path d="M320 375.158L330.409 343.123L314.391 337.918L320 375.158Z" fill="white"/>
<path d="M320 375.158L309.591 343.123L325.609 337.918L320 375.158Z" fill="white"/>
<path d="M287.964 351.883L320.446 349.241L321.649 335.041L287.964 351.883Z" fill="white"/>
<path d="M287.964 353.389L316.332 332.084L325.115 344.204L287.964 353.389Z" fill="white"/>
<path d="M352.036 353.389L323.667 332.084L314.885 344.204L352.036 353.389Z" fill="white"/>
<path d="M352.036 351.883L319.554 349.241L318.351 335.041L352.036 351.883Z" fill="white"/>
<path d="M300.201 314.993L309.496 346.259L326.628 340.284L300.201 314.993Z" fill="white"/>
<path d="M300.96 314.223L327.452 333.134L316.793 347.647L300.96 314.223Z" fill="white"/>
<path d="M339.04 314.223L312.548 333.134L323.207 347.647L339.04 314.223Z" fill="white"/>
<path d="M339.799 314.993L330.504 346.259L313.372 340.284L339.799 314.993Z" fill="white"/>
</g>
</svg>
