<svg viewBox="0 0 640 480" fill="none" xmlns="http://www.w3.org/2000/svg"><g clip-path="url(#a)"><path d="M640 0H0v480h640V0Z" fill="#252F6B"/><path d="M320 367.6c70.692 0 128-57.308 128-128 0-70.693-57.308-128-128-128-70.692 0-128 57.307-128 128 0 70.692 57.308 128 128 128Z" fill="#FAD704"/><path d="M320 115.257c-68.672 0-124.343 55.671-124.343 124.343 0 68.675 55.671 124.343 124.343 124.343 68.676 0 124.343-55.668 124.343-124.343 0-68.672-55.667-124.343-124.343-124.343Zm0 225.525c-55.881 0-101.182-45.299-101.182-101.182 0-55.881 45.301-101.182 101.182-101.182 55.883 0 101.182 45.301 101.182 101.182 0 55.883-45.299 101.182-101.182 101.182Z" fill="#252F6B"/><path d="M320 336.514c53.524 0 96.914-43.39 96.914-96.914s-43.39-96.914-96.914-96.914-96.914 43.39-96.914 96.914 43.39 96.914 96.914 96.914Z" fill="#fff"/><path d="m320 345.106 1.421 4.384h4.61l-3.727 2.706 1.423 4.383-3.727-2.71-3.728 2.71 1.424-4.383-3.727-2.706h4.608l1.423-4.384ZM369.2 334.316l3.326 3.189 4.059-2.176-2.002 4.146 3.322 3.189-4.564-.626-2.006 4.149-.815-4.533-4.564-.625 4.063-2.18-.819-4.533ZM274.09 334.316l-3.326 3.189-4.06-2.176 2.005 4.146-3.325 3.189 4.564-.626 2.006 4.149.816-4.533 4.564-.625-4.061-2.18.817-4.533ZM230.096 314.591c-.266 0-.541-.04-.817-.123-.892-.268-1.792-.976-2.671-2.104-.842-1.077-1.312-2.039-1.397-2.857-.088-.835.208-1.656.881-2.439l.126-.146 1.841 1.79-.104.13c-.267.334-.389.691-.365 1.057.025.378.224.81.596 1.285.526.675 1.011 1.019 1.441 1.019.199 0 .389-.073.579-.222.19-.148.302-.309.344-.493.046-.194.033-.432-.038-.704-.074-.289-.306-.836-.686-1.631-.466-.955-.77-1.683-.902-2.16-.135-.495-.182-.921-.144-1.304.038-.382.157-.749.356-1.093.202-.344.491-.66.858-.951.614-.479 1.267-.724 1.937-.724.283 0 .572.04.863.13.956.281 1.923 1.042 2.876 2.264.869 1.113 1.36 2.163 1.461 3.11.102.969-.19 1.878-.867 2.704l-.122.15-1.893-1.744.103-.132c.332-.431.466-.863.413-1.316-.057-.461-.311-.982-.757-1.557-.618-.793-1.185-1.192-1.684-1.192-.227 0-.439.081-.651.247-.207.161-.326.346-.362.569-.041.236-.017.514.075.828.095.331.354.922.773 1.761.355.768.582 1.311.688 1.638.108.331.181.651.215.959a2.74 2.74 0 0 1-.045.923c-.07.294-.196.583-.381.863a3.36 3.36 0 0 1-.751.79c-.567.452-1.169.675-1.789.675ZM216.265 296.534l1.81-1.09 3.206 5.339 2.011-1.206-2.964-4.938 1.811-1.089 2.965 4.939 2.122-1.273-3.367-5.61 1.81-1.085 4.72 7.858-9.567 5.742-4.557-7.587ZM211.125 285.777l8.585-8.198 1.057 2.403-2.139 1.988 1.55 3.527 2.91-.232 1.066 2.428-11.853.761-1.176-2.677Zm3.641-.348-.779.682.214-.029c.234-.029 1.512-.139 3.829-.333l-1.043-2.371-2.221 2.051ZM207.091 274.777l8.668-2.592-1.661-5.548 2.025-.604 2.411 8.062-10.688 3.197-.755-2.515ZM207.572 256.552c-1.38 0-2.545-.375-3.46-1.113-1.095-.887-1.737-2.222-1.91-3.968-.174-1.745.199-3.18 1.108-4.272.907-1.086 2.251-1.726 3.997-1.9.272-.029.539-.038.799-.038.83 0 1.604.141 2.302.42a4.766 4.766 0 0 1 2.22 1.77c.547.801.88 1.778.993 2.9.172 1.73-.21 3.162-1.139 4.25-.925 1.09-2.291 1.73-4.06 1.909a8.601 8.601 0 0 1-.85.042Zm.68-8.633c-.217 0-.444.013-.682.039-1.11.111-1.96.461-2.53 1.039-.569.577-.8 1.318-.706 2.261.095.955.464 1.644 1.133 2.098.536.367 1.231.556 2.059.556.203 0 .415-.013.635-.035 1.13-.113 2-.472 2.589-1.064.587-.593.829-1.333.737-2.253-.095-.956-.468-1.642-1.143-2.096-.537-.362-1.241-.545-2.092-.545ZM201.713 240.477l.211-8.322 2.112.053-.145 5.698 2.973.075.139-5.52 2.112.053-.139 5.52 3.959.101-.065 2.626-11.157-.284ZM203.297 219.986l1.964-9.401 2.068.433-.715 3.418 8.854 1.85-.536 2.571-8.854-1.852-.713 3.412-2.068-.431ZM206.554 205.88l.848-2.485 4.067 1.39 1.404-4.104-4.067-1.389.849-2.485 10.558 3.607-.848 2.485-4.378-1.495-1.403 4.103 4.378 1.496-.85 2.485-10.558-3.608ZM211.906 191.449l3.904-7.945 1.896.931-2.746 5.588 2.106 1.035 2.538-5.17 1.896.931-2.54 5.169 2.222 1.094 2.886-5.872 1.896.931-4.043 8.227-10.015-4.919ZM230.78 177.07c-1.219 0-2.474-.483-3.724-1.432-1.445-1.097-2.282-2.335-2.493-3.679-.21-1.348.229-2.75 1.306-4.168.784-1.031 1.646-1.726 2.56-2.064a4.057 4.057 0 0 1 1.401-.252c.493 0 1.005.091 1.521.27l.181.062-.911 2.257-.166-.06a2.121 2.121 0 0 0-1.503.009c-.516.186-.971.535-1.352 1.036-.581.765-.788 1.529-.616 2.275.174.759.735 1.501 1.668 2.209.905.686 1.752 1.033 2.522 1.033.905-.038 1.6-.444 2.183-1.212.781-1.03.804-2.108.075-3.299l-.095-.153 2.095-1.313.095.161c.591.996.843 2.007.748 3.002-.093.989-.501 1.964-1.212 2.9-1.077 1.417-2.332 2.22-3.734 2.385a4.521 4.521 0 0 1-.549.033ZM234.873 157.546l2.053-2.079 10.787 4.959-1.847 1.869-2.635-1.258-2.708 2.741 1.289 2.62-1.863 1.885-5.076-10.737Zm2.903.896c.114.208.686 1.355 1.721 3.438l1.821-1.844-2.724-1.311-.916-.47.098.187ZM243.602 149.244l2.264-1.764 8.216 3.39a15.98 15.98 0 0 1-.821-.968l-3.968-5.094 1.87-1.457 6.858 8.801-2.319 1.806-8.115-3.372c.29.317.53.595.718.836l4.025 5.166-1.871 1.457-6.857-8.801ZM258.878 138.37l2.518-1.481 9.152 7.561-2.266 1.333-2.223-1.891-3.321 1.953.573 2.862-2.286 1.344-2.147-11.681Zm2.578 1.611c.055.23.315 1.486.779 3.765l2.233-1.313-2.297-1.968-.768-.693.053.209ZM269.424 132.639l2.408-1.044 3.597 8.301 5.315-2.304.838 1.937-7.72 3.348-4.438-10.238ZM290.781 134.619l3.853-8.333-4.93 1.151-.486-2.081 7.921-1.847.397 1.708-3.845 8.364 5.803-1.355.485 2.079-8.792 2.051-.406-1.737ZM308.098 133.299c-1.366 0-2.524-.394-3.44-1.169-1.091-.921-1.739-2.286-1.92-4.052-.181-1.765.176-3.215 1.059-4.312.883-1.099 2.214-1.746 3.961-1.925a8.44 8.44 0 0 1 .841-.044c1.368 0 2.523.384 3.434 1.139 1.092.905 1.735 2.247 1.914 3.99.117 1.143-.007 2.187-.373 3.103a4.779 4.779 0 0 1-1.762 2.224c-.799.548-1.772.887-2.895 1.002a8.043 8.043 0 0 1-.819.044Zm.276-9.348c-.13 0-.263.007-.399.022-.958.099-1.644.472-2.099 1.139-.455.669-.627 1.576-.51 2.695.115 1.13.477 2.001 1.073 2.588.512.505 1.129.75 1.88.75.121 0 .247-.006.375-.021.956-.096 1.642-.473 2.094-1.148.451-.675.62-1.609.499-2.776-.115-1.11-.466-1.96-1.05-2.527-.488-.479-1.115-.722-1.863-.722ZM325.129 132.639l-4.096-7.777c.022.43.029.797.02 1.102l-.197 6.547-2.372-.072.335-11.154 2.869.086 4.163 7.85c-.022-.45-.029-.874-.014-1.267l.19-6.453 2.372.071-.337 11.155-2.933-.088ZM332.451 133.16l1.73-11.022 8.744 1.375-.329 2.086-6.152-.967-.362 2.317 5.689.896-.327 2.084-5.691-.894-.386 2.447 6.463 1.015-.328 2.088-9.051-1.425ZM355.756 126.875l-3.491 10.598 2.49.82 3.491-10.598-2.49-.82ZM365.753 142.354c-.816 0-1.774-.238-2.842-.706-1.294-.569-2.225-1.258-2.765-2.046-.548-.807-.724-1.745-.521-2.789l.039-.19 2.496.638-.03.165c-.087.537-.001.98.265 1.353.267.378.736.717 1.403 1.009.58.254 1.072.382 1.465.382.504 0 .846-.215 1.04-.658a.896.896 0 0 0 .05-.671c-.079-.227-.233-.459-.461-.693-.238-.243-.746-.642-1.518-1.183-.675-.505-1.132-.876-1.379-1.11a4.763 4.763 0 0 1-.647-.744 2.723 2.723 0 0 1-.399-.834 2.648 2.648 0 0 1-.075-.942c.031-.329.125-.682.286-1.049.417-.948 1.102-1.524 2.037-1.716.225-.045.464-.069.713-.069.764 0 1.649.219 2.637.655 1.256.548 2.123 1.172 2.587 1.85.474.693.602 1.556.38 2.566l-.04.19-2.472-.706.029-.163c.079-.426.018-.79-.183-1.106-.199-.322-.581-.607-1.132-.849-.493-.213-.908-.323-1.245-.323-.441 0-.74.19-.912.583a.879.879 0 0 0-.068.598c.053.194.179.397.368.602.199.219.663.59 1.375 1.106.877.631 1.475 1.114 1.817 1.474.346.365.6.728.746 1.077.147.356.218.737.201 1.13-.012.393-.115.81-.303 1.241-.448 1.021-1.181 1.644-2.18 1.853a3.736 3.736 0 0 1-.762.075ZM373.144 146.622l4.588-7.793-2.999-1.77 1.071-1.82 8.271 4.875-1.072 1.82-3.009-1.774-4.592 7.793-2.258-1.331ZM386.834 155.924l2.816-3.672-3.441-2.641-2.816 3.67-2.086-1.598 6.794-8.852 2.085 1.598-2.617 3.409 3.442 2.642 2.618-3.41 2.081 1.598-6.793 8.852-2.083-1.596ZM398.528 166.751l5.107-5.034c.035-.033.104-.097.211-.194-.518.287-.918.503-1.204.647l-5.771 2.904-1.314-1.333 2.978-5.731.701-1.238c-.24.254-.421.444-.549.569l-4.787 4.723-1.666-1.69 7.945-7.837 2.345 2.379-3.003 5.731-.3.534-.419.696.969-.539 6.027-3.101 2.339 2.368-7.945 7.837-1.664-1.691ZM409.551 177.923a3.79 3.79 0 0 1-.757-.076c-1.147-.234-2.207-.992-3.149-2.25-.914-1.225-1.32-2.406-1.205-3.514.115-1.11.735-2.099 1.858-2.937l5.553-4.147 1.569 2.103-5.413 4.041c-.643.481-1.022.998-1.121 1.538-.1.534.072 1.101.505 1.686.457.609.962.938 1.545 1.004.068.007.137.011.207.011.517 0 1.071-.216 1.642-.644l5.354-3.997 1.567 2.104-5.46 4.078c-.887.664-1.794 1-2.695 1ZM416.856 189.959c-.419 0-.834-.097-1.24-.285-.903-.421-1.748-1.319-2.512-2.666-.695-1.231-1.03-2.337-.986-3.293.038-.973.463-1.829 1.254-2.546l.143-.13 1.615 2.003-.119.115c-.392.378-.587.784-.602 1.24-.011.464.165 1.02.519 1.647.542.955 1.088 1.439 1.628 1.439.175 0 .358-.053.547-.157.225-.128.371-.296.439-.508.074-.227.093-.505.047-.831-.044-.34-.214-.963-.505-1.854-.237-.81-.384-1.38-.439-1.717a5.047 5.047 0 0 1-.071-.984 2.77 2.77 0 0 1 .181-.903c.114-.285.28-.554.501-.801.221-.245.51-.47.862-.669.495-.282 1-.424 1.488-.424.393 0 .786.091 1.172.272.843.397 1.629 1.231 2.332 2.476.671 1.189.996 2.209.958 3.03-.039.839-.45 1.607-1.231 2.284l-.146.128-1.558-2.046.119-.114c.316-.296.488-.621.515-.994.033-.377-.104-.832-.4-1.357-.461-.814-.929-1.225-1.395-1.225-.158 0-.322.047-.492.142-.205.117-.342.262-.412.437a1.525 1.525 0 0 0-.064.703c.031.299.18.875.437 1.709.328 1.033.514 1.776.573 2.269.056.503.042.944-.05 1.31a2.708 2.708 0 0 1-.51 1.029c-.248.307-.578.58-.989.812-.532.304-1.079.459-1.609.459ZM426.666 210.158c-.314 0-.622-.026-.925-.075a4.785 4.785 0 0 1-2.549-1.251c-.71-.662-1.247-1.543-1.597-2.615-.543-1.655-.479-3.134.192-4.398.668-1.263 1.866-2.185 3.55-2.739.788-.258 1.539-.388 2.234-.388.796 0 1.534.17 2.205.505 1.26.631 2.175 1.792 2.721 3.46.549 1.667.496 3.15-.157 4.41-.651 1.258-1.828 2.173-3.492 2.721a7.093 7.093 0 0 1-2.182.37Zm1.092-8.853c-.483 0-1.019.097-1.593.286-1.079.353-1.852.892-2.298 1.6-.445.707-.52 1.479-.235 2.359.302.914.814 1.503 1.569 1.799a3.11 3.11 0 0 0 1.13.201c.505 0 1.076-.102 1.69-.304 1.057-.347 1.814-.872 2.246-1.561.431-.69.495-1.461.201-2.363-.302-.914-.812-1.506-1.562-1.806a3.074 3.074 0 0 0-1.148-.211ZM428.785 217.269l-3.889.746-.492-2.578 10.955-2.105 1.569 8.176-2.07.398-1.075-5.597-2.922.561 1.038 5.424-2.07.398-1.044-5.423ZM434.619 243.794c-.69 0-1.324-.157-1.878-.47a3.437 3.437 0 0 1-1.361-1.409c-.322-.607-.49-1.341-.499-2.176l-.042-2.498-3.798.062-.04-2.626 11.159-.181.081 5.03c.022 1.334-.276 2.381-.885 3.116-.618.748-1.507 1.136-2.642 1.152h-.095Zm-1.646-4.375c.009.572.155 1.011.433 1.309.273.285.653.424 1.169.424.559-.007.929-.157 1.172-.453.25-.306.369-.772.36-1.396l-.037-2.154-3.136.052.039 2.218ZM426.107 254.257l2.847-.651.418-3.831-2.635-1.254.289-2.635 10.65 5.264-.318 2.904-11.537 2.814.286-2.611Zm4.97-1.057 2.951-.662 1.015-.203-.2-.082a265.46 265.46 0 0 1-3.481-1.624l-.285 2.571ZM422.872 269.766l.7-2.857 8.461-2.391a14.6 14.6 0 0 1-1.086-.209l-6.362-1.556.563-2.306 10.842 2.65-.682 2.785-8.549 2.439c.441.071.86.156 1.246.251l6.273 1.532-.566 2.308-10.84-2.646ZM417.819 283.538l.953-2.45 2.919.109 1.398-3.589-2.223-1.893.96-2.474 8.921 7.839-1.056 2.723-11.872-.265Zm9.045-2.057 1.033.067-.174-.133c-.19-.146-1.168-.969-2.944-2.47l-.94 2.41 3.025.126ZM410.752 296.713l1.159-2.072 6.258 3.5c.038.025.119.075.243.146a31.007 31.007 0 0 1-.953-.971l-4.396-4.732.915-1.639 6.336 1.266 1.389.327c-.314-.163-.55-.284-.704-.371l-5.868-3.281 1.158-2.072 9.739 5.448-1.633 2.918-6.341-1.289-.597-.133-.786-.211.79.785 4.659 4.92-1.627 2.906-9.741-5.445ZM402.083 308.567l1.583-2.095 2.778.903 2.324-3.074-1.62-2.426 1.602-2.114 6.438 9.982-1.766 2.328-11.339-3.504Zm9.261.492.97.344a5.826 5.826 0 0 1-.123-.172c-.139-.19-.857-1.253-2.156-3.184l-1.563 2.068 2.872.944Z" fill="#FAD704"/><path d="M319.998 176.515h-58.209l8.781 8.228v85.638c0 11.885 14.632 14.021 24.39 15.239 9.755 1.218 20.811-.914 25.04 9.143 4.229-10.057 15.285-7.925 25.039-9.143 9.757-1.218 24.391-3.354 24.391-15.239v-85.638l8.781-8.228h-58.213Z" fill="#252F6B"/><path d="M367.238 193.277h-94.475v18.895h94.475v-18.895Z" fill="#fff"/><path d="M315.123 193.277h-6.094v18.895h6.094v-18.895ZM299.884 193.277h-6.095v18.895h6.095v-18.895ZM284.952 193.277h-6.095v18.895h6.095v-18.895ZM330.97 193.277h-6.095v18.895h6.095v-18.895ZM346.207 193.277h-6.093v18.895h6.093v-18.895ZM361.141 193.277h-6.095v18.895h6.095v-18.895Z" fill="#D31F26"/><path d="M272.763 212.172v37.791h27.606l.429-8.229-.686-1.676 4.954-.915c3.429-3.428 5.257-6.628 5.486-10.057h8v-4.571c-2.514.457-3.429.457-4.343 1.6 0 0-.229-1.372-2.286-2.515 0 0 .838-2.514 3.048-2.971 2.211-.457 2.895-2.971 5.638-2.971v11.428h7.314c.229 3.429 2.057 6.629 5.486 10.057l6.475.915-.686 1.676-2.313 8.229h30.351v-37.791h-94.473Z" fill="#FAD704"/><path d="M272.763 249.963c13.103-6.705 17.675-7.314 28.037-8.229 4.266 6.4 3.963 10.972 3.963 15.238l3.351 1.22-3.657 9.751h-2.437c-4.574-9.751-15.543-14.018-29.257-17.98ZM367.236 249.963c-13.104-6.705-17.675-7.314-28.038-8.229-4.266 6.4-3.96 10.972-3.96 15.238l-3.354 1.22 3.657 9.751h2.439c4.572-9.751 15.54-14.018 29.256-17.98Z" fill="#D31F26"/><path d="M312.075 231.066c-.534 2.248-2.363 6.133-3.963 7.733h21.373c-1.829-2.858-2.63-4.609-2.743-7.733h-14.667ZM306.741 255.715c-.115-5.714-2.057-10.629-3.657-13.714h33.143c-2.173 3.772-2.401 10.858-2.63 13.714h-5.676L319.998 246l-8.914 9.715h-4.343Z" fill="#fff"/><path d="M319.199 249.429v8.115l-5.943-1.829 5.943-6.286ZM320.455 249.429v8.115l5.943-1.829-5.943-6.286Z" fill="#fff"/><path d="M281.141 271.297c15.543 0 79.239 1.066 79.239 1.828 0 1.372-76.8 1.675-76.8 2.743 0 1.524 64.152.761 64.152 1.829 0 1.523-51.352 1.98-51.352 2.895 0 .914 37.638 1.066 37.638 1.676 0 1.066-16.19 1.675-16.19 3.961" stroke="#fff" stroke-width=".7" stroke-miterlimit="10" stroke-linecap="round"/><path d="M394.567 254.228c-2.514-5.485 1.372-9.828 1.372-9.828s5.485 3.2 7.543.228c2.057-2.971-2.515-4.114-6.172-5.829-3.657-1.715-4.343-2.551-8.228-3.162-3.387-.532-6.172 5.332-6.629 11.047-.457 5.714 0 13.257 6.629 13.942 1.656.172 4.284.58 4.838 1.719 0 0-2.953 10.624-9.638 15.424-8.915 6.4-21.029 6.629-31.772 11.2-10.743 4.572-21.14 22.859-32.854 22.859-11.714 0-22.115-18.285-32.857-22.857-10.743-4.571-22.858-4.8-31.772-11.2-6.685-4.8-9.638-15.426-9.638-15.426.557-1.139 3.181-1.548 4.838-1.717 6.629-.685 7.086-8.228 6.629-13.943-.457-5.714-3.242-11.578-6.629-11.046-3.886.611-4.571 1.446-8.228 3.162-3.658 1.715-8.229 2.858-6.172 5.829 2.057 2.972 7.543-.228 7.543-.228s3.886 4.342 1.371 9.828c-10.514 2.743-10.514 4.572-10.514 9.6 0 5.029.686 11.429 10.743 21.714 10.057 10.286 22.629 8.915 35.657 14.858 13.029 5.942 20.343 24.226 39.029 24.226 18.686 0 26.001-18.285 39.029-24.228 13.029-5.943 25.6-4.572 35.657-14.857 10.058-10.286 10.743-16.686 10.743-21.715 0-5.028-.003-6.857-10.518-9.6Z" fill="#FAD704" stroke="#252F6B" stroke-width=".9" stroke-miterlimit="10"/><path d="M251.403 260.417c-3.462.212-1.633-3.33-.947-4.131.685-.801.914-3.772-5.715-2.057" stroke="#252F6B" stroke-width=".9" stroke-miterlimit="10"/><path d="M247.598 253.703c-3.42.673-3.846 4.208-2.209 8.647M250.227 235.639c-2.629.19-2.743 3.161-1.715 4.646 1.028 1.487 5.029.914 3.886-1.258-.801-1.258-2.63-.457-4.001-.229" stroke="#252F6B" stroke-width=".9" stroke-miterlimit="10"/><path d="M250.496 241.114c-2.211.086-4.383 1.8-7.126 3.286Z" fill="#FAD704"/><path d="M250.496 241.114c-2.211.086-4.383 1.8-7.126 3.286M387.911 260.417c3.462.212 1.633-3.33.947-4.131-.685-.801-.914-3.772 5.715-2.057" stroke="#252F6B" stroke-width=".9" stroke-miterlimit="10"/><path d="M391.713 253.703c3.419.673 3.847 4.208 2.211 8.647M389.082 235.639c2.629.19 2.742 3.161 1.715 4.646-1.028 1.487-5.029.914-3.886-1.258.801-1.258 2.63-.457 4.001-.229" stroke="#252F6B" stroke-width=".9" stroke-miterlimit="10"/><path d="M388.816 241.114c2.211.086 4.382 1.8 7.125 3.286Z" fill="#FAD704"/><path d="M388.816 241.114c2.211.086 4.382 1.8 7.125 3.286" stroke="#252F6B" stroke-width=".9" stroke-miterlimit="10"/><path d="m331.445 314.006 2.077 3.054-.764.517-2.076-3.053-1.175.801-.404-.589 3.117-2.116.401.587-1.176.799ZM338.223 313.194l-1.265-1.402-1.421 1.289 1.268 1.401-.686.618-2.953-3.264.684-.618 1.177 1.298 1.421-1.287-1.176-1.299.682-.619 2.953 3.264-.684.619ZM340.328 311.145l-3.171-3.054 2.401-2.494.514.495-1.761 1.831.797.768 1.632-1.695.512.495-1.633 1.695.835.803 1.854-1.926.511.496-2.491 2.586ZM348.955 302.244l-.779.768-2.212-1.396a10.752 10.752 0 0 1-.794-.541c.157.231.273.408.349.53.079.123.589.959 1.536 2.506l-.779.769-3.9-2.34.668-.653 2.45 1.576.581.388-.461-.71c-.146-.226-.63-1.016-1.451-2.362l.733-.724 2.039 1.278c.157.093.488.326.993.689l-.198-.312-.386-.629-1.34-2.118.666-.654 2.285 3.935ZM352.825 296.328c.27.367.435.746.495 1.135.059.386.007.754-.153 1.105a2.464 2.464 0 0 1-.79.921c-.558.412-1.114.569-1.674.472-.559-.095-1.044-.428-1.466-1-.419-.569-.585-1.128-.505-1.679.083-.552.406-1.031.966-1.446.563-.415 1.117-.574 1.673-.486.556.087 1.04.418 1.454.978Zm-.759.558c-.28-.383-.591-.617-.935-.701-.342-.086-.674-.007-1.004.236-.332.245-.506.541-.532.889-.023.347.11.717.394 1.104.285.39.603.627.952.715.349.09.686.015 1.008-.221.333-.245.506-.54.528-.892.022-.352-.115-.728-.411-1.13ZM358.171 296.244l-1.603-1.128-.991.428.662 1.536-.847.365-1.75-4.041 2.019-.876c.484-.206.898-.267 1.252-.172.35.094.611.337.781.724.119.284.148.564.073.838a1.219 1.219 0 0 1-.475.688l1.828 1.225-.949.413Zm-1.314-2.759c-.169-.388-.5-.476-1.001-.26l-1.082.47.516 1.19 1.104-.479c.238-.104.395-.236.47-.395.08-.157.077-.334-.007-.526ZM360.486 295.379l-1.324-4.2.88-.275 1.104 3.522 2.251-.711.214.68-3.125.984ZM368.329 290.889c.113.439.119.847.029 1.218-.089.371-.27.684-.546.936-.271.256-.615.43-1.023.533l-1.728.429-1.064-4.273 1.549-.384c.72-.181 1.322-.137 1.805.126.483.267.81.737.978 1.415Zm-.9.224c-.115-.459-.321-.779-.618-.959-.3-.184-.671-.217-1.111-.111l-.635.159.721 2.889.758-.19c.384-.093.653-.304.814-.626.161-.321.183-.707.071-1.162ZM374.974 291.669c-.585.15-1.072.121-1.457-.086-.386-.203-.648-.572-.787-1.104l-.685-2.668.892-.229.667 2.597c.088.338.233.572.436.706.204.131.464.159.775.08.318-.082.543-.238.664-.464.124-.227.142-.509.055-.852l-.659-2.566.891-.229.675 2.621c.137.543.08 1.006-.178 1.39-.249.374-.682.647-1.289.804ZM381.392 289.628l-2.951-2.544c.146.297.256.54.324.726l.876 2.445-.77.274-1.491-4.143.992-.357 2.989 2.557a6.717 6.717 0 0 1-.343-.79l-.869-2.407.772-.278 1.488 4.148-1.017.369ZM384.377 288.331l-1.995-3.924.821-.419 1.993 3.926-.819.417ZM386.629 282.676l2.151 3.004-.75.536-2.15-3.001-1.154.825-.417-.578 3.066-2.192.416.577-1.162.829ZM391.382 283.479l-3.18-3.047 2.399-2.499.514.493-1.757 1.836.799.765 1.625-1.697.514.495-1.627 1.697.839.801 1.847-1.929.514.495-2.487 2.59ZM395.856 275.078c.351.285.604.607.75.958.15.351.19.713.121 1.077-.07.366-.238.712-.503 1.037l-1.128 1.377-3.403-2.792 1.011-1.235c.472-.572.98-.897 1.529-.972.546-.077 1.084.108 1.623.55Zm-.585.719c-.365-.3-.724-.432-1.071-.403-.348.03-.668.224-.957.576l-.415.501 2.302 1.889.496-.603c.252-.305.344-.638.282-.989-.061-.351-.277-.675-.637-.971ZM247.144 277.228l-2.788 2.418-.604-.697 2.789-2.417-.931-1.076.538-.468 2.468 2.851-.537.466-.935-1.077ZM248.464 283.981l1.33-1.341-1.363-1.351-1.329 1.341-.654-.648 3.099-3.128.655.649-1.235 1.245 1.364 1.351 1.235-1.247.654.647-3.099 3.127-.657-.645ZM251.087 286.134l2.293-3.76 2.955 1.801-.372.609-2.168-1.326-.576.946 2.006 1.225-.372.607-2.005-1.223-.606.989 2.279 1.393-.372.607-3.062-1.868ZM258.807 289.973l1.346-4.193.877.282-1.128 3.514 2.249.725-.217.678-3.127-1.006ZM266.686 292.188l-.11-1.183-1.629-.404-.647 1-.896-.221 2.615-3.89 1.057.262.497 4.657-.887-.221Zm-.302-3.911-.034.058c-.039.068-.083.146-.134.232a91.09 91.09 0 0 1-.901 1.408l1.229.304-.119-1.333-.03-.445-.011-.224ZM271.722 293.373l-1.073-3.745a7.878 7.878 0 0 1-.13.786l-.607 2.525-.797-.19 1.027-4.282 1.024.247 1.095 3.776c.037-.315.086-.598.147-.849l.598-2.488.797.19-1.028 4.282-1.053-.252ZM278.857 293.016c-.128.435-.325.792-.592 1.066a1.866 1.866 0 0 1-.946.531 2.28 2.28 0 0 1-1.15-.059l-1.708-.503 1.245-4.224 1.529.45c.711.21 1.209.552 1.492 1.028.284.471.328 1.046.13 1.711Zm-.89-.263c.133-.454.117-.836-.048-1.143-.165-.307-.466-.528-.905-.655l-.627-.184-.841 2.856.749.221c.381.114.721.07 1.022-.122.3-.2.518-.523.65-.973ZM286.676 296.43c-.21.404-.472.717-.786.933a1.84 1.84 0 0 1-1.03.338 2.252 2.252 0 0 1-1.117-.276l-1.58-.823 2.035-3.906 1.412.737c.658.344 1.081.772 1.267 1.293.187.517.121 1.086-.201 1.704Zm-.823-.426c.22-.419.276-.799.174-1.132-.104-.334-.357-.607-.763-.817l-.579-.3-1.375 2.639.693.36c.351.183.693.207 1.026.073.332-.133.609-.41.824-.823ZM286.821 299.33l2.64-3.523.737.554-2.641 3.523-.736-.554ZM290.514 302.421l-.687-.633 1.783-4.343.707.651-1.247 2.696c-.082.175-.214.427-.393.768l.23-.154.498-.305 2.58-1.471.7.648-4.171 2.143ZM292.632 304.501l3.15-3.077.644.658-3.151 3.078-.643-.659ZM298.836 307.774c-.331.313-.68.518-1.048.622a1.828 1.828 0 0 1-1.084-.016 2.328 2.328 0 0 1-.966-.631l-1.221-1.297 3.202-3.02 1.095 1.159c.508.539.766 1.086.774 1.638.007.553-.244 1.066-.752 1.545Zm-.636-.674c.343-.326.523-.662.534-1.011.012-.35-.137-.693-.452-1.026l-.448-.476-2.167 2.045.536.57c.271.285.587.421.945.404.361-.013.712-.184 1.052-.506ZM298.394 310.553l3.099-3.129 2.459 2.437-.501.507-1.804-1.79-.779.786 1.669 1.653-.501.505-1.669-1.653-.816.822 1.896 1.878-.501.503-2.552-2.519ZM306.836 315.133c-.285.353-.603.607-.954.757a1.82 1.82 0 0 1-1.076.13 2.252 2.252 0 0 1-1.04-.496l-1.388-1.115 2.763-3.429 1.242 1.001c.577.466.907.971.989 1.517.08.545-.097 1.09-.536 1.635Zm-.722-.583c.296-.368.428-.726.391-1.075-.035-.348-.23-.666-.585-.953l-.508-.41-1.869 2.323.609.492c.307.248.638.34.991.27.353-.064.676-.281.971-.647ZM321.616 317.771h-3.924v1.372h3.924v-1.372Z" fill="#252F6B"/></g><defs><clipPath id="a"><path fill="#fff" d="M0 0h640v480H0z"/></clipPath></defs></svg>