<svg viewBox="0 0 640 480" fill="none" xmlns="http://www.w3.org/2000/svg">
<g clip-path="url(#clip0_175_530)">
<path d="M0 0H640V480H0V0Z" fill="#CC0000"/>
<path d="M122.834 20L116.528 39.4051H96.1249L112.632 51.398L106.327 70.8031L122.834 58.81L139.341 70.8031L133.036 51.398L149.542 39.4051H129.139L122.834 20ZM122.834 30.11L126.869 42.5292H139.927L129.363 50.2049L133.398 62.624L122.834 54.9485L112.269 62.624L116.304 50.2049L105.74 42.5292H118.798L122.834 30.11Z" fill="#FFD700"/>
<path d="M77.7498 121.612L91.7251 135.648L104.904 122.593C124.952 144.038 145.978 164.71 165.87 186.238C168.859 189.24 173.722 189.257 176.732 186.275C179.741 183.294 179.758 178.444 176.769 175.442C155.418 155.35 134.001 135.094 112.643 114.928L130.398 97.3408L105.697 93.9297L77.7498 121.612Z" fill="#FFD700"/>
<path d="M122.834 76.166C134.33 82.6241 143.059 91.892 148.208 101.581C153.427 111.401 155.72 121.652 155.767 129.849C155.864 146.655 142.107 160.28 125.256 160.28C116.265 160.28 108.182 156.402 102.598 150.23L99.5092 152.824C98.9831 152.623 98.4246 152.519 97.8612 152.519C96.5058 152.519 95.219 153.114 94.343 154.146C92.1399 154.433 90.2959 155.953 89.5974 158.056C87.2748 162.703 83.1996 166.347 78.2684 168.016C78.2212 168.032 78.1796 168.053 78.1382 168.074C75.8581 168.907 73.5724 170.412 71.6264 172.361C67.78 176.231 65.9003 181.182 66.9586 184.656C66.8541 184.958 66.8003 185.275 66.7993 185.595C66.7994 187.199 68.1032 188.499 69.7115 188.499C70.1141 188.498 70.5121 188.413 70.8802 188.251C74.3577 189.033 79.081 187.108 82.7748 183.404C84.8687 181.297 86.4374 178.805 87.2076 176.361C88.9242 171.467 92.6138 167.48 97.3006 165.237C97.4125 165.184 97.5029 165.129 97.5837 165.072C99.155 164.323 100.305 162.908 100.714 161.219C107.902 169.677 118.682 175.077 130.734 175.36C152.837 175.879 169.359 159.651 170.123 136.316C170.507 124.572 165.951 109.429 155.571 97.0103C147.637 87.5189 136.005 79.639 122.834 76.166Z" fill="#FFD700"/>
</g>
</svg>
