<svg viewBox="0 0 640 480" fill="none" xmlns="http://www.w3.org/2000/svg">
<g clip-path="url(#clip0_175_557)">
<path fill-rule="evenodd" clip-rule="evenodd" d="M0.029541 -0.000976562H640.03V479.999H0.029541V-0.000976562Z" fill="#6ABD51"/>
<path d="M320 351.246C381.267 351.246 430.933 301.589 430.933 240.334C430.933 179.078 381.267 129.421 320 129.421C258.733 129.421 209.067 179.078 209.067 240.334C209.067 301.589 258.733 351.246 320 351.246Z" fill="#FCDD09"/>
<path d="M261.296 224.66C257.461 225.171 256.439 218.356 256.695 213.159C256.78 211.967 259.762 205.237 259.762 211.541C259.762 213.074 260.955 214.182 261.466 215.63C263 219.548 265.47 221.934 264.363 217.248C263.511 213.585 256.695 201.233 275.184 190.329C283.193 185.644 291.542 183.94 298.955 175.763C299.807 174.825 301.937 171.503 302.193 175.933C302.278 177.125 301.17 178.148 300.063 179.596C299.04 181.044 297.421 183.429 301.681 181.726C305.09 180.363 307.56 178.148 310.287 174.996C314.291 170.481 318.892 168.948 327.498 162.899C330.224 161.025 334.143 161.196 329.713 164.773C328.35 165.881 328.179 169.544 326.731 171.588C325.623 173.122 321.363 176.274 327.072 174.485C332.695 172.696 335.933 172.866 346.242 162.985C348.372 160.855 349.65 157.533 358.341 158.81C363.283 159.577 367.628 159.747 372.144 156.681C373.422 155.829 376.83 153.358 373.422 158.384C365.839 169.799 355.614 164.433 349.139 171.674C345.646 175.507 348.372 174.314 350.928 172.185C353.399 170.14 356.126 168.607 360.897 170.396C362.601 170.992 364.135 170.566 365.839 169.288C368.991 166.903 368.224 169.203 367.372 170.992C366.094 173.803 363.283 174.485 360.471 175.507C358.171 176.359 359.108 176.955 361.067 177.211C365.754 177.892 373.422 179.426 374.785 178.488C376.574 177.296 377.682 177.381 375.467 180.192C372.485 184.026 367.202 184.366 361.408 184.622C358.085 184.792 353.57 187.433 349.395 191.011C346.157 193.737 346.413 193.566 348.628 193.141C349.735 192.885 353.314 192.544 349.906 195.355C348.628 196.378 346.242 200.211 344.368 202C343.09 203.278 341.215 204.215 339 204.981C337.211 205.578 333.036 205.578 338.063 206.856C343.516 208.219 348.031 207.537 353.229 206.004C357.915 204.641 362.431 206.77 367.713 210.007C370.78 211.882 373.848 214.182 378.96 212.648C381.772 211.796 383.902 211.796 380.238 214.948C375.893 218.611 369.928 219.889 362.431 218.526C359.193 217.93 356.04 217.334 352.803 216.737C349.821 216.226 346.839 217.163 352.632 218.015C359.619 219.037 364.305 224.745 372.485 226.789C373.422 227.045 374.359 226.789 375.211 226.704C376.83 226.534 380.153 226.96 376.404 228.834C372.996 230.537 370.951 230.623 364.902 229.686C363.027 229.43 361.067 229.089 359.193 228.834C356.978 228.493 355.785 228.408 358.852 229.856C363.283 231.9 365.668 235.393 372.911 235.989C376.404 236.33 375.807 237.012 373.422 238.119C369.758 239.823 365.498 239.823 361.238 239.397C358.426 239.141 357.233 237.949 352.547 238.715C348.543 239.312 348.287 241.015 340.448 237.267C336.614 235.393 335.677 234.456 333.803 233.519C331.843 232.582 329.372 231.219 332.013 234.967C334.229 238.119 334.655 241.526 342.323 245.104C345.39 246.552 346.242 246.723 342.238 247.064C331.843 248.001 331.673 245.615 327.668 243.741C324.686 242.378 322.045 241.697 318.381 242.464C316.336 242.889 309.52 244.593 306.027 247.319C302.448 250.13 292.48 247.149 292.48 247.149C299.892 232.837 273.053 224.489 261.296 224.66Z" fill="#DA121A"/>
<path d="M275.098 278.337C275.439 273.907 277.74 270.841 279.358 266.326C279.444 266.326 287.879 253.889 293.417 246.989C295.547 243.837 297.507 244.007 301.085 243.326C307.049 242.048 301.852 241.537 301.17 241.451C299.296 241.025 298.614 240.344 296.143 239.577C292.906 238.555 296.569 238.981 297.251 238.811L302.022 237.874C311.65 236.085 302.533 236.085 295.462 233.188C283.789 228.503 277.399 223.477 263.511 222.54C260.188 222.284 260.273 225.436 262.062 227.225C263.681 228.844 263.511 230.548 263.681 232.507C264.363 241.196 264.448 249.715 264.959 258.404C263.085 264.196 260.614 270.244 259.336 275.782L275.098 278.337Z" fill="#7D4B23" stroke="#FCDD09" stroke-width="0.293401" stroke-miterlimit="4.7926"/>
<path d="M261.296 224.244C260.699 224.244 261.125 225.181 261.125 225.692C261.636 226.97 262.829 227.737 263.34 229.015C264.022 229.185 264.704 229.185 265.3 230.037L265.385 237.533C264.789 237.107 264.363 236.937 263.852 236.767C263.937 237.363 263.596 238.044 263.34 238.3C263.17 238.47 263.34 238.726 263.34 238.981L265.215 240.089L265.13 247.074L263.596 247.415C263.596 251.674 263.596 255.933 264.533 259.511L265.3 259C266.067 258.915 266.152 259.511 265.897 260.704C265.215 264.452 264.107 268.2 262.659 272.119C261.892 274.334 260.955 273.993 259.932 274.078L264.448 259.511L259.762 274.419L259.421 275.441C260.273 275.526 260.529 275.952 261.977 275.612C263.426 274.93 265.044 274.419 266.578 273.823C265.556 273.567 265.471 272.715 265.471 271.863C265.471 268.797 266.919 265.304 267.686 261.982C268.112 260.959 267.941 259.511 270.583 260.022C272.372 260.534 273.991 260.874 276.376 261.982C277.91 262.834 279.358 263.856 279.87 265.389L281.915 262.663C280.636 261.471 275.184 259.767 271.435 258.404C271.009 258.148 270.497 258.063 270.753 256.871L271.69 253.208C271.861 251.504 272.798 251.589 273.906 252.015C276.717 252.27 283.107 255.252 284.897 258.489L287.027 255.508C282.681 253.037 278.506 251.333 274.417 249.885C273.224 249.374 273.309 248.437 273.309 247.5L273.394 243.156C273.82 240.941 274.417 241.537 274.928 241.537C279.699 242.644 286.771 245.2 291.372 249.545C292.224 248.778 292.224 247.415 294.439 247.756L294.098 245.711C293.672 245.2 288.56 244.689 286.856 243.667C283.278 242.048 279.784 240.515 276.036 239.578C274.843 239.322 274.843 238.385 275.013 237.448L275.439 233.018C275.695 231.485 276.888 230.889 276.717 233.189C276.036 239.918 277.314 238.726 278.506 233.274C278.762 231.996 280.466 231.996 279.87 233.955C279.614 235.063 279.018 237.022 280.636 234.381C280.977 233.785 281.403 233.018 282.341 233.274C287.282 234.807 287.282 235.915 289.412 236.681C291.713 237.533 293.928 236.426 290.946 235.063C283.874 231.911 276.802 228.929 268.879 226.8C266.834 226.374 264.959 227.566 262.744 225.011C262.062 224.415 261.551 224.244 261.296 224.244ZM269.475 229.526C270.157 229.526 270.838 230.548 270.668 231.4L270.327 235.829C270.242 238.641 268.197 238.044 268.367 236.085L268.538 231.229C268.623 229.952 269.049 229.526 269.475 229.526ZM273.394 230.207C273.991 230.207 274.587 231.059 274.332 232.252L273.82 237.107C273.48 238.811 271.52 238.726 271.69 236.937L272.372 231.315C272.713 230.548 273.053 230.207 273.394 230.207ZM268.793 240.259C269.305 240.259 269.731 240.77 269.645 241.793L269.219 246.052C269.134 248.182 267.43 248.182 267.601 246.137L267.771 241.707C267.771 240.685 268.282 240.259 268.793 240.259ZM271.775 241.878C272.116 241.878 272.542 242.304 272.542 243.07L272.116 246.563C272.116 248.267 270.583 248.182 270.753 246.648L271.009 243.156C271.094 242.304 271.435 241.963 271.775 241.878ZM267.345 250.822C267.686 250.822 267.941 251.248 267.856 252.185L267.43 256.019C267.43 256.956 266.237 257.041 266.408 256.104L266.749 252.27C266.749 251.248 267.089 250.822 267.345 250.822ZM269.731 251.078C270.157 251.078 270.497 251.589 270.327 252.27L269.986 254.996C269.986 255.763 268.793 256.359 268.793 254.996L269.134 252.185C269.134 251.419 269.475 251.078 269.731 251.078Z" fill="#FCDD09"/>
<path d="M249.027 299.719C250.049 302.445 250.39 305.256 250.56 308.153L246.215 323.06C249.027 325.531 252.094 328.171 255.417 330.386L260.188 317.608C260.784 316.16 261.807 317.012 262.744 317.779C264.533 319.312 265.3 320.76 268.793 320.419C271.776 320.164 271.52 320.164 273.906 321.782C287.964 331.92 297.081 340.183 310.883 350.661C324.004 351.683 340.023 351.427 360.301 343.42C341.301 325.275 322.812 324.764 312.076 318.631C302.96 313.434 293.843 310.197 288.986 302.36C286.856 298.867 288.646 296.482 286.516 293.501C283.448 289.241 283.874 286.26 282.341 283.023C281.233 280.723 279.699 278.678 277.569 277.23C275.95 276.123 273.139 273.822 267.004 273.737L262.148 274.93L256.95 275.526L255.843 279.104L253.116 280.723L249.708 287.623L249.027 299.719Z" fill="#7D4B23" stroke="#FCDD09" stroke-width="0.440162" stroke-miterlimit="4.7926" stroke-linejoin="round"/>
<path d="M247.919 324.338L252.69 308.068C253.713 304.49 256.184 305.342 254.991 309.09L249.708 325.872L247.919 324.338Z" fill="#FCDD09"/>
<path d="M257.802 309.431C259.592 305.171 261.04 306.194 259.592 310.368L253.457 328.853C252.946 328.427 252.52 328.086 251.838 327.575L257.802 309.431Z" fill="#FCDD09"/>
<path d="M330.65 350.575C320.682 344.016 314.121 338.905 308.924 333.793C291.969 317.267 306.964 330.386 314.547 336.264C320.682 340.949 326.475 344.953 335.336 350.064L330.65 350.575Z" fill="#FCDD09"/>
<path d="M257.888 274.845C256.354 274.845 255.161 276.293 255.672 278.167C255.587 279.104 255.246 279.189 254.991 279.53C253.628 280.041 254.394 278.337 251.242 281.574C250.731 282.426 250.56 282.512 250.56 283.108C250.645 284.3 250.219 285.663 249.623 286.43C249.027 287.026 248.856 287.537 248.771 288.304C248.686 288.986 248.771 289.667 248.771 290.349C248.856 291.115 248.771 291.797 248.686 292.563C248.515 293.33 248.43 294.012 248.515 294.864C248.686 295.801 248.771 296.482 248.601 297.419C248.089 299.549 248.345 300.401 248.601 301.253C249.027 301.934 249.027 302.616 249.027 303.382C249.112 304.149 249.197 305.086 249.453 305.853C249.964 306.364 250.475 308.067 250.219 309.005C251.583 304.83 254.054 302.104 259.251 303.893C261.211 305.086 262.148 301.593 263.596 303.382C265.385 303.638 268.879 301.934 268.879 304.064C269.134 306.193 269.219 308.749 272.628 309.856C274.502 310.538 277.825 309.26 277.399 313.179C277.569 315.393 274.843 317.182 277.995 319.653C280.296 321.442 286.175 321.016 282.17 318.801C280.381 317.523 279.699 317.353 279.188 316.245C278.081 313.775 279.699 312.242 280.296 312.923L287.879 320.76C293.758 327.405 300.574 333.709 307.134 340.012L311.139 343.931C312.843 346.231 314.803 348.275 316.166 351.087C317.018 351.087 317.614 351.172 318.211 351.172C316.081 348.531 313.78 346.401 311.565 344.186C303.471 335.497 294.865 327.234 287.282 318.119C286.175 316.842 286.43 316.756 286.26 316.416C286.004 313.179 284.556 311.219 283.704 308.664C282.767 305.767 285.238 303.467 285.578 300.656C285.919 296.993 283.619 297.845 283.789 300.827C283.874 303.041 282 304.319 281.574 305.853C281.233 307.045 280.977 308.153 281.915 309.686C283.278 311.39 283.704 312.582 284.3 313.775C285.152 315.819 284.471 315.053 283.874 314.456C282 312.838 280.637 311.134 279.188 309.175C277.484 306.875 276.803 308.153 274.928 307.982C272.713 307.897 272.116 306.79 271.094 304.745C269.731 297.59 271.179 296.652 272.372 286.26C272.628 284.897 277.655 283.96 273.991 283.704C270.412 283.619 270.498 283.704 269.475 282C269.049 281.319 268.964 280.978 268.964 280.297C268.879 279.445 268.027 279.445 266.834 280.126C263.341 281.745 261.211 282 257.973 280.552C257.888 280.382 257.888 280.126 258.228 279.7C260.103 279.956 260.444 279.274 260.87 278.678C261.381 277.911 261.125 276.719 260.699 276.123C260.358 275.611 259.251 275.271 258.058 275.1C257.973 274.845 257.973 274.845 257.888 274.845ZM257.717 276.208L259.762 276.378C259.762 277.06 259.336 277.4 259.421 278.508C258.314 278.508 257.717 278.508 257.121 278.423C257.206 277.23 257.291 276.889 257.717 276.208ZM254.991 281.063C255.417 281.063 255.758 281.149 256.184 281.319L259.762 282.937C261.296 283.278 262.829 283.278 264.533 282.767C265.897 282.511 267.089 282.597 267.941 283.449C268.453 283.96 268.964 284.215 268.964 284.982C268.879 286.515 267.601 288.049 265.982 286.175C265.3 285.408 264.107 285.663 263.17 285.408C261.722 285.578 260.273 285.578 258.91 285.408C256.95 285.408 255.161 285.237 254.054 284.641C251.327 283.278 252.946 281.063 254.991 281.063ZM258.74 286.43C261.125 286.43 263.255 286.771 264.448 288.134C265.726 289.326 268.112 289.582 268.112 291.371C268.112 292.649 266.919 295.545 264.874 293.501C263.255 291.882 262.403 291.286 260.444 290.945L252.946 290.775C251.497 291.286 249.112 287.026 253.372 286.771C254.906 286.6 256.865 286.43 258.74 286.43ZM256.354 292.308C257.547 292.308 258.654 292.393 259.847 292.478C262.063 292.819 263 293.926 264.363 294.778L265.641 296.056C265.897 297.249 264.619 299.719 263.085 299.123C263.085 299.123 260.614 297.504 259.251 297.164C257.121 296.482 252.52 296.482 252.52 296.482C249.879 296.482 249.538 293.415 251.923 292.819C253.372 292.478 254.906 292.308 256.354 292.308ZM269.731 293.586C270.668 293.586 268.708 296.397 268.367 295.204C268.623 294.608 268.793 294.182 269.219 293.756C269.39 293.586 269.56 293.586 269.731 293.586ZM257.547 298.101C259.932 298.527 260.358 301.678 257.632 302.104L253.713 302.019L252.009 302.53C250.049 303.041 249.282 301.167 250.901 299.293C251.923 297.93 255.161 298.441 257.547 298.101ZM267.175 299.038C267.686 299.038 268.027 299.464 267.175 300.827C266.749 301.423 265.982 301.253 265.726 300.401C265.556 299.719 266.152 299.378 266.834 299.123C266.919 299.123 267.089 299.038 267.175 299.038Z" fill="#FCDD09"/>
<path d="M260.529 314.03C261.125 310.282 262.233 308.578 263.681 305.256C264.022 304.319 263.766 303.467 263.596 302.615L268.282 302.871C268.282 303.126 267.686 302.871 267.345 303.297C265.811 305.597 263.255 310.452 261.977 314.371C262.829 315.478 262.914 316.586 262.914 317.778C262.233 317.182 261.807 317.012 261.466 316.927C260.614 316.501 260.103 317.778 259.677 319.312C259.847 318.29 260.103 318.034 260.103 317.438C259.677 317.012 259.677 315.649 260.103 315.393C260.529 314.967 260.444 314.541 260.529 314.03Z" fill="#FCDD09"/>
<path d="M271.605 320.334C272.628 320.59 273.309 321.186 273.991 321.782C274.076 321.867 273.906 320.93 274.502 320.164C274.843 319.823 273.394 319.141 272.968 319.397C272.542 319.823 271.861 320.249 271.605 320.334Z" fill="#FCDD09"/>
<path d="M330.395 335.157C334.57 339.842 335.166 338.735 333.377 336.349C323.834 323.657 319.233 324.083 322.897 327.405C326.135 330.472 325.879 330.046 330.395 335.157Z" fill="#FCDD09"/>
<path d="M360.301 343.249C341.301 325.105 322.897 324.764 312.076 318.63C302.96 313.434 293.843 310.282 289.072 302.445C286.942 298.952 288.731 296.567 286.601 293.586C283.533 289.326 283.959 286.345 282.426 283.108C281.318 280.808 279.785 278.763 277.654 277.315C276.036 276.207 273.224 273.907 267.089 273.822L262.233 275.015" stroke="#FCDD09" stroke-width="1.1742" stroke-miterlimit="4.7926" stroke-linecap="round" stroke-linejoin="round"/>
<path d="M250.986 306.789L246.385 322.804" stroke="#FCDD09" stroke-width="1.17385" stroke-miterlimit="4.7926" stroke-linecap="round" stroke-linejoin="round"/>
</g>
</svg>
