<svg width="32" height="32" viewBox="0 0 32 32" fill="none" xmlns="http://www.w3.org/2000/svg">
<g clip-path="url(#clip0_10344_26091)">
<path d="M30 16C30 23.732 23.732 30 16 30C8.26802 30 2 23.732 2 16C2 8.26801 8.26802 2 16 2C23.732 2 30 8.26801 30 16Z" fill="#1793D1"/>
<path fill-rule="evenodd" clip-rule="evenodd" d="M15.9984 4.17383C15.1586 6.2327 14.6521 7.57945 13.7172 9.57712C14.2904 10.1848 14.9941 10.8924 16.1368 11.6916C14.9083 11.1861 14.0702 10.6785 13.444 10.1519C12.2474 12.6487 10.3727 16.2054 6.56836 23.041C9.55846 21.3148 11.8763 20.2505 14.0365 19.8445C13.9437 19.4455 13.891 19.014 13.8946 18.5637L13.8981 18.4679C13.9456 16.5522 14.9421 15.0791 16.1226 15.1791C17.3031 15.2791 18.2207 16.9141 18.1732 18.8298C18.1643 19.1903 18.1236 19.537 18.0526 19.8586C20.1893 20.2766 22.4824 21.3381 25.432 23.041C24.8504 21.9702 24.3313 21.005 23.8355 20.0857C23.0546 19.4805 22.2401 18.6927 20.5786 17.8399C21.7206 18.1367 22.5383 18.479 23.1756 18.8617C18.1351 9.47715 17.7269 8.23014 15.9984 4.17383Z" fill="white"/>
</g>
<defs>
<clipPath id="clip0_10344_26091">
<rect width="28" height="28" fill="white" transform="translate(2 2)"/>
</clipPath>
</defs>
</svg>
