<svg width="32" height="32" viewBox="0 0 32 32" fill="none" xmlns="http://www.w3.org/2000/svg">
<g clip-path="url(#clip0_10344_26092)">
<path fill-rule="evenodd" clip-rule="evenodd" d="M13.7638 14.9442L14.7741 15.9486L13.7638 16.9529H6.65325V20.2994L2.31689 15.9486L6.65325 11.6711V14.9442L13.7638 14.9442Z" fill="#932279"/>
<path fill-rule="evenodd" clip-rule="evenodd" d="M16.9841 13.764L15.9797 14.7743L14.9754 13.764V6.65339H11.6289L15.9797 2.31702L20.2572 6.65339H16.9841L16.9841 13.764Z" fill="#EFA724"/>
<path fill-rule="evenodd" clip-rule="evenodd" d="M18.1639 16.9839L17.1536 15.9795L18.1639 14.9752H25.2745V11.6287L29.6108 15.9795L25.2745 20.257V16.9839L18.1639 16.9839Z" fill="#262577"/>
<path fill-rule="evenodd" clip-rule="evenodd" d="M14.9441 18.1641L15.9485 17.1538L16.9528 18.1641V25.2747H20.2993L15.9485 29.6111L11.671 25.2747H14.9441L14.9441 18.1641Z" fill="#9CCD2A"/>
<path d="M6.39844 6.39856H15.0382V15.0384H6.39844V6.39856Z" fill="#9CCD2A"/>
<path fill-rule="evenodd" clip-rule="evenodd" d="M6.08984 6.08997H15.3468V15.3469H6.08984V6.08997ZM6.70697 6.70709V14.7298H14.7296V6.70709H6.70697Z" fill="white"/>
<path d="M16.8896 6.39856H25.5295V15.0384H16.8896V6.39856Z" fill="#932279"/>
<path fill-rule="evenodd" clip-rule="evenodd" d="M16.5811 6.08997H25.838V15.3469H16.5811V6.08997ZM17.1982 6.70709V14.7298H25.2209V6.70709H17.1982Z" fill="white"/>
<path d="M16.8896 16.8898H25.5295V25.5296H16.8896V16.8898Z" fill="#EFA724"/>
<path fill-rule="evenodd" clip-rule="evenodd" d="M16.5811 16.5812H25.838V25.8381H16.5811V16.5812ZM17.1982 17.1983V25.221H25.2209V17.1983H17.1982Z" fill="white"/>
<path d="M6.39844 16.8898H15.0382V25.5296H6.39844V16.8898Z" fill="#262577"/>
<path fill-rule="evenodd" clip-rule="evenodd" d="M6.08984 16.5812H15.3468V25.8381H6.08984V16.5812ZM6.70697 17.1983V25.221H14.7296V17.1983H6.70697Z" fill="white"/>
<path fill-rule="evenodd" clip-rule="evenodd" d="M2 15.9641L8.54564 9.41844L15.0913 15.9641L8.54564 22.5098L2 15.9641ZM2.87275 15.9641L8.54564 21.637L14.2185 15.9641L8.54564 10.2912L2.87275 15.9641Z" fill="white"/>
<path fill-rule="evenodd" clip-rule="evenodd" d="M9.41846 8.54565L15.9641 2.00002L22.5097 8.54565L15.9641 15.0913L9.41846 8.54565ZM10.2911 8.54565L15.9641 14.2186L21.637 8.54565L15.9641 2.87271L10.2911 8.54565Z" fill="white"/>
<path fill-rule="evenodd" clip-rule="evenodd" d="M23.3826 9.41846L29.9282 15.9641L23.3826 22.5098L16.8369 15.9641L23.3826 9.41846ZM17.7097 15.9641L23.3826 21.637L29.0554 15.9641L23.3826 10.2912L17.7097 15.9641Z" fill="white"/>
<path fill-rule="evenodd" clip-rule="evenodd" d="M9.41846 23.3824L15.9641 16.8368L22.5097 23.3824L15.9641 29.9281L9.41846 23.3824ZM10.2912 23.3824L15.9641 29.0554L21.637 23.3824L15.9641 17.7095L10.2912 23.3824Z" fill="white"/>
</g>
<defs>
<clipPath id="clip0_10344_26092">
<rect width="28" height="28" fill="white" transform="translate(2 2)"/>
</clipPath>
</defs>
</svg>
