<svg width="32" height="32" viewBox="0 0 32 32" fill="none" xmlns="http://www.w3.org/2000/svg">
<g clip-path="url(#clip0_10344_26093)">
<path d="M18.4228 16.7939C17.9588 16.8003 18.5106 17.033 19.1163 17.1262C19.2836 16.9955 19.4355 16.8633 19.5708 16.7347C19.1935 16.8272 18.8096 16.8292 18.4228 16.7939Z" fill="#A80030"/>
<path d="M20.9129 16.1731C21.1891 15.7917 21.3905 15.3742 21.4615 14.9425C21.3996 15.2503 21.2325 15.516 21.0753 15.7964C20.208 16.3424 20.9937 15.4721 21.0748 15.1413C20.1422 16.3151 20.9467 15.8452 20.9129 16.1731Z" fill="#A80030"/>
<path d="M21.8323 13.7812C21.8884 12.9457 21.6679 13.2098 21.5938 13.5287C21.6802 13.5736 21.7487 14.1176 21.8323 13.7812Z" fill="#A80030"/>
<path d="M16.6636 2.36121C16.9112 2.40562 17.1986 2.4397 17.1583 2.49882C17.4291 2.43944 17.4906 2.3847 16.6636 2.36121Z" fill="#A80030"/>
<path d="M17.158 2.49878L16.9829 2.53493L17.1458 2.52047L17.158 2.49878Z" fill="#A80030"/>
<path d="M24.8793 14.098C24.9069 14.8483 24.6598 15.2124 24.437 15.8568L24.036 16.0572C23.7078 16.6944 24.0678 16.4618 23.8328 16.9686C23.3205 17.4241 22.2782 18.3939 21.9446 18.4824C21.7011 18.477 22.1096 18.195 22.163 18.0845C21.4773 18.5555 21.6128 18.7915 20.564 19.0776L20.5333 19.0094C17.9467 20.2263 14.3537 17.8147 14.4009 14.5243C14.3733 14.7332 14.3224 14.681 14.2651 14.7654C14.1316 13.0725 15.0469 11.372 16.5907 10.6777C18.1006 9.93021 19.8708 10.2369 20.9524 11.2449C20.3583 10.4667 19.1757 9.64181 17.7742 9.71901C16.4014 9.7407 15.1171 10.6131 14.6885 11.5602C13.9852 12.003 13.9036 13.2671 13.5972 13.4985C13.1848 16.5289 14.3728 17.8382 16.3823 19.3784C16.6986 19.5916 16.4714 19.6239 16.5142 19.7863C15.8466 19.4736 15.2351 19.0017 14.7324 18.4238C14.9992 18.8142 15.287 19.1937 15.6591 19.492C15.0296 19.2787 14.1887 17.9665 13.9431 17.9131C15.0283 19.856 18.3459 21.3205 20.083 20.5939C19.2793 20.6236 18.2581 20.6105 17.3549 20.2766C16.9756 20.0814 16.4598 19.6771 16.5519 19.6014C18.9227 20.487 21.3717 20.2722 23.423 18.6278C23.9448 18.2214 24.5149 17.5299 24.6797 17.5204C24.4315 17.8935 24.722 17.6998 24.5315 18.0293C25.0515 17.1907 24.3055 17.688 25.069 16.5811L25.351 16.9694C25.2462 16.2733 26.2154 15.428 26.117 14.327C26.3394 13.9903 26.3652 14.6893 26.1292 15.4639C26.4566 14.6046 26.2154 14.4664 26.2996 13.7574C26.3905 13.9958 26.5098 14.249 26.571 14.5005C26.3577 13.6702 26.7899 13.1021 26.8968 12.6196C26.7915 12.5728 26.5676 12.9867 26.5165 12.0058C26.524 11.5798 26.635 11.7825 26.6778 11.6777C26.5942 11.6297 26.3747 11.303 26.2412 10.6767C26.3381 10.5295 26.5 11.0583 26.6316 11.08C26.5469 10.5819 26.4011 10.2021 26.3951 9.81996C26.0104 9.01594 26.2591 9.92712 25.9469 9.47476C25.5374 8.19746 26.2867 9.17835 26.3373 8.59793C26.958 9.49722 27.312 10.891 27.4744 11.4683C27.3504 10.7644 27.1501 10.0825 26.9056 9.42286C27.0941 9.50213 26.6019 7.97464 27.1506 8.98625C26.5645 6.8298 24.6422 4.81485 22.8739 3.86933C23.0902 4.06737 23.3634 4.31601 23.2653 4.355C22.3859 3.83138 22.5405 3.79059 22.4145 3.56931C21.698 3.27781 21.651 3.59281 21.1765 3.56983C19.8261 2.85359 19.5659 2.92976 18.3232 2.48102L18.3797 2.74515C17.4851 2.44719 17.3374 2.85824 16.3704 2.74618C16.3116 2.70023 16.6803 2.57991 16.9836 2.53576C16.1187 2.64988 16.1592 2.36535 15.3129 2.56726C15.5215 2.42086 15.742 2.32404 15.9645 2.19958C15.2592 2.24245 14.2806 2.61012 14.5827 2.27575C13.4322 2.78905 11.3888 3.50967 10.2422 4.58479L10.206 4.3439C9.68059 4.97467 7.91479 6.22769 7.77407 7.04462L7.63361 7.07741C7.36019 7.54036 7.18332 8.06501 6.96644 8.54138C6.60884 9.15072 6.4423 8.77582 6.49317 8.87135C5.78984 10.2974 5.4405 11.4957 5.13867 12.4783C5.35375 12.7998 5.14384 14.4135 5.22517 15.705C4.87196 22.0835 9.70176 28.2765 14.9811 29.7064C15.7549 29.9832 16.9057 29.9726 17.8845 30.001C16.7296 29.6708 16.5803 29.826 15.4554 29.4338C14.6439 29.0516 14.466 28.6153 13.8912 28.1165L14.1187 28.5185C12.9914 28.1196 13.4632 28.0248 12.546 27.7343L12.789 27.417C12.4237 27.3894 11.8213 26.8012 11.6566 26.4756L11.2569 26.4914C10.7766 25.8988 10.5208 25.4718 10.5393 25.141L10.4102 25.3711C10.2639 25.1198 8.64342 23.1488 9.4841 23.6076C9.32789 23.4648 9.1203 23.3752 8.89516 22.9662L9.06634 22.7705C8.66175 22.25 8.3217 21.5828 8.34752 21.3605C8.56338 21.652 8.71313 21.7065 8.86133 21.7563C7.83965 19.2214 7.78233 21.6167 7.00852 19.1759L7.17222 19.1628C7.04674 18.9738 6.97057 18.7685 6.86961 18.5671L6.94088 17.8571C6.20528 17.0066 6.73509 14.2408 6.84121 12.7239C6.9148 12.1071 7.4552 11.4505 7.86625 10.4208L7.6158 10.3777C8.09449 9.54266 10.3491 7.02422 11.3932 7.15384C11.899 6.51842 11.2928 7.15151 11.1939 6.99143C12.3049 5.84169 12.6542 6.17915 13.404 5.97234C14.2127 5.49235 12.71 6.15953 13.0934 5.78928C14.4913 5.43219 14.0841 4.97751 15.9077 4.79626C16.1001 4.90573 15.4613 4.96537 15.301 5.10738C16.4657 4.53754 18.9867 4.66716 20.6242 5.42367C22.5243 6.3116 24.659 8.93642 24.7432 11.4061L24.839 11.4319C24.7904 12.4135 24.9892 13.5488 24.6448 14.5917L24.8793 14.098Z" fill="#A80030"/>
<path d="M13.3585 17.4308L13.2935 17.7561C13.5984 18.1703 13.8403 18.619 14.2297 18.9428C13.9495 18.3959 13.7414 18.17 13.3585 17.4308Z" fill="#A80030"/>
<path d="M14.0796 17.4024C13.9182 17.224 13.8227 17.0092 13.7158 16.7952C13.8181 17.1714 14.0275 17.4946 14.2224 17.8233L14.0796 17.4024Z" fill="#A80030"/>
<path d="M26.8351 14.6299L26.7669 14.8008C26.6419 15.6885 26.3721 16.5669 25.9585 17.3812C26.4155 16.5219 26.7111 15.5821 26.8351 14.6299Z" fill="#A80030"/>
<path d="M16.7551 2.13865C17.0688 2.02375 17.5263 2.07565 17.8591 2C17.4254 2.03641 16.9937 2.05809 16.5674 2.11309L16.7551 2.13865Z" fill="#A80030"/>
<path d="M5.74162 7.995C5.81391 8.66424 5.23814 8.92398 5.86917 8.48273C6.2074 7.72079 5.73697 8.2723 5.74162 7.995Z" fill="#A80030"/>
<path d="M5.0002 11.0924C5.14557 10.6462 5.1719 10.3782 5.22742 10.12C4.82566 10.6335 5.04255 10.743 5.0002 11.0924Z" fill="#A80030"/>
</g>
<defs>
<clipPath id="clip0_10344_26093">
<rect width="22.4736" height="28" fill="white" transform="translate(5 2)"/>
</clipPath>
</defs>
</svg>
