<svg width="28" height="28" viewBox="0 0 28 28" fill="none" xmlns="http://www.w3.org/2000/svg">
<path d="M14 0C6.26945 0 0 6.26945 0 14C0 21.7305 6.26945 28 14 28C21.7305 28 28 21.7305 28 14C28 6.26945 21.7305 0 14 0ZM13.9745 1.33509H13.9771C13.9847 1.33608 13.9924 1.33608 14 1.33509C19.7884 1.33509 24.6705 5.21945 26.18 10.5204C24.8819 13.1893 23.0581 15.5685 20.818 17.5153C19.74 18.4482 18.5615 19.2755 17.2671 19.8596C15.9715 20.4425 14.5485 20.7747 13.1345 20.6945C12.1248 20.6341 11.1396 20.3595 10.2442 19.8889C12.6962 18.5438 14.8855 16.7675 16.7071 14.6453C17.9238 13.2249 18.9865 11.6035 19.3989 9.76691C19.6089 8.848 19.6407 7.88327 19.4498 6.958C19.2636 6.02347 18.8237 5.15824 18.1784 4.45709C17.5336 3.78467 16.7171 3.30142 15.8175 3.05964C14.9231 2.82153 13.9866 2.7876 13.0773 2.96036C11.2662 3.29255 9.64982 4.34255 8.36182 5.64327C6.08745 7.93418 4.68364 11.1669 4.942 14.3933C5.07182 16.0058 5.60891 17.5891 6.53545 18.9165C6.71745 19.1775 6.91982 19.4231 7.12982 19.6598C5.85448 20.1009 4.53898 20.4159 3.20218 20.6004C2.02929 18.6835 1.38784 16.4889 1.34374 14.242C1.29964 11.9952 1.85447 9.77713 2.95124 7.81567C4.048 5.85422 5.64716 4.22009 7.58445 3.08117C9.52173 1.94225 11.7273 1.33958 13.9745 1.33509ZM14.0636 3.906C14.0687 3.90473 14.084 3.90855 14.0789 3.90727C14.9596 3.90727 15.8442 4.17582 16.5429 4.70527C17.1712 5.19131 17.6437 5.85048 17.9022 6.60164C18.1617 7.3568 18.2452 8.16126 18.1465 8.95364C17.9645 10.5356 17.1665 11.9929 16.1955 13.272C14.4722 15.5349 12.1787 17.3485 9.62945 18.6175C9.38764 18.7384 9.13818 18.8555 8.88873 18.9662C8.35612 18.4936 7.90466 17.9368 7.55236 17.318C6.80145 15.9893 6.55455 14.4111 6.69964 12.8864C6.84727 11.3604 7.36909 9.88782 8.07673 8.52091C8.89509 6.93764 10.0062 5.44345 11.5538 4.58818C12.3205 4.15399 13.1839 3.919 14.0649 3.90473L14.0636 3.906ZM26.5745 12.5733C26.628 13.0404 26.6649 13.5138 26.6649 13.9949C26.6649 20.9911 20.9987 26.6624 14.0013 26.6624C12.1609 26.663 10.3427 26.2613 8.67402 25.4852C7.00533 24.7091 5.52653 23.5775 4.34127 22.1696C5.72478 21.8451 7.07536 21.3935 8.37582 20.8205C8.96255 21.2609 9.60655 21.6275 10.2938 21.8896C12.3175 22.666 14.6109 22.5515 16.6524 21.8451C18.6925 21.1387 20.4973 19.8736 22.0691 18.4024C23.8712 16.7112 25.3921 14.7435 26.5745 12.5733Z" fill="black"/>
</svg>
