<svg width="32" height="32" viewBox="0 0 32 32" fill="none" xmlns="http://www.w3.org/2000/svg">
<g clip-path="url(#clip0_7977_23580)">
<path fill-rule="evenodd" clip-rule="evenodd" d="M3.00315 24.3271C3.00622 23.1459 4.01025 21.497 5.43702 19.9987C6.39059 18.9974 7.35901 18.1185 9.46992 16.3189C8.00987 15.5178 5.73883 14.5512 4.59859 13.285C4.17695 12.8168 3.41292 11.7552 3.5609 10.3375C3.86299 7.4475 7.42963 3.0642 12.4984 2.13312C14.1852 1.8246 16.122 2.0473 17.7161 2.76374C22.7179 5.01183 28.8306 10.5992 29.5863 13.325C29.8511 14.2849 29.8003 15.8151 29.3436 16.6679C28.7778 17.725 26.8184 19.8714 24.1394 22.088C19.9338 25.5636 14.0415 29.2938 9.63792 29.9235C8.2161 30.1264 6.76325 29.9148 5.744 29.3397C4.14902 28.4396 3.6196 27.2382 3.43339 26.8779C2.93861 25.9203 2.99992 24.7067 3.00099 24.3262L3.00315 24.3271ZM14.8374 11.058C14.8917 10.3883 17.5177 11.0551 17.3517 11.5857C17.1767 12.1452 14.7748 11.8265 14.8374 11.058Z" fill="url(#paint0_linear_7977_23580)"/>
<path fill-rule="evenodd" clip-rule="evenodd" d="M10.8902 15.2142C9.50837 16.381 8.58943 17.1677 7.4375 18.2206C4.66314 20.7562 2.77758 22.6862 3.75004 25.323C4.87094 28.3663 7.32865 28.212 10.2092 27.6462C17.6353 26.1812 29.8474 16.7925 29.2267 13.3291C28.7229 10.5237 21.8994 4.94481 17.8647 2.9612C16.6031 2.34093 15.1489 2.02067 13.6902 2.08904C8.13514 2.35118 3.79907 7.40566 4.01947 10.1494C4.23502 12.815 10.9734 15.1377 10.8924 15.2187L10.8902 15.2142ZM10.0567 5.90783C8.38567 7.7673 9.45395 11.3639 12.2252 13.325C15.4682 15.6194 20.7174 16.0346 21.7654 14.2656C23.7148 10.9654 21.5864 7.47358 18.4094 5.91728C15.2699 4.37897 11.1002 4.74735 10.0567 5.90626V5.90783Z" fill="url(#paint1_linear_7977_23580)"/>
<path fill-rule="evenodd" clip-rule="evenodd" d="M15.7565 13.2485C18.1027 13.5746 20.125 12.635 20.439 10.3185C20.6798 8.55398 17.979 6.62569 16.3552 6.18084C14.9991 5.80948 12.0551 6.28699 11.8572 8.85175C11.6509 11.5177 14.3869 13.0587 15.7547 13.2485H15.7565ZM14.6078 8.81441C13.0658 11.2028 16.8464 11.9374 17.4253 11.502C19.9208 9.62405 15.287 7.76233 14.6078 8.81441Z" fill="url(#paint2_radial_7977_23580)"/>
<path fill-rule="evenodd" clip-rule="evenodd" d="M13.2425 2.72193C10.5153 3.00935 9.99265 3.3602 7.52101 5.22956C6.69293 5.85613 5.16901 7.3805 4.77813 9.18915C4.62938 9.87779 4.8052 10.4724 5.30125 10.8894C6.88949 12.2248 9.54825 13.308 11.7289 14.3555C12.3676 14.6623 11.9447 15.2187 10.9147 16.1102C8.31535 18.3605 4.80197 21.0985 4.55458 23.1855C4.43898 24.1693 4.7757 25.5056 5.96965 26.1898C7.36448 26.9886 10.2594 26.4673 12.1949 25.7474C15.0201 24.6953 18.7305 22.3739 21.6766 20.0934C24.7402 17.7203 27.587 14.7048 27.7309 14.2145C27.904 13.6109 27.8867 13.0531 27.5528 12.4122C27.0283 11.4055 26.3276 10.6575 25.5746 9.81999C23.555 7.69064 21.418 5.81992 18.8591 4.38641C17.0127 3.35098 15.3884 2.49591 13.2411 2.72216L13.2425 2.72193ZM17.2488 7.4943C19.2194 8.44698 21.2426 10.9492 17.2313 12.3881C16.1405 12.7797 12.6793 11.4264 12.7872 9.57957C12.9417 6.85109 14.8433 6.33022 17.2488 7.4934L17.2488 7.4943Z" fill="url(#paint3_radial_7977_23580)"/>
</g>
<defs>
<linearGradient id="paint0_linear_7977_23580" x1="-1.18339" y1="-62.0208" x2="16.4045" y2="30.0358" gradientUnits="userSpaceOnUse">
<stop stop-color="white"/>
<stop offset="0.3421" stop-color="white"/>
<stop offset="0.52" stop-color="#BEBDF3"/>
<stop offset="0.7541" stop-color="#8F82F9"/>
<stop offset="0.8711" stop-color="#9F99C7"/>
<stop offset="1" stop-color="#524C76"/>
</linearGradient>
<linearGradient id="paint1_linear_7977_23580" x1="20.4155" y1="22.6846" x2="15.1074" y2="-1.11268" gradientUnits="userSpaceOnUse">
<stop stop-color="white"/>
<stop offset="0.3421" stop-color="white"/>
<stop offset="0.52" stop-color="#BEBDF3"/>
<stop offset="0.7541" stop-color="#8F82F9"/>
<stop offset="0.8711" stop-color="#9F99C7"/>
<stop offset="1" stop-color="#524C76"/>
</linearGradient>
<radialGradient id="paint2_radial_7977_23580" cx="0" cy="0" r="1" gradientUnits="userSpaceOnUse" gradientTransform="translate(14.1915 8.22661) scale(4.72378 3.62151)">
<stop stop-color="white"/>
<stop offset="0.3421" stop-color="white"/>
<stop offset="0.52" stop-color="#BEBDF3"/>
<stop offset="0.7541" stop-color="#8F82F9"/>
<stop offset="0.8711" stop-color="#9F99C7"/>
<stop offset="1" stop-color="#524C76"/>
</radialGradient>
<radialGradient id="paint3_radial_7977_23580" cx="0" cy="0" r="1" gradientUnits="userSpaceOnUse" gradientTransform="translate(3.42892 9.3884) rotate(90.903) scale(41.0907 35.0496)">
<stop stop-color="white"/>
<stop offset="0.3421" stop-color="white"/>
<stop offset="0.52" stop-color="#BEBDF3"/>
<stop offset="0.7541" stop-color="#8F82F9"/>
<stop offset="0.8711" stop-color="#9F99C7"/>
<stop offset="1" stop-color="#524C76"/>
</radialGradient>
<clipPath id="clip0_7977_23580">
<rect width="26.7496" height="28" fill="white" transform="translate(3 2)"/>
</clipPath>
</defs>
</svg>
