<svg width="28" height="28" viewBox="0 0 28 28" fill="none" xmlns="http://www.w3.org/2000/svg">
<g clip-path="url(#clip0_7977_23580)">
<path fill-rule="evenodd" clip-rule="evenodd" d="M0.00334278 22.3271C0.00652309 21.1459 1.04774 19.497 2.52735 17.9987C3.51624 16.9974 4.52053 16.1185 6.70962 14.3189C5.19549 13.5178 2.84034 12.5512 1.65787 11.285C1.22061 10.8168 0.428286 9.75522 0.581751 8.33746C0.895025 5.4475 4.59376 1.0642 9.85028 0.13312C11.5995 -0.175397 13.6081 0.0472982 15.2612 0.763738C20.4482 3.01183 26.7874 8.59924 27.571 11.325C27.8457 12.2849 27.7929 13.8151 27.3194 14.6679C26.7326 15.725 24.7007 17.8714 21.9225 20.088C17.5611 23.5636 11.4505 27.2938 6.88384 27.9235C5.40936 28.1264 3.9027 27.9148 2.84571 27.3397C1.19165 26.4396 0.642624 25.2382 0.44951 24.8779C-0.063594 23.9203 -1.57364e-05 22.7067 0.00110376 22.3262L0.00334278 22.3271ZM12.2759 9.05803C12.3322 8.38828 15.0555 9.05508 14.8834 9.58565C14.7018 10.1452 12.211 9.82652 12.2759 9.05803Z" fill="url(#paint0_linear_7977_23580)"/>
<path fill-rule="evenodd" clip-rule="evenodd" d="M8.18226 13.2142C6.7493 14.381 5.79632 15.1677 4.60172 16.2206C1.72461 18.7562 -0.230787 20.6862 0.777696 23.323C1.94011 26.3663 4.48884 26.212 7.47604 25.6462C15.1773 24.1812 27.8416 14.7925 27.1979 11.3291C26.6755 8.52367 19.5993 2.94481 15.4152 0.961199C14.1067 0.340926 12.5987 0.0206688 11.086 0.0890383C5.3252 0.351181 0.82854 5.40566 1.0571 8.14944C1.28063 10.815 8.26855 13.1377 8.18459 13.2187L8.18226 13.2142ZM7.31791 3.90783C5.58502 5.7673 6.69285 9.3639 9.56671 11.325C12.9299 13.6194 18.3734 14.0346 19.4603 12.2656C21.4819 8.96537 19.2746 5.47358 15.98 3.91728C12.7242 2.37897 8.40009 2.74735 7.31791 3.90626V3.90783Z" fill="url(#paint1_linear_7977_23580)"/>
<path fill-rule="evenodd" clip-rule="evenodd" d="M13.229 11.2485C15.6621 11.5746 17.7593 10.635 18.0848 8.31854C18.3346 6.55398 15.5338 4.62569 13.8499 4.18084C12.4435 3.80948 9.39052 4.28699 9.18528 6.85175C8.97132 9.51771 11.8086 11.0587 13.2271 11.2485H13.229ZM12.0377 6.81441C10.4387 9.20285 14.3592 9.93737 14.9596 9.50196C17.5475 7.62405 12.742 5.76233 12.0377 6.81441Z" fill="url(#paint2_radial_7977_23580)"/>
<path fill-rule="evenodd" clip-rule="evenodd" d="M10.6217 0.721932C7.79352 1.00935 7.2515 1.3602 4.68831 3.22956C3.82956 3.85613 2.2492 5.3805 1.84384 7.18915C1.68959 7.87779 1.87192 8.47242 2.38633 8.88939C4.0334 10.2248 6.79064 11.308 9.05203 12.3555C9.7144 12.6623 9.27588 13.2187 8.20774 14.1102C5.51207 16.3605 1.86857 19.0985 1.61201 21.1855C1.49213 22.1693 1.84132 23.5056 3.07949 24.1898C4.52598 24.9886 7.52811 24.4673 9.53528 23.7474C12.4651 22.6953 16.3129 20.3739 19.3682 18.0934C22.5453 15.7203 25.4975 12.7048 25.6468 12.2145C25.8262 11.6109 25.8083 11.0531 25.462 10.4122C24.9181 9.40553 24.1914 8.65751 23.4106 7.81999C21.3162 5.69064 19.1 3.81992 16.4463 2.38641C14.5315 1.35098 12.8471 0.495908 10.6203 0.722157L10.6217 0.721932ZM14.7764 5.4943C16.82 6.44698 18.9181 8.94921 14.7582 10.3881C13.627 10.7797 10.0376 9.42645 10.1496 7.57957C10.3097 4.85109 12.2818 4.33022 14.7764 5.4934L14.7764 5.4943Z" fill="url(#paint3_radial_7977_23580)"/>
</g>
<defs>
<linearGradient id="paint0_linear_7977_23580" x1="-4.33825" y1="-64.0208" x2="12.6635" y2="28.2638" gradientUnits="userSpaceOnUse">
<stop stop-color="white"/>
<stop offset="0.3421" stop-color="white"/>
<stop offset="0.52" stop-color="#BEBDF3"/>
<stop offset="0.7541" stop-color="#8F82F9"/>
<stop offset="0.8711" stop-color="#9F99C7"/>
<stop offset="1" stop-color="#524C76"/>
</linearGradient>
<linearGradient id="paint1_linear_7977_23580" x1="18.0604" y1="20.6846" x2="12.9248" y2="-3.19207" gradientUnits="userSpaceOnUse">
<stop stop-color="white"/>
<stop offset="0.3421" stop-color="white"/>
<stop offset="0.52" stop-color="#BEBDF3"/>
<stop offset="0.7541" stop-color="#8F82F9"/>
<stop offset="0.8711" stop-color="#9F99C7"/>
<stop offset="1" stop-color="#524C76"/>
</linearGradient>
<radialGradient id="paint2_radial_7977_23580" cx="0" cy="0" r="1" gradientUnits="userSpaceOnUse" gradientTransform="translate(11.606 6.22661) scale(4.89873 3.62151)">
<stop stop-color="white"/>
<stop offset="0.3421" stop-color="white"/>
<stop offset="0.52" stop-color="#BEBDF3"/>
<stop offset="0.7541" stop-color="#8F82F9"/>
<stop offset="0.8711" stop-color="#9F99C7"/>
<stop offset="1" stop-color="#524C76"/>
</radialGradient>
<radialGradient id="paint3_radial_7977_23580" cx="0" cy="0" r="1" gradientUnits="userSpaceOnUse" gradientTransform="translate(0.444658 7.3884) rotate(90.9364) scale(41.091 36.3474)">
<stop stop-color="white"/>
<stop offset="0.3421" stop-color="white"/>
<stop offset="0.52" stop-color="#BEBDF3"/>
<stop offset="0.7541" stop-color="#8F82F9"/>
<stop offset="0.8711" stop-color="#9F99C7"/>
<stop offset="1" stop-color="#524C76"/>
</radialGradient>
<clipPath id="clip0_7977_23580">
<rect width="27.7403" height="28" fill="white"/>
</clipPath>
</defs>
</svg>
