<svg width="28" height="28" viewBox="0 0 28 28" fill="none" xmlns="http://www.w3.org/2000/svg">
<path fill-rule="evenodd" clip-rule="evenodd" d="M6.26557 17.1596C6.50355 18.7686 6.84322 19.9836 7.58197 21.4163C8.32046 22.8485 9.94927 24.7633 11.9363 25.9028C13.9233 27.0418 17.1643 28.1058 19.3552 27.9916C21.5461 27.8777 22.5226 27.2416 23.5304 26.4359C24.5377 25.6302 26.8028 23.1779 27.5922 20.8878C28.3822 18.5982 27.8894 17.7946 27.2536 17.1302C26.6185 16.4658 25.1851 16.0148 23.2289 16.1322C21.2727 16.2497 19.1595 17.2032 19.0393 17.9912C18.8533 19.2092 21.7402 19.3775 21.2727 20.4474C21.0849 20.8783 20.3851 21.2253 18.5276 21.1812C16.6701 21.1376 14.6367 20.4287 14.164 19.3026C13.6913 18.1765 13.8979 17.1419 14.9017 16.5958C19.1409 14.29 20.5555 12.3906 20.8335 11.5268C21.1116 10.663 20.6765 9.65035 19.5766 8.87403C17.2147 7.20692 12.4651 7.95197 10.1619 9.23443C6.74344 11.1383 5.8065 14.0568 6.26557 17.1596ZM11.8428 1.41756C11.4472 2.11836 10.926 3.58187 11.4519 4.78901C11.978 5.99616 13.9683 7.36286 16.1573 7.04395C18.346 6.72483 18.279 4.04055 17.8499 2.87596C17.4617 1.82306 15.5082 0.0904193 14.1436 0.00617018C12.7789 -0.0780789 12.2386 0.716331 11.8428 1.41756ZM5.41531 5.55853C6.69683 7.03182 8.70101 7.26202 9.71837 6.9897C10.7357 6.71717 10.296 4.49201 9.68321 3.46996C8.91746 2.19346 7.13218 2.07623 6.09328 2.49216C5.05439 2.90766 4.13407 4.08523 5.41531 5.55853ZM2.12498 6.61207C0.770685 6.97949 1.16187 9.18337 1.94561 10.0588C2.72907 10.9343 5.07183 11.4196 5.9747 10.6299C6.87784 9.84013 5.75335 8.27833 5.21059 7.77305C4.66784 7.26734 3.47928 6.24465 2.12498 6.61207ZM0.113436 12.1219C0.497535 11.4332 2.26619 11.5019 3.59296 12.1015C5.26511 12.8574 5.33299 14.7536 4.34725 15.0629C3.55016 15.3131 2.13752 15.1512 1.25537 14.6021C0.373228 14.053 -0.270663 12.8103 0.113436 12.1219Z" fill="black"/>
</svg>
