<svg width="28" height="28" viewBox="0 0 28 28" fill="none" xmlns="http://www.w3.org/2000/svg">
<path d="M7.62887 22.2719C7.45352 22.0104 7.29997 21.6577 7.1754 21.2358C4.9263 18.6994 6.66381 14.9669 8.38246 12.4322C8.54719 12.1612 8.7267 11.8994 8.92176 11.649C10.233 10.0199 10.5723 8.88611 10.6731 7.35222C10.6851 7.06668 10.6615 6.68865 10.6343 6.25435C10.4956 4.0368 10.2651 0.352406 14.2217 0.0257607C19.1673 -0.382596 18.7645 4.15907 18.728 6.8218C18.7264 6.93199 18.725 7.03927 18.7239 7.14262C18.7104 8.74774 19.5482 9.84677 20.4226 10.9939C20.7419 11.4128 21.0661 11.8381 21.3555 12.2969C21.3641 12.3104 21.3727 12.3241 21.3812 12.3377C22.9091 14.5413 24.4175 17.83 22.3179 20.9494C22.0229 22.0141 21.576 22.9914 20.9796 23.7867C18.838 26.6047 16.9346 26.3187 15.4481 26.0952C14.9997 26.0278 14.5893 25.9661 14.2217 25.9971C13.6111 26.0343 13.1217 26.133 12.699 26.2184C11.0649 26.5482 10.4262 26.6771 7.62887 22.2719Z" fill="black"/>
<path d="M17.0189 2.51248C16.973 3.81771 15.5884 4.95145 13.9288 5.05625C12.2691 5.16105 10.967 4.17022 11.0129 2.86499C11.0587 1.55975 12.4433 0.426009 14.103 0.321209C15.7627 0.225937 17.0647 1.20724 17.0189 2.51248Z" fill="url(#paint0_linear_7188_15880)"/>
<path fill-rule="evenodd" clip-rule="evenodd" d="M14.0109 5.68504C14.0242 6.39484 14.3492 6.99996 14.8057 7.27326C13.3164 7.13985 11.471 7.68438 11.471 8.7147C11.448 10.4578 10.4778 12.6265 9.77954 14.1874C9.64199 14.4949 9.51498 14.7788 9.40784 15.0313C8.97548 16.1018 8.71617 17.2466 8.68545 18.3695C7.54047 16.7913 8.37241 14.7667 8.821 13.888C9.41794 12.7316 9.40645 12.5873 9.17455 12.8583C8.28585 14.3697 6.61208 17.4052 8.70795 19.2288C8.77453 20.0431 8.97291 20.8322 9.32532 21.5574C12.1312 27.2166 17.3852 24.892 19.1183 21.9576C19.3489 21.5404 19.5352 21.1367 19.6833 20.7467C19.77 20.8014 19.8629 20.8436 19.9619 20.8715C20.8329 21.1287 22.135 20.1474 22.4468 19.5377C22.8227 18.7279 22.4376 18.1753 21.1539 17.5179C21.0884 17.4855 21.0237 17.455 20.9599 17.4266C21.4522 15.3535 20.0955 13.1977 19.1266 12.2831C18.9458 12.2386 18.9204 12.341 19.2008 12.6209C19.8111 13.2056 21.1383 15.2908 20.4203 17.2314C20.3019 17.1996 20.1882 17.1773 20.0796 17.165C19.8591 15.841 19.2708 14.8109 18.8597 14.0911C18.7666 13.928 18.6826 13.7809 18.6139 13.6498C18.4755 13.3854 18.3101 13.1117 18.1346 12.8213C17.4584 11.7024 16.6333 10.3373 16.6333 8.31456C16.53 7.86951 16.11 7.57278 15.5509 7.40889C16.1998 7.278 16.6869 6.51994 16.67 5.60882C16.6517 4.62751 16.0373 3.84628 15.3038 3.86533C14.5702 3.88439 13.9834 4.70373 14.0109 5.68504ZM14.6161 5.90417C14.6069 6.44722 14.8636 6.88547 15.2029 6.88547C15.533 6.88547 15.8173 6.44722 15.8264 5.9137C15.8356 5.37064 15.5789 4.93239 15.2396 4.93239C14.9003 4.93239 14.6252 5.37064 14.6161 5.90417Z" fill="url(#paint1_linear_7188_15880)"/>
<path fill-rule="evenodd" clip-rule="evenodd" d="M12.177 7.2094C12.7088 7.18081 13.094 6.46627 13.0481 5.61834C13.0023 4.77042 12.5346 4.11304 12.0028 4.14162C11.471 4.1702 11.0859 4.88475 11.1317 5.73267C11.1775 6.5806 11.6452 7.23798 12.177 7.2094ZM12.4979 5.91369C12.5438 6.36147 12.3787 6.74256 12.1403 6.78067C11.9019 6.80925 11.6727 6.4758 11.6268 6.02802C11.581 5.58024 11.746 5.19915 11.9845 5.16104C12.2229 5.13245 12.4521 5.46591 12.4979 5.91369Z" fill="url(#paint2_linear_7188_15880)"/>
<path d="M14.7535 5.59928C14.726 5.90415 14.8635 6.15186 15.0561 6.17092C15.2487 6.18997 15.432 5.95179 15.4596 5.65644C15.4871 5.35157 15.3495 5.10386 15.157 5.08481C14.9644 5.06575 14.781 5.30394 14.7535 5.59928Z" fill="url(#paint3_linear_7188_15880)"/>
<path d="M12.2966 5.67535C12.3241 5.92305 12.2233 6.14218 12.0765 6.16124C11.9298 6.18029 11.7923 5.98974 11.7648 5.73251C11.7373 5.4848 11.8381 5.26567 11.9848 5.24662C12.1316 5.22756 12.2691 5.42764 12.2966 5.67535Z" fill="url(#paint4_linear_7188_15880)"/>
<path d="M17.9353 15.6123C17.9353 17.2891 16.3856 19.4613 13.7265 19.4423C10.9848 19.4613 9.82031 17.2891 9.82031 15.6123C9.82031 13.9355 11.6359 12.5731 13.8732 12.5731C16.1197 12.5826 17.9353 13.9355 17.9353 15.6123Z" fill="url(#paint5_linear_7188_15880)"/>
<path d="M16.4867 10.3439C16.4592 12.0778 15.368 12.4875 13.9926 12.4875C12.6172 12.4875 11.6177 12.2303 11.4985 10.3439C11.4985 9.1625 12.6172 8.47654 13.9926 8.47654C15.368 8.46701 16.4867 9.15297 16.4867 10.3439Z" fill="url(#paint6_linear_7188_15880)"/>
<path d="M8.17005 13.0115C9.06866 11.5919 10.9667 9.41016 8.52766 13.3163C6.54706 16.5365 7.79411 18.604 8.43597 19.1756C10.2882 20.8905 10.2148 22.0433 8.7569 21.1382C5.63012 19.2042 6.28115 15.9459 8.17005 13.0115Z" fill="url(#paint7_linear_7188_15880)"/>
<path d="M21.1817 13.5927C20.4023 11.9255 17.9265 7.69536 21.3009 12.6114C24.3726 17.0606 22.2178 20.157 21.8327 20.4619C21.4476 20.7668 20.1547 21.386 20.5307 20.3094C20.9158 19.2329 22.823 17.194 21.1817 13.5927Z" fill="url(#paint8_linear_7188_15880)"/>
<path d="M7.49127 26.7401C5.43732 25.6064 2.45726 26.9592 3.53925 23.8915C3.75931 23.196 3.21832 22.148 3.56676 21.4715C3.97938 20.6427 4.86881 20.8237 5.40064 20.2711C5.9233 19.6995 6.2534 18.7086 7.23453 18.8611C8.20648 19.0135 8.85751 20.2521 9.53605 21.7764C10.0404 22.8625 11.8192 24.3964 11.7 25.6159C11.5533 27.4832 9.50854 27.8358 7.49127 26.7401Z" fill="url(#paint9_linear_7188_15880)"/>
<path fill-rule="evenodd" clip-rule="evenodd" d="M5.62705 20.4945C5.12757 21.0408 4.21022 20.9098 3.84205 21.6246C3.6056 22.0836 3.86394 22.7892 3.8988 23.2919C3.94186 23.9129 3.42701 24.7929 3.6892 25.3233C3.98366 25.919 5.31393 25.8417 5.89872 25.9271C7.34231 26.138 9.72818 28.0063 11.0336 26.5153C12.3097 25.0577 9.85684 23.2131 9.25519 21.9174C8.86391 21.0384 8.27839 19.353 7.18833 19.1818C6.42006 19.0626 6.07004 20.01 5.62705 20.4945ZM7.28128 18.5406C8.63834 18.7534 9.31747 20.5129 9.81834 21.6379C10.5785 23.2694 13.1837 25.0231 11.4952 26.9517C9.96175 28.7032 7.54083 26.8218 5.81183 26.5693C4.94814 26.4431 3.58596 26.5337 3.13406 25.6196C2.74551 24.8336 3.33064 24.1218 3.27633 23.3384C3.23005 22.671 2.96591 21.9543 3.29076 21.3207C3.73545 20.4301 4.59394 20.6458 5.17744 20.0448C5.79705 19.364 6.16842 18.3677 7.28128 18.5406Z" fill="#E68C3F"/>
<path d="M21.7316 26.2161C23.2353 24.3202 26.5822 24.7108 24.3265 22.1098C23.8497 21.5477 23.9964 20.3473 23.4096 19.8328C22.7219 19.204 21.9608 19.7185 21.2639 19.3946C20.567 19.0421 19.8335 18.3656 18.9807 18.842C18.128 19.3279 18.0363 20.5855 17.9538 22.2432C17.8804 23.4341 16.8351 25.4253 17.3944 26.521C18.2013 28.2168 20.3011 27.9882 21.7316 26.2161Z" fill="url(#paint10_linear_7188_15880)"/>
<path fill-rule="evenodd" clip-rule="evenodd" d="M22.3323 19.1752C22.7179 19.1651 23.1796 19.1921 23.6133 19.5872C24.1527 20.0627 24.158 20.839 24.3613 21.489C24.6022 22.2587 25.4461 22.6984 25.3956 23.6009C25.3131 25.0763 22.758 25.4317 21.9715 26.4233C21.2158 27.3595 20.2604 27.917 19.3539 27.9922C17.9791 28.1061 16.8435 26.9501 16.924 25.5386C16.9891 24.396 17.5713 23.3578 17.6421 22.2244C17.683 21.4036 17.7272 20.6426 17.8756 20.0246C18.0255 19.4002 18.2957 18.8625 18.8306 18.5576C20.0024 17.9031 21.1343 19.2066 22.3323 19.1752ZM19.1296 19.1269C18.8125 19.3081 18.6107 19.642 18.4812 20.1816C18.35 20.7279 18.3068 21.4277 18.2651 22.2639C18.1952 23.4001 17.612 24.4374 17.547 25.577C17.4891 26.5932 18.2696 27.4315 19.3043 27.3457C20.0067 27.2875 20.817 26.8439 21.4915 26.0087C22.0943 25.2494 24.7177 24.5443 24.7725 23.5633C24.8083 22.9226 23.9656 22.3217 23.7678 21.6895C23.6129 21.1947 23.6047 20.4282 23.2083 20.0806C22.955 19.849 22.6884 19.8146 22.348 19.8235C21.3615 19.8494 20.0454 18.6167 19.1296 19.1269Z" fill="#E68C3F"/>
<path d="M21.0805 23.6819C23.4096 20.1091 21.6766 20.1377 21.0897 19.8614C20.5029 19.5756 19.8885 19.0135 19.2008 19.4041C18.5131 19.8043 18.4764 20.8332 18.4581 22.1861C18.4306 23.1579 17.6512 24.787 18.1188 25.6921C18.6873 26.7496 20.0627 25.2158 21.0805 23.6819Z" fill="url(#paint11_linear_7188_15880)"/>
<path d="M7.01425 24.1964C3.52987 21.8527 5.16203 21.0524 5.68468 20.6809C6.31737 20.2045 6.32654 19.2899 7.10595 19.3756C7.88535 19.4614 8.34382 20.4617 8.86648 21.7003C9.25159 22.5863 10.5903 23.7677 10.4895 24.7871C10.3611 25.9875 8.51804 25.1968 7.01425 24.1964Z" fill="url(#paint12_linear_7188_15880)"/>
<path d="M22.2447 19.5091C21.9697 20.0045 20.851 20.7858 20.1083 20.5762C19.3472 20.3761 18.9988 19.2614 19.1546 18.423C19.2922 17.4703 20.1083 17.4227 21.1352 17.899C22.2264 18.4135 22.5657 18.8517 22.2447 19.5091Z" fill="black"/>
<path d="M21.4933 19.2326C21.3191 19.5755 20.5855 20.1186 20.0721 19.9757C19.5586 19.8328 19.3018 19.0611 19.3843 18.4799C19.4577 17.8225 20.0079 17.7844 20.7047 18.1083C21.4566 18.4704 21.695 18.7752 21.4933 19.2326Z" fill="url(#paint13_linear_7188_15880)"/>
<path d="M12.0121 6.79962C12.3789 6.44711 13.2684 5.37053 14.9555 6.49475C15.2673 6.70435 15.524 6.7234 16.12 6.99017C17.3212 7.50464 16.7527 8.74318 15.469 9.16238C14.9188 9.3434 14.4237 10.0389 13.4334 9.9722C12.5806 9.92456 12.3606 9.3434 11.8379 9.029C10.9118 8.48594 10.7743 7.75235 11.2786 7.36173C11.7829 6.97111 11.9755 6.8282 12.0121 6.79962Z" fill="url(#paint14_linear_7188_15880)"/>
<path fill-rule="evenodd" clip-rule="evenodd" d="M11.3902 7.5177C11.1985 7.66621 11.1375 7.86369 11.2008 8.08204C11.331 8.53053 12.2698 9.14752 12.6293 9.44933C12.8337 9.62096 13.0675 9.75697 13.4452 9.77808C14.2544 9.83257 14.7037 9.21004 15.4126 8.9768C15.8789 8.82455 16.8652 8.24271 16.5385 7.57594C16.2597 7.00697 15.3204 6.97181 14.8539 6.65828C14.0508 6.12329 13.4662 6.1271 13.0498 6.27721C12.5935 6.44166 11.8036 7.19754 11.3902 7.5177ZM12.9271 5.90963C13.4688 5.71439 14.173 5.74243 15.057 6.33143C15.6379 6.72197 16.5217 6.6843 16.8722 7.39941C17.3186 8.3104 16.2369 9.11538 15.5251 9.34789C14.7628 9.59887 14.337 10.2276 13.422 10.1664C12.9477 10.1397 12.6432 9.96126 12.3939 9.75194C11.8767 9.31768 11.0028 8.90502 10.803 8.21645C10.6921 7.83458 10.8538 7.44788 11.1664 7.20577C11.6717 6.81441 12.3544 6.11604 12.9271 5.90963Z" fill="#E68C3F"/>
<path fill-rule="evenodd" clip-rule="evenodd" d="M16.2629 7.79279C16.2666 7.86431 16.2139 7.92545 16.145 7.92935C15.1745 7.98436 14.4926 9.09187 13.3966 9.09187C12.7833 9.09187 12.2978 8.79598 11.9507 8.51141C11.8808 8.45406 11.2637 7.97824 11.2637 7.85702C11.2637 7.7854 11.3196 7.72733 11.3885 7.72733C11.5174 7.72733 11.9065 8.14952 12.0513 8.2682C12.3782 8.53621 12.8637 8.83249 13.3966 8.83249C14.4816 8.83249 15.1473 7.72614 16.1315 7.67036C16.2003 7.66646 16.2591 7.72128 16.2629 7.79279Z" fill="#E68C3F"/>
<path d="M12.5804 6.70433C12.7638 6.53284 13.3415 6.06601 14.1025 6.54237C14.2676 6.63764 14.4326 6.74244 14.671 6.88535C15.157 7.1807 14.9186 7.60942 14.3318 7.87619C14.0659 7.99051 13.6257 8.23822 13.2956 8.21917C12.9288 8.18106 12.6813 7.93335 12.4429 7.77139C11.9936 7.46651 12.0211 7.20928 12.232 7.00921C12.3878 6.85677 12.5621 6.71386 12.5804 6.70433Z" fill="url(#paint15_linear_7188_15880)"/>
<defs>
<linearGradient id="paint0_linear_7188_15880" x1="14.2806" y1="0.428991" x2="13.9707" y2="4.62833" gradientUnits="userSpaceOnUse">
<stop stop-color="white" stop-opacity="0.8"/>
<stop offset="1" stop-color="white" stop-opacity="0"/>
</linearGradient>
<linearGradient id="paint1_linear_7188_15880" x1="9.85466" y1="23.3391" x2="7.55045" y2="15.779" gradientUnits="userSpaceOnUse">
<stop stop-color="#FFEED7"/>
<stop offset="1" stop-color="#BDBFC2"/>
</linearGradient>
<linearGradient id="paint2_linear_7188_15880" x1="9.85466" y1="23.3391" x2="7.55045" y2="15.779" gradientUnits="userSpaceOnUse">
<stop stop-color="#FFEED7"/>
<stop offset="1" stop-color="#BDBFC2"/>
</linearGradient>
<linearGradient id="paint3_linear_7188_15880" x1="15.1343" y1="5.1175" x2="15.0037" y2="6.09566" gradientUnits="userSpaceOnUse">
<stop stop-color="white" stop-opacity="0.65"/>
<stop offset="1" stop-color="white" stop-opacity="0"/>
</linearGradient>
<linearGradient id="paint4_linear_7188_15880" x1="12.0069" y1="5.29557" x2="12.1474" y2="6.08705" gradientUnits="userSpaceOnUse">
<stop stop-color="white" stop-opacity="0.65"/>
<stop offset="1" stop-color="white" stop-opacity="0"/>
</linearGradient>
<linearGradient id="paint5_linear_7188_15880" x1="13.8649" y1="13.4819" x2="13.8882" y2="19.0765" gradientUnits="userSpaceOnUse">
<stop stop-color="white" stop-opacity="0.8"/>
<stop offset="1" stop-color="white" stop-opacity="0"/>
</linearGradient>
<linearGradient id="paint6_linear_7188_15880" x1="13.989" y1="9.97365" x2="14.0148" y2="12.1982" gradientUnits="userSpaceOnUse">
<stop stop-color="white" stop-opacity="0.65"/>
<stop offset="1" stop-color="white" stop-opacity="0"/>
</linearGradient>
<linearGradient id="paint7_linear_7188_15880" x1="8.20695" y1="11.3466" x2="8.20695" y2="19.5102" gradientUnits="userSpaceOnUse">
<stop stop-color="white" stop-opacity="0.65"/>
<stop offset="1" stop-color="white" stop-opacity="0"/>
</linearGradient>
<linearGradient id="paint8_linear_7188_15880" x1="21.2445" y1="10.5494" x2="21.2414" y2="17.9256" gradientUnits="userSpaceOnUse">
<stop stop-color="white" stop-opacity="0.65"/>
<stop offset="1" stop-color="white" stop-opacity="0"/>
</linearGradient>
<linearGradient id="paint9_linear_7188_15880" x1="7.79876" y1="23.01" x2="6.54846" y2="27.1871" gradientUnits="userSpaceOnUse">
<stop stop-color="#FFA63F"/>
<stop offset="1" stop-color="#FFFF00"/>
</linearGradient>
<linearGradient id="paint10_linear_7188_15880" x1="19.6326" y1="21.7395" x2="22.9693" y2="26.2893" gradientUnits="userSpaceOnUse">
<stop stop-color="#FFA63F"/>
<stop offset="1" stop-color="#FFFF00"/>
</linearGradient>
<linearGradient id="paint11_linear_7188_15880" x1="20.5266" y1="18.1047" x2="19.3597" y2="23.6022" gradientUnits="userSpaceOnUse">
<stop stop-color="white" stop-opacity="0.65"/>
<stop offset="1" stop-color="white" stop-opacity="0"/>
</linearGradient>
<linearGradient id="paint12_linear_7188_15880" x1="7.54374" y1="19.4642" x2="7.77508" y2="25.6512" gradientUnits="userSpaceOnUse">
<stop stop-color="white" stop-opacity="0.65"/>
<stop offset="1" stop-color="white" stop-opacity="0"/>
</linearGradient>
<linearGradient id="paint13_linear_7188_15880" x1="20.324" y1="18.0045" x2="20.5947" y2="19.8532" gradientUnits="userSpaceOnUse">
<stop stop-color="white" stop-opacity="0.65"/>
<stop offset="1" stop-color="white" stop-opacity="0"/>
</linearGradient>
<linearGradient id="paint14_linear_7188_15880" x1="13.8697" y1="6.69661" x2="13.8923" y2="9.9524" gradientUnits="userSpaceOnUse">
<stop stop-color="#FFA63F"/>
<stop offset="1" stop-color="#FFFF00"/>
</linearGradient>
<linearGradient id="paint15_linear_7188_15880" x1="13.5133" y1="6.38874" x2="13.5072" y2="8.11029" gradientUnits="userSpaceOnUse">
<stop stop-color="white" stop-opacity="0.65"/>
<stop offset="1" stop-color="white" stop-opacity="0"/>
</linearGradient>
</defs>
</svg>
