<svg width="32" height="32" viewBox="0 0 32 32" fill="none" xmlns="http://www.w3.org/2000/svg">
<g clip-path="url(#clip0_17026_151877)">
<path d="M32 16C32 24.832 24.84 32 16 32C7.16 32 0 24.832 0 16C0 7.16 7.16 0 16 0C24.84 0 32 7.16 32 16Z" fill="#283544"/>
<path d="M5.17779 9.48255C5.02912 9.39425 4.8717 9.3501 4.68804 9.3501C4.50438 9.3501 4.33822 9.39425 4.19829 9.48255C4.04962 9.57085 3.93592 9.68564 3.84847 9.83575C3.76101 9.98586 3.71729 10.1448 3.71729 10.3214C3.71729 10.498 3.76101 10.6569 3.84847 10.8071C3.93592 10.9572 4.04962 11.072 4.19829 11.1603C4.34696 11.2486 4.50438 11.2927 4.68804 11.2927C4.8717 11.2927 5.03786 11.2486 5.17779 11.1603C5.32646 11.072 5.44016 10.9572 5.52761 10.8071C5.61507 10.6569 5.65879 10.498 5.65879 10.3214C5.65879 10.1448 5.61507 9.98586 5.52761 9.83575C5.44016 9.68564 5.32646 9.57085 5.17779 9.48255Z" fill="white"/>
<path d="M5.63229 12.2286H3.76074V19.1602H5.63229V12.2286Z" fill="white"/>
<path d="M13.1011 10.7099C12.8125 10.4273 12.4802 10.2066 12.0867 10.0565C11.6931 9.90637 11.2646 9.8269 10.7923 9.8269H7.03174V19.1603H8.9645V16.2199H10.6961C11.1859 16.2199 11.6319 16.1404 12.0342 15.9903C12.4365 15.8402 12.7863 15.6194 13.0749 15.3368C13.3635 15.0543 13.5909 14.7187 13.7571 14.3302C13.9145 13.9417 13.9932 13.5002 13.9932 13.0234C13.9932 12.5466 13.9145 12.1051 13.7658 11.7165C13.6084 11.328 13.3897 10.9925 13.1011 10.7099ZM11.5619 14.2684C11.2558 14.551 10.8273 14.7011 10.2676 14.7011H8.9645V11.381H10.2763C10.8273 11.381 11.2646 11.5223 11.5707 11.8137C11.8768 12.0962 12.0254 12.5112 12.0254 13.041C12.0254 13.5708 11.868 13.977 11.5619 14.2684Z" fill="white"/>
<path d="M19.1271 12.3699C18.6898 12.1756 18.1826 12.0785 17.5879 12.0785C16.9845 12.0785 16.4597 12.1756 16.0137 12.3699C15.5677 12.5641 15.2266 12.829 14.973 13.1646C14.7281 13.509 14.5882 13.8975 14.562 14.3478H16.2761C16.3198 14.0917 16.451 13.8886 16.6609 13.7297C16.8708 13.5708 17.1506 13.4913 17.5005 13.4913C17.859 13.4913 18.1389 13.5796 18.34 13.7562C18.5499 13.9328 18.6549 14.1889 18.6549 14.5068V14.9659L16.9232 15.0719C16.0662 15.1249 15.4103 15.3279 14.9468 15.69C14.4832 16.052 14.2559 16.5377 14.2559 17.1734C14.2559 17.5884 14.3521 17.9505 14.5532 18.2683C14.7544 18.5862 15.0255 18.8335 15.3753 19.0101C15.7251 19.1867 16.1187 19.275 16.5472 19.275C16.8358 19.275 17.1156 19.2308 17.3868 19.1337C17.6579 19.0454 17.9027 18.9041 18.1214 18.7363C18.34 18.5597 18.5149 18.3478 18.6461 18.1094H18.6811V19.169H20.4914V14.4008C20.4914 13.9328 20.369 13.5266 20.1329 13.1822C19.9055 12.829 19.5644 12.5641 19.1271 12.3699ZM18.6636 16.626C18.6636 16.8732 18.5936 17.094 18.4625 17.2882C18.3313 17.4825 18.1476 17.6326 17.9202 17.7474C17.6929 17.8533 17.448 17.9151 17.1769 17.9151C16.862 17.9151 16.6084 17.8357 16.4073 17.6856C16.2149 17.5355 16.1187 17.3324 16.1187 17.0675C16.1187 16.8202 16.2149 16.626 16.4073 16.4758C16.5997 16.3257 16.8708 16.2374 17.2206 16.2109L18.6724 16.1226V16.626H18.6636Z" fill="white"/>
<path d="M26.4036 13.4207H26.3686C26.255 13.1646 26.0975 12.935 25.8964 12.7408C25.6952 12.5465 25.4504 12.3964 25.1793 12.2816C24.9081 12.1757 24.602 12.1138 24.2697 12.1138C23.6925 12.1138 23.194 12.2551 22.7742 12.5465C22.3544 12.8379 22.0309 13.2441 21.8035 13.7827C21.5761 14.3125 21.4624 14.9483 21.4624 15.6812C21.4624 16.4229 21.5761 17.0587 21.8035 17.5973C22.0309 18.1359 22.3544 18.5421 22.7742 18.8335C23.194 19.1249 23.6838 19.2662 24.261 19.2662C24.602 19.2662 24.9081 19.2132 25.188 19.0984C25.4679 18.9924 25.7127 18.8335 25.9226 18.6392C26.1325 18.445 26.2899 18.2154 26.4036 17.9593H26.4386V19.1514H28.2839V9.83569H26.4124V13.4207H26.4036ZM26.22 16.7938C26.0975 17.1028 25.9139 17.3412 25.6865 17.509C25.4591 17.6768 25.188 17.7562 24.8819 17.7562C24.5671 17.7562 24.296 17.6768 24.0686 17.509C23.8412 17.3412 23.6663 17.1028 23.5438 16.7938C23.4214 16.4847 23.3602 16.1227 23.3602 15.6988C23.3602 15.275 23.4214 14.913 23.5438 14.6039C23.6663 14.2949 23.8412 14.0565 24.0686 13.8887C24.296 13.7209 24.5671 13.6326 24.8819 13.6326C25.188 13.6326 25.4591 13.7209 25.6865 13.8887C25.9139 14.0565 26.0888 14.2949 26.22 14.6039C26.3424 14.913 26.4124 15.275 26.4124 15.6988C26.4124 16.1227 26.3512 16.4847 26.22 16.7938Z" fill="white"/>
<path d="M15.5588 23.5635C15.3742 23.3601 15.1475 23.2075 14.8831 23.1016C14.6187 22.9956 14.3249 22.9406 13.9975 22.9406C13.6659 22.9406 13.3721 22.9956 13.1077 23.1016C12.8433 23.2075 12.6208 23.3643 12.4361 23.5635C12.2515 23.7669 12.1088 24.0085 12.008 24.2924C11.9073 24.5763 11.8569 24.8984 11.8569 25.2543C11.8569 25.6103 11.9073 25.9324 12.008 26.2163C12.1088 26.5002 12.2515 26.746 12.4361 26.9452C12.6208 27.1486 12.8475 27.3012 13.1077 27.4071C13.3721 27.5131 13.6659 27.5681 13.9975 27.5681C14.3249 27.5681 14.6229 27.5131 14.8831 27.4071C15.1475 27.3012 15.37 27.1444 15.5588 26.9452C15.7435 26.7418 15.8862 26.5002 15.9869 26.2163C16.0877 25.9324 16.138 25.6103 16.138 25.2543C16.138 24.8984 16.0877 24.5763 15.9869 24.2924C15.8904 24.0127 15.7477 23.7669 15.5588 23.5635ZM15.0426 26.0722C14.946 26.3011 14.8075 26.479 14.6271 26.6019C14.4508 26.7291 14.2367 26.7884 13.9975 26.7884C13.7541 26.7884 13.5442 26.7248 13.3637 26.6019C13.1874 26.4748 13.0489 26.3011 12.9482 26.0722C12.8517 25.8434 12.8013 25.5722 12.8013 25.2586C12.8013 24.945 12.8517 24.6738 12.9482 24.4449C13.0447 24.2161 13.1832 24.0381 13.3637 23.911C13.54 23.7839 13.7541 23.7245 13.9933 23.7245C14.2367 23.7245 14.4466 23.7881 14.6229 23.911C14.7991 24.0381 14.9377 24.2161 15.0384 24.4449C15.1349 24.6738 15.1853 24.9492 15.1853 25.2586C15.1895 25.5722 15.1391 25.8434 15.0426 26.0722Z" fill="white"/>
<path d="M19.8237 25.3347C19.6096 25.1356 19.2697 24.9872 18.7996 24.894L18.3295 24.7966C18.0651 24.7415 17.8804 24.6737 17.7629 24.5847C17.6496 24.4957 17.5908 24.3855 17.5908 24.2456C17.5908 24.1355 17.6244 24.0422 17.6873 23.9575C17.7503 23.877 17.8384 23.8134 17.956 23.7668C18.0693 23.7202 18.2036 23.699 18.3589 23.699C18.5142 23.699 18.6527 23.7244 18.7744 23.771C18.8961 23.8176 18.9927 23.8897 19.064 23.9829C19.1354 24.0761 19.1773 24.1821 19.1857 24.3092H20.0629C20.0587 24.0338 19.9832 23.7922 19.8447 23.5888C19.7062 23.3854 19.5089 23.2244 19.2571 23.1099C19.0053 22.9955 18.7073 22.9404 18.3589 22.9404C18.1113 22.9404 17.8846 22.9743 17.6789 23.0379C17.4733 23.1015 17.2928 23.1947 17.1417 23.3176C16.9906 23.4405 16.8731 23.5846 16.7891 23.7498C16.7052 23.9151 16.6632 24.1016 16.6632 24.305C16.6632 24.6398 16.7724 24.911 16.9906 25.1229C17.2089 25.3347 17.5404 25.4873 17.9811 25.5763L18.447 25.6695C18.724 25.7288 18.9213 25.8009 19.0388 25.8899C19.1563 25.9789 19.2109 26.0975 19.2109 26.2459C19.2109 26.356 19.1773 26.4535 19.106 26.5383C19.0346 26.623 18.9381 26.6908 18.8122 26.7417C18.6863 26.7925 18.5436 26.8179 18.3757 26.8179C18.2078 26.8179 18.0567 26.7925 17.9224 26.7459C17.7881 26.6993 17.6789 26.6315 17.595 26.5383C17.5111 26.4493 17.4607 26.3391 17.4397 26.2162H16.5625C16.5709 26.4959 16.6506 26.7417 16.8017 26.9408C16.9528 27.1442 17.1585 27.301 17.4229 27.407C17.6873 27.5172 17.9979 27.568 18.3505 27.568C18.7198 27.568 19.0388 27.5087 19.3074 27.3943C19.5719 27.2756 19.7775 27.1103 19.9244 26.8985C20.0671 26.6823 20.1427 26.4323 20.1427 26.1399C20.1469 25.8051 20.0378 25.5339 19.8237 25.3347Z" fill="white"/>
</g>
<defs>
<clipPath id="clip0_17026_151877">
<rect width="32" height="32" fill="white"/>
</clipPath>
</defs>
</svg>
