<svg width="28" height="28" viewBox="0 0 28 28" fill="none" xmlns="http://www.w3.org/2000/svg">
<g clip-path="url(#clip0_7188_15870)">
<path d="M28 14C28 21.728 21.735 28 14 28C6.265 28 0 21.728 0 14C0 6.265 6.265 0 14 0C21.735 0 28 6.265 28 14Z" fill="#283544"/>
<path d="M5.08552 18.8554H6.60656V12.4699H5.08552V18.8554ZM5.84299 11.6325C6.31335 11.6325 6.69208 11.2711 6.69208 10.8193C6.69208 10.3554 6.31335 10 5.84299 10C5.37873 10 5 10.3554 5 10.8193C5 11.2711 5.37873 11.6325 5.84299 11.6325Z" fill="white"/>
<path d="M11.921 10.0181C9.34932 10.0181 7.73665 11.747 7.73665 14.512C7.73665 17.2771 9.34932 19 11.921 19C14.4867 19 16.0993 17.2771 16.0993 14.512C16.0993 11.747 14.4867 10.0181 11.921 10.0181ZM11.921 11.3434C13.4909 11.3434 14.4928 12.5723 14.4928 14.512C14.4928 16.4458 13.4909 17.6747 11.921 17.6747C10.345 17.6747 9.34932 16.4458 9.34932 14.512C9.34932 12.5723 10.345 11.3434 11.921 11.3434Z" fill="white"/>
<path d="M16.9973 16.4096C17.0645 18.012 18.3962 19 20.4242 19C22.5561 19 23.9 17.9639 23.9 16.3133C23.9 15.0181 23.1425 14.2892 21.3527 13.8855L20.3387 13.6566C19.2575 13.4036 18.8115 13.0663 18.8115 12.488C18.8115 11.7651 19.4835 11.2831 20.4792 11.2831C21.4871 11.2831 22.1774 11.7711 22.2507 12.5843H23.7534C23.7167 11.0542 22.4339 10.0181 20.4914 10.0181C18.5733 10.0181 17.2111 11.0602 17.2111 12.6024C17.2111 13.8434 17.9808 14.6145 19.6057 14.9819L20.748 15.247C21.8597 15.506 22.3118 15.8675 22.3118 16.494C22.3118 17.2169 21.5726 17.7349 20.5097 17.7349C19.4346 17.7349 18.6222 17.2108 18.5244 16.4096H16.9973Z" fill="white"/>
</g>
<defs>
<clipPath id="clip0_7188_15870">
<rect width="28" height="28" fill="white"/>
</clipPath>
</defs>
</svg>
