<svg width="32" height="32" viewBox="0 0 32 32" fill="none" xmlns="http://www.w3.org/2000/svg">
<path opacity="0.26" d="M5.30599 19.4875L5.3014 13.9287V12.264H2.00049V3L15.9203 3.06783L20.2746 3.07743C25.4858 3.07743 29.9993 7.15209 29.9993 12.5335V28.9435H15.0307C9.82419 28.9435 5.30599 24.864 5.30599 19.4874V19.4875Z" fill="black"/>
<path d="M27.9998 24.6519V12.7212C27.9998 8.73529 24.6179 5.50416 20.4452 5.50416H16.1141V5.49455L4.40088 5.44165V9.79473H6.19893C7.45406 9.79473 7.67576 10.6903 7.67576 11.9298L7.68505 19.6257C7.68505 23.6116 11.067 26.8426 15.2351 26.8426H25.5262C26.8454 26.8426 27.9999 25.979 27.9999 24.6518L27.9998 24.6519Z" fill="url(#paint0_linear_7188_15919)"/>
<path opacity="0.175" d="M26.9786 25.66C24.3468 23.7855 22.4829 21.6322 20.9128 18.7817C17.8177 12.8723 18.5414 9.93866 10.8769 9.24695C8.66515 9.24695 7.19291 8.74097 4.86475 8.74097V9.57896C4.86475 9.57896 5.78477 10.0617 6.59346 10.0617C7.79937 10.0617 8.0086 10.9262 8.0086 12.1171L8.01626 19.4932C8.01626 23.323 11.2706 26.4268 15.2753 26.4268H25.158C25.8834 26.4268 26.5351 26.1314 26.9786 25.66Z" fill="url(#paint1_linear_7188_15919)"/>
<path d="M17.8193 9.9765C16.8801 9.9765 16.0458 10.3369 15.3753 11.0368C14.7052 11.7366 14.3534 12.61 14.3534 13.5957V18.5784H16.5399V13.5956C16.5399 13.2178 16.6591 12.9224 16.9202 12.6499C17.182 12.3765 17.4594 12.2527 17.8193 12.2527C18.1869 12.2527 18.46 12.376 18.7225 12.6499C18.9834 12.9223 19.1027 13.2178 19.1027 13.5956V18.5783H21.2893V13.5956C21.2893 13.2178 21.4085 12.9224 21.6695 12.6499C21.932 12.3758 22.2051 12.2527 22.5727 12.2527C22.9327 12.2527 23.21 12.3765 23.4718 12.6499C23.7328 12.9223 23.8521 13.2178 23.8521 13.5956L23.864 19.4175C23.864 20.6596 22.7197 21.7062 21.2497 21.7062L14.1988 21.6776C13.0645 21.6776 12.0955 20.5362 12.0955 19.0696V8.10608H10.0278V19.4914C10.0278 20.6993 10.4555 21.7587 11.2874 22.6153C11.9986 23.3407 12.8537 23.7701 13.8146 23.8762V23.9172H21.6656C22.8719 23.9172 23.9318 23.4535 24.787 22.5538H24.7909C25.5181 21.7816 25.9432 20.8563 26.0465 19.8148L26.0386 13.5957C26.0386 12.61 25.6868 11.7366 25.0167 11.0368C24.3462 10.3369 23.5117 9.9765 22.5727 9.9765C21.6508 9.9765 20.8442 10.3308 20.1921 10.9795C19.5417 10.3318 18.7407 9.9765 17.8193 9.9765Z" fill="black" fill-opacity="0.08"/>
<path d="M17.6447 10.0358C16.7056 10.0358 15.8711 10.3962 15.2006 11.0962C14.5305 11.7959 14.1787 12.6693 14.1787 13.655V18.6376H16.3652V13.655C16.3652 13.2772 16.4844 12.9818 16.7455 12.7093C17.0073 12.436 17.2847 12.3122 17.6447 12.3122C18.0122 12.3122 18.2854 12.4354 18.5478 12.7093C18.8089 12.9817 18.9281 13.2772 18.9281 13.655V18.6376H21.1147V13.655C21.1147 13.2772 21.2339 12.9818 21.4949 12.7093C21.7574 12.4353 22.0305 12.3122 22.3981 12.3122C22.7582 12.3122 23.0354 12.436 23.2973 12.7093C23.5583 12.9817 23.6776 13.2772 23.6776 13.655L23.6895 19.477C23.6895 20.719 22.5451 21.7657 21.0751 21.7657L14.0241 21.737C12.8897 21.737 11.9208 20.5957 11.9208 19.129V8.16541H9.85303V19.5507C9.85303 20.7587 10.2807 21.818 11.1127 22.6745C11.8238 23.4001 12.6791 23.8703 13.6399 23.9766H21.491C22.6974 23.9766 23.7574 23.5129 24.6125 22.6132H24.6164C25.3437 21.8408 25.7687 20.9156 25.8721 19.8741L25.8642 13.655C25.8642 12.6693 25.5124 11.7958 24.8421 11.0962C24.1717 10.3962 23.3372 10.0358 22.3981 10.0358C21.4763 10.0358 20.6697 10.3901 20.0174 11.0389C19.3671 10.3911 18.5661 10.0358 17.6447 10.0358Z" fill="white"/>
<path d="M15.1667 28.495C10.1963 28.495 5.8832 24.6005 5.8832 19.468L5.87883 13.2359V11.6468H2.72754V3.72864L20.1725 3.80246C25.1472 3.80246 29.4558 7.69228 29.4558 12.8294V28.495H15.1667ZM27.4313 24.2927V12.8294C27.4313 8.99974 24.1819 5.89534 20.1726 5.89534L4.75691 5.8352V9.55411H6.01762C6.87355 9.55411 7.9035 10.3854 7.9035 11.6054L7.91246 19.4634C7.91246 23.2932 11.1619 26.3976 15.1666 26.3976H25.0544C26.322 26.3976 27.4313 25.5678 27.4313 24.2927Z" fill="white"/>
<defs>
<linearGradient id="paint0_linear_7188_15919" x1="6.65317" y1="8.17241" x2="19.347" y2="21.6396" gradientUnits="userSpaceOnUse">
<stop stop-color="#C7F994"/>
<stop offset="1" stop-color="#87CF3E"/>
</linearGradient>
<linearGradient id="paint1_linear_7188_15919" x1="9.24572" y1="24.6119" x2="17.1544" y2="12.6143" gradientUnits="userSpaceOnUse">
<stop stop-color="#3D3D3D"/>
<stop offset="1" stop-opacity="0.114"/>
</linearGradient>
</defs>
</svg>
