<svg width="32" height="32" viewBox="0 0 32 32" fill="none" xmlns="http://www.w3.org/2000/svg">
<g clip-path="url(#clip0_7188_15859)">
<path d="M15.0118 18.9976C15.0118 21.3529 13.7847 22.8353 11.8247 22.8353C9.86471 22.8353 8.63765 21.3447 8.63765 18.9976C8.63765 16.6341 9.86471 15.1518 11.8247 15.1518C13.7847 15.1518 15.0118 16.6341 15.0118 18.9976ZM17.7459 10.6882L16.8894 10.7459C16.4035 10.7788 16.1894 10.9518 16.1894 11.2647C16.1894 11.5941 16.4612 11.7753 16.84 11.7753C17.3588 11.7753 17.7459 11.4376 17.7459 10.9847V10.6882ZM30 16C30 23.8153 23.8153 30 16 30C8.18471 30 2 23.8153 2 16C2 8.18471 8.18471 2 16 2C23.8153 2 30 8.18471 30 16ZM19.2447 10.5153C19.2447 11.6518 19.8706 12.3435 20.8918 12.3435C21.7565 12.3435 22.3 11.8576 22.3906 11.1659H21.7153C21.6247 11.5447 21.3282 11.7506 20.8918 11.7506C20.3153 11.7506 19.9612 11.2812 19.9612 10.5153C19.9612 9.75765 20.3153 9.30471 20.8918 9.30471C21.3529 9.30471 21.6412 9.56824 21.7153 9.90588H22.3906C22.3 9.23059 21.7729 8.72 20.8918 8.72C19.8706 8.71176 19.2447 9.40353 19.2447 10.5153ZM9.83177 8.78588V12.2776H10.5235V10.1365C10.5235 9.68353 10.8447 9.32118 11.2647 9.32118C11.6765 9.32118 11.94 9.56824 11.94 9.96353V12.2776H12.6153V10.0706C12.6153 9.65059 12.9035 9.32118 13.3565 9.32118C13.8094 9.32118 14.0318 9.55176 14.0318 10.0376V12.2776H14.7235V9.86471C14.7235 9.14 14.3118 8.71176 13.6035 8.71176C13.1176 8.71176 12.7141 8.95882 12.5412 9.33765H12.4835C12.3271 8.95882 11.9976 8.71176 11.52 8.71176C11.0506 8.71176 10.6965 8.94235 10.5482 9.33765H10.4988V8.77765L9.83177 8.78588ZM16.2388 18.9976C16.2388 15.9588 14.5424 14.0482 11.8247 14.0482C9.10706 14.0482 7.41059 15.9588 7.41059 18.9976C7.41059 22.0365 9.10706 23.9388 11.8247 23.9388C14.5424 23.9388 16.2388 22.0282 16.2388 18.9976ZM16.6671 12.3353C17.1282 12.3353 17.5071 12.1376 17.7212 11.7835H17.7788V12.2776H18.4459V9.88941C18.4459 9.15647 17.9518 8.72 17.0706 8.72C16.2718 8.72 15.7118 9.10706 15.6376 9.69176H16.3047C16.3788 9.43647 16.6506 9.29647 17.0376 9.29647C17.5071 9.29647 17.7541 9.51059 17.7541 9.89765V10.2024L16.8071 10.26C15.9753 10.3094 15.5059 10.6718 15.5059 11.3059C15.4976 11.9318 15.9918 12.3353 16.6671 12.3353ZM24.2188 21.0565C24.2188 19.6976 23.4282 18.9071 21.4353 18.4706L20.3729 18.24C19.0635 17.9518 18.5529 17.4329 18.5529 16.6835C18.5529 15.7118 19.4753 15.1271 20.6694 15.1271C21.9212 15.1271 22.7447 15.7694 22.8518 16.8235H24.0459C23.9882 15.2012 22.6129 14.0565 20.7024 14.0565C18.7176 14.0565 17.3259 15.1682 17.3259 16.7412C17.3259 18.1 18.1576 18.9729 20.0765 19.3929L21.1388 19.6235C22.4647 19.9118 23 20.4471 23 21.2459C23 22.1847 22.0529 22.8682 20.76 22.8682C19.3847 22.8682 18.4294 22.2424 18.2894 21.2129H17.0953C17.2106 22.8682 18.6024 23.9388 20.6941 23.9388C22.8271 23.9388 24.2188 22.8271 24.2188 21.0565Z" fill="#283544"/>
</g>
<defs>
<clipPath id="clip0_7188_15859">
<rect width="28" height="28" fill="white" transform="translate(2 2)"/>
</clipPath>
</defs>
</svg>
