<svg width="28" height="28" viewBox="0 0 28 28" fill="none" xmlns="http://www.w3.org/2000/svg">
<g clip-path="url(#clip0_10344_25363)">
<g clip-path="url(#clip1_10344_25363)">
<path d="M28 14C28 21.732 21.732 28 14 28C6.26802 28 0 21.732 0 14C0 6.26801 6.26802 0 14 0C21.732 0 28 6.26801 28 14Z" fill="#248BD1"/>
<path d="M13.7946 4.7725C13.7697 4.77196 13.7458 4.77677 13.7244 4.78763C12.5241 5.52537 10.7726 6.55219 10.3577 7.80905C10.2279 8.22525 10.2853 8.37927 10.3561 8.71476C10.4734 9.11843 10.7186 9.64763 10.9916 10.0874C11.1684 10.3722 11.7507 11.1239 11.7946 11.1239C12.6012 10.6119 13.4647 10.0202 14.1141 9.37946V7.22595C14.1141 5.40459 14.0949 5.04484 13.9908 4.89626C13.9517 4.82169 13.8693 4.77367 13.7946 4.7725ZM10.041 8.39863C9.99852 8.3995 9.93171 8.55948 9.89237 8.75421C9.79033 9.25917 9.33609 11.0574 9.13417 11.7567C8.97025 12.3244 8.91221 12.9341 9.00718 13.0877C9.07756 13.2016 10.2713 13.6333 11.9794 14.1626C12.8083 14.4194 12.9392 14.4143 13.1062 14.121C13.3605 13.6741 13.4001 13.7516 11.8043 11.5724C10.5447 9.8523 10.3776 9.56142 10.2063 8.79204C10.1579 8.57465 10.0834 8.3977 10.041 8.39863ZM18.7464 8.92606C18.6864 8.92486 18.6156 8.9283 18.5416 8.93687C18.0298 8.99587 16.1795 9.11925 15.4521 9.1433C14.8615 9.16283 14.2632 9.29624 14.1464 9.43405C14.0599 9.53617 14.0182 10.8047 14.0427 12.5927C14.0546 13.4604 14.1001 13.5832 14.4307 13.6514C14.9343 13.7552 14.8729 13.817 16.4524 11.6259C17.699 9.89645 17.9238 9.64769 18.6026 9.24707C18.7944 9.13386 18.9398 9.00832 18.9258 8.96821C18.917 8.94315 18.8464 8.92817 18.7464 8.92606ZM19.5845 9.08711C19.1486 9.0923 19.0198 9.19446 18.7226 9.36541C18.375 9.60176 17.947 9.99832 17.6131 10.3938C17.3969 10.65 16.8625 11.4361 16.876 11.4779C17.6122 12.0868 18.4416 12.7254 19.2517 13.145L21.2998 12.4792C23.032 11.9164 23.3679 11.787 23.4771 11.6421C23.5359 11.5819 23.5563 11.4887 23.5344 11.4173C23.5271 11.3935 23.5151 11.3722 23.4982 11.3552C22.4256 10.4417 20.9081 9.09334 19.5845 9.08711ZM4.74284 11.7983C4.70259 11.7983 4.67159 11.803 4.64448 11.8113C4.56147 11.8255 4.49034 11.8892 4.46615 11.9599C4.45808 11.9835 4.45484 12.0075 4.45858 12.0312C4.78931 13.4007 5.22451 15.384 6.29164 16.167C6.64737 16.419 6.81158 16.4121 7.15251 16.4485C7.57268 16.4616 8.1517 16.3917 8.6543 16.268C8.97984 16.1879 9.87501 15.8666 9.88858 15.8249C9.65093 14.8996 9.35482 13.8952 8.94611 13.0796L6.89798 12.4144C5.43642 11.9395 4.96015 11.7987 4.74284 11.7983ZM19.1814 13.1974C18.9391 13.1964 17.7682 13.5396 16.1811 14.0794C15.3595 14.3588 15.2569 14.44 15.2943 14.7754C15.3512 15.2865 15.2736 15.2468 17.8455 16.0718C19.8756 16.7231 20.1816 16.8606 20.7724 17.3823C20.9393 17.5298 21.1033 17.6291 21.1371 17.6034C21.1709 17.5777 21.1311 17.409 21.0485 17.2283C20.8342 16.7598 20.1446 15.0378 19.8969 14.3534C19.6958 13.7977 19.3848 13.2708 19.2176 13.2023C19.2099 13.1991 19.1975 13.1975 19.1814 13.1974ZM12.7295 15.2548C12.4302 15.2541 11.8416 15.4528 10.3182 15.954C8.29304 16.6204 7.9647 16.6893 7.18007 16.6144C6.95836 16.5933 6.76701 16.6094 6.75476 16.6501C6.74252 16.6907 6.87408 16.8038 7.04713 16.9014C7.49585 17.1545 9.06543 18.142 9.6681 18.5501C10.1574 18.8815 10.7193 19.1253 10.8948 19.0825C11.0249 19.0507 11.8042 18.0489 12.8354 16.5879C13.3358 15.879 13.3714 15.7528 13.144 15.5033C13.0032 15.349 12.9343 15.2553 12.7295 15.2548ZM14.6917 15.8757C14.6301 15.8775 14.5659 15.8993 14.4891 15.934C14.0206 16.1461 14.0342 16.0599 14.0443 18.7609C14.0523 20.8929 14.0164 21.2268 13.7028 21.9498C13.6141 22.1542 13.5701 22.3407 13.6049 22.3649C13.6398 22.3891 13.7883 22.2993 13.9346 22.1649C14.314 21.8164 15.738 20.6281 16.3124 20.1811C16.7787 19.8182 17.1841 19.3593 17.1976 19.1792C17.2076 19.0457 16.4958 17.9947 15.425 16.5625C15.0353 16.0413 14.8764 15.87 14.6917 15.8757ZM18.1227 16.4274C18.12 16.428 18.1179 16.4283 18.1168 16.429C17.7652 17.3173 17.4144 18.304 17.2657 19.204L18.5313 20.9463C19.6019 22.4198 19.8291 22.6992 20.0007 22.7583C20.0762 22.7956 20.1708 22.7861 20.232 22.7431C20.2523 22.7288 20.2691 22.711 20.2801 22.6896C20.8174 21.3873 21.631 19.5271 21.2279 18.2664C21.0883 17.8534 20.9511 17.7624 20.6967 17.5325C20.3645 17.2749 19.8553 16.9913 19.3759 16.796C19.0752 16.6734 18.2089 16.4197 18.1227 16.4274ZM12.3182 19.0798C11.8247 19.0822 11.3377 19.1092 10.8867 19.1776L9.62054 20.9198C8.54997 22.3933 8.35427 22.6958 8.35113 22.8772C8.33897 22.9605 8.37731 23.0474 8.43705 23.0923C8.45696 23.1072 8.47927 23.1177 8.50298 23.1215C9.90763 23.2301 11.928 23.4291 13.0024 22.6562C13.352 22.3957 13.3964 22.2369 13.5363 21.9239C13.6787 21.5284 13.791 20.9562 13.8287 20.44C13.8531 20.1056 13.8236 19.1553 13.7882 19.1295C13.3114 19.0995 12.8118 19.0774 12.3182 19.0798Z" fill="white"/>
</g>
</g>
<defs>
<clipPath id="clip0_10344_25363">
<rect width="28" height="28" fill="white"/>
</clipPath>
<clipPath id="clip1_10344_25363">
<rect width="28" height="28" fill="white"/>
</clipPath>
</defs>
</svg>
