<svg width="32" height="32" viewBox="0 0 32 32" fill="none" xmlns="http://www.w3.org/2000/svg">
<g clip-path="url(#clip0_10344_26295)">
<path d="M30 16C30 23.732 23.732 30 16 30C8.26802 30 2 23.732 2 16C2 8.26801 8.26802 2 16 2C23.732 2 30 8.26801 30 16Z" fill="#248BD1"/>
<path d="M15.7946 6.7725C15.7697 6.77196 15.7458 6.77677 15.7244 6.78763C14.5241 7.52537 12.7726 8.55219 12.3577 9.80905C12.2279 10.2253 12.2853 10.3793 12.3561 10.7148C12.4734 11.1184 12.7186 11.6476 12.9916 12.0874C13.1684 12.3722 13.7507 13.1239 13.7946 13.1239C14.6012 12.6119 15.4647 12.0202 16.1141 11.3795V9.22595C16.1141 7.40459 16.0949 7.04484 15.9908 6.89626C15.9517 6.82169 15.8693 6.77367 15.7946 6.7725ZM12.041 10.3986C11.9985 10.3995 11.9317 10.5595 11.8924 10.7542C11.7903 11.2592 11.3361 13.0574 11.1342 13.7567C10.9702 14.3244 10.9122 14.9341 11.0072 15.0877C11.0776 15.2016 12.2713 15.6333 13.9794 16.1626C14.8083 16.4194 14.9392 16.4143 15.1062 16.121C15.3605 15.6741 15.4001 15.7516 13.8043 13.5724C12.5447 11.8523 12.3776 11.5614 12.2063 10.792C12.1579 10.5746 12.0834 10.3977 12.041 10.3986ZM20.7464 10.9261C20.6864 10.9249 20.6156 10.9283 20.5416 10.9369C20.0298 10.9959 18.1795 11.1192 17.4521 11.1433C16.8615 11.1628 16.2632 11.2962 16.1464 11.434C16.0599 11.5362 16.0182 12.8047 16.0427 14.5927C16.0546 15.4604 16.1001 15.5832 16.4307 15.6514C16.9343 15.7552 16.8729 15.817 18.4524 13.6259C19.699 11.8964 19.9238 11.6477 20.6026 11.2471C20.7944 11.1339 20.9398 11.0083 20.9258 10.9682C20.917 10.9432 20.8464 10.9282 20.7464 10.9261ZM21.5845 11.0871C21.1486 11.0923 21.0198 11.1945 20.7226 11.3654C20.375 11.6018 19.947 11.9983 19.6131 12.3938C19.3969 12.65 18.8625 13.4361 18.876 13.4779C19.6122 14.0868 20.4416 14.7254 21.2517 15.145L23.2998 14.4792C25.032 13.9164 25.3679 13.787 25.4771 13.6421C25.5359 13.5819 25.5563 13.4887 25.5344 13.4173C25.5271 13.3935 25.5151 13.3722 25.4982 13.3552C24.4256 12.4417 22.9081 11.0933 21.5845 11.0871ZM6.74284 13.7983C6.70259 13.7983 6.67159 13.803 6.64448 13.8113C6.56147 13.8255 6.49034 13.8892 6.46615 13.9599C6.45808 13.9835 6.45484 14.0075 6.45858 14.0312C6.78931 15.4007 7.22451 17.384 8.29164 18.167C8.64737 18.419 8.81158 18.4121 9.15251 18.4485C9.57268 18.4616 10.1517 18.3917 10.6543 18.268C10.9798 18.1879 11.875 17.8666 11.8886 17.8249C11.6509 16.8996 11.3548 15.8952 10.9461 15.0796L8.89798 14.4144C7.43642 13.9395 6.96015 13.7987 6.74284 13.7983ZM21.1814 15.1974C20.9391 15.1964 19.7682 15.5396 18.1811 16.0794C17.3595 16.3588 17.2569 16.44 17.2943 16.7754C17.3512 17.2865 17.2736 17.2468 19.8455 18.0718C21.8756 18.7231 22.1816 18.8606 22.7724 19.3823C22.9393 19.5298 23.1033 19.6291 23.1371 19.6034C23.1709 19.5777 23.1311 19.409 23.0485 19.2283C22.8342 18.7598 22.1446 17.0378 21.8969 16.3534C21.6958 15.7977 21.3848 15.2708 21.2176 15.2023C21.2099 15.1991 21.1975 15.1975 21.1814 15.1974ZM14.7295 17.2548C14.4302 17.2541 13.8416 17.4528 12.3182 17.954C10.293 18.6204 9.9647 18.6893 9.18007 18.6144C8.95836 18.5933 8.76701 18.6094 8.75476 18.6501C8.74252 18.6907 8.87408 18.8038 9.04713 18.9014C9.49585 19.1545 11.0654 20.142 11.6681 20.5501C12.1574 20.8815 12.7193 21.1253 12.8948 21.0825C13.0249 21.0507 13.8042 20.0489 14.8354 18.5879C15.3358 17.879 15.3714 17.7528 15.144 17.5033C15.0032 17.349 14.9343 17.2553 14.7295 17.2548ZM16.6917 17.8757C16.6301 17.8775 16.5659 17.8993 16.4891 17.934C16.0206 18.1461 16.0342 18.0599 16.0443 20.7609C16.0523 22.8929 16.0164 23.2268 15.7028 23.9498C15.6141 24.1542 15.5701 24.3407 15.6049 24.3649C15.6398 24.3891 15.7883 24.2993 15.9346 24.1649C16.314 23.8164 17.738 22.6281 18.3124 22.1811C18.7787 21.8182 19.1841 21.3593 19.1976 21.1792C19.2076 21.0457 18.4958 19.9947 17.425 18.5625C17.0353 18.0413 16.8764 17.87 16.6917 17.8757ZM20.1227 18.4274C20.12 18.428 20.1179 18.4283 20.1168 18.429C19.7652 19.3173 19.4144 20.304 19.2657 21.204L20.5313 22.9463C21.6019 24.4198 21.8291 24.6992 22.0007 24.7583C22.0762 24.7956 22.1708 24.7861 22.232 24.7431C22.2523 24.7288 22.2691 24.711 22.2801 24.6896C22.8174 23.3873 23.631 21.5271 23.2279 20.2664C23.0883 19.8534 22.9511 19.7624 22.6967 19.5325C22.3645 19.2749 21.8553 18.9913 21.3759 18.796C21.0752 18.6734 20.2089 18.4197 20.1227 18.4274ZM14.3182 21.0798C13.8247 21.0822 13.3377 21.1092 12.8867 21.1776L11.6205 22.9198C10.55 24.3933 10.3543 24.6958 10.3511 24.8772C10.339 24.9605 10.3773 25.0474 10.4371 25.0923C10.457 25.1072 10.4793 25.1177 10.503 25.1215C11.9076 25.2301 13.928 25.4291 15.0024 24.6562C15.352 24.3957 15.3964 24.2369 15.5363 23.9239C15.6787 23.5284 15.791 22.9562 15.8287 22.44C15.8531 22.1056 15.8236 21.1553 15.7882 21.1295C15.3114 21.0995 14.8118 21.0774 14.3182 21.0798Z" fill="white"/>
</g>
<defs>
<clipPath id="clip0_10344_26295">
<rect width="28" height="28" fill="white" transform="translate(2 2)"/>
</clipPath>
</defs>
</svg>
