<svg width="32" height="32" viewBox="0 0 32 32" fill="none" xmlns="http://www.w3.org/2000/svg">
<g clip-path="url(#clip0_10344_26088)">
<circle cx="16" cy="16" r="14" fill="#650A23"/>
<path d="M21.2553 8.69634C20.5805 8.69634 20.0867 8.95204 19.7724 9.4223V7H19.2905V11.1064H19.7726C19.7726 9.8924 20.3117 9.17757 21.2555 9.17757C22.1992 9.17757 22.7384 9.8924 22.7384 11.1064C22.7384 12.3203 22.1991 13.0352 21.2553 13.0352C20.5443 13.0352 20.0631 12.6293 19.8694 11.9096H19.3693C19.5859 12.934 20.2459 13.5164 21.2568 13.5164C22.5072 13.5164 23.2215 12.624 23.2215 11.1062C23.2215 9.58846 22.507 8.69601 21.2568 8.69601" fill="white"/>
<path d="M16.6113 13.0303C15.6675 13.0303 15.128 12.3178 15.128 11.1066H18.5756C18.5756 9.58886 17.8614 8.69641 16.6109 8.69641C15.3605 8.69641 14.6465 9.58886 14.6465 11.1066C14.6465 12.6244 15.3607 13.5168 16.6113 13.5168C17.6215 13.5168 18.2816 12.9341 18.4988 11.91H17.9967C17.8031 12.6263 17.3216 13.0303 16.6113 13.0303ZM16.6113 9.18265C17.4218 9.18265 17.9341 9.70873 18.0614 10.6244H15.1606C15.2887 9.70873 15.8009 9.18265 16.6113 9.18265Z" fill="white"/>
<path d="M10.0067 13.4276L11.2339 9.53483L12.4616 13.4276H13.0038L14.4675 8.78516H13.9621L12.7326 12.6841L11.5033 8.78516H10.9642L9.73521 12.6841L8.50575 8.78516H8L9.46403 13.4276H10.0067Z" fill="white"/>
<path d="M17.1001 21.3498C17.1001 23.2166 18.3837 24.1499 20.2515 24.1499C22.3522 24.1499 23.4032 23.3334 23.4032 21.933C23.4032 20.325 22.3522 19.9876 20.2515 19.3905C18.8011 19.0087 17.9628 18.63 17.9628 17.714C17.9628 16.6436 18.7653 16.1472 20.2399 16.1472H20.2386C21.6238 16.1472 22.538 16.6311 22.538 18.0836H23.1686C23.1686 16.2172 22.0008 15.5168 20.2502 15.5168C18.3824 15.5168 17.3322 16.2172 17.3322 17.6168C17.3322 18.9794 18.3824 19.5071 20.2496 20.0393C21.7992 20.4675 22.7718 20.6583 22.7718 21.9332C22.7718 22.9998 21.8498 23.5202 20.2432 23.5202H20.2422C18.8032 23.5202 17.7305 22.8744 17.7305 21.3505L17.1001 21.3498Z" fill="white"/>
<path d="M12.3137 15.5168C11.4601 15.5174 10.6258 15.771 9.91636 16.2456C9.20689 16.7203 8.65407 17.3946 8.32779 18.1834C8.0015 18.9721 7.91642 19.8399 8.08328 20.6771C8.25014 21.5142 8.66145 22.283 9.26523 22.8864C9.869 23.4898 10.6381 23.9007 11.4754 24.067C12.3126 24.2333 13.1803 24.1477 13.9689 23.8209C14.7575 23.4941 15.4314 22.9409 15.9056 22.2311C16.3798 21.5213 16.6329 20.6869 16.6329 19.8333C16.6328 19.2662 16.521 18.7048 16.3038 18.181C16.0867 17.6571 15.7685 17.1812 15.3674 16.7804C14.9663 16.3795 14.4902 16.0617 13.9662 15.8449C13.4423 15.6281 12.8807 15.5166 12.3137 15.5168ZM12.3137 23.5204C11.5845 23.5201 10.8717 23.3037 10.2656 22.8984C9.65938 22.493 9.18699 21.9171 8.90813 21.2433C8.62927 20.5695 8.55646 19.8282 8.6989 19.113C8.84135 18.3979 9.19265 17.741 9.70839 17.2255C10.2241 16.71 10.8812 16.359 11.5964 16.2169C12.3116 16.0748 13.0529 16.1479 13.7265 16.4271C14.4002 16.7063 14.9759 17.1789 15.381 17.7853C15.786 18.3917 16.0021 19.1045 16.0021 19.8337C16.0018 20.8116 15.6131 21.7493 14.9216 22.4406C14.23 23.132 13.2922 23.5204 12.3143 23.5204" fill="white"/>
</g>
<defs>
<clipPath id="clip0_10344_26088">
<rect width="28" height="28" fill="white" transform="translate(2 2)"/>
</clipPath>
</defs>
</svg>
