<svg width="24" height="24" viewBox="0 0 24 24" fill="none" xmlns="http://www.w3.org/2000/svg">
<path fill-rule="evenodd" clip-rule="evenodd" d="M6.71397 5.04016C5.98005 5.46422 5.30378 6.49985 5.30378 8.43863V15.5586C5.30378 17.4974 5.98005 18.533 6.71397 18.9571C7.4477 19.381 8.68233 19.4498 10.3623 18.4805L16.5423 14.9205C16.5425 14.9204 16.5427 14.9202 16.5429 14.9201C16.543 14.9201 16.543 14.92 16.5431 14.92C18.222 13.951 18.7806 12.8469 18.7806 11.9986C18.7806 11.1502 18.2219 10.046 16.5424 9.07684C16.5423 9.07682 16.5423 9.0768 16.5423 9.07678L10.3623 5.51678C8.68233 4.54742 7.4477 4.61621 6.71397 5.04016ZM11.6288 3.32001C9.47896 2.07977 7.23393 1.81117 5.44538 2.84459C3.6568 3.87803 2.76807 5.95741 2.76807 8.43863V15.5586C2.76807 18.0398 3.6568 20.1192 5.44538 21.1527C7.23415 22.1862 9.47952 21.9174 11.6296 20.6768L17.8096 17.1168C19.96 15.8759 21.3163 14.0652 21.3163 11.9986C21.3163 9.93207 19.96 8.12133 17.8096 6.88048L11.6296 3.32048C11.6294 3.32039 11.6293 3.3203 11.6291 3.32022C11.629 3.32015 11.6289 3.32008 11.6288 3.32001Z" fill="#12121B"/>
</svg>
