<svg width="24" height="24" viewBox="0 0 24 24" fill="none" xmlns="http://www.w3.org/2000/svg">
<path fill-rule="evenodd" clip-rule="evenodd" d="M21.9944 7.81V12.5H17.9144C17.7944 12.49 17.5344 12.34 17.4744 12.23L16.4344 10.26C16.0244 9.48 15.3144 9.04 14.5544 9.08C13.7944 9.12 13.1444 9.63 12.8144 10.46L11.4344 13.92L11.2344 13.4C10.7444 12.13 9.34435 11.17 7.96435 11.17L1.99435 11.2V7.81C1.99435 4.17 4.16435 2 7.80435 2H16.1844C19.8244 2 21.9944 4.17 21.9944 7.81ZM21.9944 16.1899V13.9999H17.9144C17.2444 13.9999 16.4544 13.5199 16.1444 12.9299L15.1044 10.9599C14.8244 10.4299 14.4244 10.4599 14.2044 11.0099L11.9044 16.8199C11.6544 17.4699 11.2344 17.4699 10.9744 16.8199L9.83435 13.9399C9.56435 13.2399 8.72435 12.6699 7.97435 12.6699L1.99435 12.6999L1.99436 12.7001H1.96436V15.0001C1.96436 15.35 1.97436 15.69 1.99435 16.01L1.99436 16.0101L1.99435 16.1899C1.99435 19.7699 4.09435 21.9299 7.62435 21.9899C7.73435 21.9999 7.85435 21.9999 7.96435 21.9999H15.9644C16.1144 21.9999 16.2644 21.9999 16.4044 21.9899C19.9144 21.9099 21.9944 19.7599 21.9944 16.1899Z" fill="#12121B"/>
</svg>
