<svg width="36" height="38" viewBox="0 0 36 38" fill="none" xmlns="http://www.w3.org/2000/svg">
<path d="M34.0369 24.3499C32.8303 28.1555 30.3384 31.398 27.0071 33.4973C23.6759 35.5966 19.7226 36.4157 15.8546 35.808C11.9866 35.2003 8.45638 33.2054 5.89551 30.1804C3.33464 27.1554 1.91024 23.2975 1.87719 19.2972C1.84413 15.2968 3.20457 11.4149 5.71509 8.34608C8.2256 5.27725 11.7224 3.22174 15.5797 2.54732C19.4371 1.87291 23.4034 2.62359 26.7689 4.66506C30.1344 6.70653 32.6795 9.90557 33.9488 13.6898H35.8074C34.523 9.40528 31.773 5.73651 28.0601 3.35436C24.3472 0.972205 19.9196 0.0358486 15.5869 0.71651C11.2542 1.39717 7.30588 3.64937 4.464 7.06126C1.62212 10.4732 0.0765502 14.8168 0.109904 19.2978C0.143257 23.7789 1.75331 28.0979 4.64565 31.4652C7.53798 34.8325 11.5193 37.023 15.8617 37.6362C20.204 38.2494 24.6172 37.2443 28.2942 34.8046C31.9712 32.365 34.6663 28.6539 35.8867 24.3499H34.0369Z" fill="#12121B"/>
<path d="M34.4279 17.2811L33.4865 16.7827L29.7949 24.0691C29.6036 23.8763 29.3758 23.7256 29.1254 23.6262C28.875 23.5268 28.6074 23.4808 28.3389 23.491C28.0705 23.5013 27.807 23.5675 27.5645 23.6857C27.322 23.8039 27.1058 23.9716 26.9291 24.1784L23.4379 19.4058C23.415 19.3701 23.3834 19.344 23.3592 19.3103C23.4233 19.1138 23.4573 18.9084 23.4601 18.7013C23.4644 18.4053 23.4054 18.1119 23.2872 17.8417C23.1691 17.5714 22.9946 17.3308 22.776 17.1367C22.5574 16.9426 22.3 16.7996 22.0217 16.7177C21.7434 16.6359 21.451 16.6172 21.1649 16.6629C20.8789 16.7086 20.606 16.8176 20.3654 16.9824C20.1248 17.1471 19.9224 17.3635 19.7721 17.6166C19.6219 17.8697 19.5276 18.1532 19.4957 18.4474C19.4638 18.7416 19.4952 19.0394 19.5876 19.3199C19.5674 19.3488 19.5405 19.3701 19.5204 19.4003L17.0681 23.722C16.6958 23.3843 16.2122 23.2036 15.7147 23.2164C15.2172 23.2291 14.743 23.4344 14.3878 23.7907L11.14 18.2579C11.2196 18.0397 11.2615 17.8089 11.2637 17.576C11.2542 17.0433 11.0404 16.5357 10.6685 16.1625C10.2966 15.7892 9.79624 15.5801 9.27505 15.5801C8.75387 15.5801 8.2535 15.7892 7.88159 16.1625C7.50969 16.5357 7.29595 17.0433 7.28637 17.576C7.28637 17.5822 7.28637 17.5877 7.28637 17.5939C7.21913 17.6537 7.15592 17.7004 7.09137 17.7664L1.28906 23.8223L2.04688 24.5785L7.64544 18.7356C7.79637 18.9594 7.99005 19.1496 8.21481 19.2949C8.43956 19.4401 8.69075 19.5373 8.95324 19.5807C9.21573 19.624 9.48409 19.6126 9.74215 19.5471C10.0002 19.4816 10.2426 19.3634 10.4548 19.1996L13.8142 24.9256C13.7698 25.2025 13.7819 25.4858 13.85 25.7577C13.9181 26.0296 14.0405 26.284 14.2097 26.5051C14.3788 26.7261 14.5909 26.9089 14.8327 27.0419C15.0744 27.1748 15.3405 27.2551 15.6141 27.2777C15.8877 27.3002 16.1629 27.2646 16.4224 27.1729C16.6818 27.0812 16.9199 26.9355 17.1214 26.745C17.323 26.5546 17.4838 26.3234 17.5936 26.0662C17.7034 25.809 17.7598 25.5314 17.7593 25.2507C17.7579 25.0884 17.7371 24.9268 17.6974 24.7696L20.2432 20.2843C20.596 20.5787 21.0385 20.7373 21.4938 20.7326C21.9492 20.7278 22.3885 20.5599 22.7352 20.2582L26.4389 25.3208C26.4287 25.3892 26.422 25.458 26.4187 25.5271C26.4283 26.0598 26.642 26.5673 27.0139 26.9406C27.3859 27.3139 27.8862 27.523 28.4074 27.523C28.9286 27.523 29.429 27.3139 29.8009 26.9406C30.1728 26.5673 30.3865 26.0598 30.3961 25.5271C30.3928 25.4471 30.3847 25.3675 30.3719 25.2885L34.4279 17.2811ZM9.27068 19.1549C8.9648 19.1549 8.66579 19.0622 8.41146 18.8885C8.15712 18.7148 7.9589 18.4679 7.84184 18.179C7.72479 17.8901 7.69416 17.5722 7.75383 17.2655C7.81351 16.9588 7.9608 16.6771 8.1771 16.456C8.39339 16.2349 8.66896 16.0843 8.96896 16.0233C9.26897 15.9623 9.57993 15.9936 9.86253 16.1133C10.1451 16.2329 10.3867 16.4356 10.5566 16.6956C10.7265 16.9556 10.8172 17.2612 10.8172 17.5739C10.8172 17.7816 10.7772 17.9871 10.6995 18.179C10.6218 18.3708 10.5079 18.5451 10.3643 18.6919C10.2207 18.8387 10.0502 18.9551 9.86253 19.0346C9.67489 19.114 9.47378 19.1549 9.27068 19.1549ZM15.771 26.842C15.4651 26.842 15.1661 26.7493 14.9117 26.5756C14.6574 26.4019 14.4592 26.155 14.3421 25.8661C14.2251 25.5772 14.1944 25.2593 14.2541 24.9526C14.3138 24.6459 14.4611 24.3642 14.6774 24.1431C14.8937 23.922 15.1692 23.7714 15.4692 23.7104C15.7692 23.6494 16.0802 23.6807 16.3628 23.8004C16.6454 23.9201 16.8869 24.1227 17.0569 24.3827C17.2268 24.6427 17.3175 24.9484 17.3175 25.261C17.3175 25.6804 17.1546 26.0825 16.8645 26.379C16.5745 26.6755 16.1811 26.842 15.771 26.842ZM21.4744 20.2555C21.1685 20.2555 20.8695 20.1627 20.6152 19.989C20.3609 19.8153 20.1626 19.5684 20.0456 19.2795C19.9285 18.9906 19.8979 18.6727 19.9576 18.366C20.0173 18.0593 20.1645 17.7776 20.3808 17.5565C20.5971 17.3354 20.8727 17.1848 21.1727 17.1238C21.4727 17.0628 21.7837 17.0941 22.0663 17.2138C22.3489 17.3335 22.5904 17.5361 22.7603 17.7961C22.9303 18.0561 23.021 18.3618 23.021 18.6745C23.021 19.0938 22.858 19.4959 22.568 19.7924C22.278 20.0889 21.8846 20.2555 21.4744 20.2555ZM28.4084 27.1053C28.1025 27.1053 27.8035 27.0126 27.5492 26.8389C27.2949 26.6651 27.0966 26.4182 26.9796 26.1293C26.8625 25.8404 26.8319 25.5226 26.8916 25.2159C26.9512 24.9092 27.0985 24.6275 27.3148 24.4064C27.5311 24.1853 27.8067 24.0347 28.1067 23.9737C28.4067 23.9127 28.7177 23.944 29.0003 24.0637C29.2829 24.1833 29.5244 24.386 29.6943 24.646C29.8643 24.906 29.955 25.2116 29.955 25.5243C29.955 25.9436 29.792 26.3458 29.502 26.6423C29.212 26.9387 28.8186 27.1053 28.4084 27.1053Z" fill="#12121B"/>
</svg>
