<svg width="24" height="24" viewBox="0 0 24 24" fill="none" xmlns="http://www.w3.org/2000/svg">
<path fill-rule="evenodd" clip-rule="evenodd" d="M7.5 2H17.5C20.5 2 22.5 3.5 22.5 7V14.01C22.5 17.51 20.5 19.01 17.5 19.01H13.93C13.34 19.01 12.86 18.49 12.94 17.9C13.04 17.19 13.02 16.45 12.87 15.69C12.34 13.09 10.2 11.02 7.58 10.59C6.27 10.38 5.02 10.56 3.92 11.04C3.25 11.33 2.5 10.87 2.5 10.14V7C2.5 3.5 4.5 2 7.5 2ZM14.84 10.09L17.97 7.59C18.29 7.33 18.34 6.85 18.08 6.53C17.83 6.2 17.35 6.15 17.03 6.41L13.9 8.91C13.14 9.52 11.85 9.52 11.09 8.91L7.96 6.41C7.64 6.15 7.17 6.21 6.91 6.53C6.66 6.85 6.71 7.33 7.03 7.59L10.16 10.09C10.81 10.62 11.66 10.88 12.5 10.88C13.34 10.88 14.18 10.62 14.84 10.09ZM1.5 17C1.5 14.23 3.74 12 6.5 12C9.27 12 11.5 14.24 11.5 17C11.5 19.76 9.26 22 6.5 22C3.74 22 1.5 19.77 1.5 17ZM6.5 14.96H4.46C4.08 14.96 3.78 15.27 3.78 15.64C3.78 16.01 4.08 16.32 4.46 16.32H6.5C6.88 16.32 7.18 16.01 7.18 15.64C7.18 15.27 6.88 14.96 6.5 14.96ZM3.78 18.36C3.78 18.73 4.08 19.04 4.46 19.04H8.54C8.92 19.04 9.23 18.73 9.23 18.36C9.23 17.99 8.93 17.68 8.55 17.68H4.46C4.09 17.68 3.78 17.99 3.78 18.36Z" fill="#12121B"/>
</svg>
