<svg width="24" height="24" viewBox="0 0 24 24" fill="none" xmlns="http://www.w3.org/2000/svg">
<path fill-rule="evenodd" clip-rule="evenodd" d="M16.1237 3.95145L19.6437 7.47145C21.7237 9.54145 22.0637 11.1915 20.7837 12.9815H20.7737V12.9915C20.4937 13.3815 20.1337 13.7915 19.6437 14.2915L13.9837 19.9415C12.6837 21.2415 11.7137 22.0015 10.5837 22.0015C9.45374 22.0015 8.43374 21.2115 7.17374 19.9415L3.64374 16.4315C2.29374 15.0815 1.21374 13.8415 1.62374 12.3815V12.3515V12.3415V12.3315C1.62374 12.3315 1.63374 12.3315 1.63374 12.3215C1.86374 11.5015 2.49374 10.7615 3.64374 9.61145L9.30374 3.95145C11.3037 1.96145 12.9637 0.801451 16.1237 3.95145ZM18.6037 11.3715H18.6137C19.4337 11.5315 20.1137 10.6615 19.6937 9.93145C19.6837 9.93145 19.6837 9.92145 19.6837 9.92145C19.4637 9.53145 19.1037 9.08145 18.5637 8.55145L15.0537 5.03145C12.8137 2.80145 12.1937 3.23145 10.3737 5.03145L4.72374 10.6815C4.49374 10.9115 4.28374 11.1215 4.10374 11.3215C4.12874 11.3165 4.15624 11.3115 4.18374 11.3065C4.21124 11.3015 4.23874 11.2965 4.26374 11.2915C4.39374 11.2715 4.51374 11.2515 4.64374 11.2215C5.21374 11.1115 5.78374 11.0215 6.36374 10.9315L6.36378 10.9314C6.51377 10.9114 6.66375 10.8914 6.82374 10.8715C7.39374 10.8015 7.97374 10.7415 8.55374 10.7015L8.55456 10.7014C8.67429 10.6914 8.79403 10.6814 8.92374 10.6715C9.69374 10.6215 10.4737 10.5815 11.2537 10.5815C11.8937 10.5815 12.5437 10.6015 13.1837 10.6415H13.2637C13.9937 10.6815 14.7237 10.7515 15.4437 10.8415H15.4837C16.2037 10.9315 16.9137 11.0415 17.6137 11.1715C17.6303 11.1715 17.6437 11.1745 17.6559 11.1772C17.6658 11.1794 17.6747 11.1815 17.6837 11.1815C17.9937 11.2415 18.3037 11.3015 18.6037 11.3715ZM20.0337 16.0014C20.7737 16.0014 21.1037 16.4014 21.4837 16.8714C22.2837 17.8614 22.6337 18.9314 22.5037 19.9714C22.3537 21.1714 21.3337 22.0014 20.0337 22.0014C18.7337 22.0014 17.7137 21.1714 17.5637 19.9814C17.4337 18.9414 17.7937 17.8614 18.5937 16.8714C18.9637 16.4014 19.2937 16.0014 20.0337 16.0014Z" fill="#12121B"/>
</svg>
