<svg width="24" height="24" viewBox="0 0 24 24" fill="none" xmlns="http://www.w3.org/2000/svg">
<path fill-rule="evenodd" clip-rule="evenodd" d="M10.4824 8.53953V3.99953C10.4824 2.58953 9.84242 2.01953 8.25242 2.01953H4.21242C2.62242 2.01953 1.98242 2.58953 1.98242 3.99953V8.52953C1.98242 9.94953 2.62242 10.5095 4.21242 10.5095H8.25242C9.84242 10.5195 10.4824 9.94953 10.4824 8.53953ZM21.9824 3.99953V8.53953C21.9824 9.94953 21.3424 10.5195 19.7524 10.5095H15.7124C14.1224 10.5095 13.4824 9.94953 13.4824 8.52953V3.99953C13.4824 2.58953 14.1224 2.01953 15.7124 2.01953H19.7524C21.3424 2.01953 21.9824 2.58953 21.9824 3.99953ZM18.2324 16.7695H20.4824C20.8924 16.7695 21.2324 17.1095 21.2324 17.5195C21.2324 17.9295 20.8924 18.2695 20.4824 18.2695H18.2324V20.5195C18.2324 20.9295 17.8924 21.2695 17.4824 21.2695C17.0724 21.2695 16.7324 20.9295 16.7324 20.5195V18.2695H14.4824C14.0724 18.2695 13.7324 17.9295 13.7324 17.5195C13.7324 17.1095 14.0724 16.7695 14.4824 16.7695H16.7324V14.5195C16.7324 14.1095 17.0724 13.7695 17.4824 13.7695C17.8924 13.7695 18.2324 14.1095 18.2324 14.5195V16.7695ZM10.4824 15.7495V19.7895C10.4824 21.3795 9.84242 22.0195 8.25242 22.0195H4.21242C2.62242 22.0195 1.98242 21.3795 1.98242 19.7895V15.7495C1.98242 14.1595 2.62242 13.5195 4.21242 13.5195H8.25242C9.84242 13.5195 10.4824 14.1595 10.4824 15.7495Z" fill="#12121B"/>
</svg>
