<svg width="24" height="24" viewBox="0 0 24 24" fill="none" xmlns="http://www.w3.org/2000/svg">
<path d="M15.2592 22.0004C15.1992 22.0004 15.1292 21.9904 15.0692 21.9704C13.0592 21.4004 10.9492 21.4004 8.93918 21.9704C8.56918 22.0704 8.17918 21.8604 8.07918 21.4904C7.96918 21.1204 8.18918 20.7304 8.55918 20.6304C10.8192 19.9904 13.1992 19.9904 15.4592 20.6304C15.8292 20.7404 16.0492 21.1204 15.9392 21.4904C15.8392 21.8004 15.5592 22.0004 15.2592 22.0004Z" fill="#0C0C0D"/>
<path d="M19.2107 6.35952C18.1707 4.25952 16.1607 2.70952 13.8307 2.19952C11.3907 1.65952 8.8907 2.23952 6.9807 3.77952C5.0607 5.30952 3.9707 7.59952 3.9707 10.0495C3.9707 12.6395 5.5207 15.3495 7.8607 16.9195V17.7495C7.8507 18.0295 7.8407 18.4595 8.1807 18.8095C8.5307 19.1695 9.0507 19.2095 9.4607 19.2095H14.5907C15.1307 19.2095 15.5407 19.0595 15.8207 18.7795C16.2007 18.3895 16.1907 17.8895 16.1807 17.6195V16.9195C19.2807 14.8295 21.2307 10.4195 19.2107 6.35952ZM13.7207 11.6195L12.6507 13.4795C12.5107 13.7195 12.2607 13.8595 12.0007 13.8595C11.8707 13.8595 11.7407 13.8295 11.6307 13.7595C11.2707 13.5495 11.1507 13.0895 11.3507 12.7395L12.2007 11.2595H11.3607C10.8607 11.2595 10.4507 11.0395 10.2307 10.6695C10.0107 10.2895 10.0307 9.82952 10.2807 9.38952L11.3507 7.52952C11.5607 7.16952 12.0207 7.04952 12.3707 7.24952C12.7307 7.45952 12.8507 7.91952 12.6507 8.26952L11.8007 9.74952H12.6407C13.1407 9.74952 13.5507 9.96952 13.7707 10.3395C13.9907 10.7195 13.9707 11.1895 13.7207 11.6195Z" fill="#0C0C0D"/>
</svg>
