<svg width="24" height="24" viewBox="0 0 24 24" fill="none" xmlns="http://www.w3.org/2000/svg">
<path fill-rule="evenodd" clip-rule="evenodd" d="M18.3644 2H19.9644C20.5144 2 20.9644 2.45 20.9644 3V18C20.9644 18.55 20.5144 19 19.9644 19H18.3644C17.8144 19 17.3644 18.55 17.3644 18V3C17.3644 2.45 17.8144 2 18.3644 2ZM12.7644 5.19001H11.1644C10.6144 5.19001 10.1644 5.64001 10.1644 6.19001V18C10.1644 18.55 10.6144 19 11.1644 19H12.7644C13.3144 19 13.7644 18.55 13.7644 18V6.19001C13.7644 5.64001 13.3144 5.19001 12.7644 5.19001ZM3.96436 8.38002H5.56436C6.11436 8.38002 6.56436 8.82002 6.56436 9.38002V18C6.56436 18.55 6.11436 19 5.56436 19H3.96436C3.41436 19 2.96436 18.55 2.96436 18V9.38002C2.96436 8.83002 3.41436 8.38002 3.96436 8.38002ZM2.96436 22.75H20.9644C21.3744 22.75 21.7144 22.41 21.7144 22C21.7144 21.59 21.3744 21.25 20.9644 21.25H2.96436C2.55436 21.25 2.21436 21.59 2.21436 22C2.21436 22.41 2.55436 22.75 2.96436 22.75Z" fill="#12121B"/>
</svg>
