<svg width="16" height="16" viewBox="0 0 16 16" xmlns="http://www.w3.org/2000/svg"><title>Logo</title><defs><linearGradient x1="17.075%" y1="15.546%" x2="91.164%" y2="102.897%" id="a"><stop stop-color="#27A0FF" offset="0%"/><stop stop-color="#BD47FF" offset="100%"/></linearGradient><linearGradient x1="31.854%" y1="108.676%" x2="80.27%" y2="-22.64%" id="b"><stop stop-color="#9A38FB" offset="0%"/><stop stop-color="#D13075" offset="100%"/></linearGradient><linearGradient x1="-20.344%" y1="188.816%" x2="69.135%" y2="44.927%" id="c"><stop stop-color="#405DC6" offset="0%"/><stop stop-color="#405DC6" stop-opacity="0" offset="100%"/></linearGradient><linearGradient x1="53.152%" y1="100.916%" x2="49.661%" y2="-10.078%" id="d"><stop stop-color="#0892FF" offset="0%"/><stop stop-color="#A51FFF" offset="90.48%"/><stop stop-color="#A51FFF" offset="100%"/></linearGradient><linearGradient x1="30.091%" y1="52.14%" x2="104.824%" y2="49.808%" id="e"><stop stop-color="#005EB1" offset="0%"/><stop stop-color="#8900E4" offset="87.3%"/><stop stop-color="#8900E4" offset="92.7%"/><stop stop-color="#8900E4" offset="100%"/></linearGradient><linearGradient x1="-3.569%" y1="87.283%" x2="72.461%" y2="30.753%" id="f"><stop stop-color="#902EFF" offset="0%"/><stop stop-color="#FF5858" offset="100%"/></linearGradient><linearGradient x1="18.434%" y1="91.317%" x2="104.292%" y2="-4.226%" id="g"><stop stop-color="#A966FF" offset="0%"/><stop stop-color="#F14E59" offset="100%"/></linearGradient><linearGradient x1="-8.342%" y1="96.6%" x2="150.549%" y2="-66.638%" id="h"><stop stop-color="#9D6DD7" offset="0%"/><stop stop-color="#EC2F48" offset="100%"/></linearGradient><linearGradient x1="23.09%" y1="115.914%" x2="62.336%" y2="14.131%" id="i"><stop stop-color="#A554FF" offset="0%"/><stop stop-color="#FF788E" offset="100%"/></linearGradient><linearGradient x1="56.138%" y1="25.772%" x2="42.702%" y2="68.231%" id="j"><stop stop-color="#FF224E" offset="0%"/><stop stop-color="#FFA2A3" offset="100%"/></linearGradient><linearGradient x1="55.893%" y1="20.311%" x2="42.189%" y2="112.778%" id="k"><stop stop-color="#FA4F57" offset="0%"/><stop stop-color="#E0ADE8" offset="100%"/></linearGradient><linearGradient x1="3.211%" y1="100.89%" x2="64.632%" y2="26.831%" id="l"><stop stop-color="#27A0FF" offset="0%"/><stop stop-color="#BD47FF" offset="100%"/></linearGradient><linearGradient x1="66.132%" y1="85.984%" x2="42.194%" y2="31.451%" id="m"><stop stop-color="#79C5FF" offset="0%"/><stop stop-color="#9DD5FF" stop-opacity=".813" offset="18.69%"/><stop stop-color="#C7E7FF" stop-opacity=".56" offset="43.99%"/><stop stop-color="#E6F4FF" stop-opacity=".331" offset="66.87%"/><stop stop-color="#F8FCFF" stop-opacity=".137" offset="86.31%"/><stop stop-color="#FFF" stop-opacity="0" offset="100%"/></linearGradient><linearGradient x1="-.886%" y1="88.099%" x2="72.681%" y2="30.284%" id="n"><stop stop-color="#FFF" offset="0%"/><stop stop-color="#FFF" stop-opacity="0" offset="100%"/></linearGradient><linearGradient x1="18.549%" y1="91.138%" x2="104.17%" y2="-4.241%" id="o"><stop stop-color="#FFF" offset="0%"/><stop stop-color="#FFF" stop-opacity=".879" offset="12.11%"/><stop stop-color="#FFF" stop-opacity="0" offset="100%"/></linearGradient><linearGradient x1="23.071%" y1="115.846%" x2="62.354%" y2="13.92%" id="p"><stop stop-color="#FFF" offset="0%"/><stop stop-color="#FFF" stop-opacity=".997" offset=".32%"/><stop stop-color="#FFF" stop-opacity="0" offset="100%"/></linearGradient><linearGradient x1="56.138%" y1="25.772%" x2="42.702%" y2="68.231%" id="q"><stop stop-color="#FFF" offset="0%"/><stop stop-color="#FFF" stop-opacity="0" offset="100%"/></linearGradient><linearGradient x1="19.9%" y1="61.976%" x2="61.006%" y2="41.061%" id="r"><stop stop-color="#FFF" offset="0%"/><stop stop-color="#FFF" offset=".637%"/><stop stop-color="#FFF" offset="5.56%"/><stop stop-color="#FFF" stop-opacity=".865" offset="18.29%"/><stop stop-color="#FFF" stop-opacity="0" offset="100%"/></linearGradient><linearGradient x1="55.893%" y1="20.311%" x2="42.189%" y2="112.778%" id="s"><stop stop-color="#FFF" offset="0%"/><stop stop-color="#FFF" stop-opacity="0" offset="100%"/></linearGradient><linearGradient x1="53.224%" y1="-35.981%" x2="48.116%" y2="100.044%" id="t"><stop stop-color="#FFF" stop-opacity="0" offset="0%"/><stop stop-color="#FFF" offset="100%"/></linearGradient><linearGradient x1="-3.644%" y1="75.692%" x2="89.699%" y2="30.688%" id="u"><stop stop-color="#FFF" stop-opacity="0" offset="0%"/><stop stop-color="#FFF" offset="100%"/></linearGradient><linearGradient x1="69.836%" y1="-72.22%" x2="42.127%" y2="98.601%" id="v"><stop stop-color="#FFF" stop-opacity="0" offset="0%"/><stop stop-color="#FFF" offset="100%"/></linearGradient><linearGradient x1="192.979%" y1="31.771%" x2="-19.727%" y2="58.958%" id="w"><stop stop-color="#FFF" offset="0%"/><stop stop-color="#FFF" stop-opacity="0" offset="100%"/></linearGradient><linearGradient x1="43.126%" y1="71.092%" x2="65.646%" y2="24.779%" id="x"><stop stop-color="#FFF" offset="0%"/><stop stop-color="#FFF" stop-opacity=".857" offset="14.34%"/><stop stop-color="#FFF" stop-opacity="0" offset="100%"/></linearGradient></defs><g fill="none"><path d="M14.983 9.134L12.236 1.99 5.089.005.019 6.203l2.315 7.54h.005l7.47 1.186 5.174-5.795z" fill="url(#a)" transform="translate(0 .5)"/><path fill="url(#b)" d="M.02 6.203l2.774.108L5.089.005z" transform="translate(0 .5)"/><path fill="url(#c)" d="M.02 6.214l2.774.11L5.089.005z" transform="translate(0 .5)"/><path fill="url(#d)" d="M.02 6.203l2.317 7.603.457-7.495z" transform="translate(0 .5)"/><path fill="url(#e)" d="M9.61 12.443l-7.273 1.363 7.475 1.186z" transform="translate(0 .5)"/><path d="M2.794 6.311c.002.026 8.503-2.884 8.503-2.884L5.09.003 2.794 6.31z" fill="url(#f)" transform="translate(0 .5)"/><path fill="url(#g)" d="M2.794 6.311l6.817 6.132 1.696-9.03z" transform="translate(0 .5)"/><path fill="url(#h)" opacity=".79" d="M9.61 12.443l.202 2.55 5.17-5.859z" transform="translate(0 .5)"/><path fill="url(#i)" d="M9.61 12.443l5.373-3.306-3.686-5.707z" transform="translate(0 .5)"/><path d="M5.089.005l7.144 1.988c.013.003-.936 1.437-.936 1.437L5.09.005z" fill="url(#j)" transform="translate(0 .5)"/><path fill="url(#k)" d="M12.233 1.993l-.936 1.437 3.686 5.704z" transform="translate(0 .5)"/><path d="M2.794 6.311l6.817 6.132-7.274 1.363.457-7.495z" fill="url(#l)" transform="translate(0 .5)"/><path fill="url(#m)" opacity=".6" d="M.015 6.195l2.781.098L5.09.005z" transform="translate(0 .5)"/><path d="M.012 6.311l8.504-2.87L2.307.015z" opacity=".18" transform="translate(2.781 .5)" fill="url(#n)"/><path d="M.012 2.884L6.82 9.029 8.516.003z" opacity=".51" transform="translate(2.781 3.927)" fill="url(#o)"/><path d="M0 9.021L5.372 5.69 1.686.003z" opacity=".21" transform="translate(9.61 3.927)" fill="url(#p)"/><path d="M.022.005l7.145 1.988c.013.003-.936 1.437-.936 1.437L.022.005z" opacity=".18" transform="translate(5.066 .5)" fill="url(#q)"/><path d="M5.089.005l7.144 1.988c.013.003-.936 1.437-.936 1.437L5.09.005z" fill="url(#r)" transform="translate(0 .5)"/><path d="M.959.016L.022 1.453l3.686 5.704z" opacity=".19" transform="translate(11.275 2.477)" fill="url(#s)"/><path fill="url(#t)" opacity=".3" d="M9.61 12.461l-.081-.073 1.676-8.93.092-.028z" transform="translate(0 .5)"/><path fill="url(#u)" opacity=".2" d="M9.61 12.443l.028-.13 5.295-3.258.05.08z" transform="translate(0 .5)"/><path fill="url(#v)" opacity=".34" d="M2.873 6.29l-.08.021L5.09.005l.067.045z" transform="translate(0 .5)"/><path fill="url(#w)" opacity=".5" d="M2.844 6.361l-.05-.05 8.503-2.881-.015.079z" transform="translate(0 .5)"/><path d="M.959.016L.022 1.453l3.686 5.704z" opacity=".84" transform="translate(11.275 2.477)" fill="url(#x)"/></g></svg>