<svg width="40" height="40" fill="none" xmlns="http://www.w3.org/2000/svg"><g clip-path="url(#clip0_1_2424)"><ellipse cx="19.997" cy="19.996" rx="18.437" ry="18.433" fill="#fff"/><path fill-rule="evenodd" clip-rule="evenodd" d="M19.915 31.94c-2.695-1.305-4.913-3.015-6.6-5.086a17.02 17.02 0 01-3.123-5.959 18.747 18.747 0 01-.73-6.574c3.756-2.62 7.31-3.225 9.127-3.351h.026c.628-.05 1.066-.05 1.228-.05h.146c.162 0 .602.004 1.228.05h.036c1.816.128 5.368.736 9.12 3.351a18.652 18.652 0 01-.71 6.493 17.029 17.029 0 01-3.114 5.998c-1.69 2.09-3.922 3.813-6.634 5.129zm-.196-15.869a2.906 2.906 0 00-2.688 2.615v-.004a2.901 2.901 0 001.76 2.951v3.29c0 .22.18.4.4.4h1.482a.4.4 0 00.4-.4v-3.286a2.905 2.905 0 00-1.354-5.566z" fill="#fff"/><path fill-rule="evenodd" clip-rule="evenodd" d="M19.893 33.645c-7.04-3.278-12.05-10.238-11.93-18.426.007-.642.05-1.274.125-1.905v-.056a20.067 20.067 0 0123.744.022c.074.73.11 1.465.104 2.199-.066 8.146-5.101 15.028-12.043 18.166zM18.59 10.968c-1.817.126-5.371.732-9.127 3.351a18.747 18.747 0 00.73 6.577 17.019 17.019 0 003.124 5.956c1.686 2.072 3.903 3.781 6.6 5.087 2.711-1.316 4.943-3.04 6.633-5.129a17.03 17.03 0 003.114-5.998c.616-2.106.857-4.304.71-6.493-3.752-2.615-7.304-3.223-9.12-3.35h-.036c-.628-.05-1.066-.05-1.228-.05h-.146c-.162 0-.604.003-1.228.05h-.026z" fill="url(#paint0_linear_1_2424)"/><path d="M7.962 15.219c0-.642.05-1.274.118-1.898v-.138c.02-.166.04-.332.064-.495.224-1.6.643-3.166 1.248-4.663a20.092 20.092 0 015.02-7.253l-.076.02-.186.068a20.041 20.041 0 00-8 33.602c.4.122.8.232 1.218.33 2.58.598 5.251.68 7.862.24a18.902 18.902 0 004.495-1.308l.08-.038.044-.02.048-.022C12.854 30.367 7.842 23.407 7.962 15.22z" fill="url(#paint1_linear_1_2424)"/><path d="M25.72.849A20.078 20.078 0 0014.43.773a20.092 20.092 0 00-5.02 7.252 19.723 19.723 0 00-1.312 5.159v.082a20.067 20.067 0 0123.744.014l.13.1c.2.155.414.315.614.48a20.166 20.166 0 013.314 3.399c.138.181.272.365.4.55a19.906 19.906 0 013.14 6.862C41.93 14.346 35.902 3.879 25.72.849z" fill="url(#paint2_linear_1_2424)"/><path d="M36.296 17.817l-.4-.55a20.16 20.16 0 00-3.314-3.4c-.2-.164-.4-.324-.614-.48l-.13-.1c.074.731.109 1.466.104 2.2-.066 8.146-5.101 15.028-12.043 18.166l-.048.022-.044.02-.08.038a18.904 18.904 0 01-4.495 1.307c-2.611.44-5.283.358-7.862-.24-.42-.098-.836-.2-1.246-.33a20.059 20.059 0 0033.318-9.783 19.908 19.908 0 00-3.146-6.87z" fill="url(#paint3_linear_1_2424)"/><path d="M18.775 21.633v3.286c0 .22.18.4.4.4h1.482a.4.4 0 00.4-.4v-3.286a2.905 2.905 0 10-2.298 0h.016z" fill="url(#paint4_linear_1_2424)"/><mask id="a" style="mask-type:alpha" maskUnits="userSpaceOnUse" x="6" y="13" width="34" height="28"><path d="M36.296 17.817l-.4-.55a20.16 20.16 0 00-3.314-3.4c-.2-.164-.4-.324-.614-.48l-.13-.1c.074.731.109 1.466.104 2.2-.066 8.146-5.101 15.028-12.043 18.166l-.048.022-.044.02-.08.038a18.904 18.904 0 01-4.495 1.307c-2.611.44-5.283.358-7.862-.24-.42-.098-.836-.2-1.246-.33a20.059 20.059 0 0033.318-9.783 19.908 19.908 0 00-3.146-6.87z" fill="#fff"/></mask><g mask="url(#a)"><ellipse opacity=".17" cx="12.603" cy="12.615" rx="12.603" ry="12.615" transform="rotate(-.362 -1049.944 -3069.313)" fill="url(#paint5_radial_1_2424)"/><ellipse opacity=".2" cx="12.769" cy="12.783" rx="12.769" ry="12.783" transform="rotate(-.362 377.455 1740.336)" fill="url(#paint6_radial_1_2424)"/><ellipse opacity=".38" cx="12.603" cy="12.615" rx="12.603" ry="12.615" transform="rotate(-.362 3817.825 -2311.165)" fill="url(#paint7_radial_1_2424)"/><ellipse opacity=".05" cx="19.893" cy="12.736" rx="12.025" ry="8.57" fill="url(#paint8_radial_1_2424)"/></g></g><defs><linearGradient id="paint0_linear_1_2424" x1="7.96" y1="33.647" x2="31.938" y2="33.647" gradientUnits="userSpaceOnUse"><stop stop-color="#E6E6E6"/><stop offset=".16" stop-color="#F6F6F6"/><stop offset=".3" stop-color="#fff"/><stop offset=".7" stop-color="#fff"/><stop offset=".84" stop-color="#F6F6F6"/><stop offset="1" stop-color="#E6E6E6"/></linearGradient><linearGradient id="paint1_linear_1_2424" x1="-2.154" y1="3.955" x2="6.457" y2="36.606" gradientUnits="userSpaceOnUse"><stop stop-color="#FF7800"/><stop offset=".6" stop-color="#FF7800"/><stop offset=".76" stop-color="#FC6F00"/><stop offset="1" stop-color="#F55A00"/></linearGradient><linearGradient id="paint2_linear_1_2424" x1="6.508" y1="22.93" x2="38.559" y2="27.618" gradientUnits="userSpaceOnUse"><stop stop-color="#5E29DD"/><stop offset=".35" stop-color="#8050FF"/><stop offset="1" stop-color="#8050FF"/></linearGradient><linearGradient id="paint3_linear_1_2424" x1="24.221" y1="9.108" x2="4.108" y2="35.358" gradientUnits="userSpaceOnUse"><stop stop-color="#F3AA0B"/><stop offset=".4" stop-color="#F1C80B"/><stop offset="1" stop-color="#F1C80B"/></linearGradient><linearGradient id="paint4_linear_1_2424" x1="20.595" y1="27.378" x2="26.322" y2="21.176" gradientUnits="userSpaceOnUse"><stop stop-color="#2D364C"/><stop offset="1" stop-color="#4E5D85"/></linearGradient><radialGradient id="paint5_radial_1_2424" cx="0" cy="0" r="1" gradientUnits="userSpaceOnUse" gradientTransform="matrix(12.49088 -2.01839 2.0202 12.50203 13.119 12.4)"><stop stop-color="#fff"/><stop offset="1" stop-color="#fff" stop-opacity=".01"/></radialGradient><radialGradient id="paint6_radial_1_2424" cx="0" cy="0" r="1" gradientUnits="userSpaceOnUse" gradientTransform="rotate(.36 -2028.792 2038.942) scale(12.779 12.7929)"><stop stop-color="#fff"/><stop offset="1" stop-color="#fff" stop-opacity=".01"/></radialGradient><radialGradient id="paint7_radial_1_2424" cx="0" cy="0" r="1" gradientUnits="userSpaceOnUse" gradientTransform="matrix(12.49088 -2.01839 2.0202 12.50203 13.058 12.479)"><stop stop-color="#fff"/><stop offset="1" stop-color="#fff" stop-opacity=".01"/></radialGradient><radialGradient id="paint8_radial_1_2424" cx="0" cy="0" r="1" gradientUnits="userSpaceOnUse" gradientTransform="matrix(11.993 0 0 8.54701 17.45 13.022)"><stop stop-color="#fff"/><stop offset="1" stop-color="#fff" stop-opacity=".01"/></radialGradient><clipPath id="clip0_1_2424"><path fill="#fff" d="M0 0h40v40H0z"/></clipPath></defs></svg>