<svg width="32" height="32" viewBox="0 0 32 32" fill="none" xmlns="http://www.w3.org/2000/svg">
<path d="M28.7074 7.66641L29.4595 5.82259C29.4595 5.82259 28.5133 4.80364 27.3488 3.63912C26.1843 2.4746 23.7339 3.1539 23.7339 3.1539L20.9439 0H11.1183L8.32833 3.17817C8.32833 3.17817 5.87799 2.49886 4.71347 3.66338C3.54895 4.8279 2.60278 5.84685 2.60278 5.84685L3.35486 7.69068L2.40869 10.4079C2.40869 10.4079 5.22294 21.0341 5.53834 22.3442C6.19338 24.8916 6.63007 25.8863 8.47389 27.1964C10.3177 28.5064 13.6414 30.7384 14.1994 31.0781C14.7332 31.4177 15.4367 32 16.0433 32C16.6498 32 17.3291 31.4177 17.8871 31.0781C18.4208 30.7384 21.7688 28.4822 23.6126 27.1964C25.4565 25.9105 25.8932 24.9158 26.5482 22.3442C26.8878 21.0341 29.6778 10.4079 29.6778 10.4079L28.7074 7.66641Z" fill="url(#paint0_linear_9085_19208)"/>
<path d="M22.9578 5.19189C22.9578 5.19189 26.5484 9.53457 26.5484 10.4807C26.5484 11.4269 26.0875 11.6453 25.6265 12.1305C25.1656 12.6157 23.1762 14.7264 22.9336 14.9933C22.6667 15.2601 22.1572 15.6726 22.4484 16.4246C22.7637 17.1525 23.2247 18.0986 22.7152 19.0691C22.2057 20.0152 21.3324 20.6703 20.7744 20.549C20.2164 20.4519 18.882 19.7484 18.3968 19.433C17.9116 19.1176 16.3832 17.856 16.3832 17.3708C16.3832 16.8856 17.9844 16.0122 18.2755 15.8181C18.5666 15.624 19.901 14.8477 19.9252 14.5566C19.9495 14.2654 19.9495 14.1684 19.5371 13.4163C19.1489 12.6642 18.4211 11.6695 18.5424 11.0145C18.6637 10.3594 19.8039 10.0198 20.6288 9.7044C21.4537 9.38901 23.0306 8.80675 23.2247 8.7097C23.4188 8.61266 23.3703 8.53988 22.7637 8.46709C22.1572 8.41857 20.4832 8.17596 19.7069 8.39431C18.9305 8.61266 17.6447 8.92805 17.5234 9.09788C17.4264 9.2677 17.3293 9.2677 17.4264 9.87422C17.5234 10.4565 18.1057 13.3193 18.1542 13.8287C18.2027 14.3382 18.324 14.6779 17.766 14.7992C17.2323 14.9205 16.3104 15.1388 15.995 15.1388C15.6796 15.1388 14.7577 14.9205 14.2239 14.7992C13.6902 14.6779 13.7872 14.3382 13.8358 13.8287C13.8843 13.3193 14.4423 10.4807 14.5636 9.87422C14.6606 9.29196 14.5879 9.2677 14.4666 9.09788C14.3695 8.92805 13.0594 8.61266 12.2831 8.39431C11.5067 8.17596 9.83274 8.39431 9.22622 8.46709C8.6197 8.51562 8.57118 8.61266 8.76526 8.7097C8.95935 8.80675 10.5363 9.38901 11.3612 9.7044C12.186 10.0198 13.3263 10.3594 13.4476 11.0145C13.5689 11.6695 12.8653 12.6642 12.4529 13.4163C12.0647 14.1684 12.0405 14.2412 12.0647 14.5566C12.089 14.8477 13.4233 15.624 13.7145 15.8181C14.0056 16.0122 15.6068 16.8856 15.6068 17.3708C15.6068 17.856 14.0784 19.1176 13.5932 19.433C13.1079 19.7484 11.7979 20.4277 11.2156 20.549C10.6576 20.646 9.78422 20.0152 9.27474 19.0691C8.76526 18.1229 9.22622 17.1767 9.54161 16.4246C9.857 15.6968 9.32326 15.2844 9.05639 14.9933C8.8623 14.7021 6.89718 12.5914 6.43622 12.1305C5.97527 11.6453 5.53857 11.4027 5.53857 10.4807C5.53857 9.55883 9.12917 5.19189 9.12917 5.19189C9.12917 5.19189 12.1618 5.77415 12.5742 5.77415C12.9866 5.77415 13.86 5.43449 14.6849 5.16763C15.5098 4.90076 16.0435 4.90076 16.0435 4.90076C16.0435 4.90076 16.5772 4.90076 17.4021 5.16763C18.227 5.43449 19.1004 5.77415 19.5128 5.77415C19.9252 5.77415 22.9578 5.19189 22.9578 5.19189V5.19189Z" fill="white"/>
<path d="M20.2647 21.8104C20.4831 21.956 20.3618 22.2228 20.1434 22.3441C19.9493 22.4897 17.2079 24.6004 16.9652 24.843C16.6984 25.0856 16.3102 25.4495 16.0433 25.4495C15.7765 25.4495 15.3883 25.0613 15.1214 24.843C14.8546 24.6004 12.1373 22.4897 11.9433 22.3441C11.7492 22.1986 11.6036 21.9317 11.822 21.8104C12.0403 21.6648 12.7439 21.3252 13.69 20.8157C14.6605 20.3062 15.8492 19.8938 16.0433 19.8938C16.2374 19.8938 17.4262 20.3062 18.3966 20.8157C19.3428 21.3252 20.0221 21.6891 20.2647 21.8104V21.8104Z" fill="white"/>
<path d="M23.7339 3.17817L20.9439 0H11.1182L8.32824 3.17817C8.32824 3.17817 5.8779 2.49886 4.71338 3.66338C4.71338 3.66338 7.98859 3.37225 9.10458 5.19181C9.10458 5.19181 12.1372 5.77407 12.5496 5.77407C12.9621 5.77407 13.8354 5.43442 14.6603 5.16755C15.4852 4.90068 16.0189 4.90068 16.0189 4.90068C16.0189 4.90068 16.5527 4.90068 17.3775 5.16755C18.2024 5.43442 19.0758 5.77407 19.4882 5.77407C19.9006 5.77407 22.9332 5.19181 22.9332 5.19181C24.0492 3.37225 27.3244 3.66338 27.3244 3.66338C26.1842 2.49886 23.7339 3.17817 23.7339 3.17817" fill="url(#paint1_linear_9085_19208)"/>
<defs>
<linearGradient id="paint0_linear_9085_19208" x1="2.40847" y1="15.9937" x2="29.6564" y2="15.9937" gradientUnits="userSpaceOnUse">
<stop stop-color="#FF5500"/>
<stop offset="0.4099" stop-color="#FF5500"/>
<stop offset="0.582" stop-color="#FF2000"/>
<stop offset="1" stop-color="#FF2000"/>
</linearGradient>
<linearGradient id="paint1_linear_9085_19208" x1="5.20898" y1="2.8817" x2="27.3408" y2="2.8817" gradientUnits="userSpaceOnUse">
<stop stop-color="#FF452A"/>
<stop offset="1" stop-color="#FF2000"/>
</linearGradient>
</defs>
</svg>
