<svg width="32" height="32" viewBox="0 0 32 32" fill="none" xmlns="http://www.w3.org/2000/svg">
<path d="M16.0003 2.36023C23.5335 2.36023 29.6403 8.46707 29.6403 16.0003C29.6403 23.5334 23.5335 29.6402 16.0003 29.6402C8.46719 29.6402 2.36035 23.5334 2.36035 16.0003C2.36035 8.46707 8.46719 2.36023 16.0003 2.36023Z" fill="#DE5833"/>
<path d="M16 32C24.8365 32 32 24.8365 32 16C32 7.16347 24.8365 0 16 0C7.16347 0 0 7.16347 0 16C0 24.8365 7.16347 32 16 32ZM16 30.6667C7.89981 30.6667 1.33333 24.1002 1.33333 16C1.33333 7.89981 7.89981 1.33333 16 1.33333C24.1002 1.33333 30.6667 7.89981 30.6667 16C30.6667 24.1002 24.1002 30.6667 16 30.6667Z" fill="#DE5833"/>
<path d="M9.35579 6.79073C9.35316 6.56135 9.51976 6.43291 9.7411 6.3429C9.63979 6.35947 9.54274 6.38483 9.45535 6.424C9.22459 6.52858 9.05209 6.92456 9.05372 7.11201C10.174 6.99876 11.8306 7.07711 13.042 7.43869C13.1314 7.42613 13.2208 7.41358 13.3116 7.40316C12.1033 6.86669 10.6668 6.65953 9.35579 6.79073Z" fill="#D5D7D8"/>
<path d="M9.58517 5.4122C9.6104 5.40768 9.63601 5.40454 9.66137 5.40027C9.41969 5.43027 9.29226 5.51665 9.11084 5.54641C9.30783 5.56386 10.0542 5.91226 10.5233 6.10385C10.5891 6.07886 10.6483 6.05112 10.6967 6.01835C10.4535 5.98244 9.8492 5.4363 9.58517 5.4122Z" fill="#D5D7D8"/>
<path d="M10.7501 8.12488C10.6829 8.15074 10.6191 8.17773 10.5639 8.20674C8.73775 9.16882 7.93109 11.416 8.41182 14.1088C8.85062 16.5593 10.6491 24.9318 11.4726 28.8698C11.713 28.9543 11.9563 29.0327 12.2027 29.1039C11.4693 25.5584 9.46769 16.2678 9.00065 13.6585C8.5272 11.004 8.98784 9.09927 10.7501 8.12488Z" fill="#D5D7D8"/>
<path d="M18.1396 27.4421C18.1094 27.4622 18.0735 27.481 18.0352 27.4993C18.0069 27.6093 17.9635 27.6927 17.9004 27.7346C17.5232 27.9848 16.458 28.1109 15.8955 27.9848C15.7987 27.9634 15.7254 27.9278 15.6681 27.879C14.7078 28.4122 13.3268 29.1221 13.0463 28.9621C12.6081 28.7109 12.5446 25.3901 12.6081 24.5752C12.6544 23.96 14.8154 24.9565 15.8666 25.4791C16.099 25.262 16.6684 25.1168 17.1723 25.0674C16.4109 23.2142 15.8493 21.0944 16.1935 19.5912C15.7177 19.2597 15.0871 18.4907 15.2184 17.688C15.3196 17.0771 16.8983 15.9213 18.016 15.8515C19.1363 15.7808 19.4854 15.7968 20.4188 15.5733C20.4655 15.5621 20.5168 15.5498 20.5706 15.5369C21.1451 13.5172 19.7672 10.0034 18.2302 8.46582C17.7291 7.96475 16.9588 7.64937 16.0907 7.48289C15.7569 7.02476 15.2184 6.58672 14.4561 6.18107C13.0405 5.42953 11.2911 5.12357 9.66134 5.40028C9.63598 5.40455 9.61037 5.40769 9.58513 5.41221C9.84916 5.43631 10.4534 5.98245 10.6966 6.01836C10.6483 6.05113 10.589 6.07887 10.5232 6.10386C10.295 6.19074 9.98476 6.24347 9.74081 6.3429C9.51947 6.43292 9.35287 6.56136 9.3555 6.79074C10.6665 6.65954 12.103 6.86669 13.3113 7.40317C13.2205 7.41359 13.1311 7.42614 13.0418 7.4387C12.1849 7.55922 11.3973 7.7812 10.8283 8.08138C10.8016 8.09532 10.7762 8.11039 10.75 8.12482C8.98777 9.09921 8.52713 11.0039 9.00057 13.6584C9.46762 16.2677 11.4823 25.7022 12.2156 29.2477C13.4213 29.5966 14.5486 29.8755 15.8666 29.8755C16.9855 29.8755 18.3313 29.6275 19.3719 29.3733C19.0065 28.6686 18.5363 27.8893 18.2465 27.3305C18.2079 27.3766 18.1773 27.4169 18.1396 27.4421ZM18.8769 14.0634C18.3993 14.0634 18.0097 13.675 18.0097 13.1946C18.0097 12.7165 18.3993 12.328 18.8769 12.328C19.3571 12.328 19.7452 12.7165 19.7452 13.1946C19.7452 13.675 19.3571 14.0634 18.8769 14.0634ZM19.3993 10.7981C19.3993 10.7981 18.8523 10.4857 18.4278 10.4909C17.5555 10.5024 17.318 10.8878 17.318 10.8878C17.318 10.8878 17.4644 9.96902 18.5799 10.1533C19.1846 10.2539 19.3993 10.7981 19.3993 10.7981ZM10.2022 11.9277C10.2022 11.9277 9.80936 11.0523 10.8563 10.6233C11.9044 10.1941 12.4148 10.8674 12.4148 10.8674C12.4148 10.8674 11.6537 10.5232 10.9137 10.9882C10.175 11.4528 10.2022 11.9277 10.2022 11.9277ZM11.1175 13.7936C11.1175 13.2354 11.5688 12.7837 12.1278 12.7837C12.6852 12.7837 13.1372 13.2354 13.1372 13.7936C13.1372 14.3519 12.6852 14.8032 12.1278 14.8032C11.5688 14.8034 11.1175 14.3519 11.1175 13.7936Z" fill="white"/>
<path d="M13.1374 13.7936C13.1374 13.2354 12.6854 12.7837 12.128 12.7837C11.569 12.7837 11.1177 13.2354 11.1177 13.7936C11.1177 14.3519 11.569 14.8034 12.128 14.8032C12.6854 14.8032 13.1374 14.3519 13.1374 13.7936ZM12.5752 13.7194C12.4318 13.7198 12.3139 13.6019 12.3139 13.457C12.3139 13.3118 12.4314 13.1949 12.5752 13.1949C12.7201 13.1949 12.8376 13.3118 12.8376 13.457C12.8376 13.6019 12.7201 13.7194 12.5752 13.7194Z" fill="#2D4F8E"/>
<path d="M12.5752 13.1948C12.4315 13.1948 12.314 13.3117 12.314 13.457C12.314 13.6019 12.4319 13.7197 12.5752 13.7194C12.7201 13.7194 12.8376 13.6019 12.8376 13.457C12.8376 13.3117 12.7201 13.1948 12.5752 13.1948Z" fill="white"/>
<path d="M18.8769 12.328C18.3993 12.328 18.0098 12.7166 18.0098 13.1947C18.0098 13.675 18.3993 14.0635 18.8769 14.0635C19.3572 14.0635 19.7452 13.675 19.7452 13.1947C19.7452 12.7166 19.3572 12.328 18.8769 12.328ZM19.262 13.1308C19.1396 13.1308 19.0385 13.0312 19.0385 12.9062C19.0385 12.7827 19.1396 12.6814 19.262 12.6814C19.3897 12.6814 19.4876 12.7827 19.4876 12.9062C19.4876 13.0312 19.3897 13.1308 19.262 13.1308Z" fill="#2D4F8E"/>
<path d="M19.2621 12.6814C19.1396 12.6814 19.0386 12.7827 19.0386 12.9061C19.0386 13.0312 19.1396 13.1307 19.2621 13.1307C19.3897 13.1307 19.4877 13.0312 19.4877 12.9061C19.4877 12.7827 19.3897 12.6814 19.2621 12.6814Z" fill="white"/>
<path d="M12.4146 10.8674C12.4146 10.8674 11.9043 10.1941 10.8562 10.6232C9.80924 11.0522 10.2021 11.9277 10.2021 11.9277C10.2021 11.9277 10.1748 11.4528 10.9136 10.9882C11.6536 10.5232 12.4146 10.8674 12.4146 10.8674Z" fill="url(#paint0_linear_9085_19220)"/>
<path d="M18.5798 10.1533C17.4643 9.96904 17.3179 10.8878 17.3179 10.8878C17.3179 10.8878 17.5554 10.5024 18.4277 10.4909C18.8522 10.4857 19.3992 10.7982 19.3992 10.7982C19.3992 10.7982 19.1845 10.2539 18.5798 10.1533Z" fill="url(#paint1_linear_9085_19220)"/>
<path d="M18.0159 15.8516C16.8981 15.9214 15.3195 17.0772 15.2183 17.6881C15.087 18.4907 15.7176 19.2597 16.1934 19.5913C16.1947 19.5922 16.1961 19.5933 16.1973 19.5942C16.673 19.9251 19.8405 20.9937 21.412 20.9641C22.9853 20.9334 25.5691 19.97 25.2853 19.198C25.0029 18.4257 22.4368 19.8793 19.7603 19.6312C17.7781 19.447 17.4282 18.559 17.8671 17.9104C18.4192 17.0953 19.4247 18.0651 21.0832 17.5688C22.7442 17.0739 25.0671 16.188 25.929 15.7057C27.9219 14.5947 25.0951 14.1339 24.4275 14.4421C23.7946 14.7345 21.5917 15.2905 20.5705 15.5369C20.5167 15.5499 20.4654 15.5622 20.4187 15.5733C19.4853 15.7968 19.1362 15.7809 18.0159 15.8516Z" fill="#FDD209"/>
<path d="M15.5198 25.9796C15.5198 25.864 15.6128 25.7617 15.7605 25.6744C15.7646 25.6042 15.8028 25.539 15.8668 25.4791C14.8156 24.9564 12.6547 23.9599 12.6083 24.5751C12.5448 25.39 12.6083 28.7108 13.0465 28.9621C13.327 29.122 14.708 28.4121 15.6683 27.8789C15.3913 27.6428 15.5198 27.0695 15.5198 25.9796Z" fill="#65BC46"/>
<path d="M18.233 27.325C18.2376 27.3268 18.2425 27.3287 18.247 27.3304C19.1075 27.6625 20.8205 28.2876 21.1925 28.1511C21.6941 27.9594 21.5685 23.9511 21.0056 23.8234C20.5546 23.7234 18.8281 24.9398 18.1489 25.4354C18.2691 25.9427 18.4145 26.9476 18.233 27.325Z" fill="#65BC46"/>
<path d="M16.135 27.6923C15.5706 27.5672 15.7592 27.0026 15.7592 25.6871C15.7592 25.6829 15.7604 25.6787 15.7607 25.6744C15.613 25.7617 15.52 25.864 15.52 25.9796C15.52 27.0695 15.3915 27.6428 15.6685 27.879C15.7258 27.9278 15.7991 27.9633 15.8959 27.9848C16.4584 28.1109 17.5237 27.9848 17.9008 27.7346C17.964 27.6926 18.0073 27.6093 18.0356 27.4993C17.5942 27.7107 16.6516 27.8098 16.135 27.6923Z" fill="#43A244"/>
<path d="M15.8666 25.479C15.8026 25.5389 15.7644 25.6042 15.7603 25.6744C15.76 25.6787 15.7588 25.6828 15.7588 25.6871C15.7588 27.0026 15.5702 27.5672 16.1345 27.6922C16.6512 27.8097 17.5938 27.7107 18.0352 27.4992C18.0735 27.4809 18.1094 27.4621 18.1396 27.442C18.1774 27.4168 18.2079 27.3765 18.2326 27.325C18.414 26.9476 18.2686 25.9427 18.1485 25.4353C18.122 25.3237 18.0969 25.2358 18.0767 25.1844C18.0248 25.0561 17.6254 25.023 17.1723 25.0674C16.6684 25.1167 16.099 25.262 15.8666 25.479Z" fill="#65BC46"/>
<defs>
<linearGradient id="paint0_linear_9085_19220" x1="11.7522" y1="11.9277" x2="10.1299" y2="11.9277" gradientUnits="userSpaceOnUse">
<stop stop-color="#394A9F"/>
<stop offset="1" stop-color="#6176B9"/>
</linearGradient>
<linearGradient id="paint1_linear_9085_19220" x1="18.7957" y1="10.8878" x2="17.3179" y2="10.8878" gradientUnits="userSpaceOnUse">
<stop stop-color="#394A9F"/>
<stop offset="1" stop-color="#6176B9"/>
</linearGradient>
</defs>
</svg>
