<svg viewBox="0 0 216 216" id="svgContainer" xmlns="http://www.w3.org/2000/svg"><path d="M 36 1.094 C 24.831 3.266, 11.425 13.292, 5.752 23.715 C 0.007 34.270, 0 34.369, 0 108 C 0 180.979, 0.012 181.171, 5.414 191.831 C 8.534 197.988, 18.012 207.466, 24.169 210.586 C 34.829 215.988, 35.021 216, 108 216 C 181.631 216, 181.730 215.993, 192.285 210.248 C 202.747 204.554, 213.341 190.331, 214.707 180.146 C 215.013 177.866, 215.654 176, 216.132 176 C 216.615 176, 216.993 145.261, 216.985 106.750 C 216.976 68.662, 216.615 38.058, 216.182 38.739 C 215.700 39.499, 214.928 37.758, 214.187 34.239 C 211.971 23.713, 202.963 11.987, 192.492 5.996 C 182.185 0.098, 181.053 0.020, 107.500 0.124 C 70.650 0.176, 38.475 0.613, 36 1.094 M 90 26.935 C 72.159 30.701, 55.061 40.805, 43.963 54.140 C 36.827 62.715, 35.656 65.375, 36.294 71.558 C 36.905 77.478, 42.421 89.376, 47.938 96.675 C 50.804 100.468, 52.346 101.604, 55.280 102.080 C 60.494 102.928, 63 105.503, 63 110.013 C 63 113.409, 63.600 114.196, 70.250 119.518 C 81.331 128.387, 93.337 135.842, 105.847 141.620 C 112.087 144.502, 117.429 147.096, 117.717 147.383 C 118.005 147.671, 117.939 149.108, 117.570 150.576 C 116.973 152.954, 116.538 153.187, 113.581 152.707 C 103.866 151.130, 75.659 134.785, 63.343 123.594 C 55.371 116.351, 53.400 116.287, 48.018 123.097 C 42.839 129.648, 37.281 140.944, 36.424 146.657 C 35.817 150.705, 36.099 151.626, 39.414 156.440 C 52.776 175.841, 80.213 191, 101.965 191 C 106.541 191, 107.064 190.710, 111.763 185.569 C 114.492 182.583, 118.849 176.027, 121.445 171.002 C 126.162 161.868, 126.163 161.864, 124.523 158.407 C 122.777 154.728, 123.167 151.719, 125.773 148.750 C 126.618 147.787, 127.889 147, 128.596 147 C 130.562 147, 130.855 146.055, 132.485 134.446 C 134.270 121.730, 134.463 99.195, 132.878 88.540 C 131.641 80.219, 132.513 77.639, 136.373 78.202 C 140.232 78.764, 141.304 85.366, 141.373 109 C 141.427 127.484, 141.141 131.757, 139.334 139.458 C 136.517 151.464, 137.054 152.632, 145.813 153.570 C 155.713 154.631, 169.754 153.494, 175 151.207 C 180.060 149.002, 181.755 146.591, 185.408 136.402 C 189.185 125.866, 190.340 117.112, 189.743 103.553 C 189.152 90.144, 185.483 76.411, 181.395 72.311 C 180.195 71.107, 175.966 69.136, 171.997 67.930 C 165.735 66.028, 163.151 65.801, 152.457 66.213 L 140.133 66.688 137.478 69.844 C 134.650 73.204, 130.706 73.984, 126.882 71.937 C 121.866 69.253, 91.007 84.027, 74.271 97.125 C 67.765 102.217, 66.191 102.791, 64.200 100.800 C 61.568 98.168, 63.193 95.970, 73.474 88.250 C 84.753 79.781, 100.211 71.548, 114.302 66.504 C 126.831 62.020, 127.315 60.830, 121.410 49.034 C 116.446 39.118, 108.741 29.929, 102.887 26.942 C 100.793 25.874, 98.949 25.032, 98.790 25.070 C 98.630 25.109, 94.675 25.948, 90 26.935 M 108 25.330 C 108 25.512, 109.988 27.088, 112.417 28.833 C 117.675 32.609, 124.329 41.199, 129.049 50.302 C 131.356 54.751, 133.209 57.087, 134.735 57.470 C 135.981 57.782, 137 58.480, 137 59.019 C 137 59.601, 141.572 60.006, 148.250 60.015 C 159.736 60.030, 169.584 61.699, 175.143 64.574 C 176.816 65.439, 178.372 65.961, 178.600 65.733 C 178.829 65.505, 176.831 62.434, 174.162 58.909 C 161.003 41.529, 142.509 30.117, 121.500 26.413 C 113.925 25.078, 108 24.602, 108 25.330 M 0.473 108 C 0.473 146.225, 0.598 161.862, 0.750 142.750 C 0.902 123.637, 0.902 92.362, 0.750 73.250 C 0.598 54.137, 0.473 69.775, 0.473 108 M 29.226 79.581 C 25.255 90.541, 24.600 94.450, 24.550 107.500 C 24.498 121.054, 26.119 130.345, 30.218 139.977 L 32.124 144.454 34.588 137.136 C 37.343 128.954, 39.468 124.607, 43.943 118 C 48.319 111.540, 48.046 107.889, 42.562 99.539 C 40.120 95.822, 36.927 89.343, 35.466 85.141 C 34.004 80.938, 32.485 76.637, 32.089 75.581 C 31.523 74.072, 30.913 74.925, 29.226 79.581 M 168 157.727 C 165.057 158.728, 159.081 159.326, 150.724 159.455 C 142.529 159.582, 137.526 160.074, 136.774 160.826 C 136.128 161.472, 135.069 162, 134.421 162 C 133.772 162, 131.050 165.916, 128.371 170.701 C 125.692 175.487, 121.089 182.012, 118.142 185.201 C 112.966 190.804, 112.875 191, 115.445 191 C 119.894 191, 131.857 187.946, 139.091 184.962 C 151.884 179.687, 165.899 168.973, 172.938 159.088 C 175.433 155.583, 174.811 155.412, 168 157.727" stroke="none" fill="#f9fbfb" fill-rule="evenodd"></path><path d="M 90 26.935 C 72.159 30.701, 55.061 40.805, 43.963 54.140 C 36.827 62.715, 35.656 65.375, 36.294 71.558 C 36.905 77.478, 42.421 89.376, 47.938 96.675 C 50.804 100.468, 52.346 101.604, 55.280 102.080 C 60.494 102.928, 63 105.503, 63 110.013 C 63 113.409, 63.600 114.196, 70.250 119.518 C 81.331 128.387, 93.337 135.842, 105.847 141.620 C 112.087 144.502, 117.429 147.096, 117.717 147.383 C 118.005 147.671, 117.939 149.108, 117.570 150.576 C 116.973 152.954, 116.538 153.187, 113.581 152.707 C 103.866 151.130, 75.659 134.785, 63.343 123.594 C 55.371 116.351, 53.400 116.287, 48.018 123.097 C 42.839 129.648, 37.281 140.944, 36.424 146.657 C 35.817 150.705, 36.099 151.626, 39.414 156.440 C 52.776 175.841, 80.213 191, 101.965 191 C 106.541 191, 107.064 190.710, 111.763 185.569 C 114.492 182.583, 118.849 176.027, 121.445 171.002 C 126.162 161.868, 126.163 161.864, 124.523 158.407 C 122.777 154.728, 123.167 151.719, 125.773 148.750 C 126.618 147.787, 127.889 147, 128.596 147 C 130.562 147, 130.855 146.055, 132.485 134.446 C 134.270 121.730, 134.463 99.195, 132.878 88.540 C 131.641 80.219, 132.513 77.639, 136.373 78.202 C 140.232 78.764, 141.304 85.366, 141.373 109 C 141.427 127.484, 141.141 131.757, 139.334 139.458 C 136.517 151.464, 137.054 152.632, 145.813 153.570 C 155.713 154.631, 169.754 153.494, 175 151.207 C 180.060 149.002, 181.755 146.591, 185.408 136.402 C 189.185 125.866, 190.340 117.112, 189.743 103.553 C 189.152 90.144, 185.483 76.411, 181.395 72.311 C 180.195 71.107, 175.966 69.136, 171.997 67.930 C 165.735 66.028, 163.151 65.801, 152.457 66.213 L 140.133 66.688 137.478 69.844 C 134.650 73.204, 130.706 73.984, 126.882 71.937 C 121.866 69.253, 91.007 84.027, 74.271 97.125 C 67.765 102.217, 66.191 102.791, 64.200 100.800 C 61.568 98.168, 63.193 95.970, 73.474 88.250 C 84.753 79.781, 100.211 71.548, 114.302 66.504 C 126.831 62.020, 127.315 60.830, 121.410 49.034 C 116.446 39.118, 108.741 29.929, 102.887 26.942 C 100.793 25.874, 98.949 25.032, 98.790 25.070 C 98.630 25.109, 94.675 25.948, 90 26.935 M 108 25.330 C 108 25.512, 109.988 27.088, 112.417 28.833 C 117.675 32.609, 124.329 41.199, 129.049 50.302 C 131.356 54.751, 133.209 57.087, 134.735 57.470 C 135.981 57.782, 137 58.480, 137 59.019 C 137 59.601, 141.572 60.006, 148.250 60.015 C 159.736 60.030, 169.584 61.699, 175.143 64.574 C 176.816 65.439, 178.372 65.961, 178.600 65.733 C 178.829 65.505, 176.831 62.434, 174.162 58.909 C 161.003 41.529, 142.509 30.117, 121.500 26.413 C 113.925 25.078, 108 24.602, 108 25.330 M 29.226 79.581 C 25.255 90.541, 24.600 94.450, 24.550 107.500 C 24.498 121.054, 26.119 130.345, 30.218 139.977 L 32.124 144.454 34.588 137.136 C 37.343 128.954, 39.468 124.607, 43.943 118 C 48.319 111.540, 48.046 107.889, 42.562 99.539 C 40.120 95.822, 36.927 89.343, 35.466 85.141 C 34.004 80.938, 32.485 76.637, 32.089 75.581 C 31.523 74.072, 30.913 74.925, 29.226 79.581 M 168 157.727 C 165.057 158.728, 159.081 159.326, 150.724 159.455 C 142.529 159.582, 137.526 160.074, 136.774 160.826 C 136.128 161.472, 135.069 162, 134.421 162 C 133.772 162, 131.050 165.916, 128.371 170.701 C 125.692 175.487, 121.089 182.012, 118.142 185.201 C 112.966 190.804, 112.875 191, 115.445 191 C 119.894 191, 131.857 187.946, 139.091 184.962 C 151.884 179.687, 165.899 168.973, 172.938 159.088 C 175.433 155.583, 174.811 155.412, 168 157.727" stroke="none" fill="#2ca1f8" fill-rule="evenodd"></path></svg>