<svg xmlns="http://www.w3.org/2000/svg" version="1.1" xmlns:xlink="http://www.w3.org/1999/xlink" width="512" height="512" x="0" y="0" viewBox="0 0 64 64" style="enable-background:new 0 0 512 512" xml:space="preserve" class=""><g transform="matrix(6.123233995736766e-17,-1,1,6.123233995736766e-17,-3.552713678800501e-15,63.99999713897705)"><linearGradient id="a" x1="3.4" x2="60.6" y1="32" y2="32" gradientUnits="userSpaceOnUse"><stop stop-opacity="1" stop-color="#5bb4f6" offset="0"></stop><stop stop-opacity="1" stop-color="#5bb4f6" offset="0.61"></stop><stop stop-opacity="1" stop-color="#5bb4f6" offset="1"></stop></linearGradient><path fill="url(#a)" d="M50 3.4H14A10.62 10.62 0 0 0 3.4 14v36A10.62 10.62 0 0 0 14 60.6h36A10.62 10.62 0 0 0 60.6 50V14A10.62 10.62 0 0 0 50 3.4zM32 49.11a17 17 0 0 1-16.55-21.36 54 54 0 0 0 9 11.78 53.93 53.93 0 0 0 11.77 9 17 17 0 0 1-4.22.58zm-7.38-33.85a18.33 18.33 0 0 0-9.36 9.37c-1.95-4.48-2.11-8-.37-9.74s5.26-1.58 9.73.37zm.7 23.42A51.38 51.38 0 0 1 16 26.13a17.1 17.1 0 1 1 21.87 21.92 51.38 51.38 0 0 1-12.55-9.37zm23.42.69c1.95 4.48 2.11 8 .37 9.74s-5.26 1.58-9.73-.37a18.33 18.33 0 0 0 9.36-9.37z" data-name="Layer 11" opacity="1" data-original="url(#a)" class=""></path></g></svg>