<svg width="32" height="32" viewBox="0 0 32 32" fill="none" xmlns="http://www.w3.org/2000/svg">
<path d="M25.6916 26.7594C23.9866 27.8783 22.0373 28.4713 20.0493 28.4713C16.7951 28.4713 13.7096 26.8879 11.584 24.1273C11.5764 24.1178 11.5692 24.1091 11.5616 24.0996C9.93127 22.175 8.95759 19.3476 8.89046 16.3597L8.89008 15.6586C8.95757 12.653 9.93122 9.82589 11.5836 7.87391C13.7095 5.11325 16.7954 3.52987 20.0495 3.52987C22.0378 3.52987 23.9874 4.12288 25.6934 5.24252C28.7377 7.98725 30.4837 11.9044 30.4837 16.0008C30.4837 20.0976 28.7373 24.0151 25.6923 26.7597L25.6916 26.7594ZM15.3099 30.4671C7.57587 30.1042 1.51702 23.7499 1.51702 16.0006C1.51702 8.01457 8.01412 1.51699 16.0145 1.51699C16.0179 1.51699 16.0509 1.51737 16.0547 1.51737C17.3215 1.52192 18.5704 1.69216 19.7731 2.01634C16.1476 2.10278 12.7387 3.889 10.4045 6.92113C8.55386 9.10549 7.44937 12.2779 7.37429 15.6412V16.3763C7.44936 19.7152 8.5493 22.8817 10.3931 25.0665C12.7484 28.1172 16.1538 29.8981 19.7739 29.9846C18.3347 30.3729 16.8074 30.5382 15.3094 30.4669L15.3099 30.4671ZM26.664 4.07332C23.7453 1.46168 19.9795 0.0155821 16.0435 0.000758337C16.0386 0.00037918 16.0048 0 16.0003 0C7.17785 0 0 7.17793 0 16.0003C0 24.5611 6.69343 31.5813 15.2394 31.9818C15.4916 31.9936 15.7452 32 16.0004 32C19.939 32 23.7249 30.555 26.6593 27.9305L26.6627 27.9282C30.0545 24.8942 32 20.5467 32 16C32 11.4539 30.0549 7.10629 26.6638 4.07294" fill="#FA1E4E"/>
<path d="M19.2002 5.90771C21.9957 7.73941 23.9205 11.5693 23.9205 16C23.9205 20.4307 21.9957 24.2611 19.2002 26.0923C22.7685 25.7906 25.6002 21.388 25.6002 16C25.6002 10.6119 22.7684 6.20951 19.2002 5.90771Z" fill="#FA1E4E"/>
</svg>
