<?xml version="1.0" ?><!DOCTYPE svg  PUBLIC '-//W3C//DTD SVG 1.1//EN'  'http://www.w3.org/Graphics/SVG/1.1/DTD/svg11.dtd'><svg enable-background="new 0 0 140 140" id="Layer_17" version="1.1" viewBox="0 0 140 140" xml:space="preserve" xmlns="http://www.w3.org/2000/svg" xmlns:xlink="http://www.w3.org/1999/xlink"><g><defs><filter filterUnits="userSpaceOnUse" height="97.071106" id="Adobe_OpacityMaskFilter" width="97.0710449" x="42.9289551" y="42.928894"><feColorMatrix type="matrix" values="1 0 0 0 0  0 1 0 0 0  0 0 1 0 0  0 0 0 1 0"/></filter></defs><mask height="97.071106" id="SVGID_1_" maskUnits="userSpaceOnUse" width="97.0710449" x="42.9289551" y="42.928894"><g filter="url(#Adobe_OpacityMaskFilter)"><radialGradient cx="70" cy="70" gradientTransform="matrix(0.7071068 0.7071068 -0.2721382 0.2721382 39.5522003 1.4528493)" gradientUnits="userSpaceOnUse" id="SVGID_2_" r="106.5634918"><stop offset="0.3" style="stop-color:#FFFFFF"/><stop offset="0.85" style="stop-color:#FFFFFF;stop-opacity:0"/></radialGradient><rect fill="url(#SVGID_2_)" height="140" width="140"/></g></mask><linearGradient gradientUnits="userSpaceOnUse" id="SVGID_3_" x1="69.9999847" x2="140.0000153" y1="69.9999542" y2="139.9999847"><stop offset="0" style="stop-color:#000000;stop-opacity:0.4"/><stop offset="0.8" style="stop-color:#000000;stop-opacity:0"/></linearGradient><polygon fill="url(#SVGID_3_)" mask="url(#SVGID_1_)" points="140,85.8580933    97.0710449,42.928894 42.9289551,97.0710449 85.8580933,140 140,140  "/><defs><filter filterUnits="userSpaceOnUse" height="97.071106" id="Adobe_OpacityMaskFilter_1_" width="97.0710449" x="42.9289551" y="42.928894"><feColorMatrix type="matrix" values="1 0 0 0 0  0 1 0 0 0  0 0 1 0 0  0 0 0 1 0"/></filter></defs><mask height="97.071106" id="SVGID_4_" maskUnits="userSpaceOnUse" width="97.0710449" x="42.9289551" y="42.928894"><g filter="url(#Adobe_OpacityMaskFilter_1_)"><radialGradient cx="70" cy="70" gradientTransform="matrix(0.7071068 0.7071068 -0.3889087 0.3889087 47.7261353 -6.7210855)" gradientUnits="userSpaceOnUse" id="SVGID_5_" r="79.5565872"><stop offset="0.3" style="stop-color:#FFFFFF"/><stop offset="0.85" style="stop-color:#FFFFFF;stop-opacity:0"/></radialGradient><rect fill="url(#SVGID_5_)" height="140" width="140"/></g></mask><linearGradient gradientUnits="userSpaceOnUse" id="SVGID_6_" x1="69.9999847" x2="140.0000153" y1="69.9999542" y2="139.9999847"><stop offset="0" style="stop-color:#F63F14;stop-opacity:0.6"/><stop offset="0.5" style="stop-color:#F63F14;stop-opacity:0"/></linearGradient><polygon fill="url(#SVGID_6_)" mask="url(#SVGID_4_)" points="140,85.8580933    97.0710449,42.928894 42.9289551,97.0710449 85.8580933,140 140,140  "/><path d="M90,100H50c-5.5228462,0-10-4.47715-10-10V50c0-5.5228462,4.4771538-10,10-10h40   c5.52285,0,10,4.4771538,10,10v40C100,95.52285,95.52285,100,90,100z" fill="#F63F14"/><g><defs><path d="M90,41c4.9626236,0,9,4.0373802,9,9v40c0,4.9626236-4.0373764,9-9,9H50c-4.9626198,0-9-4.0373764-9-9V50     c0-4.9626198,4.0373802-9,9-9H90 M90,40H50c-5.52285,0-10,4.47715-10,10v40c0,5.52285,4.47715,10,10,10h40     c5.52285,0,10-4.47715,10-10V50C100,44.47715,95.52285,40,90,40L90,40z" id="SVGID_99_"/></defs><clipPath id="SVGID_8_"><use overflow="visible" xlink:href="#SVGID_99_"/></clipPath><linearGradient gradientUnits="userSpaceOnUse" id="SVGID_9_" x1="20" x2="120" y1="20" y2="120"><stop offset="0" style="stop-color:#FFFFFF;stop-opacity:0.8"/><stop offset="0.6" style="stop-color:#FFFFFF;stop-opacity:0"/></linearGradient><rect clip-path="url(#SVGID_8_)" fill="url(#SVGID_9_)" height="100" width="100" x="20" y="20"/></g><g><defs><path d="M90,41c4.9626236,0,9,4.0373802,9,9v40c0,4.9626236-4.0373764,9-9,9H50c-4.9626198,0-9-4.0373764-9-9V50     c0-4.9626198,4.0373802-9,9-9H90 M90,40H50c-5.52285,0-10,4.47715-10,10v40c0,5.52285,4.47715,10,10,10h40     c5.52285,0,10-4.47715,10-10V50C100,44.47715,95.52285,40,90,40L90,40z" id="SVGID_102_"/></defs><clipPath id="SVGID_11_"><use overflow="visible" xlink:href="#SVGID_102_"/></clipPath><linearGradient gradientUnits="userSpaceOnUse" id="SVGID_12_" x1="20" x2="120" y1="20" y2="120"><stop offset="0.4" style="stop-color:#000000;stop-opacity:0"/><stop offset="1" style="stop-color:#000000;stop-opacity:0.2"/></linearGradient><rect clip-path="url(#SVGID_11_)" fill="url(#SVGID_12_)" height="100" width="100" x="20" y="20"/></g><g><defs><path d="M50,99c-4.9624023,0-9-4.0375977-9-9V50c0-4.9624023,4.0375977-9,9-9h40c4.9624023,0,9,4.0375977,9,9v40     c0,4.9624023-4.0375977,9-9,9H50z" id="SVGID_105_"/></defs><clipPath id="SVGID_14_"><use overflow="visible" xlink:href="#SVGID_105_"/></clipPath><radialGradient cx="45" cy="45" gradientUnits="userSpaceOnUse" id="SVGID_15_" r="45"><stop offset="0" style="stop-color:#FFFFFF;stop-opacity:0.2"/><stop offset="1" style="stop-color:#FFFFFF;stop-opacity:0"/></radialGradient><circle clip-path="url(#SVGID_14_)" cx="45" cy="45" fill="url(#SVGID_15_)" r="45"/></g><g><defs><path d="M90,99.1499023H50c-5.0454102,0-9.1499023-4.1044922-9.1499023-9.1499023V50     c0-5.0454102,4.1044922-9.1499023,9.1499023-9.1499023h40c5.0454102,0,9.1499023,4.1044922,9.1499023,9.1499023v40     C99.1499023,95.0454102,95.0454102,99.1499023,90,99.1499023z M50,41.1499023     c-4.8798828,0-8.8500977,3.9702148-8.8500977,8.8500977v40c0,4.8798828,3.9702148,8.8500977,8.8500977,8.8500977h40     c4.8798828,0,8.8500977-3.9702148,8.8500977-8.8500977V50c0-4.8798828-3.9702148-8.8500977-8.8500977-8.8500977H50z" id="SVGID_108_"/></defs><clipPath id="SVGID_17_"><use overflow="visible" xlink:href="#SVGID_108_"/></clipPath><linearGradient gradientUnits="userSpaceOnUse" id="SVGID_18_" x1="20" x2="120" y1="20" y2="120"><stop offset="0.2" style="stop-color:#FFFFFF;stop-opacity:0.8"/><stop offset="0.7" style="stop-color:#FFFFFF;stop-opacity:0"/></linearGradient><rect clip-path="url(#SVGID_17_)" fill="url(#SVGID_18_)" height="100" width="100" x="20" y="20"/></g><path d="M83.914917,55.763855C80.3537598,52.2026367,75.43396,50,69.9997559,50   s-10.3539429,2.2026367-13.9151611,5.763855c-3.5611572,3.5611572-5.7637939,8.480896-5.7637939,13.9151001   c0,5.4342651,2.2026367,10.3540039,5.7637939,13.9151611L72.4036865,100H90c5.5228271,0,10-4.4771729,10-10V71.9344482   L83.914917,55.763855z" opacity="0.12"/><g><path d="M86.4248505,84.9140244l-1.9976196-1.8528824    c-1.7252579,1.8591614-3.8051682,3.3840179-6.1325531,4.4674149L79.4431763,90    C82.0928116,88.7665939,84.460701,87.0306168,86.4248505,84.9140244z" fill="#FFFFFF"/><path d="M77.1461868,85.0571136C74.974411,86.0680695,72.5534363,86.6336365,70,86.6336365    c-9.3636627,0-16.9544106-7.5907516-16.9544106-16.9544144S60.6363373,52.7248154,70,52.7248154    s16.9544067,7.5907478,16.9544067,16.9544067c0,4.4527359-1.7173767,8.5037537-4.5247879,11.5290451l1.997612,1.8528748    c3.258606-3.5115051,5.2519913-8.2135696,5.2519913-13.3819199C89.6792221,58.8106842,80.8685303,50,70,50    s-19.6792259,8.8106842-19.6792259,19.6792221S59.1314659,89.3584518,70,89.3584518    c2.9638062,0,5.7738724-0.6564484,8.2946777-1.829895L77.1461868,85.0571136z" fill="#FFFFFF"/><path d="M81.118309,60.7882347l0.000061,4.2764473c-3.8412323-1.8039284-14.2292938-4.1413345-14.715271-1.3750229    c-0.6559677,3.7340088,16.7859421,3.5487747,15.4532394,11.9336853    c-0.9082718,5.7145462-11.7806473,7.2636719-23.2475815,2.4952393l-0.0000153-4.8416061    c4.106144,2.8194275,14.3431396,5.1065216,15.1488419,2.1193008c0.9924088-3.6794815-16.12183-4.068306-15.5920029-11.4669342    C58.6287804,57.4610939,70.6731796,56.7010117,81.118309,60.7882347z" fill="#FFFFFF"/></g><g><path d="M78.8891144,88.8077164L79.4431763,90    c2.6496353-1.2334061,5.0175247-2.9693832,6.9816742-5.0859756c0,0-1.8936005,1.6797256-3.7998505,2.6172256    C80.2276001,88.7102966,78.8891144,88.8077164,78.8891144,88.8077164z" fill="#F63F14" opacity="0.4"/><path d="M62.3365097,87.8105011C64.6918182,88.8072433,67.2815399,89.3584518,70,89.3584518    c2.9638062,0,5.7738724-0.6564484,8.2946777-1.829895l-0.413353-0.8894958c0,0-0.8188477,0.8401031-5.2563248,1.8401031    C67.0009232,89.7465668,62.3365097,87.8105011,62.3365097,87.8105011z" fill="#F63F14" opacity="0.4"/></g></g></svg>