<svg width="32" height="32" viewBox="0 0 32 32" fill="none" xmlns="http://www.w3.org/2000/svg">
<g clip-path="url(#clip0_10000_23914)">
<path d="M24.9775 32H7.02246C3.1474 32 0 28.8526 0 24.9775V7.02246C0 3.1474 3.1474 0 7.02246 0H24.9775C28.8526 0 32 3.1474 32 7.02246V24.9775C32 28.8526 28.8526 32 24.9775 32Z" fill="url(#paint0_linear_10000_23914)"/>
<path d="M12.3879 27.8882C12.3528 27.8795 12.309 27.8619 12.2739 27.8532C8.96873 26.9238 7.41695 23.2504 8.31119 20.2696C8.78462 18.7003 9.8016 17.543 11.1254 16.64C12.0197 16.0351 12.9402 15.474 13.8345 14.8691C15.1057 14.0011 16.0701 12.8701 16.5523 11.3797C17.1397 9.55618 16.9468 7.84659 15.6405 6.39125C14.2728 4.857 12.5019 4.26084 10.4767 4.52385C7.8816 4.857 5.9353 6.22467 4.5238 8.39892C4.46243 8.48659 4.42736 8.58303 4.37476 8.67947C4.96215 8.30248 5.56708 8.057 6.24215 7.9781C7.60982 7.81152 8.92489 8.71453 9.17914 10.0296C9.38078 11.0378 9.11777 11.9671 8.51284 12.7649C7.87284 13.6154 7.1627 14.4219 6.4701 15.2373C4.86572 17.1047 4.03284 19.2263 4.38352 21.7162C4.67284 23.8115 5.74243 25.4422 7.47832 26.617C8.95119 27.6077 10.6345 27.897 12.3879 27.8882Z" fill="white"/>
<path d="M16.7803 14.4219C17.7271 14.4132 18.6564 14.5973 19.5682 14.8603C20.8745 15.2373 22.0931 15.7984 23.2416 16.5085C24.3288 17.1836 25.4948 17.3764 26.7397 17.166C26.9852 17.1222 27.2219 17.0433 27.4499 16.9556C27.5288 16.9206 27.6252 16.7978 27.6252 16.7101C27.6427 16.4121 27.6427 16.1052 27.6164 15.8071C27.5288 14.7901 27.2044 13.8521 26.6257 13.0104C25.9244 11.9847 24.9425 11.3447 23.7852 10.9501C23.5923 10.88 23.5134 10.7836 23.4784 10.5995C23.4257 10.3364 23.3468 10.0822 23.2592 9.82795C23.0838 9.35453 22.8471 8.9074 22.4438 8.53918C22.3737 8.62686 22.3036 8.69699 22.251 8.7759C21.6986 9.56494 21.4794 10.468 21.4794 11.4148C21.4794 11.6866 21.4005 11.8882 21.1814 12.0285C20.5764 12.423 19.9978 12.8614 19.3578 13.2033C18.5337 13.6592 17.6482 14.0274 16.7803 14.4219Z" fill="white"/>
<path d="M20.0764 25.9244C20.3658 25.0828 20.506 24.2762 20.4973 23.4433C20.4885 22.3474 20.2956 21.2866 19.7433 20.3398C18.4896 18.2006 16.6134 17.0872 14.1148 17.1047C12.8786 17.1135 11.7827 17.5343 10.8797 18.411C10.4414 18.8406 10.0995 19.3403 9.84521 19.9715C12.1948 17.4904 16.0085 18.2357 17.4638 20.4713C18.3493 21.8302 18.5685 23.2855 18.0425 24.8198C17.5164 26.3628 16.3767 27.3184 14.8775 27.9058C17.6743 27.897 20.4534 27.862 23.3027 27.5989C22.6189 26.2137 21.3827 26.0209 20.0764 25.9244Z" fill="white"/>
<path d="M27.7392 20.103C27.7129 19.5945 27.4587 19.2526 27.0817 18.9984C26.617 18.6915 26.0735 18.6038 25.5299 18.56C24.5392 18.4723 23.5924 18.2356 22.7157 17.7534C21.9705 17.3414 21.2515 16.868 20.4888 16.491C19.2789 15.9036 17.9902 15.6143 16.6576 15.4915C15.7458 15.4038 14.8516 15.4827 13.9748 15.7633C13.8696 15.7984 13.7732 15.851 13.6768 15.8948C13.7907 15.9386 13.8872 15.9386 13.9836 15.9386C15.0094 15.9123 16.0176 16.0614 16.982 16.4208C18.9809 17.1836 20.4362 18.5688 21.462 20.4099C21.5584 20.5852 21.6811 20.7167 21.8652 20.7343C22.3299 20.7781 22.8033 20.8395 23.2768 20.8132C23.8817 20.7781 24.4165 20.5063 24.96 20.2521C25.6 19.954 26.2663 19.8049 26.9765 19.9189C27.2044 19.9715 27.4499 20.0329 27.7392 20.103Z" fill="white"/>
<path d="M12.3879 27.8882C10.6345 27.897 8.95123 27.6077 7.47835 26.617C5.74246 25.4422 4.67287 23.8115 4.38356 21.7162C4.04164 19.2263 4.86575 17.1046 6.4789 15.2373C7.18027 14.4307 7.88164 13.6241 8.52164 12.7649C9.12657 11.9671 9.38958 11.0378 9.18794 10.0296C8.93369 8.71451 7.61863 7.8115 6.25095 7.97807C5.57589 8.05698 4.97095 8.30246 4.38356 8.67944C4.43616 8.58301 4.48 8.48657 4.5326 8.3989C5.93534 6.22465 7.88164 4.84821 10.4767 4.51506C12.5019 4.25205 14.2641 4.84821 15.6405 6.38246C16.9468 7.8378 17.1397 9.54739 16.5523 11.371C16.0701 12.8614 15.1057 13.9923 13.8345 14.8603C12.9403 15.4652 12.0197 16.0263 11.1255 16.6312C9.80164 17.5342 8.78465 18.7003 8.31123 20.2608C7.40821 23.2416 8.96876 26.9151 12.274 27.8444C12.309 27.8619 12.3441 27.8707 12.3879 27.8882Z" fill="white"/>
<path d="M16.7803 14.4219C17.6482 14.0186 18.5249 13.6504 19.3666 13.2033C20.0066 12.8614 20.5852 12.423 21.1901 12.0285C21.4093 11.8882 21.4882 11.6866 21.4882 11.4148C21.4882 10.468 21.7074 9.5737 22.2597 8.7759C22.3123 8.69699 22.3737 8.63562 22.4526 8.53918C22.8471 8.9074 23.0838 9.35453 23.2679 9.82795C23.3556 10.0822 23.4345 10.3364 23.4871 10.5995C23.531 10.7836 23.6011 10.8888 23.794 10.9501C24.9512 11.3359 25.9331 11.9847 26.6345 13.0104C27.2131 13.8521 27.5375 14.7901 27.6252 15.8071C27.6515 16.1052 27.6515 16.4121 27.634 16.7101C27.6252 16.7978 27.5375 16.9206 27.4586 16.9556C27.2307 17.0521 26.9852 17.131 26.7485 17.166C25.5036 17.3764 24.3375 17.1836 23.2504 16.5085C22.1019 15.7984 20.8833 15.2285 19.577 14.8603C18.6564 14.5973 17.7271 14.4132 16.7803 14.4219Z" fill="white"/>
<path d="M20.0765 25.9244C21.3828 26.0208 22.6189 26.2225 23.3115 27.5902C20.4622 27.8444 17.683 27.8882 14.8863 27.897C16.3855 27.3096 17.5252 26.354 18.0513 24.811C18.5773 23.2767 18.3493 21.8214 17.4726 20.4625C16.0173 18.2269 12.2036 17.4817 9.854 19.9628C10.1083 19.3315 10.4414 18.8318 10.8885 18.4022C11.7828 17.5255 12.8874 17.1047 14.1236 17.0959C16.6222 17.0784 18.4984 18.2006 19.7521 20.331C20.3044 21.2778 20.4973 22.3386 20.5061 23.4345C20.5061 24.2762 20.3658 25.0828 20.0765 25.9244Z" fill="white"/>
<path d="M27.7392 20.103C27.4499 20.0417 27.2044 19.9715 26.9589 19.9277C26.2575 19.8137 25.5825 19.9628 24.9425 20.2608C24.3989 20.5151 23.8641 20.7869 23.2592 20.8219C22.7945 20.8482 22.3211 20.7869 21.8477 20.743C21.6636 20.7255 21.5408 20.594 21.4444 20.4187C20.4099 18.5688 18.9633 17.1836 16.9644 16.4296C16 16.0614 15.0005 15.9211 13.966 15.9474C13.8696 15.9474 13.7819 15.9474 13.6592 15.9036C13.7556 15.8598 13.8521 15.8072 13.9573 15.7721C14.834 15.4915 15.7195 15.4126 16.64 15.5003C17.9726 15.623 19.2701 15.9124 20.4712 16.4998C21.234 16.8767 21.9529 17.3502 22.6981 17.7622C23.5748 18.2444 24.5216 18.4811 25.5123 18.5688C26.0559 18.6214 26.5994 18.7003 27.0641 19.0071C27.4586 19.2526 27.7129 19.5945 27.7392 20.103Z" fill="white"/>
<path d="M13.4051 19.8488C11.5201 19.8488 9.98588 21.3742 9.98588 23.2504C9.97711 25.1441 11.5114 26.6696 13.4138 26.6608C15.3075 26.6608 16.8155 25.1441 16.8155 23.2504C16.8067 21.3655 15.29 19.8488 13.4051 19.8488ZM13.3788 24.8285C12.5196 24.8285 11.8182 24.1183 11.8094 23.2592C11.8094 22.4 12.5283 21.6811 13.3963 21.6811C14.2642 21.6811 14.9744 22.4 14.9656 23.2679C14.9568 24.1534 14.273 24.8285 13.3788 24.8285Z" fill="white"/>
</g>
<defs>
<linearGradient id="paint0_linear_10000_23914" x1="16.0009" y1="31.9994" x2="16.0009" y2="0.00114816" gradientUnits="userSpaceOnUse">
<stop stop-color="#FF780B"/>
<stop offset="1" stop-color="#FFA322"/>
</linearGradient>
<clipPath id="clip0_10000_23914">
<rect width="32" height="32" fill="white"/>
</clipPath>
</defs>
</svg>
