<svg width="32" height="32" viewBox="0 0 32 32" fill="none" xmlns="http://www.w3.org/2000/svg">
<circle cx="16" cy="16" r="16" fill="#DADCE0"/>
<path d="M17.3716 18.7507H14.4785C14.4785 18.1593 14.5188 17.6384 14.5995 17.1882C14.6868 16.7312 14.8347 16.3212 15.043 15.9583C15.2513 15.5954 15.5336 15.2594 15.8898 14.9503C16.2056 14.6882 16.4778 14.4361 16.7063 14.1942C16.9348 13.9523 17.1095 13.707 17.2305 13.4583C17.3515 13.2097 17.412 12.9442 17.412 12.6619C17.412 12.3125 17.3615 12.0269 17.2607 11.8051C17.1667 11.5833 17.0222 11.4187 16.8273 11.3111C16.6391 11.1969 16.4005 11.1398 16.1115 11.1398C15.8763 11.1398 15.6546 11.1969 15.4462 11.3111C15.2446 11.4254 15.08 11.6035 14.9523 11.8454C14.8246 12.0806 14.754 12.3931 14.7406 12.7829H11.3232C11.3434 11.7816 11.5652 10.9684 11.9886 10.3434C12.4187 9.71168 12.9899 9.25133 13.7023 8.96235C14.4214 8.66665 15.2245 8.5188 16.1115 8.5188C17.0927 8.5188 17.9361 8.67001 18.6418 8.97243C19.3474 9.27485 19.8884 9.72512 20.2648 10.3232C20.6411 10.9146 20.8293 11.6438 20.8293 12.5107C20.8293 13.0887 20.7184 13.5927 20.4966 14.0228C20.2816 14.4462 19.9892 14.8427 19.6196 15.2123C19.2567 15.5753 18.8501 15.965 18.3999 16.3817C18.0101 16.7244 17.7446 17.0739 17.6035 17.4301C17.4624 17.7796 17.3851 18.2197 17.3716 18.7507ZM14.0652 21.8152C14.0652 21.3313 14.2399 20.9281 14.5894 20.6055C14.9388 20.2762 15.3925 20.1115 15.9503 20.1115C16.5081 20.1115 16.9617 20.2762 17.3111 20.6055C17.6606 20.9281 17.8353 21.3313 17.8353 21.8152C17.8353 22.299 17.6606 22.7056 17.3111 23.0349C16.9617 23.3575 16.5081 23.5188 15.9503 23.5188C15.3925 23.5188 14.9388 23.3575 14.5894 23.0349C14.2399 22.7056 14.0652 22.299 14.0652 21.8152Z" fill="#56585A"/>
</svg>
