<svg width="32" height="32" viewBox="0 0 32 32" fill="none" xmlns="http://www.w3.org/2000/svg">
<path fill-rule="evenodd" clip-rule="evenodd" d="M32 16C32 24.8365 24.8365 32 16 32C7.1635 32 0 24.8365 0 16C0 7.1635 7.1635 0 16 0C24.8365 0 32 7.1635 32 16Z" fill="url(#paint0_linear_10661_4486)"/>
<path fill-rule="evenodd" clip-rule="evenodd" d="M31.2249 16C31.2249 24.4085 24.4084 31.225 15.9999 31.225C7.59138 31.225 0.774902 24.4085 0.774902 16C0.774902 7.5915 7.59138 0.775024 15.9999 0.775024C24.4084 0.775024 31.2249 7.5915 31.2249 16Z" fill="white"/>
<path fill-rule="evenodd" clip-rule="evenodd" d="M26.3001 9.39992L17.7376 17.7749V28.1874C17.7376 28.3749 16.9251 28.5249 16.0001 28.5374C15.1126 28.5249 14.2626 28.3749 14.2626 28.1874V17.7749L5.70008 9.39992C5.56256 9.2624 6.00008 8.6124 6.67508 7.9374C7.35008 7.2624 8.01256 6.82492 8.13756 6.9624L15.9876 14.6249L23.8376 6.9624C23.9751 6.82492 24.6251 7.2624 25.3001 7.9374C25.9751 8.6124 26.4251 9.2624 26.3001 9.39992Z" fill="#EC1C24"/>
<defs>
<linearGradient id="paint0_linear_10661_4486" x1="16" y1="0" x2="16" y2="32" gradientUnits="userSpaceOnUse">
<stop stop-color="#F5F5F6"/>
<stop offset="1" stop-color="#EDEDEE"/>
</linearGradient>
</defs>
</svg>
