<svg viewBox="0 0 640 480" fill="none" xmlns="http://www.w3.org/2000/svg">
<g clip-path="url(#clip0_21670_184545)">
<path d="M0 0H640V480H0V0Z" fill="white"/>
<path d="M248.889 0H391.111V480H248.889V0Z" fill="#DC171D"/>
<path d="M0 160H640V320H0V160Z" fill="#012A87"/>
<path d="M320 166.667L314.506 185.688L322.96 188.778L320 166.667Z" fill="white"/>
<path d="M320 166.667L325.494 185.688L317.04 188.778L320 166.667Z" fill="white"/>
<path d="M336.907 180.486L319.365 181.035L319.129 190.486L336.907 180.486Z" fill="white"/>
<path d="M336.907 180.198L322.309 192.242L317.3 184.44L336.907 180.198Z" fill="white"/>
<path d="M303.092 180.198L317.69 192.242L322.699 184.44L303.092 180.198Z" fill="white"/>
<path d="M303.092 180.486L320.634 181.036L320.87 190.486L303.092 180.486Z" fill="white"/>
<path d="M330.449 202.691L325.153 183.826L316.502 187.072L330.449 202.691Z" fill="white"/>
<path d="M330.311 202.847L316.067 191.268L321.43 183.001L330.311 202.847Z" fill="white"/>
<path d="M309.688 202.847L323.932 191.267L318.569 183.001L309.688 202.847Z" fill="white"/>
<path d="M309.55 202.691L314.846 183.826L323.497 187.072L309.55 202.691Z" fill="white"/>
<path d="M414.814 210.849L409.321 229.871L417.775 232.961L414.814 210.849Z" fill="white"/>
<path d="M414.814 210.849L420.308 229.871L411.854 232.961L414.814 210.849Z" fill="white"/>
<path d="M431.722 224.669L414.18 225.218L413.944 234.669L431.722 224.669Z" fill="white"/>
<path d="M431.722 224.381L417.123 236.425L412.114 228.623L431.722 224.381Z" fill="white"/>
<path d="M397.906 224.381L412.505 236.425L417.514 228.623L397.906 224.381Z" fill="white"/>
<path d="M397.906 224.669L415.448 225.218L415.684 234.669L397.906 224.669Z" fill="white"/>
<path d="M425.264 246.874L419.968 228.009L411.316 231.255L425.264 246.874Z" fill="white"/>
<path d="M425.125 247.03L410.881 235.45L416.244 227.184L425.125 247.03Z" fill="white"/>
<path d="M404.503 247.03L418.747 235.45L413.384 227.184L404.503 247.03Z" fill="white"/>
<path d="M404.364 246.874L409.66 228.009L418.312 231.255L404.364 246.874Z" fill="white"/>
<path d="M359.273 273.333L353.78 292.355L362.234 295.445L359.273 273.333Z" fill="white"/>
<path d="M359.273 273.333L364.767 292.355L356.313 295.445L359.273 273.333Z" fill="white"/>
<path d="M376.181 287.153L358.639 287.702L358.403 297.153L376.181 287.153Z" fill="white"/>
<path d="M376.181 286.865L361.582 298.909L356.573 291.107L376.181 286.865Z" fill="white"/>
<path d="M342.365 286.865L356.964 298.909L361.973 291.107L342.365 286.865Z" fill="white"/>
<path d="M342.365 287.153L359.907 287.702L360.143 297.153L342.365 287.153Z" fill="white"/>
<path d="M369.723 309.357L364.427 290.493L355.775 293.739L369.723 309.357Z" fill="white"/>
<path d="M369.584 309.514L355.34 297.934L360.703 289.668L369.584 309.514Z" fill="white"/>
<path d="M348.962 309.514L363.206 297.934L357.843 289.668L348.962 309.514Z" fill="white"/>
<path d="M348.823 309.357L354.119 290.493L362.771 293.739L348.823 309.357Z" fill="white"/>
<path d="M225.186 210.849L230.679 229.871L222.225 232.961L225.186 210.849Z" fill="white"/>
<path d="M225.186 210.849L219.692 229.871L228.146 232.961L225.186 210.849Z" fill="white"/>
<path d="M208.278 224.669L225.82 225.218L226.056 234.669L208.278 224.669Z" fill="white"/>
<path d="M208.278 224.381L222.877 236.425L227.886 228.623L208.278 224.381Z" fill="white"/>
<path d="M242.094 224.381L227.495 236.425L222.486 228.623L242.094 224.381Z" fill="white"/>
<path d="M242.094 224.669L224.552 225.218L224.316 234.669L242.094 224.669Z" fill="white"/>
<path d="M214.736 246.874L220.032 228.009L228.684 231.255L214.736 246.874Z" fill="white"/>
<path d="M214.875 247.03L229.119 235.45L223.756 227.184L214.875 247.03Z" fill="white"/>
<path d="M235.497 247.03L221.253 235.45L226.616 227.184L235.497 247.03Z" fill="white"/>
<path d="M235.636 246.874L230.34 228.009L221.688 231.255L235.636 246.874Z" fill="white"/>
<path d="M280.727 273.333L286.22 292.355L277.766 295.445L280.727 273.333Z" fill="white"/>
<path d="M280.727 273.333L275.233 292.355L283.687 295.445L280.727 273.333Z" fill="white"/>
<path d="M263.819 287.153L281.361 287.702L281.597 297.153L263.819 287.153Z" fill="white"/>
<path d="M263.819 286.865L278.418 298.909L283.427 291.107L263.819 286.865Z" fill="white"/>
<path d="M297.635 286.865L283.036 298.909L278.027 291.107L297.635 286.865Z" fill="white"/>
<path d="M297.635 287.153L280.093 287.702L279.857 297.153L297.635 287.153Z" fill="white"/>
<path d="M270.277 309.357L275.573 290.493L284.225 293.739L270.277 309.357Z" fill="white"/>
<path d="M270.416 309.514L284.66 297.934L279.297 289.668L270.416 309.514Z" fill="white"/>
<path d="M291.038 309.514L276.794 297.934L282.157 289.668L291.038 309.514Z" fill="white"/>
<path d="M291.177 309.357L285.881 290.493L277.229 293.739L291.177 309.357Z" fill="white"/>
</g>
</svg>
