<svg width="13" height="10" viewBox="0 0 13 10" fill="none" xmlns="http://www.w3.org/2000/svg">
    <path fill-rule="evenodd" clip-rule="evenodd" d="M1.92718 2.73416L1.68294 3.7111H0.429688C0.19238 3.7111 0 3.90349 0 4.14079C0 4.37809 0.19238 4.57048 0.429688 4.57048H11.888C12.1253 4.57048 12.3177 4.37809 12.3177 4.14079C12.3177 3.90349 12.1253 3.7111 11.888 3.7111H10.6348L10.3905 2.73416C10.0779 1.48366 9.9216 0.858416 9.45536 0.494391C8.98912 0.130371 8.34465 0.130371 7.05564 0.130371H5.26207C3.97306 0.130371 3.32858 0.130371 2.86234 0.494391C2.39612 0.858416 2.2398 1.48366 1.92718 2.73416ZM3.00781 9.86996C3.93775 9.86996 4.71984 9.23694 4.94666 8.37825L5.58239 8.0604C5.94527 7.87895 6.37244 7.87895 6.73532 8.0604L7.37103 8.37825C7.59785 9.23694 8.37994 9.86996 9.3099 9.86996C10.4173 9.86996 11.3151 8.97219 11.3151 7.86475C11.3151 6.7573 10.4173 5.85954 9.3099 5.85954C8.3588 5.85954 7.56239 6.52171 7.35642 7.41014L7.11969 7.29177C6.51481 6.98933 5.8029 6.98933 5.19802 7.29177L4.96127 7.41014C4.75534 6.52171 3.95891 5.85954 3.00781 5.85954C1.90036 5.85954 1.0026 6.7573 1.0026 7.86475C1.0026 8.97219 1.90036 9.86996 3.00781 9.86996Z" fill="#56585A"/>
</svg>
