<svg width="15" height="15" viewBox="0 0 15 15" fill="none" xmlns="http://www.w3.org/2000/svg">
<path d="M10.9375 7.34375C12.5771 7.34375 13.9063 8.6729 13.9063 10.3125C13.9063 11.9521 12.5771 13.2812 10.9375 13.2812C9.62625 13.2812 8.51354 12.4311 8.12048 11.252H6.87953C6.48646 12.4311 5.37376 13.2812 4.0625 13.2812C2.42291 13.2812 1.09375 11.9521 1.09375 10.3125C1.09375 8.6729 2.42291 7.34375 4.0625 7.34375C5.59662 7.34375 6.85895 8.50738 7.01502 10.0002H7.98499C8.14106 8.50738 9.40339 7.34375 10.9375 7.34375ZM4.0625 8.59375C3.11326 8.59375 2.34375 9.36326 2.34375 10.3125C2.34375 11.2617 3.11326 12.0312 4.0625 12.0312C5.01174 12.0312 5.78125 11.2617 5.78125 10.3125C5.78125 9.36326 5.01174 8.59375 4.0625 8.59375ZM10.9375 8.59375C9.98826 8.59375 9.21875 9.36326 9.21875 10.3125C9.21875 11.2617 9.98826 12.0312 10.9375 12.0312C11.8867 12.0312 12.6563 11.2617 12.6563 10.3125C12.6563 9.36326 11.8867 8.59375 10.9375 8.59375ZM9.69497 1.875C10.454 1.875 11.1231 2.37287 11.3412 3.09987L11.97 5.19433C12.4654 5.27678 12.9502 5.37378 13.4244 5.48536C13.7604 5.56442 13.9687 5.9009 13.8896 6.2369C13.8106 6.5729 13.4741 6.78119 13.1381 6.70214C11.4159 6.29691 9.53667 6.09375 7.5 6.09375C5.46334 6.09375 3.58411 6.29691 1.8619 6.70214C1.5259 6.78119 1.18943 6.5729 1.11037 6.2369C1.03131 5.9009 1.2396 5.56442 1.5756 5.48536C2.04963 5.37383 2.53421 5.27686 3.02934 5.19444L3.65878 3.09987C3.87688 2.37287 4.54603 1.875 5.30504 1.875H9.69497Z" fill="#1B1B1B"/>
</svg>
