<svg width="11" height="12" viewBox="0 0 11 12" fill="none" xmlns="http://www.w3.org/2000/svg">
<path d="M9.05556 5.477H9.59028C9.8856 5.477 10.125 5.71639 10.125 6.01172V11.3589C10.125 11.6543 9.8856 11.8937 9.59028 11.8937H1.03472C0.739406 11.8937 0.5 11.6543 0.5 11.3589V6.01172C0.5 5.71639 0.739406 5.477 1.03472 5.477H1.56944V4.94227C1.56944 2.87504 3.24527 1.19922 5.3125 1.19922C7.37974 1.19922 9.05556 2.87504 9.05556 4.94227V5.477ZM7.98611 5.477V4.94227C7.98611 3.46568 6.78908 2.26866 5.3125 2.26866C3.83591 2.26866 2.63889 3.46568 2.63889 4.94227V5.477H7.98611ZM4.77778 7.61589V9.75477H5.84722V7.61589H4.77778Z" fill="#747CF7"/>
</svg>
