<svg width="1277" height="80" viewBox="0 0 1277 80" fill="none" xmlns="http://www.w3.org/2000/svg">
<g clip-path="url(#clip0_1938_4805)">
<rect width="1277" height="80" fill="white"/>
<rect width="1277" height="80" fill="url(#paint0_linear_1938_4805)"/>
<circle cx="223" cy="50.0005" r="211.966" stroke="white" stroke-opacity="0.1" stroke-width="2"/>
<circle cx="223" cy="50.0003" r="302.674" stroke="white" stroke-opacity="0.15" stroke-width="2"/>
<circle cx="223" cy="50" r="467" stroke="white" stroke-opacity="0.2" stroke-width="2"/>
<g clip-path="url(#clip1_1938_4805)">
<path d="M53.7602 44.4485C51.285 52.0507 43.1524 56.1759 35.5502 53.7597C27.948 51.3435 23.8228 43.1519 26.239 35.5497C28.6552 27.9475 36.8467 23.8223 44.4489 26.2385C48.751 27.6529 52.169 31.012 53.6423 35.314H55.2924C52.6994 26.8868 43.7418 22.1133 35.3145 24.7063C26.8872 27.2993 22.1138 36.2569 24.7068 44.6842C27.2998 53.1114 36.2574 57.8849 44.6847 55.2919C49.8707 53.7008 53.878 49.6345 55.3513 44.4485H53.7602Z" fill="white"/>
<path d="M48.8101 46.2166H48.6333C47.985 46.1577 47.3957 45.8041 47.0421 45.2737L43.6241 40.677C43.4473 40.3824 43.0937 40.1466 42.6812 40.1466C42.3276 40.1466 41.974 40.3234 41.7383 40.6181L39.3221 44.8023C38.6738 45.7452 37.4362 46.0398 36.4933 45.3916C36.3165 45.2737 36.1397 45.0969 36.0219 44.9201L35.9629 44.8612L32.6038 39.3216C32.427 39.0859 32.1913 38.9091 31.8966 38.9091C31.4252 38.968 31.0716 39.1448 30.7769 39.4984L25.7088 44.6255L25.0605 43.9772L30.1287 38.7912C30.6001 38.2608 31.2484 37.9072 31.9556 37.9072C32.5449 37.9662 33.0163 38.2608 33.3699 38.7323L33.4289 38.7912L36.8469 44.4487C37.2594 44.9201 37.9666 44.9791 38.4381 44.5665C38.497 44.5076 38.5559 44.4487 38.6149 44.3308L41.0311 40.1466C41.3847 39.5573 42.0329 39.2037 42.7401 39.2037C43.4473 39.2037 44.0955 39.5573 44.4491 40.1466L47.8672 44.7433C48.2208 45.2737 48.869 45.3916 49.3994 45.0969C49.4583 45.038 49.5762 44.9791 49.6351 44.9201L53.23 37.9072L54.055 38.3197L50.4012 45.3916L50.3423 45.4505C49.9887 45.922 49.3994 46.2166 48.8101 46.2166Z" fill="white"/>
<path d="M32.0146 39.9706C32.7632 39.9706 33.37 39.3638 33.37 38.6152C33.37 37.8666 32.7632 37.2598 32.0146 37.2598C31.266 37.2598 30.6592 37.8666 30.6592 38.6152C30.6592 39.3638 31.266 39.9706 32.0146 39.9706Z" fill="#E87E83"/>
<path d="M32.0145 40.3816C31.0127 40.3816 30.2466 39.6155 30.2466 38.6137C30.2466 37.6118 31.0127 36.8457 32.0145 36.8457C33.0164 36.8457 33.7825 37.6118 33.7825 38.6137C33.7825 39.6155 33.0164 40.3816 32.0145 40.3816ZM32.0145 37.6708C31.4842 37.6708 31.0716 38.0833 31.0716 38.6137C31.0716 39.144 31.4842 39.5566 32.0145 39.5566C32.5449 39.5566 32.9574 39.144 32.9574 38.6137C33.0164 38.0833 32.5449 37.6708 32.0145 37.6708Z" fill="white"/>
<path d="M37.7309 46.5702C38.4795 46.5702 39.0864 45.9634 39.0864 45.2148C39.0864 44.4662 38.4795 43.8594 37.7309 43.8594C36.9823 43.8594 36.3755 44.4662 36.3755 45.2148C36.3755 45.9634 36.9823 46.5702 37.7309 46.5702Z" fill="#E97E83"/>
<path d="M37.7308 46.9822C36.729 46.9822 35.9629 46.2161 35.9629 45.2142C35.9629 44.2124 36.729 43.4463 37.7308 43.4463C38.7327 43.4463 39.4988 44.2124 39.4988 45.2142C39.4988 46.2161 38.7327 46.9822 37.7308 46.9822ZM37.7308 44.2713C37.2005 44.2713 36.7879 44.6839 36.7879 45.2142C36.7879 45.7446 37.2005 46.1572 37.7308 46.1572C38.2612 46.1572 38.6738 45.7446 38.6738 45.2142C38.6738 44.6839 38.2612 44.2713 37.7308 44.2713Z" fill="white"/>
<path d="M43.0346 40.8534C43.7832 40.8534 44.3901 40.2466 44.3901 39.498C44.3901 38.7494 43.7832 38.1426 43.0346 38.1426C42.286 38.1426 41.6792 38.7494 41.6792 39.498C41.6792 40.2466 42.286 40.8534 43.0346 40.8534Z" fill="#E77D84"/>
<path d="M42.8583 41.0886C41.8564 41.0886 41.0903 40.3225 41.0903 39.3207C41.0903 38.3188 41.8564 37.5527 42.8583 37.5527C43.8601 37.5527 44.6262 38.3188 44.6262 39.3207C44.6262 40.3225 43.8012 41.0886 42.8583 41.0886ZM42.8583 38.3778C42.3279 38.3778 41.9154 38.7903 41.9154 39.3207C41.9154 39.8511 42.3279 40.2636 42.8583 40.2636C43.3887 40.2636 43.8012 39.8511 43.8012 39.3207C43.8012 38.8492 43.3887 38.3778 42.8583 38.3778Z" fill="white"/>
<path d="M48.81 46.8056C49.5586 46.8056 50.1655 46.1987 50.1655 45.4502C50.1655 44.7016 49.5586 44.0947 48.81 44.0947C48.0614 44.0947 47.4546 44.7016 47.4546 45.4502C47.4546 46.1987 48.0614 46.8056 48.81 46.8056Z" fill="#E67D84"/>
<path d="M48.8104 47.2185C47.8086 47.2185 47.0425 46.4524 47.0425 45.4506C47.0425 44.4487 47.8086 43.6826 48.8104 43.6826C49.8123 43.6826 50.5784 44.4487 50.5784 45.4506C50.5784 46.4524 49.8123 47.2185 48.8104 47.2185ZM48.8104 44.5077C48.28 44.5077 47.8675 44.9202 47.8675 45.4506C47.8675 45.981 48.28 46.3935 48.8104 46.3935C49.3408 46.3935 49.7533 45.981 49.7533 45.4506C49.7533 44.9202 49.3408 44.5077 48.8104 44.5077Z" fill="white"/>
<path d="M58.1699 27.5895H60.5387L63.3309 35.0386C63.5123 35.5292 63.6635 35.9593 63.7845 36.3289C63.9122 36.6985 64.023 37.0446 64.1171 37.3671C64.3523 36.5876 64.5976 35.8249 64.853 35.079C64.8866 34.9849 64.9101 34.921 64.9235 34.8874L67.887 27.0049L71.0118 35.0386C71.1597 35.4284 71.2974 35.8182 71.4251 36.2079C71.5595 36.5977 71.6838 36.9908 71.7981 37.3873C71.8653 37.0849 71.956 36.7522 72.0702 36.3894C72.1845 36.0265 72.3323 35.5964 72.5138 35.0991L75.2858 27.5895H77.6747L71.9594 42.9212L68.5926 34.5044C68.4448 34.1281 68.3104 33.7686 68.1894 33.4258C68.0685 33.0764 67.961 32.7471 67.8669 32.438C67.7526 32.8345 67.6384 33.2074 67.5242 33.5569C67.4099 33.8996 67.2923 34.2289 67.1714 34.5447L63.8651 42.9212L58.1699 27.5895Z" fill="white"/>
<path d="M81.7168 33.7585H82.3317C83.6622 33.7585 84.5493 33.614 84.9928 33.325C85.4363 33.0361 85.6581 32.5254 85.6581 31.7929C85.6581 31.0066 85.4195 30.4522 84.9424 30.1297C84.472 29.8071 83.6018 29.6458 82.3317 29.6458H81.7168V33.7585ZM81.5656 35.7241V42.3466H79.3178V27.5895H82.9466C84.0218 27.5895 84.8113 27.65 85.3154 27.771C85.8261 27.8852 86.2696 28.0767 86.6459 28.3455C87.1096 28.6882 87.4725 29.1519 87.7345 29.7366C87.9966 30.3145 88.1277 30.9529 88.1277 31.6518C88.1277 32.3506 87.9966 32.9958 87.7345 33.5871C87.4725 34.1785 87.1096 34.6422 86.6459 34.9782C86.2696 35.247 85.8261 35.4385 85.3154 35.5527C84.8113 35.667 84.0218 35.7241 82.9466 35.7241H81.5656Z" fill="white"/>
<path d="M95.951 34.1516C96.9119 34.5615 97.6343 35.1058 98.1182 35.7846C98.6087 36.4633 98.854 37.2663 98.854 38.1937C98.854 39.5511 98.4206 40.6465 97.5537 41.4798C96.6935 42.3063 95.5511 42.7196 94.1265 42.7196C92.9639 42.7196 91.9895 42.4239 91.2033 41.8326C90.4171 41.2345 89.8862 40.3878 89.6107 39.2924L91.2033 38.5062C91.4183 39.3999 91.7711 40.0786 92.2617 40.5423C92.759 40.9993 93.3806 41.2278 94.1265 41.2278C95.0068 41.2278 95.7191 40.9758 96.2635 40.4718C96.8078 39.961 97.0799 39.2991 97.0799 38.486C97.0799 37.8274 96.8884 37.2562 96.5054 36.7724C96.1291 36.2818 95.5579 35.8686 94.7918 35.5326L92.9975 34.7665C92.0164 34.3566 91.2839 33.829 90.8001 33.1839C90.323 32.5388 90.0844 31.766 90.0844 30.8655C90.0844 29.8172 90.4742 28.9503 91.2537 28.2649C92.0332 27.5794 93.0278 27.2367 94.2374 27.2367C95.1244 27.2367 95.8905 27.4249 96.5356 27.8012C97.1875 28.1775 97.6948 28.7319 98.0577 29.4644L96.6062 30.3918C96.2769 29.8206 95.9073 29.3972 95.4974 29.1217C95.0875 28.8394 94.6238 28.6983 94.1063 28.6983C93.4478 28.6983 92.9068 28.8999 92.4835 29.3031C92.0668 29.7063 91.8585 30.2204 91.8585 30.8454C91.8585 31.3695 92.0198 31.8231 92.3423 32.2062C92.6649 32.5892 93.1655 32.9286 93.8443 33.2242L95.951 34.1516Z" fill="white"/>
<path d="M101.283 34.4238H99.5899V33.1234H101.283V29.4039H102.896V33.1234H104.59V34.4238H102.896V42.3466H101.283V34.4238Z" fill="white"/>
<path d="M113.44 37.8207C113.44 36.7791 113.154 35.9425 112.583 35.3108C112.018 34.6724 111.279 34.3532 110.365 34.3532C109.418 34.3532 108.679 34.6455 108.148 35.2302C107.617 35.8148 107.351 36.6313 107.351 37.6796C107.351 38.7951 107.617 39.6553 108.148 40.2601C108.685 40.8649 109.445 41.1673 110.426 41.1673C111.367 41.1673 112.102 40.875 112.633 40.2903C113.171 39.699 113.44 38.8758 113.44 37.8207ZM114.972 33.1234V42.3466H113.44V40.6734C113.07 41.3454 112.596 41.8594 112.018 42.2156C111.447 42.565 110.806 42.7398 110.093 42.7398C108.769 42.7398 107.701 42.2862 106.888 41.379C106.081 40.465 105.678 39.2588 105.678 37.7602C105.678 36.2415 106.071 35.0353 106.858 34.1415C107.644 33.241 108.695 32.7908 110.013 32.7908C110.785 32.7908 111.454 32.9655 112.018 33.315C112.59 33.6577 113.05 34.1718 113.399 34.8572V33.1234H114.972Z" fill="white"/>
<path d="M118.379 34.4238H116.686V33.1234H118.379V29.4039H119.992V33.1234H121.685V34.4238H119.992V42.3466H118.379V34.4238Z" fill="white"/>
<path d="M123.187 28.6782C123.187 28.3623 123.298 28.0935 123.52 27.8718C123.748 27.6433 124.024 27.529 124.346 27.529C124.662 27.529 124.931 27.6433 125.153 27.8718C125.381 28.1002 125.495 28.3758 125.495 28.6983C125.495 29.0142 125.385 29.283 125.163 29.5047C124.941 29.7265 124.669 29.8374 124.346 29.8374C124.024 29.8374 123.748 29.7265 123.52 29.5047C123.298 29.283 123.187 29.0074 123.187 28.6782ZM123.56 42.3466V33.1234H125.153V42.3466H123.56Z" fill="white"/>
<path d="M127.501 40.7943L128.852 39.8871C129.107 40.3777 129.43 40.7473 129.82 40.9959C130.21 41.2378 130.67 41.3588 131.201 41.3588C131.718 41.3588 132.135 41.2311 132.451 40.9758C132.773 40.7204 132.934 40.3844 132.934 39.9678C132.934 39.6452 132.824 39.3764 132.602 39.1614C132.387 38.9463 132.014 38.7481 131.483 38.5666L131.221 38.4759C128.976 37.7031 127.854 36.7354 127.854 35.5729C127.854 34.753 128.157 34.0844 128.761 33.567C129.366 33.0495 130.152 32.7908 131.12 32.7908C131.92 32.7908 132.605 32.9521 133.176 33.2746C133.748 33.5905 134.158 34.0407 134.406 34.6254L133.126 35.4116C132.938 34.9882 132.659 34.6623 132.289 34.4338C131.926 34.2054 131.503 34.0911 131.019 34.0911C130.556 34.0911 130.176 34.2222 129.88 34.4842C129.591 34.7396 129.447 35.0689 129.447 35.4721C129.447 36.0366 130.058 36.5103 131.281 36.8934C131.51 36.9673 131.691 37.0244 131.826 37.0647C132.827 37.3873 133.522 37.7569 133.912 38.1735C134.309 38.5834 134.507 39.1278 134.507 39.8065C134.507 40.6801 134.194 41.389 133.57 41.9334C132.951 42.471 132.142 42.7398 131.14 42.7398C130.28 42.7398 129.548 42.5785 128.943 42.2559C128.345 41.9334 127.864 41.4462 127.501 40.7943Z" fill="white"/>
<path d="M137.128 34.4238H135.434V33.1234H137.128V29.4039H138.741V33.1234H140.434V34.4238H138.741V42.3466H137.128V34.4238Z" fill="white"/>
<path d="M141.936 28.6782C141.936 28.3623 142.047 28.0935 142.269 27.8718C142.497 27.6433 142.773 27.529 143.095 27.529C143.411 27.529 143.68 27.6433 143.902 27.8718C144.13 28.1002 144.244 28.3758 144.244 28.6983C144.244 29.0142 144.133 29.283 143.912 29.5047C143.69 29.7265 143.418 29.8374 143.095 29.8374C142.773 29.8374 142.497 29.7265 142.269 29.5047C142.047 29.283 141.936 29.0074 141.936 28.6782ZM142.309 42.3466V33.1234H143.902V42.3466H142.309Z" fill="white"/>
<path d="M154.304 40.1593V41.9938C153.887 42.2425 153.417 42.4273 152.893 42.5482C152.375 42.6759 151.814 42.7398 151.21 42.7398C149.785 42.7398 148.636 42.2895 147.762 41.389C146.895 40.4818 146.462 39.2924 146.462 37.8207C146.462 36.3423 146.912 35.1361 147.813 34.202C148.713 33.2612 149.866 32.7908 151.27 32.7908C151.781 32.7908 152.278 32.8446 152.762 32.9521C153.252 33.0596 153.713 33.2175 154.143 33.4258V35.1193C153.74 34.8572 153.323 34.659 152.893 34.5246C152.463 34.3834 152.026 34.3129 151.582 34.3129C150.548 34.3129 149.718 34.6388 149.093 35.2906C148.468 35.9358 148.155 36.7959 148.155 37.8711C148.155 38.8186 148.468 39.6116 149.093 40.25C149.724 40.8884 150.514 41.2076 151.462 41.2076C151.939 41.2076 152.406 41.1236 152.863 40.9556C153.32 40.7876 153.8 40.5222 154.304 40.1593Z" fill="white"/>
<path d="M155.524 40.7943L156.874 39.8871C157.13 40.3777 157.452 40.7473 157.842 40.9959C158.232 41.2378 158.692 41.3588 159.223 41.3588C159.741 41.3588 160.157 41.2311 160.473 40.9758C160.796 40.7204 160.957 40.3844 160.957 39.9678C160.957 39.6452 160.846 39.3764 160.624 39.1614C160.409 38.9463 160.036 38.7481 159.505 38.5666L159.243 38.4759C156.999 37.7031 155.877 36.7354 155.877 35.5729C155.877 34.753 156.179 34.0844 156.784 33.567C157.389 33.0495 158.175 32.7908 159.142 32.7908C159.942 32.7908 160.628 32.9521 161.199 33.2746C161.77 33.5905 162.18 34.0407 162.429 34.6254L161.148 35.4116C160.96 34.9882 160.681 34.6623 160.312 34.4338C159.949 34.2054 159.525 34.0911 159.042 34.0911C158.578 34.0911 158.198 34.2222 157.903 34.4842C157.614 34.7396 157.469 35.0689 157.469 35.4721C157.469 36.0366 158.081 36.5103 159.304 36.8934C159.532 36.9673 159.714 37.0244 159.848 37.0647C160.849 37.3873 161.545 37.7569 161.935 38.1735C162.331 38.5834 162.529 39.1278 162.529 39.8065C162.529 40.6801 162.217 41.389 161.592 41.9334C160.974 42.471 160.164 42.7398 159.163 42.7398C158.302 42.7398 157.57 42.5785 156.965 42.2559C156.367 41.9334 155.887 41.4462 155.524 40.7943Z" fill="white"/>
<path d="M59.7313 51.333L58.4497 46.7122H59.183L60.0832 50.2906H60.1261L61.0625 46.7122H61.789L62.7253 50.2929H62.7682L63.6662 46.7122H64.4017L63.1179 51.333H62.4162L61.4438 47.8719H61.4077L60.4352 51.333H59.7313ZM66.1018 51.403C65.7769 51.403 65.4934 51.3285 65.2512 51.1796C65.009 51.0307 64.821 50.8223 64.6871 50.5546C64.5533 50.2869 64.4863 49.974 64.4863 49.616C64.4863 49.2565 64.5533 48.9421 64.6871 48.6729C64.821 48.4036 65.009 48.1946 65.2512 48.0456C65.4934 47.8967 65.7769 47.8223 66.1018 47.8223C66.4267 47.8223 66.7102 47.8967 66.9524 48.0456C67.1946 48.1946 67.3826 48.4036 67.5165 48.6729C67.6504 48.9421 67.7173 49.2565 67.7173 49.616C67.7173 49.974 67.6504 50.2869 67.5165 50.5546C67.3826 50.8223 67.1946 51.0307 66.9524 51.1796C66.7102 51.3285 66.4267 51.403 66.1018 51.403ZM66.1041 50.8366C66.3147 50.8366 66.4891 50.781 66.6275 50.6697C66.7659 50.5584 66.8682 50.4102 66.9344 50.2252C67.0021 50.0402 67.0359 49.8364 67.0359 49.6137C67.0359 49.3926 67.0021 49.1896 66.9344 49.0045C66.8682 48.818 66.7659 48.6684 66.6275 48.5556C66.4891 48.4427 66.3147 48.3863 66.1041 48.3863C65.892 48.3863 65.716 48.4427 65.5761 48.5556C65.4377 48.6684 65.3347 48.818 65.267 49.0045C65.2008 49.1896 65.1677 49.3926 65.1677 49.6137C65.1677 49.8364 65.2008 50.0402 65.267 50.2252C65.3347 50.4102 65.4377 50.5584 65.5761 50.6697C65.716 50.781 65.892 50.8366 66.1041 50.8366ZM68.4703 51.333V47.8674H69.1224V48.4179H69.1585C69.2217 48.2314 69.333 48.0847 69.4924 47.978C69.6533 47.8697 69.8354 47.8155 70.0384 47.8155C70.0805 47.8155 70.1302 47.817 70.1873 47.82C70.246 47.823 70.2919 47.8268 70.325 47.8313V48.4766C70.2979 48.4691 70.2498 48.4608 70.1806 48.4518C70.1114 48.4412 70.0422 48.436 69.973 48.436C69.8135 48.436 69.6714 48.4698 69.5466 48.5375C69.4232 48.6037 69.3254 48.6962 69.2532 48.815C69.181 48.9323 69.1449 49.0662 69.1449 49.2166V51.333H68.4703ZM72.082 51.4007C71.8022 51.4007 71.5526 51.3292 71.3329 51.1864C71.1148 51.042 70.9434 50.8366 70.8185 50.5704C70.6952 50.3026 70.6335 49.9815 70.6335 49.607C70.6335 49.2324 70.6959 48.912 70.8208 48.6458C70.9471 48.3796 71.1201 48.1758 71.3397 48.0344C71.5593 47.893 71.8083 47.8223 72.0865 47.8223C72.3016 47.8223 72.4746 47.8584 72.6055 47.9306C72.7378 48.0013 72.8401 48.084 72.9123 48.1788C72.986 48.2735 73.0432 48.357 73.0838 48.4292H73.1244V46.7122H73.799V51.333H73.1402V50.7938H73.0838C73.0432 50.8675 72.9845 50.9517 72.9078 51.0465C72.8326 51.1412 72.7288 51.224 72.5965 51.2947C72.4641 51.3653 72.2926 51.4007 72.082 51.4007ZM72.2309 50.8253C72.425 50.8253 72.5889 50.7742 72.7228 50.6719C72.8582 50.5681 72.9605 50.4245 73.0297 50.241C73.1003 50.0575 73.1357 49.8439 73.1357 49.6002C73.1357 49.3595 73.1011 49.1489 73.0319 48.9684C72.9627 48.7879 72.8612 48.6473 72.7273 48.5465C72.5934 48.4457 72.428 48.3954 72.2309 48.3954C72.0279 48.3954 71.8587 48.448 71.7233 48.5533C71.5879 48.6586 71.4856 48.8022 71.4164 48.9842C71.3487 49.1662 71.3149 49.3716 71.3149 49.6002C71.3149 49.8318 71.3495 50.0402 71.4187 50.2252C71.4879 50.4102 71.5902 50.5569 71.7255 50.6652C71.8624 50.772 72.0309 50.8253 72.2309 50.8253ZM74.816 51.333V46.7122H76.4631C76.8226 46.7122 77.1204 46.7776 77.3566 46.9085C77.5927 47.0393 77.7695 47.2183 77.8868 47.4455C78.0041 47.6711 78.0628 47.9253 78.0628 48.2081C78.0628 48.4924 78.0034 48.7481 77.8846 48.9752C77.7672 49.2008 77.5897 49.3798 77.3521 49.5122C77.1159 49.6431 76.8188 49.7085 76.4609 49.7085H75.3282V49.1174H76.3977C76.6248 49.1174 76.8091 49.0783 76.9505 49C77.0919 48.9203 77.1956 48.812 77.2618 48.6751C77.328 48.5383 77.3611 48.3826 77.3611 48.2081C77.3611 48.0336 77.328 47.8787 77.2618 47.7433C77.1956 47.6079 77.0911 47.5019 76.9482 47.4252C76.8068 47.3485 76.6203 47.3101 76.3887 47.3101H75.5132V51.333H74.816ZM78.826 51.333V47.8674H79.478V48.4179H79.5141C79.5773 48.2314 79.6886 48.0847 79.8481 47.978C80.009 47.8697 80.191 47.8155 80.3941 47.8155C80.4362 47.8155 80.4858 47.817 80.543 47.82C80.6017 47.823 80.6475 47.8268 80.6806 47.8313V48.4766C80.6535 48.4691 80.6054 48.4608 80.5362 48.4518C80.467 48.4412 80.3978 48.436 80.3286 48.436C80.1692 48.436 80.0271 48.4698 79.9022 48.5375C79.7789 48.6037 79.6811 48.6962 79.6089 48.815C79.5367 48.9323 79.5006 49.0662 79.5006 49.2166V51.333H78.826ZM82.634 51.403C82.2925 51.403 81.9985 51.33 81.7518 51.1841C81.5066 51.0367 81.3171 50.8299 81.1832 50.5636C81.0508 50.2959 80.9847 49.9823 80.9847 49.6228C80.9847 49.2678 81.0508 48.9549 81.1832 48.6842C81.3171 48.4134 81.5036 48.2021 81.7428 48.0502C81.9834 47.8982 82.2647 47.8223 82.5866 47.8223C82.7821 47.8223 82.9717 47.8546 83.1552 47.9193C83.3387 47.984 83.5034 48.0855 83.6493 48.2239C83.7952 48.3623 83.9103 48.542 83.9945 48.7631C84.0787 48.9827 84.1209 49.2497 84.1209 49.5641V49.8033H81.366V49.2979H83.4598C83.4598 49.1204 83.4237 48.9632 83.3515 48.8263C83.2793 48.6879 83.1777 48.5789 83.0469 48.4991C82.9175 48.4194 82.7656 48.3796 82.5911 48.3796C82.4016 48.3796 82.2361 48.4262 82.0947 48.5195C81.9548 48.6112 81.8465 48.7315 81.7698 48.8805C81.6946 49.0279 81.657 49.1881 81.657 49.361V49.7559C81.657 49.9875 81.6976 50.1846 81.7789 50.347C81.8616 50.5095 81.9767 50.6336 82.1241 50.7193C82.2715 50.8035 82.4437 50.8457 82.6407 50.8457C82.7686 50.8457 82.8852 50.8276 82.9905 50.7915C83.0958 50.7539 83.1868 50.6982 83.2635 50.6245C83.3402 50.5508 83.3989 50.4598 83.4395 50.3515L84.078 50.4666C84.0268 50.6546 83.9351 50.8193 83.8027 50.9607C83.6719 51.1006 83.5072 51.2097 83.3086 51.2879C83.1116 51.3646 82.8867 51.403 82.634 51.403ZM87.4663 48.7135L86.8549 48.8218C86.8293 48.7436 86.7887 48.6691 86.733 48.5984C86.6789 48.5277 86.6052 48.4698 86.5119 48.4247C86.4187 48.3796 86.3021 48.357 86.1622 48.357C85.9712 48.357 85.8117 48.3999 85.6839 48.4856C85.556 48.5698 85.4921 48.6789 85.4921 48.8128C85.4921 48.9286 85.535 49.0218 85.6207 49.0925C85.7064 49.1632 85.8448 49.2212 86.0359 49.2663L86.5864 49.3926C86.9053 49.4663 87.1429 49.5799 87.2994 49.7333C87.4558 49.8867 87.534 50.086 87.534 50.3312C87.534 50.5388 87.4738 50.7238 87.3535 50.8863C87.2347 51.0472 87.0685 51.1736 86.8549 51.2653C86.6428 51.3571 86.3969 51.403 86.1171 51.403C85.729 51.403 85.4124 51.3202 85.1672 51.1548C84.922 50.9878 84.7716 50.7509 84.7159 50.444L85.368 50.3448C85.4086 50.5147 85.4921 50.6433 85.6184 50.7306C85.7448 50.8163 85.9095 50.8592 86.1126 50.8592C86.3337 50.8592 86.5104 50.8133 86.6428 50.7216C86.7752 50.6283 86.8413 50.5147 86.8413 50.3809C86.8413 50.2726 86.8007 50.1816 86.7195 50.1079C86.6398 50.0342 86.5172 49.9785 86.3517 49.9409L85.7651 49.8123C85.4417 49.7386 85.2025 49.6213 85.0476 49.4603C84.8942 49.2994 84.8175 49.0956 84.8175 48.8489C84.8175 48.6443 84.8746 48.4653 84.9889 48.3119C85.1033 48.1585 85.2612 48.0389 85.4628 47.9531C85.6643 47.8659 85.8952 47.8223 86.1554 47.8223C86.53 47.8223 86.8248 47.9035 87.0399 48.0659C87.255 48.2269 87.3971 48.4427 87.4663 48.7135ZM90.8727 48.7135L90.2613 48.8218C90.2357 48.7436 90.1951 48.6691 90.1394 48.5984C90.0853 48.5277 90.0116 48.4698 89.9183 48.4247C89.8251 48.3796 89.7085 48.357 89.5686 48.357C89.3776 48.357 89.2181 48.3999 89.0903 48.4856C88.9624 48.5698 88.8985 48.6789 88.8985 48.8128C88.8985 48.9286 88.9414 49.0218 89.0271 49.0925C89.1128 49.1632 89.2512 49.2212 89.4422 49.2663L89.9928 49.3926C90.3117 49.4663 90.5493 49.5799 90.7057 49.7333C90.8622 49.8867 90.9404 50.086 90.9404 50.3312C90.9404 50.5388 90.8802 50.7238 90.7599 50.8863C90.6411 51.0472 90.4749 51.1736 90.2613 51.2653C90.0492 51.3571 89.8032 51.403 89.5235 51.403C89.1354 51.403 88.8188 51.3202 88.5736 51.1548C88.3284 50.9878 88.178 50.7509 88.1223 50.444L88.7744 50.3448C88.815 50.5147 88.8985 50.6433 89.0248 50.7306C89.1512 50.8163 89.3159 50.8592 89.519 50.8592C89.7401 50.8592 89.9168 50.8133 90.0492 50.7216C90.1815 50.6283 90.2477 50.5147 90.2477 50.3809C90.2477 50.2726 90.2071 50.1816 90.1259 50.1079C90.0462 50.0342 89.9236 49.9785 89.7581 49.9409L89.1715 49.8123C88.8481 49.7386 88.6089 49.6213 88.454 49.4603C88.3006 49.2994 88.2239 49.0956 88.2239 48.8489C88.2239 48.6443 88.281 48.4653 88.3953 48.3119C88.5097 48.1585 88.6676 48.0389 88.8692 47.9531C89.0707 47.8659 89.3016 47.8223 89.5618 47.8223C89.9364 47.8223 90.2312 47.9035 90.4463 48.0659C90.6614 48.2269 90.8035 48.4427 90.8727 48.7135ZM94.0382 46.7122V51.333H93.3636V46.7122H94.0382ZM96.4395 51.403C96.098 51.403 95.8039 51.33 95.5573 51.1841C95.3121 51.0367 95.1226 50.8299 94.9887 50.5636C94.8563 50.2959 94.7901 49.9823 94.7901 49.6228C94.7901 49.2678 94.8563 48.9549 94.9887 48.6842C95.1226 48.4134 95.3091 48.2021 95.5482 48.0502C95.7889 47.8982 96.0702 47.8223 96.3921 47.8223C96.5876 47.8223 96.7771 47.8546 96.9607 47.9193C97.1442 47.984 97.3089 48.0855 97.4548 48.2239C97.6007 48.3623 97.7158 48.542 97.8 48.7631C97.8842 48.9827 97.9263 49.2497 97.9263 49.5641V49.8033H95.1714V49.2979H97.2653C97.2653 49.1204 97.2292 48.9632 97.157 48.8263C97.0848 48.6879 96.9832 48.5789 96.8524 48.4991C96.723 48.4194 96.5711 48.3796 96.3966 48.3796C96.2071 48.3796 96.0416 48.4262 95.9002 48.5195C95.7603 48.6112 95.652 48.7315 95.5753 48.8805C95.5001 49.0279 95.4625 49.1881 95.4625 49.361V49.7559C95.4625 49.9875 95.5031 50.1846 95.5843 50.347C95.6671 50.5095 95.7821 50.6336 95.9295 50.7193C96.077 50.8035 96.2492 50.8457 96.4462 50.8457C96.5741 50.8457 96.6907 50.8276 96.7959 50.7915C96.9012 50.7539 96.9922 50.6982 97.069 50.6245C97.1457 50.5508 97.2043 50.4598 97.2449 50.3515L97.8835 50.4666C97.8323 50.6546 97.7406 50.8193 97.6082 50.9607C97.4773 51.1006 97.3126 51.2097 97.1141 51.2879C96.917 51.3646 96.6922 51.403 96.4395 51.403ZM99.6834 51.4097C99.4638 51.4097 99.2652 51.3691 99.0877 51.2879C98.9103 51.2052 98.7696 51.0856 98.6658 50.9291C98.5635 50.7727 98.5124 50.5809 98.5124 50.3538C98.5124 50.1582 98.55 49.9973 98.6252 49.871C98.7004 49.7446 98.802 49.6446 98.9298 49.5709C99.0577 49.4972 99.2006 49.4415 99.3585 49.4039C99.5164 49.3663 99.6774 49.3377 99.8413 49.3182C100.049 49.2941 100.217 49.2745 100.347 49.2595C100.476 49.243 100.57 49.2166 100.629 49.1805C100.687 49.1444 100.717 49.0858 100.717 49.0045V48.9888C100.717 48.7917 100.661 48.639 100.55 48.5307C100.44 48.4224 100.276 48.3683 100.058 48.3683C99.8308 48.3683 99.6518 48.4187 99.5209 48.5195C99.3916 48.6187 99.3021 48.7293 99.2525 48.8511L98.6184 48.7067C98.6937 48.4961 98.8035 48.3262 98.9479 48.1968C99.0938 48.0659 99.2615 47.9712 99.451 47.9125C99.6405 47.8524 99.8398 47.8223 100.049 47.8223C100.187 47.8223 100.334 47.8388 100.489 47.8719C100.645 47.9035 100.791 47.9622 100.927 48.0479C101.063 48.1336 101.176 48.2562 101.263 48.4157C101.35 48.5736 101.394 48.7789 101.394 49.0316V51.333H100.735V50.8592H100.708C100.664 50.9464 100.599 51.0322 100.511 51.1164C100.424 51.2006 100.312 51.2706 100.175 51.3262C100.038 51.3819 99.8744 51.4097 99.6834 51.4097ZM99.8301 50.8682C100.017 50.8682 100.176 50.8314 100.308 50.7577C100.442 50.684 100.544 50.5877 100.613 50.4689C100.684 50.3485 100.719 50.2199 100.719 50.083V49.6363C100.695 49.6604 100.648 49.6829 100.579 49.704C100.511 49.7235 100.434 49.7408 100.347 49.7559C100.259 49.7694 100.175 49.7822 100.092 49.7942C100.009 49.8048 99.9399 49.8138 99.8842 49.8213C99.7533 49.8379 99.6338 49.8657 99.5255 49.9048C99.4187 49.9439 99.3329 50.0003 99.2682 50.074C99.2051 50.1462 99.1735 50.2425 99.1735 50.3628C99.1735 50.5298 99.2352 50.6561 99.3585 50.7419C99.4818 50.8261 99.639 50.8682 99.8301 50.8682ZM103.59 51.4007C103.31 51.4007 103.06 51.3292 102.84 51.1864C102.622 51.042 102.451 50.8366 102.326 50.5704C102.203 50.3026 102.141 49.9815 102.141 49.607C102.141 49.2324 102.203 48.912 102.328 48.6458C102.455 48.3796 102.628 48.1758 102.847 48.0344C103.067 47.893 103.316 47.8223 103.594 47.8223C103.809 47.8223 103.982 47.8584 104.113 47.9306C104.245 48.0013 104.348 48.084 104.42 48.1788C104.494 48.2735 104.551 48.357 104.591 48.4292H104.632V46.7122H105.307V51.333H104.648V50.7938H104.591C104.551 50.8675 104.492 50.9517 104.415 51.0465C104.34 51.1412 104.236 51.224 104.104 51.2947C103.972 51.3653 103.8 51.4007 103.59 51.4007ZM103.738 50.8253C103.932 50.8253 104.096 50.7742 104.23 50.6719C104.366 50.5681 104.468 50.4245 104.537 50.241C104.608 50.0575 104.643 49.8439 104.643 49.6002C104.643 49.3595 104.609 49.1489 104.539 48.9684C104.47 48.7879 104.369 48.6473 104.235 48.5465C104.101 48.4457 103.936 48.3954 103.738 48.3954C103.535 48.3954 103.366 48.448 103.231 48.5533C103.095 48.6586 102.993 48.8022 102.924 48.9842C102.856 49.1662 102.822 49.3716 102.822 49.6002C102.822 49.8318 102.857 50.0402 102.926 50.2252C102.995 50.4102 103.098 50.5569 103.233 50.6652C103.37 50.772 103.538 50.8253 103.738 50.8253ZM106.269 51.333V47.8674H106.944V51.333H106.269ZM106.61 47.3327C106.493 47.3327 106.392 47.2936 106.308 47.2153C106.225 47.1356 106.184 47.0409 106.184 46.931C106.184 46.8197 106.225 46.725 106.308 46.6468C106.392 46.567 106.493 46.5272 106.61 46.5272C106.727 46.5272 106.827 46.567 106.91 46.6468C106.994 46.725 107.037 46.8197 107.037 46.931C107.037 47.0409 106.994 47.1356 106.91 47.2153C106.827 47.2936 106.727 47.3327 106.61 47.3327ZM108.526 49.2753V51.333H107.852V47.8674H108.499V48.4315H108.542C108.622 48.248 108.747 48.1005 108.917 47.9892C109.088 47.8779 109.304 47.8223 109.564 47.8223C109.8 47.8223 110.007 47.8719 110.185 47.9712C110.362 48.069 110.5 48.2149 110.597 48.4089C110.695 48.6029 110.744 48.8429 110.744 49.1286V51.333H110.07V49.2099C110.07 48.9587 110.004 48.7624 109.873 48.621C109.742 48.4781 109.563 48.4066 109.334 48.4066C109.178 48.4066 109.038 48.4405 108.917 48.5082C108.796 48.5759 108.701 48.6751 108.63 48.806C108.561 48.9354 108.526 49.0918 108.526 49.2753ZM113.102 52.7048C112.827 52.7048 112.59 52.6687 112.391 52.5965C112.194 52.5243 112.033 52.4288 111.908 52.31C111.784 52.1911 111.69 52.061 111.629 51.9196L112.208 51.6805C112.249 51.7467 112.303 51.8166 112.371 51.8903C112.44 51.9655 112.533 52.0294 112.651 52.0821C112.77 52.1347 112.922 52.1611 113.109 52.1611C113.364 52.1611 113.576 52.0986 113.743 51.9738C113.91 51.8504 113.993 51.6534 113.993 51.3826V50.7013H113.95C113.91 50.775 113.851 50.8569 113.774 50.9472C113.699 51.0374 113.595 51.1157 113.463 51.1818C113.331 51.248 113.158 51.2811 112.946 51.2811C112.672 51.2811 112.426 51.2172 112.206 51.0893C111.988 50.96 111.815 50.7697 111.687 50.5185C111.561 50.2658 111.498 49.9552 111.498 49.5867C111.498 49.2181 111.56 48.9023 111.685 48.639C111.811 48.3758 111.984 48.1742 112.204 48.0344C112.424 47.893 112.672 47.8223 112.951 47.8223C113.166 47.8223 113.34 47.8584 113.472 47.9306C113.604 48.0013 113.707 48.084 113.781 48.1788C113.856 48.2735 113.914 48.357 113.955 48.4292H114.004V47.8674H114.666V51.4097C114.666 51.7075 114.596 51.952 114.458 52.143C114.32 52.334 114.132 52.4754 113.896 52.5672C113.661 52.6589 113.397 52.7048 113.102 52.7048ZM113.095 50.7216C113.289 50.7216 113.453 50.6764 113.587 50.5862C113.722 50.4944 113.825 50.3636 113.894 50.1936C113.965 50.0221 114 49.8168 114 49.5776C114 49.3445 113.965 49.1392 113.896 48.9617C113.827 48.7842 113.725 48.6458 113.592 48.5465C113.458 48.4457 113.292 48.3954 113.095 48.3954C112.892 48.3954 112.723 48.448 112.588 48.5533C112.452 48.6571 112.35 48.7985 112.281 48.9775C112.213 49.1565 112.179 49.3565 112.179 49.5776C112.179 49.8048 112.214 50.0041 112.283 50.1755C112.352 50.347 112.454 50.4809 112.59 50.5772C112.727 50.6734 112.895 50.7216 113.095 50.7216ZM119.849 48.7135L119.237 48.8218C119.212 48.7436 119.171 48.6691 119.115 48.5984C119.061 48.5277 118.988 48.4698 118.894 48.4247C118.801 48.3796 118.684 48.357 118.545 48.357C118.354 48.357 118.194 48.3999 118.066 48.4856C117.938 48.5698 117.874 48.6789 117.874 48.8128C117.874 48.9286 117.917 49.0218 118.003 49.0925C118.089 49.1632 118.227 49.2212 118.418 49.2663L118.969 49.3926C119.288 49.4663 119.525 49.5799 119.682 49.7333C119.838 49.8867 119.916 50.086 119.916 50.3312C119.916 50.5388 119.856 50.7238 119.736 50.8863C119.617 51.0472 119.451 51.1736 119.237 51.2653C119.025 51.3571 118.779 51.403 118.499 51.403C118.111 51.403 117.795 51.3202 117.55 51.1548C117.304 50.9878 117.154 50.7509 117.098 50.444L117.75 50.3448C117.791 50.5147 117.874 50.6433 118.001 50.7306C118.127 50.8163 118.292 50.8592 118.495 50.8592C118.716 50.8592 118.893 50.8133 119.025 50.7216C119.158 50.6283 119.224 50.5147 119.224 50.3809C119.224 50.2726 119.183 50.1816 119.102 50.1079C119.022 50.0342 118.9 49.9785 118.734 49.9409L118.147 49.8123C117.824 49.7386 117.585 49.6213 117.43 49.4603C117.277 49.2994 117.2 49.0956 117.2 48.8489C117.2 48.6443 117.257 48.4653 117.371 48.3119C117.486 48.1585 117.644 48.0389 117.845 47.9531C118.047 47.8659 118.278 47.8223 118.538 47.8223C118.912 47.8223 119.207 47.9035 119.422 48.0659C119.637 48.2269 119.78 48.4427 119.849 48.7135ZM122.276 47.8674V48.4089H120.383V47.8674H122.276ZM120.891 47.0371H121.565V50.3154C121.565 50.4463 121.585 50.5448 121.624 50.611C121.663 50.6757 121.713 50.7201 121.775 50.7441C121.838 50.7667 121.907 50.778 121.98 50.778C122.034 50.778 122.082 50.7742 122.122 50.7667C122.163 50.7592 122.195 50.7531 122.217 50.7486L122.339 51.3059C122.3 51.321 122.244 51.336 122.172 51.3511C122.1 51.3676 122.01 51.3766 121.901 51.3781C121.724 51.3811 121.558 51.3496 121.405 51.2834C121.252 51.2172 121.127 51.1149 121.033 50.9765C120.938 50.8381 120.891 50.6644 120.891 50.4553V47.0371ZM124.031 51.4097C123.811 51.4097 123.613 51.3691 123.435 51.2879C123.258 51.2052 123.117 51.0856 123.013 50.9291C122.911 50.7727 122.86 50.5809 122.86 50.3538C122.86 50.1582 122.897 49.9973 122.972 49.871C123.048 49.7446 123.149 49.6446 123.277 49.5709C123.405 49.4972 123.548 49.4415 123.706 49.4039C123.864 49.3663 124.025 49.3377 124.189 49.3182C124.396 49.2941 124.565 49.2745 124.694 49.2595C124.823 49.243 124.917 49.2166 124.976 49.1805C125.035 49.1444 125.064 49.0858 125.064 49.0045V48.9888C125.064 48.7917 125.008 48.639 124.897 48.5307C124.787 48.4224 124.623 48.3683 124.405 48.3683C124.178 48.3683 123.999 48.4187 123.868 48.5195C123.739 48.6187 123.649 48.7293 123.6 48.8511L122.966 48.7067C123.041 48.4961 123.151 48.3262 123.295 48.1968C123.441 48.0659 123.609 47.9712 123.798 47.9125C123.988 47.8524 124.187 47.8223 124.396 47.8223C124.535 47.8223 124.681 47.8388 124.836 47.8719C124.993 47.9035 125.139 47.9622 125.274 48.0479C125.411 48.1336 125.523 48.2562 125.61 48.4157C125.697 48.5736 125.741 48.7789 125.741 49.0316V51.333H125.082V50.8592H125.055C125.011 50.9464 124.946 51.0322 124.859 51.1164C124.771 51.2006 124.659 51.2706 124.523 51.3262C124.386 51.3819 124.222 51.4097 124.031 51.4097ZM124.177 50.8682C124.364 50.8682 124.523 50.8314 124.656 50.7577C124.79 50.684 124.891 50.5877 124.96 50.4689C125.031 50.3485 125.066 50.2199 125.066 50.083V49.6363C125.042 49.6604 124.996 49.6829 124.926 49.704C124.859 49.7235 124.781 49.7408 124.694 49.7559C124.607 49.7694 124.522 49.7822 124.439 49.7942C124.356 49.8048 124.287 49.8138 124.231 49.8213C124.101 49.8379 123.981 49.8657 123.873 49.9048C123.766 49.9439 123.68 50.0003 123.616 50.074C123.552 50.1462 123.521 50.2425 123.521 50.3628C123.521 50.5298 123.582 50.6561 123.706 50.7419C123.829 50.8261 123.986 50.8682 124.177 50.8682ZM128.257 47.8674V48.4089H126.364V47.8674H128.257ZM126.872 47.0371H127.546V50.3154C127.546 50.4463 127.566 50.5448 127.605 50.611C127.644 50.6757 127.695 50.7201 127.756 50.7441C127.819 50.7667 127.888 50.778 127.962 50.778C128.016 50.778 128.063 50.7742 128.104 50.7667C128.144 50.7592 128.176 50.7531 128.199 50.7486L128.32 51.3059C128.281 51.321 128.226 51.336 128.153 51.3511C128.081 51.3676 127.991 51.3766 127.883 51.3781C127.705 51.3811 127.54 51.3496 127.386 51.2834C127.233 51.2172 127.109 51.1149 127.014 50.9765C126.919 50.8381 126.872 50.6644 126.872 50.4553V47.0371ZM131.545 48.7135L130.933 48.8218C130.908 48.7436 130.867 48.6691 130.811 48.5984C130.757 48.5277 130.683 48.4698 130.59 48.4247C130.497 48.3796 130.38 48.357 130.24 48.357C130.049 48.357 129.89 48.3999 129.762 48.4856C129.634 48.5698 129.57 48.6789 129.57 48.8128C129.57 48.9286 129.613 49.0218 129.699 49.0925C129.785 49.1632 129.923 49.2212 130.114 49.2663L130.665 49.3926C130.984 49.4663 131.221 49.5799 131.378 49.7333C131.534 49.8867 131.612 50.086 131.612 50.3312C131.612 50.5388 131.552 50.7238 131.432 50.8863C131.313 51.0472 131.147 51.1736 130.933 51.2653C130.721 51.3571 130.475 51.403 130.195 51.403C129.807 51.403 129.491 51.3202 129.245 51.1548C129 50.9878 128.85 50.7509 128.794 50.444L129.446 50.3448C129.487 50.5147 129.57 50.6433 129.697 50.7306C129.823 50.8163 129.988 50.8592 130.191 50.8592C130.412 50.8592 130.589 50.8133 130.721 50.7216C130.853 50.6283 130.92 50.5147 130.92 50.3809C130.92 50.2726 130.879 50.1816 130.798 50.1079C130.718 50.0342 130.595 49.9785 130.43 49.9409L129.843 49.8123C129.52 49.7386 129.281 49.6213 129.126 49.4603C128.972 49.2994 128.896 49.0956 128.896 48.8489C128.896 48.6443 128.953 48.4653 129.067 48.3119C129.182 48.1585 129.339 48.0389 129.541 47.9531C129.743 47.8659 129.973 47.8223 130.234 47.8223C130.608 47.8223 130.903 47.9035 131.118 48.0659C131.333 48.2269 131.475 48.4427 131.545 48.7135ZM135.38 51.3984C135.07 51.3984 134.803 51.342 134.579 51.2292C134.357 51.1164 134.185 50.963 134.065 50.7689C133.944 50.5734 133.884 50.3523 133.884 50.1056C133.884 49.9176 133.923 49.7506 134.002 49.6047C134.08 49.4573 134.189 49.3212 134.329 49.1963C134.469 49.0715 134.63 48.9459 134.814 48.8195L135.558 48.2938C135.685 48.2111 135.783 48.1239 135.854 48.0321C135.925 47.9388 135.96 47.8238 135.96 47.6869C135.96 47.5786 135.913 47.4748 135.82 47.3755C135.727 47.2763 135.602 47.2266 135.446 47.2266C135.337 47.2266 135.242 47.2529 135.159 47.3056C135.078 47.3582 135.014 47.4259 134.967 47.5086C134.922 47.5899 134.9 47.6756 134.9 47.7659C134.9 47.8712 134.928 47.9772 134.985 48.084C135.044 48.1908 135.119 48.3013 135.211 48.4157C135.303 48.5285 135.399 48.6458 135.5 48.7676L137.646 51.333H136.883L135.107 49.246C134.958 49.07 134.82 48.9045 134.692 48.7496C134.564 48.5932 134.46 48.4352 134.381 48.2758C134.302 48.1148 134.263 47.9411 134.263 47.7546C134.263 47.5425 134.312 47.3545 134.408 47.1905C134.506 47.0251 134.642 46.8957 134.816 46.8024C134.991 46.7092 135.195 46.6626 135.43 46.6626C135.668 46.6626 135.871 46.7092 136.041 46.8024C136.213 46.8942 136.344 47.0168 136.436 47.1702C136.529 47.3221 136.576 47.4883 136.576 47.6688C136.576 47.8885 136.521 48.0825 136.411 48.251C136.303 48.4179 136.153 48.5713 135.962 48.7112L135.035 49.3949C134.855 49.5272 134.729 49.6581 134.658 49.7875C134.589 49.9153 134.554 50.0154 134.554 50.0876C134.554 50.2199 134.588 50.3425 134.656 50.4553C134.725 50.5681 134.821 50.6584 134.945 50.7261C135.07 50.7938 135.216 50.8276 135.382 50.8276C135.554 50.8276 135.721 50.7908 135.883 50.717C136.047 50.6418 136.195 50.5343 136.328 50.3944C136.462 50.2545 136.568 50.0868 136.646 49.8913C136.724 49.6957 136.763 49.4769 136.763 49.2347H137.372C137.372 49.5325 137.339 49.7845 137.271 49.9905C137.203 50.1951 137.121 50.3621 137.025 50.4914C136.93 50.6193 136.841 50.7193 136.757 50.7915C136.729 50.8156 136.704 50.8396 136.68 50.8637C136.656 50.8878 136.63 50.9118 136.603 50.9359C136.447 51.0938 136.257 51.2104 136.035 51.2856C135.813 51.3608 135.595 51.3984 135.38 51.3984ZM139.856 51.333V47.8674H140.508V48.4179H140.544C140.607 48.2314 140.718 48.0847 140.878 47.978C141.039 47.8697 141.221 47.8155 141.424 47.8155C141.466 47.8155 141.515 47.817 141.573 47.82C141.631 47.823 141.677 47.8268 141.71 47.8313V48.4766C141.683 48.4691 141.635 48.4608 141.566 48.4518C141.497 48.4412 141.427 48.436 141.358 48.436C141.199 48.436 141.057 48.4698 140.932 48.5375C140.808 48.6037 140.711 48.6962 140.638 48.815C140.566 48.9323 140.53 49.0662 140.53 49.2166V51.333H139.856ZM143.664 51.403C143.322 51.403 143.028 51.33 142.781 51.1841C142.536 51.0367 142.347 50.8299 142.213 50.5636C142.08 50.2959 142.014 49.9823 142.014 49.6228C142.014 49.2678 142.08 48.9549 142.213 48.6842C142.347 48.4134 142.533 48.2021 142.772 48.0502C143.013 47.8982 143.294 47.8223 143.616 47.8223C143.812 47.8223 144.001 47.8546 144.185 47.9193C144.368 47.984 144.533 48.0855 144.679 48.2239C144.825 48.3623 144.94 48.542 145.024 48.7631C145.108 48.9827 145.15 49.2497 145.15 49.5641V49.8033H142.395V49.2979H144.489C144.489 49.1204 144.453 48.9632 144.381 48.8263C144.309 48.6879 144.207 48.5789 144.076 48.4991C143.947 48.4194 143.795 48.3796 143.621 48.3796C143.431 48.3796 143.266 48.4262 143.124 48.5195C142.984 48.6112 142.876 48.7315 142.799 48.8805C142.724 49.0279 142.687 49.1881 142.687 49.361V49.7559C142.687 49.9875 142.727 50.1846 142.808 50.347C142.891 50.5095 143.006 50.6336 143.154 50.7193C143.301 50.8035 143.473 50.8457 143.67 50.8457C143.798 50.8457 143.915 50.8276 144.02 50.7915C144.125 50.7539 144.216 50.6982 144.293 50.6245C144.37 50.5508 144.428 50.4598 144.469 50.3515L145.108 50.4666C145.056 50.6546 144.965 50.8193 144.832 50.9607C144.701 51.1006 144.537 51.2097 144.338 51.2879C144.141 51.3646 143.916 51.403 143.664 51.403ZM145.899 52.6326V47.8674H146.558V48.4292H146.614C146.653 48.357 146.71 48.2735 146.783 48.1788C146.857 48.084 146.959 48.0013 147.09 47.9306C147.221 47.8584 147.394 47.8223 147.609 47.8223C147.889 47.8223 148.139 47.893 148.358 48.0344C148.578 48.1758 148.75 48.3796 148.875 48.6458C149.001 48.912 149.064 49.2324 149.064 49.607C149.064 49.9815 149.002 50.3026 148.877 50.5704C148.752 50.8366 148.581 51.042 148.363 51.1864C148.145 51.3292 147.896 51.4007 147.616 51.4007C147.405 51.4007 147.233 51.3653 147.099 51.2947C146.967 51.224 146.863 51.1412 146.788 51.0465C146.713 50.9517 146.655 50.8675 146.614 50.7938H146.574V52.6326H145.899ZM146.56 49.6002C146.56 49.8439 146.595 50.0575 146.666 50.241C146.737 50.4245 146.839 50.5681 146.973 50.6719C147.107 50.7742 147.271 50.8253 147.465 50.8253C147.666 50.8253 147.835 50.772 147.97 50.6652C148.106 50.5569 148.208 50.4102 148.277 50.2252C148.348 50.0402 148.383 49.8318 148.383 49.6002C148.383 49.3716 148.348 49.1662 148.279 48.9842C148.212 48.8022 148.109 48.6586 147.972 48.5533C147.837 48.448 147.668 48.3954 147.465 48.3954C147.269 48.3954 147.104 48.4457 146.968 48.5465C146.834 48.6473 146.733 48.7879 146.664 48.9684C146.595 49.1489 146.56 49.3595 146.56 49.6002ZM151.28 51.403C150.955 51.403 150.672 51.3285 150.429 51.1796C150.187 51.0307 149.999 50.8223 149.865 50.5546C149.732 50.2869 149.665 49.974 149.665 49.616C149.665 49.2565 149.732 48.9421 149.865 48.6729C149.999 48.4036 150.187 48.1946 150.429 48.0456C150.672 47.8967 150.955 47.8223 151.28 47.8223C151.605 47.8223 151.889 47.8967 152.131 48.0456C152.373 48.1946 152.561 48.4036 152.695 48.6729C152.829 48.9421 152.896 49.2565 152.896 49.616C152.896 49.974 152.829 50.2869 152.695 50.5546C152.561 50.8223 152.373 51.0307 152.131 51.1796C151.889 51.3285 151.605 51.403 151.28 51.403ZM151.282 50.8366C151.493 50.8366 151.667 50.781 151.806 50.6697C151.944 50.5584 152.046 50.4102 152.113 50.2252C152.18 50.0402 152.214 49.8364 152.214 49.6137C152.214 49.3926 152.18 49.1896 152.113 49.0045C152.046 48.818 151.944 48.6684 151.806 48.5556C151.667 48.4427 151.493 48.3863 151.282 48.3863C151.07 48.3863 150.894 48.4427 150.754 48.5556C150.616 48.6684 150.513 48.818 150.445 49.0045C150.379 49.1896 150.346 49.3926 150.346 49.6137C150.346 49.8364 150.379 50.0402 150.445 50.2252C150.513 50.4102 150.616 50.5584 150.754 50.6697C150.894 50.781 151.07 50.8366 151.282 50.8366ZM153.649 51.333V47.8674H154.301V48.4179H154.337C154.4 48.2314 154.511 48.0847 154.671 47.978C154.832 47.8697 155.014 47.8155 155.217 47.8155C155.259 47.8155 155.308 47.817 155.366 47.82C155.424 47.823 155.47 47.8268 155.503 47.8313V48.4766C155.476 48.4691 155.428 48.4608 155.359 48.4518C155.29 48.4412 155.22 48.436 155.151 48.436C154.992 48.436 154.85 48.4698 154.725 48.5375C154.601 48.6037 154.504 48.6962 154.432 48.815C154.359 48.9323 154.323 49.0662 154.323 49.2166V51.333H153.649ZM157.91 47.8674V48.4089H156.017V47.8674H157.91ZM156.524 47.0371H157.199V50.3154C157.199 50.4463 157.218 50.5448 157.257 50.611C157.297 50.6757 157.347 50.7201 157.409 50.7441C157.472 50.7667 157.54 50.778 157.614 50.778C157.668 50.778 157.715 50.7742 157.756 50.7667C157.797 50.7592 157.828 50.7531 157.851 50.7486L157.973 51.3059C157.934 51.321 157.878 51.336 157.806 51.3511C157.734 51.3676 157.643 51.3766 157.535 51.3781C157.357 51.3811 157.192 51.3496 157.039 51.2834C156.885 51.2172 156.761 51.1149 156.666 50.9765C156.572 50.8381 156.524 50.6644 156.524 50.4553V47.0371ZM161.197 48.7135L160.585 48.8218C160.56 48.7436 160.519 48.6691 160.464 48.5984C160.409 48.5277 160.336 48.4698 160.242 48.4247C160.149 48.3796 160.033 48.357 159.893 48.357C159.702 48.357 159.542 48.3999 159.414 48.4856C159.287 48.5698 159.223 48.6789 159.223 48.8128C159.223 48.9286 159.266 49.0218 159.351 49.0925C159.437 49.1632 159.575 49.2212 159.766 49.2663L160.317 49.3926C160.636 49.4663 160.873 49.5799 161.03 49.7333C161.186 49.8867 161.265 50.086 161.265 50.3312C161.265 50.5388 161.204 50.7238 161.084 50.8863C160.965 51.0472 160.799 51.1736 160.585 51.2653C160.373 51.3571 160.127 51.403 159.848 51.403C159.46 51.403 159.143 51.3202 158.898 51.1548C158.653 50.9878 158.502 50.7509 158.447 50.444L159.099 50.3448C159.139 50.5147 159.223 50.6433 159.349 50.7306C159.475 50.8163 159.64 50.8592 159.843 50.8592C160.064 50.8592 160.241 50.8133 160.373 50.7216C160.506 50.6283 160.572 50.5147 160.572 50.3809C160.572 50.2726 160.531 50.1816 160.45 50.1079C160.37 50.0342 160.248 49.9785 160.082 49.9409L159.496 49.8123C159.172 49.7386 158.933 49.6213 158.778 49.4603C158.625 49.2994 158.548 49.0956 158.548 48.8489C158.548 48.6443 158.605 48.4653 158.72 48.3119C158.834 48.1585 158.992 48.0389 159.193 47.9531C159.395 47.8659 159.626 47.8223 159.886 47.8223C160.261 47.8223 160.555 47.9035 160.77 48.0659C160.986 48.2269 161.128 48.4427 161.197 48.7135Z" fill="white"/>
</g>
</g>
<defs>
<linearGradient id="paint0_linear_1938_4805" x1="2168.58" y1="-55.68" x2="1246.92" y2="1057.45" gradientUnits="userSpaceOnUse">
<stop offset="0.368023" stop-color="#404BF2"/>
<stop offset="1" stop-color="#FF8575"/>
</linearGradient>
<clipPath id="clip0_1938_4805">
<rect width="1277" height="80" fill="white"/>
</clipPath>
<clipPath id="clip1_1938_4805">
<rect width="138.667" height="32" fill="white" transform="translate(24 24)"/>
</clipPath>
</defs>
</svg>
