<svg width="15" height="15" viewBox="0 0 15 15" fill="none" xmlns="http://www.w3.org/2000/svg">
<path fill-rule="evenodd" clip-rule="evenodd" d="M7.5 2.5C6.11929 2.5 5 3.61929 5 5C5 6.3807 6.11929 7.5 7.5 7.5C8.8807 7.5 10 6.3807 10 5C10 3.61929 8.8807 2.5 7.5 2.5ZM3.75 5C3.75 2.92893 5.42893 1.25 7.5 1.25C9.57105 1.25 11.25 2.92893 11.25 5C11.25 7.07105 9.57105 8.75 7.5 8.75C5.42893 8.75 3.75 7.07105 3.75 5Z" fill="#1B1B1B"/>
<path fill-rule="evenodd" clip-rule="evenodd" d="M3.85071 11.7283C3.13659 12.035 2.72116 12.5093 2.47177 13.3107C2.36921 13.6403 2.01888 13.8243 1.6893 13.7218C1.35971 13.6192 1.17566 13.2689 1.27822 12.9393C1.62714 11.818 2.28045 11.0423 3.35737 10.5797C4.37768 10.1415 5.7444 10 7.5 10C9.25559 10 10.6223 10.1415 11.6426 10.5797C12.7195 11.0423 13.3729 11.818 13.7218 12.9393C13.8243 13.2689 13.6403 13.6192 13.3107 13.7218C12.9811 13.8243 12.6308 13.6403 12.5282 13.3107C12.2788 12.5093 11.8634 12.035 11.1493 11.7283C10.3785 11.3972 9.23191 11.25 7.5 11.25C5.76809 11.25 4.62146 11.3972 3.85071 11.7283Z" fill="#1B1B1B"/>
</svg>
