<svg width="142" height="33" viewBox="0 0 142 33" fill="none" xmlns="http://www.w3.org/2000/svg">
<g clip-path="url(#clip0_4561_5068)">
<path d="M29.7597 20.9485C27.2845 28.5507 19.1519 32.6759 11.5497 30.2597C3.94753 27.8435 -0.177705 19.6519 2.2385 12.0497C4.65471 4.44753 12.8462 0.322295 20.4484 2.7385C24.7505 4.15287 28.1685 7.51198 29.6418 11.814H31.2919C28.6989 3.38675 19.7413 -1.38673 11.314 1.20627C2.88675 3.79928 -1.88673 12.7569 0.706273 21.1842C3.29928 29.6114 12.2569 34.3849 20.6842 31.7919C25.8702 30.2008 29.8775 26.1345 31.3508 20.9485H29.7597Z" fill="white"/>
<path d="M24.8101 22.7166H24.6333C23.985 22.6577 23.3957 22.3041 23.0421 21.7737L19.6241 17.177C19.4473 16.8824 19.0937 16.6466 18.6812 16.6466C18.3276 16.6466 17.974 16.8234 17.7383 17.1181L15.3221 21.3023C14.6738 22.2452 13.4362 22.5398 12.4933 21.8916C12.3165 21.7737 12.1397 21.5969 12.0219 21.4201L11.9629 21.3612L8.60383 15.8216C8.42703 15.5859 8.1913 15.4091 7.89664 15.4091C7.42519 15.468 7.0716 15.6448 6.77694 15.9984L1.7088 21.1255L1.06055 20.4772L6.12869 15.2912C6.60014 14.7608 7.24839 14.4072 7.95557 14.4072C8.54489 14.4662 9.01635 14.7608 9.36994 15.2323L9.42887 15.2912L12.8469 20.9487C13.2594 21.4201 13.9666 21.4791 14.4381 21.0665C14.497 21.0076 14.5559 20.9487 14.6149 20.8308L17.0311 16.6466C17.3847 16.0573 18.0329 15.7037 18.7401 15.7037C19.4473 15.7037 20.0955 16.0573 20.4491 16.6466L23.8672 21.2433C24.2208 21.7737 24.869 21.8916 25.3994 21.5969C25.4583 21.538 25.5762 21.4791 25.6351 21.4201L29.23 14.4072L30.055 14.8197L26.4012 21.8916L26.3423 21.9505C25.9887 22.422 25.3994 22.7166 24.8101 22.7166Z" fill="white"/>
<path d="M8.01364 16.4706C8.76222 16.4706 9.36907 15.8638 9.36907 15.1152C9.36907 14.3666 8.76222 13.7598 8.01364 13.7598C7.26505 13.7598 6.6582 14.3666 6.6582 15.1152C6.6582 15.8638 7.26505 16.4706 8.01364 16.4706Z" fill="white"/>
<path d="M8.01405 16.8821C7.01221 16.8821 6.24609 16.116 6.24609 15.1141C6.24609 14.1123 7.01221 13.3462 8.01405 13.3462C9.01589 13.3462 9.78201 14.1123 9.78201 15.1141C9.78201 16.116 9.01589 16.8821 8.01405 16.8821ZM8.01405 14.1712C7.48366 14.1712 7.07114 14.5838 7.07114 15.1141C7.07114 15.6445 7.48366 16.0571 8.01405 16.0571C8.54444 16.0571 8.95696 15.6445 8.95696 15.1141C9.01589 14.5838 8.54444 14.1712 8.01405 14.1712Z" fill="white"/>
<path d="M13.7304 23.0702C14.479 23.0702 15.0859 22.4634 15.0859 21.7148C15.0859 20.9662 14.479 20.3594 13.7304 20.3594C12.9818 20.3594 12.375 20.9662 12.375 21.7148C12.375 22.4634 12.9818 23.0702 13.7304 23.0702Z" fill="white"/>
<path d="M13.7308 23.4817C12.729 23.4817 11.9629 22.7156 11.9629 21.7138C11.9629 20.7119 12.729 19.9458 13.7308 19.9458C14.7327 19.9458 15.4988 20.7119 15.4988 21.7138C15.4988 22.7156 14.7327 23.4817 13.7308 23.4817ZM13.7308 20.7708C13.2005 20.7708 12.7879 21.1834 12.7879 21.7138C12.7879 22.2441 13.2005 22.6567 13.7308 22.6567C14.2612 22.6567 14.6738 22.2441 14.6738 21.7138C14.6738 21.1834 14.2612 20.7708 13.7308 20.7708Z" fill="white"/>
<path d="M19.0351 17.3539C19.7837 17.3539 20.3906 16.7471 20.3906 15.9985C20.3906 15.2499 19.7837 14.6431 19.0351 14.6431C18.2865 14.6431 17.6797 15.2499 17.6797 15.9985C17.6797 16.7471 18.2865 17.3539 19.0351 17.3539Z" fill="white"/>
<path d="M18.8576 17.5886C17.8557 17.5886 17.0896 16.8225 17.0896 15.8207C17.0896 14.8188 17.8557 14.0527 18.8576 14.0527C19.8594 14.0527 20.6255 14.8188 20.6255 15.8207C20.6255 16.8225 19.8005 17.5886 18.8576 17.5886ZM18.8576 14.8778C18.3272 14.8778 17.9146 15.2903 17.9146 15.8207C17.9146 16.3511 18.3272 16.7636 18.8576 16.7636C19.3879 16.7636 19.8005 16.3511 19.8005 15.8207C19.8005 15.3492 19.3879 14.8778 18.8576 14.8778Z" fill="white"/>
<path d="M24.8105 23.3056C25.5591 23.3056 26.1659 22.6987 26.1659 21.9502C26.1659 21.2016 25.5591 20.5947 24.8105 20.5947C24.0619 20.5947 23.4551 21.2016 23.4551 21.9502C23.4551 22.6987 24.0619 23.3056 24.8105 23.3056Z" fill="white"/>
<path d="M24.809 23.7185C23.8071 23.7185 23.041 22.9524 23.041 21.9506C23.041 20.9487 23.8071 20.1826 24.809 20.1826C25.8108 20.1826 26.5769 20.9487 26.5769 21.9506C26.5769 22.9524 25.8108 23.7185 24.809 23.7185ZM24.809 21.0077C24.2786 21.0077 23.8661 21.4202 23.8661 21.9506C23.8661 22.481 24.2786 22.8935 24.809 22.8935C25.3394 22.8935 25.7519 22.481 25.7519 21.9506C25.7519 21.4202 25.3394 21.0077 24.809 21.0077Z" fill="white"/>
<path d="M36.1699 4.08952H38.5387L41.3309 11.5386C41.5123 12.0292 41.6635 12.4593 41.7845 12.8289C41.9122 13.1985 42.023 13.5446 42.1171 13.8671C42.3523 13.0876 42.5976 12.3249 42.853 11.579C42.8866 11.4849 42.9101 11.421 42.9235 11.3874L45.887 3.50488L49.0118 11.5386C49.1597 11.9284 49.2974 12.3182 49.4251 12.7079C49.5595 13.0977 49.6838 13.4908 49.7981 13.8873C49.8653 13.5849 49.956 13.2522 50.0702 12.8894C50.1845 12.5265 50.3323 12.0964 50.5138 11.5991L53.2858 4.08952H55.6747L49.9594 19.4212L46.5926 11.0044C46.4448 10.6281 46.3104 10.2686 46.1894 9.92584C46.0685 9.5764 45.961 9.24712 45.8669 8.938C45.7526 9.33448 45.6384 9.70744 45.5242 10.0569C45.4099 10.3996 45.2923 10.7289 45.1714 11.0447L41.8651 19.4212L36.1699 4.08952Z" fill="white"/>
<path d="M59.7168 10.2585H60.3317C61.6622 10.2585 62.5493 10.114 62.9928 9.82504C63.4363 9.53608 63.6581 9.02536 63.6581 8.29288C63.6581 7.50664 63.4195 6.95224 62.9424 6.62968C62.472 6.30712 61.6018 6.14584 60.3317 6.14584H59.7168V10.2585ZM59.5656 12.2241V18.8466H57.3178V4.08952H60.9466C62.0218 4.08952 62.8113 4.15 63.3154 4.27096C63.8261 4.3852 64.2696 4.57672 64.6459 4.84552C65.1096 5.18824 65.4725 5.65192 65.7345 6.23656C65.9966 6.81448 66.1277 7.45288 66.1277 8.15176C66.1277 8.85064 65.9966 9.49576 65.7345 10.0871C65.4725 10.6785 65.1096 11.1422 64.6459 11.4782C64.2696 11.747 63.8261 11.9385 63.3154 12.0527C62.8113 12.167 62.0218 12.2241 60.9466 12.2241H59.5656Z" fill="white"/>
<path d="M73.951 10.6516C74.9119 11.0615 75.6343 11.6058 76.1182 12.2846C76.6087 12.9633 76.854 13.7663 76.854 14.6937C76.854 16.0511 76.4206 17.1465 75.5537 17.9798C74.6935 18.8063 73.5511 19.2196 72.1265 19.2196C70.9639 19.2196 69.9895 18.9239 69.2033 18.3326C68.4171 17.7345 67.8862 16.8878 67.6107 15.7924L69.2033 15.0062C69.4183 15.8999 69.7711 16.5786 70.2617 17.0423C70.759 17.4993 71.3806 17.7278 72.1265 17.7278C73.0068 17.7278 73.7191 17.4758 74.2635 16.9718C74.8078 16.461 75.0799 15.7991 75.0799 14.986C75.0799 14.3274 74.8884 13.7562 74.5054 13.2724C74.1291 12.7818 73.5579 12.3686 72.7918 12.0326L70.9975 11.2665C70.0164 10.8566 69.2839 10.329 68.8001 9.68392C68.323 9.0388 68.0844 8.266 68.0844 7.36552C68.0844 6.3172 68.4742 5.45032 69.2537 4.76488C70.0332 4.07944 71.0278 3.73672 72.2374 3.73672C73.1244 3.73672 73.8905 3.92488 74.5356 4.3012C75.1875 4.67752 75.6948 5.23192 76.0577 5.9644L74.6062 6.89176C74.2769 6.32056 73.9073 5.8972 73.4974 5.62168C73.0875 5.33944 72.6238 5.19832 72.1063 5.19832C71.4478 5.19832 70.9068 5.39992 70.4835 5.80312C70.0668 6.20632 69.8585 6.7204 69.8585 7.34536C69.8585 7.86952 70.0198 8.32312 70.3423 8.70616C70.6649 9.0892 71.1655 9.42856 71.8443 9.72424L73.951 10.6516Z" fill="white"/>
<path d="M79.2833 10.9238H77.5899V9.62344H79.2833V5.90392H80.8961V9.62344H82.5895V10.9238H80.8961V18.8466H79.2833V10.9238Z" fill="white"/>
<path d="M91.4398 14.3207C91.4398 13.2791 91.1542 12.4425 90.583 11.8108C90.0185 11.1724 89.2793 10.8532 88.3654 10.8532C87.4178 10.8532 86.6786 11.1455 86.1478 11.7302C85.6169 12.3148 85.3514 13.1313 85.3514 14.1796C85.3514 15.2951 85.6169 16.1553 86.1478 16.7601C86.6854 17.3649 87.4447 17.6673 88.4258 17.6673C89.3666 17.6673 90.1025 17.375 90.6334 16.7903C91.171 16.199 91.4398 15.3758 91.4398 14.3207ZM92.9719 9.62344V18.8466H91.4398V17.1734C91.0702 17.8454 90.5964 18.3594 90.0185 18.7156C89.4473 19.065 88.8055 19.2398 88.0932 19.2398C86.7694 19.2398 85.7009 18.7862 84.8878 17.879C84.0814 16.965 83.6782 15.7588 83.6782 14.2602C83.6782 12.7415 84.0713 11.5353 84.8575 10.6415C85.6438 9.74104 86.6954 9.2908 88.0126 9.2908C88.7854 9.2908 89.454 9.46552 90.0185 9.81496C90.5897 10.1577 91.05 10.6718 91.3994 11.3572V9.62344H92.9719Z" fill="white"/>
<path d="M96.379 10.9238H94.6855V9.62344H96.379V5.90392H97.9918V9.62344H99.6852V10.9238H97.9918V18.8466H96.379V10.9238Z" fill="white"/>
<path d="M101.187 5.17816C101.187 4.86232 101.298 4.59352 101.52 4.37176C101.748 4.14328 102.024 4.02904 102.346 4.02904C102.662 4.02904 102.931 4.14328 103.153 4.37176C103.381 4.60024 103.495 4.87576 103.495 5.19832C103.495 5.51416 103.385 5.78296 103.163 6.00472C102.941 6.22648 102.669 6.33736 102.346 6.33736C102.024 6.33736 101.748 6.22648 101.52 6.00472C101.298 5.78296 101.187 5.50744 101.187 5.17816ZM101.56 18.8466V9.62344H103.153V18.8466H101.56Z" fill="white"/>
<path d="M105.501 17.2943L106.852 16.3871C107.107 16.8777 107.43 17.2473 107.82 17.4959C108.21 17.7378 108.67 17.8588 109.201 17.8588C109.718 17.8588 110.135 17.7311 110.451 17.4758C110.773 17.2204 110.934 16.8844 110.934 16.4678C110.934 16.1452 110.824 15.8764 110.602 15.6614C110.387 15.4463 110.014 15.2481 109.483 15.0666L109.221 14.9759C106.976 14.2031 105.854 13.2354 105.854 12.0729C105.854 11.253 106.157 10.5844 106.761 10.067C107.366 9.54952 108.152 9.2908 109.12 9.2908C109.92 9.2908 110.605 9.45208 111.176 9.77464C111.748 10.0905 112.158 10.5407 112.406 11.1254L111.126 11.9116C110.938 11.4882 110.659 11.1623 110.289 10.9338C109.926 10.7054 109.503 10.5911 109.019 10.5911C108.556 10.5911 108.176 10.7222 107.88 10.9842C107.591 11.2396 107.447 11.5689 107.447 11.9721C107.447 12.5366 108.058 13.0103 109.281 13.3934C109.51 13.4673 109.691 13.5244 109.826 13.5647C110.827 13.8873 111.522 14.2569 111.912 14.6735C112.309 15.0834 112.507 15.6278 112.507 16.3065C112.507 17.1801 112.194 17.889 111.57 18.4334C110.951 18.971 110.142 19.2398 109.14 19.2398C108.28 19.2398 107.548 19.0785 106.943 18.7559C106.345 18.4334 105.864 17.9462 105.501 17.2943Z" fill="white"/>
<path d="M115.128 10.9238H113.434V9.62344H115.128V5.90392H116.741V9.62344H118.434V10.9238H116.741V18.8466H115.128V10.9238Z" fill="white"/>
<path d="M119.936 5.17816C119.936 4.86232 120.047 4.59352 120.269 4.37176C120.497 4.14328 120.773 4.02904 121.095 4.02904C121.411 4.02904 121.68 4.14328 121.902 4.37176C122.13 4.60024 122.244 4.87576 122.244 5.19832C122.244 5.51416 122.133 5.78296 121.912 6.00472C121.69 6.22648 121.418 6.33736 121.095 6.33736C120.773 6.33736 120.497 6.22648 120.269 6.00472C120.047 5.78296 119.936 5.50744 119.936 5.17816ZM120.309 18.8466V9.62344H121.902V18.8466H120.309Z" fill="white"/>
<path d="M132.304 16.6593V18.4938C131.887 18.7425 131.417 18.9273 130.893 19.0482C130.375 19.1759 129.814 19.2398 129.21 19.2398C127.785 19.2398 126.636 18.7895 125.762 17.889C124.895 16.9818 124.462 15.7924 124.462 14.3207C124.462 12.8423 124.912 11.6361 125.813 10.702C126.713 9.7612 127.866 9.2908 129.27 9.2908C129.781 9.2908 130.278 9.34456 130.762 9.45208C131.252 9.5596 131.713 9.71752 132.143 9.92584V11.6193C131.74 11.3572 131.323 11.159 130.893 11.0246C130.463 10.8834 130.026 10.8129 129.582 10.8129C128.548 10.8129 127.718 11.1388 127.093 11.7906C126.468 12.4358 126.155 13.2959 126.155 14.3711C126.155 15.3186 126.468 16.1116 127.093 16.75C127.724 17.3884 128.514 17.7076 129.462 17.7076C129.939 17.7076 130.406 17.6236 130.863 17.4556C131.32 17.2876 131.8 17.0222 132.304 16.6593Z" fill="white"/>
<path d="M133.524 17.2943L134.874 16.3871C135.13 16.8777 135.452 17.2473 135.842 17.4959C136.232 17.7378 136.692 17.8588 137.223 17.8588C137.741 17.8588 138.157 17.7311 138.473 17.4758C138.796 17.2204 138.957 16.8844 138.957 16.4678C138.957 16.1452 138.846 15.8764 138.624 15.6614C138.409 15.4463 138.036 15.2481 137.505 15.0666L137.243 14.9759C134.999 14.2031 133.877 13.2354 133.877 12.0729C133.877 11.253 134.179 10.5844 134.784 10.067C135.389 9.54952 136.175 9.2908 137.142 9.2908C137.942 9.2908 138.628 9.45208 139.199 9.77464C139.77 10.0905 140.18 10.5407 140.429 11.1254L139.148 11.9116C138.96 11.4882 138.681 11.1623 138.312 10.9338C137.949 10.7054 137.525 10.5911 137.042 10.5911C136.578 10.5911 136.198 10.7222 135.903 10.9842C135.614 11.2396 135.469 11.5689 135.469 11.9721C135.469 12.5366 136.081 13.0103 137.304 13.3934C137.532 13.4673 137.714 13.5244 137.848 13.5647C138.849 13.8873 139.545 14.2569 139.935 14.6735C140.331 15.0834 140.529 15.6278 140.529 16.3065C140.529 17.1801 140.217 17.889 139.592 18.4334C138.974 18.971 138.164 19.2398 137.163 19.2398C136.302 19.2398 135.57 19.0785 134.965 18.7559C134.367 18.4334 133.887 17.9462 133.524 17.2943Z" fill="white"/>
<path d="M38.6038 27.833L37.3223 23.2122H38.0556L38.9558 26.7906H38.9987L39.935 23.2122H40.6615L41.5979 26.7929H41.6407L42.5387 23.2122H43.2743L41.9905 27.833H41.2888L40.3163 24.3719H40.2802L39.3078 27.833H38.6038ZM44.9744 27.903C44.6495 27.903 44.3659 27.8285 44.1238 27.6796C43.8816 27.5307 43.6936 27.3223 43.5597 27.0546C43.4258 26.7869 43.3589 26.474 43.3589 26.116C43.3589 25.7565 43.4258 25.4421 43.5597 25.1729C43.6936 24.9036 43.8816 24.6946 44.1238 24.5456C44.3659 24.3967 44.6495 24.3223 44.9744 24.3223C45.2993 24.3223 45.5828 24.3967 45.825 24.5456C46.0672 24.6946 46.2552 24.9036 46.389 25.1729C46.5229 25.4421 46.5899 25.7565 46.5899 26.116C46.5899 26.474 46.5229 26.7869 46.389 27.0546C46.2552 27.3223 46.0672 27.5307 45.825 27.6796C45.5828 27.8285 45.2993 27.903 44.9744 27.903ZM44.9766 27.3366C45.1872 27.3366 45.3617 27.281 45.5001 27.1697C45.6385 27.0584 45.7407 26.9102 45.8069 26.7252C45.8746 26.5402 45.9085 26.3364 45.9085 26.1137C45.9085 25.8926 45.8746 25.6896 45.8069 25.5045C45.7407 25.318 45.6385 25.1684 45.5001 25.0556C45.3617 24.9427 45.1872 24.8863 44.9766 24.8863C44.7645 24.8863 44.5885 24.9427 44.4487 25.0556C44.3103 25.1684 44.2072 25.318 44.1396 25.5045C44.0734 25.6896 44.0403 25.8926 44.0403 26.1137C44.0403 26.3364 44.0734 26.5402 44.1396 26.7252C44.2072 26.9102 44.3103 27.0584 44.4487 27.1697C44.5885 27.281 44.7645 27.3366 44.9766 27.3366ZM47.3429 27.833V24.3674H47.9949V24.9179H48.031C48.0942 24.7314 48.2055 24.5847 48.365 24.478C48.5259 24.3697 48.7079 24.3155 48.911 24.3155C48.9531 24.3155 49.0027 24.317 49.0599 24.32C49.1186 24.323 49.1644 24.3268 49.1975 24.3313V24.9766C49.1704 24.9691 49.1223 24.9608 49.0531 24.9518C48.9839 24.9412 48.9147 24.936 48.8455 24.936C48.6861 24.936 48.544 24.9698 48.4191 25.0375C48.2958 25.1037 48.198 25.1962 48.1258 25.315C48.0536 25.4323 48.0175 25.5662 48.0175 25.7166V27.833H47.3429ZM50.9546 27.9007C50.6748 27.9007 50.4251 27.8292 50.2055 27.6864C49.9874 27.542 49.8159 27.3366 49.6911 27.0704C49.5677 26.8026 49.5061 26.4815 49.5061 26.107C49.5061 25.7324 49.5685 25.412 49.6933 25.1458C49.8197 24.8796 49.9927 24.6758 50.2123 24.5344C50.4319 24.393 50.6808 24.3223 50.9591 24.3223C51.1742 24.3223 51.3472 24.3584 51.478 24.4306C51.6104 24.5013 51.7127 24.584 51.7849 24.6788C51.8586 24.7735 51.9157 24.857 51.9564 24.9292H51.997V23.2122H52.6716V27.833H52.0128V27.2938H51.9564C51.9157 27.3675 51.8571 27.4517 51.7804 27.5465C51.7052 27.6412 51.6014 27.724 51.469 27.7947C51.3366 27.8653 51.1652 27.9007 50.9546 27.9007ZM51.1035 27.3253C51.2975 27.3253 51.4615 27.2742 51.5954 27.1719C51.7307 27.0681 51.833 26.9245 51.9022 26.741C51.9729 26.5575 52.0083 26.3439 52.0083 26.1002C52.0083 25.8595 51.9737 25.6489 51.9045 25.4684C51.8353 25.2879 51.7337 25.1473 51.5999 25.0465C51.466 24.9457 51.3005 24.8954 51.1035 24.8954C50.9004 24.8954 50.7312 24.948 50.5958 25.0533C50.4605 25.1586 50.3582 25.3022 50.289 25.4842C50.2213 25.6662 50.1875 25.8716 50.1875 26.1002C50.1875 26.3318 50.2221 26.5402 50.2912 26.7252C50.3604 26.9102 50.4627 27.0569 50.5981 27.1652C50.735 27.272 50.9034 27.3253 51.1035 27.3253ZM53.6886 27.833V23.2122H55.3357C55.6952 23.2122 55.993 23.2776 56.2291 23.4085C56.4653 23.5393 56.642 23.7183 56.7594 23.9455C56.8767 24.1711 56.9354 24.4253 56.9354 24.7081C56.9354 24.9924 56.8759 25.2481 56.7571 25.4752C56.6398 25.7008 56.4623 25.8798 56.2246 26.0122C55.9885 26.1431 55.6914 26.2085 55.3334 26.2085H54.2008V25.6174H55.2702C55.4974 25.6174 55.6816 25.5783 55.823 25.5C55.9644 25.4203 56.0682 25.312 56.1344 25.1751C56.2006 25.0383 56.2337 24.8826 56.2337 24.7081C56.2337 24.5336 56.2006 24.3787 56.1344 24.2433C56.0682 24.1079 55.9637 24.0019 55.8208 23.9252C55.6794 23.8485 55.4929 23.8101 55.2612 23.8101H54.3858V27.833H53.6886ZM57.6985 27.833V24.3674H58.3506V24.9179H58.3867C58.4499 24.7314 58.5612 24.5847 58.7206 24.478C58.8816 24.3697 59.0636 24.3155 59.2666 24.3155C59.3088 24.3155 59.3584 24.317 59.4156 24.32C59.4742 24.323 59.5201 24.3268 59.5532 24.3313V24.9766C59.5261 24.9691 59.478 24.9608 59.4088 24.9518C59.3396 24.9412 59.2704 24.936 59.2012 24.936C59.0418 24.936 58.8996 24.9698 58.7748 25.0375C58.6514 25.1037 58.5537 25.1962 58.4815 25.315C58.4093 25.4323 58.3732 25.5662 58.3732 25.7166V27.833H57.6985ZM61.5065 27.903C61.1651 27.903 60.871 27.83 60.6243 27.6841C60.3792 27.5367 60.1896 27.3299 60.0558 27.0636C59.9234 26.7959 59.8572 26.4823 59.8572 26.1228C59.8572 25.7678 59.9234 25.4549 60.0558 25.1842C60.1896 24.9134 60.3762 24.7021 60.6153 24.5502C60.856 24.3982 61.1373 24.3223 61.4592 24.3223C61.6547 24.3223 61.8442 24.3546 62.0277 24.4193C62.2112 24.484 62.3759 24.5855 62.5219 24.7239C62.6678 24.8623 62.7828 25.042 62.8671 25.2631C62.9513 25.4827 62.9934 25.7497 62.9934 26.0641V26.3033H60.2385V25.7979H62.3323C62.3323 25.6204 62.2962 25.4632 62.224 25.3263C62.1518 25.1879 62.0503 25.0789 61.9194 24.9991C61.7901 24.9194 61.6382 24.8796 61.4637 24.8796C61.2741 24.8796 61.1087 24.9262 60.9673 25.0195C60.8274 25.1112 60.7191 25.2315 60.6424 25.3805C60.5672 25.5279 60.5296 25.6881 60.5296 25.861V26.2559C60.5296 26.4875 60.5702 26.6846 60.6514 26.847C60.7341 27.0095 60.8492 27.1336 60.9966 27.2193C61.144 27.3035 61.3163 27.3457 61.5133 27.3457C61.6412 27.3457 61.7577 27.3276 61.863 27.2915C61.9683 27.2539 62.0593 27.1982 62.136 27.1245C62.2127 27.0508 62.2714 26.9598 62.312 26.8515L62.9505 26.9666C62.8994 27.1546 62.8076 27.3193 62.6753 27.4607C62.5444 27.6006 62.3797 27.7097 62.1812 27.7879C61.9841 27.8646 61.7592 27.903 61.5065 27.903ZM66.3389 25.2135L65.7274 25.3218C65.7019 25.2436 65.6612 25.1691 65.6056 25.0984C65.5514 25.0277 65.4777 24.9698 65.3845 24.9247C65.2912 24.8796 65.1746 24.857 65.0348 24.857C64.8437 24.857 64.6843 24.8999 64.5564 24.9856C64.4286 25.0698 64.3647 25.1789 64.3647 25.3128C64.3647 25.4286 64.4075 25.5218 64.4933 25.5925C64.579 25.6632 64.7174 25.7212 64.9084 25.7663L65.4589 25.8926C65.7778 25.9663 66.0155 26.0799 66.1719 26.2333C66.3283 26.3867 66.4066 26.586 66.4066 26.8312C66.4066 27.0388 66.3464 27.2238 66.2261 27.3863C66.1072 27.5472 65.941 27.6736 65.7274 27.7653C65.5153 27.8571 65.2694 27.903 64.9896 27.903C64.6016 27.903 64.2849 27.8202 64.0398 27.6548C63.7946 27.4878 63.6442 27.2509 63.5885 26.944L64.2406 26.8448C64.2812 27.0147 64.3647 27.1433 64.491 27.2306C64.6174 27.3163 64.7821 27.3592 64.9851 27.3592C65.2062 27.3592 65.383 27.3133 65.5153 27.2216C65.6477 27.1283 65.7139 27.0147 65.7139 26.8809C65.7139 26.7726 65.6733 26.6816 65.5921 26.6079C65.5123 26.5342 65.3897 26.4785 65.2243 26.4409L64.6377 26.3123C64.3143 26.2386 64.0751 26.1213 63.9202 25.9603C63.7667 25.7994 63.69 25.5956 63.69 25.3489C63.69 25.1443 63.7472 24.9653 63.8615 24.8119C63.9758 24.6585 64.1338 24.5389 64.3353 24.4531C64.5369 24.3659 64.7678 24.3223 65.028 24.3223C65.4025 24.3223 65.6973 24.4035 65.9124 24.5659C66.1275 24.7269 66.2697 24.9427 66.3389 25.2135ZM69.7453 25.2135L69.1338 25.3218C69.1082 25.2436 69.0676 25.1691 69.012 25.0984C68.9578 25.0277 68.8841 24.9698 68.7909 24.9247C68.6976 24.8796 68.581 24.857 68.4411 24.857C68.2501 24.857 68.0907 24.8999 67.9628 24.9856C67.835 25.0698 67.771 25.1789 67.771 25.3128C67.771 25.4286 67.8139 25.5218 67.8996 25.5925C67.9854 25.6632 68.1238 25.7212 68.3148 25.7663L68.8653 25.8926C69.1842 25.9663 69.4219 26.0799 69.5783 26.2333C69.7347 26.3867 69.813 26.586 69.813 26.8312C69.813 27.0388 69.7528 27.2238 69.6325 27.3863C69.5136 27.5472 69.3474 27.6736 69.1338 27.7653C68.9217 27.8571 68.6758 27.903 68.396 27.903C68.0079 27.903 67.6913 27.8202 67.4461 27.6548C67.201 27.4878 67.0505 27.2509 66.9949 26.944L67.6469 26.8448C67.6876 27.0147 67.771 27.1433 67.8974 27.2306C68.0237 27.3163 68.1884 27.3592 68.3915 27.3592C68.6126 27.3592 68.7894 27.3133 68.9217 27.2216C69.0541 27.1283 69.1203 27.0147 69.1203 26.8809C69.1203 26.7726 69.0797 26.6816 68.9984 26.6079C68.9187 26.5342 68.7961 26.4785 68.6307 26.4409L68.044 26.3123C67.7207 26.2386 67.4815 26.1213 67.3266 25.9603C67.1731 25.7994 67.0964 25.5956 67.0964 25.3489C67.0964 25.1443 67.1536 24.9653 67.2679 24.8119C67.3822 24.6585 67.5401 24.5389 67.7417 24.4531C67.9433 24.3659 68.1742 24.3223 68.4344 24.3223C68.8089 24.3223 69.1037 24.4035 69.3188 24.5659C69.5339 24.7269 69.6761 24.9427 69.7453 25.2135ZM72.9108 23.2122V27.833H72.2362V23.2122H72.9108ZM75.312 27.903C74.9706 27.903 74.6765 27.83 74.4298 27.6841C74.1846 27.5367 73.9951 27.3299 73.8612 27.0636C73.7289 26.7959 73.6627 26.4823 73.6627 26.1228C73.6627 25.7678 73.7289 25.4549 73.8612 25.1842C73.9951 24.9134 74.1816 24.7021 74.4208 24.5502C74.6615 24.3982 74.9427 24.3223 75.2646 24.3223C75.4602 24.3223 75.6497 24.3546 75.8332 24.4193C76.0167 24.484 76.1814 24.5855 76.3273 24.7239C76.4732 24.8623 76.5883 25.042 76.6725 25.2631C76.7568 25.4827 76.7989 25.7497 76.7989 26.0641V26.3033H74.044V25.7979H76.1378C76.1378 25.6204 76.1017 25.4632 76.0295 25.3263C75.9573 25.1879 75.8558 25.0789 75.7249 24.9991C75.5956 24.9194 75.4436 24.8796 75.2692 24.8796C75.0796 24.8796 74.9142 24.9262 74.7728 25.0195C74.6329 25.1112 74.5246 25.2315 74.4479 25.3805C74.3727 25.5279 74.3351 25.6881 74.3351 25.861V26.2559C74.3351 26.4875 74.3757 26.6846 74.4569 26.847C74.5396 27.0095 74.6547 27.1336 74.8021 27.2193C74.9495 27.3035 75.1217 27.3457 75.3188 27.3457C75.4466 27.3457 75.5632 27.3276 75.6685 27.2915C75.7738 27.2539 75.8648 27.1982 75.9415 27.1245C76.0182 27.0508 76.0769 26.9598 76.1175 26.8515L76.756 26.9666C76.7049 27.1546 76.6131 27.3193 76.4808 27.4607C76.3499 27.6006 76.1852 27.7097 75.9866 27.7879C75.7896 27.8646 75.5647 27.903 75.312 27.903ZM78.556 27.9097C78.3363 27.9097 78.1378 27.8691 77.9603 27.7879C77.7828 27.7052 77.6422 27.5856 77.5384 27.4291C77.4361 27.2727 77.385 27.0809 77.385 26.8538C77.385 26.6582 77.4226 26.4973 77.4978 26.371C77.573 26.2446 77.6745 26.1446 77.8024 26.0709C77.9302 25.9972 78.0731 25.9415 78.2311 25.9039C78.389 25.8663 78.5499 25.8377 78.7139 25.8182C78.9215 25.7941 79.0899 25.7745 79.2193 25.7595C79.3487 25.743 79.4427 25.7166 79.5013 25.6805C79.56 25.6444 79.5893 25.5858 79.5893 25.5045V25.4888C79.5893 25.2917 79.5337 25.139 79.4224 25.0307C79.3126 24.9224 79.1486 24.8683 78.9305 24.8683C78.7034 24.8683 78.5244 24.9187 78.3935 25.0195C78.2641 25.1187 78.1746 25.2293 78.125 25.3511L77.491 25.2067C77.5662 24.9961 77.676 24.8262 77.8204 24.6968C77.9663 24.5659 78.134 24.4712 78.3236 24.4125C78.5131 24.3524 78.7124 24.3223 78.9215 24.3223C79.0599 24.3223 79.2065 24.3388 79.3614 24.3719C79.5179 24.4035 79.6638 24.4622 79.7992 24.5479C79.936 24.6336 80.0481 24.7562 80.1353 24.9157C80.2226 25.0736 80.2662 25.2789 80.2662 25.5316V27.833H79.6074V27.3592H79.5803C79.5367 27.4464 79.4712 27.5322 79.384 27.6164C79.2968 27.7006 79.1847 27.7706 79.0478 27.8262C78.9109 27.8819 78.747 27.9097 78.556 27.9097ZM78.7026 27.3682C78.8891 27.3682 79.0486 27.3314 79.1809 27.2577C79.3148 27.184 79.4163 27.0877 79.4855 26.9689C79.5562 26.8485 79.5916 26.7199 79.5916 26.583V26.1363C79.5675 26.1604 79.5209 26.1829 79.4517 26.204C79.384 26.2235 79.3065 26.2408 79.2193 26.2559C79.1321 26.2694 79.0471 26.2822 78.9643 26.2942C78.8816 26.3048 78.8124 26.3138 78.7568 26.3213C78.6259 26.3379 78.5063 26.3657 78.398 26.4048C78.2912 26.4439 78.2055 26.5003 78.1408 26.574C78.0776 26.6462 78.046 26.7425 78.046 26.8628C78.046 27.0298 78.1077 27.1561 78.2311 27.2419C78.3544 27.3261 78.5116 27.3682 78.7026 27.3682ZM82.4621 27.9007C82.1823 27.9007 81.9326 27.8292 81.713 27.6864C81.4949 27.542 81.3234 27.3366 81.1986 27.0704C81.0753 26.8026 81.0136 26.4815 81.0136 26.107C81.0136 25.7324 81.076 25.412 81.2009 25.1458C81.3272 24.8796 81.5002 24.6758 81.7198 24.5344C81.9394 24.393 82.1883 24.3223 82.4666 24.3223C82.6817 24.3223 82.8547 24.3584 82.9856 24.4306C83.1179 24.5013 83.2202 24.584 83.2924 24.6788C83.3661 24.7735 83.4233 24.857 83.4639 24.9292H83.5045V23.2122H84.1791V27.833H83.5203V27.2938H83.4639C83.4233 27.3675 83.3646 27.4517 83.2879 27.5465C83.2127 27.6412 83.1089 27.724 82.9765 27.7947C82.8442 27.8653 82.6727 27.9007 82.4621 27.9007ZM82.611 27.3253C82.8051 27.3253 82.969 27.2742 83.1029 27.1719C83.2383 27.0681 83.3405 26.9245 83.4097 26.741C83.4804 26.5575 83.5158 26.3439 83.5158 26.1002C83.5158 25.8595 83.4812 25.6489 83.412 25.4684C83.3428 25.2879 83.2413 25.1473 83.1074 25.0465C82.9735 24.9457 82.8081 24.8954 82.611 24.8954C82.4079 24.8954 82.2387 24.948 82.1034 25.0533C81.968 25.1586 81.8657 25.3022 81.7965 25.4842C81.7288 25.6662 81.695 25.8716 81.695 26.1002C81.695 26.3318 81.7296 26.5402 81.7988 26.7252C81.868 26.9102 81.9702 27.0569 82.1056 27.1652C82.2425 27.272 82.411 27.3253 82.611 27.3253ZM85.142 27.833V24.3674H85.8166V27.833H85.142ZM85.4827 23.8327C85.3653 23.8327 85.2646 23.7936 85.1803 23.7153C85.0976 23.6356 85.0562 23.5409 85.0562 23.431C85.0562 23.3197 85.0976 23.225 85.1803 23.1468C85.2646 23.067 85.3653 23.0272 85.4827 23.0272C85.6 23.0272 85.7 23.067 85.7828 23.1468C85.867 23.225 85.9091 23.3197 85.9091 23.431C85.9091 23.5409 85.867 23.6356 85.7828 23.7153C85.7 23.7936 85.6 23.8327 85.4827 23.8327ZM87.3988 25.7753V27.833H86.7242V24.3674H87.3717V24.9315H87.4146C87.4943 24.748 87.6192 24.6005 87.7891 24.4892C87.9606 24.3779 88.1765 24.3223 88.4367 24.3223C88.6728 24.3223 88.8797 24.3719 89.0571 24.4712C89.2346 24.569 89.3723 24.7149 89.47 24.9089C89.5678 25.1029 89.6167 25.3429 89.6167 25.6286V27.833H88.9421V25.7099C88.9421 25.4587 88.8766 25.2624 88.7458 25.121C88.6149 24.9781 88.4352 24.9066 88.2065 24.9066C88.0501 24.9066 87.911 24.9405 87.7891 25.0082C87.6688 25.0759 87.5733 25.1751 87.5026 25.306C87.4334 25.4354 87.3988 25.5918 87.3988 25.7753ZM91.9745 29.2048C91.6992 29.2048 91.4623 29.1687 91.2638 29.0965C91.0667 29.0243 90.9058 28.9288 90.7809 28.81C90.6561 28.6911 90.5628 28.561 90.5011 28.4196L91.081 28.1805C91.1216 28.2467 91.1758 28.3166 91.2435 28.3903C91.3126 28.4655 91.4059 28.5294 91.5232 28.5821C91.6421 28.6347 91.7947 28.6611 91.9813 28.6611C92.237 28.6611 92.4483 28.5986 92.6153 28.4738C92.7822 28.3504 92.8657 28.1534 92.8657 27.8826V27.2013H92.8228C92.7822 27.275 92.7236 27.3569 92.6469 27.4472C92.5716 27.5374 92.4679 27.6157 92.3355 27.6818C92.2031 27.748 92.0309 27.7811 91.8188 27.7811C91.545 27.7811 91.2984 27.7172 91.0788 27.5893C90.8606 27.46 90.6877 27.2697 90.5598 27.0185C90.4335 26.7658 90.3703 26.4552 90.3703 26.0867C90.3703 25.7181 90.4327 25.4023 90.5576 25.139C90.6839 24.8758 90.8569 24.6742 91.0765 24.5344C91.2961 24.393 91.545 24.3223 91.8233 24.3223C92.0384 24.3223 92.2121 24.3584 92.3445 24.4306C92.4769 24.5013 92.5799 24.584 92.6536 24.6788C92.7288 24.7735 92.7867 24.857 92.8274 24.9292H92.877V24.3674H93.5381V27.9097C93.5381 28.2075 93.4689 28.452 93.3305 28.643C93.1921 28.834 93.0048 28.9754 92.7687 29.0672C92.534 29.1589 92.2693 29.2048 91.9745 29.2048ZM91.9677 27.2216C92.1618 27.2216 92.3257 27.1764 92.4596 27.0862C92.595 26.9944 92.6972 26.8636 92.7664 26.6936C92.8371 26.5221 92.8725 26.3168 92.8725 26.0776C92.8725 25.8445 92.8379 25.6392 92.7687 25.4617C92.6995 25.2842 92.598 25.1458 92.4641 25.0465C92.3302 24.9457 92.1648 24.8954 91.9677 24.8954C91.7647 24.8954 91.5954 24.948 91.4601 25.0533C91.3247 25.1571 91.2224 25.2985 91.1532 25.4775C91.0855 25.6565 91.0517 25.8565 91.0517 26.0776C91.0517 26.3048 91.0863 26.5041 91.1555 26.6755C91.2247 26.847 91.3269 26.9809 91.4623 27.0772C91.5992 27.1734 91.7677 27.2216 91.9677 27.2216ZM98.7213 25.2135L98.1098 25.3218C98.0842 25.2436 98.0436 25.1691 97.988 25.0984C97.9338 25.0277 97.8601 24.9698 97.7669 24.9247C97.6736 24.8796 97.557 24.857 97.4171 24.857C97.2261 24.857 97.0667 24.8999 96.9388 24.9856C96.811 25.0698 96.747 25.1789 96.747 25.3128C96.747 25.4286 96.7899 25.5218 96.8756 25.5925C96.9614 25.6632 97.0998 25.7212 97.2908 25.7663L97.8413 25.8926C98.1602 25.9663 98.3979 26.0799 98.5543 26.2333C98.7107 26.3867 98.7889 26.586 98.7889 26.8312C98.7889 27.0388 98.7288 27.2238 98.6084 27.3863C98.4896 27.5472 98.3234 27.6736 98.1098 27.7653C97.8977 27.8571 97.6518 27.903 97.372 27.903C96.9839 27.903 96.6673 27.8202 96.4221 27.6548C96.177 27.4878 96.0265 27.2509 95.9709 26.944L96.6229 26.8448C96.6636 27.0147 96.747 27.1433 96.8734 27.2306C96.9997 27.3163 97.1644 27.3592 97.3675 27.3592C97.5886 27.3592 97.7654 27.3133 97.8977 27.2216C98.0301 27.1283 98.0963 27.0147 98.0963 26.8809C98.0963 26.7726 98.0557 26.6816 97.9744 26.6079C97.8947 26.5342 97.7721 26.4785 97.6067 26.4409L97.02 26.3123C96.6966 26.2386 96.4575 26.1213 96.3026 25.9603C96.1491 25.7994 96.0724 25.5956 96.0724 25.3489C96.0724 25.1443 96.1296 24.9653 96.2439 24.8119C96.3582 24.6585 96.5161 24.5389 96.7177 24.4531C96.9193 24.3659 97.1502 24.3223 97.4104 24.3223C97.7849 24.3223 98.0797 24.4035 98.2948 24.5659C98.5099 24.7269 98.6521 24.9427 98.7213 25.2135ZM101.148 24.3674V24.9089H99.2554V24.3674H101.148ZM99.7631 23.5371H100.438V26.8154C100.438 26.9463 100.457 27.0448 100.496 27.111C100.535 27.1757 100.586 27.2201 100.648 27.2441C100.711 27.2667 100.779 27.278 100.853 27.278C100.907 27.278 100.954 27.2742 100.995 27.2667C101.036 27.2592 101.067 27.2531 101.09 27.2486L101.212 27.8059C101.172 27.821 101.117 27.836 101.045 27.8511C100.972 27.8676 100.882 27.8766 100.774 27.8781C100.596 27.8811 100.431 27.8496 100.278 27.7834C100.124 27.7172 100 27.6149 99.9052 27.4765C99.8105 27.3381 99.7631 27.1644 99.7631 26.9553V23.5371ZM102.903 27.9097C102.684 27.9097 102.485 27.8691 102.308 27.7879C102.13 27.7052 101.989 27.5856 101.886 27.4291C101.783 27.2727 101.732 27.0809 101.732 26.8538C101.732 26.6582 101.77 26.4973 101.845 26.371C101.92 26.2446 102.022 26.1446 102.15 26.0709C102.278 25.9972 102.42 25.9415 102.578 25.9039C102.736 25.8663 102.897 25.8377 103.061 25.8182C103.269 25.7941 103.437 25.7745 103.567 25.7595C103.696 25.743 103.79 25.7166 103.849 25.6805C103.907 25.6444 103.937 25.5858 103.937 25.5045V25.4888C103.937 25.2917 103.881 25.139 103.77 25.0307C103.66 24.9224 103.496 24.8683 103.278 24.8683C103.051 24.8683 102.872 24.9187 102.741 25.0195C102.611 25.1187 102.522 25.2293 102.472 25.3511L101.838 25.2067C101.913 24.9961 102.023 24.8262 102.168 24.6968C102.314 24.5659 102.481 24.4712 102.671 24.4125C102.86 24.3524 103.06 24.3223 103.269 24.3223C103.407 24.3223 103.554 24.3388 103.709 24.3719C103.865 24.4035 104.011 24.4622 104.146 24.5479C104.283 24.6336 104.395 24.7562 104.483 24.9157C104.57 25.0736 104.613 25.2789 104.613 25.5316V27.833H103.955V27.3592H103.928C103.884 27.4464 103.819 27.5322 103.731 27.6164C103.644 27.7006 103.532 27.7706 103.395 27.8262C103.258 27.8819 103.094 27.9097 102.903 27.9097ZM103.05 27.3682C103.236 27.3682 103.396 27.3314 103.528 27.2577C103.662 27.184 103.764 27.0877 103.833 26.9689C103.904 26.8485 103.939 26.7199 103.939 26.583V26.1363C103.915 26.1604 103.868 26.1829 103.799 26.204C103.731 26.2235 103.654 26.2408 103.567 26.2559C103.479 26.2694 103.394 26.2822 103.312 26.2942C103.229 26.3048 103.16 26.3138 103.104 26.3213C102.973 26.3379 102.854 26.3657 102.745 26.4048C102.639 26.4439 102.553 26.5003 102.488 26.574C102.425 26.6462 102.393 26.7425 102.393 26.8628C102.393 27.0298 102.455 27.1561 102.578 27.2419C102.702 27.3261 102.859 27.3682 103.05 27.3682ZM107.13 24.3674V24.9089H105.237V24.3674H107.13ZM105.744 23.5371H106.419V26.8154C106.419 26.9463 106.439 27.0448 106.478 27.111C106.517 27.1757 106.567 27.2201 106.629 27.2441C106.692 27.2667 106.76 27.278 106.834 27.278C106.888 27.278 106.936 27.2742 106.976 27.2667C107.017 27.2592 107.049 27.2531 107.071 27.2486L107.193 27.8059C107.154 27.821 107.098 27.836 107.026 27.8511C106.954 27.8676 106.864 27.8766 106.755 27.8781C106.578 27.8811 106.412 27.8496 106.259 27.7834C106.105 27.7172 105.981 27.6149 105.887 27.4765C105.792 27.3381 105.744 27.1644 105.744 26.9553V23.5371ZM110.417 25.2135L109.806 25.3218C109.78 25.2436 109.74 25.1691 109.684 25.0984C109.63 25.0277 109.556 24.9698 109.463 24.9247C109.369 24.8796 109.253 24.857 109.113 24.857C108.922 24.857 108.763 24.8999 108.635 24.9856C108.507 25.0698 108.443 25.1789 108.443 25.3128C108.443 25.4286 108.486 25.5218 108.572 25.5925C108.657 25.6632 108.796 25.7212 108.987 25.7663L109.537 25.8926C109.856 25.9663 110.094 26.0799 110.25 26.2333C110.407 26.3867 110.485 26.586 110.485 26.8312C110.485 27.0388 110.425 27.2238 110.304 27.3863C110.185 27.5472 110.019 27.6736 109.806 27.7653C109.594 27.8571 109.348 27.903 109.068 27.903C108.68 27.903 108.363 27.8202 108.118 27.6548C107.873 27.4878 107.722 27.2509 107.667 26.944L108.319 26.8448C108.359 27.0147 108.443 27.1433 108.569 27.2306C108.696 27.3163 108.86 27.3592 109.063 27.3592C109.284 27.3592 109.461 27.3133 109.594 27.2216C109.726 27.1283 109.792 27.0147 109.792 26.8809C109.792 26.7726 109.752 26.6816 109.67 26.6079C109.591 26.5342 109.468 26.4785 109.303 26.4409L108.716 26.3123C108.393 26.2386 108.153 26.1213 107.998 25.9603C107.845 25.7994 107.768 25.5956 107.768 25.3489C107.768 25.1443 107.825 24.9653 107.94 24.8119C108.054 24.6585 108.212 24.5389 108.414 24.4531C108.615 24.3659 108.846 24.3223 109.106 24.3223C109.481 24.3223 109.776 24.4035 109.991 24.5659C110.206 24.7269 110.348 24.9427 110.417 25.2135ZM114.253 27.8984C113.943 27.8984 113.676 27.842 113.452 27.7292C113.229 27.6164 113.058 27.463 112.937 27.2689C112.817 27.0734 112.757 26.8523 112.757 26.6056C112.757 26.4176 112.796 26.2506 112.874 26.1047C112.952 25.9573 113.061 25.8212 113.201 25.6963C113.341 25.5715 113.503 25.4459 113.686 25.3195L114.431 24.7938C114.557 24.7111 114.656 24.6239 114.727 24.5321C114.797 24.4388 114.833 24.3238 114.833 24.1869C114.833 24.0786 114.786 23.9748 114.693 23.8755C114.599 23.7763 114.475 23.7266 114.318 23.7266C114.21 23.7266 114.114 23.7529 114.032 23.8056C113.95 23.8582 113.887 23.9259 113.84 24.0086C113.795 24.0899 113.772 24.1756 113.772 24.2659C113.772 24.3712 113.801 24.4772 113.858 24.584C113.917 24.6908 113.992 24.8013 114.084 24.9157C114.175 25.0285 114.272 25.1458 114.372 25.2676L116.518 27.833H115.755L113.98 25.746C113.831 25.57 113.692 25.4045 113.565 25.2496C113.437 25.0932 113.333 24.9352 113.253 24.7758C113.175 24.6148 113.136 24.4411 113.136 24.2546C113.136 24.0425 113.184 23.8545 113.28 23.6905C113.378 23.5251 113.514 23.3957 113.689 23.3024C113.863 23.2092 114.068 23.1626 114.302 23.1626C114.54 23.1626 114.744 23.2092 114.914 23.3024C115.085 23.3942 115.217 23.5168 115.309 23.6702C115.402 23.8221 115.449 23.9883 115.449 24.1688C115.449 24.3885 115.394 24.5825 115.284 24.751C115.176 24.9179 115.026 25.0713 114.835 25.2112L113.908 25.8949C113.727 26.0272 113.601 26.1581 113.531 26.2875C113.462 26.4153 113.427 26.5154 113.427 26.5876C113.427 26.7199 113.461 26.8425 113.529 26.9553C113.598 27.0681 113.694 27.1584 113.817 27.2261C113.942 27.2938 114.088 27.3276 114.255 27.3276C114.427 27.3276 114.593 27.2908 114.756 27.217C114.92 27.1418 115.068 27.0343 115.2 26.8944C115.334 26.7545 115.44 26.5868 115.519 26.3913C115.597 26.1957 115.636 25.9769 115.636 25.7347H116.245C116.245 26.0325 116.211 26.2845 116.144 26.4905C116.076 26.6951 115.994 26.8621 115.898 26.9914C115.803 27.1193 115.713 27.2193 115.629 27.2915C115.602 27.3156 115.576 27.3396 115.552 27.3637C115.528 27.3878 115.503 27.4118 115.476 27.4359C115.319 27.5938 115.13 27.7104 114.907 27.7856C114.686 27.8608 114.468 27.8984 114.253 27.8984ZM118.728 27.833V24.3674H119.38V24.9179H119.416C119.479 24.7314 119.591 24.5847 119.75 24.478C119.911 24.3697 120.093 24.3155 120.296 24.3155C120.338 24.3155 120.388 24.317 120.445 24.32C120.504 24.323 120.55 24.3268 120.583 24.3313V24.9766C120.556 24.9691 120.508 24.9608 120.438 24.9518C120.369 24.9412 120.3 24.936 120.231 24.936C120.071 24.936 119.929 24.9698 119.804 25.0375C119.681 25.1037 119.583 25.1962 119.511 25.315C119.439 25.4323 119.403 25.5662 119.403 25.7166V27.833H118.728ZM122.536 27.903C122.195 27.903 121.901 27.83 121.654 27.6841C121.409 27.5367 121.219 27.3299 121.085 27.0636C120.953 26.7959 120.887 26.4823 120.887 26.1228C120.887 25.7678 120.953 25.4549 121.085 25.1842C121.219 24.9134 121.406 24.7021 121.645 24.5502C121.886 24.3982 122.167 24.3223 122.489 24.3223C122.684 24.3223 122.874 24.3546 123.057 24.4193C123.241 24.484 123.405 24.5855 123.551 24.7239C123.697 24.8623 123.812 25.042 123.897 25.2631C123.981 25.4827 124.023 25.7497 124.023 26.0641V26.3033H121.268V25.7979H123.362C123.362 25.6204 123.326 25.4632 123.254 25.3263C123.181 25.1879 123.08 25.0789 122.949 24.9991C122.82 24.9194 122.668 24.8796 122.493 24.8796C122.304 24.8796 122.138 24.9262 121.997 25.0195C121.857 25.1112 121.749 25.2315 121.672 25.3805C121.597 25.5279 121.559 25.6881 121.559 25.861V26.2559C121.559 26.4875 121.6 26.6846 121.681 26.847C121.764 27.0095 121.879 27.1336 122.026 27.2193C122.174 27.3035 122.346 27.3457 122.543 27.3457C122.671 27.3457 122.787 27.3276 122.893 27.2915C122.998 27.2539 123.089 27.1982 123.166 27.1245C123.242 27.0508 123.301 26.9598 123.342 26.8515L123.98 26.9666C123.929 27.1546 123.837 27.3193 123.705 27.4607C123.574 27.6006 123.409 27.7097 123.211 27.7879C123.014 27.8646 122.789 27.903 122.536 27.903ZM124.771 29.1326V24.3674H125.43V24.9292H125.487C125.526 24.857 125.582 24.7735 125.656 24.6788C125.73 24.584 125.832 24.5013 125.963 24.4306C126.094 24.3584 126.267 24.3223 126.482 24.3223C126.761 24.3223 127.011 24.393 127.231 24.5344C127.45 24.6758 127.623 24.8796 127.747 25.1458C127.874 25.412 127.937 25.7324 127.937 26.107C127.937 26.4815 127.875 26.8026 127.75 27.0704C127.625 27.3366 127.453 27.542 127.235 27.6864C127.017 27.8292 126.768 27.9007 126.488 27.9007C126.278 27.9007 126.106 27.8653 125.972 27.7947C125.839 27.724 125.736 27.6412 125.66 27.5465C125.585 27.4517 125.527 27.3675 125.487 27.2938H125.446V29.1326H124.771ZM125.433 26.1002C125.433 26.3439 125.468 26.5575 125.539 26.741C125.609 26.9245 125.712 27.0681 125.845 27.1719C125.979 27.2742 126.143 27.3253 126.337 27.3253C126.539 27.3253 126.707 27.272 126.843 27.1652C126.978 27.0569 127.08 26.9102 127.15 26.7252C127.22 26.5402 127.256 26.3318 127.256 26.1002C127.256 25.8716 127.221 25.6662 127.152 25.4842C127.084 25.3022 126.982 25.1586 126.845 25.0533C126.71 24.948 126.54 24.8954 126.337 24.8954C126.142 24.8954 125.976 24.9457 125.841 25.0465C125.707 25.1473 125.606 25.2879 125.536 25.4684C125.467 25.6489 125.433 25.8595 125.433 26.1002ZM130.153 27.903C129.828 27.903 129.544 27.8285 129.302 27.6796C129.06 27.5307 128.872 27.3223 128.738 27.0546C128.604 26.7869 128.537 26.474 128.537 26.116C128.537 25.7565 128.604 25.4421 128.738 25.1729C128.872 24.9036 129.06 24.6946 129.302 24.5456C129.544 24.3967 129.828 24.3223 130.153 24.3223C130.478 24.3223 130.761 24.3967 131.003 24.5456C131.245 24.6946 131.433 24.9036 131.567 25.1729C131.701 25.4421 131.768 25.7565 131.768 26.116C131.768 26.474 131.701 26.7869 131.567 27.0546C131.433 27.3223 131.245 27.5307 131.003 27.6796C130.761 27.8285 130.478 27.903 130.153 27.903ZM130.155 27.3366C130.365 27.3366 130.54 27.281 130.678 27.1697C130.817 27.0584 130.919 26.9102 130.985 26.7252C131.053 26.5402 131.087 26.3364 131.087 26.1137C131.087 25.8926 131.053 25.6896 130.985 25.5045C130.919 25.318 130.817 25.1684 130.678 25.0556C130.54 24.9427 130.365 24.8863 130.155 24.8863C129.943 24.8863 129.767 24.9427 129.627 25.0556C129.489 25.1684 129.386 25.318 129.318 25.5045C129.252 25.6896 129.219 25.8926 129.219 26.1137C129.219 26.3364 129.252 26.5402 129.318 26.7252C129.386 26.9102 129.489 27.0584 129.627 27.1697C129.767 27.281 129.943 27.3366 130.155 27.3366ZM132.521 27.833V24.3674H133.173V24.9179H133.209C133.272 24.7314 133.384 24.5847 133.543 24.478C133.704 24.3697 133.886 24.3155 134.089 24.3155C134.131 24.3155 134.181 24.317 134.238 24.32C134.297 24.323 134.343 24.3268 134.376 24.3313V24.9766C134.349 24.9691 134.301 24.9608 134.231 24.9518C134.162 24.9412 134.093 24.936 134.024 24.936C133.864 24.936 133.722 24.9698 133.597 25.0375C133.474 25.1037 133.376 25.1962 133.304 25.315C133.232 25.4323 133.196 25.5662 133.196 25.7166V27.833H132.521ZM136.782 24.3674V24.9089H134.889V24.3674H136.782ZM135.397 23.5371H136.071V26.8154C136.071 26.9463 136.091 27.0448 136.13 27.111C136.169 27.1757 136.22 27.2201 136.281 27.2441C136.344 27.2667 136.413 27.278 136.487 27.278C136.541 27.278 136.588 27.2742 136.629 27.2667C136.669 27.2592 136.701 27.2531 136.723 27.2486L136.845 27.8059C136.806 27.821 136.75 27.836 136.678 27.8511C136.606 27.8676 136.516 27.8766 136.408 27.8781C136.23 27.8811 136.065 27.8496 135.911 27.7834C135.758 27.7172 135.634 27.6149 135.539 27.4765C135.444 27.3381 135.397 27.1644 135.397 26.9553V23.5371ZM140.069 25.2135L139.458 25.3218C139.432 25.2436 139.392 25.1691 139.336 25.0984C139.282 25.0277 139.208 24.9698 139.115 24.9247C139.022 24.8796 138.905 24.857 138.765 24.857C138.574 24.857 138.415 24.8999 138.287 24.9856C138.159 25.0698 138.095 25.1789 138.095 25.3128C138.095 25.4286 138.138 25.5218 138.224 25.5925C138.31 25.6632 138.448 25.7212 138.639 25.7663L139.19 25.8926C139.508 25.9663 139.746 26.0799 139.902 26.2333C140.059 26.3867 140.137 26.586 140.137 26.8312C140.137 27.0388 140.077 27.2238 139.957 27.3863C139.838 27.5472 139.672 27.6736 139.458 27.7653C139.246 27.8571 139 27.903 138.72 27.903C138.332 27.903 138.016 27.8202 137.77 27.6548C137.525 27.4878 137.375 27.2509 137.319 26.944L137.971 26.8448C138.012 27.0147 138.095 27.1433 138.222 27.2306C138.348 27.3163 138.513 27.3592 138.716 27.3592C138.937 27.3592 139.114 27.3133 139.246 27.2216C139.378 27.1283 139.444 27.0147 139.444 26.8809C139.444 26.7726 139.404 26.6816 139.323 26.6079C139.243 26.5342 139.12 26.4785 138.955 26.4409L138.368 26.3123C138.045 26.2386 137.806 26.1213 137.651 25.9603C137.497 25.7994 137.421 25.5956 137.421 25.3489C137.421 25.1443 137.478 24.9653 137.592 24.8119C137.706 24.6585 137.864 24.5389 138.066 24.4531C138.267 24.3659 138.498 24.3223 138.759 24.3223C139.133 24.3223 139.428 24.4035 139.643 24.5659C139.858 24.7269 140 24.9427 140.069 25.2135Z" fill="white"/>
</g>
<defs>
<clipPath id="clip0_4561_5068">
<rect width="142" height="32" fill="white" transform="translate(0 0.5)"/>
</clipPath>
</defs>
</svg>
