<svg width="151" height="35" viewBox="0 0 151 35" fill="none" xmlns="http://www.w3.org/2000/svg">
<g clip-path="url(#clip0_6178_3916)">
<path d="M31.8555 22.0074C29.2059 30.1362 20.5006 34.5471 12.3631 31.9636C4.22553 29.38 -0.190218 20.621 2.39614 12.4923C4.98251 4.36353 13.7509 -0.0474324 21.8884 2.53613C26.4935 4.04846 30.1522 7.64024 31.7293 12.2402H33.4956C30.7199 3.22928 21.1315 -1.87483 12.1108 0.89777C3.09004 3.67038 -2.0196 13.2484 0.756012 22.2595C3.53162 31.2704 13.1201 36.3745 22.1408 33.6019C27.692 31.9006 31.9815 27.5526 33.5586 22.0074H31.8555Z" fill="white"/>
<path d="M26.5573 23.8986H26.3681C25.6741 23.8356 25.0433 23.4575 24.6648 22.8904L21.0061 17.9753C20.8168 17.6603 20.4383 17.4082 19.9968 17.4082C19.6183 17.4082 19.2398 17.5972 18.9875 17.9123L16.4011 22.3864C15.7072 23.3946 14.3824 23.7096 13.3731 23.0165C13.1839 22.8904 12.9946 22.7014 12.8685 22.5123L12.8054 22.4493L9.20975 16.526C9.0205 16.274 8.76817 16.085 8.45276 16.085C7.94811 16.1479 7.56962 16.337 7.25421 16.7151L1.82916 22.1973L1.13525 21.5041L6.56031 15.9589C7.06496 15.3918 7.75886 15.0137 8.51584 15.0137C9.14666 15.0768 9.65132 15.3918 10.0298 15.8959L10.0929 15.9589L13.7516 22.0083C14.1932 22.5123 14.9502 22.5754 15.4549 22.1342C15.5179 22.0712 15.581 22.0083 15.6441 21.8822L18.2305 17.4082C18.609 16.7781 19.3028 16.4 20.0598 16.4C20.8168 16.4 21.5107 16.7781 21.8892 17.4082L25.548 22.3233C25.9265 22.8904 26.6204 23.0165 27.1881 22.7014C27.2512 22.6384 27.3774 22.5754 27.4404 22.5123L31.2885 15.0137L32.1716 15.4547L28.2605 23.0165L28.1974 23.0795C27.8189 23.5836 27.1881 23.8986 26.5573 23.8986Z" fill="white"/>
<path d="M8.57785 17.2189C9.37914 17.2189 10.0287 16.57 10.0287 15.7696C10.0287 14.9691 9.37914 14.3203 8.57785 14.3203C7.77654 14.3203 7.12695 14.9691 7.12695 15.7696C7.12695 16.57 7.77654 17.2189 8.57785 17.2189Z" fill="white"/>
<path d="M8.5785 17.6597C7.50611 17.6597 6.68604 16.8406 6.68604 15.7693C6.68604 14.6981 7.50611 13.8789 8.5785 13.8789C9.65089 13.8789 10.471 14.6981 10.471 15.7693C10.471 16.8406 9.65089 17.6597 8.5785 17.6597ZM8.5785 14.761C8.01076 14.761 7.56919 15.2022 7.56919 15.7693C7.56919 16.3364 8.01076 16.7776 8.5785 16.7776C9.14624 16.7776 9.58781 16.3364 9.58781 15.7693C9.65089 15.2022 9.14624 14.761 8.5785 14.761Z" fill="white"/>
<path d="M14.6974 24.2755C15.4988 24.2755 16.1484 23.6267 16.1484 22.8262C16.1484 22.0258 15.4988 21.377 14.6974 21.377C13.8961 21.377 13.2466 22.0258 13.2466 22.8262C13.2466 23.6267 13.8961 24.2755 14.6974 24.2755Z" fill="white"/>
<path d="M14.6976 24.7164C13.6252 24.7164 12.8052 23.8972 12.8052 22.826C12.8052 21.7547 13.6252 20.9355 14.6976 20.9355C15.77 20.9355 16.5901 21.7547 16.5901 22.826C16.5901 23.8972 15.77 24.7164 14.6976 24.7164ZM14.6976 21.8177C14.1299 21.8177 13.6883 22.2589 13.6883 22.826C13.6883 23.393 14.1299 23.8342 14.6976 23.8342C15.2653 23.8342 15.707 23.393 15.707 22.826C15.707 22.2589 15.2653 21.8177 14.6976 21.8177Z" fill="white"/>
<path d="M20.3757 18.1642C21.177 18.1642 21.8266 17.5154 21.8266 16.7149C21.8266 15.9145 21.177 15.2656 20.3757 15.2656C19.5743 15.2656 18.9248 15.9145 18.9248 16.7149C18.9248 17.5154 19.5743 18.1642 20.3757 18.1642Z" fill="white"/>
<path d="M20.1855 18.4156C19.113 18.4156 18.293 17.5964 18.293 16.5252C18.293 15.4539 19.113 14.6348 20.1855 14.6348C21.2578 14.6348 22.0779 15.4539 22.0779 16.5252C22.0779 17.5964 21.1948 18.4156 20.1855 18.4156ZM20.1855 15.517C19.6177 15.517 19.1761 15.9581 19.1761 16.5252C19.1761 17.0924 19.6177 17.5334 20.1855 17.5334C20.7531 17.5334 21.1948 17.0924 21.1948 16.5252C21.1948 16.0211 20.7531 15.517 20.1855 15.517Z" fill="white"/>
<path d="M26.5578 24.5276C27.3591 24.5276 28.0086 23.8786 28.0086 23.0783C28.0086 22.2778 27.3591 21.6289 26.5578 21.6289C25.7565 21.6289 25.1069 22.2778 25.1069 23.0783C25.1069 23.8786 25.7565 24.5276 26.5578 24.5276Z" fill="white"/>
<path d="M26.5561 24.9683C25.4836 24.9683 24.6636 24.1491 24.6636 23.078C24.6636 22.0067 25.4836 21.1875 26.5561 21.1875C27.6284 21.1875 28.4485 22.0067 28.4485 23.078C28.4485 24.1491 27.6284 24.9683 26.5561 24.9683ZM26.5561 22.0697C25.9883 22.0697 25.5468 22.5108 25.5468 23.078C25.5468 23.6451 25.9883 24.0862 26.5561 24.0862C27.1238 24.0862 27.5654 23.6451 27.5654 23.078C27.5654 22.5108 27.1238 22.0697 26.5561 22.0697Z" fill="white"/>
<path d="M38.717 9.76771H41.2527L44.2415 17.7327C44.4357 18.2573 44.5975 18.7172 44.727 19.1124C44.8637 19.5076 44.9823 19.8777 45.0831 20.2225C45.3348 19.389 45.5974 18.5735 45.8708 17.7759C45.9068 17.6753 45.9319 17.607 45.9462 17.5711L49.1184 9.14258L52.4633 17.7327C52.6216 18.1495 52.769 18.5663 52.9057 18.983C53.0496 19.3998 53.1826 19.8202 53.305 20.2441C53.3769 19.9208 53.474 19.565 53.5962 19.1771C53.7186 18.7891 53.8768 18.3292 54.0711 17.7974L57.0383 9.76771H59.5954L53.4776 26.1613L49.8737 17.1615C49.7155 16.7592 49.5717 16.3748 49.4421 16.0083C49.3127 15.6346 49.1977 15.2825 49.0969 14.952C48.9746 15.376 48.8523 15.7748 48.7301 16.1484C48.6077 16.5149 48.4819 16.867 48.3524 17.2046L44.8133 26.1613L38.717 9.76771Z" fill="white"/>
<path d="M63.9224 16.3638H64.5806C66.0048 16.3638 66.9544 16.2093 67.4291 15.9004C67.9039 15.5914 68.1413 15.0453 68.1413 14.2621C68.1413 13.4214 67.8859 12.8286 67.3752 12.4837C66.8717 12.1388 65.9402 11.9663 64.5806 11.9663H63.9224V16.3638ZM63.7606 18.4656V25.5468H61.3545V9.76758H65.2388C66.3898 9.76758 67.2349 9.83225 67.7745 9.96159C68.3211 10.0837 68.7959 10.2885 69.1987 10.5759C69.695 10.9424 70.0835 11.4382 70.3639 12.0633C70.6445 12.6813 70.7848 13.3639 70.7848 14.1112C70.7848 14.8585 70.6445 15.5483 70.3639 16.1806C70.0835 16.8129 69.695 17.3088 69.1987 17.668C68.7959 17.9554 68.3211 18.1602 67.7745 18.2823C67.2349 18.4045 66.3898 18.4656 65.2388 18.4656H63.7606Z" fill="white"/>
<path d="M79.1589 16.7845C80.1874 17.2227 80.9607 17.8047 81.4787 18.5306C82.0037 19.2563 82.2663 20.1149 82.2663 21.1065C82.2663 22.5579 81.8024 23.7292 80.8744 24.6202C79.9537 25.504 78.7308 25.9459 77.2059 25.9459C75.9614 25.9459 74.9184 25.6297 74.0768 24.9975C73.2353 24.3579 72.667 23.4526 72.3721 22.2813L74.0768 21.4407C74.307 22.3963 74.6846 23.122 75.2098 23.6178C75.7421 24.1065 76.4075 24.3508 77.2059 24.3508C78.1482 24.3508 78.9106 24.0813 79.4934 23.5424C80.076 22.9962 80.3673 22.2885 80.3673 21.4191C80.3673 20.7149 80.1623 20.1041 79.7523 19.5868C79.3495 19.0622 78.7381 18.6204 77.918 18.2611L75.9974 17.4419C74.9472 17.0037 74.1631 16.4395 73.6452 15.7498C73.1345 15.0599 72.8791 14.2336 72.8791 13.2708C72.8791 12.1498 73.2964 11.2229 74.1308 10.49C74.9652 9.75708 76.0298 9.39062 77.3246 9.39062C78.2741 9.39062 79.0941 9.59182 79.7846 9.9942C80.4824 10.3966 81.0255 10.9894 81.4139 11.7726L79.8602 12.7642C79.5077 12.1534 79.1121 11.7007 78.6733 11.4061C78.2346 11.1044 77.7382 10.9535 77.1843 10.9535C76.4794 10.9535 75.9003 11.169 75.4472 11.6002C75.0011 12.0313 74.7782 12.581 74.7782 13.2492C74.7782 13.8097 74.9508 14.2947 75.296 14.7043C75.6414 15.1138 76.1772 15.4767 76.9038 15.7929L79.1589 16.7845Z" fill="white"/>
<path d="M84.8669 17.0746H83.0542V15.6842H84.8669V11.707H86.5932V15.6842H88.4059V17.0746H86.5932V25.5462H84.8669V17.0746Z" fill="white"/>
<path d="M97.879 20.7084C97.879 19.5946 97.5733 18.7001 96.9619 18.0246C96.3576 17.342 95.5663 17.0007 94.5881 17.0007C93.5738 17.0007 92.7825 17.3132 92.2143 17.9384C91.646 18.5635 91.3618 19.4366 91.3618 20.5575C91.3618 21.7503 91.646 22.67 92.2143 23.3167C92.7898 23.9634 93.6025 24.2868 94.6527 24.2868C95.6598 24.2868 96.4475 23.9742 97.0158 23.349C97.5913 22.7168 97.879 21.8365 97.879 20.7084ZM99.519 15.6858V25.5478H97.879V23.7587C97.4834 24.4772 96.9762 25.0268 96.3576 25.4077C95.7462 25.7813 95.0592 25.9682 94.2967 25.9682C92.8797 25.9682 91.7359 25.4832 90.8656 24.5131C90.0024 23.5358 89.5708 22.2461 89.5708 20.6437C89.5708 19.0198 89.9916 17.73 90.8331 16.7743C91.6748 15.8115 92.8005 15.3301 94.2104 15.3301C95.0377 15.3301 95.7533 15.5169 96.3576 15.8905C96.969 16.257 97.4617 16.8067 97.8357 17.5396V15.6858H99.519Z" fill="white"/>
<path d="M103.166 17.0746H101.354V15.6842H103.166V11.707H104.893V15.6842H106.705V17.0746H104.893V25.5462H103.166V17.0746Z" fill="white"/>
<path d="M108.313 10.9318C108.313 10.5941 108.432 10.3067 108.669 10.0696C108.913 9.82528 109.209 9.70312 109.553 9.70312C109.892 9.70312 110.18 9.82528 110.417 10.0696C110.661 10.3139 110.783 10.6085 110.783 10.9534C110.783 11.2911 110.666 11.5785 110.428 11.8156C110.19 12.0528 109.899 12.1713 109.553 12.1713C109.209 12.1713 108.913 12.0528 108.669 11.8156C108.432 11.5785 108.313 11.2839 108.313 10.9318ZM108.712 25.547V15.685H110.417V25.547H108.712Z" fill="white"/>
<path d="M112.931 23.8879L114.377 22.9179C114.65 23.4425 114.996 23.8377 115.413 24.1035C115.83 24.3622 116.323 24.4915 116.891 24.4915C117.445 24.4915 117.891 24.355 118.229 24.082C118.574 23.8089 118.746 23.4496 118.746 23.0042C118.746 22.6592 118.629 22.3718 118.391 22.1419C118.161 21.9119 117.761 21.7 117.193 21.5059L116.913 21.409C114.51 20.5826 113.309 19.5479 113.309 18.3049C113.309 17.4282 113.633 16.7133 114.279 16.16C114.927 15.6067 115.768 15.3301 116.805 15.3301C117.661 15.3301 118.394 15.5025 119.005 15.8474C119.618 16.1852 120.056 16.6666 120.322 17.2917L118.952 18.1324C118.751 17.6797 118.452 17.3312 118.056 17.0869C117.667 16.8427 117.214 16.7204 116.696 16.7204C116.201 16.7204 115.794 16.8606 115.477 17.1408C115.168 17.4139 115.014 17.766 115.014 18.1971C115.014 18.8007 115.668 19.3072 116.977 19.7168C117.222 19.7959 117.416 19.8569 117.56 19.9C118.632 20.245 119.376 20.6402 119.793 21.0856C120.218 21.5239 120.43 22.106 120.43 22.8317C120.43 23.7658 120.095 24.5238 119.427 25.1059C118.764 25.6808 117.898 25.9682 116.826 25.9682C115.905 25.9682 115.122 25.7957 114.474 25.4508C113.834 25.1059 113.319 24.585 112.931 23.8879Z" fill="white"/>
<path d="M123.236 17.0746H121.422V15.6842H123.236V11.707H124.962V15.6842H126.774V17.0746H124.962V25.5462H123.236V17.0746Z" fill="white"/>
<path d="M128.382 10.9318C128.382 10.5941 128.501 10.3067 128.739 10.0696C128.983 9.82528 129.278 9.70312 129.623 9.70312C129.961 9.70312 130.249 9.82528 130.487 10.0696C130.731 10.3139 130.853 10.6085 130.853 10.9534C130.853 11.2911 130.734 11.5785 130.497 11.8156C130.26 12.0528 129.968 12.1713 129.623 12.1713C129.278 12.1713 128.983 12.0528 128.739 11.8156C128.501 11.5785 128.382 11.2839 128.382 10.9318ZM128.781 25.547V15.685H130.487V25.547H128.781Z" fill="white"/>
<path d="M141.621 23.209V25.1705C141.175 25.4364 140.672 25.634 140.111 25.7633C139.556 25.8999 138.956 25.9682 138.309 25.9682C136.784 25.9682 135.554 25.4867 134.619 24.5238C133.691 23.5538 133.227 22.282 133.227 20.7084C133.227 19.1276 133.709 17.8378 134.673 16.839C135.637 15.8331 136.871 15.3301 138.374 15.3301C138.921 15.3301 139.453 15.3876 139.971 15.5025C140.495 15.6175 140.989 15.7864 141.449 16.0091V17.8199C141.018 17.5396 140.571 17.3277 140.111 17.184C139.651 17.033 139.183 16.9576 138.708 16.9576C137.601 16.9576 136.712 17.3061 136.043 18.003C135.374 18.6929 135.039 19.6126 135.039 20.7623C135.039 21.7754 135.374 22.6233 136.043 23.3059C136.719 23.9886 137.564 24.3299 138.579 24.3299C139.09 24.3299 139.59 24.24 140.079 24.0604C140.568 23.8808 141.082 23.597 141.621 23.209Z" fill="white"/>
<path d="M142.927 23.8879L144.372 22.9179C144.646 23.4425 144.991 23.8377 145.408 24.1035C145.826 24.3622 146.318 24.4915 146.887 24.4915C147.441 24.4915 147.887 24.355 148.225 24.082C148.571 23.8089 148.743 23.4496 148.743 23.0042C148.743 22.6592 148.624 22.3718 148.386 22.1419C148.156 21.9119 147.757 21.7 147.189 21.5059L146.908 21.409C144.506 20.5826 143.305 19.5479 143.305 18.3049C143.305 17.4282 143.628 16.7133 144.276 16.16C144.924 15.6067 145.765 15.3301 146.8 15.3301C147.656 15.3301 148.391 15.5025 149.002 15.8474C149.613 16.1852 150.052 16.6666 150.319 17.2917L148.947 18.1324C148.746 17.6797 148.447 17.3312 148.052 17.0869C147.664 16.8427 147.21 16.7204 146.693 16.7204C146.196 16.7204 145.79 16.8606 145.474 17.1408C145.164 17.4139 145.009 17.766 145.009 18.1971C145.009 18.8007 145.664 19.3072 146.973 19.7168C147.217 19.7959 147.412 19.8569 147.556 19.9C148.627 20.245 149.372 20.6402 149.79 21.0856C150.214 21.5239 150.426 22.106 150.426 22.8317C150.426 23.7658 150.092 24.5238 149.423 25.1059C148.761 25.6808 147.894 25.9682 146.823 25.9682C145.901 25.9682 145.117 25.7957 144.47 25.4508C143.83 25.1059 143.316 24.585 142.927 23.8879Z" fill="white"/>
</g>
<defs>
<clipPath id="clip0_6178_3916">
<rect width="151" height="35" fill="white"/>
</clipPath>
</defs>
</svg>
