<svg width="361" height="316" viewBox="0 0 361 316" fill="none" xmlns="http://www.w3.org/2000/svg">
<path d="M398.665 223.804C384.486 267.334 355.206 304.423 316.061 328.436C276.917 352.448 230.464 361.817 185.014 354.866C139.563 347.915 98.0813 325.097 67.9898 290.496C37.8984 255.894 21.1611 211.767 20.7726 166.009C20.3842 120.251 36.37 75.8488 65.8698 40.7464C95.3695 5.64405 136.458 -17.8677 181.784 -25.5819C227.11 -33.2962 273.716 -24.7096 313.262 -1.35848C352.808 21.9926 382.714 58.5845 397.63 101.87H419.469C404.377 52.862 372.062 10.8972 328.434 -16.3508C284.806 -43.5987 232.779 -54.3091 181.868 -46.5235C130.957 -38.7378 84.5623 -12.9763 51.1689 26.0502C17.7755 65.0768 -0.385707 114.761 0.00621316 166.017C0.398133 217.272 19.317 266.676 53.3033 305.192C87.2897 343.708 134.072 368.764 185.097 375.778C236.122 382.792 287.978 371.295 331.185 343.389C374.391 315.484 406.06 273.035 420.401 223.804H398.665Z" fill="#F7F8FE" fill-opacity="0.6"/>
<path d="M403.248 142.951L392.186 137.25L348.809 220.594C346.561 218.389 343.883 216.665 340.941 215.528C337.999 214.391 334.854 213.865 331.7 213.982C328.545 214.099 325.449 214.857 322.6 216.209C319.751 217.561 317.21 219.479 315.133 221.845L274.11 167.254C273.841 166.845 273.47 166.547 273.186 166.161C273.938 163.914 274.338 161.564 274.371 159.195C274.421 155.809 273.728 152.454 272.34 149.363C270.951 146.272 268.901 143.52 266.333 141.299C263.764 139.078 260.739 137.443 257.469 136.507C254.199 135.571 250.764 135.356 247.402 135.879C244.04 136.402 240.834 137.649 238.007 139.533C235.18 141.418 232.801 143.894 231.036 146.788C229.27 149.683 228.162 152.926 227.787 156.291C227.413 159.657 227.782 163.063 228.868 166.271C228.63 166.602 228.314 166.845 228.077 167.191L199.262 216.624C194.888 212.762 189.204 210.695 183.359 210.841C177.513 210.987 171.941 213.334 167.767 217.41L129.604 154.124C130.54 151.627 131.032 148.988 131.058 146.324C130.945 140.231 128.434 134.425 124.064 130.155C119.694 125.886 113.814 123.494 107.69 123.494C101.566 123.494 95.6863 125.886 91.3162 130.155C86.9461 134.425 84.4347 140.231 84.3221 146.324C84.3221 146.395 84.3221 146.457 84.3221 146.528C83.532 147.212 82.7892 147.747 82.0307 148.502L13.8508 217.772L22.7555 226.421L88.5413 159.588C90.3148 162.148 92.5906 164.324 95.2316 165.985C97.8726 167.646 100.824 168.758 103.909 169.254C106.993 169.75 110.146 169.619 113.179 168.87C116.211 168.121 119.06 166.769 121.553 164.895L161.027 230.391C160.505 233.559 160.648 236.8 161.448 239.909C162.248 243.019 163.687 245.93 165.674 248.458C167.662 250.986 170.154 253.077 172.995 254.598C175.835 256.119 178.962 257.037 182.177 257.295C185.392 257.553 188.626 257.145 191.674 256.096C194.723 255.048 197.52 253.381 199.889 251.203C202.258 249.024 204.147 246.38 205.437 243.438C206.727 240.496 207.39 237.32 207.384 234.11C207.368 232.253 207.123 230.405 206.657 228.606L236.571 177.303C240.716 180.67 245.916 182.484 251.267 182.43C256.617 182.375 261.779 180.455 265.853 177.004L309.373 234.912C309.253 235.694 309.174 236.481 309.136 237.271C309.249 243.364 311.76 249.17 316.13 253.44C320.501 257.709 326.38 260.101 332.504 260.101C338.628 260.101 344.508 257.709 348.878 253.44C353.248 249.17 355.76 243.364 355.872 237.271C355.834 236.357 355.739 235.445 355.588 234.543L403.248 142.951ZM107.639 164.384C104.044 164.384 100.531 163.324 97.5423 161.337C94.5538 159.349 92.2246 156.525 90.8491 153.221C89.4736 149.916 89.1138 146.28 89.815 142.772C90.5162 139.264 92.247 136.042 94.7885 133.513C97.33 130.984 100.568 129.261 104.093 128.564C107.618 127.866 111.272 128.224 114.593 129.593C117.914 130.961 120.752 133.279 122.749 136.253C124.746 139.227 125.812 142.723 125.812 146.3C125.812 148.675 125.341 151.027 124.428 153.221C123.515 155.415 122.176 157.408 120.489 159.088C118.801 160.767 116.798 162.099 114.593 163.008C112.388 163.917 110.025 164.384 107.639 164.384ZM184.02 252.312C180.426 252.312 176.912 251.252 173.924 249.265C170.935 247.277 168.606 244.453 167.23 241.149C165.855 237.844 165.495 234.208 166.196 230.7C166.898 227.192 168.628 223.97 171.17 221.441C173.711 218.912 176.95 217.189 180.475 216.492C184 215.794 187.654 216.152 190.974 217.521C194.295 218.889 197.133 221.207 199.13 224.181C201.127 227.155 202.193 230.652 202.193 234.228C202.193 239.024 200.278 243.624 196.87 247.016C193.462 250.407 188.84 252.312 184.02 252.312ZM251.038 176.972C247.444 176.972 243.931 175.912 240.942 173.925C237.954 171.938 235.624 169.113 234.249 165.809C232.873 162.504 232.514 158.868 233.215 155.36C233.916 151.852 235.647 148.63 238.188 146.101C240.73 143.572 243.968 141.849 247.493 141.152C251.018 140.454 254.672 140.812 257.993 142.181C261.314 143.549 264.152 145.867 266.149 148.841C268.146 151.815 269.211 155.312 269.211 158.888C269.211 163.684 267.297 168.284 263.889 171.676C260.481 175.067 255.858 176.972 251.038 176.972ZM332.516 255.324C328.922 255.324 325.408 254.263 322.42 252.276C319.431 250.289 317.102 247.465 315.727 244.16C314.351 240.856 313.991 237.22 314.692 233.712C315.394 230.204 317.124 226.981 319.666 224.452C322.207 221.923 325.446 220.201 328.971 219.503C332.496 218.805 336.15 219.163 339.471 220.532C342.791 221.901 345.629 224.219 347.626 227.193C349.623 230.167 350.689 233.663 350.689 237.24C350.689 242.036 348.774 246.636 345.366 250.027C341.958 253.418 337.336 255.324 332.516 255.324Z" fill="#F7F8FE" fill-opacity="0.6"/>
</svg>
