<svg width="215" height="35" viewBox="0 0 215 35" fill="none" xmlns="http://www.w3.org/2000/svg">
<path d="M32.5857 21.7533C29.9497 29.8406 21.2888 34.2291 13.1927 31.6587C5.09668 29.0883 0.703452 20.374 3.27662 12.2867C5.8498 4.19943 14.5734 -0.189041 22.6695 2.38134C27.2511 3.88597 30.8911 7.45942 32.4601 12.036H34.2174C31.456 3.07096 21.9165 -2.00712 12.9417 0.75134C3.96698 3.50981 -1.1166 13.039 1.64486 22.0041C4.40631 30.969 13.9458 36.0471 22.9206 33.2887C28.4435 31.596 32.7111 27.2703 34.2801 21.7533H32.5857Z" fill="white"/>
<path d="M27.3146 23.6346H27.1263C26.4359 23.5719 25.8083 23.1957 25.4318 22.6315L21.7917 17.7415C21.6034 17.4281 21.2269 17.1772 20.7876 17.1772C20.411 17.1772 20.0344 17.3653 19.7834 17.6788L17.2102 22.13C16.5198 23.1331 15.2018 23.4465 14.1977 22.7569C14.0094 22.6315 13.8211 22.4434 13.6957 22.2553L13.6328 22.1927L10.0555 16.2996C9.86725 16.0488 9.6162 15.8608 9.3024 15.8608C8.80032 15.9234 8.42376 16.1115 8.10996 16.4877L2.71258 21.9419L2.02222 21.2523L7.4196 15.7353C7.92168 15.1711 8.61204 14.7949 9.36516 14.7949C9.99276 14.8577 10.4949 15.1711 10.8714 15.6727L10.9342 15.7353L14.5742 21.7538C15.0135 22.2553 15.7667 22.3181 16.2688 21.8792C16.3315 21.8165 16.3943 21.7538 16.4571 21.6284L19.0303 17.1772C19.4068 16.5503 20.0971 16.1742 20.8503 16.1742C21.6034 16.1742 22.2937 16.5503 22.6703 17.1772L26.3105 22.0672C26.687 22.6315 27.3773 22.7569 27.9422 22.4434C28.0049 22.3807 28.1305 22.3181 28.1932 22.2553L32.0216 14.7949L32.9002 15.2337L29.0091 22.7569L28.9464 22.8196C28.5698 23.3212 27.9422 23.6346 27.3146 23.6346Z" fill="white"/>
<path d="M9.42786 17.4267C10.4675 17.4267 11.3103 16.5849 11.3103 15.5464C11.3103 14.5078 10.4675 13.666 9.42786 13.666C8.38821 13.666 7.54541 14.5078 7.54541 15.5464C7.54541 16.5849 8.38821 17.4267 9.42786 17.4267Z" fill="white"/>
<path d="M15.5151 24.4492C16.555 24.4492 17.3981 23.6071 17.3981 22.5683C17.3981 21.5295 16.555 20.6875 15.5151 20.6875C14.4751 20.6875 13.6322 21.5295 13.6322 22.5683C13.6322 23.6071 14.4751 24.4492 15.5151 24.4492Z" fill="white"/>
<path d="M20.8467 18.5563C21.8866 18.5563 22.7296 17.7143 22.7296 16.6756C22.7296 15.6369 21.8866 14.7949 20.8467 14.7949C19.8069 14.7949 18.964 15.6369 18.964 16.6756C18.964 17.7143 19.8069 18.5563 20.8467 18.5563Z" fill="white"/>
<path d="M27.4134 24.6982C28.4531 24.6982 29.2958 23.8563 29.2958 22.8179C29.2958 21.7794 28.4531 20.9375 27.4134 20.9375C26.3738 20.9375 25.5311 21.7794 25.5311 22.8179C25.5311 23.8563 26.3738 24.6982 27.4134 24.6982Z" fill="white"/>
<path d="M40.7521 8.62513H43.2878L46.2766 16.5902C46.4708 17.1147 46.6326 17.5746 46.7621 17.9698C46.8988 18.365 47.0174 18.7351 47.1182 19.0799C47.3699 18.2465 47.6325 17.4309 47.9059 16.6334C47.9418 16.5327 47.967 16.4644 47.9813 16.4285L51.1535 8L54.4984 16.5902C54.6567 17.007 54.8041 17.4238 54.9408 17.8405C55.0847 18.2573 55.2177 18.6776 55.3401 19.1015C55.412 18.7782 55.5091 18.4225 55.6313 18.0345C55.7537 17.6465 55.9119 17.1866 56.1062 16.6549L59.0734 8.62513H61.6305L55.5127 25.0187L51.9088 16.019C51.7506 15.6166 51.6068 15.2322 51.4772 14.8657C51.3478 14.4921 51.2328 14.14 51.132 13.8094C51.0097 14.2334 50.8874 14.6322 50.7652 15.0058C50.6428 15.3723 50.517 15.7244 50.3875 16.0621L46.8484 25.0187L40.7521 8.62513Z" fill="white"/>
<path d="M65.1985 15.2154H65.8567C67.2809 15.2154 68.2305 15.0609 68.7052 14.7519C69.1799 14.443 69.4174 13.8969 69.4174 13.1136C69.4174 12.2729 69.162 11.6801 68.6513 11.3352C68.1477 10.9903 67.2162 10.8179 65.8567 10.8179H65.1985V15.2154ZM65.0367 17.3172V24.3984H62.6306V8.61914H66.5149C67.6658 8.61914 68.5109 8.68381 69.0505 8.81315C69.5972 8.9353 70.0719 9.14009 70.4747 9.4275C70.9711 9.79396 71.3595 10.2898 71.64 10.9149C71.9205 11.5328 72.0609 12.2155 72.0609 12.9627C72.0609 13.71 71.9205 14.3998 71.64 15.0321C71.3595 15.6645 70.9711 16.1603 70.4747 16.5196C70.0719 16.807 69.5972 17.0118 69.0505 17.1339C68.5109 17.2561 67.6658 17.3172 66.5149 17.3172H65.0367Z" fill="white"/>
<path d="M80.4657 15.6263C81.4943 16.0645 82.2675 16.6465 82.7855 17.3724C83.3106 18.0981 83.5731 18.9567 83.5731 19.9483C83.5731 21.3997 83.1092 22.571 82.1813 23.462C81.2605 24.3458 80.0376 24.7877 78.5127 24.7877C77.2682 24.7877 76.2252 24.4715 75.3836 23.8393C74.5421 23.1997 73.9738 22.2944 73.6789 21.1231L75.3836 20.2825C75.6138 21.2381 75.9914 21.9638 76.5166 22.4596C77.0489 22.9483 77.7143 23.1926 78.5127 23.1926C79.455 23.1926 80.2175 22.9231 80.8002 22.3842C81.3828 21.838 81.6741 21.1303 81.6741 20.2609C81.6741 19.5567 81.4691 18.9459 81.0591 18.4286C80.6563 17.904 80.0449 17.4622 79.2249 17.1029L77.3042 16.2837C76.254 15.8455 75.4699 15.2813 74.9521 14.5915C74.4414 13.9017 74.1859 13.0754 74.1859 12.1126C74.1859 10.9916 74.6032 10.0647 75.4376 9.3318C76.272 8.59888 77.3366 8.23242 78.6314 8.23242C79.5809 8.23242 80.4009 8.43361 81.0915 8.836C81.7893 9.23839 82.3323 9.83119 82.7208 10.6144L81.167 11.606C80.8145 10.9952 80.4189 10.5425 79.9801 10.2479C79.5414 9.94615 79.045 9.79526 78.4911 9.79526C77.7862 9.79526 77.2071 10.0108 76.754 10.4419C76.308 10.8731 76.085 11.4228 76.085 12.091C76.085 12.6515 76.2576 13.1365 76.6029 13.5461C76.9482 13.9556 77.484 14.3185 78.2106 14.6347L80.4657 15.6263Z" fill="white"/>
<path d="M86.3857 16.3168H84.5731V14.9264H86.3857V10.9492H88.1121V14.9264H89.9247V16.3168H88.1121V24.7884H86.3857V16.3168Z" fill="white"/>
<path d="M99.2331 19.5287C99.2331 18.4149 98.9273 17.5204 98.3159 16.8449C97.7117 16.1623 96.9204 15.821 95.9422 15.821C94.9278 15.821 94.1366 16.1336 93.5684 16.7588C93.0001 17.3838 92.7159 18.2569 92.7159 19.3778C92.7159 20.5706 93.0001 21.4904 93.5684 22.137C94.1438 22.7837 94.9566 23.1071 96.0068 23.1071C97.0139 23.1071 97.8016 22.7945 98.3699 22.1693C98.9453 21.5371 99.2331 20.6569 99.2331 19.5287ZM100.873 14.5061V24.3681H99.2331V22.579C98.8374 23.2975 98.3303 23.8471 97.7117 24.228C97.1002 24.6016 96.4132 24.7885 95.6508 24.7885C94.2338 24.7885 93.09 24.3035 92.2197 23.3334C91.3565 22.3561 90.9249 21.0664 90.9249 19.464C90.9249 17.8401 91.3456 16.5504 92.1872 15.5946C93.0289 14.6318 94.1545 14.1504 95.5645 14.1504C96.3917 14.1504 97.1074 14.3372 97.7117 14.7109C98.3231 15.0773 98.8158 15.627 99.1898 16.3599V14.5061H100.873Z" fill="white"/>
<path d="M103.686 16.3168H101.873V14.9264H103.686V10.9492H105.412V14.9264H107.225V16.3168H105.412V24.7884H103.686V16.3168Z" fill="white"/>
<path d="M108.225 10.1721C108.225 9.83436 108.344 9.54694 108.581 9.30982C108.825 9.06551 109.121 8.94336 109.465 8.94336C109.804 8.94336 110.092 9.06551 110.329 9.30982C110.573 9.55412 110.695 9.84873 110.695 10.1936C110.695 10.5313 110.578 10.8188 110.34 11.0559C110.102 11.293 109.811 11.4116 109.465 11.4116C109.121 11.4116 108.825 11.293 108.581 11.0559C108.344 10.8188 108.225 10.5242 108.225 10.1721ZM108.624 24.7872V14.9252H110.329V24.7872H108.624Z" fill="white"/>
<path d="M111.695 22.7082L113.142 21.7382C113.414 22.2628 113.76 22.658 114.178 22.9238C114.595 23.1825 115.088 23.3118 115.656 23.3118C116.209 23.3118 116.656 23.1753 116.994 22.9023C117.339 22.6292 117.511 22.27 117.511 21.8245C117.511 21.4796 117.393 21.1921 117.156 20.9622C116.925 20.7322 116.526 20.5203 115.958 20.3262L115.677 20.2293C113.274 19.4029 112.073 18.3682 112.073 17.1252C112.073 16.2485 112.398 15.5336 113.044 14.9804C113.692 14.427 114.533 14.1504 115.569 14.1504C116.426 14.1504 117.159 14.3228 117.77 14.6677C118.382 15.0055 118.821 15.4869 119.087 16.1121L117.717 16.9527C117.515 16.5 117.217 16.1515 116.821 15.9072C116.432 15.663 115.979 15.5408 115.461 15.5408C114.966 15.5408 114.559 15.6809 114.242 15.9611C113.933 16.2342 113.778 16.5863 113.778 17.0174C113.778 17.621 114.432 18.1275 115.742 18.5372C115.987 18.6162 116.18 18.6772 116.325 18.7203C117.396 19.0653 118.14 19.4605 118.558 19.9059C118.983 20.3442 119.195 20.9263 119.195 21.652C119.195 22.5861 118.86 23.3441 118.192 23.9262C117.529 24.5011 116.663 24.7885 115.591 24.7885C114.67 24.7885 113.887 24.616 113.239 24.2711C112.599 23.9262 112.084 23.4053 111.695 22.7082Z" fill="white"/>
<path d="M122.008 16.3168H120.195V14.9264H122.008V10.9492H123.735V14.9264H125.547V16.3168H123.735V24.7884H122.008V16.3168Z" fill="white"/>
<path d="M126.547 10.1721C126.547 9.83436 126.666 9.54694 126.903 9.30982C127.147 9.06551 127.443 8.94336 127.787 8.94336C128.126 8.94336 128.414 9.06551 128.651 9.30982C128.895 9.55412 129.017 9.84873 129.017 10.1936C129.017 10.5313 128.899 10.8188 128.662 11.0559C128.424 11.293 128.133 11.4116 127.787 11.4116C127.443 11.4116 127.147 11.293 126.903 11.0559C126.666 10.8188 126.547 10.5242 126.547 10.1721ZM126.946 24.7872V14.9252H128.651V24.7872H126.946Z" fill="white"/>
<path d="M138.412 22.0293V23.9908C137.965 24.2568 137.462 24.4544 136.901 24.5836C136.347 24.7202 135.746 24.7885 135.1 24.7885C133.574 24.7885 132.344 24.307 131.409 23.3441C130.481 22.3741 130.017 21.1023 130.017 19.5287C130.017 17.9479 130.499 16.6581 131.464 15.6593C132.427 14.6534 133.661 14.1504 135.164 14.1504C135.711 14.1504 136.243 14.2079 136.761 14.3228C137.286 14.4378 137.779 14.6067 138.239 14.8294V16.6402C137.808 16.3599 137.362 16.148 136.901 16.0043C136.441 15.8533 135.973 15.7779 135.498 15.7779C134.391 15.7779 133.503 16.1264 132.834 16.8233C132.165 17.5132 131.83 18.4329 131.83 19.5826C131.83 20.5957 132.165 21.4436 132.834 22.1262C133.509 22.8089 134.355 23.1502 135.37 23.1502C135.88 23.1502 136.38 23.0604 136.869 22.8807C137.358 22.7011 137.872 22.4173 138.412 22.0293Z" fill="white"/>
<path d="M139.412 22.7082L140.857 21.7382C141.131 22.2628 141.475 22.658 141.893 22.9238C142.31 23.1825 142.803 23.3118 143.371 23.3118C143.926 23.3118 144.371 23.1753 144.709 22.9023C145.055 22.6292 145.227 22.27 145.227 21.8245C145.227 21.4796 145.108 21.1921 144.871 20.9622C144.641 20.7322 144.241 20.5203 143.673 20.3262L143.393 20.2293C140.991 19.4029 139.79 18.3682 139.79 17.1252C139.79 16.2485 140.113 15.5336 140.76 14.9804C141.408 14.427 142.249 14.1504 143.284 14.1504C144.141 14.1504 144.875 14.3228 145.486 14.6677C146.098 15.0055 146.536 15.4869 146.803 16.1121L145.432 16.9527C145.23 16.5 144.932 16.1515 144.537 15.9072C144.148 15.663 143.694 15.5408 143.177 15.5408C142.681 15.5408 142.274 15.6809 141.958 15.9611C141.649 16.2342 141.494 16.5863 141.494 17.0174C141.494 17.621 142.149 18.1275 143.458 18.5372C143.702 18.6162 143.897 18.6772 144.04 18.7203C145.112 19.0653 145.857 19.4605 146.274 19.9059C146.698 20.3442 146.91 20.9263 146.91 21.652C146.91 22.5861 146.576 23.3441 145.907 23.9262C145.245 24.5011 144.378 24.7885 143.307 24.7885C142.385 24.7885 141.602 24.616 140.954 24.2711C140.314 23.9262 139.8 23.4053 139.412 22.7082Z" fill="white"/>
<rect x="153.38" y="10.9492" width="61" height="17" rx="4" fill="#FF5722" fill-opacity="0.6"/>
<path d="M201.554 15.2266H202.836L205.244 21.6519L207.647 15.2266H208.929L205.748 23.5571H204.729L201.554 15.2266ZM200.97 15.2266H202.189L202.401 20.7879V23.5571H200.97V15.2266ZM208.294 15.2266H209.518V23.5571H208.082V20.7879L208.294 15.2266Z" fill="white"/>
<path d="M197.978 15.2266H199.408V20.7936C199.408 21.4268 199.271 21.957 198.996 22.3842C198.721 22.8114 198.348 23.1337 197.875 23.3512C197.405 23.5648 196.881 23.6716 196.301 23.6716C195.702 23.6716 195.168 23.5648 194.699 23.3512C194.23 23.1337 193.86 22.8114 193.589 22.3842C193.322 21.957 193.189 21.4268 193.189 20.7936V15.2266H194.619V20.7936C194.619 21.1941 194.688 21.5241 194.825 21.7835C194.962 22.039 195.157 22.2278 195.409 22.3499C195.66 22.4719 195.958 22.533 196.301 22.533C196.644 22.533 196.94 22.4719 197.188 22.3499C197.44 22.2278 197.634 22.039 197.772 21.7835C197.909 21.5241 197.978 21.1941 197.978 20.7936V15.2266Z" fill="white"/>
<path d="M191.519 15.2266V23.5571H190.083V15.2266H191.519Z" fill="white"/>
<path d="M180.315 15.2266H181.596L184.005 21.6519L186.408 15.2266H187.69L184.509 23.5571H183.49L180.315 15.2266ZM179.731 15.2266H180.95L181.161 20.7879V23.5571H179.731V15.2266ZM187.055 15.2266H188.279V23.5571H186.843V20.7879L187.055 15.2266Z" fill="white"/>
<path d="M178.559 22.4185V23.5571H174.137V22.4185H178.559ZM174.543 15.2266V23.5571H173.107V15.2266H174.543ZM177.982 18.7053V19.8267H174.137V18.7053H177.982ZM178.531 15.2266V16.3709H174.137V15.2266H178.531Z" fill="white"/>
<path d="M165.726 15.2266H168.673C169.306 15.2266 169.845 15.3219 170.292 15.5126C170.738 15.7034 171.079 15.9856 171.316 16.3594C171.556 16.7294 171.676 17.1871 171.676 17.7326C171.676 18.1484 171.6 18.5145 171.447 18.8311C171.295 19.1477 171.079 19.4147 170.801 19.6321C170.522 19.8458 170.191 20.0117 169.805 20.1299L169.371 20.3416H166.721L166.71 19.203H168.695C169.039 19.203 169.325 19.142 169.554 19.0199C169.783 18.8979 169.954 18.732 170.069 18.5222C170.187 18.3086 170.246 18.0683 170.246 17.8013C170.246 17.5114 170.189 17.2596 170.074 17.046C169.964 16.8286 169.792 16.6627 169.559 16.5482C169.327 16.43 169.031 16.3709 168.673 16.3709H167.162V23.5571H165.726V15.2266ZM170.481 23.5571L168.524 19.8152L170.029 19.8095L172.014 23.4827V23.5571H170.481Z" fill="white"/>
<path d="M161.405 20.4503H159.237V19.3117H161.405C161.783 19.3117 162.088 19.2507 162.321 19.1287C162.554 19.0066 162.723 18.8388 162.83 18.6252C162.941 18.4077 162.996 18.1598 162.996 17.8814C162.996 17.6182 162.941 17.3721 162.83 17.1433C162.723 16.9106 162.554 16.7237 162.321 16.5826C162.088 16.4414 161.783 16.3709 161.405 16.3709H159.678V23.5571H158.241V15.2266H161.405C162.05 15.2266 162.597 15.341 163.048 15.5699C163.501 15.7949 163.847 16.1077 164.083 16.5082C164.32 16.9049 164.438 17.3588 164.438 17.8699C164.438 18.4077 164.32 18.8693 164.083 19.2545C163.847 19.6398 163.501 19.9354 163.048 20.1414C162.597 20.3473 162.05 20.4503 161.405 20.4503Z" fill="white"/>
</svg>
