<svg width="128" height="128" viewBox="0 0 128 128" fill="none" xmlns="http://www.w3.org/2000/svg">
<rect width="128" height="128" fill="#5551E4"/>
<g clip-path="url(#clip0)">
<path d="M99.0403 75.1233C92.8829 94.1312 72.6486 104.443 53.7334 98.4029C34.8182 92.363 24.5568 71.882 30.57 52.8768C36.5831 33.8716 56.9616 23.5547 75.8742 29.5973C81.1705 31.3488 85.9916 34.3087 89.9596 38.245C93.9277 42.1813 96.9352 46.9873 98.7466 52.2865H102.853C96.4022 31.2179 74.1145 19.283 53.1486 25.7656C32.1827 32.2483 20.306 54.6451 26.757 75.7137C33.2081 96.7822 55.4957 108.717 76.4616 102.235C82.7867 100.306 88.5299 96.8156 93.166 92.0813C97.8021 87.347 101.183 81.5204 103 75.1341L99.0403 75.1233Z" fill="#FFFFFE"/>
<path d="M44.9382 64.9569C44.0684 64.9569 43.2182 64.6977 42.495 64.2121C41.7718 63.7265 41.2081 63.0363 40.8752 62.2288C40.5424 61.4213 40.4553 60.5327 40.625 59.6755C40.7947 58.8182 41.2135 58.0308 41.8286 57.4127C42.4436 56.7947 43.2272 56.3738 44.0803 56.2033C44.9333 56.0327 45.8176 56.1203 46.6211 56.4548C47.4247 56.7892 48.1115 57.3557 48.5948 58.0824C49.078 58.8091 49.3359 59.6636 49.3359 60.5376C49.3464 61.1209 49.2398 61.7002 49.0226 62.2412C48.8053 62.7821 48.4817 63.2735 48.0712 63.686C47.6608 64.0985 47.1718 64.4236 46.6335 64.642C46.0952 64.8603 45.5186 64.9674 44.9382 64.9569ZM44.9382 58.1791C44.474 58.1791 44.0202 58.3174 43.6343 58.5765C43.2483 58.8357 42.9475 59.2041 42.7698 59.635C42.5922 60.066 42.5457 60.5402 42.6363 60.9977C42.7268 61.4552 42.9504 61.8755 43.2786 62.2053C43.6068 62.5352 44.025 62.7598 44.4803 62.8508C44.9356 62.9418 45.4075 62.8951 45.8364 62.7166C46.2653 62.5381 46.6318 62.2358 46.8897 61.8479C47.1476 61.4601 47.2853 61.0041 47.2853 60.5376C47.4294 59.2121 46.2573 58.1817 44.9382 58.1817V58.1791Z" fill="#FFFFFE"/>
<path d="M59.1593 81.4586C58.2896 81.4586 57.4393 81.1994 56.7161 80.7138C55.9929 80.2283 55.4292 79.5381 55.0964 78.7305C54.7635 77.923 54.6764 77.0345 54.8461 76.1772C55.0158 75.32 55.4347 74.5325 56.0497 73.9145C56.6647 73.2964 57.4483 72.8755 58.3014 72.705C59.1545 72.5345 60.0387 72.622 60.8423 72.9565C61.6459 73.291 62.3327 73.8574 62.8159 74.5842C63.2991 75.3109 63.5571 76.1653 63.5571 77.0394C63.5676 77.6226 63.461 78.202 63.2437 78.7429C63.0264 79.2839 62.7029 79.7753 62.2924 80.1878C61.8819 80.6002 61.3929 80.9254 60.8546 81.1437C60.3163 81.3621 59.7397 81.4692 59.1593 81.4586ZM59.1593 74.6808C58.6951 74.6808 58.2414 74.8192 57.8554 75.0783C57.4694 75.3375 57.1686 75.7058 56.991 76.1368C56.8133 76.5678 56.7668 77.042 56.8574 77.4995C56.948 77.957 57.1715 78.3773 57.4997 78.7071C57.828 79.037 58.2462 79.2616 58.7015 79.3526C59.1567 79.4436 59.6287 79.3969 60.0575 79.2184C60.4864 79.0399 60.8529 78.7376 61.1108 78.3497C61.3687 77.9618 61.5064 77.5058 61.5064 77.0394C61.5107 76.7284 61.4529 76.4198 61.3365 76.1317C61.2201 75.8436 61.0474 75.5818 60.8286 75.362C60.6098 75.1421 60.3493 74.9685 60.0626 74.8515C59.7759 74.7345 59.4688 74.6765 59.1593 74.6808Z" fill="#FFFFFE"/>
<path d="M71.6236 67.3154C70.7533 67.3154 69.9026 67.0559 69.1792 66.5699C68.4558 66.0838 67.8921 65.393 67.5596 64.5848C67.227 63.7767 67.1406 62.8876 67.3111 62.03C67.4817 61.1725 67.9016 60.3851 68.5177 59.7675C69.1338 59.1499 69.9184 58.7298 70.7722 58.5605C71.6259 58.3912 72.5105 58.4803 73.3139 58.8164C74.1173 59.1525 74.8034 59.7206 75.2853 60.4488C75.7673 61.1769 76.0234 62.0324 76.0213 62.9069C76.0149 64.076 75.5492 65.1952 74.7256 66.0209C73.9019 66.8466 72.787 67.3119 71.6236 67.3154ZM71.6236 60.5376C71.1594 60.5376 70.7056 60.6759 70.3196 60.9351C69.9336 61.1943 69.6328 61.5626 69.4552 61.9936C69.2775 62.4245 69.231 62.8988 69.3216 63.3563C69.4122 63.8138 69.6357 64.234 69.9639 64.5639C70.2922 64.8937 70.7104 65.1184 71.1657 65.2094C71.6209 65.3004 72.0929 65.2537 72.5217 65.0752C72.9506 64.8966 73.3172 64.5943 73.5751 64.2065C73.833 63.8186 73.9706 63.3626 73.9706 62.8962C73.9563 62.2751 73.7045 61.6835 73.2674 61.2443C72.8303 60.805 72.2415 60.5519 71.6236 60.5376Z" fill="#FFFFFE"/>
<path d="M86.7258 82.0489C85.8561 82.0489 85.0058 81.7897 84.2826 81.3041C83.5594 80.8186 82.9957 80.1284 82.6629 79.3208C82.33 78.5133 82.2429 77.6248 82.4126 76.7675C82.5823 75.9103 83.0012 75.1228 83.6162 74.5048C84.2312 73.8867 85.0148 73.4659 85.8679 73.2953C86.721 73.1248 87.6052 73.2123 88.4088 73.5468C89.2123 73.8813 89.8992 74.4477 90.3824 75.1745C90.8656 75.9012 91.1236 76.7556 91.1236 77.6297C91.134 78.2129 91.0275 78.7923 90.8102 79.3333C90.5929 79.8742 90.2694 80.3656 89.8589 80.7781C89.4484 81.1905 88.9594 81.5157 88.4211 81.734C87.8828 81.9524 87.3062 82.0595 86.7258 82.0489ZM86.7258 75.2711C86.2616 75.2711 85.8079 75.4095 85.4219 75.6686C85.0359 75.9278 84.7351 76.2961 84.5575 76.7271C84.3798 77.1581 84.3333 77.6323 84.4239 78.0898C84.5145 78.5473 84.738 78.9676 85.0662 79.2974C85.3945 79.6273 85.8127 79.8519 86.268 79.9429C86.7232 80.0339 87.1951 79.9872 87.624 79.8087C88.0529 79.6302 88.4194 79.3279 88.6773 78.94C88.9352 78.5521 89.0729 78.0961 89.0729 77.6297C89.0772 77.3187 89.0194 77.0101 88.903 76.722C88.7866 76.4339 88.6139 76.1722 88.3951 75.9523C88.1763 75.7324 87.9158 75.5588 87.6291 75.4418C87.3424 75.3248 87.0353 75.2668 86.7258 75.2711Z" fill="#FFFFFE"/>
<path d="M46.9677 63.2444L54.759 76.1566L54.9058 76.3042C55.1535 76.6692 55.4532 76.9948 55.7947 77.271C55.7896 77.1945 55.787 77.1172 55.787 77.0394C55.787 76.1378 56.1373 75.3185 56.7086 74.7114L48.4521 60.9803L48.3052 60.8328C48.3031 60.8297 48.3009 60.8266 48.2988 60.8235C48.2166 61.8119 47.7124 62.6797 46.9677 63.2444Z" fill="#FFFFFE"/>
<path d="M61.4924 74.5924C62.0671 75.1458 62.4471 75.9015 62.5192 76.7457C62.7352 76.5216 62.9353 76.2757 63.1165 76.009L69.127 65.5445C69.1585 65.504 69.1911 65.4643 69.2246 65.4256C68.675 64.8667 68.3175 64.1167 68.2595 63.2837C67.9139 63.598 67.6131 63.9614 67.3673 64.3639L61.4924 74.5924Z" fill="#FFFFFE"/>
<path d="M74.9869 63.2929C74.9188 64.2347 74.4677 65.0698 73.7893 65.6415C73.8001 65.6583 73.8106 65.6751 73.8211 65.6921L82.3254 77.1843C82.6337 77.6446 83.01 78.0531 83.4401 78.3963C83.3834 78.15 83.3534 77.8933 83.3534 77.6297C83.3534 76.8206 83.6356 76.0778 84.1063 75.4951L75.8691 64.3639C75.6257 63.9653 75.3283 63.6051 74.9869 63.2929Z" fill="#FFFFFE"/>
<path d="M89.2437 75.3751C89.7752 75.9741 90.0982 76.764 90.0982 77.6297C90.0982 77.8158 90.0833 77.9985 90.0546 78.1764C90.2319 78.0048 90.3965 77.8194 90.5468 77.6216L90.6936 77.474L99.7721 59.7944L97.7188 58.764L89.2437 75.3751Z" fill="#FFFFFE"/>
<path d="M42.1422 62.4331C41.7783 61.8921 41.5658 61.2398 41.5658 60.5376C41.5658 60.266 41.5976 60.0019 41.6577 59.7488C41.1403 60.0897 40.6654 60.5069 40.2468 60.9803L27.6491 73.9563L29.2512 75.5663L41.8569 62.7486C41.9466 62.6382 42.0419 62.5329 42.1422 62.4331Z" fill="#FFFFFE"/>
</g>
<defs>
<clipPath id="clip0">
<rect width="78" height="80" fill="white" transform="translate(25 24)"/>
</clipPath>
</defs>
</svg>
