<svg width="256" height="256" viewBox="0 0 256 256" fill="none" xmlns="http://www.w3.org/2000/svg">
<rect width="256" height="256" rx="6" fill="#404BF2"/>
<path d="M188.123 147.293C183.638 161.062 174.374 172.794 161.991 180.39C149.607 187.985 134.911 190.949 120.532 188.75C106.153 186.551 93.0294 179.334 83.5096 168.389C73.9897 157.444 68.6946 143.485 68.5717 129.011C68.4488 114.537 73.5062 100.492 82.8389 89.3884C92.1715 78.2849 105.171 70.8477 119.51 68.4076C133.85 65.9674 148.594 68.6835 161.105 76.0699C173.616 83.4562 183.077 95.0309 187.796 108.723H194.705C189.93 93.2208 179.707 79.9466 165.905 71.3275C152.102 62.7085 135.643 59.3206 119.537 61.7834C103.43 64.2461 88.7525 72.3949 78.188 84.7397C67.6235 97.0845 61.878 112.8 62.002 129.014C62.126 145.227 68.1112 160.854 78.8633 173.037C89.6154 185.221 104.416 193.146 120.558 195.365C136.7 197.584 153.106 193.947 166.775 185.12C180.444 176.293 190.463 162.865 195 147.293H188.123Z" fill="white"/>
<path d="M189.594 122.079L186.093 120.322L172.361 146.019C171.649 145.339 170.802 144.808 169.87 144.457C168.939 144.106 167.943 143.944 166.945 143.98C165.946 144.016 164.966 144.25 164.064 144.667C163.162 145.084 162.358 145.675 161.701 146.404L148.714 129.573C148.629 129.447 148.512 129.355 148.422 129.236C148.66 128.543 148.787 127.818 148.797 127.088C148.813 126.044 148.593 125.009 148.154 124.056C147.714 123.103 147.065 122.255 146.252 121.57C145.439 120.885 144.482 120.381 143.446 120.092C142.411 119.804 141.324 119.738 140.26 119.899C139.195 120.06 138.18 120.445 137.285 121.026C136.391 121.607 135.637 122.37 135.079 123.262C134.52 124.155 134.169 125.155 134.05 126.193C133.932 127.23 134.048 128.28 134.392 129.27C134.317 129.371 134.217 129.447 134.142 129.553L125.02 144.795C123.636 143.604 121.836 142.967 119.986 143.012C118.135 143.057 116.371 143.781 115.05 145.037L102.969 125.524C103.265 124.754 103.421 123.941 103.429 123.119C103.394 121.241 102.599 119.45 101.215 118.134C99.832 116.818 97.9708 116.08 96.0321 116.08C94.0934 116.08 92.2322 116.818 90.8488 118.134C89.4654 119.45 88.6703 121.241 88.6347 123.119C88.6347 123.141 88.6347 123.16 88.6347 123.182C88.3846 123.393 88.1494 123.558 87.9093 123.791L66.3262 145.149L69.1451 147.815L89.9703 127.209C90.5317 127.998 91.2522 128.669 92.0882 129.181C92.9243 129.694 93.8586 130.036 94.835 130.189C95.8114 130.342 96.8096 130.302 97.7695 130.071C98.7295 129.84 99.6312 129.423 100.42 128.845L112.917 149.04C112.751 150.016 112.797 151.016 113.05 151.974C113.303 152.933 113.759 153.831 114.388 154.61C115.017 155.39 115.806 156.034 116.705 156.503C117.604 156.972 118.594 157.255 119.612 157.335C120.63 157.415 121.653 157.289 122.618 156.965C123.583 156.642 124.469 156.128 125.219 155.456C125.969 154.785 126.567 153.97 126.975 153.062C127.383 152.155 127.593 151.176 127.591 150.186C127.586 149.614 127.509 149.044 127.361 148.489L136.831 132.671C138.143 133.709 139.789 134.269 141.483 134.252C143.177 134.235 144.811 133.643 146.101 132.579L159.877 150.434C159.839 150.675 159.814 150.917 159.802 151.161C159.838 153.04 160.633 154.83 162.016 156.146C163.4 157.463 165.261 158.2 167.2 158.2C169.138 158.2 171 157.463 172.383 156.146C173.766 154.83 174.561 153.04 174.597 151.161C174.585 150.879 174.555 150.598 174.507 150.32L189.594 122.079ZM96.0158 128.688C94.878 128.688 93.7658 128.361 92.8197 127.748C91.8737 127.135 91.1363 126.265 90.7009 125.246C90.2655 124.227 90.1515 123.106 90.3735 122.024C90.5955 120.943 91.1434 119.949 91.9479 119.169C92.7525 118.389 93.7775 117.858 94.8935 117.643C96.0094 117.428 97.1661 117.539 98.2173 117.961C99.2685 118.383 100.167 119.097 100.799 120.014C101.431 120.931 101.769 122.009 101.769 123.112C101.769 123.844 101.62 124.569 101.331 125.246C101.042 125.922 100.618 126.537 100.084 127.055C99.5495 127.572 98.9153 127.983 98.2173 128.263C97.5194 128.544 96.7713 128.688 96.0158 128.688ZM120.195 155.799C119.057 155.799 117.945 155.472 116.999 154.859C116.053 154.246 115.316 153.375 114.88 152.356C114.445 151.338 114.331 150.217 114.553 149.135C114.775 148.053 115.323 147.06 116.127 146.28C116.932 145.5 117.957 144.969 119.073 144.754C120.189 144.539 121.346 144.649 122.397 145.071C123.448 145.493 124.346 146.208 124.979 147.125C125.611 148.042 125.948 149.12 125.948 150.223C125.948 151.702 125.342 153.12 124.263 154.165C123.184 155.211 121.721 155.799 120.195 155.799ZM141.411 132.569C140.273 132.569 139.161 132.242 138.215 131.629C137.269 131.017 136.531 130.146 136.096 129.127C135.66 128.108 135.546 126.987 135.768 125.905C135.99 124.824 136.538 123.83 137.343 123.051C138.147 122.271 139.172 121.74 140.288 121.525C141.404 121.309 142.561 121.42 143.612 121.842C144.663 122.264 145.562 122.979 146.194 123.895C146.826 124.812 147.164 125.89 147.164 126.993C147.164 128.472 146.557 129.89 145.479 130.936C144.4 131.982 142.936 132.569 141.411 132.569ZM167.203 156.727C166.066 156.727 164.953 156.4 164.007 155.787C163.061 155.175 162.324 154.304 161.888 153.285C161.453 152.266 161.339 151.145 161.561 150.063C161.783 148.982 162.331 147.988 163.136 147.208C163.94 146.429 164.965 145.898 166.081 145.683C167.197 145.467 168.354 145.578 169.405 146C170.456 146.422 171.355 147.136 171.987 148.053C172.619 148.97 172.956 150.048 172.956 151.151C172.956 152.63 172.35 154.048 171.271 155.094C170.192 156.14 168.729 156.727 167.203 156.727Z" fill="white"/>
</svg>
