<svg xmlns="http://www.w3.org/2000/svg" viewBox="0 0 50 60">
  <defs>
    <linearGradient id="plausible-gradient-1" x1="14.84" y1="22.54" x2="27.47" y2="44.65" gradientUnits="userSpaceOnUse">
      <stop offset="0" stop-color="#909cf7"/>
      <stop offset="1" stop-color="#4b38d8"/>
    </linearGradient>
    <linearGradient id="plausible-gradient-2" x1="7.98" y1="-1.36" x2="21" y2="21.42" gradientUnits="userSpaceOnUse">
      <stop offset="0" stop-color="#909cf7"/>
      <stop offset="1" stop-color="#4b38d8"/>
    </linearGradient>
  </defs>
  <path fill="url(#plausible-gradient-1)" d="M45.25,22.6c-1.09,10.46-10.23,18.23-20.75,18.23h-4.05v9.57c0,5.3-4.3,9.6-9.6,9.6H3.36c-1.86,0-3.36-1.5-3.36-3.36V36.94l5.04-7.07c.91-1.28,2.59-1.76,4.04-1.15l2.87,1.2c1.44.61,3.11.13,4.02-1.15l6.72-9.42c.91-1.27,2.57-1.74,4.01-1.14l5.52,2.32c1.44.61,3.11.13,4.02-1.14l6.46-9.06c2.02,3.56,3.01,7.79,2.55,12.27Z"/>
  <path fill="url(#plausible-gradient-2)" d="M3.29,28.87c.82-1.16,2.02-2.04,3.41-2.31,1.09-.21,2.16-.1,3.15.32l2.86,1.2c.17.07.34.1.52.1.44,0,.85-.21,1.1-.57l6.59-9.24c.82-1.15,2.02-2.04,3.41-2.31,1.08-.21,2.15-.1,3.13.31l5.52,2.32c.17.07.34.11.52.11.44,0,.85-.21,1.1-.57l6.92-9.71C37.83,3.36,31.78,0,24.95,0H3.36C1.5,0,0,1.5,0,3.36v30.13l3.29-4.62Z"/>
</svg>
