<svg xmlns="http://www.w3.org/2000/svg" viewBox="0 0 35 35" fill="none">
  <circle cx="17.5" cy="17.5" r="16" fill="#2563EB"/>
  <path d="M32.193 21.7533C29.557 29.8406 20.8961 34.2291 12.8 31.6587C4.70398 29.0883 0.310752 20.374 2.88392 12.2867C5.4571 4.19943 14.1807 -0.189041 22.2768 2.38134C26.8584 3.88597 30.4984 7.45942 32.0674 12.036H33.8247C31.0633 3.07096 21.5238 -2.00712 12.549 0.75134C3.57428 3.50981 -1.5093 13.039 1.25216 22.0041C4.01361 30.969 13.5531 36.0471 22.5279 33.2887C28.0508 31.596 32.3184 27.2703 33.8874 21.7533H32.193Z" fill="white"/>
  <path d="M26.9219 23.6346H26.7336C26.0432 23.5719 25.4156 23.1957 25.0391 22.6315L21.399 17.7415C21.2107 17.4281 20.8342 17.1772 20.3949 17.1772C20.0183 17.1772 19.6417 17.3653 19.3907 17.6788L16.8175 22.13C16.1271 23.1331 14.8091 23.4465 13.805 22.7569C13.6167 22.6315 13.4284 22.4434 13.303 22.2553L13.2401 22.1927L9.66283 16.2996C9.47455 16.0488 9.2235 15.8608 8.9097 15.8608C8.40762 15.9234 8.03106 16.1115 7.71726 16.4877L2.31988 21.9419L1.62952 21.2523L7.0269 15.7353C7.52898 15.1711 8.21934 14.7949 8.97246 14.7949C9.60006 14.8577 10.1022 15.1711 10.4787 15.6727L10.5415 15.7353L14.1815 21.7538C14.6208 22.2553 15.374 22.3181 15.8761 21.8792C15.9388 21.8165 16.0016 21.7538 16.0644 21.6284L18.6376 17.1772C19.0141 16.5503 19.7044 16.1742 20.4576 16.1742C21.2107 16.1742 21.901 16.5503 22.2776 17.1772L25.9178 22.0672C26.2943 22.6315 26.9846 22.7569 27.5495 22.4434C27.6122 22.3807 27.7378 22.3181 27.8005 22.2553L31.6289 14.7949L32.5075 15.2337L28.6164 22.7569L28.5536 22.8196C28.1771 23.3212 27.5495 23.6346 26.9219 23.6346Z" fill="white"/>
  <circle cx="9.03516" cy="15.5464" r="1.88" fill="white"/>
  <circle cx="15.1224" cy="22.5683" r="1.88" fill="white"/>
  <circle cx="20.454" cy="16.6756" r="1.88" fill="white"/>
  <circle cx="27.0207" cy="22.8179" r="1.88" fill="white"/>
</svg>
