<svg viewBox="0 0 640 480" fill="none" xmlns="http://www.w3.org/2000/svg">
<g clip-path="url(#clip0_21669_184173)">
<path d="M640 0H0V480H640V0Z" fill="#F70008"/>
<path d="M580.267 67.2H59.7334V412.8H580.267V67.2Z" fill="white"/>
<path d="M375.186 273.193L374.509 292.352C372.599 306.99 374.928 323.945 364.37 335.187C359.45 342.144 358.287 348.49 363.998 351.86C370.855 355.905 385.79 355.896 391.544 350.673C399.387 340.241 393.604 327.847 399.41 315.957C401.123 311.723 403.235 307.579 406.313 304.405L417.139 288.672" fill="#CCCCCC"/>
<path d="M375.186 273.193L374.509 292.352C372.599 306.99 374.928 323.945 364.37 335.187C359.45 342.144 358.287 348.49 363.998 351.86C370.855 355.905 385.79 355.896 391.544 350.673C399.387 340.241 393.604 327.847 399.41 315.957C401.123 311.723 403.235 307.579 406.313 304.405L417.139 288.672" stroke="black" stroke-width="3" stroke-linecap="round" stroke-linejoin="round"/>
<path d="M170.395 248.97C169.354 251.691 179.016 261.339 182.475 262.53C185.047 263.656 187.547 264.681 190.235 265.5C191.04 262.719 191.75 259.918 192.369 257.07C189.389 257.141 186.395 256.904 183.302 256.17C179.266 254.943 173.918 251.897 170.395 248.97Z" fill="white" stroke="black" stroke-width="3" stroke-linecap="round" stroke-linejoin="round"/>
<path d="M279.776 345.005C271.18 347.159 262.558 349.819 253.676 349.649C237.11 351.904 246.183 337.101 249.345 328.518C252.07 319.394 252.659 309.733 252.893 300.183C253.101 291.948 256.756 284.555 260.808 277.938C263.839 273.487 264.473 267.819 265.416 262.486C266.321 260.401 268.654 260.522 270.303 259.745" fill="#CCCCCC"/>
<path d="M279.776 345.005C271.18 347.159 262.558 349.819 253.676 349.649C237.11 351.904 246.183 337.101 249.345 328.518C252.07 319.394 252.659 309.733 252.893 300.183C253.101 291.948 256.756 284.555 260.808 277.938C263.839 273.487 264.473 267.819 265.416 262.486C266.321 260.401 268.654 260.522 270.303 259.745" stroke="black" stroke-width="3"/>
<path d="M230.77 159.129C224.305 158.954 218.064 160.505 213.144 165.759C209.456 181.72 195.173 193.048 194.93 210.549C197.118 235.283 194.006 261.598 183.357 283.599C174.24 295.353 181.194 309.198 186.664 319.989C183.411 328.84 183.936 347.461 194.93 334.899C202.115 319.127 186.04 302.773 196.477 287.349C201.671 273.433 207.07 256.687 223.464 258.789C230.023 256.841 231.035 250.22 232.104 260.649C243.091 269.973 259.269 272.19 265.917 287.919C271.494 303.835 271.445 321.688 271.277 338.589C270.535 348.222 261.066 360.399 275.464 361.689C290.563 364.939 305.014 353.564 301.09 335.379C302.689 313.792 310.139 293.683 318.557 274.479C318.715 274.076 318.856 273.705 318.984 273.339C318.982 273.648 318.977 273.959 318.984 274.299C324.234 288.756 341.129 287.201 352.637 290.109C368.163 292.779 384.152 291.639 399.57 293.679L399.677 293.709L409.25 282.129C409.25 282.129 416.91 273.507 418.824 269.919C420.738 266.33 428.397 260.589 428.397 260.589C428.397 260.589 443.718 264.07 444.994 258.329C446.242 252.711 436.737 244.853 436.824 244.599C441.904 250.192 447.45 254.418 452.531 260.019C459.139 267.304 465.301 275.97 472.077 283.059C464.689 269.518 458.732 254.946 448.93 243.249C438.513 228.361 429.398 210.255 412.317 204.219C398.839 199.604 388.602 188.446 376.024 182.019C362.13 175.3 346.784 177.073 332.157 176.109C322.455 174.401 313.036 171.137 303.357 169.299L299.837 167.649L289.624 165.879L266.984 165.159L249.81 162.879C243.929 161.206 237.236 159.303 230.77 159.129Z" fill="#CCCCCC" stroke="black" stroke-width="3" stroke-linecap="round" stroke-linejoin="round"/>
<path d="M235.82 263.34C230.299 267.045 224.597 271.725 218.332 273.692C212.699 275.978 210.261 276.642 204.297 277.866C200.934 278.63 194.534 278.789 191.252 278.239C187.202 277.352 183.698 275.962 180.073 274.375C176.614 273.183 166.961 263.528 168.002 260.807C171.524 263.734 176.873 266.777 180.91 268.004C188.398 269.781 195.327 268.836 202.805 266.923C206.573 266.053 209.839 263.589 213.418 262.105C213.93 261.854 215.494 260.094 217.273 259.582C219.661 258.894 222.405 259.463 224.891 258.575C228.297 257.357 228.456 256.062 229.281 255.355L235.82 263.34Z" fill="white" stroke="black" stroke-width="3" stroke-linecap="round" stroke-linejoin="round"/>
<path d="M388.043 256.192C393.053 261.277 392.662 269.515 395.12 276.075C396.856 282.947 398.398 290.31 403.019 295.562C407.943 302.701 408.85 312.008 412.446 319.891C414.479 325.841 414.033 332.356 414.308 338.611C414.351 342.687 413.658 346.718 412.353 350.493C411.301 354.987 413.92 361.114 418.585 360.508C426.947 360.77 435.611 361.594 443.737 358.813C449.352 356.684 449.555 349.682 448.979 344.164C449.554 336.246 445.526 328.857 446.742 320.939C445.376 310.344 449.349 299.228 445.286 289.023C443.639 283.159 443.196 276.691 445.106 270.844C445.738 264.994 445.909 258.633 443.667 253.204C443.354 252.768 443.016 252.356 442.689 251.935" fill="#CCCCCC"/>
<path d="M388.043 256.192C393.053 261.277 392.662 269.515 395.12 276.075C396.856 282.947 398.398 290.31 403.019 295.562C407.943 302.701 408.85 312.008 412.446 319.891C414.479 325.841 414.033 332.356 414.308 338.611C414.351 342.687 413.658 346.718 412.353 350.493C411.301 354.987 413.92 361.114 418.585 360.508C426.947 360.77 435.611 361.594 443.737 358.813C449.352 356.684 449.555 349.682 448.979 344.164C449.554 336.246 445.526 328.857 446.742 320.939C445.376 310.344 449.349 299.228 445.286 289.023C443.639 283.159 443.196 276.691 445.106 270.844C445.738 264.994 445.909 258.633 443.667 253.204C443.354 252.768 443.016 252.356 442.689 251.935" stroke="black" stroke-width="3" stroke-linecap="round" stroke-linejoin="round"/>
<path d="M215.871 207.913C216.486 209.196 217.591 210.028 218.503 211.016C221.1 212.251 222.99 211.889 224.575 209.47C225.413 208.292 226.18 207.03 227.159 205.991C227.849 205.372 228.876 204.912 228.994 203.795C229.118 202.971 229.477 201.985 228.932 201.255C227.989 200.323 226.734 199.44 225.426 199.826C224.044 200.084 222.652 200.271 221.256 200.382C216.196 201.499 214.665 204.717 215.871 207.913Z" fill="white" stroke="black" stroke-width="3" stroke-linecap="round" stroke-linejoin="round"/>
<path d="M222.582 204.157C222.582 204.801 222.118 205.324 221.545 205.324C220.973 205.324 220.509 204.801 220.509 204.157C220.509 203.513 220.973 202.991 221.545 202.991C222.118 202.991 222.582 203.513 222.582 204.157Z" fill="white" stroke="black" stroke-width="3" stroke-linecap="round" stroke-linejoin="round"/>
<path fill-rule="evenodd" clip-rule="evenodd" d="M213.779 151.425C251.379 151.499 251.545 151.574 251.545 151.574C253.878 142.906 253.689 134.812 251.765 130.337C248.829 125.581 246.113 126.361 243.177 127.431C241.797 125.774 240.523 123.702 238.608 123.332C236.595 123.077 234.982 122.817 232.607 124.897C231.23 123.745 229.498 122.978 226.661 123.407C224.306 124.054 222.971 125.775 221.927 127.803C218.201 124.917 215.426 126.864 213.119 130.113C210.618 135.585 212.158 144.274 213.779 151.425Z" fill="#E20909" stroke="black" stroke-width="1.5"/>
<path fill-rule="evenodd" clip-rule="evenodd" d="M214.531 127.732C214.531 126.391 214.596 125.085 214.596 125.085C211.113 123.003 207.871 125.06 207.306 126.585C206.307 130.858 207.327 133.835 208.706 136.925L211.272 143.793L212.555 143.003C211.037 137.951 208.228 133.683 208.906 128.631C210.792 125.207 212.194 126.87 214.531 127.732Z" fill="#FCEF3C" stroke="black" stroke-width="1.5"/>
<path fill-rule="evenodd" clip-rule="evenodd" d="M213.628 162.101C213.628 154.12 213.628 154.12 213.628 154.12H251.665V162.179L213.628 162.101Z" fill="#FCEF3C" stroke="black" stroke-width="1.5"/>
<path fill-rule="evenodd" clip-rule="evenodd" d="M213.153 161.828C252.039 161.932 252.077 161.932 252.077 161.932C253.203 161.967 253.298 164.874 252.077 164.857L213.153 164.804C212.103 164.852 212.09 161.869 213.153 161.828Z" fill="#FCEF3C" stroke="black" stroke-width="1.5"/>
<path fill-rule="evenodd" clip-rule="evenodd" d="M213.153 151.143C252.039 151.248 252.077 151.248 252.077 151.248C253.203 151.283 253.298 154.189 252.077 154.172L213.153 154.12C212.103 154.167 212.09 151.185 213.153 151.143Z" fill="#FCEF3C" stroke="black" stroke-width="1.5"/>
<path fill-rule="evenodd" clip-rule="evenodd" d="M225.967 150.226C221.884 150.068 221.884 150.068 221.884 150.068C221.108 143.569 219.893 138.964 216.228 133.413C213.856 129.992 213.116 127.001 213.545 123.151C214.725 120.09 216.002 117.636 219.494 117.704C222.211 118.538 225.492 118.259 228.532 117.626C229.785 117.391 230.227 116.531 230.923 115.731L230.807 120.23C230.055 122.097 227.143 121.916 224.975 122.441H220.368C218.256 122.938 217.407 124.575 217.627 127.177C219.186 131.952 221.524 133.466 223.342 137.675C225.159 141.859 225.092 146.042 225.967 150.226Z" fill="#FCEF3C" stroke="black" stroke-width="1.5"/>
<path fill-rule="evenodd" clip-rule="evenodd" d="M250.608 128.371C250.608 127.029 250.93 125.723 250.93 125.723C254.413 123.641 257.654 125.699 258.219 127.223C259.452 130.865 258.199 134.474 256.82 137.564L254.254 144.431L252.971 143.642C254.488 138.59 257.584 133.777 256.555 129.357C254.67 125.933 252.946 127.509 250.608 128.371Z" fill="#FCEF3C" stroke="black" stroke-width="1.5"/>
<path fill-rule="evenodd" clip-rule="evenodd" d="M239.322 150.265C243.404 150.107 243.404 150.107 243.404 150.107C244.18 143.608 245.396 139.004 249.061 133.452C251.432 130.032 252.173 127.041 251.743 123.19C250.564 120.129 249.286 117.676 245.795 117.744C243.078 118.578 239.797 118.298 236.756 117.665C235.504 117.43 235.061 116.57 234.365 115.771L234.482 120.27C235.233 122.137 238.145 122.466 240.313 122.48H244.92C247.033 122.977 247.881 124.614 247.661 127.216C246.103 131.991 243.357 133.742 241.946 137.714C240.326 141.898 240.194 146.082 239.322 150.265Z" fill="#FCEF3C" stroke="black" stroke-width="1.5"/>
<path fill-rule="evenodd" clip-rule="evenodd" d="M229.058 150.897C236.055 150.739 236.055 150.739 236.055 150.739L235.997 144.503C235.643 140.295 237.119 135.189 236.872 130.531C236.778 123.559 235.569 120.507 234.773 116.007L230.69 115.928C229.1 120.219 228.736 125.34 228.358 130.452C227.937 135.373 229.717 140.293 229.291 145.213L229.058 150.897Z" fill="#FCEF3C" stroke="black" stroke-width="1.5"/>
<path fill-rule="evenodd" clip-rule="evenodd" d="M231.332 112.141C234.101 112.078 234.101 112.078 234.101 112.078L234.078 109.611C233.938 107.946 234.522 105.925 234.424 104.083C234.386 101.324 233.908 100.116 233.593 98.3358L231.978 98.3046C231.349 100.002 231.204 102.029 231.055 104.051C230.889 105.998 231.593 107.945 231.424 109.892L231.332 112.141Z" fill="#FCEF3C" stroke="black" stroke-width="1.5"/>
<path d="M237.063 112.958C237.063 114.521 236.601 116.021 235.777 117.127C234.954 118.232 233.837 118.853 232.673 118.853C231.508 118.853 230.392 118.232 229.568 117.127C228.745 116.021 228.282 114.521 228.282 112.958C228.282 111.394 228.745 109.895 229.568 108.789C230.392 107.684 231.508 107.062 232.673 107.062C233.837 107.062 234.954 107.684 235.777 108.789C236.601 109.895 237.063 111.394 237.063 112.958Z" fill="#FCEF3C" stroke="black" stroke-width="1.5" stroke-linejoin="round"/>
<path fill-rule="evenodd" clip-rule="evenodd" d="M213.556 151.122C251.616 151.201 251.616 151.201 251.616 151.201C252.182 148.867 252.701 146.491 253.717 144.564L252.9 144.09C252.211 146.69 251.272 148.83 250.098 149.858C249.069 150.078 248.787 147.942 248.172 146.855C247.71 148.331 247.34 150.006 246.129 149.858C243.003 149.326 244.824 145.446 244.786 142.825L244.085 142.746C243.443 145.324 243.289 148.416 241.342 149.621C239.704 150.185 238.909 147.898 238.19 145.354C237.962 147.539 237.338 149.242 235.563 149.542C233.032 149.788 232.829 145.524 232.994 142.667L232.469 142.588C232.259 146.887 231.621 149.388 229.667 149.779C227.654 149.959 227.365 147.092 227.332 145.591C227.339 147.525 225.593 149.758 224.18 149.779C220.99 149.388 221.613 144.283 221.203 142.193L220.619 142.351C220.581 145.397 221.173 149.367 219.393 149.858C217.663 150.066 217.716 147.861 216.883 146.855C216.433 147.959 216.331 149.377 215.015 149.7C213.24 148.732 212.81 145.468 212.155 143.221L211.454 143.695C212.385 146.17 213.378 148.646 213.556 151.122Z" fill="#FCEF3C" stroke="black" stroke-width="1.5" stroke-linejoin="round"/>
<path fill-rule="evenodd" clip-rule="evenodd" d="M254.673 140.826C253.277 144.348 253.277 144.348 253.277 144.348C252.575 143.947 251.758 146.6 250.541 146.709C249.676 146.761 250.131 142.616 250.433 141.37C250.705 139.654 251.228 136.885 251.855 137.703C252.267 139.111 252.723 140.128 253.277 140.281C253.774 139.397 253.275 138.514 252.955 137.63C252.464 136.924 252.763 135.988 252.902 135.487C253.426 133.579 253.896 133.903 254.86 133.671C256.319 133.535 255.463 137.199 255.075 138.32C255.72 136.436 256.971 134.228 257.703 135.464C258.477 136.771 255.232 140.704 254.673 140.826Z" fill="#FCEF3C" stroke="black" stroke-width="1.5"/>
<path d="M255.1 143.215C255.015 143.529 254.909 143.829 254.788 144.097C254.666 144.365 254.531 144.597 254.391 144.779C254.25 144.961 254.107 145.09 253.969 145.158C253.831 145.226 253.702 145.232 253.587 145.176C253.473 145.12 253.377 145.002 253.303 144.83C253.23 144.658 253.182 144.435 253.16 144.173C253.139 143.911 253.146 143.616 253.18 143.305C253.215 142.994 253.276 142.672 253.36 142.358C253.444 142.044 253.55 141.745 253.672 141.477C253.794 141.208 253.929 140.976 254.069 140.794C254.209 140.612 254.353 140.483 254.49 140.415C254.628 140.347 254.758 140.341 254.872 140.398C254.987 140.454 255.083 140.571 255.156 140.743C255.23 140.915 255.278 141.139 255.299 141.4C255.32 141.662 255.314 141.957 255.279 142.268C255.245 142.58 255.184 142.902 255.1 143.215Z" fill="#FCEF3C" stroke="black" stroke-width="1.5" stroke-linejoin="round"/>
<path fill-rule="evenodd" clip-rule="evenodd" d="M210.414 140.773C211.809 144.296 211.809 144.296 211.809 144.296C212.511 143.894 213.328 146.547 214.545 146.656C215.41 146.708 214.955 142.563 214.653 141.318C214.381 139.602 213.859 136.832 213.231 137.65C212.631 138.633 212.358 140.064 211.809 140.228C211.312 139.344 211.811 138.461 212.131 137.577C212.622 136.871 212.324 135.935 212.184 135.434C211.66 133.526 211.19 133.85 210.226 133.619C208.767 133.482 209.623 137.146 210.011 138.267C209.366 136.383 208.115 134.175 207.383 135.411C206.609 136.718 209.854 140.651 210.414 140.773Z" fill="#FCEF3C" stroke="black" stroke-width="1.5"/>
<path d="M209.987 143.162C210.071 143.476 210.177 143.776 210.298 144.045C210.42 144.313 210.555 144.545 210.696 144.728C210.836 144.91 210.979 145.039 211.117 145.107C211.255 145.175 211.385 145.181 211.499 145.125C211.614 145.069 211.71 144.951 211.783 144.779C211.857 144.607 211.905 144.383 211.926 144.121C211.947 143.86 211.94 143.564 211.906 143.253C211.872 142.941 211.811 142.619 211.726 142.305C211.642 141.991 211.536 141.692 211.414 141.423C211.292 141.154 211.158 140.922 211.017 140.74C210.877 140.558 210.733 140.429 210.595 140.361C210.457 140.293 210.328 140.287 210.213 140.343C210.099 140.399 210.003 140.517 209.929 140.689C209.856 140.861 209.807 141.085 209.786 141.346C209.765 141.608 209.772 141.903 209.806 142.215C209.841 142.527 209.902 142.849 209.987 143.162Z" fill="#FCEF3C" stroke="black" stroke-width="1.5" stroke-linejoin="round"/>
<path d="M253.345 142.326C251.457 142.391 251.505 142.391 251.505 142.391" stroke="black" stroke-width="1.5"/>
<path d="M254.314 140.294C254.072 136.623 254.072 136.623 254.072 136.623" stroke="black" stroke-width="1.5"/>
<path d="M211.895 142.326C213.299 141.605 213.299 141.605 213.299 141.605" stroke="black" stroke-width="1.5"/>
<path d="M210.636 140.294C210.829 135.902 210.829 135.902 210.829 135.902" stroke="black" stroke-width="1.5"/>
<path fill-rule="evenodd" clip-rule="evenodd" d="M243.854 143.047C242.577 145.061 241.26 145.438 240.5 144.73C241.234 141.895 240.129 142.003 239.544 141.277C239.245 140.862 239.331 140.447 239.544 140.032C239.824 138.466 241.178 138.928 240.561 137.213C240.314 136.84 240.586 136.734 240.852 136.361C242.331 135.147 242.728 137.502 243.612 138.393C242.363 136.517 242.219 134.514 242.692 133.149C243.303 132.37 244.66 132.045 244.677 133.346C245.26 134.251 245.212 135.823 244.774 138.131C244.252 135.83 245.432 133.748 246.13 133.412C246.755 132.58 248.739 134.33 248.358 134.591C248.966 136.003 246.691 137.491 245.791 138.721C246.796 137.471 247.903 137.339 249.035 137.475C250.051 138.385 248.181 138.764 248.212 139.835C247.984 140.787 249.625 140.238 249.617 142.326C249.899 142.971 248.772 141.749 247.437 145.472C246.998 147.781 245.061 144.262 244.726 142.522L243.854 143.047Z" fill="#FCEF3C" stroke="black" stroke-width="1.5"/>
<path d="M245.791 140.884C245.791 141.475 245.659 142.042 245.423 142.459C245.187 142.877 244.866 143.112 244.532 143.112C244.199 143.112 243.878 142.877 243.642 142.459C243.406 142.042 243.273 141.475 243.273 140.884C243.273 140.293 243.406 139.726 243.642 139.308C243.878 138.89 244.199 138.655 244.532 138.655C244.866 138.655 245.187 138.89 245.423 139.308C245.659 139.726 245.791 140.293 245.791 140.884Z" fill="#FCEF3C" stroke="black" stroke-width="1.5" stroke-linejoin="round"/>
<path d="M243.128 140.818C240.9 140.622 240.9 140.622 240.9 140.622" stroke="black" stroke-width="1.5"/>
<path d="M245.889 141.08C247.438 141.867 247.39 141.867 247.39 141.867" stroke="black" stroke-width="1.5"/>
<path fill-rule="evenodd" clip-rule="evenodd" d="M221.701 143.097C222.977 145.111 224.294 145.488 225.055 144.781C224.321 141.945 225.426 142.053 226.01 141.327C226.31 140.912 226.224 140.497 226.01 140.082C225.731 138.517 224.377 138.979 224.993 137.263C225.241 136.89 224.969 136.784 224.703 136.411C223.224 135.197 222.827 137.552 221.943 138.443C223.192 136.567 223.336 134.564 222.863 133.2C222.251 132.42 220.895 132.096 220.877 133.396C220.295 134.301 220.343 135.873 220.781 138.181C221.303 135.88 220.123 133.798 219.425 133.462C218.8 132.631 216.815 134.38 217.197 134.642C216.589 136.053 218.864 137.542 219.764 138.771C218.759 137.522 217.652 137.389 216.519 137.526C215.504 138.435 217.374 138.815 217.343 139.885C217.571 140.837 215.93 140.289 215.938 142.376C215.656 143.021 216.783 141.799 218.117 145.522C218.557 147.831 220.494 144.312 220.829 142.572L221.701 143.097Z" fill="#FCEF3C" stroke="black" stroke-width="1.5"/>
<path d="M219.764 140.934C219.764 141.227 219.796 141.516 219.859 141.787C219.923 142.057 220.015 142.303 220.132 142.51C220.249 142.717 220.388 142.882 220.541 142.994C220.694 143.106 220.857 143.163 221.023 143.163C221.188 143.163 221.352 143.106 221.505 142.994C221.657 142.882 221.796 142.717 221.913 142.51C222.03 142.303 222.123 142.057 222.186 141.787C222.249 141.516 222.282 141.227 222.282 140.934C222.282 140.641 222.249 140.351 222.186 140.081C222.123 139.81 222.03 139.564 221.913 139.357C221.796 139.15 221.657 138.986 221.505 138.874C221.352 138.762 221.188 138.704 221.023 138.704C220.857 138.704 220.694 138.762 220.541 138.874C220.388 138.986 220.249 139.15 220.132 139.357C220.015 139.564 219.923 139.81 219.859 140.081C219.796 140.351 219.764 140.641 219.764 140.934Z" fill="#FCEF3C" stroke="black" stroke-width="1.5" stroke-linejoin="round"/>
<path d="M222.427 140.868C224.654 140.672 224.654 140.672 224.654 140.672" stroke="black" stroke-width="1.5"/>
<path d="M219.667 141.13C218.118 141.917 218.166 141.917 218.166 141.917" stroke="black" stroke-width="1.5"/>
<path fill-rule="evenodd" clip-rule="evenodd" d="M233.151 142.164C231.982 142.164 231.982 142.164 231.982 142.164C231.913 143.687 230.004 145.656 229.311 145.78C228.152 145.057 228.642 141.862 227.14 141.636C226.914 141.12 226.59 140.69 227.084 139.979C228.042 139.99 228.527 138.942 228.56 138.096C228.224 137.054 227.687 137.257 227.624 136.656C227.706 135.662 228.07 135.035 229.533 135.76L231.704 138.472L230.145 136.062C229.235 134.329 229.05 132.943 229.867 131.391C230.225 131.323 230.205 130.744 231.092 131.391C231.528 133.323 231.958 135.358 232.539 134.555L232.594 137.493L232.483 134.48C233.916 133.717 233.102 131.926 233.874 131.542C234.628 131.101 235.007 131.338 235.321 131.692C236.051 133.408 235.053 134.147 235.377 135.685L233.819 138.246L235.377 135.836C235.795 136.367 237.053 135.291 237.603 136.363C238.02 137.29 236.678 137.323 236.824 138.246C236.815 139.941 238.493 138.868 238.605 140.883C238.273 142.47 236.854 141.887 236.657 143.294C236.719 144.952 236.364 144.914 236.156 145.478C234.707 145.784 233.886 143.991 233.151 142.164Z" fill="#FCEF3C" stroke="black" stroke-width="1.5"/>
<path d="M230.869 140.582C228.253 140.657 228.253 140.657 228.253 140.657" stroke="black" stroke-width="1.5"/>
<path d="M234.375 140.582C236.657 140.582 236.657 140.582 236.657 140.582" stroke="black" stroke-width="1.5"/>
<path d="M231.001 140.318C231.001 141.019 231.175 141.691 231.484 142.187C231.793 142.682 232.212 142.961 232.65 142.961C233.087 142.961 233.506 142.682 233.815 142.187C234.124 141.691 234.298 141.019 234.298 140.318C234.298 139.617 234.124 138.945 233.815 138.449C233.506 137.954 233.087 137.675 232.65 137.675C232.212 137.675 231.793 137.954 231.484 138.449C231.175 138.945 231.001 139.617 231.001 140.318Z" fill="#FCEF3C" stroke="black" stroke-width="1.5" stroke-linejoin="round"/>
<path d="M245.242 166.643C259.929 161.257 269.153 142.586 285.817 142.774C300.399 143.458 306.672 161.292 306.608 175.517C309.299 193.903 302.573 211.384 301.343 229.32C303.355 247.118 289.93 261.707 274.379 258.366C258.539 255.885 261.227 234.119 250.035 225.703" fill="#CCCCCC"/>
<path d="M245.242 166.643C259.929 161.257 269.153 142.586 285.817 142.774C300.399 143.458 306.672 161.292 306.608 175.517C309.299 193.903 302.573 211.384 301.343 229.32C303.355 247.118 289.93 261.707 274.379 258.366C258.539 255.885 261.227 234.119 250.035 225.703" stroke="black" stroke-width="3" stroke-linecap="round" stroke-linejoin="round"/>
</g>
</svg>
