<svg viewBox="0 0 640 480" fill="none" xmlns="http://www.w3.org/2000/svg"><g clip-path="url(#a)"><path d="M640 0H0v480h640V0Z" fill="#012169"/><mask id="b" style="mask-type:luminance" maskUnits="userSpaceOnUse" x="0" y="0" width="320" height="240"><path d="M320 0H0v240h320V0Z" fill="#fff"/></mask><g mask="url(#b)"><path d="m0 0 320 240Zm320 0L0 240Z" fill="#000"/><path d="m0 0 320 240m0-240L0 240" stroke="#fff" stroke-width="60"/></g><mask id="c" style="mask-type:luminance" maskUnits="userSpaceOnUse" x="0" y="0" width="320" height="240"><path d="M0 0v120h320v120L0 0Zm0 240h160V0h160L0 240Z" fill="#fff"/></mask><g mask="url(#c)"><path d="m0 0 320 240Zm320 0L0 240Z" fill="#000"/><path d="m0 0 320 240m0-240L0 240" stroke="#C8102E" stroke-width="40"/></g><path d="M0 120h320ZM160 0v240Z" fill="#000"/><path d="M0 120h320M160 0v240" stroke="#fff" stroke-width="100"/><path d="M0 120h320ZM160 0v240Z" fill="#000"/><path d="M0 120h320M160 0v240" stroke="#C8102E" stroke-width="60"/><path d="M414.667 240v64c0 76.273 65.333 96 65.333 96s65.333-19.727 65.333-96v-64H414.667Z" fill="#0F4B32"/><path d="M545.333 240H414.667v48h130.666v-48Z" fill="#fff"/><path d="M473.973 293.547v17.067h.747v74.293a5.269 5.269 0 0 0 5.28 5.28 5.269 5.269 0 0 0 5.28-5.28v-74.293h.747v-17.067h-12.054Z" fill="#F5C300" stroke="#000" stroke-width=".8"/><path d="M480 294.934c-27.933 0-55.866 22.532-55.866 22.532s20.309-10.959 55.866-10.959c35.86 0 55.866 10.959 55.866 10.959S507.933 294.934 480 294.934Z" fill="#F5C300" stroke="#000" stroke-width=".8"/><path fill-rule="evenodd" clip-rule="evenodd" d="M501.957 262.312s1.327-.944 1.699-1.632c.298-.55.516-1.487.523-2.175.006-.568-.182-1.326-.392-1.813-.284-.66-.818-1.596-1.307-1.959-1.058-.785-2.062-1.019-3.257-1.162-1.563-.188-4.011.279-5.578.401-1.336.105-3.189.681-4.508.368-.467-.111-.991-.31-1.247-.862-.213-.458-.22-1.297-.096-1.813s.357-1.099.626-1.495c.458-.674 1.241-1.371 1.826-1.818.684-.523 1.709-.946 2.484-1.088.895-.163 2.044-.106 2.943.005.81.101 1.974.343 2.749.684 1.348.594 2.91 2.16 4.182 3.017 1.27.855 2.888 2.242 4.289 2.686 1.101.349 2.675.298 3.764-.116.445-.169 1.938-1.069 2.371-1.032.341.03.871.675.871.675s.135-1.278-.165-1.577c-.284-.284-.775-.382-.775-.382s.565-.505.939-1.066c.435-.652.779-1.803.92-2.669.15-.916-.13-2.471-.13-2.471l-.724 1.374c-.269.511-.881.276-1.301.726-.729.78-1.123 1.721-1.123 1.721s-.089-.516-.142-.895c-.024-.171-.161-.537-.161-.537s-.587 1.897-1.187 2.287c-1.024.664-2.217.603-3.334.365-1.155-.247-3.192-1.536-4.195-1.99-1.456-.659-2.978-1.972-4.434-2.32-2.103-.503-4.605-.495-6.693.116-.77.225-2.273 1.017-2.928 1.624-.974.902-1.643 1.748-2.091 3.249-.25.836-.283 2.039-.084 2.9.198.856.591 1.667 1.163 2.089.842.621 2.139.931 3.092.884 1.033-.051 2.332-.362 3.358-.536.856-.145 1.733-.391 2.594-.464 1.077-.092 2.554-.271 3.597.116.607.225 1.413.753 1.84 1.392.191.286.379.794.385 1.184.006.428-.178 1.134-.468 1.322-.525.341-.659.432-1.239.418-.885-.021-1.648-.35-2.896-.779-.818-.282-1.996-.537-2.324-.613-1.936-.448-2.454-.384-4.417-.418-2.322-.04-3.814.221-6.124.557-1.91.278-5.811 1.379-7.729 1.253-1.088-.071-2.232-.805-3.313-.975-1.138-.178-2.763-.487-3.815.14-.939.559-1.486 2.543-2.409 3.341-.608.526-1.896 1.318-2.61 1.253-.97-.088-1.887-.749-2.711-1.392-1.785-1.393-3.437-3.304-5.357-4.289-.782-.401-3.377-1.837-3.377-1.837s-.213-1.481-.1-2.089c.125-.673.694-1.172.903-1.949.074-.274.105-.721 0-.974-.208-.504-.485-.804-.903-.836-.296-.022-.714.24-.904.557-.335.562.088 1.747-.301 2.089-.315.276-.936-.06-1.205-.418-.385-.513-.188-1.732-.501-2.367-.123-.249-.388-.517-.603-.557-.472-.088-.926.16-1.204.696-.177.339-.085.991 0 1.392.109.523.662 1.486.702 1.95.048.553-.025.499-.401.696-.485.254-.996-.709-1.506-.836-.338-.083-.98.058-1.205.418-.318.509-.333.884-.201 1.532.053.257.425.591.603.696.639.38 2.008.278 2.008.278s.322 1.345.2 1.95c-.098.491-.44.916-.502 1.531-.038.39-.109.849.101 1.114.199.251.534.541.803.557.324.019.634-.173.803-.557.174-.393.14-.69.402-.975.258-.281.76-.378 1.235-.079.405.254.811.893.811.893s-.43.701-.319 1.363c.103.61.471.933.52 1.556.039.502-.247 1.24-.247 1.24s.73-.231 1.021-.595c.28-.35.168-1.061.492-1.328.233-.192.602.013.602.013s-.222.854-.137 1.39c.047.294.414 1.096.439 1.395.029.355-.101 1.114-.101 1.114s.836-.24 1.105-.557c.235-.279.455-1.532.455-1.532s.779 1.325 1.151 1.671c.581.542 1.002 1.169 1.204 1.949.187.718-.085 1.16-.401 1.671-.571.924-1.608 1.316-2.409 1.81-.779.481-1.77 1.308-2.41 2.089a30.914 30.914 0 0 1-1.006 1.121l-.844.028s.124-1.596-.026-2.149a1.28 1.28 0 0 0-.62-.778c-.311-.159-.414-.146-.734-.028-.235.086-.477.166-.58.471-.221.653.055 2.452.055 2.452s-1.8-.558-2.543-.303c-.205.07-.486.275-.592.528-.152.362-.154.998-.055 1.392.071.282.281.621.477.744.605.377 1.614.377 1.614.377s.367.594.217.779c-.305.373-1.143.829-1.445 1.412-.177.343-.304.8-.226 1.208.075.393.371.884.648 1.016.34.163.665-.131.994-.332.69-.419 1.597-1.774 1.597-1.774s.768-.422.788-.048c.013.257.393 1.291.489 1.453a.86.86 0 0 0 .839.442c.124-.007.406-.068.568-.305.19-.279.15-.786.171-1.065.044-.602-.087-1.35-.087-1.35s1.693.279 2.409.139c.755-.148 1.487-.852 2.249-.878.781-.026 2.67-.082 2.67-.082s-.19-1.304-.637-1.732c-.33-.317.085-.836.703-.557.446.201.745.695 1.117 1.091.341.363 1.806.146 1.806.146s-.879-1.233-.751-1.797c.198-.873.506-1.05 1.286-1.21.399-.082.923.399 1.295.618.412.244 1.606.279 1.606.279s-.811-1.514-.703-2.228c.102-.665.788-1.174 1.205-1.531 1.509-1.293 3.187-2.316 4.919-2.84 1.357-.411 3.584-.306 4.919-.835 1.004-.399 1.994-1.54 3.456-2.532 1.838-1.248 3.772-1.924 3.772-1.924s.997-.249 1.429-.273c.268-.014.89.071.89.071s-.549.178-1.014.743c-.401.487-.695 1.351-1.06 1.588-.243.158-.625.6-1.043.718-.649.183-1.334.004-1.334.004s.396.669.752 1.043c.461.485.679.719 1.254.817.357.062 1.386.474 1.386.474s-.26 2.722-.737 3.646c-.356.692-.594 1.369-1.183 1.605-.42.169-.919-.217-1.591-.372-.587-.135-1.383-.033-1.383-.033s-.03-1.779-.14-2.658c-.032-.252-.156-.604-.316-.729-.494-.389-1.045-.335-1.546.037-.2.148-.392.562-.42.875-.071.783.633 3.171.633 3.171s-.099.477-.261.419c-.481-.174-1.513-1.01-2.1-.759-.292.125-.565.311-.708.686-.192.503-.194.785-.105 1.341.064.402.162.707.42.912.605.481 2.364.319 2.364.319s.303.294.159.51c-.411.615-1.615 1.751-1.706 2.592-.036.33-.047.324.115.57.266.406.475.822.867.899.288.056.52-.062.759-.292.525-.506 1.056-1.852 1.711-2.107.251-.097.724.162.724.162s-.308 1.888-.105 2.625c.064.231.256.489.421.584.35.201.583.296.912.034.188-.15.309-.575.364-.866.112-.595-.027-2.049-.027-2.049l2.132-.143s.622-.17.746.023c.237.371-.172 1.503-.172 1.503s.601-.326 1.183-.818c.506-.426.99-.995 1.139-1.359.23-.563.559-1.459.559-1.459s.185.616.216.897c.038.337.038.914.038.914s.36-.301.657-.732c.03-.043 1.331-1.844 2.221-4.25.986-2.663 1.568-5.955 1.568-5.955s-.46.39-.798-.013c-.527-.627-.326-2.793-.326-2.793s1.743-.369 2.419 0c.602.329 1.048 1.524 1.577 2.042.726.711 1.803 1.44 2.629 1.896.427.236 1.114.186 1.473.583.367.407.635 1.276.751 1.907.031.17.04.418 0 .584-.136.558-.856 1.562-.856 1.562s1.13.227 1.579.016c.541-.253 1.465-1.563 1.465-1.563s2.504-.436 3.682-.26c.476.071.724.046 1.015.573.322.583.242 1.795 0 2.449-.247.668-.441.841-.977.938-.598.108-1.363-.296-1.841-.469-.295-.107-.552-.13-.827.052a.584.584 0 0 0-.187.215c-.104.195-.145.461-.188.723-.051.311-.009.811.15 1.042.385.56 1.841.573 1.841.573s.252.301.011.642c-.307.437-1.134.973-1.251 1.39-.098.35-.307.758-.188 1.095.104.291.226.689.451.781.26.106.656.107.902-.052.603-.39 1.831-2.274 1.831-2.274s.494.125.611.346c.315.594-.025 1.787.15 2.449.091.347.283.474.526.625.227.142.54.079.751-.104.202-.174.363-.251.414-.573.098-.631-.291-1.527-.038-2.136.124-.298.467-.545.714-.574.515-.06 1.176.503 1.653.626.326.083.529.13.789-.157.182-.2.348-.674.301-.99-.07-.465-.145-.567-.451-.781-.347-.244-1.428-1.094-1.428-1.094s-.049-1.33.078-1.86c.167-.699.762-1.465.974-2.048.274-.755.402-2.762.402-2.762s-.478.363-.751.416c-.242.047-.618-.061-.618-.061s.667-.833 1.022-1.75c.205-.53.225-1.98.225-1.98s-1.392.839-2.029.99c-.566.134-.84-.012-1.369-.325-.748-.441-1.021-.998-1.762-1.464-.863-.544-3.064-1.102-3.936-1.616-.945-.557-1.827-3.095-1.827-3.095Z" fill="#CE0F25"/><path fill-rule="evenodd" clip-rule="evenodd" d="M464.687 263.78s1.109.557 1.603.537c.971-.039 2.252-.64 3.097-1.304.624-.49 1.098-1.879 1.77-2.224.591-.304 1.476-.042 2.101.077 1.017.192 2.3.976 3.318 1.15.922.157 2.175.161 3.097 0 1.325-.232 3.017-1.087 4.313-1.534 1.309-.451 3.045-.889 4.369-1.074 1.338-.186 3.136-.211 4.479-.153 1.149.049 2.676.258 3.816.46 1.185.21 3.927.92 3.927.92l.774-.69-1.383-.077-2.986-.92-3.263-.613-2.654-.077-3.539.077-2.489.46-2.599.46-2.82.537-1.881.153-1.105.077-2.268-.844-2.654-.46-1.327.153-1.217.997-.995 2.071s-1.044 1.119-1.494 1.381c-.606.352-1.99.46-1.99.46Z" fill="#E91A00"/><path fill-rule="evenodd" clip-rule="evenodd" d="M488.458 260.635s2.113-.257 2.991 0c.846.248 1.943.9 2.636 1.617.658.679 1.246 2.013 1.774 2.883.46.755 1.005 1.85 1.521 2.531.607.799 2.231 2.32 2.231 2.32l.05.141-1.064-.563-2.281-1.476-1.166-1.688-1.369-1.336s-.648-1.357-1.014-1.828a7.287 7.287 0 0 0-1.622-1.476c-.763-.494-2.687-1.125-2.687-1.125ZM500.219 274.205s.888.369 1.267.281c.255-.059.553-.349.761-.562.294-.302.68-.755.862-1.196.21-.51.353-1.31.355-1.898.002-.435-.07-1.054-.254-1.406-.169-.322-.811-.703-.811-.703s.275.998.304 1.336c.032.379-.074.955-.101 1.335-.03.419-.248.626-.406.985-.123.28-.364.585-.557.773-.413.401-1.42 1.055-1.42 1.055Z" fill="#A60000"/><path fill-rule="evenodd" clip-rule="evenodd" d="m501.779 262.302 1.425 2.617.881.697 2.054.756 1.384.408 1.845 1.628 1.216.407 1.09-.291 1.006-.581s-.377.936-.629 1.221c-.384.434-1.02.816-1.509.93-.436.102-1.062.067-1.468-.174-.54-.322-.959-1.393-1.467-1.803-.506-.408-1.279-.672-1.845-.872-.643-.228-1.584-.119-2.18-.524-.505-.341-1.104-1.07-1.384-1.744-.296-.711-.419-2.675-.419-2.675Z" fill="#E91A00"/><path fill-rule="evenodd" clip-rule="evenodd" d="m507.601 251.196.872-.521.513-.508 1.04-.343.495-.618.643-1.648.396 1.099.99-1.511 1.287-.549.841-1.578.149 1.235v1.236l-.297 1.167-.347 1.029-.693 1.099-.495.343.891.686.05 1.442-.941-.755-.594.137-.891.549-1.029.419-1.442-.261s1.15-.239 1.612-.462c.521-.25 1.602-1.138 1.602-1.138s-.817.51-1.191.612c-.271.074-.92.043-.92.043s.675-.359.939-.582c.332-.282 1.045-.909 1.63-1.824.523-.816.66-1.461.66-1.461s-1.183 1.521-1.491 1.701c-.308.179-.965.826-1.377 1.286-.197.221-.506.173-.506.173s.239-.224.415-.555c.221-.414.564-.883.568-1.14.003-.166-.063-.518-.063-.518s-.238.581-.396.755c-.329.362-.881.614-1.287.755-.477.166-1.633.206-1.633.206Z" fill="#A60000"/><path fill-rule="evenodd" clip-rule="evenodd" d="M452.562 275.948s1.01-2.017 1.504-2.524c.432-.443 1.615-1.081 1.615-1.081l1.671-1.004 1.113-1.081.635-.987s1.085-1.959 2.261-2.489c.621-.279 3.453-.695 3.453-.695s-2.789 2.595-3.898 3.862c-.657.75-1.323 1.696-2.061 2.285-.467.373-2.032 1.245-3.507 1.985-.637.32-1.474 1.11-1.895 1.459-.528.436-.891.27-.891.27ZM464.424 263.692l-2.395-1.313-3.007-2.858-2.896-1.853-2.673-1.391s.232.741.39 1.004c.494.824 1.224 1.719 2.005 2.24.805.538 1.954.543 2.729 1.159.841.669 1.897 2.296 2.84 2.78.94.484 3.007.232 3.007.232Z" fill="#E91A00"/><path fill-rule="evenodd" clip-rule="evenodd" d="M458.855 268.713s-.41-2.149-.779-2.935c-.381-.81-1.005-1.644-1.671-1.931a.317.317 0 0 0-.334.077c-.281.334-.313.812-.39 1.313-.035.228.04.581-.056.773-.127.256-.668.463-.668.463l-.223.85 1.17-.695.445-1.622.891 1.313 1.003 1.313.612 1.081ZM452.451 265.161l1.114-.541.278-1.236.446-.232h.278s-.051-.755-.223-.926c-.162-.163-.485-.114-.668 0-.164.102-.248.623-.415.911-.205.356-.476.479-.476.479l-.334 1.545ZM472.522 268.791s-1.264-.004-1.795.122c-.672.16-1.54.566-2.177.904-.448.239-1.024.636-1.448.951-.542.403-1.349.828-1.759 1.464-.229.354-.187 1.183-.475 1.44-.44.392-1.257-.269-1.742 0-.528.292-.843 1.524-1.373 1.806-.547.291-1.382-.254-1.953-.073-.741.234-1.227 1.068-1.879 1.61-.606.504-1.378.82-1.84 1.288-.322.325-2.676 1.243-2.676 1.243l2.401.105 1.619-.732 1.671-.098 1.461-.049-.247-1.147-.492-.805.176-.366h.721l1.144 1.171 1.742.098-.757-1.537.07-.879.493-.488.827-.195.845.488.968.293 1.055.268-.756-1.562-.035-.805.281-.732 1.672-1.391 1.707-1.245 1.39-.683 1.161-.464Z" fill="#A60000"/><path fill-rule="evenodd" clip-rule="evenodd" d="m469.192 270.53 2.844-1.464 1.514-.381 2.294-.255 1.193-.254 2.11-1.209 2.11-1.718 1.973-1.082 1.835-.763h1.56s-2.02-.434-2.891-.382c-.685.041-1.67.548-2.367.793-.697.246-1.085.633-1.669 1.027-.584.393-1.705 1.44-2.19 1.786-.38.271-.912.588-1.331.7-.757.202-1.965.077-2.728.229-.72.144-1.501.364-2.18.725-.719.382-1.815.941-2.453 1.536-.243.226-.495.394-.495.394l.871.318ZM452.747 260.969l-.983-.959-.759-.093-.535.309-.335.682-.29.65-.626.062c-.372-.037-.536-.305-.714-.558l-.067-1.021s.346.597.558.712c.175.094.445.108.603-.031.225-.198.215-.82.402-1.084.209-.297.512-.555.804-.65.293-.096.812-.119 1.093.031.169.089.354.343.447.557.078.182.244.462.324.761.082.307.078.632.078.632ZM448.862 258.74s.563-.268.67-.557c.231-.621.087-1.694-.134-2.322-.048-.136-.161-.31-.268-.341-.16-.046-.352.216-.513.248-.372.073-.88-.005-1.25-.093a3.615 3.615 0 0 1-.916-.372c-.135-.08-.424-.34-.424-.34l.156.867.759.588 1.697.186.29 1.053.045.743-.112.34Z" fill="#A60000"/><path fill-rule="evenodd" clip-rule="evenodd" d="M446.295 254.281s.505-.032.737-.031c.218.002.509.082.714.186.217.11.524.526.781.496.063-.008.367.089.52.024.225-.097.306-.365.306-.365-.127.271-1.451-.543-1.763-.96-.22-.293-1.314.423-1.314.423l.019.227ZM448.84 250.225l.647-.557.759.248.38.65s.116 1.15.246 1.61c.062.221.154.536.29.681.193.207.537.306.781.31.132.002.343-.012.424-.155.191-.336.023-1.424.023-1.424l.29-.867.937-.248.715.65.089 1.146s-.263-.697-.469-.836c-.228-.155-.639-.202-.848 0-.158.153-.156.585-.223.836-.093.344-.098.923-.29 1.176a.698.698 0 0 1-.469.279c-.235.032-.653 0-.871-.124-.181-.103-.387-.196-.536-.371-.166-.196-.428-.666-.535-.929-.135-.33-.033-.918-.179-1.239-.107-.235-.337-.514-.536-.557-.161-.035-.375.127-.513.248-.153.132-.356.44-.356.44-.042-.35.067-.666.244-.967Z" fill="#E91A00"/><path fill-rule="evenodd" clip-rule="evenodd" d="M453.392 254.618s-.619-.404-.906-.457c-.393-.073-.935.008-1.317.152-.238.09-.48.339-.632.61-.206.368-.324.943-.329 1.408-.004.278.11.914.11.914s.14-.858.219-1.142c.103-.367.097-.46.33-.685.253-.245.789-.538 1.098-.533.36.005.718.111.988.304.207.149.577.724.577.724l-.138-1.295Z" fill="#A60000"/><path fill-rule="evenodd" clip-rule="evenodd" d="m452.912 275.093-.538.275-.764-.04.057-1.609-.141-.824-.651-.549-.538-.039-.651.392-.028.824s.54-.375.792-.392c.21-.014.537.021.679.235.175.263.128.82.142 1.178.017.423-.264 1.1-.057 1.412.225.338.802.234 1.132.197.224-.026.849-.393.849-.393l-.283-.667ZM449.998 275.642l-1.613-.706-1.189.039-.509.392-.227.471.057.942.481.942.623.275s-.467-.77-.51-1.178c-.028-.277.026-.707.17-.902.162-.219.512-.186.736-.236.564-.124 1.981-.039 1.981-.039Z" fill="#E91A00"/><path fill-rule="evenodd" clip-rule="evenodd" d="M452.969 279.253s.026.941-.029 1.334c-.032.234-.057.61-.198.746-.146.141-.442.129-.594 0-.269-.228-.265-.978-.481-1.295-.115-.169-.318-.342-.481-.393-.283-.088-.691-.022-.962.118-.393.204-.773.836-1.132 1.138-.276.232-.644.592-.962.667-.27.064-.906-.157-.906-.157l.51 1.021.509.157 1.132-.864 1.132-1.334.736-.039.622 1.727.481.235.736-.314.339-.824-.198-1.766-.254-.157ZM451.668 275.355h.618s-.867.546-1.206.857c-.231.211-.569.485-.707.816-.13.313-.162.824-.147 1.184.009.217.147.694.147.694s-.408-.302-.5-.531c-.169-.418-.222-1.134-.118-1.591.11-.48.503-.966.795-1.266.295-.303 1.118-.694 1.118-.694v.531ZM494.589 265.886l-2-1.683-2.713-.941s1.021 3.661 1.062 4.506c.013.259 1.218.91.905 2.922-.2 1.278-.575 3.032-1.139 4.272-.372.819-.983 1.413-1.121 1.501-.435.276-1.224-.58-1.671-.341-.88.47-.33 2.073-1.233 2.446-.177.073-.356.256-.536.198-1.056-.344-2.752-.471-3.587.491-.367.423.033 1.38-.392 1.683-.139.099-.282.091-.357-.099-.221-.555.252-1.5 0-2.03-.25-.524-.767-.246-1.214-.149-.559.122-1.158 1.377-1.714 1.238-.119-.029-.289-.228-.286-.396.012-.557.836-.729 1-1.238.109-.339.145-.925 0-1.238-.21-.452-.8-.623-1.178-.743-.47-.148-1.157.192-1.607-.049-.305-.163-.821-.99-.821-.99v1.039l.357.842 2.356.248.286.347-1.678 2.178-.143.892.821 1.089.821-.049 1.714-2.328.786.099-.107 2.575.428.694.786.099.571-.694v-2.327l2.785-.099.178.198-.285 1.238 1.571-1.139.785-.842.464-1.337.357 1.684 1.964-3.169 1.25-3.021 1.357-5.249-.536.495-.535-.198-.286-1.882.071-.941 1.177-.007 1.287.205Z" fill="#A60000"/><path fill-rule="evenodd" clip-rule="evenodd" d="M485.962 268.978s.104-.068.042-.349c-.037-.169-.259-.538-.513-.736-.285-.223-.612-.266-.766-.282-.239-.024-.491.081-.728.027-.395-.09-1.43-1.061-1.43-1.061l.983 1.576 1.413.213.999.612Z" fill="#A60000"/><path fill-rule="evenodd" clip-rule="evenodd" d="m485.853 268.877-.676 3.407-.89 1.619-.553.255-1.351-.468h-1.474l-.215-2.939-.645-.767-.768.085-.614.512-.184 1.149s.546-.625.86-.766c.237-.106.383-.119.583.085.148.151.337.473.369.724.106.831 0 2.726 0 2.726s1.102.022 1.443.042c.465.028 1.077.189 1.536.299.315.075.73.384 1.044.298.371-.102.718-.227.952-.639.292-.515.45-1.374.583-2.002.123-.577.264-1.912.246-2.513-.011-.347-.246-1.107-.246-1.107Z" fill="#E91A00"/><path fill-rule="evenodd" clip-rule="evenodd" d="M480.837 273.763s-.398.692-.516 1.021a4.94 4.94 0 0 0-.241 1.063c-.034.354.01.845.172 1.144.187.346.558.56.895.654.402.113.935.286.935.286s-.343-.526-.659-.694c-.22-.117-.561-.248-.689-.491-.131-.251-.104-.688-.069-.981.041-.338.175-.786.345-1.062.203-.332.895-.859.895-.859l-1.068-.081ZM512.849 271.687s-.47 1.258-.729 1.746c-.2.377-.719.795-.895 1.194-.209.477-.393 1.197-.463 1.746-.075.584-.238 1.483 0 1.976.275.57 1.072.667 1.424 1.149.108.147.152.331.033.321-.499-.041-1.257-.525-1.756-.459-.228.03-.537.145-.728.321-.218.201-.366.768-.464 1.103-.106.358.207 1.209-.066 1.287-.405.115-.243-1.564-.53-1.976-.269-.386-.841-.643-1.226-.597-.331.039-.588.704-.862.965-.378.359-.878.914-1.325 1.056-.281.09-.961-.092-.961-.092l.464 1.103.862.046 1.888-2.251.696.321.132 2.482.63.643h.43l.663-.689-.199-1.884.232-.506.629-.413.663.184 1.325.551.497-.46.298-.643-.265-.689-1.59-1.378-.132-1.792.762-1.379.463-1.011.1-1.975ZM507.879 275.914s.236-.129.416-.484c.079-.156.232-.427.265-.547.126-.453.159-1.265.048-1.725-.073-.306-.341-.852-.53-1.039-.213-.213-.688-.311-.947-.365-.602-.125-2.986.013-4.067.256-.647.146-.144.552-.144.552-3.274.686 3.616-.481 4.529.136.259.176.545.627.629 1.011.139.638-.199 2.205-.199 2.205Z" fill="#A60000"/><path fill-rule="evenodd" clip-rule="evenodd" d="M507.747 276.098s-.108.742-.573 1.077c-.264.189-.68.259-.819.301-.408.125-1.187-.676-1.656-.367-.291.192-.828 1.011-.828 1.011l-.066-1.149.364-.827.629-.23 1.624.597 1.325-.413ZM506.478 250.059s-1.301.252-1.854.075c-1.017-.326-2.272-1.223-3.243-1.756-.854-.47-1.954-1.255-2.841-1.585-.633-.236-1.509-.353-2.162-.429-.748-.086-1.752-.154-2.501-.085-.946.087-2.216.289-3.12.685-.462.203-1.028.657-1.451.985-.469.364-1.11.835-1.513 1.328-.361.441-.747 1.165-1.02 1.713-.169.341-.523.911-.523.911l.678-2.367 1.945-2.27 3.058-1.242 3.582-.557 3.151.685 3.675 2.056 4.263 1.853h-.124ZM489.111 254.581s.724.669 1.081.771c.391.111.93-.078 1.328-.129 1.152-.145 2.678-.456 3.83-.599.693-.087 1.62-.203 2.316-.214.649-.011 1.52-.003 2.162.128.596.121 1.384.385 1.945.685.333.178 1.23 1.291 1.483.943.215-.296-.658-1.155-.896-1.414-.562-.611-1.607-.647-2.316-.771-.644-.112-1.513-.06-2.162-.043-.696.019-1.621.133-2.316.172-.713.039-1.666.021-2.378.085-.8.073-1.856.328-2.656.386-.426.031-1.421 0-1.421 0Z" fill="#E91A00"/><path fill-rule="evenodd" clip-rule="evenodd" d="M507.743 275.485s.217.898.422 1.156c.154.195.441.279.642.342.285.089.684.177.972.105.172-.043.532-.342.532-.342s-.333.704-.55.867c-.251.189-.653.215-.936.184-.252-.027-.578-.189-.807-.341-.317-.211-.973-.92-.973-.92l.441-.394.257-.657Z" fill="#A60000"/><path fill-rule="evenodd" clip-rule="evenodd" d="M482.755 266.664s.915.244 1.312.237c.334-.005.674-.204.969-.422.082-.06.423-.572.789-1.202.495-.855 1.169-1.698 1.169-1.698h.038l-.608.106-.97 1.001-.342.791-1.007.897-1.35.29Z" fill="#E91A00"/><path d="M501.957 262.312s1.327-.944 1.699-1.632c.298-.55.516-1.487.523-2.175.006-.568-.182-1.326-.392-1.813-.284-.66-.818-1.596-1.307-1.959-1.058-.785-2.062-1.019-3.257-1.162-1.563-.188-4.011.279-5.578.401-1.336.105-3.189.681-4.508.368-.467-.111-.991-.31-1.247-.862-.213-.458-.22-1.297-.096-1.813s.357-1.099.626-1.495c.458-.674 1.241-1.371 1.826-1.818.684-.523 1.709-.946 2.484-1.088.895-.163 2.044-.106 2.943.005.81.101 1.974.343 2.749.684 1.348.594 2.91 2.16 4.182 3.017 1.27.855 2.888 2.242 4.289 2.686 1.101.349 2.675.298 3.764-.116.445-.169 1.938-1.069 2.371-1.032.341.03.871.675.871.675s.135-1.278-.165-1.577c-.284-.284-.775-.382-.775-.382s.565-.505.939-1.066c.435-.652.779-1.803.92-2.669.15-.916-.13-2.471-.13-2.471l-.724 1.374c-.269.511-.881.276-1.301.726-.729.78-1.123 1.721-1.123 1.721s-.089-.516-.142-.895c-.024-.171-.161-.537-.161-.537s-.587 1.897-1.187 2.287c-1.024.664-2.217.603-3.334.365-1.155-.247-3.192-1.536-4.195-1.99-1.456-.659-2.978-1.972-4.434-2.32-2.103-.503-4.605-.495-6.693.116-.77.225-2.273 1.017-2.928 1.624-.974.902-1.643 1.748-2.091 3.249-.25.836-.283 2.039-.084 2.9.198.856.591 1.667 1.163 2.089.842.621 2.139.931 3.092.884 1.033-.051 2.332-.362 3.358-.536.856-.145 1.733-.391 2.594-.464 1.077-.092 2.554-.271 3.597.116.607.225 1.413.753 1.84 1.392.191.286.379.794.385 1.184.006.428-.178 1.134-.468 1.322-.525.341-.659.432-1.239.418-.885-.021-1.648-.35-2.896-.779-.818-.282-1.996-.537-2.324-.613-1.936-.448-2.454-.384-4.417-.418-2.322-.04-3.814.221-6.124.557-1.91.278-5.811 1.379-7.729 1.253-1.088-.071-2.232-.805-3.313-.975-1.138-.178-2.763-.487-3.815.14-.939.559-1.486 2.543-2.409 3.341-.608.526-1.896 1.318-2.61 1.253-.97-.088-1.887-.749-2.711-1.392-1.785-1.393-3.437-3.304-5.357-4.289-.782-.401-3.377-1.837-3.377-1.837s-.213-1.481-.1-2.089c.125-.673.694-1.172.903-1.949.074-.274.105-.721 0-.974-.208-.504-.485-.804-.903-.836-.296-.022-.714.24-.904.557-.335.562.088 1.747-.301 2.089-.315.276-.936-.06-1.205-.418-.385-.513-.188-1.732-.501-2.367-.123-.249-.388-.517-.603-.557-.472-.088-.926.16-1.204.696-.177.339-.085.991 0 1.392.109.523.662 1.486.702 1.95.048.553-.025.499-.401.696-.485.254-.996-.709-1.506-.836-.338-.083-.98.058-1.205.418-.318.509-.333.884-.201 1.532.053.257.425.591.603.696.639.38 2.008.278 2.008.278s.322 1.345.2 1.95c-.098.491-.44.916-.502 1.531-.038.39-.109.849.101 1.114.199.251.534.541.803.557.324.019.634-.173.803-.557.174-.393.14-.69.402-.975.258-.281.76-.378 1.235-.079.405.254.811.893.811.893s-.43.701-.319 1.363c.103.61.471.933.52 1.556.039.502-.247 1.24-.247 1.24s.73-.231 1.021-.595c.28-.35.168-1.061.492-1.328.233-.192.602.013.602.013s-.222.854-.137 1.39c.047.294.414 1.096.439 1.395.029.355-.101 1.114-.101 1.114s.836-.24 1.105-.557c.235-.279.455-1.532.455-1.532s.779 1.325 1.151 1.671c.307.287 1.061.987 1.294 2.093.145.684 4.221-3.844 4.316-3.476.187.717-3.023 1.807-4.807 5.003-.541.968-1.608 1.316-2.409 1.81-.779.481-1.77 1.308-2.41 2.089-.321.392-1.034 1.081-1.034 1.081l-.845.029s.125-1.596-.025-2.149a1.275 1.275 0 0 0-.621-.778c-.31-.16-.414-.147-.734-.029-.234.087-.476.167-.579.472-.221.653.054 2.452.054 2.452s-1.799-.559-2.542-.304c-.205.071-.486.276-.593.529-.151.362-.154.997-.054 1.392.071.282.28.621.476.743.605.378 1.615.378 1.615.378s.395.633.245.818c-.305.373-1.143.829-1.445 1.412-.177.343-.304.8-.226 1.208.075.393.371.884.648 1.016.34.163.665-.131.994-.332.69-.419 1.597-1.774 1.597-1.774s.768-.422.788-.048c.013.257.393 1.291.489 1.453a.86.86 0 0 0 .839.442c.124-.007.406-.068.568-.305.19-.279.15-.786.171-1.065.044-.602-.087-1.35-.087-1.35s1.693.279 2.409.139c.755-.148 1.487-.852 2.249-.878.781-.026 2.67-.082 2.67-.082s-.19-1.304-.637-1.732c-.33-.317.085-.836.703-.557.446.201.745.695 1.117 1.091.341.363 1.806.146 1.806.146s-.879-1.233-.751-1.797c.198-.873.506-1.05 1.286-1.21.399-.082.923.399 1.295.618.412.244 1.606.279 1.606.279s-.811-1.514-.703-2.228c.102-.665.788-1.174 1.205-1.531 1.509-1.293 3.187-2.316 4.919-2.84.188-.057.392-.104.608-.144 1.347-.25 3.161-.235 4.311-.691 1.004-.399 1.994-1.54 3.456-2.532 1.838-1.248 3.772-1.924 3.772-1.924s.997-.249 1.429-.273c.268-.014.814-.008.814-.008s-.533.343-1.101 1.001c-.342.395-.601 1.217-.897 1.409-.253.164-.622.611-1.055.732-.633.175-1.108.089-1.108.089s.646 1.564 1.221 1.662c.16.028.72.007 1.092.085.458.096.865.488.865.488s-.26 2.722-.737 3.646c-.356.692-.594 1.369-1.183 1.605-.42.169-.919-.217-1.591-.372-.587-.135-1.383-.033-1.383-.033s-.03-1.779-.14-2.658c-.032-.252-.156-.604-.316-.729-.494-.389-1.045-.335-1.546.037-.2.148-.392.562-.42.875-.071.783.633 3.171.633 3.171s-.099.477-.261.419c-.481-.174-1.513-1.01-2.1-.759-.292.125-.565.311-.708.686-.192.503-.194.785-.105 1.341.064.402.162.707.42.912.605.481 2.364.319 2.364.319s.303.294.159.51c-.411.615-1.615 1.751-1.706 2.592-.036.33-.047.324.115.57.266.406.475.822.867.899.288.056.52-.062.759-.292.525-.506 1.056-1.852 1.711-2.107.251-.097.724.162.724.162s-.308 1.888-.105 2.625c.064.231.256.489.421.584.35.201.583.296.912.034.188-.15.309-.575.364-.866.112-.595-.027-2.049-.027-2.049l2.132-.143s.622-.17.746.023c.237.371-.172 1.503-.172 1.503s.601-.326 1.183-.818c.506-.426.99-.995 1.139-1.359.23-.563.559-1.459.559-1.459s.185.616.216.897c.038.337.038.914.038.914s.36-.301.657-.732c.03-.043 1.331-1.844 2.221-4.25.986-2.663 1.568-5.955 1.568-5.955s-.46.39-.798-.013c-.527-.627-.326-2.793-.326-2.793s1.743-.369 2.419 0c.602.329 1.048 1.524 1.577 2.042.726.711 1.803 1.44 2.629 1.896.427.236 1.114.186 1.473.583.367.407.635 1.276.751 1.907.031.17.04.418 0 .584-.136.558-.856 1.562-.856 1.562s1.13.227 1.579.016c.541-.253 1.465-1.563 1.465-1.563s2.504-.436 3.682-.26c.476.071.724.046 1.015.573.322.583.242 1.795 0 2.449-.247.668-.441.841-.977.938-.598.108-1.363-.296-1.841-.469-.295-.107-.552-.13-.827.052a.592.592 0 0 0-.187.215c-.104.195-.145.461-.188.723-.051.311-.009.811.15 1.042.385.56 1.841.573 1.841.573s.252.301.011.642c-.307.437-1.134.973-1.251 1.39-.098.35-.307.758-.188 1.095.104.291.226.689.451.781.26.106.656.107.902-.052.603-.39 1.831-2.274 1.831-2.274s.494.125.611.346c.315.594-.025 1.787.15 2.449.091.347.283.474.526.625.227.142.54.079.751-.104.202-.174.363-.251.414-.573.098-.631-.291-1.527-.038-2.136.124-.298.467-.545.714-.574.515-.06 1.176.503 1.653.626.326.083.529.13.789-.157.182-.2.348-.674.301-.99-.07-.465-.145-.567-.451-.781-.347-.244-1.428-1.094-1.428-1.094s-.049-1.33.078-1.86c.167-.699.762-1.465.974-2.048.274-.755.402-2.762.402-2.762s-.478.363-.751.416c-.242.047-.618-.061-.618-.061s.667-.833 1.022-1.75c.205-.53.225-1.98.225-1.98s-1.392.839-2.029.99c-.566.134-.84-.012-1.369-.325-.748-.441-1.021-.998-1.762-1.464-.863-.544-3.064-1.102-3.936-1.616-.945-.557-1.827-3.095-1.827-3.095Z" stroke="#780000" stroke-width=".3"/><path fill-rule="evenodd" clip-rule="evenodd" d="M491.724 263.921s-.057.996-.129 1.25c-.085.3-.106.393-.29.588a.63.63 0 0 1-.647.186c-.141-.034-.442-.385-.513-.557-.135-.325-.223-.619-.223-.619s-.721-.293-.982-.278c-.309.017-.546.025-.848.123-.264.086-1.004.434-1.004.434s.216-.704.622-1.109c.43-.429.664-.472.999-.538.612-.12 1.495.089 2.105.224.277.062.91.296.91.296Z" fill="#CE0F25" stroke="#780000" stroke-width=".3"/><path d="M494.825 266.022s-1.438-1.373-2.101-1.705a9.972 9.972 0 0 0-2.599-.844c-1.236-.198-3.716-.077-3.716-.077" stroke="#780000" stroke-width=".3"/><path fill-rule="evenodd" clip-rule="evenodd" d="M459.342 271.795c-.137.096-.259.22-.47.479-.212.26-.475.552-.619.669-.844.689-2.239 1.07-3.215 1.728-.266.179-.659.503-.996.791-.169.144-.392.446-.508.532l-.635.474s.8-.085.91-.181c.11-.096.267-.225.434-.368.334-.284.73-.611.964-.769.893-.602 2.301-.966 3.247-1.739.204-.166.457-.468.675-.735.098-.12.337-.374.475-.683.171-.38.235-.814.235-.814s-.341.506-.497.616Z" fill="#A60000"/><path fill-rule="evenodd" clip-rule="evenodd" d="M459.256 271.497c-.137.096-.259.22-.47.479-.212.259-.475.551-.619.669-.844.689-2.239 1.07-3.215 1.728-.266.179-.659.503-.996.791-.169.144-.433.383-.508.532l-.305.613s.47-.224.58-.32c.109-.097.267-.226.434-.368.334-.285.73-.611.964-.769.893-.602 2.301-.967 3.247-1.739.204-.166.43-.535.675-.736 1.687-1.378 2.986-3.538 2.986-3.538s-2.617 2.548-2.773 2.658Z" fill="#780000"/><path fill-rule="evenodd" clip-rule="evenodd" d="m458.466 263.98-2.923-2.271-.278-.167s.789 1.142 1.176 1.562c.414.451 1.494 1.319 1.494 1.319s.036.571.07.816c.037.27.142.622.284.805.181.234.511.495.786.46.337-.044.79-.452 1.022-.818a1.32 1.32 0 0 0 .183-.631c-.007-.27-.298-.756-.298-.756l-.257.952-.418.319-.316.165-.4-.338-.178-.506.053-.911Z" fill="#A60000"/><path fill-rule="evenodd" clip-rule="evenodd" d="M459.965 264.039s-.273.368-.271.52c.001.152-.019.341-.037.398.009-.028-.014.038-.053.101a1.608 1.608 0 0 1-.155.201c-.126.141-.275.25-.416.246-.137-.004-.261-.1-.348-.236a1.174 1.174 0 0 1-.142-.345 2.986 2.986 0 0 1 .019-.504c.021-.195.058-.266.053-.372a.34.34 0 0 0-.044-.17c-.191-.329-.725-.638-.892-.791a6.971 6.971 0 0 0-.531-.418c-.094-.068-.185-.126-.247-.17l-1.412-.842s1.152 1.213 1.213 1.256c.062.043.144.1.236.167.184.133.406.304.517.405.181.165.789.69.811.709 0 0-.025.013-.048.226-.024.213-.045.451-.015.656.022.151.083.337.204.524.122.188.308.363.564.37.269.008.504-.18.676-.372a2.28 2.28 0 0 0 .215-.283c.054-.088.092-.144.123-.238.067-.209.066-.42.064-.598a1.94 1.94 0 0 0-.084-.44Z" fill="#780000"/><path fill-rule="evenodd" clip-rule="evenodd" d="M459.785 263.757c-.158-.152-.391-.357-.615-.37-.157-.009-.552.203-.552.203s.493-.747.758-.799c.307-.06.608.318.734.608.093.216.035.887.035.887s-.227-.401-.36-.529Z" fill="#E91A00"/><path fill-rule="evenodd" clip-rule="evenodd" d="M454.122 257.702s.03.352.106.663c.051.212.149.414.174.439.062.06.147.138.249.234.203.191.466.43.699.613.916.719 2.188 1.215 3.046 1.861.758.57 1.628 1.643 2.392 2.192.107.077.254.178.373.203.056.011.213.072.375.027.211-.06.428-.231.428-.231l-.916-.385s-1.645-1.655-2.467-2.274c-.923-.694-2.199-1.196-3.046-1.861-.216-.17-.469-.393-.667-.58-.099-.094-.165-.256-.226-.315s-.52-.586-.52-.586Z" fill="#A60000"/><path fill-rule="evenodd" clip-rule="evenodd" d="M454.274 257.896s.182.588.244.649c.062.06.148.138.249.234.204.191.467.43.7.613.916.719 2.187 1.215 3.046 1.861.757.571 1.628 1.643 2.392 2.192.106.077.254.178.373.203.128.027.429-.042.429-.042l-.542-.547s-1.645-1.655-2.468-2.274c-.922-.694-2.198-1.196-3.045-1.861a10.55 10.55 0 0 1-.668-.58c-.099-.093-.246-.142-.307-.202-.061-.059-.403-.246-.403-.246Z" fill="#780000"/><path fill-rule="evenodd" clip-rule="evenodd" d="M472.113 266.653s1.496-.478 2.166-.58c.533-.081 1.293.222 1.816.058.606-.191 1.435-.776 1.869-1.394.167-.239.345-.872.164-1.09-.111-.132-.372.262-.696.676-.382.488-.78 1.028-.888.851-.231-.382.723-1.361.445-1.677-.443-.501-.842 2.142-1.352 1.787-.415-.288.682-1.42.233-1.584-.579-.213-.449 1.863-1.032 1.672-.427-.14.495-1.42.069-1.567-.402-.14-.433 1.703-.844 1.633-.299-.051.182-1.226-.119-1.257-.447-.045-.245 1.434-.694 1.436-.317.001.077-1.174-.24-1.18-.178-.003-.199.781-.333 1.111a6.768 6.768 0 0 1-.564 1.105Z" fill="#A60000"/><path fill-rule="evenodd" clip-rule="evenodd" d="M477.664 264.943c-.305.337-.799.688-1.174.881a2.045 2.045 0 0 1-.659.201c-.299.023-.74-.148-1.109-.157-.234-.005-.539-.005-.763.067 0 0-.8.079-1.35.341a2.666 2.666 0 0 0-.363.202c-.098.078-.371.435-.371.435s1.531-.509 2.116-.621c.215-.041.511-.072.723-.067.308.007.757.186 1.133.156.233-.018.518-.113.732-.223.399-.206.904-.559 1.245-.936.153-.169.3-.425.402-.635.059-.121.175-.391.164-.445-.016-.076-.113-.14-.141-.156-.017-.01-.089-.033-.177.122-.054.094-.051.292-.108.419-.099.218-.255.366-.3.416Z" fill="#780000"/><path fill-rule="evenodd" clip-rule="evenodd" d="m487.505 274.996-2.725 3.35-.223.321s1.12-.871 1.568-1.307c.48-.468 1.507-1.704 1.507-1.704s.429-.008.62-.033c.21-.028.504-.132.69-.29.236-.202.547-.58.622-.911.092-.404-.039-.969-.22-1.269-.079-.132-.251-.251-.392-.257-.199-.009-.659.31-.659.31l.598.364.079.518.005.388-.393.457-.434.182-.643-.119Z" fill="#A60000"/><path fill-rule="evenodd" clip-rule="evenodd" d="M488.103 273.156s.168.35.28.358a.716.716 0 0 1 .277.069c-.017-.013.023.019.054.07.031.051.062.119.09.199.057.16.081.346.027.515a.848.848 0 0 1-.301.405.929.929 0 0 1-.305.149 1.223 1.223 0 0 1-.361-.054c-.135-.038-.173-.086-.252-.087a.23.23 0 0 0-.141.043c-.311.21-.733.833-.907 1.025a12.11 12.11 0 0 0-.501.614c-.085.108-.161.214-.216.286l-1.135 1.648s1.311-1.312 1.365-1.383l.208-.274c.166-.214.373-.47.487-.597.188-.207.796-.907.818-.933 0 0 0 .032.147.073.147.041.313.082.474.058.118-.018.277-.08.459-.214.181-.134.378-.348.478-.655a1.286 1.286 0 0 0-.023-.836 1.51 1.51 0 0 0-.128-.277c-.044-.071-.071-.12-.128-.162-.128-.094-.283-.106-.414-.115-.131-.008-.352.075-.352.075Z" fill="#780000"/><path fill-rule="evenodd" clip-rule="evenodd" d="M487.609 273.174c-.175.189-.418.469-.513.748-.067.198-.057.707-.057.707s-.375-.667-.313-1.003c.071-.389.47-.743.737-.882.198-.104.681.013.681.013s-.389.258-.535.417Z" fill="#E91A00"/><path fill-rule="evenodd" clip-rule="evenodd" d="m494.074 259.955.97.867s.126.049.442.123c.316.075.749.178 1.206.29.913.223 1.937.482 2.346.624.804.279 1.023.787 1.391 1.393.248.41.425 1.087.602 1.784.178.697.357 1.416.691 1.95.195.311.521.604.812.847.291.244.48.239.48.239s.569.139.814.113c.322-.033 1.044-.368 1.044-.368s-1.835-.276-2.113-.507c-.278-.232-.597-.549-.707-.725-.252-.402-.426-1.065-.603-1.761s-.355-1.421-.683-1.962c-.347-.573-.707-1.265-1.623-1.583-.451-.156-1.464-.422-2.379-.646-.458-.112-.889-.215-1.206-.29-.171-.04-.409-.235-.759-.328-.297-.078-.725-.06-.725-.06Z" fill="#A60000"/><path fill-rule="evenodd" clip-rule="evenodd" d="m494.687 260.033.665.418s.127.048.442.122c.316.075.749.179 1.206.29.913.224 1.937.482 2.347.624.804.279 1.023.788 1.39 1.394.248.409.425 1.086.603 1.783.177.697.356 1.416.691 1.951.194.311.52.604.811.847.292.243.48.239.48.239l.966.053s-.943-.584-1.22-.816c-.278-.232-.597-.548-.708-.725-.252-.402-.425-1.065-.602-1.761-.178-.696-.356-1.421-.684-1.961-.347-.573-.706-1.265-1.623-1.583-.451-.157-1.463-.423-2.379-.647-.458-.112-.889-.215-1.205-.289-.317-.075-1.18.061-1.18.061ZM510.018 274.288l-.681 2.238-.085.362s.259-.22.497-.685c.16-.313.296-.851.391-1.074.251-.595.184-.347.184-.347s.349-.191.499-.294c.163-.113.373-.326.477-.537.133-.269.273-.716.234-1.023-.048-.375-.329-.789-.568-.961a.44.44 0 0 0-.401-.045c-.165.078-.446.541-.446.541l.602.046.223.396.122.32-.183.548-.301.338-.564.177Z" fill="#780000"/><path fill-rule="evenodd" clip-rule="evenodd" d="M509.956 272.523s.245.217.339.176a.632.632 0 0 1 .248-.062c-.017-.003.025.006.066.035a.795.795 0 0 1 .135.126.685.685 0 0 1 .178.415.9.9 0 0 1-.124.464.99.99 0 0 1-.205.254 1.165 1.165 0 0 1-.312.111c-.122.026-.168.002-.233.036a.24.24 0 0 0-.103.095c-.191.308-.245.577-.329.81a12.83 12.83 0 0 0-.225.723c-.036.126-.085.242-.089.33l-.031.604s.277-.402.299-.484l.088-.316c.071-.248.162-.549.218-.703.091-.252.274-.664.284-.695 0 0 .01.026.143-.003a1.08 1.08 0 0 0 .406-.155 1.16 1.16 0 0 0 .311-.374c.109-.189.205-.45.193-.747a1.075 1.075 0 0 0-.273-.683 1.072 1.072 0 0 0-.189-.173c-.057-.041-.094-.07-.154-.08-.134-.023-.264.034-.374.083-.11.049-.267.213-.267.213Z" fill="#A60000"/><path fill-rule="evenodd" clip-rule="evenodd" d="M509.653 272.758c-.086.228-.2.558-.194.826.005.188.164.597.164.597s-.503-.381-.553-.681c-.058-.346.161-.803.336-1.03.13-.168.557-.279.557-.279s-.239.375-.31.567Z" fill="#E91A00"/><path fill-rule="evenodd" clip-rule="evenodd" d="M453.225 250.872c.087-.372.153-.299.197-.685a7.79 7.79 0 0 0 .025-.343s.348.563.42.857c.079.322.148.416.099.583-.063.213-.303.412-.469.411-.151-.001-.379-.177-.421-.377-.029-.142.118-.315.149-.446ZM449.152 250.599c-.084-.374 0-.367-.125-.718-.036-.101-.123-.299-.123-.299s.519.18.701.362c.198.199.294.221.323.396.038.225-.075.579-.211.712-.123.12-.382.159-.5.03-.083-.092-.036-.352-.065-.483ZM446.495 255.263c-.262-.147-.204-.233-.479-.321a2.885 2.885 0 0 0-.245-.058s.429-.442.646-.522c.237-.087.31-.175.426-.096.149.103.275.448.263.679-.011.208-.154.511-.301.555-.104.031-.218-.185-.31-.237ZM449.216 260.886c-.249.185-.26.069-.485.307a4.942 4.942 0 0 0-.188.224s.028-.74.122-1.022c.103-.309.1-.443.218-.517.153-.094.425-.009.545.152.108.144.186.49.117.675-.049.131-.242.116-.329.181ZM450.057 272.8c-.124-.352-.04-.363-.203-.683-.047-.093-.155-.269-.155-.269s.532.066.732.207c.219.154.316.156.364.322.063.215-.009.589-.129.749-.109.145-.361.239-.491.137-.092-.073-.074-.34-.118-.463ZM446.928 276.734c-.257-.163-.197-.245-.469-.349-.079-.031-.243-.073-.243-.073s.442-.416.661-.483c.24-.073.315-.157.429-.071.146.111.262.464.242.693-.018.207-.169.502-.317.537-.105.025-.213-.197-.303-.254ZM447.916 281.87c-.277.079-.264-.037-.528.102-.076.041-.227.141-.227.141s.18-.698.328-.932c.162-.255.187-.385.316-.408.165-.031.408.159.49.361.074.181.077.543-.027.693-.074.106-.256.015-.352.043ZM452.45 282.116c.24.206.256.091.469.348.062.074.179.24.179.24s.004-.741-.077-1.031c-.089-.317-.08-.451-.195-.534-.148-.107-.424-.045-.55.105-.115.135-.208.473-.147.663.043.135.237.137.321.209ZM481.857 282.468c.155.327.205.233.32.59.033.104.088.322.088.322s.23-.669.245-.979c.016-.339.065-.455-.014-.598-.101-.184-.37-.289-.531-.228-.144.055-.332.308-.335.516-.002.147.173.262.227.377ZM478.196 281.485c-.228.23-.25.117-.45.394-.058.08-.165.257-.165.257s-.043-.739.023-1.036c.072-.325.057-.457.167-.552.142-.121.42-.087.554.05.121.124.231.452.18.648-.036.138-.228.159-.309.239ZM476.451 276.02c-.28-.053-.239-.156-.522-.147-.082.004-.247.028-.247.028s.336-.576.532-.727c.214-.166.269-.277.395-.24.163.047.348.339.377.567.026.205-.058.548-.192.641-.095.065-.245-.104-.343-.122ZM479.322 270.815c-.044-.387.039-.364-.05-.736-.025-.108-.09-.32-.09-.32s.494.28.656.496c.176.236.268.277.28.456.014.23-.134.559-.283.663-.134.094-.395.082-.498-.069-.073-.107 0-.355-.015-.49ZM504.273 277.425c-.227-.233-.156-.297-.406-.477a3.946 3.946 0 0 0-.227-.141s.495-.28.719-.282c.245-.003.332-.063.43.054.126.151.186.529.133.748-.048.197-.241.442-.391.434-.106-.006-.178-.254-.258-.336ZM505.088 282.019c-.269.118-.265 0-.517.176a4.474 4.474 0 0 0-.216.171s.128-.719.258-.972c.143-.277.159-.409.285-.451.162-.053.418.102.514.291.087.17.116.529.024.693-.066.116-.254.051-.348.092ZM509.436 283.021c-.105.364-.167.284-.23.666-.019.111-.042.339-.042.339s-.319-.594-.377-.894c-.063-.328-.127-.429-.07-.591.073-.207.322-.383.488-.366.15.015.369.212.401.416.023.144-.133.303-.17.43ZM512.538 280.506c.232.222.252.108.457.378.059.078.17.251.17.251s.029-.74-.042-1.034c-.078-.323-.065-.456-.176-.547-.144-.116-.422-.072-.554.069-.119.128-.223.46-.169.654.039.137.232.151.314.229Z" fill="#E91A00" stroke="#780000" stroke-width=".3"/><path fill-rule="evenodd" clip-rule="evenodd" d="M469.554 257.011s-1.634-1.323-2.367-1.621c-.579-.235-1.377-.285-1.961-.073-.58.21-1.283.78-1.865.98-.515.177-1.146.294-1.62-.035-.395-.275-.645-.636-.785-1.218-.168-.698-.019-1.808-.147-2.522-.061-.337-.246-1.159-.246-1.159s-.53.96-.589 1.364c-.131.904-.181 2.23.099 3.067.258.774.807 1.716 1.374 2.045.584.339 1.392.317 2.012.136.477-.139 1.339-.816 1.816-.954.562-.163 1.218.02 1.76.282.626.302 1.643 2.061 1.643 2.061l.622-1.389.254-.964Z" fill="#CE0F25"/><path fill-rule="evenodd" clip-rule="evenodd" d="m460.544 251.447.326 1.284v1.585l.236 1.234.671.755.761.277 1.323-.504 1.16-.729 1.033-.177.852.025 1.16.68 1.504 1.158-.417 1.133s-1.663-1.756-2.154-1.943c-.328-.124-.785-.245-1.124-.201-.279.036-.684.064-.945.205-.306.166-.684.49-.997.63a4.293 4.293 0 0 1-1.105.302c-.271.033-.645.078-.906-.025-.298-.118-.667-.431-.889-.73-.212-.287-.426-.771-.525-1.158-.092-.359-.086-.88-.109-1.259-.02-.339.032-.806-.036-1.132-.037-.176-.218-.529-.218-.529l.363-1.032.036.151Z" fill="#E91A00"/><path d="M469.554 257.011s-1.634-1.323-2.367-1.621c-.579-.235-1.377-.285-1.961-.073-.58.21-1.283.78-1.865.98-.515.177-1.146.294-1.62-.035-.395-.275-.645-.636-.785-1.218-.168-.698-.019-1.808-.147-2.522-.061-.337-.246-1.159-.246-1.159s-.53.96-.589 1.364c-.131.904-.181 2.23.099 3.067.258.774.807 1.716 1.374 2.045.584.339 1.392.317 2.012.136.477-.139 1.339-.816 1.816-.954.562-.163 1.218.02 1.76.282.626.302 1.643 2.061 1.643 2.061l.622-1.389.254-.964Z" stroke="#780000" stroke-width=".3"/><path fill-rule="evenodd" clip-rule="evenodd" d="M466.647 258.751s-.357-.612-.48-.901a10.11 10.11 0 0 1-.245-.746s-.167.637-.207.879c-.054.337-.062 1.264-.062 1.264l.994-.496ZM465.362 253.344s.002.909.076 1.28c.079.401.378 1.329.378 1.329s.139-.848.235-1.183c.111-.389.529-1.254.529-1.254l-1.218-.172Z" fill="#E91A00" stroke="#780000" stroke-width=".3"/><path fill-rule="evenodd" clip-rule="evenodd" d="M470.21 266.653c.367-.519 1.05-.921 1.377-1.487.424-.734.803-1.921.969-2.833.146-.805.102-2.763.102-2.763s.588 1.171 1.071 1.346c.317.115 1.053-.275 1.377-.212.339.065.782.656 1.122.708.313.048.548-.052.816-.283.341-.295.714-1.346.714-1.346s-.712.265-1.02.071c-.287-.181-.529-.772-.765-1.063-.417-.513-.893-.151-1.326-.637-.202-.227-.408-1.062-.408-1.062s.576.462 1.071.566c.312.066.738-.157 1.02-.354.194-.135.561-.637.561-.637s-.559.071-.765-.071c-.272-.188-.456-.658-.663-1.063-.269-.527-.398-1.437-.714-1.912-.196-.294-.816-.708-.816-.708s.913-.585 1.173-1.133c.338-.714.306-2.621.306-2.621s-1.015-.155-1.428.071c-.302.165-.745.772-.745.772s-.042-.362-.106-.608c-.078-.3-.145-.335-.365-.499-.808-.598-1.834-.997-2.749-1.022-.864-.024-1.994-.16-2.742.441-.245.197-.628.745-.628.745s-1.256.062-1.805.362c-.141.077-.299.117-.315.51a1.22 1.22 0 0 0 .112.465c.078.188.23.263.228.356-.007.278-.053.78-.043 1.21.012.477.083.875.119.996.056.189.161.317.264.448.104.133.625.467 1.267.481.708.015 1.744-.342 1.744-.342s.6.312.736.75c.094.3.068.777 0 1.091a82.03 82.03 0 0 1-.236 1.022s.206.437.285.886c.059.333-.076.841-.245 1.091-.14.208-.433.337-.638.341-.219.003-.445-.124-.638-.137-.531-.035-1.299-.211-1.767.137-.195.144-.372.527-.442.818-.06.252.031.623 0 .886-.022.191-.147.613-.147.613s.63.1.901.086c.324-.017.76-.343 1.071-.213.176.074.431.314.458.567.027.245-.178.535-.306.708-.377.512-1.019 1.017-1.529 1.204-.459.168-1.138.234-1.581 0-.345-.182-.729-.694-.918-1.133-.17-.394-.056-1.122-.255-1.487-.286-.523-.92-.898-1.377-1.063-.385-.138-1.326 0-1.326 0s.656.659.815 1.07c.176.455.183 1.18.216 1.694.031.507-.141 1.225 0 1.694.198.664 1.219 1.694 1.219 1.694s-1.821-.42-2.511 0c-.317.193-.739.321-1.012.773-.303.503-.454 1.338-.782 1.619-.533.457-1.024.649-1.65.598-.722-.06-1.223-.659-1.937-.499-.452.102-1.148 1.395-1.148 1.395s.961-.433 1.363-.298c.569.19.817.903 1.363 1.195.748.401 1.365.203 2.153 0 .975-.25 1.386-1.494 2.367-1.694l1.65-.336s-1.363 1.536-1.65 2.628c-.214.817-.17 2.138.144 2.89.273.652.972 1.262 1.507 1.395.457.114 1.506-.498 1.506-.498s-.974-.31-1.219-.698c-.313-.494-.265-1.192-.072-1.793.249-.776 2.031-.969 2.511-1.495.531-.581.861-2.192.861-2.192s.202.956.743 1.8c.234.364.548.602.77.748.545.357 1.305.391 1.863.075.593-.335 1.148-1.295 1.148-1.295s-.831.268-1.291-.2c-.297-.302-.239-1.199-.144-1.694.133-.687.803-1.127 1.161-1.635Z" fill="#CE0F25"/><path fill-rule="evenodd" clip-rule="evenodd" d="m473.315 252.081.13-.938.65-.974.597-.289.728-.794-1.195.036-.702.541s-.297.367-.364.578c-.053.169-.139.396-.147.614-.006.141 0 .496.017.613.029.195.286.613.286.613Z" fill="#E91A00"/><path fill-rule="evenodd" clip-rule="evenodd" d="M464.869 250.673h.468s.327-.355.468-.505c.077-.081.031-.31.12-.406.027-.03.466.28.95.065.483-.215 1.01-.956 1.217-1.066.429-.231 1.243-.276 1.703-.301.296-.017 1.488.238 2.354.728.257.146.45.203.602.423.091.133.143.35.201.493.111.27.186.44.186.44l-.082-1.179-.614-.628-2.116-.915-2.52.036-1.04.939-.078.252-.805-.036-1.092.469-.311.361.155.686.234.144Z" fill="#E91A00"/><path fill-rule="evenodd" clip-rule="evenodd" d="M474.065 251.986c.134-.085.283-.286.364-.458.117-.249.217-.492.253-.785.024-.203.127-.888.127-.888l-.684.325-.32.265-.191.421-.243.47.017.614.234.108s.321.005.443-.072Z" fill="#A60000"/><path fill-rule="evenodd" clip-rule="evenodd" d="M468.949 252.95c.235.127.573.551.668.849.027.086.047.213.059.357.028.333.015.754-.043.961a12.66 12.66 0 0 1-.218.703l-.169.481s.133.324.218.614c.085.29.166.649.169.826.009.596-.278 1.312-.652 1.553 0 0 .318.123.596-.201.241-.281.448-.982.442-1.363-.006-.338-.102-.703-.193-1.016-.07-.239-.116-.343-.145-.424l.08-.246c.07-.207.163-.477.233-.726.051-.18.128-.685.047-1.188-.044-.273-.18-.561-.288-.759-.253-.465-.804-.421-.804-.421Z" fill="#E91A00"/><path fill-rule="evenodd" clip-rule="evenodd" d="M469.082 254.107s.02-.549-.143-.846c-.109-.197-.337-.335-.439-.425-.143-.127-.429-.029-.532-.039-.101-.01-.418.121-.696.279-.137.078-1.217.384-1.724-.105-.413-.398-.28-1.592-.298-1.68-.06-.278-.028-.273-.141-.516-.064-.137-.309-.126-.309-.126l.046 2.208.863 1.01 1.136.126 1.37-.296.867.41ZM466.878 259.827s1.233.561 1.752.493c.511-.067 1.241-.339 1.614-.789.308-.373.495-1.218.455-1.783-.046-.659-.626-1.755-.626-1.755s.52-.977.619-1.495c.051-.267.023-.658-.041-.92a15.97 15.97 0 0 1-.184-.99l.46.243.331 1.092-.082.805-.621 1.207.497 1.15.206 1.035-.206 1.494-.663.805-.993.575-.662.172h-.87l-.869-.344-.455.115-.662.287-.87-.173.29-.632-.041-.747.242-.585s.217.569.198.849c-.013.189.003.409.102.538.144.186.402.108.617-.128.166-.183.276-.508.379-.574.1-.063.083.055.083.055ZM476.761 256.846l-.588.705-.649.225-.589-.113-.709-.619-.508-1.071-.486-.761-.65-.338s.288-.243.426-.253c.21-.016.406.02.589.141.198.13.462.618.608.845.154.238.303.62.467.845.13.178.316.416.487.507.125.067.312.058.446.056.349-.003 1.156-.169 1.156-.169ZM472.724 259.635c-.405-1.38-.385-1.38-.385-1.38l.771.845c.201.22.437.584.669.733.169.108.423.162.609.169.203.006.467-.164.669-.141.159.017.363.13.507.225.203.133.42.449.629.564.161.088.399.191.568.14.39-.116 1.096-1.042 1.096-1.042l-.69 1.38-.609.339-.872-.339-.588-.478-.771.169-.771.084-.527-.62-.305-.648Z" fill="#A60000"/><path fill-rule="evenodd" clip-rule="evenodd" d="M475.544 255.888s-.377-.143-.507-.282c-.162-.173-.306-.512-.406-.76-.064-.159-.077-.426-.162-.564-.078-.126-.25-.18-.345-.282a1.602 1.602 0 0 1-.243-.338c-.098-.191-.244-.704-.244-.704l.791.225.467.705.426.901.223 1.099ZM476.619 259.833l-.73-1.099-.507-.253-.528-.113-.405-.394-.956-2.398-.913-.627s.034.292.276.662c.131.2.435.378.573.646.282.55.372 1.208.394 1.306.068.292.167.88.309 1.115.131.215.458.449.641.507.175.056.475-.083.649-.028.175.055.411.206.528.394.124.201.193.517.345.677.128.135.311.151.466.14.165-.011.446-.45.446-.45l-.588-.085Z" fill="#E91A00"/><path d="M468.978 250.743c.242 0 .438-.236.438-.528 0-.291-.196-.527-.438-.527-.241 0-.437.236-.437.527 0 .292.196.528.437.528Z" fill="#D35F5F"/><path fill-rule="evenodd" clip-rule="evenodd" d="M467.592 250.913s.151-.742.33-1.038a1.79 1.79 0 0 1 .668-.608c.255-.125.558-.218.829-.224.291-.006.765.046 1.036.192.156.084.438.48.438.48s-1.683.103-2.349.448c-.332.172-.952.75-.952.75ZM465.515 259.206s.306.089.437.071c.177-.023.565-.25.565-.25s.563.216.797.25c.176.026.397.044.565-.035.181-.086.488-.571.488-.571l-.951-.143-1.027-.036-.668.107-.206.607Z" fill="#E91A00"/><path fill-rule="evenodd" clip-rule="evenodd" d="M466.173 268.959s.664 1.09 1.026 1.425c.226.209.57.408.836.475.393.1 1.33-.052 1.33-.052s-.617-.491-.76-.845c-.179-.446-.219-1.187-.152-1.689.066-.495.334-1.097.57-1.478.288-.463.813-.874 1.179-1.214.331-.308.841-.582 1.14-.95.431-.532 1.178-2.111 1.178-2.111l-.76 2.428-1.064 1.319-1.179 1.109-.456.791v1.637l.57.369h.875l-.799 1.161-.912.528-.95-.316-1.064-.634-.418-.844-.19-1.109ZM462.621 275.434s-.302-.375-.43-.643c-.231-.485-.352-1.044-.343-1.411.013-.595.089-1.185.369-1.634.202-.323.611-.729.908-.841.314-.118.771-.027 1.076-.187.319-.167.716-.53.941-.887.208-.33.261-.942.37-1.354.146-.555.206-1.37.437-1.867.16-.344.773-.84.773-.84l-.672 2.334v-.047l-.034 1.214-.874 1.774-2.118.934-.437.42-.168 1.167.202.747 1.244.747-1.244.374ZM453.811 269.584s.378-.612.606-.708c.257-.11.64 0 .892.133.373.195.707.889 1.085 1.062.372.172.92.13 1.307.045.341-.075.781-.305 1.084-.532.349-.26.783-1.071 1.148-1.284.366-.213.943-.38 1.34-.399.498-.023 1.658.399 1.658.399l-2.424.797-.701.266-.861.974-.766.399-1.052.177-.797-.089-.765-.708-.67-.709-1.084.177ZM463.154 266.218s-.882-1.461-1.084-2.214c-.145-.539-.064-1.345-.16-1.905-.077-.454-.157-1.115-.382-1.461-.07-.107-.174-.426-.324-.566-.291-.273-.665-.364-.665-.364l.606 1.284.159 1.373v1.727l.447.975 1.403 1.151Z" fill="#A60000"/><path fill-rule="evenodd" clip-rule="evenodd" d="M461.496 274.411s-.328-.694-.383-1.018a2.801 2.801 0 0 1 0-.975c.064-.407.21-.943.383-1.284.23-.453.675-.895.988-1.24.329-.362 1-.545 1.34-.886.31-.311.562-.599.797-1.018.198-.352.259-1.276.446-1.639.194-.375.588-.702.829-1.018.099-.129.319-.443.319-.443s-.684.116-.956.265c-.304.167-.525.449-.734.798-.217.361-.382 1.106-.606 1.461-.36.574-1.594 1.24-1.594 1.24l-.957 1.107-.637 1.285-.192 1.505.192 1.285.574 1.062.892.488-.701-.975Z" fill="#E91A00"/><path fill-rule="evenodd" clip-rule="evenodd" d="M466.311 263.296s.91-.061 1.244-.31c.256-.191.669-.974.669-.974s.58.167.829.132c.34-.047.801-.222 1.084-.487.198-.184.407-.544.511-.841.102-.293.159-1.063.159-1.063l-1.02 1.063-.861.266-.766-.045-.765-.221.16.62-.287.753-.702.708-.255.399Z" fill="#A60000"/><path fill-rule="evenodd" clip-rule="evenodd" d="M465.955 263.486s-.735.692-1.098.819c-.226.079-.548.064-.776 0-.343-.097-.815-.304-1.072-.633-.24-.307-.435-.896-.509-1.339-.052-.315.102-.772.027-1.078-.073-.301-.318-.599-.482-.819-.182-.243-.67-.707-.67-.707l1.527.744.134.41.107 1.041.697 1.228.91.483 1.205-.149ZM455.843 268.765s.655.602.973.736c.28.118.687.215.972.123.363-.118.801-.529 1.061-.9.248-.355.352-1.064.589-1.433.19-.295.497-.649.766-.777.268-.128.663.014.943-.041.461-.091 1.503-.532 1.503-.532l.03-.041.088.082-.972-.328-1.179-.082-.884.328-.825.777-.324.86-.501.818-1.061.45-1.179-.04Z" fill="#E91A00"/><path d="M470.21 266.653c.367-.519 1.05-.921 1.377-1.487.424-.734.803-1.921.969-2.833.146-.805.102-2.763.102-2.763s.588 1.171 1.071 1.346c.317.115 1.053-.275 1.377-.212.339.065.782.656 1.122.708.313.048.548-.052.816-.283.341-.295.714-1.346.714-1.346s-.712.265-1.02.071c-.287-.181-.529-.772-.765-1.063-.417-.513-.893-.151-1.326-.637-.202-.227-.408-1.062-.408-1.062s.576.462 1.071.566c.312.066.738-.157 1.02-.354.194-.135.561-.637.561-.637s-.559.071-.765-.071c-.272-.188-.456-.658-.663-1.063-.269-.527-.398-1.437-.714-1.912-.196-.294-.816-.708-.816-.708s.913-.585 1.173-1.133c.338-.714.306-2.621.306-2.621s-1.015-.155-1.428.071c-.302.165-.745.772-.745.772s-.042-.362-.106-.608c-.078-.3-.253-.435-.473-.598a4.626 4.626 0 0 0-2.641-.923c-.864-.024-1.994-.16-2.742.441-.245.197-.628.745-.628.745s-1.256.062-1.805.362c-.141.077-.299.117-.315.51a1.22 1.22 0 0 0 .112.465c.078.188.23.263.228.356-.007.278-.053.78-.043 1.21.012.477.083.875.119.996.056.189.161.317.264.448.104.133.625.467 1.267.481.708.015 1.744-.342 1.744-.342s.6.312.736.75c.094.3.068.777 0 1.091a82.03 82.03 0 0 1-.236 1.022s.206.437.285.886c.059.333-.076.841-.245 1.091-.14.208-.433.337-.638.341-.219.003-.445-.124-.638-.137-.531-.035-1.299-.211-1.767.137-.195.144-.372.527-.442.818-.06.252.031.623 0 .886-.022.191-.147.613-.147.613s.63.1.901.086c.324-.017.76-.343 1.071-.213.176.074.431.314.458.567.027.245-.178.535-.306.708-.377.512-1.019 1.017-1.529 1.204-.459.168-1.138.234-1.581 0-.345-.182-.729-.694-.918-1.133-.17-.394-.056-1.122-.255-1.487-.286-.523-.92-.898-1.377-1.063-.385-.138-1.326 0-1.326 0s.656.659.815 1.07c.176.455.183 1.18.216 1.694.031.507-.141 1.225 0 1.694.198.664 1.219 1.694 1.219 1.694s-1.821-.42-2.511 0c-.317.193-.739.321-1.012.773-.303.503-.454 1.338-.782 1.619-.533.457-1.024.649-1.65.598-.722-.06-1.223-.659-1.937-.499-.452.102-1.148 1.395-1.148 1.395s.961-.433 1.363-.298c.569.19.817.903 1.363 1.195.748.401 1.365.203 2.153 0 .975-.25 1.386-1.494 2.367-1.694l1.65-.336s-1.363 1.536-1.65 2.628c-.214.817-.17 2.138.144 2.89.273.652.972 1.262 1.507 1.395.457.114 1.506-.498 1.506-.498s-.974-.31-1.219-.698c-.313-.494-.265-1.192-.072-1.793.249-.776 2.031-.969 2.511-1.495.531-.581.861-2.192.861-2.192s.202.956.743 1.8c.234.364.548.602.77.748.545.357 1.305.391 1.863.075.593-.335 1.148-1.295 1.148-1.295s-.831.268-1.291-.2c-.297-.302-.239-1.199-.144-1.694.133-.687.803-1.127 1.161-1.635Z" stroke="#780000" stroke-width=".3"/><path fill-rule="evenodd" clip-rule="evenodd" d="M471.57 260.303s-.288 1.947-.57 2.692c-.261.687-.765 1.483-1.179 2.005-.365.461-1.048.746-1.368 1.267-.284.464-.53 1.248-.608 1.848-.054.422-.03 1.022.076 1.425.053.202.304.58.304.58s-.475-.119-.608-.316c-.269-.399-.366-1.196-.38-1.742-.013-.503.1-1.189.266-1.636.133-.359.419-.751.646-1.003.347-.386.946-.617 1.292-1.003.321-.358.665-.968.912-1.425.412-.763 1.217-2.692 1.217-2.692ZM470.665 250.963s.487.006.659.146c.287.234.556.785.687 1.21.09.296.142.742.158 1.063a5.07 5.07 0 0 1-.053.769c-.04.323-.264 1.027-.264 1.027s.463.654.607.989c.135.314.158.845.317 1.136.143.263.633.66.633.66s-.556-.13-.739-.33c-.19-.207-.269-.692-.422-.953-.124-.211-.304-.49-.475-.623-.265-.206-.976-.366-.976-.366s.342-.672.448-.99c.144-.429.319-1.031.343-1.502a3.003 3.003 0 0 0-.105-.88c-.084-.285-.277-.61-.423-.843-.106-.171-.395-.513-.395-.513Z" fill="#E91A00"/><path fill-rule="evenodd" clip-rule="evenodd" d="M469.99 249.384c-.296-.024-.677-.025-1.021.089-.268.089-.61.254-.82.536l-.299.4-.297.509.251-.058.114-.024s.086-.053.134-.101c.025-.024.024-.029.056-.055l.016-.012c.089-.066.197-.11.193-.111 0 0-.016-.026.008.022.025.048.069.16.145.268.079.112.169.2.273.268.105.068.216.116.346.089a.745.745 0 0 0 .314-.156.917.917 0 0 0 .289-.368c.08-.187.096-.366.113-.481a.62.62 0 0 1 .024-.111.662.662 0 0 1 .386-.134h.008c.068.011.309-.066.309-.066l.414-.138s-.614-.316-.707-.332h-.008c-.089-.016-.1-.023-.241-.034Zm-.689.611c.023.005.096.156.09.192-.02.137.003.141-.028.213a.598.598 0 0 1-.153.179.625.625 0 0 1-.177.101.28.28 0 0 1-.121-.045.705.705 0 0 1-.168-.168c-.034-.047-.059-.192-.026-.249.076-.133.238-.186.339-.22.123-.041.139-.026.244-.003Zm.935 2.27s.186.405.355.604c.084.099.141.221.208.315.066.094.114.197.112.19.108.361.151.744.081 1.083-.037.177-.187.546-.322.838-.068.146-.129.274-.177.369l-.08.156-.096.161.104.163s.156.267.313.625.295.814.29 1.061c-.013.643-.171 1.624-.451 1.977-.449.568-1.372 1-2.01 1.072-.215.024-.572-.024-.86-.089-.288-.066-.515-.146-.515-.146h-.064s.213.602.514.67c.301.069.669.134.957.101.724-.082 1.674-.496 2.236-1.206.451-.571.564-1.627.579-2.357.009-.48-.174-.958-.346-1.351-.13-.296-.201-.424-.257-.525.05-.099.121-.237.193-.391.142-.307.296-.668.361-.982.102-.494.035-1.002-.096-1.441-.044-.149-.156-.261-.235-.374-.08-.113-.199-.257-.311-.307l-.483-.216Zm-4.893-1.881c-.019.01-.177.057-.278.075-.05.009-.094.018-.129.023-.034.005-.056.011-.056.011h.064s-.004.53.033.525l.136-.023c.109-.019.228-.039.33-.089.158-.078.257-.231.338-.357a.806.806 0 0 0 .081-.335c.002-.134-.037-.232-.037-.232s-.094.168-.21.267c-.116.098-.254.127-.272.135Zm7.08 4.587a.996.996 0 0 0 .241.045c.26.148.598.517.804.815.099.143.26.472.386.759.064.144.121.283.161.38.04.098.155.366.155.366l.305-.186s.081.044.04-.056-.33-.579-.395-.727c-.131-.297-.265-.665-.427-.838-.086-.092-.232-.343-.335-.439-.216-.201-.405-.232-.583-.283-.155-.045-.352.164-.352.164Zm-5.042 9.56c-.332.42-.705.915-.901 1.329-.289.61-.517 1.498-.611 2.2-.026.194-.1.904-.095 1.114.005.211-.037.354-.037.354l.677.271s-.17-.917-.175-1.114a5.082 5.082 0 0 1 .008-.525c.084-.623.311-1.483.555-1.999.146-.309.513-.818.836-1.228.162-.205.183-.283.294-.415.111-.131.309-.506.309-.506s-.694.309-.86.519Zm7.213-14.764c-.167.032-.357.072-.49.167-.044.032-.07.069-.129.134-.06.066-.138.143-.217.246a3.39 3.39 0 0 0-.451.771c-.06.15-.076.316-.08.458-.004.141.003.274 0 .301a.543.543 0 0 0 .04.246.3.3 0 0 0 .129.145c.097.053.195.043.289.022.094-.021.102-.016.175-.051a.958.958 0 0 0 .153-.089c.08-.058.12-.131.161-.201.04-.07.072-.134.072-.134s-.251.028-.244.022a1.54 1.54 0 0 0-.222.067c-.064.03-.063.024-.135.04-.03.007-.1.017-.128-.04-.041-.082-.034-.236-.033-.305.003-.117.017-.244.041-.303a3.09 3.09 0 0 1 .41-.681c.073-.095.139-.176.193-.234.053-.059.107-.108.096-.101.055-.039.171-.156.329-.186.157-.03.308-.249.308-.249s-.1-.077-.267-.045Zm-7.945 9.621s.076.342.103.447c.027.106.002.254.002.285 0 .039-.015.193-.04.312-.025.12-.426.481-.426.481l.75-.054s-.064-.05-.036-.182c.027-.132.059-.232.056-.376-.003-.135-.041-.493-.111-.572l-.297-.341h-.001Z" fill="#780000"/><path d="M466.542 251.669c.108 0 .195-.124.195-.276 0-.152-.087-.276-.195-.276-.107 0-.194.124-.194.276 0 .152.087.276.194.276ZM466.139 252.545c.108 0 .195-.124.195-.276 0-.152-.087-.276-.195-.276-.107 0-.195.124-.195.276 0 .152.088.276.195.276ZM467.019 252.559c.108 0 .195-.123.195-.275 0-.153-.087-.276-.195-.276-.108 0-.195.123-.195.276 0 .152.087.275.195.275ZM466.319 260.794c.09 0 .163-.099.163-.221s-.073-.22-.163-.22c-.09 0-.163.098-.163.22s.073.221.163.221Z" fill="#A60000"/><path fill-rule="evenodd" clip-rule="evenodd" d="m427.673 258.118.357.19 2.447.569.077.031v-.031l2.447-.569.357-.19 3.825-8.658c-2.488-3.083-6.655-3.223-6.655-3.223s-4.58.621-6.68 3.223l3.825 8.658Z" fill="#9B3B6D" stroke="#C2779E" stroke-width=".17"/><path d="m424.098 249.162 4.307 9.193M424.636 248.658l4.367 9.92M425.241 248.263l4.294 10.545M425.928 247.771l3.895 11.082M426.711 247.364l3.183 11.622M427.508 247.011l2.681 12.288M428.357 246.764l2.186 12.938M429.426 246.43l1.226 13.093M436.834 249.066l-4.333 9.289M436.27 248.59l-4.367 9.989M435.716 248.084l-4.345 10.724M434.979 247.646l-3.895 11.207M434.234 247.214l-3.222 11.773M433.449 246.888l-2.732 12.412M432.562 246.585l-2.199 13.117M431.481 246.361l-1.226 13.162M430.409 246.257v12.336" stroke="#C2779E" stroke-width=".17"/><path fill-rule="evenodd" clip-rule="evenodd" d="M430.294 280.05c-1.646-2.026-2.011 1.543-2.011 1.543-1.097-4.245-1.829-2.315-1.829-2.315l-.183 1.736-.182-2.701c-.671.482-1.036 2.315-1.036 2.315v-2.508c-1.585.965-5.546-3.183-5.546-3.183 1.462.964 2.986.386 2.681-.579-.305-.965-.426-.29-2.011-1.158-1.585-.868-3.474-4.823-2.56-4.148.915.675 2.743 1.833 2.865.868.122-.964.426-.771-1.158-2.411-1.585-1.64-2.682-2.702-2.682-2.702 1.28 0 1.585-2.218 1.585-2.218-.549-3.57-2.072-4.824-2.072-4.824 1.401.386 2.255 3.087 2.986 3.859.731.772.305-1.447.853-1.158.549.29 1.097 2.316 1.28 3.087.183.772-.244.772.305 1.351.548.579 1.462-.675 1.34-1.737-.121-1.061-1.157-2.315-.426-1.639.731.675 1.645 2.797 1.706 3.762.061.964-.061 1.929.366 2.508s.548-.193.609-.965c.061-.771-.548-2.411-.548-2.411.67.385 1.341 2.315 1.524 3.472.182 1.158-.061 2.798.182 3.473.244.676 1.158.869 1.097-.096-.061-.965.488-2.412.488-2.412s-.122 2.508 0 3.859c.122 1.35 1.158 4.341 1.767 4.437.61.097.732 2.991.61 2.895Z" fill="#0F4B32" stroke="#000" stroke-width=".325"/><path d="M430.111 278.795c-2.925-.579-3.108-2.026-4.205-3.955-1.097-1.93-6.46-10.708-6.46-10.708" stroke="#000" stroke-width=".325"/><path fill-rule="evenodd" clip-rule="evenodd" d="m422.798 269.631.548-4.438Z" fill="#337321" fill-opacity=".75"/><path d="m422.798 269.631.548-4.438" stroke="#000" stroke-width=".325"/><path fill-rule="evenodd" clip-rule="evenodd" d="m423.834 271.56-3.657-.096Z" fill="#337321" fill-opacity=".75"/><path d="m423.834 271.56-3.657-.096" stroke="#000" stroke-width=".325"/><path fill-rule="evenodd" clip-rule="evenodd" d="m426.089 275.322-2.743.579Z" fill="#337321" fill-opacity=".75"/><path d="m426.089 275.322-2.743.579" stroke="#000" stroke-width=".325"/><path fill-rule="evenodd" clip-rule="evenodd" d="M430.613 280.05c1.645-2.026 2.011 1.543 2.011 1.543 1.097-4.245 1.828-2.315 1.828-2.315l.183 1.736.183-2.701c.67.482 1.036 2.315 1.036 2.315v-2.508c1.585.965 5.546-3.183 5.546-3.183-1.463.964-2.986.386-2.682-.579.305-.965.427-.29 2.012-1.158 1.584-.868 3.473-4.823 2.559-4.148-.914.675-2.742 1.833-2.864.868-.122-.964-.427-.771 1.158-2.411 1.584-1.64 2.681-2.702 2.681-2.702-1.279 0-1.584-2.218-1.584-2.218.548-3.57 2.072-4.824 2.072-4.824-1.402.386-2.255 3.087-2.986 3.859-.732.772-.305-1.447-.854-1.158-.548.29-1.097 2.316-1.279 3.087-.183.772.243.772-.305 1.351-.549.579-1.463-.675-1.341-1.737.122-1.061 1.158-2.315.427-1.639-.732.675-1.646 2.797-1.707 3.762-.061.964.061 1.929-.365 2.508-.427.579-.549-.193-.61-.965-.061-.771.549-2.411.549-2.411-.671.385-1.341 2.315-1.524 3.472-.183 1.158.061 2.798-.183 3.473-.244.676-1.158.869-1.097-.096.061-.965-.487-2.412-.487-2.412s.122 2.508 0 3.859c-.122 1.35-1.158 4.341-1.768 4.437-.609.097-.731 2.991-.609 2.895Z" fill="#0F4B32" stroke="#000" stroke-width=".325"/><path d="M430.796 278.795c2.925-.579 3.108-2.026 4.205-3.955 1.097-1.93 6.46-10.708 6.46-10.708" stroke="#000" stroke-width=".325"/><path fill-rule="evenodd" clip-rule="evenodd" d="m438.109 269.631-.548-4.438Z" fill="#337321" fill-opacity=".75"/><path d="m438.109 269.631-.548-4.438" stroke="#000" stroke-width=".325"/><path fill-rule="evenodd" clip-rule="evenodd" d="m437.073 271.56 3.657-.096Z" fill="#337321" fill-opacity=".75"/><path d="m437.073 271.56 3.657-.096" stroke="#000" stroke-width=".325"/><path fill-rule="evenodd" clip-rule="evenodd" d="m434.818 275.322 2.743.579Z" fill="#337321" fill-opacity=".75"/><path d="m434.818 275.322 2.743.579" stroke="#000" stroke-width=".325"/><path d="M430.922 263.567h-.937v19.126h.937v-19.126Z" fill="#0F4B32" stroke="#000" stroke-width=".34"/><path d="M434.997 260.618c0 3.109-2.034 5.63-4.544 5.63-2.509 0-4.543-2.521-4.543-5.63 0-3.11 2.034-5.631 4.543-5.631 2.51 0 4.544 2.521 4.544 5.631Z" fill="#0F4B32" stroke="#000" stroke-width=".34"/><path fill-rule="evenodd" clip-rule="evenodd" d="m427.789 259.35-2.754-2.149 2.958 1.706" fill="#0F4B32"/><path d="m427.789 259.35-2.754-2.149 2.958 1.706" stroke="#000" stroke-width=".17"/><path fill-rule="evenodd" clip-rule="evenodd" d="m428.044 262.067-2.448 2.718 2.754-2.022" fill="#0F4B32"/><path d="m428.044 262.067-2.448 2.718 2.754-2.022" stroke="#000" stroke-width=".17"/><path fill-rule="evenodd" clip-rule="evenodd" d="m433.118 259.35 2.753-2.149-2.957 1.706" fill="#0F4B32"/><path d="m433.118 259.35 2.753-2.149-2.957 1.706" stroke="#000" stroke-width=".17"/><path fill-rule="evenodd" clip-rule="evenodd" d="m432.863 262.067 2.447 2.718-2.753-2.022" fill="#0F4B32"/><path d="m432.863 262.067 2.447 2.718-2.753-2.022" stroke="#000" stroke-width=".17"/><path fill-rule="evenodd" clip-rule="evenodd" d="m532.327 258.118-.357.19-2.447.569-.077.031v-.031l-2.447-.569-.357-.19-3.825-8.658c2.488-3.083 6.655-3.223 6.655-3.223s4.58.621 6.68 3.223l-3.825 8.658Z" fill="#9B3B6D" stroke="#C2779E" stroke-width=".17"/><path d="m535.902 249.162-4.307 9.193M535.364 248.658l-4.367 9.92M534.759 248.263l-4.295 10.545M534.072 247.771l-3.895 11.082M533.289 247.364l-3.184 11.622M532.492 247.011l-2.681 12.288M531.643 246.764l-2.187 12.938M530.574 246.43l-1.226 13.093M523.166 249.066l4.333 9.289M523.73 248.59l4.367 9.989M524.284 248.084l4.345 10.724M525.021 247.646l3.895 11.207M525.766 247.214l3.222 11.773M526.551 246.888l2.732 12.412M527.437 246.585l2.2 13.117M528.519 246.361l1.226 13.162M529.591 246.257v12.336" stroke="#C2779E" stroke-width=".17"/><path fill-rule="evenodd" clip-rule="evenodd" d="M529.706 280.05c1.646-2.026 2.011 1.543 2.011 1.543 1.097-4.245 1.829-2.315 1.829-2.315l.183 1.736.182-2.701c.671.482 1.036 2.315 1.036 2.315v-2.508c1.585.965 5.546-3.183 5.546-3.183-1.462.964-2.986.386-2.681-.579.305-.965.426-.29 2.011-1.158 1.585-.868 3.474-4.823 2.56-4.148-.915.675-2.743 1.833-2.865.868-.122-.964-.426-.771 1.158-2.411 1.585-1.64 2.682-2.702 2.682-2.702-1.28 0-1.585-2.218-1.585-2.218.549-3.57 2.072-4.824 2.072-4.824-1.401.386-2.255 3.087-2.986 3.859-.731.772-.305-1.447-.853-1.158-.549.29-1.097 2.316-1.28 3.087-.183.772.244.772-.305 1.351-.548.579-1.462-.675-1.34-1.737.121-1.061 1.157-2.315.426-1.639-.731.675-1.645 2.797-1.706 3.762-.061.964.061 1.929-.366 2.508s-.548-.193-.609-.965c-.061-.771.548-2.411.548-2.411-.67.385-1.341 2.315-1.524 3.472-.182 1.158.061 2.798-.182 3.473-.244.676-1.158.869-1.097-.096.061-.965-.488-2.412-.488-2.412s.122 2.508 0 3.859c-.122 1.35-1.158 4.341-1.767 4.437-.61.097-.732 2.991-.61 2.895Z" fill="#0F4B32" stroke="#000" stroke-width=".325"/><path d="M529.889 278.795c2.925-.579 3.108-2.026 4.205-3.955 1.097-1.93 6.46-10.708 6.46-10.708" stroke="#000" stroke-width=".325"/><path fill-rule="evenodd" clip-rule="evenodd" d="m537.202 269.631-.548-4.438Z" fill="#337321" fill-opacity=".75"/><path d="m537.202 269.631-.548-4.438" stroke="#000" stroke-width=".325"/><path fill-rule="evenodd" clip-rule="evenodd" d="m536.166 271.56 3.657-.096Z" fill="#337321" fill-opacity=".75"/><path d="m536.166 271.56 3.657-.096" stroke="#000" stroke-width=".325"/><path fill-rule="evenodd" clip-rule="evenodd" d="m533.911 275.322 2.743.579Z" fill="#337321" fill-opacity=".75"/><path d="m533.911 275.322 2.743.579" stroke="#000" stroke-width=".325"/><path fill-rule="evenodd" clip-rule="evenodd" d="M529.387 280.05c-1.645-2.026-2.011 1.543-2.011 1.543-1.097-4.245-1.828-2.315-1.828-2.315l-.183 1.736-.183-2.701c-.67.482-1.036 2.315-1.036 2.315v-2.508c-1.585.965-5.546-3.183-5.546-3.183 1.463.964 2.986.386 2.682-.579-.305-.965-.427-.29-2.012-1.158-1.584-.868-3.473-4.823-2.559-4.148.914.675 2.742 1.833 2.864.868.122-.964.427-.771-1.158-2.411-1.584-1.64-2.681-2.702-2.681-2.702 1.279 0 1.584-2.218 1.584-2.218-.548-3.57-2.072-4.824-2.072-4.824 1.402.386 2.255 3.087 2.986 3.859.732.772.305-1.447.854-1.158.548.29 1.097 2.316 1.279 3.087.183.772-.243.772.305 1.351.549.579 1.463-.675 1.341-1.737-.122-1.061-1.158-2.315-.427-1.639.732.675 1.646 2.797 1.707 3.762.061.964-.061 1.929.365 2.508.427.579.549-.193.61-.965.061-.771-.549-2.411-.549-2.411.671.385 1.341 2.315 1.524 3.472.183 1.158-.061 2.798.183 3.473.244.676 1.158.869 1.097-.096-.061-.965.487-2.412.487-2.412s-.122 2.508 0 3.859c.122 1.35 1.158 4.341 1.768 4.437.609.097.731 2.991.609 2.895Z" fill="#0F4B32" stroke="#000" stroke-width=".325"/><path d="M529.204 278.795c-2.925-.579-3.108-2.026-4.205-3.955-1.097-1.93-6.46-10.708-6.46-10.708" stroke="#000" stroke-width=".325"/><path fill-rule="evenodd" clip-rule="evenodd" d="m521.891 269.631.548-4.438Z" fill="#337321" fill-opacity=".75"/><path d="m521.891 269.631.548-4.438" stroke="#000" stroke-width=".325"/><path fill-rule="evenodd" clip-rule="evenodd" d="m522.927 271.56-3.657-.096Z" fill="#337321" fill-opacity=".75"/><path d="m522.927 271.56-3.657-.096" stroke="#000" stroke-width=".325"/><path fill-rule="evenodd" clip-rule="evenodd" d="m525.182 275.322-2.743.579Z" fill="#337321" fill-opacity=".75"/><path d="m525.182 275.322-2.743.579" stroke="#000" stroke-width=".325"/><path d="M529.078 263.567h.937v19.126h-.937v-19.126Z" fill="#0F4B32" stroke="#000" stroke-width=".34"/><path d="M525.003 260.618c0 3.109 2.034 5.63 4.544 5.63 2.509 0 4.543-2.521 4.543-5.63 0-3.11-2.034-5.631-4.543-5.631-2.51 0-4.544 2.521-4.544 5.631Z" fill="#0F4B32" stroke="#000" stroke-width=".34"/><path fill-rule="evenodd" clip-rule="evenodd" d="m532.211 259.35 2.754-2.149-2.958 1.706" fill="#0F4B32"/><path d="m532.211 259.35 2.754-2.149-2.958 1.706" stroke="#000" stroke-width=".17"/><path fill-rule="evenodd" clip-rule="evenodd" d="m531.956 262.067 2.448 2.718-2.754-2.022" fill="#0F4B32"/><path d="m531.956 262.067 2.448 2.718-2.754-2.022" stroke="#000" stroke-width=".17"/><path fill-rule="evenodd" clip-rule="evenodd" d="m526.882 259.35-2.753-2.149 2.957 1.706" fill="#0F4B32"/><path d="m526.882 259.35-2.753-2.149 2.957 1.706" stroke="#000" stroke-width=".17"/><path fill-rule="evenodd" clip-rule="evenodd" d="m527.137 262.067-2.447 2.718 2.753-2.022" fill="#0F4B32"/><path d="m527.137 262.067-2.447 2.718 2.753-2.022" stroke="#000" stroke-width=".17"/></g><defs><clipPath id="a"><path fill="#fff" d="M0 0h640v480H0z"/></clipPath></defs></svg>