<svg viewBox="0 0 640 480" fill="none" xmlns="http://www.w3.org/2000/svg">
<g clip-path="url(#clip0_175_538)">
<path d="M0 0H640V480H0V0Z" fill="white"/>
<path d="M0 240H640V480H0V240Z" fill="#BF0A30"/>
<path d="M0 480H202.667L270.222 240L202.667 0H0V480Z" fill="#002868"/>
<path d="M105.6 312.004C149.782 312.004 185.599 279.768 185.599 240.003C185.599 200.238 149.782 168.002 105.6 168.002C61.4171 168.002 25.6 200.238 25.6 240.003C25.6 279.768 61.4171 312.004 105.6 312.004Z" fill="#F3E529"/>
<path d="M88.2696 201.775C91.0541 204.459 93.2419 208.262 93.2419 210.051C93.2419 212.064 95.4297 213.63 98.2142 214.077C100.999 214.524 105.175 215.866 107.761 217.208C111.142 219.221 112.733 219.221 114.523 217.208C115.916 215.643 119.496 214.524 122.678 214.524C128.048 214.524 128.446 215.195 127.65 221.01C127.054 225.931 128.048 228.391 132.424 232.417C135.407 235.101 137.993 238.904 137.993 240.693C137.993 243.153 136.799 242.482 134.214 238.904C130.832 234.207 130.634 234.207 130.832 238.009C131.031 240.469 132.424 245.166 134.015 248.521C136.004 253.442 136.203 255.231 134.015 258.139C131.429 261.718 121.087 263.06 122.877 259.481C123.473 258.363 120.291 257.692 115.518 258.139C110.347 258.363 104.977 257.244 101.198 254.784C98.0153 252.547 91.8497 250.087 87.6729 249.416C83.4962 248.521 79.5184 246.285 78.9217 244.495C78.3251 242.93 76.7339 241.364 75.1429 241.364C73.5517 241.364 67.1872 236.891 61.0215 231.523C54.8559 225.931 48.8891 222.129 48.0935 222.8C45.9057 224.142 45.5079 223.918 58.6348 234.654C64.4026 239.575 70.1705 243.601 71.5628 243.601C72.955 243.601 75.3417 245.39 76.734 247.403C80.1151 252.547 95.4298 260.152 108.159 263.06C110.943 263.731 120.092 268.204 128.645 272.901C137.197 277.598 144.954 281.624 145.55 281.624C146.346 281.624 147.142 273.796 147.34 264.402C147.738 250.534 147.142 245.837 143.959 240.022C141.771 236.22 138.589 232.417 137.197 231.746C135.407 230.852 134.81 228.615 135.407 225.931C137.197 218.103 134.412 210.274 129.241 208.709C126.656 208.038 121.286 209.156 117.308 210.946L109.949 214.524L99.2087 205.578C87.8718 196.184 79.9162 193.276 88.2696 201.775Z" fill="#002868"/>
<path d="M149.331 272.119L155.086 266.902C156.221 265.873 157.262 265.216 158.208 264.929C159.155 264.642 160.088 264.616 161.008 264.85C161.928 265.085 162.799 265.539 163.62 266.212C164.44 266.886 165.195 267.703 165.884 268.666C166.964 270.173 167.649 271.48 167.939 272.587C168.229 273.694 168.304 274.774 168.164 275.826C168.024 276.879 167.71 277.779 167.222 278.529C166.556 279.555 165.879 280.381 165.189 281.007L159.433 286.224L149.331 272.119ZM155.493 271.802L161.012 279.508L161.962 278.648C162.771 277.914 163.275 277.291 163.472 276.779C163.67 276.267 163.685 275.671 163.518 274.992C163.351 274.313 162.864 273.408 162.055 272.28C160.985 270.785 160.035 269.958 159.207 269.799C158.379 269.641 157.463 270.016 156.459 270.926L155.493 271.802ZM123.643 286.533L128.082 284.99L136.504 292.55L133.875 282.976L138.355 281.419L143.109 298.725L138.628 300.283L130.257 292.782L132.867 302.285L128.397 303.839L123.643 286.533ZM108.47 303.883L102.803 303.86L102.013 306.847L96.9283 306.826L103.039 288.737L108.465 288.759L114.457 306.898L109.251 306.877L108.47 303.883ZM107.44 299.962L105.682 293.443L103.892 299.947L107.44 299.962ZM77.3919 282.832L82.1575 284.44L78.671 297.518L86.1087 300.028L84.9697 304.3L72.7663 300.183L77.3919 282.832ZM51.085 277.757L55.0409 280.701C54.6593 281.46 54.4728 282.128 54.4812 282.703C54.4974 283.635 54.8853 284.424 55.6448 285.07C56.2115 285.551 56.7487 285.773 57.2562 285.735C57.7637 285.696 58.1499 285.48 58.4147 285.085C58.6663 284.711 58.7453 284.251 58.6518 283.707C58.5582 283.163 58.0681 282.308 57.1813 281.141C55.7359 279.222 54.8872 277.581 54.6351 276.221C54.3771 274.856 54.6277 273.608 55.3868 272.478C55.8855 271.735 56.548 271.196 57.3742 270.861C58.2004 270.525 59.1246 270.495 60.1467 270.77C61.1687 271.045 62.3487 271.751 63.6866 272.888C65.3283 274.283 66.3495 275.69 66.7501 277.11C67.1507 278.529 66.9296 280.057 66.087 281.695L62.1793 278.761C62.5169 278.026 62.6258 277.375 62.506 276.809C62.3862 276.243 62.0459 275.721 61.485 275.244C61.0234 274.852 60.6018 274.667 60.2203 274.689C59.8388 274.71 59.5421 274.879 59.3302 275.194C59.1757 275.424 59.1331 275.713 59.2024 276.061C59.2613 276.411 59.5862 276.965 60.177 277.725C61.6297 279.621 62.5868 281.103 63.0487 282.171C63.5103 283.24 63.698 284.238 63.6117 285.166C63.5254 286.094 63.2175 286.952 62.6879 287.741C62.0655 288.668 61.264 289.329 60.283 289.724C59.3021 290.119 58.267 290.17 57.1776 289.88C56.0882 289.589 54.9213 288.915 53.6769 287.857C51.4918 286 50.2963 284.241 50.0906 282.579C49.8847 280.918 50.2163 279.31 51.085 277.757ZM49.8779 256.04L53.1305 260.292L40.9267 272.108L37.6741 267.856L49.8779 256.04ZM144.914 183.572L155.79 192.25L153.801 195.405L146.993 189.972L145.512 192.32L151.828 197.36L149.928 200.373L143.612 195.334L141.776 198.246L148.781 203.836L146.672 207.182L135.599 198.347L144.914 183.572ZM114.276 173.534L119.176 174.508L118.117 181.249L124.313 175.529L130.824 176.823L123.992 182.404L128.282 194.713L122.247 193.513L120.058 185.512L117.058 187.99L116.374 192.346L111.475 191.372L114.276 173.534ZM95.8615 188.505L90.2312 189.233L89.7601 192.304L84.7082 192.957L88.8815 174.184L94.2717 173.487L102.123 190.705L96.9506 191.374L95.8615 188.505ZM94.4273 184.748L91.9987 178.507L90.903 185.204L94.4273 184.748ZM50.857 193.776L54.8347 190.911L61.1178 198.402L58.3591 188.373L62.3276 185.516L69.2767 192.527L65.8612 182.971L69.8204 180.12L75.5127 197.528L71.4055 200.486L63.5631 192.592L66.66 203.903L62.5529 206.86L50.857 193.776Z" fill="#002868"/>
<path d="M105.6 99.7998L109.637 113.776L122.7 113.777L112.132 122.415L116.168 136.391L105.6 127.754L95.0317 136.391L99.0678 122.415L88.5001 113.777L101.563 113.776L105.6 99.7998Z" fill="#F3E529"/>
<path d="M105.6 339.8L109.637 353.776L122.7 353.777L112.132 362.415L116.168 376.391L105.6 367.754L95.0317 376.391L99.0678 362.415L88.5001 353.777L101.563 353.776L105.6 339.8Z" fill="#F3E529"/>
<path d="M229.156 219.8L233.193 233.776L246.255 233.777L235.688 242.415L239.724 256.391L229.155 247.754L218.587 256.391L222.623 242.415L212.056 233.777L225.118 233.776L229.156 219.8Z" fill="#F3E529"/>
</g>
</svg>
