<svg width="62" height="65" viewBox="0 0 62 65" fill="none" xmlns="http://www.w3.org/2000/svg">
<path d="M30.833 64.809C47.716 64.809 61.4024 62.4628 61.4024 59.5686C61.4024 56.6744 47.716 54.3281 30.833 54.3281C13.95 54.3281 0.263672 56.6744 0.263672 59.5686C0.263672 62.4628 13.95 64.809 30.833 64.809Z" fill="#F7F7F7"/>
<path d="M13.3645 53.1647C13.3645 53.1647 3.17473 54.9581 2.98064 59.3252C2.78654 63.6922 15.9847 58.3081 15.9847 55.4938C15.9847 52.6795 13.3645 53.1647 13.3645 53.1647Z" fill="#CCCCCC"/>
<mask id="mask0_17749_106992" style="mask-type:luminance" maskUnits="userSpaceOnUse" x="2" y="53" width="14" height="8">
<path d="M13.365 53.1608C13.365 53.1608 3.17521 54.9542 2.98112 59.3213C2.78703 63.6883 15.9852 58.3042 15.9852 55.4899C15.9852 52.6756 13.365 53.1608 13.365 53.1608Z" fill="white"/>
</mask>
<g mask="url(#mask0_17749_106992)">
<path d="M3.33797 60.7981C3.33797 60.7981 3.29528 60.7399 3.25258 60.6196C3.23317 60.5613 3.20987 60.4837 3.19435 60.3983C3.1827 60.3129 3.16718 60.2081 3.17494 60.0994C3.17494 59.9868 3.19046 59.8704 3.21375 59.7462C3.24481 59.6258 3.272 59.49 3.33022 59.3657C3.42727 59.1057 3.58253 58.8533 3.75721 58.6243C3.84261 58.504 3.94742 58.403 4.04058 58.2982C4.13374 58.1895 4.24245 58.1041 4.34337 58.0149C4.54135 57.8363 4.75485 57.7043 4.93342 57.5879C5.01882 57.5258 5.11197 57.4908 5.18572 57.4481C5.26336 57.4093 5.32936 57.3782 5.38758 57.3511C5.50016 57.3006 5.56613 57.2734 5.56613 57.2734C5.56613 57.2734 5.51568 57.3239 5.43028 57.4132C5.34488 57.5025 5.21678 57.6189 5.06539 57.7625C4.99163 57.8363 4.914 57.9178 4.8286 57.9955C4.73932 58.0731 4.66167 58.1701 4.57239 58.2594C4.48311 58.3487 4.39383 58.4457 4.30843 58.5467C4.22303 58.6476 4.12988 58.7446 4.05612 58.8533C3.9746 58.9581 3.89308 59.063 3.82708 59.1716C3.75333 59.2803 3.69122 59.389 3.63299 59.4977C3.52042 59.7151 3.43502 59.9286 3.38844 60.1227C3.28751 60.507 3.33022 60.7942 3.33022 60.7942L3.33797 60.7981Z" fill="#989898"/>
<path d="M5.86093 61.2836C5.86093 61.2836 5.83376 61.2137 5.81435 61.0856C5.79882 61.0196 5.79106 60.9381 5.79106 60.8449C5.79106 60.7518 5.77942 60.647 5.79883 60.5344C5.81436 60.4218 5.83375 60.2976 5.85704 60.1695C5.87645 60.0375 5.9308 59.9133 5.97738 59.7774C6.03172 59.6454 6.05892 59.4941 6.14432 59.3698C6.21807 59.2417 6.29181 59.1059 6.36556 58.9739C6.43931 58.8419 6.52473 58.7138 6.62177 58.6051C6.71494 58.4887 6.81197 58.38 6.90125 58.2713C6.99442 58.1665 7.07983 58.0578 7.17687 57.9763C7.27392 57.8909 7.37097 57.8171 7.45637 57.7472C7.80574 57.4639 8.05805 57.3086 8.05805 57.3086C8.05805 57.3086 7.89113 57.5648 7.61552 57.9025C7.54565 57.9879 7.47188 58.0811 7.39037 58.1704C7.30885 58.2635 7.24676 58.38 7.16524 58.4887C7.0876 58.5973 7.00994 58.7138 6.92454 58.8264C6.83138 58.9351 6.76152 59.0554 6.69553 59.1835C6.62177 59.3038 6.54802 59.4242 6.47426 59.5445C6.39274 59.661 6.35394 59.7891 6.29183 59.9094C6.24136 60.0297 6.1676 60.1423 6.13266 60.2588C6.09384 60.3752 6.05503 60.4839 6.01621 60.581C5.97739 60.6819 5.96574 60.7789 5.93857 60.8643C5.91528 60.9497 5.89587 61.0235 5.89199 61.0856C5.8687 61.2098 5.86481 61.2875 5.86481 61.2875L5.86093 61.2836Z" fill="#989898"/>
</g>
<path d="M44.7573 55.1566C44.7573 55.1566 43.5927 58.4057 49.3689 59.8614C55.145 61.317 58.4446 62.1905 58.4912 59.9584C58.5378 57.7264 50.681 54.1357 48.445 54.4268C46.2091 54.718 44.7573 55.1527 44.7573 55.1527V55.1566Z" fill="#CCCCCC"/>
<mask id="mask1_17749_106992" style="mask-type:luminance" maskUnits="userSpaceOnUse" x="44" y="54" width="15" height="8">
<path d="M44.7578 55.1566C44.7578 55.1566 43.5932 58.4057 49.3694 59.8614C55.1455 61.317 58.4451 62.1905 58.4917 59.9584C58.5382 57.7264 50.6814 54.1357 48.4455 54.4268C46.2096 54.718 44.7578 55.1527 44.7578 55.1527V55.1566Z" fill="white"/>
</mask>
<g mask="url(#mask1_17749_106992)">
<path d="M55.3198 61.6397C55.3198 61.6397 55.1839 61.3563 54.9627 60.9526C54.854 60.7507 54.7181 60.5217 54.5745 60.2771C54.4192 60.0404 54.2639 59.7803 54.0815 59.5435C53.9107 59.295 53.7166 59.066 53.5342 58.8525C53.3478 58.6429 53.1693 58.4449 53.0023 58.2897C52.8393 58.1266 52.6996 57.9985 52.5986 57.9092C52.4977 57.8122 52.4434 57.7617 52.4434 57.7617C52.4434 57.7617 52.5171 57.7928 52.6413 57.8471C52.7694 57.9015 52.948 57.9869 53.1421 58.1189C53.243 58.181 53.3517 58.2547 53.4526 58.3401C53.5575 58.4255 53.6739 58.5109 53.7787 58.6196C53.8835 58.7244 54 58.8253 54.097 58.9496C54.1979 59.066 54.3028 59.1902 54.392 59.3183C54.7686 59.8307 55.0325 60.4169 55.1645 60.8672C55.3043 61.3213 55.3159 61.6397 55.3159 61.6397H55.3198Z" fill="#989898"/>
<path d="M57.3267 61.799C57.3267 61.799 57.3112 61.7058 57.2763 61.5467C57.2452 61.3875 57.187 61.1624 57.1016 60.8984C57.0628 60.7664 57.0123 60.6267 56.958 60.4792C56.9036 60.3317 56.8337 60.1842 56.7678 60.025C56.6901 59.8736 56.6202 59.7145 56.5271 59.5631L56.3951 59.3302L56.2398 59.1089C56.1467 58.9536 56.0263 58.8216 55.9176 58.6819C55.8089 58.5422 55.6809 58.4257 55.5644 58.2976C55.4479 58.1734 55.316 58.0763 55.2034 57.9676C55.0908 57.859 54.9627 57.7813 54.854 57.6959C54.7414 57.6183 54.6483 57.529 54.5474 57.4708C54.4503 57.4087 54.3688 57.3582 54.2989 57.3155C54.1592 57.2262 54.0815 57.1719 54.0815 57.1719C54.0815 57.1719 54.1708 57.1952 54.33 57.2495C54.4076 57.2767 54.5047 57.3077 54.6134 57.3466C54.7259 57.3776 54.8385 57.4436 54.9666 57.5096C55.0947 57.5756 55.2383 57.6377 55.3703 57.7386C55.5023 57.8357 55.6575 57.925 55.7895 58.0492C55.9176 58.1773 56.0729 58.286 56.1933 58.4374C56.3136 58.5849 56.4495 58.7246 56.5543 58.8915L56.7134 59.1322L56.8493 59.3845C56.9463 59.5476 57.0045 59.73 57.0744 59.8969C57.1947 60.2385 57.2763 60.5646 57.3073 60.8518C57.35 61.1352 57.3423 61.3759 57.3384 61.5428C57.3306 61.7097 57.3112 61.8029 57.3112 61.8029L57.3267 61.799Z" fill="#989898"/>
</g>
<path d="M20.643 4.157C20.643 4.157 33.356 1.82791 53.5415 10.465C53.5415 10.465 50.9212 29.8741 52.7651 56.2704C52.7651 56.2704 30.9299 58.6966 9.77393 55.2029C9.77393 55.2029 11.1326 21.7222 20.643 4.157Z" fill="#CCCCCC"/>
<path d="M37.8513 5.67707C37.8513 5.67707 37.5912 3.99625 36.1704 1.98934C34.7497 -0.0175566 32.4827 0.758807 33.6472 2.63761C34.8118 4.51641 35.266 5.22678 35.266 5.22678C35.266 5.22678 33.197 5.87505 33.8413 7.16769C34.4857 8.46034 36.8187 7.23368 36.8187 7.23368" fill="#989898"/>
<path d="M33.7442 12.4384C33.7442 12.4384 30.9299 4.83781 25.6894 5.80826C20.4489 6.77872 17.9258 16.1921 19.1874 25.8967C20.4489 35.6012 17.3435 37.154 16.276 41.7151C15.2085 46.2762 16.5671 52.6812 28.6978 53.8458C40.8285 55.0103 46.166 49.5758 45.2926 41.8122C44.4192 34.0485 48.1069 27.5465 49.2715 23.1794C50.436 18.8124 51.2124 9.88418 44.3221 9.69008C37.4319 9.49599 35.4599 12.7955 35.4599 12.7955L33.7442 12.4384Z" fill="#EBEBEB"/>
<path d="M18.4117 23.8086C18.4117 23.8086 24.8633 33.4161 23.7492 41.7115C23.7492 41.7115 19.2851 41.0827 14.3862 35.9393" fill="#CCCCCC"/>
<path d="M47.7188 29.2461C47.7188 29.2461 39.2253 37.1068 37.8667 43.6088C37.8667 43.6088 41.7951 45.3052 47.3772 41.1361" fill="#CCCCCC"/>
<path d="M35.2313 12.3242C35.2313 12.3242 31.6717 11.4198 30.7983 13.3917C29.9249 15.3637 31.4776 17.4676 33.9348 18.0189C36.392 18.5701 38.624 17.4366 38.5619 15.5617C38.4998 13.6867 36.555 12.7473 35.2313 12.3281V12.3242Z" fill="#CCCCCC"/>
<mask id="mask2_17749_106992" style="mask-type:luminance" maskUnits="userSpaceOnUse" x="30" y="12" width="9" height="7">
<path d="M35.2308 12.3203C35.2308 12.3203 31.6712 11.4159 30.7978 13.3878C29.9244 15.3598 31.4771 17.4637 33.9343 18.015C36.3915 18.5662 38.6235 17.4327 38.5614 15.5578C38.4993 13.6828 36.5545 12.7434 35.2308 12.3242V12.3203Z" fill="white"/>
</mask>
<g mask="url(#mask2_17749_106992)">
<path d="M31.1235 12.2617C31.1235 12.2617 31.1934 12.3976 31.3215 12.6383C31.4457 12.8789 31.6437 13.2089 31.8844 13.5971C32.1289 13.9852 32.4472 14.4161 32.8393 14.816C33.0295 15.0217 33.2546 15.2003 33.4914 15.3594C33.6079 15.4409 33.7399 15.4992 33.8641 15.5651L34.0621 15.635L34.1475 15.6661L34.2601 15.6855L34.4891 15.7282L34.6987 15.7359C34.8346 15.7515 34.9859 15.7359 35.1296 15.7282C35.4207 15.7049 35.708 15.6544 35.9836 15.5962C36.2592 15.5263 36.5231 15.4565 36.7755 15.3788C37.0239 15.2973 37.2607 15.2158 37.4742 15.1304C37.9012 14.9596 38.2583 14.816 38.5029 14.7034C38.7474 14.5908 38.8911 14.5248 38.8911 14.5248C38.8911 14.5248 38.3981 14.9052 37.5635 15.3284C37.3539 15.4332 37.1209 15.538 36.8725 15.6428C36.6241 15.7437 36.3562 15.8446 36.069 15.9262C35.7817 15.9999 35.4828 16.0737 35.1645 16.1008C35.0053 16.1086 34.8501 16.1319 34.6793 16.1164L34.427 16.1047L34.1979 16.0659L34.0854 16.0426C34.0194 16.0271 34 16.0154 33.9534 15.9999L33.7166 15.9145C33.5691 15.8408 33.4216 15.767 33.2896 15.6738C33.0256 15.4914 32.7927 15.2779 32.5947 15.0489C32.389 14.8276 32.2298 14.5908 32.0823 14.3657C31.9348 14.1366 31.8106 13.9154 31.7019 13.7058C31.4845 13.2904 31.3526 12.9216 31.2555 12.6693C31.1662 12.4131 31.1274 12.2617 31.1274 12.2617H31.1235Z" fill="#989898"/>
</g>
<path d="M34.3853 12.8088C34.3853 12.8088 34.3388 13.0029 34.2107 13.1193C34.0942 13.2474 33.904 13.2979 33.9001 13.294C33.8962 13.2901 33.9467 13.0999 34.0748 12.9835C34.1912 12.8593 34.3815 12.8049 34.3853 12.8088Z" fill="#989898"/>
<path d="M35.3284 13.0547C35.3284 13.0547 35.3673 13.0974 35.4061 13.1634C35.441 13.2294 35.4798 13.3187 35.4992 13.4118C35.5186 13.505 35.5186 13.602 35.507 13.6797C35.4992 13.7534 35.4759 13.8078 35.4759 13.8078C35.4759 13.8078 35.4371 13.7651 35.3983 13.6991C35.3634 13.6331 35.3246 13.5438 35.3051 13.4506C35.2857 13.3575 35.2896 13.2604 35.2974 13.1828C35.3051 13.109 35.3284 13.0547 35.3284 13.0547Z" fill="#989898"/>
<path d="M45.6111 21.4604C45.5179 21.9806 44.3106 22.198 42.9132 21.9534C41.5157 21.705 40.456 21.0839 40.5453 20.5676C40.6385 20.0474 41.8457 19.8262 43.2431 20.0746C44.6406 20.3231 45.7003 20.9441 45.6072 21.4643L45.6111 21.4604Z" fill="#CCCCCC"/>
<path d="M26.4778 18.1284C26.3846 18.6486 25.1774 18.8659 23.7799 18.6214C22.3825 18.373 21.3227 17.7519 21.412 17.2356C21.5052 16.7154 22.7124 16.4942 24.1099 16.7426C25.5073 16.991 26.5671 17.6121 26.4739 18.1323L26.4778 18.1284Z" fill="#CCCCCC"/>
<path d="M25.3364 7.5467C25.3364 7.5467 25.3558 7.50012 25.414 7.42249C25.4451 7.38755 25.4801 7.34096 25.5305 7.29826C25.581 7.25945 25.6353 7.20122 25.7052 7.1624C25.7751 7.12359 25.8488 7.06536 25.9381 7.03818C26.0274 7.00713 26.1205 6.96054 26.2215 6.94502C26.3224 6.92949 26.4272 6.89844 26.5359 6.89844C26.6446 6.89844 26.7533 6.89844 26.862 6.89844C26.9978 6.91396 27.0716 6.93726 27.1764 6.95278C27.2696 6.96055 27.3821 7.0149 27.4792 7.05371C27.584 7.08865 27.6694 7.14299 27.747 7.20122C27.8285 7.2478 27.8945 7.31379 27.9528 7.37202C28.0149 7.42637 28.0537 7.49236 28.0925 7.5467C28.1313 7.59716 28.1507 7.65927 28.1702 7.69809C28.2051 7.78737 28.209 7.84172 28.209 7.84172C28.209 7.84172 28.174 7.79902 28.108 7.74468C28.0382 7.68645 27.9411 7.61269 27.8169 7.5467C27.6927 7.48071 27.5374 7.41472 27.3744 7.3759C27.2929 7.35649 27.2191 7.32932 27.1143 7.31767C27.0211 7.30603 26.8969 7.28274 26.8309 7.27885C26.6407 7.26333 26.4544 7.25945 26.2797 7.27109C26.1904 7.27109 26.1089 7.29439 26.0274 7.30215C25.9459 7.30991 25.876 7.33708 25.8022 7.35261C25.5227 7.42636 25.3403 7.53894 25.3403 7.53894L25.3364 7.5467Z" fill="#989898"/>
<path d="M46.5119 11.6318C46.5119 11.6318 46.3837 11.461 46.1547 11.2825C46.0926 11.2436 46.0383 11.1893 45.9645 11.1505C45.8908 11.1117 45.8248 11.0612 45.7432 11.0263C45.5841 10.9447 45.4094 10.8788 45.2309 10.8205C45.1688 10.7972 45.0445 10.7701 44.9552 10.7468C44.8543 10.7157 44.7767 10.7118 44.6913 10.7002C44.5282 10.673 44.3574 10.673 44.2177 10.6885C44.0741 10.7002 43.9576 10.7312 43.8722 10.7584C43.7868 10.7856 43.7402 10.8089 43.7402 10.8089C43.7402 10.8089 43.7635 10.7623 43.8295 10.6924C43.8644 10.6614 43.9033 10.6148 43.9615 10.5799C44.0158 10.5449 44.078 10.4983 44.1595 10.4712C44.2371 10.4362 44.3225 10.4013 44.4157 10.3896C44.5088 10.3702 44.6098 10.3469 44.7185 10.3586C44.8233 10.3586 44.9475 10.3547 45.0368 10.3819C45.1416 10.4052 45.2192 10.4129 45.3473 10.4518C45.4482 10.4945 45.5492 10.5333 45.6501 10.5721C45.7471 10.6148 45.8364 10.6847 45.9218 10.7351C46.0111 10.7856 46.0771 10.8671 46.147 10.9292C46.2207 10.9874 46.2673 11.0728 46.3178 11.135C46.3682 11.1971 46.3954 11.2708 46.4264 11.329C46.4575 11.3873 46.4692 11.4455 46.4847 11.4882C46.508 11.5814 46.508 11.6318 46.508 11.6318H46.5119Z" fill="#989898"/>
<path d="M29.1323 13.514C28.7325 14.8804 27.6223 15.847 26.318 16.1187C25.7357 16.2468 25.1146 16.2352 24.5013 16.0566C22.5216 15.4783 21.3803 13.4054 21.9548 11.4256C22.5332 9.4459 24.6061 8.30464 26.5897 8.87915C27.1953 9.05772 27.7232 9.37602 28.1463 9.7875C29.1052 10.7191 29.5321 12.1399 29.1323 13.514Z" fill="white"/>
<path d="M29.1326 13.5146C28.7328 14.881 27.6226 15.8476 26.3183 16.1193C24.8122 15.5914 23.997 13.8523 24.49 12.156C24.983 10.4635 26.5939 9.43481 28.1467 9.78805C29.1055 10.7197 29.5325 12.1404 29.1326 13.5146Z" fill="#989898"/>
<path d="M21.9556 11.4279C21.9556 11.4279 21.9672 11.3657 21.9944 11.2532C22.0138 11.1367 22.0565 10.9737 22.138 10.7641C22.2195 10.5583 22.3321 10.3138 22.5068 10.0498C22.6892 9.79749 22.9105 9.51024 23.221 9.26957C23.5238 9.02113 23.8926 8.7921 24.3196 8.63295C24.7466 8.47767 25.2318 8.38063 25.7365 8.39616C25.9888 8.40004 26.245 8.42721 26.4973 8.48544L26.6875 8.52426L26.8816 8.58637C26.9981 8.62907 27.1028 8.65236 27.2309 8.71835C27.755 8.94738 28.1743 9.25792 28.5624 9.66551C28.644 9.76256 28.7255 9.83631 28.807 9.95276L29.0477 10.306C29.1292 10.4225 29.1719 10.5467 29.2379 10.667C29.3 10.7874 29.3543 10.9077 29.3931 11.0358C29.595 11.5327 29.6299 12.0684 29.6183 12.5691C29.5911 12.8214 29.5833 13.0699 29.5057 13.2989C29.4708 13.4231 29.4552 13.5163 29.4009 13.6599C29.3582 13.7608 29.3155 13.8579 29.2767 13.9549L29.2146 14.0986L29.1292 14.2499C29.0709 14.347 29.0127 14.444 28.9584 14.5411C28.8303 14.7158 28.6983 14.871 28.5702 15.0185C28.4227 15.1505 28.2946 15.2864 28.151 15.3912C28.0035 15.4882 27.8676 15.5892 27.7317 15.6668C27.592 15.7367 27.46 15.7988 27.3397 15.8609C27.2154 15.9114 27.0951 15.9424 26.9903 15.9774C26.7845 16.055 26.606 16.0589 26.4934 16.0822C26.377 16.1016 26.3187 16.1093 26.3187 16.1093C26.3187 16.1093 26.377 16.086 26.4856 16.0395C26.5905 15.9929 26.7535 15.9424 26.9359 15.8298C27.0291 15.7755 27.1339 15.725 27.2387 15.6552C27.3396 15.5814 27.4522 15.4999 27.5687 15.4145C27.6813 15.3213 27.7861 15.2126 27.9064 15.1039C28.0151 14.9875 28.1199 14.8555 28.2325 14.7235C28.3256 14.576 28.4305 14.4246 28.5159 14.2655C28.5547 14.1839 28.5935 14.1024 28.6284 14.0209L28.6905 13.8967L28.7371 13.7453C28.7682 13.6444 28.8031 13.5435 28.8341 13.4386C28.8497 13.3765 28.8652 13.2484 28.8846 13.1592C28.9273 12.9612 28.9312 12.7516 28.939 12.5419C28.9273 12.1227 28.8613 11.6918 28.6944 11.2881C28.6633 11.1833 28.6168 11.0863 28.5624 10.9892C28.5081 10.8961 28.4654 10.7874 28.4072 10.702L28.2286 10.4458C28.1704 10.3604 28.0694 10.2672 27.9918 10.174C27.7123 9.8596 27.3241 9.56847 26.9631 9.40543C26.8777 9.35497 26.7457 9.32003 26.637 9.27345L26.5555 9.2424L26.5128 9.22687L26.4934 9.2191H26.4818L26.4779 9.21134C26.4546 9.20358 26.5012 9.2191 26.4973 9.21522L26.342 9.17252C26.1363 9.11041 25.9228 9.07936 25.7132 9.06383C25.2939 9.03277 24.8825 9.06771 24.5059 9.16864C24.1294 9.27345 23.7878 9.42872 23.4889 9.61505C22.895 9.98382 22.5068 10.4613 22.2816 10.8145C22.2273 10.9038 22.1768 10.9853 22.1341 11.0552C22.0953 11.1328 22.0642 11.195 22.041 11.2493C21.9905 11.3541 21.9633 11.4084 21.9633 11.4084L21.9556 11.4279Z" fill="#989898"/>
<path d="M46.9228 16.4281C46.523 17.7945 45.4128 18.7611 44.1085 19.0328C43.5263 19.1609 42.9052 19.1493 42.2918 18.9707C40.3121 18.3923 39.1709 16.3194 39.7454 14.3397C40.3238 12.36 42.3966 11.2187 44.3803 11.7932C44.9858 11.9718 45.5137 12.2901 45.9368 12.7016C46.8957 13.6332 47.3227 15.0539 46.9228 16.4281Z" fill="white"/>
<path d="M46.9232 16.4248C46.5233 17.7912 45.4131 18.7577 44.1088 19.0295C42.6027 18.5015 41.7875 16.7625 42.2805 15.0661C42.7735 13.3736 44.3844 12.345 45.9372 12.6982C46.896 13.6298 47.323 15.0506 46.9232 16.4248Z" fill="#989898"/>
<path d="M39.7461 14.338C39.7461 14.338 39.7577 14.2759 39.7849 14.1633C39.8043 14.0469 39.847 13.8838 39.9285 13.6742C40.01 13.4685 40.1226 13.2239 40.2973 12.96C40.4798 12.7076 40.701 12.4204 41.0115 12.1797C41.3143 11.9313 41.6831 11.7023 42.1101 11.5431C42.5371 11.3878 43.0223 11.2908 43.527 11.3063C43.7793 11.3102 44.0355 11.3374 44.2878 11.3956L44.478 11.4344L44.6721 11.4965C44.7886 11.5392 44.8934 11.5625 45.0215 11.6285C45.5455 11.8575 45.9648 12.172 46.3529 12.5757C46.4345 12.6727 46.516 12.7465 46.5975 12.8629L46.8382 13.2162C46.9197 13.3326 46.9624 13.4568 47.0284 13.5772C47.0905 13.6975 47.1448 13.8179 47.1837 13.946C47.3855 14.4428 47.4205 14.9785 47.4088 15.4793C47.3816 15.7316 47.3739 15.98 47.2962 16.2091C47.2613 16.3333 47.2458 16.4264 47.1914 16.5701C47.1487 16.671 47.106 16.768 47.0672 16.8651L47.0051 17.0087L46.9197 17.1601C46.8615 17.2571 46.8032 17.3542 46.7489 17.4512C46.6247 17.6259 46.4888 17.7812 46.3607 17.9287C46.2132 18.0607 46.0851 18.1965 45.9415 18.3014C45.794 18.3984 45.6581 18.4993 45.5222 18.577C45.3825 18.6468 45.2505 18.7089 45.1302 18.7711C45.006 18.8215 44.8856 18.8526 44.7808 18.8875C44.5751 18.9651 44.3965 18.969 44.2839 18.9923C44.1675 19.0117 44.1093 19.0195 44.1093 19.0195C44.1093 19.0195 44.1675 18.9962 44.2762 18.9496C44.381 18.903 44.544 18.8526 44.7265 18.74C44.8196 18.6857 44.9244 18.6352 45.0292 18.5653C45.1302 18.4916 45.2427 18.41 45.3592 18.3246C45.4718 18.2315 45.5766 18.1228 45.6969 18.0141C45.8056 17.8976 45.9104 17.7657 46.023 17.6337C46.1162 17.4862 46.221 17.3348 46.3064 17.1756C46.3452 17.0941 46.384 17.0126 46.4189 16.9311L46.481 16.8069L46.5276 16.6555C46.5587 16.5545 46.5936 16.4536 46.6247 16.3488C46.6402 16.2867 46.6557 16.1586 46.6751 16.0693C46.7178 15.8713 46.7217 15.6617 46.7295 15.4521C46.7178 15.0329 46.6518 14.602 46.4849 14.1983C46.4539 14.0935 46.4073 13.9964 46.3529 13.8994C46.2986 13.8062 46.2559 13.6975 46.1977 13.6121L46.0191 13.3559C45.9609 13.2705 45.86 13.1774 45.7823 13.0842C45.5028 12.7698 45.1146 12.4786 44.7536 12.3156C44.6682 12.2651 44.5363 12.2302 44.4276 12.1836L44.3422 12.1526L44.2995 12.137L44.2801 12.1293H44.2684L44.2645 12.1215C44.2412 12.1137 44.2878 12.1293 44.2839 12.1254L44.1287 12.0827C43.9229 12.0206 43.7094 11.9895 43.4998 11.974C43.0806 11.9429 42.6691 11.9779 42.2926 12.0788C41.916 12.1836 41.5744 12.3389 41.2755 12.5252C40.6816 12.894 40.2934 13.3714 40.0683 13.7247C40.0139 13.814 39.9635 13.8955 39.9208 13.9654C39.8819 14.043 39.8509 14.1051 39.8276 14.1595C39.7771 14.2643 39.75 14.3186 39.75 14.3186L39.7461 14.338Z" fill="#989898"/>
</svg>
