<svg width="65" height="72" viewBox="0 0 65 72" fill="none" xmlns="http://www.w3.org/2000/svg">
<path d="M31.752 71.1848C48.197 71.1848 61.5283 69.6927 61.5283 67.8522C61.5283 66.0116 48.197 64.5195 31.752 64.5195C15.3069 64.5195 1.97559 66.0116 1.97559 67.8522C1.97559 69.6927 15.3069 71.1848 31.752 71.1848Z" fill="#F7F7F7"/>
<path d="M37.1851 66.6203C37.1851 66.6203 51.0227 67.707 58.5574 66.6927C58.5574 66.6927 59.4268 57.7815 58.5574 53.7969C58.5574 53.7969 57.3258 54.5214 56.6013 55.3907C56.6013 55.3907 46.6758 56.1152 39.8657 55.5356L37.1851 66.6203Z" fill="#EBEBEB"/>
<path d="M41.5813 27.5725C41.5813 27.5725 44.6734 30.7109 48.7769 30.7602C52.8833 30.8095 54.1381 29.6503 56.4565 27.9579C58.7748 26.2655 61.1888 25.9293 63.171 27.0885C65.1532 28.2477 65.9733 32.9337 62.1075 36.6025C58.2416 40.2713 52.9789 43.4126 45.3486 42.3491C37.7184 41.2855 41.5813 27.5696 41.5813 27.5696V27.5725Z" fill="#EBEBEB"/>
<mask id="mask0_17749_106948" style="mask-type:luminance" maskUnits="userSpaceOnUse" x="40" y="26" width="25" height="17">
<path d="M41.5803 27.5647C41.5803 27.5647 44.6724 30.7031 48.7759 30.7524C52.8823 30.8017 54.1371 29.6425 56.4555 27.9501C58.7738 26.2577 61.1878 25.9215 63.17 27.0807C65.1522 28.2399 65.9723 32.9259 62.1065 36.5947C58.2406 40.2635 52.978 43.4048 45.3477 42.3413C37.7174 41.2777 41.5803 27.5618 41.5803 27.5618V27.5647Z" fill="white"/>
</mask>
<g mask="url(#mask0_17749_106948)">
<path d="M60.6921 26.0469C60.6921 26.0469 60.5762 26.2265 60.3762 26.47C60.1762 26.7134 59.8951 27.0206 59.5967 27.3104C59.2982 27.6002 58.9823 27.8726 58.7331 28.0638C58.4838 28.2551 58.3013 28.3652 58.3013 28.3652C58.3013 28.3652 58.4172 28.1856 58.6171 27.9421C58.8171 27.6987 59.0982 27.3915 59.3967 27.1017C59.6952 26.8119 60.0111 26.5395 60.2603 26.3483C60.5095 26.1541 60.6921 26.0469 60.6921 26.0469Z" fill="#989898"/>
<path d="M62.7587 26.5195C62.7587 26.5195 62.6775 26.6818 62.5268 26.8992C62.3761 27.1165 62.1588 27.3918 61.9241 27.6497C61.6893 27.9076 61.4343 28.1482 61.2315 28.3192C61.0286 28.4901 60.875 28.5858 60.875 28.5858C60.875 28.5858 60.9561 28.4235 61.1068 28.2061C61.2575 27.9888 61.4749 27.7135 61.7096 27.4556C61.9472 27.1977 62.1994 26.9571 62.4022 26.789C62.6051 26.6181 62.7587 26.5224 62.7587 26.5224V26.5195Z" fill="#989898"/>
<path d="M64.5346 27.3867C64.5346 27.3867 64.439 27.5635 64.268 27.804C64.097 28.0445 63.8536 28.3517 63.5928 28.6415C63.3291 28.9313 63.048 29.2037 62.8248 29.3979C62.6017 29.5921 62.4336 29.7051 62.4336 29.7051C62.4336 29.7051 62.5292 29.5283 62.7002 29.2878C62.8712 29.0443 63.1146 28.7401 63.3754 28.4503C63.6391 28.1605 63.9202 27.8881 64.1434 27.6939C64.3665 27.4997 64.5317 27.3867 64.5317 27.3867H64.5346Z" fill="#989898"/>
<path d="M65.5115 29.5586C65.5115 29.5586 65.41 29.7441 65.2275 29.9933C65.0478 30.2454 64.7899 30.5642 64.5146 30.8685C64.2393 31.1698 63.9437 31.4596 63.7089 31.6625C63.4771 31.8683 63.3032 31.9871 63.3032 31.9871C63.3032 31.9871 63.4046 31.8016 63.5872 31.5524C63.7669 31.3003 64.0248 30.9815 64.3001 30.6772C64.5754 30.3758 64.871 30.086 65.1057 29.8832C65.3376 29.6774 65.5115 29.5586 65.5115 29.5586Z" fill="#989898"/>
</g>
<path d="M59.0997 34.8413C60.521 34.8413 61.6731 33.6736 61.6731 32.2331C61.6731 30.7927 60.521 29.625 59.0997 29.625C57.6785 29.625 56.5264 30.7927 56.5264 32.2331C56.5264 33.6736 57.6785 34.8413 59.0997 34.8413Z" fill="#CCCCCC"/>
<path d="M5.35706 59.739C5.35706 59.739 3.4734 56.2122 1.73463 57.6148C-0.00413358 59.0174 0.479823 66.6941 5.79175 67.0824C11.1037 67.4707 9.99377 62.7355 9.99377 62.7355L5.35706 59.7419V59.739Z" fill="#EBEBEB"/>
<path d="M43.7549 66.8867C43.6014 66.9562 43.3927 67.0258 43.1348 67.0895C42.361 67.2866 41.141 67.4634 39.6109 67.6199C37.4896 67.8314 34.7713 67.9995 31.8183 68.1125C22.91 68.4487 11.8892 68.269 8.78546 67.2721C7.23796 66.7766 6.06139 65.6522 5.32821 63.9047C4.67038 62.3398 4.36899 60.2765 4.47042 57.7089C4.6327 53.6489 5.80927 48.337 8.20587 41.7702C13.8076 26.4111 20.8612 17.8129 20.8612 17.8129C32.934 13.2747 42.2074 25.8315 42.2074 25.8315C42.2074 25.8315 43.1435 29.3757 44.2766 34.1486C44.9141 36.8263 45.6125 39.8894 46.2472 42.9294C46.9977 46.5402 47.6556 50.1192 48.0033 52.9795C49.1625 62.5427 46.9427 65.4406 43.7549 66.8896V66.8867Z" fill="#EBEBEB"/>
<path d="M39.6108 67.6238C37.4895 67.8354 34.7712 68.0035 31.8182 68.1165C25.4485 54.7077 28.5638 40.6817 34.9393 40.1079C41.3872 39.5283 44.1403 48.8017 44.2852 57.568C44.3866 63.6884 41.4133 66.4907 39.6108 67.6238Z" fill="#CCCCCC"/>
<path d="M19.3631 34.4557C19.3631 34.4557 23.1304 32.6445 24.7968 38.8751C26.4631 45.1057 27.912 50.974 31.8967 56.4077C35.8814 61.8413 31.6794 67.5648 26.1733 65.9709C20.6672 64.377 12.0458 50.974 15.6682 36.5568" fill="#EBEBEB"/>
<path d="M19.3513 34.4265C19.3513 34.4265 19.4179 34.3917 19.5541 34.3396C19.6904 34.2932 19.8961 34.2208 20.1743 34.1802C20.3134 34.1483 20.4728 34.1541 20.6438 34.1367C20.8177 34.1512 21.0089 34.1367 21.2118 34.186C21.6233 34.241 22.0754 34.4265 22.5216 34.7192C23.4142 35.322 24.1706 36.4435 24.6632 37.8171C24.7762 38.1649 24.8951 38.5242 25.0139 38.8922C25.1182 39.2603 25.2225 39.6399 25.3326 40.0311C25.5442 40.8136 25.776 41.6308 26.0195 42.4828C26.4976 44.1897 27.0801 46.0125 27.7379 47.928C27.9205 48.3975 28.1089 48.8757 28.2972 49.3596C28.3929 49.6001 28.4769 49.8494 28.5783 50.0899C28.6856 50.3304 28.7928 50.571 28.9029 50.8115C29.1232 51.2925 29.3318 51.791 29.5694 52.2749C29.8274 52.7531 30.0853 53.2342 30.3461 53.721C30.5924 54.2166 30.9054 54.6773 31.2097 55.1497C31.514 55.6221 31.8211 56.0915 32.1428 56.5697C32.4703 57.0363 32.7543 57.5579 32.9803 58.094C33.2122 58.6301 33.3773 59.1981 33.473 59.7806C33.67 60.9427 33.5425 62.183 33.0238 63.2726C32.5225 64.3652 31.6357 65.2896 30.5431 65.8315C29.4535 66.385 28.1842 66.5444 26.9816 66.3676C26.6744 66.3271 26.3962 66.2575 26.0803 66.1764C25.8021 66.0836 25.5239 65.9967 25.2399 65.8547C24.9472 65.7359 24.7009 65.5736 24.4343 65.4316C24.188 65.2635 23.9271 65.1128 23.6924 64.9274C22.7361 64.2174 21.8986 63.3828 21.1451 62.5076C20.3917 61.6295 19.7222 60.7022 19.1195 59.7545C18.508 58.8127 17.998 57.8332 17.5343 56.8595C17.0648 55.8887 16.6823 54.9034 16.3316 53.9413C15.6477 52.0054 15.2014 50.1073 14.9406 48.3366C14.674 46.566 14.5871 44.9229 14.6276 43.471C14.6218 43.1087 14.6566 42.7581 14.6711 42.419C14.6856 42.08 14.7059 41.7554 14.7436 41.4424C14.7754 41.1295 14.8044 40.831 14.8334 40.5441C14.8769 40.2601 14.9174 39.9877 14.958 39.7326C15.0276 39.2168 15.1319 38.7647 15.2101 38.3677C15.2826 37.9707 15.3666 37.6374 15.4391 37.3708C15.5753 36.8318 15.6477 36.5449 15.6477 36.5449L15.7028 36.5594C15.7028 36.5594 15.6448 36.8492 15.5376 37.394C15.4825 37.6664 15.4159 37.9997 15.3637 38.3967C15.3058 38.7937 15.2275 39.2487 15.1841 39.7616C15.158 40.0166 15.129 40.2891 15.1 40.5702C15.0826 40.8542 15.0623 41.1526 15.0449 41.4627C15.0218 41.7728 15.0102 42.0945 15.0102 42.4306C15.0102 42.7668 14.987 43.1116 15.0044 43.471C15.0276 44.9026 15.1406 46.5196 15.442 48.2555C15.7434 49.9914 16.2244 51.8403 16.8909 53.7413C17.572 55.6366 18.4819 57.5666 19.6324 59.4358C20.7887 61.2905 22.1971 63.1161 24.0025 64.5188C24.2227 64.7013 24.4662 64.8462 24.698 65.0143C24.9443 65.1505 25.1849 65.3157 25.437 65.4229C25.5645 65.4809 25.6775 65.5504 25.8195 65.5968L26.2339 65.7475C26.486 65.817 26.7787 65.8982 27.054 65.9388C28.1726 66.1416 29.3637 66.0315 30.4069 65.5446C31.4502 65.0636 32.3225 64.2145 32.8325 63.177C33.3426 62.1366 33.4817 60.9398 33.302 59.8067C33.2209 59.2387 33.0412 58.6881 32.8093 58.1665C32.5775 57.6419 32.3051 57.1522 31.9689 56.6885C31.6444 56.219 31.3227 55.7496 31.001 55.2859C30.6765 54.8222 30.3461 54.3673 30.0795 53.8746C29.7984 53.3936 29.5202 52.9154 29.2449 52.443C28.987 51.9591 28.7609 51.4664 28.5204 50.9854C28.4016 50.7448 28.2857 50.5043 28.1668 50.2667C28.0567 50.0261 27.9611 49.7798 27.8597 49.5364C27.6626 49.0495 27.4713 48.5685 27.2801 48.0932C27.1062 47.6122 26.9468 47.1369 26.7816 46.6674C26.6193 46.198 26.4542 45.7372 26.3266 45.2764C26.0571 44.3549 25.7876 43.4681 25.5674 42.6074C25.3355 41.7496 25.1153 40.9266 24.9153 40.1442C24.8139 39.7529 24.7183 39.3704 24.6227 38.9995C24.5183 38.6372 24.414 38.2837 24.3155 37.9417C24.1996 37.6056 24.0633 37.2926 23.9445 36.9854C23.7909 36.6956 23.6547 36.4058 23.4925 36.1508C23.3128 35.9074 23.1679 35.6465 22.965 35.4582C22.8694 35.3597 22.7825 35.2524 22.6868 35.1626C22.5854 35.0785 22.484 34.9974 22.3883 34.9192C21.9855 34.6236 21.5711 34.4265 21.1886 34.357C21.0002 34.299 20.8148 34.3048 20.6496 34.2816C20.4844 34.2874 20.3308 34.2758 20.1946 34.2961C19.9222 34.3164 19.7193 34.3744 19.5831 34.4091C19.4498 34.4497 19.3803 34.4787 19.3803 34.4787L19.3571 34.4265H19.3513Z" fill="#989898"/>
<path d="M9.55908 67.4198C9.55908 67.4198 17.9139 69.4977 33.612 68.5298C33.612 68.5298 35.1103 60.9951 33.4179 55.1992C33.4179 55.1992 32.2094 55.6832 31.34 57.3727C31.34 57.3727 17.6241 57.2278 15.4013 57.0829C13.1786 56.938 11.7296 58.2421 11.4891 58.9173" fill="#EBEBEB"/>
<path d="M9.56524 67.3937C10.0608 67.4894 10.5592 67.5502 11.0519 67.6343L12.5472 67.8197C13.0428 67.8922 13.5441 67.9328 14.0455 67.982L15.5437 68.1269C16.045 68.1675 16.5464 68.1878 17.0448 68.2255L18.546 68.324C19.0473 68.3646 19.5487 68.379 20.05 68.3935L21.554 68.4428L23.0581 68.5037L24.5621 68.5239C25.5648 68.5355 26.5704 68.5616 27.576 68.5819C28.0773 68.6022 28.5815 68.5819 29.0829 68.5732L30.5898 68.5442C31.5954 68.5181 32.601 68.4892 33.6037 68.4486L33.5225 68.521C33.6269 67.9762 33.7051 67.4198 33.7747 66.8663C33.8442 66.3128 33.9022 65.7564 33.9485 65.2C33.9775 64.9218 33.9862 64.6436 34.0036 64.3654C34.021 64.0872 34.0297 63.809 34.0384 63.5279C34.0471 63.2497 34.0587 62.9715 34.0558 62.6904C34.0558 62.4122 34.0616 62.134 34.0558 61.8529L34.0297 61.0183C34.021 60.7401 33.9949 60.4619 33.9804 60.1865C33.9659 59.9083 33.9427 59.6301 33.9109 59.3548C33.8819 59.0795 33.8616 58.8013 33.8239 58.526L33.7022 57.703C33.6703 57.4277 33.6008 57.1582 33.5486 56.8887C33.4936 56.6192 33.4443 56.3468 33.3661 56.0802L33.1574 55.2803L33.5138 55.4542C33.4762 55.4687 33.4211 55.5035 33.3718 55.5267C33.3226 55.5527 33.2733 55.5875 33.224 55.6194C33.1226 55.6774 33.0328 55.7585 32.9343 55.8251C32.8386 55.8947 32.7546 55.9845 32.6647 56.0599C32.572 56.1352 32.4967 56.228 32.4126 56.3178C32.3344 56.4076 32.2445 56.4917 32.1779 56.5931L31.9634 56.8858C31.8881 56.9785 31.8388 57.0944 31.7751 57.1959L31.5925 57.5117L31.4998 57.6711H31.3288L28.767 57.6537L26.2052 57.6219C25.3503 57.6045 24.4983 57.5958 23.6405 57.5668L21.0759 57.477C19.3661 57.4132 17.6563 57.3582 15.9494 57.2741L15.3148 57.2451L14.996 57.2306L14.6888 57.2393C14.2773 57.2625 13.8658 57.3379 13.4688 57.4654C13.0718 57.5929 12.6921 57.7784 12.3502 58.0189C12.1792 58.1377 12.0169 58.2739 11.872 58.4246C11.7242 58.5724 11.5909 58.7405 11.5098 58.9317L11.4547 58.9115C11.5271 58.7028 11.6518 58.5173 11.7909 58.3522C11.93 58.1841 12.0893 58.0334 12.2603 57.9001C12.5994 57.6277 12.9848 57.4103 13.3905 57.2509C13.7991 57.0887 14.228 56.9901 14.6685 56.9467L15.0018 56.9235H15.3235H15.9697C17.6795 56.9177 19.3864 56.938 21.0904 56.9524L26.211 57.0017L28.7728 57.0365L31.3346 57.0858L31.0738 57.2422L31.2795 56.8974C31.352 56.7844 31.407 56.6627 31.494 56.5583L31.7374 56.2367C31.8128 56.1265 31.9142 56.0338 32.004 55.9353C32.0967 55.8367 32.1837 55.7353 32.2909 55.6513C32.3952 55.5643 32.488 55.4687 32.601 55.3905C32.7111 55.3122 32.8154 55.2253 32.9372 55.1586C32.998 55.1238 33.0531 55.0862 33.1168 55.0543C33.1835 55.0224 33.2356 54.9905 33.3168 54.9558L33.6008 54.8398L33.6732 55.1296L33.8761 55.9585C33.9514 56.2338 33.992 56.5149 34.0413 56.7931C34.0847 57.0742 34.1485 57.3495 34.1746 57.6335L34.276 58.4768C34.305 58.7579 34.3195 59.039 34.3398 59.3201C34.3629 59.6012 34.3716 59.8823 34.3774 60.1663C34.3832 60.4474 34.3977 60.7285 34.3919 61.0096L34.3832 61.8529C34.3774 62.134 34.3629 62.4151 34.3513 62.6962C34.3427 62.9773 34.3224 63.2584 34.305 63.5366C34.2731 64.0988 34.2151 64.6552 34.1601 65.2145C34.05 66.3331 33.8993 67.443 33.6935 68.55L33.6819 68.6167H33.6124C32.6068 68.663 31.6012 68.7152 30.5956 68.7732L29.0887 68.8688C28.5844 68.8978 28.0831 68.9412 27.5789 68.9441C26.5704 68.9644 25.5648 68.9934 24.5563 69.0079C24.0521 69.0079 23.5478 69.0311 23.0436 69.0166L21.5308 68.9586L20.021 68.892C19.5168 68.8688 19.0125 68.8543 18.5112 68.7992L17.0043 68.663C16.5029 68.6167 15.9987 68.5761 15.5002 68.5123L14.002 68.3066C13.5035 68.2341 13.0022 68.1791 12.5066 68.0806L11.02 67.7995C10.5274 67.6864 10.0318 67.5879 9.54785 67.4488L9.56234 67.3908L9.56524 67.3937Z" fill="#989898"/>
<path d="M8.7858 67.2702C8.7858 67.2702 8.61771 67.2181 8.32212 67.1225C8.17143 67.0819 8.00915 66.9862 7.80629 66.8993C7.60053 66.8153 7.40637 66.6675 7.17454 66.5255C7.06732 66.4443 6.96009 66.3545 6.84707 66.2618C6.79201 66.2154 6.73405 66.169 6.67609 66.1198C6.62393 66.0647 6.57177 66.0125 6.5167 65.9575C6.41238 65.8445 6.29067 65.7401 6.19214 65.6097C6.09361 65.4822 5.99218 65.3489 5.89075 65.2156C5.79222 65.0794 5.71108 64.9287 5.61834 64.7809C5.52271 64.636 5.44447 64.4795 5.37202 64.3172C5.29957 64.155 5.20973 64.0043 5.15178 63.8275L4.96341 63.3348C4.86198 62.99 4.75186 62.6451 4.68521 62.3003C4.59827 61.9583 4.56059 61.6164 4.50553 61.286C4.46206 60.9556 4.43888 60.634 4.4157 60.3297C4.407 60.0254 4.39251 59.7356 4.38672 59.4719C4.38672 58.9416 4.4099 58.4982 4.43308 58.191C4.45627 57.8838 4.47076 57.707 4.47076 57.707C4.47076 57.707 4.47655 57.8838 4.48814 58.1939C4.49394 58.3475 4.49394 58.5358 4.50553 58.7503C4.52002 58.9647 4.53741 59.2053 4.5461 59.469C4.56349 59.7327 4.59537 60.0167 4.62145 60.3152C4.66202 60.6137 4.70549 60.9266 4.75186 61.2541C4.81271 61.5758 4.86488 61.9119 4.95182 62.2423C5.02137 62.5814 5.13149 62.9059 5.22712 63.2363L5.40969 63.7319C5.46186 63.8912 5.54879 64.0448 5.61544 64.1984C5.68499 64.3549 5.75745 64.5085 5.84438 64.6505C5.92842 64.7925 6.00377 64.9403 6.0965 65.0765C6.18924 65.2098 6.28197 65.3373 6.37181 65.4648C6.46164 65.5923 6.57176 65.6996 6.6645 65.8155C6.71376 65.8705 6.76303 65.9285 6.8094 65.9807C6.86156 66.0299 6.91372 66.0763 6.96589 66.1256C7.07021 66.2183 7.16874 66.3139 7.26727 66.398C7.3716 66.4733 7.47303 66.5487 7.56866 66.6182C7.66139 66.6936 7.75413 66.7573 7.84976 66.8066C8.03523 66.908 8.18882 67.0181 8.33372 67.0732C8.61482 67.2007 8.7771 67.2731 8.7771 67.2731L8.7858 67.2702Z" fill="#989898"/>
<path d="M42.2075 25.831C42.2075 25.831 42.2828 26.0947 42.4161 26.5555C42.5436 27.0192 42.7378 27.677 42.9494 28.4739C43.1609 29.2709 43.4188 30.1953 43.6709 31.1922C43.7985 31.6907 43.9289 32.2065 44.0622 32.731C44.1955 33.2556 44.3346 33.783 44.4621 34.3249C44.6968 35.3971 44.9316 36.4694 45.1489 37.475C45.3691 38.4805 45.5517 39.4224 45.7227 40.2309C45.8908 41.0365 46.0125 41.7118 46.1052 42.1841C46.1922 42.6565 46.2443 42.926 46.2443 42.926C46.2443 42.926 46.1748 42.6594 46.0502 42.1957C45.9342 41.7291 45.7546 41.0655 45.5633 40.2657C45.372 39.4658 45.1344 38.5327 44.9055 37.53C44.6736 36.5273 44.4273 35.458 44.181 34.3858C44.0622 33.8583 43.926 33.3193 43.8014 32.7948C43.6738 32.2703 43.5492 31.7515 43.4275 31.2531C43.1841 30.2533 42.9783 29.3144 42.79 28.5116C42.6045 27.7089 42.4654 27.0366 42.3611 26.5671C42.2625 26.0976 42.2046 25.8281 42.2046 25.8281L42.2075 25.831Z" fill="#989898"/>
<path d="M48.0028 52.9756C48.0028 52.9756 48.0405 53.2277 48.1042 53.6711C48.1332 53.8913 48.1709 54.1608 48.2114 54.468C48.2578 54.7752 48.281 55.1258 48.3158 55.5084C48.3477 55.8909 48.3882 56.3053 48.3998 56.7458C48.4143 57.1863 48.452 57.6499 48.4259 58.131C48.4201 58.3715 48.4143 58.615 48.4085 58.8642C48.4027 59.1105 48.3708 59.3626 48.3534 59.6147C48.3274 60.119 48.2375 60.629 48.1622 61.1391C48.0463 61.6404 47.9448 62.1504 47.7652 62.6257C47.7246 62.7474 47.684 62.8662 47.6434 62.9851C47.5971 63.1039 47.542 63.2169 47.4928 63.3299C47.3884 63.5588 47.2986 63.7878 47.1653 63.9935C46.9335 64.4224 46.6495 64.8021 46.3539 65.1353C46.1974 65.2918 46.0612 65.4628 45.896 65.5961C45.7337 65.7294 45.5859 65.8656 45.4294 65.9815C45.27 66.0916 45.1164 66.196 44.9715 66.2945C44.8209 66.3872 44.6731 66.4626 44.5369 66.5379C44.2644 66.6944 44.0065 66.7872 43.8066 66.8886C43.5979 66.9755 43.4298 67.019 43.311 67.0451C43.1951 67.074 43.1313 67.0885 43.1313 67.0885C43.1313 67.0885 43.1922 67.0683 43.3052 67.0306C43.4182 66.9958 43.5834 66.932 43.7834 66.8364C43.9775 66.7263 44.2268 66.6162 44.4818 66.4452C44.6122 66.3612 44.7542 66.2771 44.8933 66.1786C45.0324 66.0743 45.1773 65.967 45.328 65.8511C45.4758 65.7323 45.6149 65.5932 45.7656 65.457C45.9192 65.3237 46.0438 65.1527 46.1887 64.9933C46.4611 64.6601 46.719 64.2833 46.9392 63.8689C47.0639 63.669 47.1508 63.4458 47.2464 63.2227C47.2928 63.1097 47.3479 63.0024 47.3884 62.8865C47.4261 62.7706 47.4638 62.6518 47.5015 62.5359C47.6695 62.0693 47.7623 61.5709 47.8724 61.0811C47.9535 60.5827 48.0463 60.0842 48.0781 59.5858C48.0984 59.3365 48.1332 59.0931 48.1419 58.8468C48.1506 58.6034 48.1593 58.3599 48.168 58.1223C48.1941 57.647 48.1796 57.1863 48.1825 56.7487C48.1883 56.3111 48.1651 55.8996 48.1477 55.5171C48.1245 55.1374 48.1245 54.7868 48.0984 54.4767C48.0752 54.1666 48.0579 53.8971 48.0405 53.674C48.0115 53.2277 47.997 52.9727 47.997 52.9727L48.0028 52.9756Z" fill="#989898"/>
<path d="M20.6672 9.99139C20.6672 9.99139 18.7342 6.22406 15.5465 7.62377C12.3588 9.02348 13.7121 14.773 18.9748 13.95C18.9748 13.95 19.7485 26.9907 25.8342 29.0686C31.9199 31.1464 45.5895 28.005 47.5688 23.2234C49.5481 18.4418 46.5545 11.1969 44.1405 7.62377C44.1405 7.62377 47.1341 6.07917 46.4096 2.648C45.6851 -0.783163 41.628 1.00487 41.1933 4.72583C41.1933 4.72583 28.5873 4.09697 20.6672 9.99139Z" fill="#EBEBEB"/>
<path d="M16.4646 11.5589C16.4646 11.5589 16.3777 11.5271 16.2299 11.4546C16.0879 11.3764 15.8764 11.2691 15.6648 11.0692C15.5605 10.9707 15.4446 10.846 15.3924 10.6606C15.3663 10.5707 15.3605 10.4577 15.3924 10.3563C15.4011 10.3012 15.433 10.2578 15.4619 10.2143C15.488 10.1679 15.5228 10.1274 15.5605 10.0955C15.601 10.0607 15.6242 10.0317 15.6851 9.98826L15.7981 9.9216C15.8706 9.87524 15.9952 9.83756 16.0937 9.81728C16.2966 9.7825 16.5023 9.79409 16.6965 9.83756C16.8906 9.88103 17.0703 9.95348 17.2442 10.0346C17.4152 10.1158 17.5716 10.2172 17.7194 10.3157C17.8672 10.4143 17.9976 10.5244 18.1223 10.6287C18.244 10.7359 18.3541 10.8403 18.4526 10.9417C18.6497 11.1416 18.7917 11.33 18.8902 11.4575C18.9858 11.5908 19.0351 11.6691 19.0351 11.6691C19.0351 11.6691 18.9656 11.6082 18.8467 11.4952C18.7279 11.3851 18.5541 11.2344 18.3396 11.0663C18.2324 10.9794 18.1136 10.8924 17.9889 10.7997C17.8614 10.7098 17.7252 10.62 17.5803 10.5331C17.4354 10.4461 17.2819 10.3679 17.1254 10.2896C17.0471 10.2549 16.966 10.223 16.8848 10.1911C16.8008 10.1679 16.7197 10.1361 16.6356 10.1216C16.4704 10.081 16.3023 10.0694 16.1459 10.0955C16.1053 10.0955 16.0763 10.1158 16.0415 10.1216C16.0068 10.1303 15.9749 10.1332 15.9314 10.1592L15.8126 10.2201L15.7373 10.2809C15.63 10.3766 15.575 10.4838 15.601 10.6084C15.6242 10.733 15.7025 10.8547 15.7865 10.9562C15.9546 11.159 16.1343 11.3097 16.2618 11.4082C16.3893 11.5068 16.4646 11.5618 16.4646 11.5618V11.5589Z" fill="#989898"/>
<path d="M42.9086 5.87182C42.9086 5.87182 42.9955 5.50378 43.1897 4.96766C43.2882 4.70105 43.4128 4.39386 43.5693 4.07219C43.7287 3.75052 43.9171 3.41726 44.1692 3.11008C44.3025 2.96228 44.4474 2.80869 44.6879 2.73624C44.7488 2.72175 44.8154 2.71885 44.8821 2.72755H44.8879L44.914 2.73624L44.9227 2.73914L44.9401 2.74493L44.9719 2.75653L45.0357 2.78261C45.0878 2.81159 45.1458 2.86375 45.1922 2.90722C45.2241 2.95648 45.253 3.00575 45.2791 3.05212C45.3603 3.25207 45.3516 3.43754 45.3429 3.60852C45.3284 3.7766 45.2994 3.93309 45.2617 4.07219C45.1951 4.35329 45.1023 4.57354 45.0415 4.72713C44.9777 4.88072 44.9343 4.96476 44.9343 4.96476C44.9343 4.96476 44.9545 4.87202 44.9893 4.70974C45.0241 4.55035 45.0647 4.31562 45.0994 4.04031C45.1168 3.90121 45.1255 3.75342 45.1255 3.59983C45.1197 3.44914 45.1023 3.28395 45.0444 3.15644L44.9893 3.0753C44.9661 3.06371 44.9603 3.04922 44.9372 3.03183C44.8328 2.99706 44.8212 2.98546 44.7517 3.00285C44.63 3.03763 44.4967 3.15934 44.3836 3.29554C44.1518 3.56505 43.9634 3.88672 43.7867 4.18811C43.6157 4.49239 43.4621 4.78219 43.3317 5.03141C43.0738 5.53276 42.8999 5.86892 42.8999 5.86892L42.9086 5.87182Z" fill="#989898"/>
<path d="M29.2164 6.59665C29.2164 6.59665 28.6021 4.1334 30.6654 1.92517C32.7288 -0.283064 34.3226 1.52815 32.8389 4.64054C32.8389 4.64054 35.5571 3.66394 35.5571 6.37931C35.5571 9.09468 32.6592 8.3702 31.6797 7.79061" fill="#EBEBEB"/>
<path d="M29.1868 6.60292C29.0274 6.14215 28.9781 5.6495 28.9955 5.15685C29.0013 4.91052 29.0332 4.6642 29.0766 4.42077C29.123 4.17734 29.1839 3.93682 29.2708 3.70208C29.3433 3.46445 29.4563 3.24131 29.5635 3.01527C29.6881 2.80082 29.8011 2.57768 29.9576 2.38062C30.0967 2.17197 30.2677 1.9923 30.4329 1.80972C30.5256 1.7083 30.6068 1.63875 30.6966 1.55471C30.798 1.47356 30.8937 1.38952 30.998 1.31997C31.2008 1.17218 31.4211 1.04177 31.6587 0.949035C31.8963 0.856301 32.1572 0.795444 32.4238 0.83022C32.6904 0.850505 32.9425 0.98381 33.1135 1.18087C33.2874 1.37503 33.3859 1.61556 33.4467 1.85609C33.5598 2.34295 33.5337 2.84139 33.4554 3.32535C33.4091 3.56588 33.3569 3.80641 33.2874 4.04114C33.2178 4.27587 33.1367 4.50771 33.041 4.73375L32.7599 4.42367C32.9628 4.34832 33.1512 4.29326 33.354 4.25849C33.554 4.21792 33.7597 4.20053 33.9713 4.20343C34.1828 4.21212 34.3973 4.2353 34.6117 4.30485C34.7189 4.34253 34.8262 4.37441 34.9247 4.43816C35.0261 4.49322 35.1246 4.55118 35.2087 4.63522L35.3391 4.75114C35.3797 4.79171 35.4087 4.84097 35.4463 4.88734C35.5159 4.98008 35.5854 5.07281 35.626 5.17714C35.6695 5.27856 35.7274 5.38289 35.7477 5.48722L35.8202 5.80309C35.8462 5.90742 35.8404 6.01174 35.852 6.11607L35.8636 6.27256L35.8694 6.3508V6.37109V6.37688V6.40586V6.41456V6.44933L35.8404 6.73333L35.826 6.87533L35.7883 7.04051C35.7593 7.15064 35.739 7.26076 35.6984 7.36508C35.6521 7.46651 35.6057 7.56794 35.5535 7.66647C35.4318 7.85484 35.2898 8.03741 35.1015 8.16781C35.0174 8.24606 34.916 8.29242 34.8146 8.34169C34.716 8.39675 34.6117 8.42863 34.5074 8.45471L34.3509 8.49818L34.1944 8.51847C34.0901 8.53296 33.9858 8.54744 33.8843 8.54165C33.6786 8.54455 33.4786 8.51847 33.2816 8.48659L32.9889 8.42573L32.7049 8.34169C32.3339 8.21128 31.9746 8.049 31.6616 7.81716L31.6906 7.7679C31.8674 7.84035 32.0441 7.9041 32.2238 7.95337C32.4035 8.00553 32.5889 8.0403 32.7715 8.07508L33.0468 8.11565L33.3221 8.13594C33.5047 8.13883 33.6844 8.13883 33.8582 8.11275C33.9481 8.10696 34.0321 8.08667 34.1133 8.06639L34.2379 8.03741L34.3538 7.99104C34.432 7.96206 34.5074 7.93308 34.574 7.88382C34.6407 7.84035 34.7131 7.80847 34.7653 7.74761C34.887 7.65198 34.9711 7.51867 35.0493 7.38537C35.0783 7.31002 35.1102 7.23757 35.142 7.16513C35.1652 7.08978 35.1739 7.01153 35.1942 6.93908L35.2203 6.82607L35.229 6.68407L35.2435 6.39717V6.36239V6.3537C35.2435 6.34791 35.2435 6.39427 35.2435 6.37399V6.36819V6.3508L35.2377 6.28705L35.229 6.15664C35.2203 6.0726 35.229 5.97987 35.2058 5.90162L35.1536 5.65819C35.1391 5.57705 35.0957 5.5133 35.0696 5.43505C35.0464 5.35681 35 5.29885 34.9595 5.23509C34.9392 5.20611 34.9218 5.16844 34.8957 5.14236L34.8146 5.06701C34.7653 5.00905 34.7015 4.97138 34.6378 4.93081C34.5798 4.88444 34.5016 4.86126 34.4291 4.82938C34.2813 4.77142 34.1162 4.74534 33.9481 4.73085C33.7771 4.72506 33.6032 4.72506 33.4265 4.74824C33.2526 4.76853 33.07 4.8033 32.9106 4.84677L32.4035 4.98008L32.6324 4.53669C32.7396 4.33094 32.8469 4.12518 32.9367 3.91363C33.0323 3.70208 33.1077 3.48184 33.1743 3.26159C33.2989 2.81821 33.3685 2.34584 33.27 1.89666C33.2236 1.67642 33.1309 1.45907 32.9802 1.30548C32.8353 1.1432 32.6237 1.06206 32.4122 1.05916C32.2006 1.05916 31.9891 1.1374 31.7978 1.24173C31.6037 1.34895 31.4269 1.48805 31.2617 1.64164C31.1777 1.71699 31.1052 1.80103 31.027 1.87928C30.9545 1.96911 30.8589 2.06185 30.798 2.14299C30.6589 2.32556 30.5024 2.49364 30.3807 2.6849C30.2445 2.86747 30.1257 3.06164 30.0098 3.2558C29.9055 3.45865 29.7953 3.65572 29.7113 3.87016C29.6157 4.07882 29.5519 4.29616 29.4824 4.5164C29.4157 4.73665 29.3693 4.96269 29.3259 5.18873C29.2882 5.41766 29.2592 5.6495 29.2447 5.88134C29.2331 6.11607 29.2273 6.3508 29.2447 6.58843L29.1868 6.60003V6.60292Z" fill="#989898"/>
<path d="M25.5933 11.0917C25.5933 11.0917 25.6107 10.9033 25.7353 10.6512C25.7961 10.5237 25.886 10.3846 26.0048 10.2484C26.0656 10.1846 26.1294 10.1151 26.2047 10.0571C26.283 10.0021 26.3583 9.9412 26.4453 9.89483C26.5293 9.84557 26.622 9.81079 26.7119 9.77891C26.7988 9.73834 26.8973 9.73544 26.9872 9.71806C27.077 9.69777 27.1639 9.71226 27.248 9.70936C27.3291 9.70357 27.4074 9.72675 27.4769 9.73834C27.5465 9.75283 27.6102 9.76153 27.6624 9.78471C27.7146 9.805 27.7609 9.82528 27.7986 9.83977C27.8739 9.87165 27.9145 9.89193 27.9145 9.89193C27.9145 9.89193 27.8681 9.89193 27.787 9.89193C27.7464 9.89193 27.7001 9.89193 27.645 9.89193C27.5928 9.88614 27.5291 9.90063 27.4653 9.90063C27.4016 9.90642 27.3291 9.90352 27.2596 9.92091C27.1871 9.9383 27.1118 9.9383 27.0364 9.96438C26.9611 9.98757 26.8828 10.005 26.8104 10.0368C26.7351 10.0658 26.6597 10.0977 26.5902 10.1412C26.4424 10.2136 26.312 10.3208 26.1902 10.4194C26.0714 10.5237 25.9671 10.6338 25.8802 10.7323C25.7063 10.9294 25.5991 11.083 25.5991 11.083L25.5933 11.0917Z" fill="#989898"/>
<path d="M38.7446 7.61029C38.7446 7.61029 38.82 7.4422 39.0228 7.25963C39.1214 7.164 39.2518 7.07127 39.4054 6.99013C39.4865 6.95825 39.5647 6.91188 39.6546 6.8916C39.7444 6.86551 39.8343 6.84233 39.9299 6.83364C40.0226 6.81915 40.1183 6.82494 40.211 6.82784C40.3037 6.82784 40.3907 6.85972 40.4776 6.87131C40.5616 6.8887 40.6399 6.92927 40.7123 6.95535C40.7877 6.97853 40.8456 7.0278 40.9065 7.06257C41.0253 7.12923 41.1036 7.21327 41.1615 7.26543C41.2166 7.32049 41.2456 7.35237 41.2456 7.35237C41.2456 7.35237 41.2021 7.33788 41.1296 7.3118C41.0949 7.29731 41.0514 7.28282 41.0021 7.26253C40.9558 7.23935 40.8949 7.23066 40.8369 7.21037C40.7761 7.19588 40.7152 7.1669 40.6428 7.15821C40.5732 7.14661 40.5008 7.12633 40.4283 7.11764C40.353 7.11474 40.2776 7.10025 40.1994 7.10315C40.1211 7.10315 40.0429 7.10315 39.9647 7.11764C39.8053 7.12633 39.6546 7.17849 39.5097 7.22196C39.4401 7.25384 39.3677 7.27123 39.3039 7.3031C39.2402 7.33208 39.1793 7.36106 39.1214 7.39004C38.8982 7.50596 38.7475 7.60739 38.7475 7.60739L38.7446 7.61029Z" fill="#989898"/>
<path d="M31.1457 19.6703C30.2734 19.9427 29.3779 19.9079 28.5781 19.6326C27.387 19.2182 26.3988 18.2648 25.996 16.9694C25.4802 15.3089 26.0685 13.5701 27.3436 12.5414C27.7348 12.2255 28.1898 11.9792 28.6998 11.8198C30.8675 11.1446 33.1742 12.3559 33.8466 14.5236C34.5218 16.6912 33.3133 18.9951 31.1457 19.6703Z" fill="white"/>
<path d="M29.2012 19.5087C28.9954 19.5725 28.7867 19.6131 28.5781 19.6304C27.387 19.216 26.3988 18.2626 25.996 16.9672C25.4802 15.3067 26.0685 13.5679 27.3436 12.5392C28.9664 12.2088 30.6588 13.3013 31.2181 15.0981C31.8093 17.002 30.908 18.9784 29.2012 19.5087Z" fill="#989898"/>
<path d="M28.5783 19.6329C28.5783 19.6329 28.5146 19.6155 28.3958 19.5836C28.2769 19.5488 28.1002 19.5141 27.8857 19.4097C27.7756 19.3634 27.651 19.3141 27.5322 19.2387C27.4104 19.1663 27.2684 19.0967 27.1409 18.9895C27.0105 18.8852 26.8598 18.7867 26.7294 18.6505C26.5903 18.523 26.4541 18.3781 26.3295 18.21C26.1933 18.0506 26.0832 17.8622 25.9644 17.6681C25.9006 17.5724 25.86 17.4652 25.8108 17.358L25.7412 17.1957L25.7065 17.1117L25.6891 17.0711L25.6717 17.0073C25.6427 16.9001 25.6108 16.79 25.5789 16.677C25.5529 16.5611 25.5065 16.4654 25.4949 16.3263C25.4775 16.193 25.463 16.0597 25.4485 15.9235L25.4312 15.7177L25.4398 15.5178C25.4485 15.3845 25.4543 15.2483 25.463 15.1121C25.4746 14.9759 25.5123 14.8426 25.5384 14.7064C25.5732 14.5731 25.5818 14.4282 25.6398 14.3007C25.6891 14.1702 25.7412 14.0369 25.7905 13.9036C25.834 13.7674 25.9151 13.6486 25.9818 13.524C26.0542 13.4023 26.118 13.269 26.202 13.1531C26.3846 12.9299 26.5382 12.6807 26.7613 12.4952L26.9207 12.3474L27.0018 12.275L27.0424 12.2373L27.0627 12.2199L27.0685 12.2141L27.0888 12.1967L27.0975 12.191C27.2047 12.1156 27.3061 12.0403 27.422 11.962C27.5524 11.8867 27.6829 11.8026 27.8104 11.736C27.9408 11.678 28.0683 11.6114 28.1987 11.5592L28.3986 11.4868L28.4972 11.452L28.5464 11.4346L28.5928 11.4201L28.616 11.4143C28.7406 11.3853 28.8652 11.3592 28.9869 11.3303C29.126 11.3071 29.2738 11.2897 29.4129 11.2723C29.5549 11.2578 29.6853 11.2607 29.8215 11.2578C30.3606 11.2578 30.8735 11.3708 31.3256 11.5476C31.5545 11.6316 31.7632 11.7418 31.9602 11.8519C32.1486 11.9794 32.334 12.0953 32.4905 12.2344C32.6557 12.3619 32.789 12.5097 32.9223 12.643C33.0383 12.7908 33.1571 12.9241 33.2469 13.0661C33.4353 13.3414 33.5599 13.6023 33.6439 13.8225C33.6845 13.9326 33.7222 14.0311 33.7483 14.1181C33.7685 14.2079 33.7859 14.2804 33.8004 14.3412C33.8294 14.4629 33.8439 14.5267 33.8439 14.5267C33.8439 14.5267 33.8149 14.4687 33.7569 14.3586C33.728 14.3036 33.6932 14.2369 33.6526 14.1587C33.6062 14.0833 33.5512 13.9993 33.4903 13.9036C33.3686 13.7153 33.2005 13.5008 32.989 13.2777C32.7745 13.0574 32.5137 12.8314 32.1979 12.6372C31.8878 12.4373 31.5197 12.2721 31.1198 12.162C30.7199 12.0518 30.2852 12.0055 29.8389 12.0229C29.7288 12.0345 29.6129 12.0374 29.5086 12.0547C29.4042 12.075 29.297 12.0953 29.1898 12.1127C29.0681 12.1475 28.9464 12.1823 28.8246 12.217L28.5175 12.3329C28.4102 12.3793 28.3088 12.4344 28.2045 12.4836C28.106 12.5387 28.0161 12.5967 27.9205 12.6517C27.8191 12.7213 27.7118 12.8053 27.6075 12.8807L27.367 13.1125C27.1815 13.2574 27.0569 13.4631 26.9033 13.637C26.8309 13.7298 26.7816 13.837 26.7207 13.9355C26.6628 14.0369 26.5932 14.1326 26.5585 14.2427C26.4744 14.4571 26.3701 14.6658 26.3266 14.8889C26.3005 14.9991 26.26 15.1063 26.2455 15.2193C26.2339 15.3323 26.2194 15.4424 26.2078 15.5526L26.1875 15.7177L26.1933 15.8742C26.1991 15.9786 26.1991 16.0829 26.1991 16.1843C26.1875 16.2828 26.231 16.4104 26.2426 16.5205C26.2629 16.6335 26.2831 16.7465 26.3034 16.8566V16.8769L26.3092 16.8885V16.8943C26.315 16.9175 26.3034 16.8682 26.3034 16.874L26.315 16.9117L26.3382 16.9841L26.3846 17.129C26.4165 17.2247 26.4425 17.3232 26.486 17.4101C26.5642 17.5898 26.6367 17.7695 26.7381 17.9231C26.7874 18.0013 26.828 18.0854 26.8801 18.1549C26.9323 18.2274 26.9844 18.2969 27.0366 18.3636C27.1293 18.5085 27.2511 18.6157 27.3525 18.7316C27.451 18.8504 27.5727 18.9316 27.6713 19.0243C27.7698 19.1199 27.8712 19.1866 27.964 19.2503C28.1436 19.3836 28.3059 19.4735 28.4131 19.5343C28.5204 19.5952 28.5783 19.6271 28.5783 19.6271V19.6329Z" fill="#989898"/>
<path d="M42.0917 16.0666C41.318 16.3071 40.5268 16.2781 39.8168 16.0318C38.762 15.6637 37.8868 14.8204 37.5304 13.6729C37.0725 12.2036 37.5941 10.6619 38.7243 9.75194C39.0721 9.47084 39.4749 9.25349 39.9241 9.11439C41.8425 8.51742 43.8855 9.58966 44.4825 11.5081C45.0795 13.4265 44.0102 15.4667 42.0917 16.0666Z" fill="white"/>
<path d="M39.8166 16.0345C39.8166 16.0345 39.7587 16.02 39.6544 15.994C39.5471 15.965 39.3906 15.9331 39.1994 15.8462C38.9994 15.7708 38.7734 15.6491 38.5329 15.481C38.2923 15.3071 38.0286 15.0898 37.8055 14.7913C37.6809 14.6493 37.5823 14.4841 37.4751 14.3103C37.4171 14.2262 37.3795 14.1306 37.336 14.0321L37.2722 13.8872L37.2404 13.8147L37.223 13.777L37.2056 13.7162C37.1563 13.5191 37.0839 13.3423 37.0462 13.1134C37.0288 12.9946 37.0143 12.8729 37.0027 12.7512L36.9854 12.5657L36.994 12.386C36.9998 12.2672 37.0056 12.1455 37.0143 12.0238C37.023 11.9021 37.0578 11.7833 37.081 11.6615C37.1158 11.4123 37.2114 11.1805 37.3041 10.9428C37.3447 10.8211 37.4171 10.7139 37.4751 10.6009C37.5418 10.4908 37.5968 10.3749 37.6722 10.2705C37.8344 10.0706 37.9736 9.84743 38.1735 9.67934L38.3155 9.54604L38.388 9.47939L38.4227 9.44751L38.4401 9.43012H38.4459L38.4662 9.40984L38.4749 9.40404C38.5705 9.33449 38.6575 9.26784 38.7618 9.20118C38.8777 9.13163 38.9965 9.05628 39.1124 8.99833C39.2284 8.94616 39.3443 8.88821 39.4631 8.84184L39.6428 8.77808L39.7326 8.74621L39.7761 8.73172L39.8195 8.71723L39.8398 8.71143C39.9499 8.68825 40.0601 8.66217 40.1702 8.63898C40.2948 8.6187 40.4281 8.60421 40.5527 8.58972C40.6802 8.57813 40.799 8.58102 40.9179 8.57812C41.3989 8.57812 41.8568 8.68535 42.2625 8.84184C42.4654 8.91719 42.6537 9.01571 42.8276 9.11714C42.9957 9.23016 43.158 9.33739 43.2971 9.462C43.4449 9.57502 43.5637 9.71122 43.6796 9.83004C43.781 9.96334 43.8883 10.0822 43.9636 10.2097C44.1288 10.456 44.236 10.6907 44.3085 10.8878C44.3432 10.9863 44.3751 11.0733 44.3983 11.1515C44.4157 11.2297 44.4302 11.2964 44.4418 11.3515C44.4649 11.4587 44.4765 11.5166 44.4765 11.5166C44.4765 11.5166 44.4476 11.4645 44.3954 11.3688C44.3693 11.3225 44.3374 11.2616 44.3027 11.1921C44.2592 11.1254 44.2099 11.053 44.1549 10.966C44.0447 10.8008 43.894 10.6125 43.7057 10.4183C43.5144 10.2271 43.2826 10.0329 43.0015 9.86481C42.4538 9.51706 41.709 9.29971 40.9323 9.34318C40.8367 9.35477 40.7353 9.35477 40.6426 9.37216C40.5527 9.38955 40.46 9.40694 40.3673 9.42432C40.26 9.4562 40.1528 9.48808 40.0427 9.51996L39.779 9.62138C39.6862 9.66196 39.5964 9.71122 39.5066 9.75469L39.2602 9.89959C39.1733 9.96044 39.0748 10.0358 38.9849 10.1024L38.7763 10.3024C38.614 10.4299 38.5068 10.6067 38.3706 10.7603C38.3068 10.8414 38.2633 10.9342 38.2112 11.0211C38.1619 11.1109 38.0982 11.1921 38.0692 11.2877C37.9967 11.4761 37.904 11.6557 37.8634 11.8528C37.8402 11.9484 37.8026 12.0441 37.791 12.1397C37.7794 12.2382 37.7678 12.3339 37.7562 12.4324L37.7388 12.5773L37.7446 12.7135C37.7475 12.8033 37.7475 12.8932 37.7446 12.983C37.733 13.067 37.7707 13.183 37.7823 13.2786C37.7997 13.38 37.8171 13.4785 37.8344 13.5771V13.5945L37.8402 13.6032V13.609C37.846 13.6321 37.8344 13.5829 37.8344 13.5887L37.846 13.6205L37.8663 13.6843L37.9069 13.8118C37.933 13.8959 37.9562 13.9828 37.9938 14.061C38.0605 14.2204 38.1242 14.3769 38.2112 14.5131C38.2518 14.5827 38.2894 14.6551 38.3329 14.7189C38.3793 14.7826 38.4256 14.8435 38.4691 14.9043C38.5502 15.0318 38.6546 15.1304 38.7444 15.2318C38.8313 15.339 38.9357 15.4086 39.0226 15.4955C39.1095 15.5796 39.1965 15.6404 39.2776 15.6984C39.4341 15.8201 39.5761 15.9012 39.6717 15.9534C39.7674 16.0085 39.8166 16.0403 39.8166 16.0403V16.0345Z" fill="#989898"/>
<path d="M40.3674 15.9278C40.1849 15.9828 39.9994 16.0205 39.8168 16.035C38.762 15.6669 37.8868 14.8236 37.5304 13.6761C37.0725 12.2068 37.5941 10.6651 38.7243 9.75514C40.1617 9.46245 41.6599 10.4304 42.1555 12.0213C42.68 13.7079 41.8802 15.4583 40.3703 15.9278H40.3674Z" fill="#989898"/>
<path d="M30.0649 22.2568C30.1432 22.6219 29.5288 23.0624 28.6942 23.2392C27.8596 23.416 27.1206 23.2653 27.0424 22.9001C26.9641 22.535 27.5785 22.0945 28.4131 21.9177C29.2477 21.7409 29.9867 21.8916 30.0649 22.2568Z" fill="#CCCCCC"/>
<path d="M47.1657 18.2347C47.2266 18.5158 46.7513 18.8578 46.108 18.994C45.4617 19.1302 44.8908 19.0143 44.8329 18.7303C44.772 18.4492 45.2473 18.1101 45.8935 17.971C46.5398 17.8348 47.1107 17.9507 47.1686 18.2347H47.1657Z" fill="#CCCCCC"/>
<path d="M37.6199 15.3526C37.6199 15.3526 32.8615 16.1003 32.0906 18.6621C31.3168 21.2209 32.5021 24.0233 34.6987 24.626C36.8954 25.2288 42.4276 24.0957 43.5375 21.7049C44.6474 19.3141 43.2477 16.393 42.1378 15.6917C41.0279 14.9904 38.2487 15.257 37.6228 15.3526H37.6199Z" fill="#CCCCCC"/>
<path d="M36.6782 19.7916C36.768 19.9654 36.8781 20.1248 36.9998 20.2697C37.0636 20.3422 37.1302 20.4088 37.2027 20.4668C37.2751 20.5276 37.3534 20.5769 37.4345 20.6146C37.4751 20.6378 37.5157 20.6523 37.5591 20.6667C37.5997 20.6841 37.6432 20.6957 37.6866 20.7015C37.7301 20.7102 37.7736 20.716 37.817 20.716C37.8605 20.716 37.904 20.7189 37.9475 20.7102C37.988 20.7015 38.0402 20.6986 38.0721 20.687L38.2112 20.6407C38.2865 20.603 38.359 20.5653 38.4256 20.5074C38.4923 20.4523 38.556 20.3914 38.6053 20.319C38.6603 20.2494 38.7038 20.1712 38.7415 20.0929C38.8226 19.9336 38.869 19.7539 38.9009 19.5742C38.9617 19.212 38.9501 18.8323 38.8748 18.4759L39.153 18.4006C39.2139 18.5744 39.295 18.7599 39.3877 18.928C39.4341 19.012 39.4834 19.0961 39.5384 19.1743C39.5935 19.2525 39.6485 19.3308 39.7123 19.4003C39.7732 19.4757 39.8427 19.5365 39.9094 19.6003C39.9847 19.6525 40.0543 19.7133 40.1383 19.751C40.2165 19.8003 40.3035 19.8176 40.3904 19.8437C40.4803 19.8553 40.5672 19.8756 40.6599 19.8611H40.7295C40.7295 19.8611 40.7614 19.8553 40.7527 19.8582L40.7903 19.8495L40.9381 19.8147C41.0193 19.7771 41.0975 19.7539 41.1671 19.693C41.2424 19.6438 41.3004 19.5684 41.3496 19.4931C41.4018 19.4148 41.4366 19.3279 41.4685 19.2381C41.4974 19.1453 41.5206 19.0526 41.5322 18.9541C41.5438 18.8555 41.5525 18.757 41.5525 18.6585C41.5525 18.4585 41.5351 18.2586 41.5003 18.0586C41.6278 18.4411 41.6858 18.8584 41.6076 19.2786C41.5786 19.3801 41.5467 19.4844 41.4916 19.58C41.4366 19.6727 41.3728 19.7684 41.283 19.8379C41.2076 19.9162 41.0888 19.9683 40.9903 20.0147L40.8454 20.0611L40.8106 20.0727C40.7787 20.0814 40.7787 20.0785 40.7614 20.0814L40.6802 20.0901C40.5701 20.1103 40.4571 20.0958 40.347 20.0872C40.2397 20.0582 40.1267 20.035 40.0282 19.9828C39.9239 19.9394 39.8369 19.8727 39.7442 19.8118C39.6601 19.7423 39.579 19.6699 39.5066 19.5887C39.4312 19.5105 39.3703 19.4235 39.3066 19.3395C39.2457 19.2525 39.1907 19.1627 39.1385 19.07C39.0371 18.8845 38.9472 18.699 38.8777 18.4933L39.1559 18.4179C39.237 18.8179 39.2486 19.2294 39.1675 19.6293C39.1501 19.7307 39.1182 19.8292 39.0892 19.9249C39.0545 20.0234 39.0168 20.119 38.9675 20.2118C38.9183 20.3016 38.8661 20.3943 38.7937 20.4726C38.727 20.5537 38.6459 20.6262 38.5589 20.6899C38.4749 20.7537 38.3706 20.8 38.2691 20.8406L38.1271 20.8754C38.0663 20.8928 38.0199 20.8899 37.9648 20.8957C37.9127 20.9044 37.8605 20.8957 37.8084 20.8957C37.7562 20.8957 37.704 20.8841 37.6519 20.8696C37.5997 20.858 37.5504 20.8435 37.5041 20.8203C37.4548 20.8 37.4084 20.7798 37.365 20.7479C37.2751 20.6957 37.1969 20.6291 37.1273 20.5566C37.0549 20.4871 36.994 20.4088 36.9361 20.3277C36.8231 20.1654 36.7332 19.9886 36.6724 19.8032L36.6782 19.7916Z" fill="#989898"/>
<path d="M38.2346 16.6302C38.2346 16.6302 36.5132 17.1199 36.6581 17.8792C36.7624 18.4327 38.3968 18.7312 39.0112 18.6761C39.6256 18.6211 40.4428 17.6068 40.4051 16.7925C40.3674 15.9781 38.6113 16.5201 38.2317 16.6302H38.2346Z" fill="#989898"/>
<path d="M18.9775 13.952C18.9775 13.952 19.0383 14.5924 19.2093 15.6995C19.3745 16.8094 19.6643 18.3858 20.1685 20.2347C20.4236 21.1592 20.7394 22.1474 21.1422 23.1588C21.5451 24.173 22.0667 25.2018 22.7274 26.1755C23.3968 27.1347 24.2604 28.0215 25.3385 28.5547C25.4718 28.6243 25.6138 28.6706 25.7529 28.7286C25.8195 28.7547 25.8978 28.7895 25.9557 28.8068L26.1847 28.8764C26.4918 28.9778 26.7874 29.0358 27.0859 29.1082C27.6974 29.2242 28.3233 29.3198 28.9522 29.3604C30.2128 29.4676 31.485 29.4386 32.734 29.3459C33.9801 29.2473 35.206 29.0908 36.3796 28.8677C38.727 28.4301 40.8772 27.7868 42.6334 27.0362C43.5115 26.6595 44.291 26.2596 44.9488 25.848C45.6067 25.4394 46.1457 25.0221 46.534 24.6222C46.5833 24.573 46.6326 24.5266 46.6789 24.4802C46.7224 24.431 46.763 24.3817 46.8035 24.3353C46.8847 24.2426 46.9629 24.1556 47.0325 24.0716C47.1571 23.8948 47.2672 23.747 47.3483 23.6195C47.4903 23.3558 47.5657 23.2138 47.5657 23.2138C47.5657 23.2138 47.499 23.3616 47.3744 23.634C47.302 23.7673 47.2006 23.9238 47.0875 24.1122C46.9484 24.2803 46.8151 24.5005 46.6123 24.6976C45.8588 25.5438 44.5228 26.5117 42.7638 27.3347C41.0105 28.1664 38.8458 28.8793 36.4724 29.3633C35.2842 29.6038 34.0439 29.7979 32.7717 29.8965C31.5024 29.9979 30.2012 30.0356 28.9 29.9284C27.6018 29.8124 26.3006 29.6125 25.0863 29.0445C23.8866 28.4475 22.9882 27.4651 22.3014 26.4508C21.6204 25.4249 21.1191 24.3469 20.7336 23.3037C20.3453 22.2604 20.0613 21.2461 19.8382 20.3043C19.3948 18.4206 19.2064 16.8181 19.0905 15.6995C18.9804 14.5808 18.9717 13.9375 18.9717 13.9375L18.9775 13.952Z" fill="#989898"/>
</svg>
