<svg width="68" height="65" viewBox="0 0 68 65" fill="none" xmlns="http://www.w3.org/2000/svg">
<path d="M30.789 64.8099C47.4727 64.8099 60.9975 63.2111 60.9975 61.2389C60.9975 59.2667 47.4727 57.668 30.789 57.668C14.1054 57.668 0.580566 59.2667 0.580566 61.2389C0.580566 63.2111 14.1054 64.8099 30.789 64.8099Z" fill="#F7F7F7"/>
<path d="M46.3737 23.1169C46.3737 23.1169 50.2805 26.7342 55.6852 26.1088C61.0899 25.4834 64.0316 23.1671 65.5758 21.0438C67.12 18.9206 68.7106 25.2904 63.5993 29.1509C63.5993 29.1509 65.3365 28.1394 65.2902 29.4868C65.2438 30.8341 64.0355 34.1194 60.6112 35.9531C60.6112 35.9531 62.2519 35.7138 62.2519 36.1925C62.2519 36.6712 62.7847 38.5551 56.6542 40.7749C56.6542 40.7749 57.9089 41.2575 56.2682 42.4619C54.6274 43.6664 51.2495 44.149 50.3809 43.9096C50.3809 43.9096 51.2997 44.3922 50.8634 45.1643C50.4272 45.9364 46.7636 46.3688 45.3622 45.6932C45.3622 45.6932 45.4085 46.2221 44.2504 46.3186C43.0922 46.4151 41.9341 44.9211 41.9341 44.9211C41.9341 44.9211 46.3273 29.1895 46.3737 23.1092V23.1169Z" fill="#CCCCCC"/>
<path d="M49.5204 27.2499C50.1149 27.4236 50.7017 27.6282 51.277 27.8676C51.5626 27.9911 51.8483 28.1185 52.1263 28.2691C52.2652 28.3424 52.4004 28.4235 52.5355 28.5123C52.6667 28.6049 52.8019 28.6976 52.9177 28.8327C52.9756 28.8983 53.0296 28.9794 53.0682 29.0759C53.076 29.103 53.0798 29.13 53.0875 29.157C53.0875 29.1763 53.0953 29.1686 53.0914 29.2149V29.2419C53.0914 29.269 53.0721 29.3539 53.0528 29.4041C52.9601 29.5971 52.8134 29.7052 52.6745 29.7978C52.3926 29.9793 52.0954 30.0951 51.7981 30.2032C51.2036 30.4155 50.5936 30.5506 49.976 30.6626L49.9837 30.3422C50.4045 30.4425 50.7983 30.5854 51.1882 30.7552C51.3812 30.8363 51.5704 30.9328 51.7595 31.0293C51.9448 31.1336 52.1301 31.2378 52.3039 31.3613C52.4776 31.481 52.6474 31.6123 52.8019 31.759C52.9601 31.9018 53.0953 32.0717 53.2265 32.2377L53.3925 32.5156C53.4388 32.6122 53.4697 32.7164 53.5083 32.8168C53.5585 33.0214 53.5971 33.2491 53.5778 33.4537C53.5315 33.9016 53.2651 34.276 52.9447 34.5501C52.6166 34.8242 52.2421 35.0288 51.8599 35.2026C51.4738 35.3763 51.0762 35.5114 50.6747 35.6272C50.2694 35.743 49.864 35.8395 49.4432 35.909L49.4548 35.6195C49.7559 35.689 50.0223 35.7971 50.2809 35.9554C50.4083 36.0326 50.5319 36.1214 50.6438 36.2295C50.7558 36.3298 50.86 36.4495 50.9411 36.5808C51.0299 36.712 51.0878 36.8549 51.138 37.0054L51.1959 37.2332L51.2152 37.4648C51.2268 37.542 51.2152 37.6192 51.2152 37.6926C51.2036 37.7737 51.2152 37.8316 51.1882 37.9358C51.1573 38.0709 51.1341 38.206 51.0453 38.3643C50.9797 38.5265 50.8755 38.6384 50.7828 38.7658C50.6709 38.8739 50.5666 38.9897 50.4392 39.0708C50.3195 39.1673 50.1844 39.2368 50.057 39.3101C49.9219 39.3758 49.7868 39.4375 49.6478 39.4839C49.3737 39.5881 49.088 39.6537 48.8024 39.7116C48.5167 39.7657 48.2349 39.8004 47.9376 39.8159L48.0071 39.4375C48.3159 39.5765 48.5862 39.7425 48.8448 39.951C49.0996 40.1594 49.3274 40.422 49.4625 40.7501C49.5281 40.9122 49.5629 41.0937 49.5629 41.2674C49.5629 41.4489 49.5166 41.6149 49.4625 41.7809L49.3506 42.0086C49.3004 42.1167 49.2579 42.1437 49.2116 42.2171C49.1344 42.3445 48.9877 42.4642 48.868 42.58C48.7329 42.6726 48.6016 42.7769 48.4549 42.8425C48.3121 42.9236 48.1654 42.9815 48.0148 43.0355C47.7137 43.1436 47.4087 43.2208 47.096 43.271C46.4745 43.3753 45.8491 43.3907 45.2275 43.3521V43.3135C45.8452 43.3019 46.4629 43.2247 47.0574 43.0857C47.3547 43.0201 47.6481 42.9274 47.9222 42.8078C48.0612 42.7498 48.1963 42.6842 48.3198 42.6031C48.4549 42.5375 48.5592 42.4333 48.6788 42.3484C48.7715 42.2441 48.8757 42.1708 48.9607 42.0318C48.9954 41.9739 49.0687 41.8928 49.0726 41.8542L49.1575 41.6612C49.1923 41.5299 49.227 41.3987 49.2193 41.2636C49.2193 41.1323 49.1846 41.0049 49.1305 40.8814C49.0224 40.6343 48.8255 40.4258 48.6016 40.2444C48.3777 40.0668 48.1152 39.9085 47.8565 39.7966L47.096 39.4646L47.9222 39.4182C48.1847 39.4028 48.4626 39.368 48.7252 39.314C48.9915 39.26 49.2541 39.1943 49.505 39.0978C49.6324 39.0553 49.7482 38.9936 49.8679 38.9395C49.9837 38.8778 50.0995 38.8199 50.1999 38.7388C50.3118 38.6693 50.3929 38.5766 50.4894 38.4956C50.5589 38.3991 50.6554 38.3025 50.694 38.1983C50.7172 38.1443 50.7519 38.1095 50.7674 38.0362L50.8214 37.8316C50.8369 37.735 50.8562 37.5845 50.8484 37.4648L50.8369 37.2756L50.7944 37.0942C50.7558 36.9784 50.7133 36.8587 50.6438 36.7545C50.5782 36.6464 50.501 36.546 50.4083 36.4572C50.3196 36.3646 50.2153 36.2874 50.1072 36.214C49.891 36.0712 49.6362 35.9592 49.393 35.8936L48.6634 35.6967L49.4046 35.6041C50.2115 35.5037 51.0299 35.33 51.7943 35.0327C52.1765 34.8821 52.5432 34.693 52.8598 34.4343C53.0142 34.3031 53.157 34.1564 53.2613 33.9904C53.3694 33.8244 53.4466 33.6275 53.4581 33.4383C53.462 33.3341 53.4659 33.2337 53.4427 33.1372C53.4195 33.0407 53.4234 32.9364 53.3809 32.8438C53.3423 32.7511 53.3114 32.6546 53.269 32.5658L53.1107 32.311C52.9833 32.1528 52.8482 32.0022 52.6899 31.8787C52.5393 31.7474 52.3656 31.6316 52.1958 31.5273C52.022 31.4193 51.8406 31.3305 51.6591 31.2378C51.4738 31.1567 51.2847 31.0718 51.0917 31.0023C50.7095 30.8633 50.3118 30.7437 49.9219 30.651L49.1846 30.4773L49.9258 30.3306C50.5203 30.2109 51.1225 30.0642 51.6978 29.8828C51.9834 29.7863 52.2691 29.6782 52.5123 29.5315C52.632 29.4581 52.7362 29.3655 52.7826 29.2767C52.7826 29.2574 52.798 29.269 52.798 29.2149V29.1879C52.798 29.1763 52.798 29.1686 52.7941 29.157C52.7748 29.1107 52.7478 29.0605 52.7053 29.0103C52.5278 28.8057 52.2691 28.6281 52.0143 28.4737C51.7557 28.3154 51.4816 28.1726 51.2075 28.0375C50.6554 27.7634 50.0918 27.5163 49.5204 27.2769L49.532 27.2422L49.5204 27.2499Z" fill="#989898"/>
<path d="M53.9018 31.6578C53.9018 31.6578 54.4346 31.5149 55.2337 31.3065C55.6313 31.2022 56.0984 31.0825 56.5964 30.9552C57.0945 30.8355 57.6233 30.6811 58.1522 30.5421C58.4186 30.4803 58.6773 30.3954 58.9359 30.3182C59.1946 30.2371 59.4494 30.1715 59.6964 30.102C59.9396 30.0286 60.1713 29.9398 60.3952 29.8665C60.6191 29.7931 60.8314 29.7237 61.0245 29.6619C61.2175 29.5963 61.3873 29.5113 61.5418 29.4534C61.6962 29.3916 61.8313 29.3337 61.9432 29.2874C62.1672 29.1948 62.2984 29.1484 62.2984 29.1484C62.2984 29.1484 62.1865 29.2256 61.978 29.353C61.8738 29.4148 61.7502 29.492 61.6035 29.5808C61.4568 29.6657 61.2985 29.7816 61.1094 29.8626C60.9202 29.9476 60.7117 30.0363 60.4956 30.1329C60.2755 30.2255 60.0477 30.3336 59.8007 30.4185C59.5536 30.4996 59.3027 30.5923 59.0401 30.6695C58.7815 30.7505 58.519 30.8432 58.2487 30.9088C57.9785 30.9745 57.7121 31.0439 57.4496 31.1096C57.1871 31.1791 56.9246 31.2292 56.6698 31.2794C56.1602 31.3837 55.6854 31.4647 55.2723 31.5149C54.8631 31.5767 54.5156 31.5999 54.2763 31.6269C54.0369 31.65 53.8979 31.6539 53.8979 31.6539L53.9018 31.6578Z" fill="#989898"/>
<path d="M51.9716 37.5911C51.9716 37.5911 52.3808 37.5061 52.9985 37.3787C53.3035 37.317 53.6625 37.2436 54.0408 37.1664C54.23 37.124 54.4269 37.0815 54.6276 37.039C54.8284 36.9927 55.033 36.9618 55.2299 36.9078C55.4306 36.8614 55.6313 36.8113 55.8282 36.7649C56.0251 36.7186 56.222 36.68 56.4073 36.6221C56.5965 36.5719 56.7741 36.5217 56.9478 36.4754C57.1176 36.4252 57.2875 36.3982 57.4342 36.3441C57.7276 36.2438 57.9824 36.1781 58.1561 36.1241C58.3337 36.0739 58.4379 36.0469 58.4379 36.0469C58.4379 36.0469 58.3491 36.1009 58.187 36.1897C58.0249 36.2746 57.7971 36.4098 57.5114 36.5487C57.3724 36.626 57.2103 36.68 57.0404 36.7456C56.8706 36.8074 56.6891 36.8769 56.5038 36.9425C56.1332 37.0853 55.7201 37.1664 55.3109 37.2784C55.1063 37.3286 54.8979 37.3594 54.6932 37.3981C54.4886 37.4367 54.2879 37.4675 54.091 37.4946C53.6972 37.537 53.3343 37.5834 53.0178 37.5911C52.3885 37.622 51.9639 37.5834 51.9639 37.5834L51.9716 37.5911Z" fill="#989898"/>
<path d="M50.4775 41.7415C50.4775 41.7415 50.547 41.7261 50.6667 41.6952C50.7864 41.672 50.9601 41.6334 51.1647 41.5987C51.3693 41.5601 51.6087 41.5253 51.8635 41.4983C52.1183 41.4597 52.3924 41.425 52.6626 41.3941C52.7977 41.3825 52.9367 41.3709 53.0718 41.3593C53.2069 41.3439 53.342 41.3477 53.4656 41.3246C53.7204 41.2937 53.9597 41.2744 54.1682 41.2667C54.5813 41.2435 54.8708 41.2589 54.8708 41.2589C54.8708 41.2589 54.6121 41.367 54.2107 41.4829C54.0099 41.5408 53.7706 41.6025 53.5158 41.6604C53.261 41.7222 52.983 41.7415 52.7051 41.7763C52.4271 41.7994 52.1491 41.8303 51.8905 41.8342C51.628 41.8342 51.3848 41.8342 51.1763 41.8187C50.7594 41.8033 50.4814 41.7415 50.4814 41.7415H50.4775Z" fill="#989898"/>
<path d="M34.916 54.4816L34.3369 58.3421C34.3369 58.3421 32.7194 60.5387 33.395 60.9711C34.0706 61.4035 35.5182 59.9326 35.5182 59.9326C35.5182 59.9326 37.6415 61.3572 38.46 61.3301C39.2784 61.3031 39.2784 60.7742 39.2784 60.7742C39.2784 60.7742 40.533 60.8476 40.2898 59.7357C40.0466 58.6239 36.2595 58.2147 36.2595 58.2147L36.9119 54.0183C36.9119 54.0183 35.6341 53.3659 34.9083 54.4777L34.916 54.4816Z" fill="#CCCCCC"/>
<path d="M39.2824 60.7816C39.2824 60.7816 39.2631 60.7314 39.2207 60.6735C39.1936 60.6464 39.1628 60.6117 39.128 60.5692C39.0933 60.5306 39.0392 60.4959 38.9929 60.4534C38.9002 60.3685 38.7574 60.2951 38.63 60.2025C38.5567 60.16 38.4794 60.1214 38.41 60.0751C38.3366 60.0326 38.2671 59.9786 38.186 59.94C38.0316 59.855 37.8733 59.7701 37.7305 59.6775C37.5877 59.5887 37.4448 59.5192 37.329 59.4381C37.0974 59.2914 36.9507 59.1602 36.9507 59.1602C36.9507 59.1602 37.1437 59.1717 37.4178 59.2335C37.4873 59.2489 37.5606 59.2682 37.6379 59.2914C37.7151 59.3146 37.8 59.33 37.8772 59.3686C38.0393 59.4342 38.2092 59.5192 38.3752 59.6041C38.4601 59.6466 38.5335 59.7083 38.6107 59.7624C38.6879 59.8164 38.7613 59.8743 38.8308 59.9284C38.9002 59.9863 38.9581 60.0558 39.0161 60.1176C39.074 60.1793 39.1242 60.2372 39.1589 60.3067C39.2438 60.4303 39.2786 60.5577 39.294 60.6387C39.3017 60.7352 39.2824 60.7738 39.2824 60.7738V60.7816Z" fill="#989898"/>
<path d="M38.9928 48.5703C38.9928 48.5703 38.6801 54.6004 36.0974 55.1795C33.5148 55.7586 32.4531 51.6819 32.4531 51.6819C32.4531 51.6819 36.2634 48.6166 38.9928 48.5703Z" fill="#EBEBEB"/>
<path d="M41.6944 47.2434C34.649 54.8679 18.6279 58.2458 16.022 58.6319C13.4162 59.0179 13.3197 57.4737 13.3197 57.4737C13.3197 57.4737 10.7138 58.8249 8.8801 58.5353C7.04636 58.2458 8.01148 57.2807 8.01148 57.2807C8.01148 57.2807 4.53703 57.9563 2.51026 56.8946C0.483492 55.833 2.0277 55.3504 3.86144 54.6748C5.69518 53.9992 11.2929 50.8143 13.8022 38.4607C16.3116 26.1071 9.6522 17.9035 10.9069 14.1395C12.1615 10.3755 25.4803 6.41847 25.4803 6.41847C33.0083 4.3917 38.7025 4.87427 40.8258 5.35683C41.5554 5.52283 42.4202 6.71187 43.2888 8.43751C44.1497 10.1554 45.0145 12.4023 45.7364 14.6877C46.4042 16.7839 46.9563 18.9149 47.2922 20.7024C48.3538 26.3966 48.7399 39.6188 41.6944 47.2434Z" fill="#EBEBEB"/>
<path d="M26.4458 6.9991C26.4458 6.9991 26.9786 4.48977 28.5691 2.51318C30.1596 0.536604 31.8042 0.826142 31.947 1.35503C32.0899 1.88392 32.0435 2.6097 29.8701 5.02252C29.8701 5.02252 32.9122 3.47831 33.2982 5.26187C33.6843 7.04542 32.4296 9.02586 29.5342 7.57817" fill="#CCCCCC"/>
<path d="M26.407 6.99101C26.4495 6.42351 26.5808 5.8676 26.739 5.32327C26.8278 5.05303 26.9089 4.77894 27.0247 4.51642C27.1405 4.25391 27.2409 3.98753 27.3799 3.73274C27.5189 3.48181 27.6501 3.22315 27.8084 2.9838C27.9744 2.74059 28.1288 2.51668 28.3219 2.26961C28.4145 2.16537 28.5033 2.05728 28.6037 1.95691L28.9395 1.64806C29.175 1.46276 29.4182 1.28904 29.6885 1.15778C30.2212 0.887544 30.8312 0.725403 31.4411 0.852799C31.5917 0.899125 31.7423 0.94545 31.8735 1.05354C31.9353 1.10759 32.0009 1.17322 32.0357 1.26201C32.0472 1.28904 32.055 1.29676 32.0627 1.33536L32.0704 1.38555L32.0897 1.48978C32.1283 1.79476 32.0704 2.11132 31.9546 2.37384C31.9121 2.51668 31.8426 2.64021 31.777 2.76761C31.7114 2.89501 31.6535 3.03013 31.5763 3.1498C31.4296 3.39301 31.2867 3.64395 31.1207 3.87172C30.9586 4.10335 30.8042 4.34656 30.6304 4.56661L30.1093 5.23834L29.7194 4.72875C29.9162 4.62066 30.1054 4.53186 30.3023 4.45079C30.4992 4.36972 30.6999 4.29251 30.9084 4.22688C31.1169 4.16125 31.3253 4.10335 31.5492 4.06474C31.7693 4.02228 32.0009 3.99911 32.248 4.0107C32.4912 4.01456 32.7576 4.07246 33.0085 4.20758C33.1282 4.28093 33.2479 4.37744 33.3521 4.48168C33.4332 4.59749 33.5374 4.71717 33.5837 4.84456C33.6262 4.97582 33.6841 5.09164 33.7073 5.2422L33.7459 5.54718L33.7575 5.91779C33.7536 6.03746 33.7382 6.14942 33.7266 6.26909C33.6918 6.50072 33.6339 6.72849 33.5413 6.94854C33.4486 7.16859 33.3289 7.37706 33.1745 7.56237C33.0201 7.74767 32.8309 7.90595 32.6225 8.02948C32.414 8.14916 32.1901 8.23795 31.9585 8.2727C31.8426 8.30358 31.7307 8.30744 31.6149 8.3113C31.5029 8.3113 31.3871 8.32289 31.279 8.30358L30.9509 8.25725L30.6382 8.16846C30.4297 8.11828 30.2444 8.00632 30.0475 7.92911C29.8622 7.8326 29.6846 7.72064 29.507 7.61255L29.5418 7.54306L30.1247 7.71678C30.3255 7.75153 30.5146 7.8133 30.7115 7.82102L31.0011 7.8519L31.2867 7.84032C31.3832 7.84418 31.472 7.82102 31.5608 7.80557C31.6496 7.79399 31.7384 7.77469 31.8195 7.73995C32.1553 7.62799 32.4333 7.41952 32.6186 7.14157C32.8116 6.86747 32.9081 6.52389 32.9429 6.17644L32.9545 5.91393L32.939 5.67071L32.885 5.36959C32.8734 5.31941 32.8387 5.24606 32.8232 5.18429C32.8039 5.11866 32.7537 5.08778 32.7306 5.02987C32.6881 4.99513 32.6456 4.95652 32.5954 4.92178C32.4835 4.87159 32.3484 4.81754 32.1824 4.80596C32.0202 4.78666 31.8388 4.79438 31.6573 4.8214C31.4759 4.8407 31.2867 4.88317 31.1014 4.9295C30.9161 4.97582 30.7308 5.03373 30.5455 5.09936C30.3641 5.16499 30.171 5.23448 30.005 5.30783L28.4415 6.00272L29.6151 4.79824L30.1942 4.20372C30.3949 4.0107 30.5725 3.80223 30.7617 3.60148C30.9547 3.40073 31.1169 3.18069 31.2867 2.9645C31.3755 2.86026 31.445 2.74445 31.5184 2.62863C31.5917 2.51282 31.6651 2.397 31.7114 2.27347C31.7732 2.15379 31.8156 2.03026 31.8349 1.90286C31.8504 1.84109 31.8658 1.77546 31.8581 1.71755C31.8542 1.65578 31.8735 1.60174 31.8504 1.53225C31.8195 1.37011 31.8002 1.31992 31.7075 1.24271C31.6226 1.16936 31.4952 1.14234 31.3755 1.11917C31.1246 1.08443 30.8659 1.13076 30.6227 1.22341C30.3834 1.31992 30.1517 1.4396 29.9433 1.59788C29.7348 1.7523 29.5418 1.92988 29.3565 2.11518L29.0978 2.397C29.0129 2.50896 28.9202 2.61319 28.8314 2.71742C28.6925 2.91817 28.5226 3.1498 28.3605 3.35827C28.1983 3.57446 28.0748 3.81767 27.9242 4.04158C27.7698 4.26549 27.6617 4.51642 27.5189 4.75191C27.376 4.9874 27.2757 5.2422 27.1444 5.48541C27.0247 5.73248 26.9128 5.98728 26.797 6.23821C26.6889 6.493 26.573 6.7478 26.4688 7.01031L26.3916 6.99487L26.407 6.99101Z" fill="#989898"/>
<path d="M23.96 56.753L23.7902 59.9842C23.7902 59.9842 22.9215 60.5401 21.2345 61.0458C19.5475 61.5516 19.2579 62.3468 20.2462 62.8796C20.2462 62.8796 20.2925 63.9181 21.5009 63.6285C22.7092 63.339 24.2496 62.1075 24.6626 62.0612C25.0757 62.0148 26.23 63.2425 27.0021 62.8333C27.7742 62.4241 27.0484 61.3624 25.288 60.4204L25.8903 56.3438L23.96 56.753Z" fill="#CCCCCC"/>
<path d="M20.2461 62.8786C20.2461 62.8786 20.2307 62.8284 20.2654 62.7397C20.2808 62.6972 20.2963 62.6238 20.3349 62.5737C20.3696 62.5196 20.4121 62.4578 20.4623 62.3961C20.5125 62.3343 20.5627 62.2532 20.636 62.1992C20.7055 62.1413 20.775 62.0756 20.8561 62.0177C20.9333 61.956 21.0143 61.8903 21.0993 61.8324C21.1996 61.7629 21.2807 61.7282 21.3695 61.6741C21.4622 61.6278 21.5509 61.5815 21.6397 61.5352C21.7324 61.4889 21.8173 61.4464 21.9138 61.4155C22.103 61.3499 22.2806 61.2958 22.435 61.2572C22.5894 61.2302 22.7207 61.2148 22.8133 61.207C22.906 61.207 22.96 61.207 22.96 61.207C22.96 61.207 22.9137 61.2341 22.8365 61.2804C22.7593 61.3306 22.6473 61.3962 22.5161 61.4657C22.3887 61.5468 22.2381 61.6356 22.076 61.7166C21.9949 61.7514 21.9138 61.817 21.825 61.8633C21.7363 61.9135 21.6475 61.9637 21.5587 62.0139C21.4737 62.0602 21.3656 62.1065 21.3 62.149C21.2189 62.203 21.1379 62.2494 21.0568 62.2957C20.9796 62.342 20.8985 62.3845 20.8213 62.427C20.7402 62.4656 20.6862 62.5157 20.6244 62.5543C20.5665 62.5968 20.5086 62.6354 20.4546 62.6663C20.4005 62.701 20.3812 62.7358 20.3426 62.7667C20.3117 62.7976 20.277 62.8207 20.2693 62.8477C20.2577 62.8709 20.25 62.8825 20.25 62.8825L20.2461 62.8786Z" fill="#989898"/>
<path d="M21.3618 54.3253C21.3618 54.3253 22.4543 57.348 24.7706 57.348C27.087 57.348 28.469 52.1055 28.469 52.1055" fill="#EBEBEB"/>
<path d="M42.1659 24.8867C42.3937 24.9871 42.6099 25.1068 42.8261 25.2342C43.0384 25.3616 43.2469 25.4967 43.4476 25.6472C43.6484 25.7939 43.8453 25.9484 44.0344 26.1105C44.2236 26.2765 44.405 26.4464 44.5826 26.6278C44.7602 26.8054 44.9223 27.0023 45.0806 27.1992C45.2351 27.3999 45.3895 27.6045 45.5169 27.8284C45.6597 28.0408 45.7601 28.284 45.8798 28.5117C45.9724 28.7549 46.0766 28.9943 46.1268 29.253C46.1577 29.3842 46.1886 29.4962 46.2118 29.6467C46.2233 29.7703 46.2426 29.8822 46.2465 30.0328C46.2581 30.3146 46.2233 30.5964 46.1075 30.8782C45.9956 31.16 45.7601 31.4148 45.4783 31.5307C45.2003 31.6542 44.9185 31.6658 44.656 31.6465C44.1309 31.6001 43.6561 31.4341 43.1928 31.2527C42.7334 31.0597 42.2895 30.8396 41.8687 30.5539L42.0656 30.3879C42.4285 31.0597 42.7566 31.7391 43.0191 32.4688C43.1504 32.8316 43.2585 33.2061 43.3202 33.5999C43.3859 33.9937 43.4013 34.4106 43.3087 34.843C43.2623 35.0592 43.1697 35.2754 43.0384 35.4761C42.9072 35.6768 42.7219 35.8467 42.5134 35.9702L42.2702 36.1131L41.9459 36.2482C41.7297 36.3177 41.5174 36.3679 41.2935 36.3872C41.0696 36.4065 40.8457 36.3872 40.6295 36.3447C40.4133 36.3022 40.2048 36.2328 40.0079 36.1478C39.8149 36.059 39.6219 35.9625 39.4559 35.839C39.2783 35.7154 39.1277 35.5958 38.9617 35.4221L39.645 35.1093C39.6605 35.3834 39.6643 35.6382 39.6566 35.9007C39.645 36.1594 39.6257 36.4219 39.591 36.6844C39.5215 37.2056 39.398 37.7345 39.12 38.2286C38.9772 38.4718 38.7803 38.7035 38.5178 38.8618C38.4521 38.9004 38.3826 38.9274 38.3132 38.9583C38.2398 38.9814 38.1665 39.0007 38.097 39.02L37.8769 39.0432C37.8036 39.0432 37.7341 39.0355 37.6646 39.0316C37.5256 39.0123 37.3905 38.9814 37.267 38.9313C37.1396 38.8888 37.0237 38.827 36.9041 38.7691C36.7883 38.7112 36.684 38.634 36.5721 38.5684L36.2671 38.3367L36.3096 38.2711C36.5373 38.3753 36.7612 38.4796 36.9929 38.5529C37.1087 38.5877 37.2245 38.6224 37.3403 38.6379C37.4561 38.6649 37.5719 38.661 37.68 38.6649L37.8422 38.6533L37.9927 38.6186L38.1317 38.5568C38.1742 38.5259 38.2166 38.5027 38.2552 38.4757C38.4097 38.3522 38.5255 38.1707 38.6104 37.97C38.788 37.5685 38.8459 37.0898 38.8807 36.6188C38.8961 36.3795 38.8961 36.1401 38.8884 35.9007C38.8807 35.6614 38.8729 35.4143 38.8498 35.1904L38.7378 34.1326L39.5369 34.8777C39.6335 34.9704 39.7802 35.0823 39.9153 35.1673C40.0542 35.256 40.1971 35.3333 40.3438 35.4027C40.4905 35.4645 40.641 35.5147 40.7916 35.5456C40.9422 35.5726 41.0966 35.5881 41.2471 35.5842C41.3977 35.5842 41.5521 35.5494 41.695 35.5147C41.7606 35.4915 41.8262 35.4684 41.8957 35.4452L42.1428 35.314C42.3821 35.1943 42.5443 34.9704 42.6292 34.6731C42.7141 34.3759 42.7257 34.0284 42.7026 33.681C42.6755 33.3297 42.6215 32.9706 42.5443 32.6155C42.4671 32.2564 42.3667 31.9013 42.247 31.5538C42.1273 31.2025 41.9961 30.8512 41.8378 30.5231L41.5946 30.0173L42.0347 30.3532C42.4092 30.6427 42.8415 30.8705 43.2894 31.0365C43.7333 31.2064 44.2159 31.3145 44.6714 31.2874C44.8953 31.2759 45.1154 31.2257 45.2737 31.1253C45.4397 31.0288 45.5362 30.8821 45.5825 30.7006C45.6327 30.5231 45.6211 30.303 45.6057 30.0984C45.5979 30.0058 45.5748 29.8784 45.5516 29.7587L45.4667 29.4383C45.4242 29.2144 45.3161 29.0097 45.2505 28.7936C45.1501 28.5851 45.069 28.3728 44.9455 28.172C44.8374 27.9674 44.71 27.7705 44.5826 27.5775C44.4475 27.3845 44.3085 27.1953 44.1618 27.01C44.0151 26.8208 43.8607 26.6432 43.6986 26.4657C43.5364 26.2919 43.3743 26.1105 43.2006 25.9445C42.8608 25.6048 42.5018 25.2766 42.1273 24.9601L42.1659 24.8944V24.8867Z" fill="#989898"/>
<path d="M45.7372 14.6903C45.3048 20.3768 38.1744 27.2176 38.1744 27.2176C38.1744 27.2176 33.9742 26.4455 29.967 26.4455C25.9598 26.4455 21.2345 26.4957 17.6134 23.7431C13.9961 20.9945 14.7682 14.0456 19.837 12.5013C24.902 10.9571 30.4534 14.4316 30.4534 14.4316L36.3368 12.1153C38.0779 7.04645 41.1239 6.56774 43.2896 8.44009C44.1505 10.158 45.0153 12.4048 45.7372 14.6903Z" fill="#EBEBEB"/>
<path d="M28.2835 23.4623C28.3916 23.8638 27.5886 24.4275 26.4923 24.717C25.3959 25.0104 24.423 24.9177 24.3149 24.5162C24.2068 24.1148 25.0098 23.5511 26.1062 23.2616C27.2026 22.9682 28.1754 23.0608 28.2835 23.4623Z" fill="#CCCCCC"/>
<path d="M44.1041 17.5044C44.1774 17.7862 43.7026 18.1607 43.0347 18.3383C42.3669 18.5159 41.7685 18.4309 41.6913 18.1453C41.6141 17.8634 42.0928 17.489 42.7606 17.3114C43.4285 17.1338 44.0269 17.2187 44.1041 17.5044Z" fill="#CCCCCC"/>
<path d="M21.107 14.7541C21.107 14.7541 21.0761 14.5224 21.1765 14.1904C21.1958 14.1055 21.2383 14.0206 21.2807 13.9279C21.3193 13.8353 21.385 13.7503 21.4467 13.6538C21.5085 13.5612 21.6012 13.484 21.6822 13.399C21.7672 13.3141 21.883 13.2639 21.9834 13.1983C22.0181 13.179 22.0142 13.1751 22.0837 13.1481L22.1609 13.1249L22.3154 13.0786L22.3926 13.0555H22.4891C22.5547 13.0477 22.6165 13.0477 22.6782 13.0477C22.8018 13.04 22.9022 13.0863 23.0064 13.1095C23.1068 13.1404 23.1917 13.1906 23.2689 13.2292C23.4195 13.3218 23.5237 13.4222 23.5893 13.4956C23.6511 13.5728 23.682 13.623 23.682 13.623C23.682 13.623 23.6318 13.5959 23.543 13.5573C23.5005 13.5419 23.4465 13.5187 23.3847 13.4956C23.323 13.4763 23.2573 13.4569 23.1801 13.4338C23.1029 13.4222 23.0257 13.4029 22.9408 13.3913C22.8558 13.3913 22.767 13.3759 22.686 13.3913C22.5972 13.4145 22.5393 13.3913 22.4273 13.4376L22.2729 13.4878L22.1957 13.5149C22.215 13.511 22.1648 13.5342 22.1571 13.5457C22.076 13.5959 21.9834 13.6268 21.9139 13.6924C21.8482 13.7581 21.7594 13.8044 21.7015 13.8739C21.6436 13.9472 21.5703 14.0051 21.524 14.0785C21.4776 14.1518 21.4159 14.2136 21.3773 14.2792C21.2035 14.5418 21.107 14.7502 21.107 14.7502V14.7541Z" fill="#989898"/>
<path d="M38.4444 10.3753C38.4444 10.3753 38.4135 10.1436 38.5139 9.81549C38.5332 9.73056 38.5757 9.64562 38.6181 9.55297C38.6568 9.46032 38.7224 9.37539 38.7841 9.28274C38.8459 9.19008 38.9386 9.11287 39.0196 9.02794C39.1046 8.94301 39.2204 8.89283 39.3208 8.8272C39.3555 8.8079 39.3516 8.80403 39.4211 8.77701L39.4983 8.75385L39.6528 8.70752L39.73 8.68436H39.8265C39.8921 8.67663 39.9539 8.67664 40.0157 8.67664C40.1392 8.66892 40.2396 8.71524 40.3438 8.7384C40.4442 8.76929 40.5291 8.81947 40.6063 8.85808C40.7569 8.95073 40.8611 9.0511 40.9267 9.12445C40.9885 9.20166 41.0194 9.25185 41.0194 9.25185C41.0194 9.25185 40.9692 9.22483 40.8804 9.18622C40.8379 9.16692 40.7839 9.14762 40.7221 9.12445C40.6604 9.10515 40.5947 9.08585 40.5175 9.06269C40.4403 9.05111 40.3631 9.03181 40.2782 9.02022C40.1932 9.02022 40.1044 9.00478 40.0234 9.02022C39.9346 9.04339 39.8767 9.02022 39.7647 9.06655L39.6103 9.11674L39.5331 9.14376C39.5524 9.1399 39.5022 9.16306 39.4945 9.17464C39.4134 9.22483 39.3208 9.25571 39.2513 9.32134C39.1856 9.38697 39.0968 9.4333 39.0389 9.50279C38.981 9.57614 38.9077 9.63404 38.8614 9.70353C38.815 9.77688 38.7533 9.83865 38.7147 9.90428C38.5409 10.1668 38.4444 10.3753 38.4444 10.3753Z" fill="#989898"/>
<path d="M25.6698 22.5231C24.585 22.8551 23.4693 22.7084 22.5467 22.1988C21.6626 21.7162 20.96 20.9055 20.6396 19.867C20.3693 18.9868 20.4157 18.0873 20.7168 17.2882C21.1337 16.1532 22.0525 15.219 23.2956 14.8368C25.4189 14.1805 27.6696 15.3695 28.3258 17.4928C28.9821 19.6122 27.7931 21.8668 25.6698 22.5231Z" fill="white"/>
<path d="M26.3802 19.1425C26.3802 20.872 24.9749 22.2772 23.2454 22.2772C23.0061 22.2772 22.7706 22.2502 22.5467 22.1962C21.6626 21.7136 20.96 20.9029 20.6396 19.8644C20.3693 18.9842 20.4157 18.0847 20.7168 17.2856C21.2881 16.5096 22.2108 16.0039 23.2454 16.0039C24.9749 16.0039 26.3802 17.413 26.3802 19.1425Z" fill="#989898"/>
<path d="M20.64 19.8675C20.64 19.8675 20.6207 19.8212 20.5859 19.7362C20.555 19.6474 20.4855 19.5278 20.4469 19.354C20.4238 19.2691 20.3968 19.1726 20.3697 19.0645C20.3543 18.9564 20.335 18.8406 20.3157 18.7209C20.2887 18.47 20.2848 18.1843 20.3157 17.8755C20.3582 17.5666 20.4238 17.2269 20.5666 16.891C20.694 16.5513 20.887 16.2116 21.1303 15.895C21.3773 15.5785 21.6784 15.2851 22.0259 15.038C22.3772 14.7986 22.771 14.6133 23.1802 14.4705C23.4157 14.4165 23.5585 14.3663 23.8017 14.3392C24.0256 14.3006 24.238 14.2968 24.4503 14.2891C24.8749 14.2929 25.2919 14.3663 25.6741 14.4898C26.0563 14.6172 26.4076 14.7832 26.7048 14.9955C27.0098 15.1924 27.2569 15.4356 27.4653 15.6673C27.67 15.9066 27.8244 16.146 27.944 16.366C27.9981 16.478 28.0483 16.5822 28.0946 16.6826C28.1294 16.783 28.1641 16.8756 28.1911 16.9605C28.2568 17.1227 28.2683 17.2694 28.2915 17.3582C28.3108 17.4508 28.3185 17.4971 28.3185 17.4971C28.3185 17.4971 28.2954 17.4547 28.249 17.3697C28.2027 17.2887 28.1487 17.1651 28.0483 17.0223C28.002 16.9528 27.9518 16.8717 27.8939 16.7868C27.8321 16.7057 27.7626 16.6208 27.6931 16.5282C27.5426 16.3506 27.3573 16.1653 27.1488 15.98C26.9287 15.8062 26.6817 15.6287 26.3998 15.4858C26.1257 15.3314 25.8053 15.231 25.481 15.1384C25.1529 15.0496 24.8016 15.0341 24.4503 15.0303C24.2727 15.0419 24.0951 15.0457 23.933 15.0805C23.7863 15.092 23.5508 15.1693 23.4002 15.204C23.0605 15.316 22.7324 15.4588 22.4351 15.6518C22.1456 15.8526 21.8676 16.0649 21.6437 16.3235C21.4275 16.5822 21.219 16.8447 21.0801 17.1265C20.9295 17.4045 20.8253 17.6863 20.7403 17.9565C20.6709 18.2268 20.6207 18.4854 20.5975 18.7171C20.5898 18.8329 20.5821 18.9448 20.5782 19.0452C20.5782 19.1456 20.5782 19.2382 20.5821 19.3232C20.5821 19.493 20.6091 19.632 20.6129 19.7247C20.6207 19.8173 20.6284 19.8675 20.6284 19.8675H20.64Z" fill="#989898"/>
<path d="M41.4522 17.0843C41.043 17.2117 40.6261 17.2503 40.2207 17.2195C38.9313 17.1114 37.7732 16.235 37.3678 14.9263C36.9702 13.6292 37.418 12.2741 38.3947 11.4596C38.719 11.1855 39.0973 10.9732 39.5258 10.8419C41.2476 10.3091 43.0775 11.2743 43.6103 12.9961C44.143 14.7217 43.1779 16.5516 41.4522 17.0843Z" fill="white"/>
<path d="M42.0197 14.4444C42.0197 15.6798 41.2785 16.7453 40.2207 17.2201C38.9313 17.112 37.7732 16.2357 37.3678 14.927C36.9702 13.6299 37.418 12.2748 38.3947 11.4602C38.5839 11.4216 38.7769 11.4023 38.9777 11.4023C40.6531 11.4023 42.0197 12.769 42.0197 14.4444Z" fill="#989898"/>
<path d="M37.3675 14.9257C37.3675 14.9257 37.3482 14.8871 37.3173 14.8215C37.2903 14.7481 37.2247 14.6555 37.1899 14.5165C37.1668 14.447 37.1436 14.3659 37.1166 14.281C37.0973 14.1961 37.0818 14.0996 37.0625 13.9992C37.0355 13.7946 37.0239 13.5591 37.0471 13.3004C37.078 13.0457 37.1243 12.76 37.2401 12.482C37.3405 12.1963 37.4988 11.9107 37.6995 11.6443C37.9041 11.3779 38.1512 11.1308 38.4407 10.9262C38.7341 10.7255 39.0623 10.5672 39.402 10.4514C39.6027 10.4051 39.707 10.3665 39.9193 10.3433C40.1123 10.3086 40.2861 10.3085 40.4636 10.3047C40.8188 10.3085 41.1662 10.3742 41.4828 10.4784C41.7994 10.5865 42.0889 10.7293 42.3321 10.9108C42.5831 11.0768 42.7838 11.2853 42.9537 11.4783C43.1197 11.679 43.2432 11.8798 43.3359 12.0651C43.3783 12.1616 43.4208 12.2465 43.4517 12.3276C43.4787 12.4125 43.5019 12.4897 43.525 12.5592C43.5752 12.6943 43.5752 12.814 43.5945 12.8874C43.6061 12.9646 43.6138 13.0032 43.6138 13.0032C43.6138 13.0032 43.5945 12.9684 43.552 12.9028C43.5096 12.8372 43.4594 12.7407 43.3783 12.6287C43.305 12.5129 43.1969 12.3816 43.0772 12.2427C42.9498 12.1037 42.7954 11.9609 42.6255 11.818C42.4441 11.6829 42.2472 11.5516 42.0194 11.4397C41.7994 11.3239 41.5446 11.2505 41.2898 11.181C41.0311 11.1154 40.7532 11.1077 40.4791 11.1038C40.3401 11.1115 40.2011 11.1193 40.0776 11.1463C39.9695 11.154 39.7687 11.2196 39.6568 11.2467C39.3904 11.3316 39.1318 11.4435 38.9001 11.5941C38.6762 11.7524 38.4523 11.9145 38.2747 12.1153C38.101 12.316 37.9311 12.5206 37.8153 12.7407C37.6918 12.9569 37.603 13.1808 37.5297 13.3931C37.4679 13.6093 37.4216 13.81 37.3945 13.9992C37.3752 14.1845 37.3598 14.3505 37.3636 14.4856C37.3559 14.6246 37.3714 14.7404 37.3752 14.8138C37.3791 14.891 37.383 14.9296 37.383 14.9296L37.3675 14.9257Z" fill="#989898"/>
<path d="M30.0172 13.8497C30.0172 13.8497 28.859 15.8765 30.5306 17.5172C32.2022 19.1579 35.1324 19.32 35.6458 17.8376C36.1593 16.359 31.4649 12.9155 30.0172 13.8497Z" fill="#ADADAD"/>
<path d="M36.1936 19.3193C36.1936 19.3193 37.3827 17.0339 37.6104 14.5246C37.8343 12.0153 36.6144 10.888 34.8424 11.3397C33.4063 11.7064 30.3758 12.6445 29.9087 13.8799C29.8006 14.1656 29.8315 14.4667 30.0477 14.7794C31.2058 16.451 35.8076 18.609 36.1936 19.3155V19.3193Z" fill="#CCCCCC"/>
<path d="M29.9087 13.8866C29.9087 13.8866 29.9048 13.9214 29.8971 13.9831C29.8933 14.014 29.8894 14.0526 29.8817 14.099C29.8817 14.1453 29.8933 14.1955 29.8971 14.2495C29.8971 14.3036 29.9164 14.3653 29.9435 14.4271C29.9628 14.4927 29.9936 14.5584 30.04 14.6201C30.1133 14.7552 30.2562 14.8711 30.3874 15.0293C30.538 15.1606 30.6808 15.3034 30.8661 15.4463C31.0398 15.593 31.2367 15.732 31.4375 15.8787C31.6382 16.0292 31.8544 16.1682 32.0706 16.3188C32.2906 16.4654 32.5107 16.616 32.7385 16.7588C33.6341 17.3456 34.549 17.9209 35.2053 18.3996C35.3713 18.5154 35.518 18.6351 35.6454 18.7393C35.769 18.8512 35.8848 18.9362 35.9658 19.0288C36.0508 19.1099 36.1125 19.1833 36.1434 19.2412C36.1782 19.2952 36.1975 19.3222 36.1975 19.3222C36.1975 19.3222 36.1743 19.2991 36.128 19.2527C36.0894 19.2026 36.0122 19.1524 35.9157 19.0829C35.7304 18.9439 35.4331 18.7818 35.0818 18.5849C34.3792 18.1911 33.4334 17.6699 32.5223 17.0793C32.0706 16.782 31.6228 16.4693 31.2251 16.145C31.0244 15.9867 30.8391 15.8207 30.6692 15.6547C30.4955 15.5003 30.3488 15.315 30.2098 15.1606C30.0979 14.9946 29.9705 14.8518 29.9087 14.678C29.8662 14.6008 29.8469 14.5236 29.8354 14.4464C29.8199 14.3731 29.8045 14.3074 29.8161 14.2418C29.8199 14.18 29.8238 14.1221 29.8315 14.0797C29.8469 14.0372 29.8624 13.9986 29.8701 13.9716C29.8933 13.9098 29.9048 13.8789 29.9048 13.8789L29.9087 13.8866Z" fill="#989898"/>
<path d="M33.3296 12.7422C33.3296 12.7422 33.3567 12.8155 33.3721 12.9198C33.3875 13.0279 33.403 13.1668 33.3914 13.3097C33.3837 13.4525 33.3567 13.5915 33.3258 13.6957C33.2949 13.8 33.2601 13.8695 33.2601 13.8695C33.2601 13.8695 33.2331 13.7961 33.2177 13.6919C33.2022 13.5838 33.1868 13.4448 33.1984 13.302C33.2061 13.1591 33.2331 13.0201 33.264 12.9159C33.2949 12.8117 33.3296 12.7422 33.3296 12.7422Z" fill="#989898"/>
<path d="M34.0854 12.4531C34.0854 12.4531 34.1588 12.4801 34.2553 12.5342C34.3518 12.5882 34.4754 12.6693 34.5835 12.7697C34.6915 12.8662 34.7881 12.9782 34.8537 13.0669C34.9193 13.1557 34.9541 13.2291 34.9541 13.2291C34.9541 13.2291 34.8807 13.2059 34.7842 13.148C34.6877 13.094 34.5642 13.0129 34.4561 12.9125C34.348 12.816 34.2515 12.7041 34.1858 12.6153C34.1202 12.5265 34.0854 12.4531 34.0854 12.4531Z" fill="#989898"/>
<path d="M28.4225 41.0198C28.4225 41.0198 29.9204 42.0814 30.6423 38.5606C31.3643 35.0399 31.0747 31.2257 26.1564 29.4421C21.2381 27.6586 14.5286 28.284 13.6098 32.2873C12.691 36.2907 11.8725 43.7723 9.17018 47.5826C6.46783 51.393 10.9074 53.2769 14.7679 49.899C14.7679 49.899 18.003 53.3232 23.1143 45.7991C23.1143 45.7991 24.4192 49.0303 28.4225 41.0236V41.0198Z" fill="#CCCCCC"/>
<path d="M18.0682 31.7556C18.0952 32.0142 18.1493 32.269 18.2265 32.5045C18.2689 32.6203 18.3153 32.7362 18.3732 32.8404C18.4349 32.9446 18.5006 33.0411 18.5778 33.1261L18.7052 33.238L18.8442 33.3268C18.9484 33.3731 19.0488 33.4156 19.1646 33.4311C19.2688 33.4658 19.4078 33.4504 19.5043 33.4658C19.6317 33.4542 19.7745 33.4581 19.8826 33.4349C19.9985 33.4233 20.1181 33.3886 20.2378 33.3538C20.3575 33.3191 20.4733 33.2651 20.593 33.2187C20.8207 33.1068 21.0369 32.9601 21.23 32.7902C21.616 32.4505 21.9287 32.022 22.1758 31.5819L22.3688 31.2383L22.4383 31.6436C22.5078 32.0567 22.6197 32.4814 22.805 32.8365C22.8552 32.9215 22.9093 33.0025 22.9672 33.0759C23.029 33.1454 23.0946 33.2033 23.1641 33.2496C23.2336 33.2921 23.3069 33.3191 23.388 33.3268L23.4189 33.3345C23.4189 33.3345 23.4459 33.3345 23.3918 33.3345H23.3996H23.4111H23.4304L23.5115 33.3268C23.5771 33.3268 23.6003 33.3075 23.6351 33.2998C23.6659 33.2921 23.7045 33.2805 23.747 33.2535C23.7856 33.2303 23.8319 33.2149 23.8705 33.184C23.9516 33.1338 24.0327 33.072 24.106 33.0025C24.2566 32.8636 24.3994 32.7053 24.5307 32.5354C24.8048 32.2034 25.0403 31.8328 25.2758 31.4622L25.3105 31.4776C25.1831 31.9062 24.9978 32.3115 24.7662 32.7014C24.6465 32.8944 24.5114 33.0797 24.3531 33.2535C24.2759 33.3423 24.1871 33.4233 24.0906 33.5005C24.0443 33.5391 23.9864 33.57 23.9323 33.6048C23.8821 33.6395 23.8204 33.6704 23.7431 33.6897C23.6698 33.7129 23.5926 33.7399 23.5463 33.7399L23.4652 33.7476H23.4459H23.4343H23.4304H23.3996L23.3455 33.7399C23.2065 33.7245 23.0676 33.6743 22.9517 33.6009C22.7163 33.4542 22.5734 33.2264 22.4692 33.0141C22.2684 32.5779 22.1874 32.1301 22.1642 31.6707L22.4229 31.7363C22.0947 32.1687 21.7125 32.5354 21.3149 32.8829C21.1141 33.0527 20.9057 33.2149 20.6818 33.3654C20.5698 33.4349 20.454 33.5121 20.3305 33.57C20.2069 33.6279 20.0834 33.6858 19.9405 33.7244C19.7977 33.7785 19.6742 33.7862 19.5429 33.8055C19.4541 33.8132 19.3962 33.8055 19.319 33.8055C19.2457 33.8055 19.1762 33.7978 19.1028 33.7785C18.9561 33.7553 18.821 33.6936 18.6859 33.6241L18.5044 33.4928L18.35 33.3307C18.2612 33.2149 18.1879 33.0913 18.1338 32.9601C18.0836 32.8288 18.045 32.6937 18.0219 32.5586C17.9794 32.2883 17.9833 32.0142 18.0335 31.7556H18.0721H18.0682Z" fill="#989898"/>
<path d="M14.5442 36.0975C14.5635 36.3523 14.606 36.6032 14.687 36.8387C14.7256 36.9584 14.7758 37.0704 14.8299 37.1823C14.8839 37.2904 14.9496 37.3946 15.0229 37.4873C15.1001 37.5761 15.1812 37.6649 15.2777 37.7344C15.3742 37.8 15.4707 37.8695 15.5827 37.9081C15.6869 37.9583 15.8027 37.9853 15.9185 38.0123C15.9996 38.0239 16.1772 38.0471 16.2699 38.0278L16.4281 38.0085L16.5903 37.9583C16.6984 37.9235 16.8026 37.8656 16.903 37.8077C17.0033 37.7421 17.0999 37.6803 17.1925 37.5992C17.289 37.5298 17.3701 37.4332 17.4589 37.3522C17.6288 37.1785 17.7832 36.9816 17.9337 36.7808C18.0804 36.5801 18.2155 36.3639 18.3314 36.1438L18.451 35.9161L18.536 36.1516C18.7367 36.6998 19.0764 37.2402 19.5706 37.5838C19.6324 37.6263 19.6941 37.6649 19.7636 37.6958C19.8292 37.7305 19.8949 37.7652 19.9682 37.7846C20.1072 37.8425 20.25 37.8695 20.3967 37.8888C20.4662 37.8888 20.5512 37.9004 20.6129 37.9004L20.8407 37.8733C20.9874 37.8425 21.1225 37.8116 21.2615 37.7537C21.4005 37.7035 21.5394 37.6417 21.6707 37.5722C21.8058 37.5105 21.9332 37.4255 22.0645 37.3522C22.3193 37.19 22.5702 37.0279 22.8096 36.8387C23.2921 36.4758 23.7592 36.0821 24.1839 35.6613L24.4232 35.4258L24.5159 35.7616C24.5468 35.8697 24.5931 35.9933 24.6433 36.1091C24.6973 36.221 24.7514 36.3369 24.817 36.4411C24.9483 36.6534 25.1104 36.8387 25.2996 36.9931L25.4463 37.0974L25.6046 37.1823C25.7165 37.2286 25.8246 37.2827 25.9443 37.302C26.0601 37.3367 26.1836 37.3445 26.3072 37.356C26.4037 37.3599 26.5736 37.356 26.6855 37.3367C26.8013 37.3136 26.9171 37.2943 27.0368 37.2479C27.1565 37.2132 27.2684 37.1514 27.3843 37.0974C27.4924 37.0279 27.612 36.9738 27.7124 36.8928C27.8205 36.8194 27.9247 36.7384 28.0251 36.6534C28.4227 36.3098 28.7779 35.9006 29.0829 35.4567L29.1176 35.476C28.886 35.9701 28.5733 36.4257 28.1834 36.8233C28.0869 36.9237 27.9865 37.0163 27.8745 37.1051C27.7703 37.2016 27.6506 37.275 27.531 37.3522C27.4036 37.4178 27.2839 37.495 27.1488 37.5452C27.0214 37.607 26.8708 37.6417 26.7241 37.6765C26.5697 37.7035 26.4693 37.7151 26.2956 37.7228C26.1489 37.7189 26.0022 37.7151 25.8555 37.6803C25.7088 37.6572 25.566 37.5992 25.4308 37.5452L25.2301 37.441L25.0448 37.3136C24.8054 37.1321 24.6163 36.9005 24.4619 36.6534C24.3846 36.5299 24.319 36.3986 24.265 36.2674C24.2109 36.1323 24.1646 36.001 24.1298 35.8466L24.4619 35.9431C23.9986 36.3677 23.5199 36.7577 23.0026 37.1051C22.4891 37.4526 21.9371 37.7614 21.3271 37.939C21.1804 37.9853 21.0067 38.0123 20.8561 38.0355L20.6245 38.0471L20.3813 38.0278C20.223 38.0046 20.0686 37.9699 19.9219 37.9042C19.8447 37.8772 19.7752 37.8425 19.7096 37.8039C19.6401 37.7691 19.5706 37.7266 19.5088 37.6765C19.3776 37.5915 19.2579 37.4873 19.1459 37.3792C19.034 37.2711 18.9259 37.1553 18.8332 37.0318C18.6402 36.7847 18.4703 36.526 18.3352 36.2288L18.5398 36.2365C18.3314 36.7229 18.0688 37.1785 17.7098 37.5838C17.3469 37.9737 16.8798 38.325 16.266 38.352C16.1077 38.3559 16.0228 38.3405 15.8529 38.3096C15.7178 38.271 15.5865 38.2362 15.4591 38.1667C15.3935 38.1397 15.3356 38.1011 15.2777 38.0587C15.2198 38.0162 15.1619 37.9814 15.1117 37.9313C15.0075 37.8386 14.9187 37.7305 14.8376 37.6185C14.7643 37.5027 14.6986 37.3831 14.6484 37.2595C14.5983 37.136 14.5635 37.0047 14.5365 36.8773C14.4863 36.6187 14.4709 36.3562 14.5017 36.0936H14.5403L14.5442 36.0975Z" fill="#989898"/>
<path d="M14.208 40.5783C14.3238 40.9682 14.4705 41.3543 14.679 41.6863C14.733 41.7673 14.7871 41.8484 14.8527 41.914C14.9145 41.9835 14.984 42.0414 15.0573 42.0839C15.1307 42.1264 15.2079 42.1534 15.2851 42.165C15.3198 42.165 15.37 42.1688 15.397 42.165L15.5476 42.1418C15.6287 42.1148 15.7097 42.0955 15.7985 42.053C15.8873 42.0221 15.9722 41.9719 16.0572 41.9256C16.227 41.8291 16.3892 41.7172 16.5513 41.6013C16.8679 41.362 17.1844 41.1072 17.4778 40.837L17.6863 40.6401L17.6979 40.9142C17.7018 41.03 17.7326 41.169 17.7751 41.2925C17.8176 41.4199 17.8755 41.5396 17.9527 41.6515C18.0222 41.7673 18.1225 41.86 18.2268 41.9488C18.331 42.0337 18.4507 42.1032 18.5781 42.1534C18.7055 42.2074 18.8367 42.2499 18.9757 42.2653C19.1108 42.2924 19.2498 42.2962 19.3888 42.3001C19.5162 42.3039 19.6706 42.2846 19.8057 42.2653C19.937 42.2306 20.0721 42.2152 20.1995 42.1611C20.462 42.08 20.713 41.9526 20.9523 41.8175C21.1917 41.6785 21.4271 41.5318 21.6472 41.362C21.8711 41.1998 22.0834 41.0223 22.2919 40.837C22.4965 40.6517 22.7011 40.4548 22.8787 40.254L23.1644 39.9336L23.23 40.3737C23.2416 40.4509 23.2686 40.5513 23.2995 40.6401C23.3304 40.7327 23.3728 40.8177 23.423 40.8987C23.4732 40.9798 23.5311 41.0531 23.5929 41.1226C23.6585 41.1883 23.728 41.25 23.8091 41.3041C23.8901 41.3543 23.9712 41.4045 24.0639 41.4353C24.1527 41.4778 24.2492 41.4932 24.3457 41.5241C24.4422 41.5357 24.5542 41.5627 24.6352 41.5627C24.7472 41.5627 24.8591 41.5705 24.9402 41.5473C25.029 41.5396 25.1255 41.5048 25.222 41.4778C25.3147 41.4431 25.4073 41.4006 25.4961 41.3504C25.5849 41.2964 25.6737 41.2462 25.7548 41.1805C25.8397 41.1226 25.9169 41.0454 25.998 40.9759C26.2991 40.6787 26.5655 40.3274 26.7778 39.9452L26.8126 39.9606C26.7431 40.1729 26.6504 40.3737 26.5423 40.5706C26.4342 40.7675 26.3068 40.9528 26.1601 41.1265C26.0096 41.2964 25.8474 41.4624 25.6505 41.5936C25.554 41.6592 25.4459 41.7172 25.3378 41.7635C25.2259 41.8059 25.1178 41.8523 24.9865 41.8754C24.8553 41.9102 24.7472 41.9102 24.6391 41.914C24.5001 41.9218 24.3959 41.8986 24.2762 41.8909C24.1565 41.8639 24.0407 41.8445 23.9249 41.7982C23.8091 41.7596 23.6971 41.7017 23.589 41.6399C23.4848 41.5743 23.3844 41.4932 23.2956 41.4083C23.2107 41.3157 23.1335 41.2191 23.0679 41.1111C23.0061 41.003 22.9482 40.891 22.9096 40.7752C22.8671 40.6555 22.8401 40.5474 22.8246 40.4046L23.176 40.5243C22.9675 40.7404 22.7552 40.9296 22.5313 41.1188C22.3073 41.3002 22.0796 41.4817 21.8364 41.6361C21.5931 41.7944 21.3422 41.9411 21.0758 42.0607C20.8095 42.1766 20.5354 42.2808 20.2497 42.3464C20.1107 42.3889 19.9563 42.3966 19.8135 42.4198C19.6668 42.4198 19.5355 42.4391 19.3811 42.4313C19.2344 42.4236 19.0915 42.4159 18.9487 42.3812C18.8753 42.3696 18.8059 42.3541 18.7364 42.3271C18.6669 42.304 18.5935 42.2924 18.5279 42.2576C18.2538 42.1495 18.0067 41.9758 17.8137 41.7442C17.7172 41.6322 17.6361 41.501 17.5744 41.3658C17.5087 41.2269 17.4624 41.0879 17.4392 40.9257L17.6593 41.003C17.3852 41.3234 17.0879 41.6129 16.7521 41.8716C16.5822 41.999 16.4046 42.1148 16.2155 42.219C16.1189 42.2653 16.0224 42.3194 15.9182 42.3541C15.8217 42.3966 15.702 42.4275 15.5862 42.4506L15.4318 42.4661C15.3546 42.4738 15.3005 42.4584 15.2349 42.4545C15.1114 42.4313 14.9917 42.385 14.899 42.3117C14.8025 42.2422 14.7214 42.1573 14.6558 42.0685C14.5863 41.9797 14.5323 41.887 14.4821 41.7905C14.3817 41.5975 14.3122 41.4006 14.2659 41.196C14.2157 40.9914 14.1771 40.7906 14.1655 40.5822L14.2041 40.5744L14.208 40.5783Z" fill="#989898"/>
<path d="M15.3472 43.5312C15.3472 43.5312 15.324 43.6393 15.27 43.8208C15.2159 44.0022 15.1387 44.2609 15.0267 44.5659C14.9109 44.8708 14.772 45.2222 14.5944 45.5889C14.4245 45.9595 14.2122 46.3378 13.996 46.7123C13.7682 47.0829 13.525 47.4458 13.2741 47.7662C13.0231 48.0905 12.7645 48.3723 12.5329 48.6001C12.4132 48.712 12.2974 48.8086 12.197 48.8935C12.1005 48.9823 12.0001 49.0441 11.9229 49.102C11.7685 49.2139 11.6797 49.2718 11.6797 49.2718C11.6797 49.2718 11.7492 49.1869 11.8727 49.0479C11.9345 48.9746 12.0156 48.9012 12.0928 48.7931C12.1738 48.6889 12.2626 48.5731 12.363 48.4534C12.4595 48.326 12.5599 48.187 12.668 48.0403C12.7722 47.8898 12.8803 47.7315 12.9961 47.5693C13.2162 47.2373 13.4478 46.8822 13.6601 46.5154C14.1002 45.7858 14.5094 45.0407 14.8221 44.4771C15.1348 43.9134 15.3433 43.5351 15.3433 43.5351L15.3472 43.5312Z" fill="#989898"/>
<path d="M19.8369 43.6719C19.8369 43.6719 19.8214 43.9884 19.7249 44.4517C19.6825 44.6833 19.6091 44.9497 19.5242 45.2315C19.4431 45.5133 19.3234 45.8067 19.2153 46.1001C19.0802 46.3858 18.9567 46.6753 18.81 46.934C18.6594 47.1888 18.5127 47.4243 18.3776 47.6173C18.0804 47.9918 17.8564 48.2118 17.8564 48.2118C17.8564 48.2118 17.9761 47.9107 18.1884 47.5054C18.2811 47.293 18.3853 47.0421 18.5089 46.7834C18.5706 46.656 18.617 46.5093 18.6787 46.3742C18.7366 46.2353 18.7984 46.0963 18.8602 45.9534C18.976 45.6678 19.0957 45.3859 19.2038 45.1196C19.3119 44.8493 19.42 44.6023 19.5126 44.3899C19.6979 43.9614 19.8369 43.6757 19.8369 43.6757V43.6719Z" fill="#989898"/>
<path d="M24.0333 42.4688C24.0333 42.4688 24.0372 42.6541 23.9909 42.9127C23.9677 43.044 23.9329 43.1945 23.8905 43.3528C23.8519 43.5111 23.7901 43.6732 23.7245 43.8392C23.655 43.9975 23.5855 44.1597 23.5083 44.3064C23.4388 44.453 23.3423 44.5843 23.2612 44.6924C23.1029 44.9086 22.9717 45.0283 22.9717 45.0283C22.9717 45.0283 22.9948 44.8391 23.0643 44.5882C23.0952 44.4608 23.1493 44.3295 23.1956 44.1712C23.2419 44.0168 23.3037 43.8547 23.3655 43.6964C23.5006 43.3798 23.6434 43.0671 23.7824 42.8432C23.9175 42.6154 24.0333 42.4726 24.0333 42.4726V42.4688Z" fill="#989898"/>
</svg>
