<svg width="65" height="114" viewBox="0 0 65 114" fill="none" xmlns="http://www.w3.org/2000/svg">
<path d="M30.3145 113.808C46.3912 113.808 59.424 112.116 59.424 110.029C59.424 107.942 46.3912 106.25 30.3145 106.25C14.2378 106.25 1.20508 107.942 1.20508 110.029C1.20508 112.116 14.2378 113.808 30.3145 113.808Z" fill="#F7F7F7"/>
<path d="M28.1692 89.5026C28.1692 89.5026 27.0457 94.3031 21.9388 95.6309L19.896 97.9801C19.896 97.9801 21.4281 109.215 20.1003 109.42C18.7725 109.624 15.2998 97.6737 15.2998 97.6737C15.2998 97.6737 18.5682 94.916 19.5896 89.809C20.611 84.7021 28.1692 89.5026 28.1692 89.5026Z" fill="#CCCCCC"/>
<path d="M40.5278 90.2134L47.5754 97.8738C47.5754 97.8738 48.3925 106.147 49.6182 106.351C50.8438 106.556 50.946 97.7717 50.6395 96.2396C50.3331 94.7075 45.839 85.6172 45.839 85.6172L40.5278 90.2134Z" fill="#CCCCCC"/>
<path d="M15.7086 75.9559C15.7086 75.9559 12.2359 72.618 9.98884 64.8555C9.98884 64.8555 5.15565 66.3549 6.10758 71.7314C7.05951 77.108 12.1011 77.3817 13.8701 76.8383L15.7086 75.9518V75.9559Z" fill="#EBEBEB"/>
<path d="M36.8839 67.9906C36.8839 67.9906 36.6797 73.6409 28.4391 74.8666C20.1986 76.0923 16.7259 73.2324 12.8446 75.8185C8.96337 78.4047 9.64566 84.1939 9.84994 88.21C10.0542 92.226 8.82855 95.8377 7.19434 97.9458C7.19434 97.9458 10.9408 110.337 12.3013 109.929C13.6617 109.52 11.8927 99.1715 11.8927 99.1715L13.1878 96.7201C13.1878 96.7201 17.2039 96.6507 21.2894 92.2261C21.2894 92.2261 26.1921 91.4784 29.5953 92.0218C32.9986 92.5652 37.7664 94.6774 45.0509 89.0924C46.8077 87.7483 47.9149 85.9833 48.5522 84.0059C50.5582 77.7878 47.8985 69.4941 46.1418 65.6701C43.8253 60.6326 36.8799 67.9866 36.8799 67.9866L36.8839 67.9906Z" fill="#EBEBEB"/>
<path d="M37.497 87.4606C37.497 87.4606 37.4806 88.7108 37.4766 90.6269C37.4766 91.6442 37.4766 92.8494 37.4807 94.1486C37.5133 100.73 37.7176 109.825 38.5878 109.996C39.6623 110.213 40.9493 104.032 42.6448 93.6951C42.8654 92.351 43.0942 90.9415 43.3271 89.4625C43.5763 87.8896 43.8337 86.2431 44.1033 84.5312" fill="#EBEBEB"/>
<path d="M37.4964 87.4611C37.4964 87.4611 37.5127 87.5673 37.5331 87.7471C37.5495 87.931 37.5863 88.1924 37.6067 88.507C37.6312 88.8216 37.6516 89.1852 37.6639 89.5774C37.6802 89.9696 37.6761 90.3904 37.6802 90.8031C37.6802 91.6406 37.6475 92.4741 37.5944 93.1032C37.574 93.4178 37.5331 93.6793 37.5168 93.8591C37.4964 94.0429 37.4759 94.1451 37.4759 94.1451C37.4759 94.1451 37.4555 94.0388 37.4351 93.8591C37.4187 93.6752 37.382 93.4137 37.3575 93.0992C37.3043 92.4741 37.2717 91.6365 37.2676 90.799C37.2676 89.9574 37.3125 89.128 37.3697 88.4988C37.3942 88.1843 37.4351 87.9228 37.4514 87.743C37.4759 87.5592 37.4923 87.457 37.4923 87.457L37.4964 87.4611Z" fill="#989898"/>
<path d="M42.644 93.7029C42.644 93.7029 42.6481 93.5558 42.6686 93.3025C42.6931 93.0492 42.7135 92.6856 42.7584 92.2526C42.8442 91.3864 42.9995 90.2343 43.1792 89.0904C43.359 87.9464 43.5755 86.8025 43.7594 85.9527C43.8493 85.5278 43.9432 85.1723 44.0004 84.9272C44.0617 84.678 44.1026 84.5391 44.1026 84.5391C44.1026 84.5391 44.0985 84.6861 44.0781 84.9394C44.0576 85.1927 44.0372 85.5564 43.9923 85.9894C43.9065 86.8556 43.7635 88.0077 43.5837 89.1557C43.3999 90.3038 43.1793 91.4395 42.9913 92.2934C42.9014 92.7183 42.8034 93.0697 42.7462 93.3189C42.6849 93.564 42.644 93.707 42.644 93.707V93.7029Z" fill="#989898"/>
<path d="M13.188 96.7231C13.188 96.7231 13.5107 96.6823 14.046 96.527C14.3156 96.4535 14.6343 96.3432 14.9938 96.2124C15.3533 96.0776 15.7496 95.8979 16.1745 95.6936C16.3829 95.5833 16.5994 95.4648 16.8241 95.3463C17.0407 95.2156 17.2654 95.0808 17.4982 94.9418C17.7189 94.7907 17.9517 94.6395 18.1805 94.4761C18.4052 94.3045 18.6381 94.1329 18.871 93.9572C19.0957 93.7693 19.3245 93.5773 19.5533 93.3812C19.7739 93.1728 19.9945 92.9644 20.2233 92.7561C20.4398 92.5355 20.6564 92.3108 20.8729 92.0901C20.9219 92.037 20.9955 91.9676 21.02 91.9308C21.0649 91.8736 21.1058 91.8246 21.1507 91.7592C21.2406 91.6366 21.3223 91.51 21.4081 91.3833C21.7472 90.8727 22.0332 90.3211 22.2783 89.7655C22.5153 89.2057 22.7318 88.6419 22.8789 88.0781C23.03 87.5184 23.1526 86.9628 23.2221 86.4317C23.2425 86.2968 23.2629 86.1661 23.2793 86.0395C23.2874 85.9087 23.2997 85.7821 23.3079 85.6554C23.3242 85.4021 23.3651 85.157 23.3569 84.9241C23.3569 84.4543 23.3732 84.0171 23.3365 83.6331C23.3079 83.249 23.2997 82.9058 23.2507 82.6321C23.1812 82.0765 23.1404 81.7578 23.1404 81.7578C23.1404 81.7578 23.2425 82.0601 23.41 82.6035C23.504 82.8732 23.5693 83.2082 23.647 83.5963C23.7409 83.9844 23.7818 84.4298 23.8267 84.9159C23.8594 85.1611 23.8431 85.4144 23.8553 85.6799C23.8635 85.9455 23.8553 86.2192 23.8308 86.5011C23.7981 87.0649 23.7205 87.6573 23.5775 88.262C23.5081 88.5643 23.4345 88.8707 23.3324 89.1731C23.2466 89.4795 23.1281 89.7818 23.0055 90.0841C22.7522 90.6847 22.454 91.2771 22.0945 91.8409C22.0046 91.9798 21.9065 92.1187 21.8044 92.2536C21.7554 92.3189 21.6941 92.3925 21.641 92.4619C21.5674 92.5518 21.5225 92.5886 21.4612 92.6539C21.2324 92.8827 20.9995 93.1156 20.7748 93.3403C20.5338 93.5568 20.2927 93.7652 20.0517 93.9736C19.8025 94.1656 19.5533 94.3576 19.3081 94.5455C19.0589 94.7253 18.8056 94.8887 18.5564 95.0522C18.3031 95.2074 18.0498 95.3463 17.8047 95.4852C17.5554 95.616 17.3103 95.7344 17.0733 95.8529C16.8282 95.9551 16.5912 96.049 16.3665 96.143C15.9049 96.3146 15.4759 96.4412 15.0918 96.5311C14.7037 96.6251 14.3646 96.6782 14.0827 96.7068C13.8008 96.7436 13.5761 96.7436 13.425 96.7476C13.2738 96.7476 13.1921 96.7436 13.1921 96.7436L13.188 96.7231Z" fill="#989898"/>
<path d="M23.2664 44.9679C23.2664 44.9679 21.3585 40.8129 16.0473 41.1561C10.7361 41.4993 9.30615 40.2695 9.30615 40.2695C9.30615 40.2695 10.3275 54.1604 21.289 49.8011L23.2623 44.9679H23.2664Z" fill="#EBEBEB"/>
<path d="M21.767 47.2204C21.767 47.2204 21.285 46.9385 20.5618 46.5136C20.2023 46.3094 19.7856 46.0765 19.3402 45.8518C19.1155 45.7374 18.8786 45.6353 18.6416 45.529C18.4047 45.4269 18.1595 45.3329 17.9144 45.2553C17.4241 45.0919 16.9257 45.0102 16.4681 45.0183C16.2393 45.0347 16.0187 45.0592 15.8185 45.1205C15.7164 45.1532 15.6183 45.1818 15.5284 45.2267C15.4345 45.2635 15.3405 45.3002 15.2629 45.3534C15.0913 45.4432 14.9483 45.5535 14.8135 45.6475C14.695 45.7578 14.5765 45.8477 14.4907 45.9294C14.3232 46.101 14.2129 46.1991 14.2129 46.1991C14.2129 46.1991 14.2578 46.0683 14.3559 45.8314C14.409 45.717 14.4866 45.5862 14.5847 45.431C14.695 45.288 14.8135 45.1205 14.9851 44.9734C15.1485 44.8181 15.3568 44.667 15.5979 44.5526C15.8349 44.43 16.1127 44.3442 16.3987 44.3034C16.6887 44.2707 16.9911 44.2462 17.2893 44.287C17.5875 44.3156 17.8817 44.3892 18.1677 44.475C18.7356 44.6588 19.2544 44.9285 19.7039 45.2267C20.1573 45.5209 20.5414 45.8436 20.8478 46.1378C21.4688 46.7261 21.7711 47.2164 21.7711 47.2164L21.767 47.2204Z" fill="#989898"/>
<path d="M36.8186 34.3481C36.8186 34.3481 28.9867 29.854 30.7598 25.3599C32.5288 20.8658 36.071 18.7536 33.2111 17.1194C30.3512 15.4852 28.1042 22.2958 26.7437 20.3878C25.3832 18.4799 27.9694 11.6734 30.4207 7.85747C32.872 4.04158 30.8292 -0.313603 28.1042 0.229773C25.3791 0.773149 19.116 6.97091 17.6861 14.1901C16.2561 21.4092 24.9706 31.7579 32.7331 35.9129L36.8186 34.3481Z" fill="#ADADAD"/>
<path d="M27.0458 39.3578C27.0458 39.3578 2.73686 34.5573 1.0005 21.4836C-0.735851 8.4099 11.5208 -1.19111 14.9935 0.443101C18.4662 2.07732 14.6871 10.7591 10.4994 17.3981C6.3117 24.0371 11.5208 30.3697 14.4828 25.5692C17.4448 20.7686 18.364 16.8874 21.0196 17.2959C23.6752 17.7045 22.4496 21.9943 21.0196 26.2841C19.5897 30.5739 22.756 32.9231 31.7442 35.9873L27.0458 39.3578Z" fill="#CCCCCC"/>
<path d="M61.4661 44.221C61.4661 44.221 60.7839 47.8285 57.7892 47.9674C54.7945 48.1063 53.7036 45.1075 52.6128 41.7696C51.5219 38.4318 46.7582 31.7601 38.1091 33.0552C29.46 34.3503 19.2462 40.544 20.4065 51.7792C21.5627 63.0144 29.2599 69.347 33.7539 69.4818C36.3483 69.5595 42.1211 68.6607 48.0084 66.6301C52.3145 65.143 56.6779 63.0512 59.9014 60.2894C67.5291 53.7525 61.4661 44.221 61.4661 44.221Z" fill="#EBEBEB"/>
<path d="M61.5157 45.6818C63.3479 45.6818 64.8332 44.1965 64.8332 42.3643C64.8332 40.5321 63.3479 39.0469 61.5157 39.0469C59.6835 39.0469 58.1982 40.5321 58.1982 42.3643C58.1982 44.1965 59.6835 45.6818 61.5157 45.6818Z" fill="#989898"/>
<path d="M55.085 53.293C55.085 53.293 55.1585 53.4033 55.2892 53.6035C55.4159 53.7996 55.5997 54.0733 55.8204 54.392C56.0451 54.7106 56.3065 55.0743 56.6129 55.4215C56.7641 55.5972 56.9357 55.7606 57.1073 55.9077C57.283 56.0507 57.4668 56.1937 57.6629 56.2754L57.8059 56.3449L57.953 56.3857L58.0266 56.4061L58.0633 56.4184C58.0633 56.4184 57.9939 56.4102 58.0306 56.4184H58.0388H58.0511H58.0756L58.2717 56.4388C58.3044 56.4388 58.3411 56.447 58.3656 56.447L58.4269 56.4388C58.4678 56.4388 58.5086 56.4347 58.5495 56.4388C58.6394 56.4102 58.7374 56.4061 58.8232 56.3612C59.003 56.2918 59.1664 56.1774 59.3176 56.0507C59.4647 55.9159 59.5995 55.7729 59.7139 55.6258C59.9427 55.3316 60.1102 55.0497 60.2246 54.8496C60.339 54.6494 60.4002 54.5268 60.4002 54.5268C60.4002 54.5268 60.4084 54.6616 60.3798 54.8986C60.3471 55.1355 60.2859 55.4746 60.1183 55.8628C60.0366 56.0589 59.9222 56.2632 59.767 56.4633C59.6036 56.6594 59.4115 56.8719 59.1378 57.0067C59.0112 57.0884 58.8559 57.1252 58.7088 57.1824L58.4514 57.2233L58.3207 57.2355C58.2839 57.2355 58.2553 57.2355 58.2186 57.2355L58.0225 57.2273H57.998H57.9857H57.9367L57.8795 57.2069L57.761 57.1783L57.5281 57.117L57.3157 57.019C57.0297 56.8882 56.7927 56.7003 56.5803 56.5001C56.3678 56.304 56.2003 56.0793 56.0491 55.8669C55.898 55.6544 55.7754 55.4297 55.6692 55.2213C55.5589 55.013 55.4772 54.8046 55.4077 54.6126C55.2647 54.2326 55.1871 53.9017 55.1422 53.6688C55.1013 53.436 55.0891 53.3011 55.0891 53.3011L55.085 53.293Z" fill="#989898"/>
<path d="M45.8561 61.16C45.9705 61.683 45.088 62.3203 43.8827 62.5818C42.6775 62.8433 41.6112 62.6308 41.4968 62.1079C41.3824 61.5849 42.2649 60.9476 43.466 60.6861C44.6713 60.4246 45.7376 60.6371 45.852 61.16H45.8561Z" fill="#CCCCCC"/>
<path d="M49.0795 54.0759C48.528 55.3261 47.5883 56.4128 46.3177 57.1482C43.1269 58.9908 39.0455 57.9 37.2029 54.7092C35.3603 51.5183 36.4511 47.4369 39.642 45.5902C41.2803 44.6424 43.1596 44.4708 44.8428 44.9651C46.4403 45.4268 47.8621 46.4809 48.7568 48.0334C49.8681 49.9536 49.913 52.1925 49.0795 54.0759Z" fill="white"/>
<path d="M49.0785 54.0756C48.8823 54.2472 48.674 54.3983 48.4452 54.5291C46.1777 55.8446 43.1708 54.8968 41.7245 52.4087C40.2782 49.9247 40.9401 46.8401 43.2034 45.5205C43.7223 45.2222 44.2779 45.0384 44.8418 44.9648C46.4392 45.4265 47.861 46.4806 48.7557 48.0331C49.867 49.9533 49.9119 52.1922 49.0785 54.0756Z" fill="#989898"/>
<path d="M37.2024 54.712C37.2024 54.712 37.1453 54.6221 37.0349 54.4546C36.9818 54.3688 36.9124 54.2667 36.8307 54.1441C36.7612 54.0175 36.6836 53.8622 36.6019 53.6906C36.4385 53.3434 36.2709 52.9103 36.1525 52.3833C36.083 52.1218 36.0585 51.8358 36.0136 51.5335C36.0013 51.2311 35.9768 50.9084 36.0095 50.5734C36.0176 50.2343 36.083 49.8911 36.1443 49.5275C36.2301 49.172 36.3322 48.8084 36.4834 48.4448C36.7776 47.7217 37.2024 46.9944 37.7948 46.3612C38.3709 45.732 39.1145 45.1519 39.903 44.7883C40.7528 44.3838 41.6638 44.1509 42.5913 44.0978C43.5187 44.0529 44.4543 44.1999 45.3122 44.4982L45.6064 44.6003L45.9292 44.7433L46.2478 44.8945L46.5379 45.0661C46.7299 45.1764 46.9179 45.2949 47.0935 45.4297C47.2733 45.5563 47.449 45.6871 47.6042 45.8382C48.2579 46.4061 48.7645 47.0802 49.1322 47.7666L49.1486 47.7993L49.169 47.8401L49.1772 47.8565L49.2058 47.9178L49.263 48.0403L49.3733 48.2855C49.4468 48.4448 49.5244 48.6001 49.5694 48.7921C49.6225 48.9718 49.6756 49.1475 49.7287 49.3232C49.7818 49.4948 49.7941 49.6664 49.8268 49.8339C49.8962 50.1648 49.9126 50.4876 49.9166 50.7899C49.9412 51.0922 49.888 51.3823 49.8758 51.6479C49.8635 51.9175 49.79 52.1626 49.745 52.3874C49.7042 52.6161 49.6266 52.8123 49.5653 52.992C49.4591 53.3556 49.3079 53.6171 49.218 53.7969C49.1281 53.9766 49.0791 54.0706 49.0791 54.0706C49.0791 54.0706 49.1077 53.9685 49.1567 53.7723C49.2098 53.5803 49.2834 53.2984 49.3283 52.9307C49.3569 52.751 49.3937 52.5508 49.3937 52.3302C49.3937 52.1095 49.4345 51.8767 49.406 51.6234C49.3814 51.3741 49.3937 51.1086 49.3283 50.8308C49.3038 50.6959 49.2793 50.5529 49.2548 50.41C49.2303 50.267 49.1772 50.1281 49.1404 49.981C49.0954 49.838 49.0628 49.6827 49.0015 49.5438C48.9402 49.4049 48.883 49.2619 48.8176 49.1189C48.7686 48.98 48.6787 48.8248 48.5929 48.6695L48.4622 48.4326L48.3968 48.3141L48.3641 48.2528L48.356 48.2364V48.2283C48.356 48.2283 48.3723 48.2691 48.356 48.2446L48.3396 48.2201C47.9678 47.644 47.4776 47.117 46.9097 46.6594C46.7708 46.5369 46.6155 46.4388 46.4603 46.3367C46.3091 46.2304 46.1457 46.1365 45.9782 46.0548L45.729 45.924L45.4797 45.8219L45.2305 45.7116L44.9323 45.6135C44.2051 45.3766 43.4288 45.2703 42.6566 45.3153C41.8845 45.348 41.1164 45.5359 40.4423 45.8342C39.7069 46.1651 39.0981 46.5777 38.567 47.1007C38.0482 47.6195 37.6233 48.1997 37.3168 48.8084C37.0063 49.4172 36.8062 50.0423 36.704 50.6387C36.6346 50.937 36.6346 51.2271 36.6019 51.5049C36.6019 51.7827 36.5855 52.0523 36.6141 52.2975C36.655 52.7959 36.7326 53.2371 36.8266 53.5885C36.8756 53.7642 36.9205 53.9235 36.9614 54.0624C37.0145 54.1972 37.0595 54.3157 37.0921 54.4056C37.1657 54.5935 37.2024 54.6916 37.2024 54.6916V54.712Z" fill="#989898"/>
<path d="M35.5236 45.0393C35.5236 45.0393 35.4705 44.9127 35.4215 44.6798C35.3725 44.4469 35.3275 44.1037 35.3561 43.687C35.3724 43.4786 35.401 43.2539 35.4582 43.017C35.4909 42.8985 35.5277 42.78 35.5645 42.6574C35.6094 42.5349 35.6625 42.4164 35.7156 42.2938C35.781 42.1753 35.8423 42.0528 35.9077 41.9343C35.9812 41.8199 36.0629 41.7014 36.1446 41.5829C36.2386 41.4767 36.3325 41.3664 36.4265 41.2561C36.5287 41.154 36.6349 41.06 36.7411 40.9619L36.782 40.9252L36.7901 40.917L36.8228 40.8925L36.8432 40.8761L36.925 40.8189L37.0884 40.7045C37.1783 40.6269 37.3499 40.5575 37.4806 40.488C37.7584 40.3532 38.0403 40.2919 38.3222 40.2511C38.4611 40.2306 38.6 40.2347 38.7348 40.2347C38.8697 40.2429 38.9963 40.2633 39.123 40.2796C39.3681 40.3287 39.5928 40.4022 39.7848 40.4921C40.173 40.6678 40.4467 40.8843 40.6183 41.0477C40.794 41.2112 40.8716 41.3255 40.8716 41.3255C40.8716 41.3255 40.749 41.2684 40.5325 41.1866C40.316 41.1049 40.0054 41.0069 39.6418 40.9415C39.458 40.9088 39.2619 40.8966 39.0576 40.8884C38.8533 40.8925 38.645 40.917 38.4407 40.9619C38.2364 41.011 38.024 41.0968 37.8401 41.1948C37.7462 41.2561 37.6685 41.2765 37.5582 41.3664L37.3989 41.4808L37.3172 41.538L37.2967 41.5543C37.2967 41.5543 37.3213 41.538 37.3172 41.5421L37.309 41.5543L37.2763 41.5829L37.0108 41.8199L36.7656 42.0773C36.6962 42.1713 36.6226 42.2611 36.545 42.3469C36.4796 42.4409 36.4143 42.5349 36.353 42.6288C36.2958 42.7269 36.2468 42.8249 36.1855 42.9189C36.1364 43.017 36.0874 43.115 36.0384 43.209C35.9567 43.4051 35.8791 43.593 35.8178 43.7687C35.5808 44.4878 35.5277 45.0352 35.5277 45.0352L35.5236 45.0393Z" fill="#989898"/>
<path d="M34.502 34.7553C34.502 34.7553 35.5724 28.2184 39.0451 25.0521C42.5178 21.8858 44.7158 26.2247 41.2921 31.3847C41.2921 31.3847 48.1354 27.863 48.5971 31.1314C49.0587 34.3998 43.8497 35.3681 41.6026 35.3191" fill="#ADADAD"/>
<path d="M34.4614 34.7499C34.4941 34.2883 34.5677 33.8307 34.6453 33.3731C34.7188 32.9155 34.8169 32.462 34.9313 32.0126C35.0416 31.5632 35.1682 31.1138 35.3153 30.6726C35.4501 30.2272 35.6258 29.7942 35.7892 29.357C35.9731 28.928 36.1569 28.495 36.3775 28.0823C36.5818 27.6615 36.827 27.2571 37.0803 26.8567L37.4888 26.2765C37.6236 26.0845 37.7952 25.9129 37.9423 25.7291L38.1752 25.4594L38.4367 25.2143C38.6164 25.0549 38.7758 24.8834 38.9719 24.7363C39.1435 24.5974 39.3518 24.4503 39.5602 24.3195C39.7685 24.1929 39.9851 24.0826 40.2139 23.9927C40.6714 23.8211 41.1985 23.7271 41.6887 23.8865C42.1872 24.0254 42.559 24.4258 42.7755 24.8507C42.9879 25.2878 43.0901 25.7617 43.1228 26.2316C43.1514 26.7014 43.1228 27.1753 43.0533 27.637C42.9839 28.1028 42.8817 28.5644 42.7346 29.0097C42.4487 29.9045 42.0524 30.7665 41.558 31.5673L41.1454 31.1056C41.8072 30.7543 42.465 30.4356 43.1554 30.166C43.8418 29.8922 44.5486 29.6553 45.2881 29.4878C45.6599 29.406 46.0358 29.3448 46.4321 29.3202C46.8243 29.2998 47.2369 29.3202 47.6577 29.4469C48.0744 29.5695 48.5157 29.8595 48.7485 30.2804C48.9896 30.693 49.0386 31.1587 49.0345 31.5387C49.0264 31.984 48.9324 32.3926 48.7363 32.7725C48.5443 33.1484 48.2787 33.4712 47.9805 33.7367C47.6822 34.0064 47.3554 34.2188 47.0163 34.3986C46.6772 34.5783 46.3258 34.7295 45.9704 34.848C45.2554 35.0809 44.5282 35.2361 43.7969 35.326C43.4292 35.3709 43.0615 35.3914 42.6938 35.3995C42.3261 35.4077 41.9584 35.3995 41.5948 35.3628V35.281C42.3179 35.2279 43.0329 35.1135 43.7315 34.946C44.4301 34.7908 45.1124 34.5742 45.7579 34.2883C46.3994 34.0104 47.0081 33.6509 47.4739 33.1933C47.7067 32.9645 47.8947 32.7031 48.0172 32.4253C48.1398 32.1515 48.2052 31.8369 48.2011 31.555C48.1929 30.8687 47.956 30.4438 47.4003 30.2722C47.1266 30.1823 46.7998 30.166 46.4688 30.1782C46.1379 30.1864 45.7947 30.2313 45.4556 30.2967C44.7733 30.4274 44.091 30.6317 43.421 30.8687C42.7551 31.1138 42.0769 31.3712 41.4395 31.6694L40.3528 32.176L41.0269 31.2078C41.5376 30.4724 42.0156 29.7002 42.3506 28.8627C42.6897 28.0333 42.9144 27.1345 42.8695 26.2398C42.849 25.7944 42.7551 25.3491 42.5467 24.9651C42.3465 24.581 42.0074 24.2746 41.6029 24.1888C41.1985 24.0948 40.7736 24.2133 40.3936 24.3972C40.2016 24.4952 40.0218 24.6137 39.8462 24.7404C39.6787 24.8711 39.5152 25.0059 39.3477 25.1693C39.1884 25.3123 39.0495 25.4962 38.8983 25.6555L38.6777 25.9007L38.4734 26.1662C38.1915 26.5094 37.9464 26.8812 37.6931 27.2489C37.4643 27.6329 37.211 28.0047 37.0108 28.4051C36.7902 28.7973 36.6022 29.2099 36.4021 29.6144C36.2182 30.027 36.0344 30.4438 35.8669 30.8646C35.6912 31.2813 35.54 31.7144 35.3807 32.1393C35.0783 32.9972 34.7883 33.8715 34.5431 34.7581L34.4614 34.7458V34.7499Z" fill="#ADADAD"/>
<path d="M33.7549 69.4853C33.7549 69.4853 34.1961 69.4485 34.9642 69.3831C35.3442 69.33 35.8058 69.2687 36.3329 69.1952C36.8599 69.093 37.4523 69.0032 38.0978 68.8765C38.7392 68.7335 39.4419 68.615 40.1692 68.4353C40.9005 68.2678 41.6726 68.0839 42.4652 67.8715C42.8615 67.7652 43.266 67.659 43.6705 67.5528C44.0749 67.4343 44.4835 67.3117 44.8961 67.1933C45.7255 66.9686 46.5508 66.6785 47.3801 66.4088C47.7969 66.2822 48.2013 66.1351 48.6181 65.988C49.0266 65.8369 49.4474 65.702 49.8396 65.5386C50.24 65.3834 50.6363 65.2322 51.0244 65.077C51.4126 64.9135 51.7966 64.7501 52.1725 64.5949C52.5524 64.4437 52.916 64.268 53.2715 64.1046C53.6269 63.9371 53.9824 63.7859 54.3174 63.6184C54.6524 63.4468 54.9752 63.2793 55.2897 63.12C55.6084 62.9688 55.9067 62.8013 56.1927 62.6379C56.7605 62.3151 57.2957 62.0291 57.7411 61.7391C58.1905 61.4531 58.599 61.2202 58.9013 60.9873C59.5264 60.542 59.8942 60.2969 59.8942 60.2969C59.8942 60.2969 59.5755 60.5992 58.9953 61.114C58.7134 61.3795 58.3335 61.6574 57.9086 61.9924C57.692 62.1558 57.4755 62.3437 57.2222 62.5112C56.9689 62.6787 56.7074 62.8585 56.4296 63.0424C55.8862 63.4264 55.253 63.7696 54.5952 64.1618C53.9211 64.5172 53.2225 64.9135 52.4625 65.2526C52.0867 65.4283 51.7026 65.604 51.3145 65.7838C50.9182 65.9472 50.5178 66.1147 50.1134 66.2822C49.7089 66.4538 49.2963 66.5927 48.8877 66.7479C48.4832 66.8991 48.0583 67.0584 47.6375 67.1892C46.7918 67.4507 45.9543 67.7407 45.1086 67.9573C44.6878 68.0717 44.271 68.182 43.8584 68.2923C43.4417 68.3862 43.0331 68.4802 42.6287 68.5742C41.8238 68.7703 41.0312 68.9051 40.2836 69.0358C39.54 69.1829 38.8209 69.2524 38.1632 69.3423C37.5054 69.4281 36.8967 69.4566 36.3614 69.5016C35.8222 69.5261 35.3482 69.5343 34.9642 69.5465C34.5802 69.5465 34.2778 69.5138 34.0695 69.5098C33.8652 69.4975 33.7549 69.4934 33.7549 69.4934V69.4853Z" fill="#989898"/>
</svg>
