<svg width="15" height="13" viewBox="0 0 15 13" fill="none" xmlns="http://www.w3.org/2000/svg">
<path d="M14.513 5.82013C14.3649 5.53981 14.1589 5.292 13.9139 5.09429L12.907 1.45031C12.6714 0.595833 11.892 0 11.0116 0H4.56881C3.68842 0 2.909 0.595833 2.67342 1.45031L1.66785 5.09308C1.11593 5.53995 0.791504 6.21297 0.791504 6.93475V12.0318C0.791504 12.5653 1.22362 13 1.754 13H3.329C3.85938 13 4.2915 12.5653 4.2915 12.0318V10.8333H11.2915V12.0318C11.2915 12.5653 11.7236 13 12.254 13H13.829C14.3594 13 14.7915 12.5653 14.7915 12.0318V6.93475C14.7902 6.5461 14.6947 6.16002 14.513 5.82013ZM3.39374 8.64632C2.95893 8.64632 2.60624 8.29153 2.60624 7.85414C2.60624 7.41675 2.95893 7.06195 3.39374 7.06195C3.82719 7.06195 4.18124 7.41675 4.18124 7.85414C4.18124 8.29153 3.82719 8.64632 3.39374 8.64632ZM3.71008 1.74004C3.81777 1.3541 4.17047 1.08326 4.56893 1.08326H11.0117C11.4102 1.08326 11.7629 1.3541 11.8706 1.74004L12.7361 4.87494H2.84461L3.71008 1.74004ZM9.1364 8.39568H6.44409C6.14658 8.39568 5.90563 8.15329 5.90563 7.85402C5.90563 7.55474 6.14658 7.31235 6.44409 7.31235H9.1364C9.43391 7.31235 9.67487 7.55474 9.67487 7.85402C9.67487 8.15329 9.43391 8.39568 9.1364 8.39568ZM12.0522 7.06183C12.487 7.06183 12.8397 7.41663 12.8397 7.85402C12.8397 8.29141 12.487 8.6462 12.0522 8.6462C11.6187 8.6462 11.2647 8.29141 11.2647 7.85402C11.2647 7.41663 11.6187 7.06183 12.0522 7.06183Z" fill="#283544"/>
</svg>
