<svg width="15" height="13" viewBox="0 0 15 13" fill="none" xmlns="http://www.w3.org/2000/svg">
<path d="M4.75566 13C4.37066 13 4.04108 12.8586 3.76691 12.5757C3.49275 12.2928 3.35566 11.9528 3.35566 11.5556V10.1111H1.95566C1.57066 10.1111 1.24108 9.96968 0.966914 9.68681C0.692747 9.40394 0.555664 9.06389 0.555664 8.66667V5.77778C0.555664 5.16389 0.759831 4.64931 1.16816 4.23403C1.5765 3.81875 2.07233 3.61111 2.65566 3.61111H12.4557C13.0507 3.61111 13.5494 3.81875 13.9519 4.23403C14.3544 4.64931 14.5557 5.16389 14.5557 5.77778V8.66667C14.5557 9.06389 14.4186 9.40394 14.1444 9.68681C13.8702 9.96968 13.5407 10.1111 13.1557 10.1111H11.7557V11.5556C11.7557 11.9528 11.6186 12.2928 11.3444 12.5757C11.0702 12.8586 10.7407 13 10.3557 13H4.75566ZM11.7557 2.88889H3.35566V1.44444C3.35566 1.04722 3.49275 0.707176 3.76691 0.424306C4.04108 0.141435 4.37066 0 4.75566 0H10.3557C10.7407 0 11.0702 0.141435 11.3444 0.424306C11.6186 0.707176 11.7557 1.04722 11.7557 1.44444V2.88889ZM11.7557 6.86111C11.954 6.86111 12.1202 6.7919 12.2544 6.65347C12.3886 6.51505 12.4557 6.34352 12.4557 6.13889C12.4557 5.93426 12.3886 5.76273 12.2544 5.62431C12.1202 5.48588 11.954 5.41667 11.7557 5.41667C11.5573 5.41667 11.3911 5.48588 11.2569 5.62431C11.1227 5.76273 11.0557 5.93426 11.0557 6.13889C11.0557 6.34352 11.1227 6.51505 11.2569 6.65347C11.3911 6.7919 11.5573 6.86111 11.7557 6.86111ZM4.75566 11.5556H10.3557V8.66667H4.75566V11.5556Z" fill="#283544"/>
</svg>
