<svg width="17" height="13" viewBox="0 0 17 13" fill="none" xmlns="http://www.w3.org/2000/svg">
<path d="M16.25 11.375C16.25 11.8219 16.0909 12.2044 15.7727 12.5227C15.4544 12.8409 15.0719 13 14.625 13H11.2328C11.0432 13 10.8841 12.9289 10.7555 12.7867C10.6268 12.6445 10.5557 12.4786 10.5422 12.2891C10.4609 11.0026 10.1664 9.80078 9.65859 8.68359C9.15078 7.56641 8.48724 6.57448 7.66797 5.70781C6.8487 4.84115 5.89401 4.13021 4.80391 3.575C3.7138 3.01979 2.53906 2.66771 1.27969 2.51875C0.927604 2.47812 0.626302 2.33932 0.375781 2.10234C0.12526 1.86536 0 1.57083 0 1.21875C0 0.866667 0.12526 0.575521 0.375781 0.345312C0.626302 0.115104 0.927604 0 1.27969 0H14.625C15.0719 0 15.4544 0.159115 15.7727 0.477344C16.0909 0.795573 16.25 1.17812 16.25 1.625V11.375ZM4.875 13C4.65833 13 4.46875 12.9357 4.30625 12.807C4.14375 12.6784 4.04219 12.5057 4.00156 12.2891C3.8526 11.4359 3.47005 10.7115 2.85391 10.1156C2.23776 9.51979 1.50312 9.1474 0.65 8.99844C0.446875 8.97135 0.28776 8.87318 0.172656 8.70391C0.0575521 8.53464 0 8.34167 0 8.125C0 7.89479 0.0744792 7.70182 0.223437 7.54609C0.372396 7.39036 0.548437 7.32604 0.751562 7.35312C2.02448 7.51562 3.1112 8.05052 4.01172 8.95781C4.91224 9.8651 5.45052 10.9552 5.62656 12.2281C5.65365 12.4448 5.59271 12.6276 5.44375 12.7766C5.29479 12.9255 5.10521 13 4.875 13ZM8.125 13C7.89479 13 7.70182 12.9255 7.54609 12.7766C7.39036 12.6276 7.29896 12.438 7.27187 12.2078C7.08229 10.4745 6.37474 9.00521 5.14922 7.8C3.9237 6.59479 2.44427 5.90417 0.710938 5.72812C0.494271 5.70104 0.321615 5.60625 0.192969 5.44375C0.0643229 5.28125 0 5.09167 0 4.875C0 4.64479 0.0710937 4.44844 0.213281 4.28594C0.355469 4.12344 0.528125 4.05573 0.73125 4.08281C2.91146 4.25885 4.76667 5.10521 6.29688 6.62187C7.82708 8.13854 8.69375 9.98698 8.89687 12.1672C8.92396 12.3974 8.85964 12.5938 8.70391 12.7562C8.54818 12.9187 8.35521 13 8.125 13ZM1.01562 13C0.73125 13 0.490885 12.9018 0.294531 12.7055C0.0981771 12.5091 0 12.2687 0 11.9844C0 11.7 0.0981771 11.4596 0.294531 11.2633C0.490885 11.0669 0.73125 10.9688 1.01562 10.9688C1.3 10.9688 1.54036 11.0669 1.73672 11.2633C1.93307 11.4596 2.03125 11.7 2.03125 11.9844C2.03125 12.2687 1.93307 12.5091 1.73672 12.7055C1.54036 12.9018 1.3 13 1.01562 13Z" fill="#283544"/>
</svg>
