<svg width="15" height="13" viewBox="0 0 15 13" fill="none" xmlns="http://www.w3.org/2000/svg">
<path d="M2.1915 11.5556C1.8065 11.5556 1.47692 11.4141 1.20275 11.1313C0.928587 10.8484 0.791504 10.5083 0.791504 10.1111V1.44444C0.791504 1.04722 0.928587 0.707176 1.20275 0.424306C1.47692 0.141435 1.8065 0 2.1915 0H13.3915C13.7765 0 14.1061 0.141435 14.3803 0.424306C14.6544 0.707176 14.7915 1.04722 14.7915 1.44444V10.1111C14.7915 10.5083 14.6544 10.8484 14.3803 11.1313C14.1061 11.4141 13.7765 11.5556 13.3915 11.5556H10.5915V12.2778C10.5915 12.4824 10.5244 12.6539 10.3903 12.7924C10.2561 12.9308 10.0898 13 9.8915 13H5.6915C5.49317 13 5.32692 12.9308 5.19275 12.7924C5.05859 12.6539 4.9915 12.4824 4.9915 12.2778V11.5556H2.1915Z" fill="#283544"/>
</svg>
