<svg width="9" height="13" viewBox="0 0 9 13" fill="none" xmlns="http://www.w3.org/2000/svg">
<path d="M4.55566 9.45455C4.39376 9.45455 4.25328 9.39299 4.13424 9.26989C4.01519 9.14678 3.95566 9.00152 3.95566 8.83409C3.95566 8.66667 4.01519 8.5214 4.13424 8.3983C4.25328 8.27519 4.39376 8.21364 4.55566 8.21364C4.71757 8.21364 4.85805 8.27519 4.97709 8.3983C5.09614 8.5214 5.15566 8.66667 5.15566 8.83409C5.15566 9.00152 5.09614 9.14678 4.97709 9.26989C4.85805 9.39299 4.71757 9.45455 4.55566 9.45455ZM3.25566 4.91932C3.16043 4.87008 3.09852 4.78883 3.06995 4.67557C3.04138 4.56231 3.06043 4.45644 3.12709 4.35795C3.289 4.10189 3.49614 3.90246 3.74852 3.75966C4.0009 3.61686 4.26995 3.54545 4.55566 3.54545C5.01281 3.54545 5.39852 3.68087 5.71281 3.9517C6.02709 4.22254 6.18424 4.58939 6.18424 5.05227C6.18424 5.29848 6.12471 5.525 6.00566 5.73182C5.88662 5.93864 5.74614 6.12576 5.58424 6.29318C5.46043 6.42121 5.339 6.54924 5.21995 6.67727C5.1009 6.8053 5.02709 6.95795 4.99852 7.13523C4.97947 7.25341 4.92947 7.35436 4.84852 7.43807C4.76757 7.52178 4.66995 7.56364 4.55566 7.56364C4.44138 7.56364 4.34376 7.52424 4.26281 7.44545C4.18185 7.36667 4.14138 7.26818 4.14138 7.15C4.14138 6.90379 4.21281 6.6822 4.35566 6.48523C4.49852 6.28826 4.66043 6.10606 4.84138 5.93864C4.96519 5.81061 5.07709 5.67765 5.17709 5.53977C5.27709 5.40189 5.32709 5.24924 5.32709 5.08182C5.32709 4.88485 5.24852 4.72235 5.09138 4.59432C4.93424 4.46629 4.75566 4.40227 4.55566 4.40227C4.42233 4.40227 4.29138 4.43428 4.16281 4.4983C4.03424 4.56231 3.93185 4.65341 3.85566 4.77159C3.77947 4.87992 3.68662 4.9464 3.57709 4.97102C3.46757 4.99564 3.36043 4.97841 3.25566 4.91932ZM1.69852 13C1.38424 13 1.11519 12.8843 0.891378 12.6528C0.667569 12.4214 0.555664 12.1432 0.555664 11.8182V1.18182C0.555664 0.856818 0.667569 0.578598 0.891378 0.347159C1.11519 0.11572 1.38424 0 1.69852 0H7.41281C7.72709 0 7.99614 0.11572 8.21995 0.347159C8.44376 0.578598 8.55566 0.856818 8.55566 1.18182V11.8182C8.55566 12.1432 8.44376 12.4214 8.21995 12.6528C7.99614 12.8843 7.72709 13 7.41281 13H1.69852ZM1.69852 10.0455H7.41281V2.95455H1.69852V10.0455Z" fill="#283544"/>
</svg>
