<svg width="32" height="32" viewBox="0 0 32 32" fill="none" xmlns="http://www.w3.org/2000/svg">
<path d="M16.0002 16.0001L22.9285 20L16.0002 31.9999C24.8367 31.9999 32.0001 24.8366 32.0001 16.0001C32.0001 13.0849 31.2166 10.3542 29.8544 8H16L16.0002 16.0001Z" fill="url(#paint0_linear_9085_19214)"/>
<path d="M15.9998 0C10.0778 0 4.91115 3.21968 2.14453 8.00195L9.07147 20L15.9998 16.0001V8.00006H29.8542C27.0871 3.21897 21.9212 0 15.9998 0Z" fill="url(#paint1_linear_9085_19214)"/>
<path d="M9.44884e-05 16.0001C9.44884e-05 24.8366 7.16326 32 16 32L22.9284 20L16 16.0001L9.07169 20L2.14474 8.00195C0.783238 10.3555 0 13.0852 0 15.9999" fill="url(#paint2_linear_9085_19214)"/>
<path d="M24.0002 16.0001C24.0002 20.4183 20.4184 24.0001 16.0001 24.0001C11.5818 24.0001 8 20.4183 8 16.0001C8 11.5818 11.5818 8 16.0001 8C20.4184 8 24.0002 11.5818 24.0002 16.0001Z" fill="white"/>
<path d="M22.5002 16.0001C22.5002 19.5899 19.5899 22.5001 16.0001 22.5001C12.4102 22.5001 9.5 19.5899 9.5 16.0001C9.5 12.4102 12.4102 9.5 16.0001 9.5C19.5899 9.5 22.5002 12.4102 22.5002 16.0001Z" fill="url(#paint3_linear_9085_19214)"/>
<defs>
<linearGradient id="paint0_linear_9085_19214" x1="24.0342" y1="7.96697" x2="24.0001" y2="31.9999" gradientUnits="userSpaceOnUse">
<stop stop-color="#AFCCFB"/>
<stop offset="1" stop-color="#8BB5F8"/>
</linearGradient>
<linearGradient id="paint1_linear_9085_19214" x1="13.6794" y1="0.243771" x2="15.0019" y2="21.7451" gradientUnits="userSpaceOnUse">
<stop stop-color="#1972E7"/>
<stop offset="1" stop-color="#1969D5"/>
</linearGradient>
<linearGradient id="paint2_linear_9085_19214" x1="11.4642" y1="8.00195" x2="11.4642" y2="32" gradientUnits="userSpaceOnUse">
<stop stop-color="#659CF6"/>
<stop offset="1" stop-color="#4285F4"/>
</linearGradient>
<linearGradient id="paint3_linear_9085_19214" x1="15.9338" y1="9.52473" x2="16.0001" y2="22.5001" gradientUnits="userSpaceOnUse">
<stop stop-color="#3680F0"/>
<stop offset="1" stop-color="#2678EC"/>
</linearGradient>
</defs>
</svg>
