<svg xmlns="http://www.w3.org/2000/svg" xmlns:xlink="http://www.w3.org/1999/xlink" xml:space="preserve" id="Layer_1" x="0" y="0" style="enable-background:new 0 0 1024 1024" version="1.1" viewBox="0 0 1024 1024"><style>.st0{fill:#008009}</style><circle cx="512" cy="512" r="512" class="st0"/><defs><circle id="SVGID_1_" cx="512" cy="512" r="512"/></defs><clipPath id="SVGID_00000068639753814534716850000006826139092654002845_"><use xlink:href="#SVGID_1_" style="overflow:visible"/></clipPath><path d="M776.6 572.5c-.3.1-.7.1-1-.1-.3-.2-.5-.4-.6-.8-.1-.3-.1-.7.1-1 .2-.3.4-.5.8-.6 105.4-54.3 122.6-171.5 69.4-213.4-56.1-44.3-111.8-4.2-124.5 6.3-.2.1-.5.2-.7.2s-.5-.1-.7-.2-.4-.3-.5-.6c-.1-.2-.1-.5-.1-.7 26-161-144.2-283-318.3-224.6-204.2 69.5-126.3 322.1-112.6 362.4.1.3.1.6 0 .9-.1.3-.3.5-.6.7-.3.2-.6.2-.9.2-.3 0-.6-.2-.8-.4-62.2-57.3-210.8 14-148.6 212C178.5 845.8 333.6 860 432 860h15.2c.2 0 .4 0 .6.1.2.1.3.2.5.4.1.2.2.3.3.5s0 .4 0 .6c-20.7 80.7-21.8 252.8-21.8 269.6 0 .3.1.7.4.9.2.2.6.4.9.4h188.3c.2 0 .4 0 .6-.1.2-.1.4-.2.5-.4.1-.2.2-.4.2-.6v-.6c-6-19.9-63-207.9-61.3-269.5 0-.2 0-.4.1-.5.1-.2.2-.3.3-.4.1-.1.3-.2.5-.3.2-.1.3-.1.5-.1h45.7c62.2 0 201.4-11.3 263.1-100.9 94.1-135.7-21.9-196.8-90-186.6z" style="clip-path:url(#SVGID_00000068639753814534716850000006826139092654002845_);fill:#f0f0eb"/><path d="M648.3 288.2H374.8v447.1h273.5V592.7H478.5v-53.8h110.2v-54.4H478.5v-53.8h169.8V288.2z" class="st0"/></svg>