<svg width="32" height="32" viewBox="0 0 32 32" fill="none" xmlns="http://www.w3.org/2000/svg">
<path d="M28.8817 23.8148C28.4551 24.0379 28.0151 24.2345 27.5643 24.4034C26.1294 24.9403 24.6092 25.2139 23.0771 25.2109C17.1625 25.2109 12.0103 21.1426 12.0103 15.9219C12.0179 15.2217 12.2122 14.5362 12.5732 13.9361C12.9342 13.3361 13.4488 12.8433 14.0639 12.5085C8.71427 12.7335 7.33936 18.3079 7.33936 21.5738C7.33936 30.8077 15.8501 31.7439 17.6837 31.7439C18.6724 31.7439 20.1635 31.4564 21.0585 31.1739L21.2222 31.1189C24.6661 29.9284 27.602 27.601 29.5467 24.5197C29.6063 24.4258 29.6329 24.3148 29.6223 24.2042C29.6117 24.0935 29.5645 23.9896 29.4883 23.9087C29.412 23.8279 29.311 23.7747 29.2011 23.7577C29.0913 23.7407 28.9789 23.7608 28.8817 23.8148V23.8148Z" fill="url(#paint0_linear_9085_19210)"/>
<path opacity="0.35" d="M28.8817 23.8148C28.4551 24.0379 28.0151 24.2345 27.5643 24.4034C26.1294 24.9403 24.6092 25.2139 23.0771 25.2109C17.1625 25.2109 12.0103 21.1426 12.0103 15.9219C12.0179 15.2217 12.2122 14.5362 12.5732 13.9361C12.9342 13.3361 13.4488 12.8433 14.0639 12.5085C8.71427 12.7335 7.33936 18.3079 7.33936 21.5738C7.33936 30.8077 15.8501 31.7439 17.6837 31.7439C18.6724 31.7439 20.1635 31.4564 21.0585 31.1739L21.2222 31.1189C24.6661 29.9284 27.602 27.601 29.5467 24.5197C29.6063 24.4258 29.6329 24.3148 29.6223 24.2042C29.6117 24.0935 29.5645 23.9896 29.4883 23.9087C29.412 23.8279 29.311 23.7747 29.2011 23.7577C29.0913 23.7407 28.9789 23.7608 28.8817 23.8148V23.8148Z" fill="url(#paint1_radial_9085_19210)"/>
<path d="M13.2155 30.1741C12.1007 29.4822 11.1345 28.5756 10.3732 27.5069C9.50547 26.3182 8.90837 24.9539 8.62374 23.51C8.33912 22.066 8.37388 20.5773 8.72557 19.1482C9.07727 17.7191 9.73738 16.3843 10.6596 15.2373C11.5819 14.0903 12.7439 13.159 14.0642 12.5086C14.4542 12.3249 15.1204 11.9924 16.0066 12.0087C16.6309 12.0132 17.2457 12.1623 17.8028 12.4442C18.3599 12.7261 18.8442 13.1331 19.2176 13.6335C19.7224 14.3074 20.0007 15.1238 20.0126 15.9657C20.0126 15.9395 23.0699 6.01685 10.0132 6.01685C4.52605 6.01685 0.0138361 11.2238 0.0138361 15.792C-0.00780766 18.2085 0.509272 20.5995 1.52749 22.7912C3.19155 26.3415 6.10152 29.1571 9.70484 30.7034C13.3082 32.2497 17.3539 32.4189 21.0738 31.179C19.7713 31.5896 18.3952 31.7129 17.0405 31.5403C15.6858 31.3677 14.3846 30.9033 13.2268 30.1791L13.2155 30.1741Z" fill="url(#paint2_linear_9085_19210)"/>
<path opacity="0.41" d="M13.2155 30.1741C12.1007 29.4822 11.1345 28.5756 10.3732 27.5069C9.50547 26.3182 8.90837 24.9539 8.62374 23.51C8.33912 22.066 8.37388 20.5773 8.72557 19.1482C9.07727 17.7191 9.73738 16.3843 10.6596 15.2373C11.5819 14.0903 12.7439 13.159 14.0642 12.5086C14.4542 12.3249 15.1204 11.9924 16.0066 12.0087C16.6309 12.0132 17.2457 12.1623 17.8028 12.4442C18.3599 12.7261 18.8442 13.1331 19.2176 13.6335C19.7224 14.3074 20.0007 15.1238 20.0126 15.9657C20.0126 15.9395 23.0699 6.01685 10.0132 6.01685C4.52605 6.01685 0.0138361 11.2238 0.0138361 15.792C-0.00780766 18.2085 0.509272 20.5995 1.52749 22.7912C3.19155 26.3415 6.10152 29.1571 9.70484 30.7034C13.3082 32.2497 17.3539 32.4189 21.0738 31.179C19.7713 31.5896 18.3952 31.7129 17.0405 31.5403C15.6858 31.3677 14.3846 30.9033 13.2268 30.1791L13.2155 30.1741Z" fill="url(#paint3_radial_9085_19210)"/>
<path d="M19.0401 18.6054C18.9388 18.7366 18.6276 18.9179 18.6276 19.3128C18.6276 19.639 18.8401 19.9527 19.2175 20.2165C21.0149 21.4663 24.4035 21.3013 24.4122 21.3013C25.744 21.2981 27.0506 20.9377 28.1957 20.2577C29.3509 19.5832 30.3097 18.6185 30.9768 17.4591C31.644 16.2997 31.9965 14.9861 31.9992 13.6485C32.0317 10.8475 30.9993 8.98523 30.5818 8.16033C27.9332 2.97966 22.2161 7.83214e-08 15.999 7.83214e-08C11.7945 -0.000415649 7.75881 1.65419 4.7648 4.60594C1.7708 7.5577 0.0591258 11.5693 0 15.7732C0.0599962 11.2062 4.59971 7.5179 9.99937 7.5179C10.4368 7.5179 12.9317 7.56039 15.249 8.77651C17.2914 9.84889 18.3613 11.1437 19.105 12.4273C19.8775 13.7609 20.015 15.4458 20.015 16.1169C20.015 16.7881 19.6725 17.783 19.0401 18.6054V18.6054Z" fill="url(#paint4_radial_9085_19210)"/>
<path d="M19.0401 18.6054C18.9388 18.7366 18.6276 18.9179 18.6276 19.3128C18.6276 19.639 18.8401 19.9527 19.2175 20.2165C21.0149 21.4663 24.4035 21.3013 24.4122 21.3013C25.744 21.2981 27.0506 20.9377 28.1957 20.2577C29.3509 19.5832 30.3097 18.6185 30.9768 17.4591C31.644 16.2997 31.9965 14.9861 31.9992 13.6485C32.0317 10.8475 30.9993 8.98523 30.5818 8.16033C27.9332 2.97966 22.2161 7.83214e-08 15.999 7.83214e-08C11.7945 -0.000415649 7.75881 1.65419 4.7648 4.60594C1.7708 7.5577 0.0591258 11.5693 0 15.7732C0.0599962 11.2062 4.59971 7.5179 9.99937 7.5179C10.4368 7.5179 12.9317 7.56039 15.249 8.77651C17.2914 9.84889 18.3613 11.1437 19.105 12.4273C19.8775 13.7609 20.015 15.4458 20.015 16.1169C20.015 16.7881 19.6725 17.783 19.0401 18.6054V18.6054Z" fill="url(#paint5_radial_9085_19210)"/>
<defs>
<linearGradient id="paint0_linear_9085_19210" x1="7.33936" y1="22.1287" x2="29.6304" y2="22.1287" gradientUnits="userSpaceOnUse">
<stop stop-color="#0C59A4"/>
<stop offset="1" stop-color="#114A8B"/>
</linearGradient>
<radialGradient id="paint1_radial_9085_19210" cx="0" cy="0" r="1" gradientUnits="userSpaceOnUse" gradientTransform="translate(19.6511 22.3044) scale(11.9217 11.3251)">
<stop offset="0.72" stop-opacity="0"/>
<stop offset="0.95" stop-opacity="0.53"/>
<stop offset="1"/>
</radialGradient>
<linearGradient id="paint2_linear_9085_19210" x1="19.0914" y1="12.4599" x2="5.16927" y2="27.6251" gradientUnits="userSpaceOnUse">
<stop stop-color="#1B9DE2"/>
<stop offset="0.16" stop-color="#1595DF"/>
<stop offset="0.67" stop-color="#0680D7"/>
<stop offset="1" stop-color="#0078D4"/>
</linearGradient>
<radialGradient id="paint3_radial_9085_19210" cx="0" cy="0" r="1" gradientUnits="userSpaceOnUse" gradientTransform="translate(8.82384 24.8732) rotate(-81.3839) scale(17.9263 14.4833)">
<stop offset="0.76" stop-opacity="0"/>
<stop offset="0.95" stop-opacity="0.5"/>
<stop offset="1"/>
</radialGradient>
<radialGradient id="paint4_radial_9085_19210" cx="0" cy="0" r="1" gradientUnits="userSpaceOnUse" gradientTransform="translate(3.23261 5.92143) rotate(92.2907) scale(25.3211 53.9314)">
<stop stop-color="#35C1F1"/>
<stop offset="0.11" stop-color="#34C1ED"/>
<stop offset="0.23" stop-color="#2FC2DF"/>
<stop offset="0.31" stop-color="#2BC3D2"/>
<stop offset="0.67" stop-color="#36C752"/>
</radialGradient>
<radialGradient id="paint5_radial_9085_19210" cx="0" cy="0" r="1" gradientUnits="userSpaceOnUse" gradientTransform="translate(30.0071 9.67467) rotate(73.739) scale(12.1662 9.89395)">
<stop stop-color="#66EB6E"/>
<stop offset="1" stop-color="#66EB6E" stop-opacity="0"/>
</radialGradient>
</defs>
</svg>
