<svg width="32" height="32" viewBox="0 0 32 32" fill="none" xmlns="http://www.w3.org/2000/svg">
<path d="M30.5467 10.7352C29.8728 9.11372 28.5058 7.363 27.4354 6.80957C28.1989 8.28822 28.7287 9.87623 29.006 11.5171L29.0088 11.5431C27.2553 7.17132 24.2817 5.40859 21.8531 1.57021C21.7302 1.37613 21.6074 1.18165 21.4877 0.976367C21.4193 0.859119 21.3645 0.753476 21.3169 0.656236C21.2161 0.461177 21.1385 0.255033 21.0856 0.0419831C21.0856 0.0321519 21.0821 0.0226386 21.0756 0.015258C21.0691 0.00787746 21.0601 0.00314612 21.0504 0.00196661C21.0408 -0.000655537 21.0307 -0.000655537 21.0212 0.00196661C21.0191 0.00196661 21.0159 0.00556809 21.0135 0.00636842C21.0111 0.00716875 21.0059 0.0107702 21.0023 0.0123709L21.0083 0.00196661C17.1127 2.2829 15.791 6.50544 15.6693 8.61751C14.1136 8.72445 12.6262 9.29773 11.4012 10.2626C11.2734 10.1543 11.1398 10.0531 11.001 9.95926C10.6476 8.72233 10.6326 7.41324 10.9574 6.1685C9.5268 6.86156 8.25561 7.84401 7.22428 9.05369H7.21707C6.60242 8.27457 6.64564 5.70551 6.68085 5.16889C6.49902 5.24197 6.32544 5.33412 6.16304 5.44381C5.62043 5.83107 5.11318 6.26561 4.64722 6.74234C4.11624 7.28069 3.63128 7.86256 3.19742 8.48185V8.48426V8.48145C2.20031 9.89506 1.49308 11.4922 1.11656 13.1806L1.09576 13.283C1.06654 13.4195 0.961301 14.103 0.943293 14.2514C0.943293 14.263 0.940892 14.2738 0.939692 14.2854C0.803931 14.9911 0.719807 15.7057 0.687988 16.4235L0.687988 16.5036C0.691389 20.3869 2.1514 24.1276 4.77948 26.9865C7.40755 29.8454 11.0125 31.6145 14.8818 31.944C18.7511 32.2736 22.6032 31.1396 25.6769 28.7663C28.7506 26.393 30.8222 22.953 31.4823 19.1262C31.5083 18.9262 31.5295 18.7281 31.5527 18.526C31.8721 15.8858 31.5263 13.2076 30.5467 10.7352V10.7352ZM12.6713 22.8754C12.7437 22.9102 12.8118 22.9478 12.8862 22.981L12.897 22.9878C12.8218 22.9518 12.7465 22.9143 12.6713 22.8754V22.8754ZM29.01 11.5467V11.5319L29.0128 11.5483L29.01 11.5467Z" fill="url(#paint0_linear_9085_19209)"/>
<path d="M30.5467 10.7352C29.8728 9.11372 28.5058 7.363 27.4354 6.80957C28.1989 8.28823 28.7287 9.87624 29.006 11.5171V11.5319L29.0088 11.5483C30.2042 14.9691 30.0313 18.7195 28.5262 22.0158C26.7487 25.8298 22.4461 29.739 15.7114 29.5489C8.43437 29.3428 2.02574 23.943 0.827646 16.8705C0.609556 15.7552 0.827646 15.1898 0.937291 14.2834C0.78772 14.9875 0.704257 15.704 0.687988 16.4235L0.687988 16.5036C0.691389 20.3869 2.1514 24.1276 4.77948 26.9865C7.40755 29.8454 11.0125 31.6145 14.8818 31.944C18.7511 32.2736 22.6032 31.1396 25.6769 28.7663C28.7506 26.393 30.8222 22.953 31.4823 19.1262C31.5083 18.9262 31.5295 18.7281 31.5527 18.526C31.8721 15.8858 31.5263 13.2076 30.5467 10.7352V10.7352Z" fill="url(#paint1_radial_9085_19209)"/>
<path d="M30.5467 10.7352C29.8728 9.11372 28.5058 7.363 27.4354 6.80957C28.1989 8.28823 28.7287 9.87624 29.006 11.5171V11.5319L29.0088 11.5483C30.2042 14.9691 30.0313 18.7195 28.5262 22.0158C26.7487 25.8298 22.4461 29.739 15.7114 29.5489C8.43437 29.3428 2.02574 23.943 0.827646 16.8705C0.609556 15.7552 0.827646 15.1898 0.937291 14.2834C0.78772 14.9875 0.704257 15.704 0.687988 16.4235L0.687988 16.5036C0.691389 20.3869 2.1514 24.1276 4.77948 26.9865C7.40755 29.8454 11.0125 31.6145 14.8818 31.944C18.7511 32.2736 22.6032 31.1396 25.6769 28.7663C28.7506 26.393 30.8222 22.953 31.4823 19.1262C31.5083 18.9262 31.5295 18.7281 31.5527 18.526C31.8721 15.8858 31.5263 13.2076 30.5467 10.7352V10.7352Z" fill="url(#paint2_radial_9085_19209)"/>
<path d="M23.0101 12.5583C23.0437 12.5819 23.0749 12.6055 23.1065 12.6291C22.7169 11.9383 22.2319 11.3059 21.6659 10.7504C16.8455 5.92919 20.4026 0.296874 21.0024 0.0107567L21.0084 0.00195312C17.1128 2.28289 15.7911 6.50543 15.6694 8.6175C15.8503 8.60509 16.0296 8.58989 16.2145 8.58989C17.5967 8.59242 18.9536 8.96094 20.1472 9.65798C21.3409 10.355 22.3286 11.3557 23.0101 12.5583V12.5583Z" fill="url(#paint3_radial_9085_19209)"/>
<path d="M16.2247 13.5211C16.1991 13.9068 14.8361 15.2374 14.3595 15.2374C9.94929 15.2374 9.2334 17.9053 9.2334 17.9053C9.42868 20.1518 10.9941 22.0022 12.8865 22.981C12.9729 23.0258 13.0606 23.0662 13.1482 23.1058C13.3 23.173 13.4518 23.2352 13.6036 23.2923C14.2531 23.5221 14.9333 23.6534 15.6216 23.6817C23.3516 24.0442 24.849 14.4378 19.2707 11.6503C20.5867 11.4791 21.9193 11.8026 23.0103 12.5583C22.3288 11.3557 21.3411 10.355 20.1475 9.65794C18.9538 8.9609 17.5969 8.59238 16.2147 8.58984C16.0306 8.58984 15.8505 8.60505 15.6696 8.61746C14.1139 8.72439 12.6265 9.29768 11.4015 10.2625C11.638 10.4626 11.9049 10.7299 12.4671 11.2842C13.5196 12.321 16.2187 13.395 16.2247 13.5211V13.5211Z" fill="url(#paint4_radial_9085_19209)"/>
<path d="M16.2247 13.5211C16.1991 13.9068 14.8361 15.2374 14.3595 15.2374C9.94929 15.2374 9.2334 17.9053 9.2334 17.9053C9.42868 20.1518 10.9941 22.0022 12.8865 22.981C12.9729 23.0258 13.0606 23.0662 13.1482 23.1058C13.3 23.173 13.4518 23.2352 13.6036 23.2923C14.2531 23.5221 14.9333 23.6534 15.6216 23.6817C23.3516 24.0442 24.849 14.4378 19.2707 11.6503C20.5867 11.4791 21.9193 11.8026 23.0103 12.5583C22.3288 11.3557 21.3411 10.355 20.1475 9.65794C18.9538 8.9609 17.5969 8.59238 16.2147 8.58984C16.0306 8.58984 15.8505 8.60505 15.6696 8.61746C14.1139 8.72439 12.6265 9.29768 11.4015 10.2625C11.638 10.4626 11.9049 10.7299 12.4671 11.2842C13.5196 12.321 16.2187 13.395 16.2247 13.5211V13.5211Z" fill="url(#paint5_radial_9085_19209)"/>
<path d="M10.6783 9.74673C10.804 9.82676 10.9076 9.89639 10.9984 9.95922C10.645 8.72228 10.63 7.41319 10.9548 6.16846C9.5242 6.86151 8.25301 7.84396 7.22168 9.05364C7.29731 9.05164 9.54704 9.01123 10.6783 9.74673V9.74673Z" fill="url(#paint6_radial_9085_19209)"/>
<path d="M0.829632 16.8705C2.02652 23.943 8.43636 29.3428 15.7134 29.5489C22.4481 29.7394 26.7507 25.8297 28.5282 22.0158C30.0333 18.7195 30.2062 14.9691 29.0108 11.5483V11.5335C29.0108 11.5219 29.0084 11.5151 29.0108 11.5187L29.0136 11.5447C29.5639 15.137 27.7367 18.6172 24.8803 20.9705L24.8715 20.9906C19.306 25.5232 13.9798 23.7253 12.9018 22.9914C12.8266 22.9554 12.7513 22.9179 12.6761 22.8789C9.43117 21.3279 8.09062 18.3715 8.37794 15.836C7.60766 15.8474 6.85062 15.6351 6.19854 15.225C5.54646 14.8148 5.02732 14.2243 4.70403 13.5251C5.55582 13.0032 6.52706 12.7082 7.52519 12.6682C8.52332 12.6281 9.51509 12.8443 10.406 13.2962C12.2427 14.13 14.3327 14.2122 16.2292 13.5251C16.2232 13.399 13.5241 12.3246 12.4716 11.2882C11.9094 10.7339 11.6425 10.467 11.406 10.2665C11.2782 10.1583 11.1446 10.057 11.0058 9.96322C10.9138 9.9004 10.8101 9.83237 10.6857 9.75073C9.55442 9.01523 7.3047 9.05565 7.23027 9.05765H7.22306C6.60841 8.27853 6.65163 5.70947 6.68684 5.17285C6.50501 5.24593 6.33143 5.33808 6.16903 5.44776C5.62642 5.83503 5.11917 6.26957 4.65321 6.7463C4.12033 7.28313 3.63336 7.86367 3.19741 8.48181V8.48421V8.48141C2.20029 9.89502 1.49306 11.4921 1.11655 13.1805C1.10895 13.2122 0.557921 15.6211 0.829632 16.8705V16.8705Z" fill="url(#paint7_radial_9085_19209)"/>
<path d="M21.6665 10.7504C22.2327 11.3065 22.7177 11.9396 23.1071 12.6312C23.1923 12.6956 23.2719 12.7596 23.3396 12.8216C26.8558 16.063 25.0135 20.6449 24.8762 20.971C27.7326 18.6176 29.5581 15.1374 29.0095 11.5451C27.2552 7.17131 24.2816 5.40859 21.853 1.57021C21.7301 1.37613 21.6073 1.18165 21.4876 0.976367C21.4192 0.859119 21.3644 0.753476 21.3167 0.656236C21.216 0.461177 21.1384 0.255032 21.0854 0.0419831C21.0855 0.0321519 21.082 0.0226386 21.0755 0.015258C21.069 0.00787746 21.06 0.00314612 21.0502 0.00196661C21.0407 -0.000655536 21.0306 -0.000655536 21.021 0.00196661C21.019 0.00196661 21.0158 0.00556809 21.0134 0.00636842C21.011 0.00716875 21.0058 0.0107702 21.0022 0.0123709C20.4024 0.296888 16.8453 5.9292 21.6665 10.7504V10.7504Z" fill="url(#paint8_radial_9085_19209)"/>
<path d="M23.3375 12.8196C23.2698 12.7576 23.1902 12.6936 23.105 12.6292C23.0734 12.6056 23.0421 12.5819 23.0085 12.5583C21.9176 11.8027 20.585 11.4791 19.269 11.6504C24.8473 14.4395 23.3507 24.0443 15.6199 23.6817C14.9315 23.6534 14.2513 23.5222 13.6019 23.2923C13.4501 23.2355 13.2983 23.1734 13.1465 23.1059C13.0588 23.0659 12.9712 23.0258 12.8848 22.981L12.8956 22.9878C13.9736 23.7237 19.2982 25.5217 24.8653 20.987L24.8741 20.967C25.013 20.6429 26.8553 16.0598 23.3375 12.8196V12.8196Z" fill="url(#paint9_radial_9085_19209)"/>
<path d="M9.23308 17.9054C9.23308 17.9054 9.94898 15.2375 14.3592 15.2375C14.8358 15.2375 16.1999 13.9069 16.2244 13.5212C14.3279 14.2082 12.2379 14.1261 10.4012 13.2923C9.51028 12.8404 8.51852 12.6242 7.52039 12.6643C6.52226 12.7043 5.55101 12.9993 4.69922 13.5212C5.02251 14.2204 5.54165 14.8109 6.19373 15.2211C6.84581 15.6312 7.60286 15.8435 8.37313 15.8321C8.08581 18.368 9.42636 21.3244 12.6713 22.875C12.7437 22.9098 12.8118 22.9474 12.8862 22.9807C10.9922 22.0023 9.42836 20.1519 9.23308 17.9054Z" fill="url(#paint10_radial_9085_19209)"/>
<path d="M30.5467 10.7352C29.8728 9.11372 28.5058 7.363 27.4354 6.80957C28.1989 8.28822 28.7287 9.87623 29.006 11.5171L29.0088 11.5431C27.2553 7.17132 24.2817 5.40859 21.8531 1.57021C21.7302 1.37613 21.6074 1.18165 21.4877 0.976367C21.4193 0.859119 21.3645 0.753476 21.3169 0.656236C21.2161 0.461177 21.1385 0.255033 21.0856 0.0419831C21.0856 0.0321519 21.0821 0.0226386 21.0756 0.015258C21.0691 0.00787746 21.0601 0.00314612 21.0504 0.00196661C21.0408 -0.000655537 21.0307 -0.000655537 21.0212 0.00196661C21.0191 0.00196661 21.0159 0.00556809 21.0135 0.00636842C21.0111 0.00716875 21.0059 0.0107702 21.0023 0.0123709L21.0083 0.00196661C17.1127 2.2829 15.791 6.50544 15.6693 8.61751C15.8502 8.60511 16.0295 8.5899 16.2144 8.5899C17.5966 8.59243 18.9535 8.96096 20.1472 9.658C21.3408 10.355 22.3285 11.3557 23.01 12.5583C21.9191 11.8027 20.5864 11.4791 19.2704 11.6504C24.8487 14.4395 23.3521 24.0443 15.6213 23.6817C14.933 23.6534 14.2528 23.5222 13.6033 23.2923C13.4515 23.2355 13.2997 23.1734 13.1479 23.1059C13.0603 23.0659 12.9726 23.0258 12.8862 22.981L12.897 22.9878C12.8218 22.9518 12.7465 22.9143 12.6713 22.8754C12.7437 22.9102 12.8118 22.9478 12.8862 22.981C10.9922 22.0022 9.42838 20.1519 9.2331 17.9053C9.2331 17.9053 9.949 15.2374 14.3592 15.2374C14.8358 15.2374 16.2 13.9069 16.2244 13.5211C16.2184 13.3951 13.5193 12.3206 12.4668 11.2842C11.9046 10.73 11.6377 10.4631 11.4012 10.2626C11.2734 10.1543 11.1398 10.0531 11.001 9.95926C10.6476 8.72233 10.6326 7.41324 10.9574 6.1685C9.5268 6.86156 8.25561 7.84401 7.22428 9.05369H7.21707C6.60242 8.27457 6.64564 5.70551 6.68085 5.16889C6.49902 5.24197 6.32544 5.33412 6.16304 5.44381C5.62043 5.83107 5.11318 6.26561 4.64722 6.74234C4.11624 7.28069 3.63128 7.86256 3.19742 8.48185V8.48426V8.48145C2.20031 9.89506 1.49308 11.4922 1.11656 13.1806L1.09576 13.283C1.06654 13.4195 0.93569 14.1126 0.916882 14.2614C0.916882 14.2726 0.916882 14.2498 0.916882 14.2614C0.797197 14.9769 0.720761 15.6989 0.687988 16.4235L0.687988 16.5036C0.691389 20.3869 2.1514 24.1276 4.77948 26.9865C7.40755 29.8454 11.0125 31.6145 14.8818 31.944C18.7511 32.2736 22.6032 31.1396 25.6769 28.7663C28.7506 26.393 30.8222 22.953 31.4823 19.1262C31.5083 18.9262 31.5295 18.7281 31.5527 18.526C31.8721 15.8858 31.5263 13.2076 30.5467 10.7352V10.7352ZM29.008 11.5319L29.0108 11.5483L29.008 11.5319Z" fill="url(#paint11_linear_9085_19209)"/>
<defs>
<linearGradient id="paint0_linear_9085_19209" x1="28.4938" y1="4.95761" x2="2.74763" y2="29.7978" gradientUnits="userSpaceOnUse">
<stop offset="0.048" stop-color="#FFF44F"/>
<stop offset="0.111" stop-color="#FFE847"/>
<stop offset="0.225" stop-color="#FFC830"/>
<stop offset="0.368" stop-color="#FF980E"/>
<stop offset="0.401" stop-color="#FF8B16"/>
<stop offset="0.462" stop-color="#FF672A"/>
<stop offset="0.534" stop-color="#FF3647"/>
<stop offset="0.705" stop-color="#E31587"/>
</linearGradient>
<radialGradient id="paint1_radial_9085_19209" cx="0" cy="0" r="1" gradientUnits="userSpaceOnUse" gradientTransform="translate(27.3041 3.55135) scale(32.3321 32.3321)">
<stop offset="0.129" stop-color="#FFBD4F"/>
<stop offset="0.186" stop-color="#FFAC31"/>
<stop offset="0.247" stop-color="#FF9D17"/>
<stop offset="0.283" stop-color="#FF980E"/>
<stop offset="0.403" stop-color="#FF563B"/>
<stop offset="0.467" stop-color="#FF3750"/>
<stop offset="0.71" stop-color="#F5156C"/>
<stop offset="0.782" stop-color="#EB0878"/>
<stop offset="0.86" stop-color="#E50080"/>
</radialGradient>
<radialGradient id="paint2_radial_9085_19209" cx="0" cy="0" r="1" gradientUnits="userSpaceOnUse" gradientTransform="translate(15.4897 16.7697) scale(32.3321 32.3321)">
<stop offset="0.3" stop-color="#960E18"/>
<stop offset="0.351" stop-color="#B11927" stop-opacity="0.74"/>
<stop offset="0.435" stop-color="#DB293D" stop-opacity="0.343"/>
<stop offset="0.497" stop-color="#F5334B" stop-opacity="0.094"/>
<stop offset="0.53" stop-color="#FF3750" stop-opacity="0"/>
</radialGradient>
<radialGradient id="paint3_radial_9085_19209" cx="0" cy="0" r="1" gradientUnits="userSpaceOnUse" gradientTransform="translate(19.3877 -3.78604) scale(23.4232 23.4232)">
<stop offset="0.132" stop-color="#FFF44F"/>
<stop offset="0.252" stop-color="#FFDC3E"/>
<stop offset="0.506" stop-color="#FF9D12"/>
<stop offset="0.526" stop-color="#FF980E"/>
</radialGradient>
<radialGradient id="paint4_radial_9085_19209" cx="0" cy="0" r="1" gradientUnits="userSpaceOnUse" gradientTransform="translate(11.9137 25.2149) scale(15.3947)">
<stop offset="0.353" stop-color="#3A8EE6"/>
<stop offset="0.472" stop-color="#5C79F0"/>
<stop offset="0.669" stop-color="#9059FF"/>
<stop offset="1" stop-color="#C139E6"/>
</radialGradient>
<radialGradient id="paint5_radial_9085_19209" cx="0" cy="0" r="1" gradientUnits="userSpaceOnUse" gradientTransform="translate(17.2568 14.1199) rotate(-13.5916) scale(8.16219 9.55589)">
<stop offset="0.206" stop-color="#9059FF" stop-opacity="0"/>
<stop offset="0.278" stop-color="#8C4FF3" stop-opacity="0.064"/>
<stop offset="0.747" stop-color="#7716A8" stop-opacity="0.45"/>
<stop offset="0.975" stop-color="#6E008B" stop-opacity="0.6"/>
</radialGradient>
<radialGradient id="paint6_radial_9085_19209" cx="0" cy="0" r="1" gradientUnits="userSpaceOnUse" gradientTransform="translate(15.0817 2.22848) scale(11.075)">
<stop stop-color="#FFE226"/>
<stop offset="0.121" stop-color="#FFDB27"/>
<stop offset="0.295" stop-color="#FFC82A"/>
<stop offset="0.502" stop-color="#FFA930"/>
<stop offset="0.732" stop-color="#FF7E37"/>
<stop offset="0.792" stop-color="#FF7139"/>
</radialGradient>
<radialGradient id="paint7_radial_9085_19209" cx="0" cy="0" r="1" gradientUnits="userSpaceOnUse" gradientTransform="translate(23.7866 -4.79625) scale(47.2518 47.2518)">
<stop offset="0.113" stop-color="#FFF44F"/>
<stop offset="0.456" stop-color="#FF980E"/>
<stop offset="0.622" stop-color="#FF5634"/>
<stop offset="0.716" stop-color="#FF3647"/>
<stop offset="0.904" stop-color="#E31587"/>
</radialGradient>
<radialGradient id="paint8_radial_9085_19209" cx="0" cy="0" r="1" gradientUnits="userSpaceOnUse" gradientTransform="translate(19.8041 -2.16876) rotate(83.976) scale(34.632 22.7287)">
<stop stop-color="#FFF44F"/>
<stop offset="0.06" stop-color="#FFE847"/>
<stop offset="0.168" stop-color="#FFC830"/>
<stop offset="0.304" stop-color="#FF980E"/>
<stop offset="0.356" stop-color="#FF8B16"/>
<stop offset="0.455" stop-color="#FF672A"/>
<stop offset="0.57" stop-color="#FF3647"/>
<stop offset="0.737" stop-color="#E31587"/>
</radialGradient>
<radialGradient id="paint9_radial_9085_19209" cx="0" cy="0" r="1" gradientUnits="userSpaceOnUse" gradientTransform="translate(14.8208 6.33061) scale(29.5001 29.5001)">
<stop offset="0.137" stop-color="#FFF44F"/>
<stop offset="0.48" stop-color="#FF980E"/>
<stop offset="0.592" stop-color="#FF5634"/>
<stop offset="0.655" stop-color="#FF3647"/>
<stop offset="0.904" stop-color="#E31587"/>
</radialGradient>
<radialGradient id="paint10_radial_9085_19209" cx="0" cy="0" r="1" gradientUnits="userSpaceOnUse" gradientTransform="translate(22.6078 8.05716) scale(32.2877 32.2877)">
<stop offset="0.094" stop-color="#FFF44F"/>
<stop offset="0.231" stop-color="#FFE141"/>
<stop offset="0.509" stop-color="#FFAF1E"/>
<stop offset="0.626" stop-color="#FF980E"/>
</radialGradient>
<linearGradient id="paint11_linear_9085_19209" x1="28.1845" y1="4.82475" x2="6.27708" y2="26.7318" gradientUnits="userSpaceOnUse">
<stop offset="0.167" stop-color="#FFF44F" stop-opacity="0.8"/>
<stop offset="0.266" stop-color="#FFF44F" stop-opacity="0.634"/>
<stop offset="0.489" stop-color="#FFF44F" stop-opacity="0.217"/>
<stop offset="0.6" stop-color="#FFF44F" stop-opacity="0"/>
</linearGradient>
</defs>
</svg>
