<svg width="32" height="32" viewBox="0 0 32 32" fill="none" xmlns="http://www.w3.org/2000/svg">
<path d="M15.959 0.00283358C15.959 0.00283358 25.3901 -0.418875 30.3903 9.02689H15.1565C15.1565 9.02689 12.2816 8.93456 9.82584 12.4098C9.12039 13.8684 8.36209 15.371 9.21304 18.3322C7.9872 16.2628 2.70508 7.09826 2.70508 7.09826C2.70508 7.09826 6.4308 0.376257 15.9589 0.00283358H15.959Z" fill="#EF3F36"/>
<path d="M29.901 23.982C29.901 23.982 25.5491 32.3338 14.8438 31.9209C16.1665 29.6406 22.4627 18.7758 22.4627 18.7758C22.4627 18.7758 23.9839 16.3419 22.1894 12.4845C21.2766 11.1445 20.3463 9.743 17.3481 8.99603C19.76 8.9742 30.3641 8.99603 30.3641 8.99603C30.3641 8.99603 34.3366 15.5731 29.901 23.982Z" fill="#FCD900"/>
<path d="M2.08364 24.048C2.08364 24.048 -3.00015 16.1179 2.71409 7.08508C4.03246 9.3653 10.3287 20.2301 10.3287 20.2301C10.3287 20.2301 11.6868 22.7608 15.9327 23.1384C17.551 23.0199 19.2352 22.9188 21.387 20.709C20.2008 22.8003 14.8788 31.9385 14.8788 31.9385C14.8788 31.9385 7.17168 32.0791 2.08351 24.048H2.08364Z" fill="#61BC5B"/>
<path d="M14.8394 32L16.9821 23.0903C16.9821 23.0903 19.3366 22.9056 21.312 20.7485C20.0862 22.897 14.8394 32 14.8394 32V32Z" fill="#5AB055"/>
<path d="M8.78125 16.1002C8.78125 12.1726 11.9779 8.9873 15.9197 8.9873C19.8614 8.9873 23.0581 12.1726 23.0581 16.1002C23.0581 20.0279 19.8614 23.2131 15.9197 23.2131C11.9779 23.2087 8.78125 20.0279 8.78125 16.1002V16.1002Z" fill="white"/>
<path d="M9.97607 16.1002C9.97607 12.8316 12.6349 10.178 15.9197 10.178C19.2 10.178 21.8632 12.8273 21.8632 16.1002C21.8632 19.369 19.2046 22.0226 15.9197 22.0226C12.6392 22.0226 9.97607 19.369 9.97607 16.1002V16.1002Z" fill="url(#paint0_linear_9085_19218)"/>
<path d="M30.3596 9.00051L21.5368 11.5794C21.5368 11.5794 20.2053 9.63307 17.3438 9.00051C19.8261 8.98728 30.3596 9.00051 30.3596 9.00051V9.00051Z" fill="#EACA05"/>
<path d="M9.04113 18.007C7.80201 15.8674 2.70508 7.09827 2.70508 7.09827L9.23946 13.5389C9.23946 13.5389 8.5692 14.9141 8.82062 16.8823L9.041 18.007H9.04113Z" fill="#DF3A32"/>
<defs>
<linearGradient id="paint0_linear_9085_19218" x1="15.9194" y1="10.2616" x2="15.9194" y2="21.6661" gradientUnits="userSpaceOnUse">
<stop stop-color="#86BBE5"/>
<stop offset="1" stop-color="#1072BA"/>
</linearGradient>
</defs>
</svg>
