<svg width="32" height="32" viewBox="0 0 32 32" fill="none" xmlns="http://www.w3.org/2000/svg">
<path opacity="0.6" d="M0 0H32V32H0V0Z" fill="black"/>
<path d="M0 0H32V32H0V0Z" fill="white"/>
<path d="M0.715241 26.6666C6.82906 23.5447 6.95914 23.5447 14.5039 22.2439C16.7152 20.9431 26.8616 24.8455 31.4144 26.1463V31.3496H0.455078L0.6502 26.6666H0.715241Z" fill="#A6D3FC"/>
<path d="M0 0H32V32H0V0ZM31.3496 26.1463C31.0894 26.1463 30.0488 26.4065 29.2683 26.9268C29.2683 27.4472 29.2683 27.7073 29.0081 28.0976C27.9675 24.4553 24.4553 23.5447 21.8537 25.3659L22.2439 24.1951C17.0406 20.2927 11.8374 22.6341 9.10569 26.0163C9.10569 26.0163 8.97561 25.3659 9.7561 24.1951C8.06504 23.4146 5.07317 24.5854 4.29268 25.626L5.33333 26.5366C3.77236 25.8862 1.82114 26.4065 0.650406 26.7967V31.3496H31.3496V26.2764V26.1463ZM10.9268 13.9187H21.2033V22.2439L21.9837 22.7642H26.2764V13.2683C26.2764 9.7561 22.7642 8.71545 21.0732 8.71545H5.85366V22.7642H10.9268V13.9187ZM18.6016 21.4634V16.5203H13.5285V21.4634C14.8293 21.0732 16.9106 20.9431 18.6016 21.3333V21.4634Z" fill="#0080F5"/>
</svg>
