<svg width="32" height="32" viewBox="0 0 32 32" fill="none" xmlns="http://www.w3.org/2000/svg">
<path d="M0 7.18644C0 3.21748 3.21748 0 7.18644 0H24.8136C28.7825 0 32 3.21748 32 7.18644V24.8136C32 28.7825 28.7825 32 24.8136 32H7.18644C3.21748 32 0 28.7825 0 24.8136V7.18644Z" fill="#36ADFF"/>
<ellipse cx="16.023" cy="15.9253" rx="4.69959" ry="12.9645" transform="rotate(44.6936 16.023 15.9253)" fill="#89D9FF"/>
<ellipse cx="16.1358" cy="15.7288" rx="10.1695" ry="10.1695" fill="white"/>
<path fill-rule="evenodd" clip-rule="evenodd" d="M16.1356 25.8983C21.7521 25.8983 26.3051 21.3452 26.3051 15.7288C26.3051 14.0262 25.8867 12.4214 25.1472 11.0115C24.2004 13.4201 22.1596 16.4048 19.364 19.2305C16.7598 21.8627 14.0105 23.8415 11.7075 24.8862C13.0461 25.5347 14.5484 25.8983 16.1356 25.8983Z" fill="#CAE6FF"/>
</svg>
