<svg viewBox="0 68.0814192 51.273096 57.441288" xmlns="http://www.w3.org/2000/svg" style="max-height: 500px" width="51.273096" height="57.441288"><g clip-rule="evenodd" fill-rule="evenodd"><path d="M0 0h192.756v192.756H0V0z" fill="#fff"/><path d="M64.721 91.426c.631 1.053 1.052 2.525 1.052 4.104 0 3.789-1.578 5.787-4.63 5.787-2.946 0-4.524-1.998-4.524-5.787 0-1.578.316-3.051 1.052-4.104.842-1.157 1.894-1.683 3.472-1.683 1.578.001 2.631.527 3.578 1.683zm-9.47-2.104c-1.473 1.579-2.104 3.578-2.104 6.208 0 2.63.631 4.525 2.104 5.892 1.368 1.578 3.262 2.525 5.892 2.525 2.525 0 4.419-.947 5.997-2.525 1.263-1.578 1.894-3.473 1.894-5.892 0-2.63-.631-4.629-2.104-6.208-1.368-1.578-3.262-2.209-5.787-2.209-2.63 0-4.524.632-5.892 2.209zm27.671 3.052c0-3.367-2.314-5.155-6.628-5.155h-4.208v16.307h3.262v-6.102h1.473c3.997 0 6.101-1.789 6.101-5.05zm-7.575-2.525h1.052c2.104 0 3.156.947 3.156 2.63 0 1.578-1.052 2.525-3.156 2.525h-1.052v-5.155zm13.677 0v4.103h5.787v2.63h-5.787v4.523h6.523v2.42h-9.785V87.218h9.785v2.63h-6.523v.001zm84.695 4.208h6.312v2.104h-6.312v5.472h6.84v1.893h-9.049V87.218h9.049v2.104h-6.84v4.735zm11.574-6.839h-2.736v.526h1.053V90.9h.631v-3.156h1.053v-.526h-.001zm3.893.737l-.842 2.946h-.736l-1.053-2.946v2.946h-.736v-3.683h1.262l.842 2.63.736-2.63h1.264v3.683h-.736v-2.946h-.001zm-86.485 3.471v12.099h-3.156V87.218h4.104l6.312 12.309V87.218h3.156v16.307h-4.104l-6.312-12.099zm36.508-4.208l-4.943 16.307h-3.156l-3.473-14.203-3.682 14.203h-3.156l-4.945-16.307h2.629l3.895 14.098h.209l3.262-14.098h3.367l3.473 14.098h.209l3.893-14.098h2.418zm6.103 0l-6.84 16.307h2.525l1.578-3.998h7.996l1.578 3.998h2.631l-6.943-16.307h-2.525zm1.262 2.315l3.156 8.102h-6.523l3.367-8.102zm9.68-2.315l5.051 14.415 5.049-14.415h2.525l-6.207 16.307h-2.945l-6.104-16.307h2.631z"/><path fill="#8780a8" d="M26.108 114.572c-2.616 1.045-4.966 2.146-7.681 3.053 0-1.428 1.405-2.807 1.684-4.209 2.359-.672 4.619-1.461 6.861-2.492 3.322-1.521 5.998-3.844 8.605-6.451.913-1.283 2.723-4.027 2.625-6.17-.059-1.287-.687-2.36-2.941-2.773a10.238 10.238 0 0 0-3.893 0c-2.351.236-5.027.949-7.049 2.105 0-1.029.503-2.148.736-3.157 4.928-2.086 8.887-3.862 14.48-3.871 2.08-.003 3.67.136 4.746.762 1.299.756 1.848 2.221 1.606 5.001l-.526 1.578c-1.627 3.525-4.329 6.133-7.183 8.746-3.446 3.156-7.886 5.788-12.07 7.878z"/><path fill="#5d5188" d="M4.045 82.962c.229.236 1.191 1.546 1.336 1.836-.512 3.579-1.089 6.841-.906 10.454.132 2.607.542 5.961 1.42 8.795 1.071 3.457 2.856 6.129 5.8 5.705 4.738-.684 5.869-9.195 6.312-12.762.748.314 2.292 1.043 2.84 1.486-.146 5.271-2.457 20.643-9.027 20.213-3.767-.246-6-4.764-7.333-10.115-1.082-4.346-1.538-9.229-1.633-12.769-.11-4.141.238-8.916 1.191-12.843z"/><path fill="#363676" d="M37.681 85.114c2.2 1.707 4.026 3.624 5.787 5.682v.105l-1.368-.316c-1.124-1.255-2.667-3.31-4.629-4.734-4.785-3.474-11.841-7.442-18.021-7.576-2.853-.061-6.287.612-6.326 4.157-.037 3.022 2.615 5.921 5.819 8.276 1.922 1.413 4.044 2.63 5.903 3.56l.21.21c-.233 1.009-.736 2.127-.736 3.157-4.32-2.309-10.013-5.733-14.183-9.655-3.243-3.051-5.563-6.405-5.597-9.77-.034-3.415 3.648-4.143 6.418-4.143 3.373 0 6.536.79 9.705 1.761 5.949 1.823 12.157 5.515 17.018 9.286z"/></g></svg>