<svg width="34" height="34" viewBox="0 0 34 34" fill="none" xmlns="http://www.w3.org/2000/svg">
<path d="M33 17C33 21.2435 31.3143 25.3131 28.3137 28.3137C25.3131 31.3143 21.2434 33 17 33C12.7565 33 8.68685 31.3143 5.68628 28.3137C2.6857 25.3131 1 21.2435 1 17C1 12.7565 2.6857 8.68689 5.68628 5.68631C8.68685 2.68573 12.7565 1.00001 17 1C21.2434 1 25.3131 2.6857 28.3137 5.68629C31.3143 8.68687 33 12.7565 33 17V17Z" fill="url(#paint0_linear_9085_19217)" stroke="#CDCDCD" stroke-width="0.753985" stroke-linecap="round" stroke-linejoin="round"/>
<path d="M31.7464 17.0001C31.7464 20.911 30.1928 24.6618 27.4273 27.4272C24.6619 30.1927 20.9111 31.7463 17.0001 31.7463C13.0892 31.7463 9.33842 30.1927 6.57297 27.4272C3.80752 24.6618 2.25391 20.911 2.25391 17.0001C2.25391 13.0891 3.80752 9.33834 6.57297 6.57288C9.33842 3.80742 13.0892 2.2538 17.0001 2.25378C20.9111 2.25378 24.6619 3.80741 27.4273 6.57287C30.1928 9.33833 31.7464 13.0891 31.7464 17.0001V17.0001Z" fill="url(#paint1_radial_9085_19217)"/>
<path d="M17 3.02271C16.9717 3.02264 16.9437 3.02815 16.9176 3.03894C16.8915 3.04972 16.8677 3.06556 16.8478 3.08554C16.8278 3.10552 16.8119 3.12925 16.8012 3.15537C16.7904 3.18149 16.7849 3.20948 16.7849 3.23774V5.71759C16.7849 5.74584 16.7904 5.77384 16.8012 5.79996C16.8119 5.82607 16.8278 5.84981 16.8478 5.86979C16.8677 5.88977 16.8915 5.90561 16.9176 5.91639C16.9437 5.92717 16.9717 5.93269 17 5.93262C17.0282 5.93267 17.0562 5.92715 17.0823 5.91636C17.1084 5.90557 17.1321 5.88973 17.1521 5.86975C17.1721 5.84977 17.1879 5.82604 17.1987 5.79993C17.2094 5.77382 17.215 5.74583 17.2149 5.71759V3.23769C17.215 3.20944 17.2094 3.18146 17.1987 3.15535C17.1879 3.12924 17.172 3.10551 17.1521 3.08554C17.1321 3.06556 17.1084 3.04973 17.0823 3.03895C17.0561 3.02816 17.0282 3.02265 16.9999 3.02271H17ZM15.5934 3.11158C15.5789 3.11003 15.5642 3.1101 15.5497 3.11178C15.5216 3.11465 15.4944 3.12304 15.4695 3.13648C15.4447 3.14991 15.4227 3.16812 15.4049 3.19006C15.3871 3.212 15.3738 3.23724 15.3658 3.26433C15.3578 3.29142 15.3552 3.31982 15.3582 3.34791L15.4666 4.38539C15.4694 4.4135 15.4778 4.44076 15.4913 4.46561C15.5047 4.49046 15.5229 4.51242 15.5448 4.53022C15.5668 4.54801 15.592 4.5613 15.6191 4.56932C15.6462 4.57734 15.6746 4.57992 15.7027 4.57693C15.7308 4.57406 15.7581 4.56567 15.7829 4.55224C15.8078 4.5388 15.8298 4.52059 15.8475 4.49864C15.8653 4.47669 15.8786 4.45145 15.8866 4.42435C15.8947 4.39726 15.8972 4.36885 15.8942 4.34075L15.786 3.30332C15.7809 3.25405 15.759 3.20802 15.7239 3.17307C15.6888 3.13812 15.6427 3.1164 15.5934 3.11158H15.5934ZM18.4163 3.1126C18.367 3.11739 18.3209 3.13909 18.2857 3.17403C18.2506 3.20896 18.2287 3.25497 18.2236 3.30424L18.1145 4.34162C18.1115 4.36972 18.1141 4.39813 18.1221 4.42523C18.1301 4.45233 18.1434 4.47759 18.1611 4.49955C18.1789 4.52151 18.2009 4.53973 18.2257 4.55319C18.2506 4.56664 18.2778 4.57506 18.306 4.57795C18.334 4.58097 18.3624 4.5784 18.3895 4.57041C18.4166 4.56241 18.4419 4.54915 18.4638 4.53137C18.4858 4.51359 18.504 4.49165 18.5174 4.46681C18.5309 4.44197 18.5393 4.41472 18.5422 4.38662L18.6513 3.34914C18.6543 3.32105 18.6517 3.29264 18.6437 3.26554C18.6357 3.23845 18.6224 3.2132 18.6046 3.19125C18.5869 3.1693 18.5649 3.15108 18.5401 3.13764C18.5152 3.12419 18.488 3.11579 18.4598 3.11291C18.4453 3.11143 18.4307 3.11134 18.4162 3.11265L18.4163 3.1126ZM14.1486 3.3211C14.1167 3.32118 14.0852 3.32839 14.0564 3.34221C14.0276 3.35603 14.0022 3.3761 13.9822 3.40097C13.9621 3.42583 13.9479 3.45486 13.9405 3.48593C13.9331 3.51701 13.9327 3.54934 13.9394 3.58057L14.4529 6.00668C14.4587 6.03433 14.4699 6.06057 14.4859 6.08388C14.5019 6.1072 14.5223 6.12713 14.5459 6.14253C14.5696 6.15794 14.5961 6.16851 14.6239 6.17365C14.6517 6.17879 14.6802 6.17839 14.7078 6.17248C14.7355 6.16669 14.7617 6.1555 14.785 6.13955C14.8083 6.12361 14.8283 6.10321 14.8437 6.07954C14.8591 6.05587 14.8697 6.02939 14.8748 6.00161C14.88 5.97384 14.8796 5.94533 14.8737 5.91771L14.3601 3.49154C14.35 3.44307 14.3234 3.3996 14.2848 3.3685C14.2463 3.33741 14.1982 3.3206 14.1486 3.32094V3.3211ZM19.861 3.32314C19.8115 3.32272 19.7633 3.33946 19.7248 3.37053C19.6862 3.40159 19.6596 3.44506 19.6494 3.49353L19.1341 5.91929C19.1281 5.94691 19.1277 5.97543 19.1328 6.00322C19.138 6.031 19.1485 6.0575 19.1639 6.08119C19.1793 6.10488 19.1992 6.1253 19.2225 6.14127C19.2458 6.15725 19.2721 6.16846 19.2997 6.17427C19.3273 6.1802 19.3558 6.18062 19.3836 6.1755C19.4114 6.17038 19.4379 6.15982 19.4616 6.14444C19.4853 6.12905 19.5057 6.10914 19.5217 6.08584C19.5377 6.06254 19.5489 6.03632 19.5547 6.00867L20.0701 3.58287C20.0768 3.55164 20.0764 3.51931 20.069 3.48824C20.0616 3.45716 20.0474 3.42813 20.0274 3.40326C20.0074 3.37838 19.982 3.3583 19.9532 3.34446C19.9244 3.33063 19.8929 3.3234 19.861 3.32329V3.32314ZM12.7698 3.7099C12.7411 3.7073 12.7122 3.71067 12.6849 3.71981C12.658 3.72847 12.6331 3.74237 12.6116 3.76069C12.5901 3.77901 12.5724 3.80139 12.5596 3.82656C12.5467 3.85173 12.539 3.87918 12.5368 3.90734C12.5346 3.9355 12.538 3.96382 12.5468 3.99067L12.8691 4.98279C12.8778 5.00968 12.8917 5.0346 12.91 5.0561C12.9283 5.07761 12.9507 5.09528 12.9759 5.10811C13.0011 5.12094 13.0285 5.12867 13.0567 5.13085C13.0849 5.13304 13.1132 5.12964 13.1401 5.12085C13.167 5.11218 13.1919 5.09828 13.2134 5.07995C13.2349 5.06162 13.2525 5.03922 13.2654 5.01405C13.2782 4.98887 13.2859 4.96141 13.2881 4.93323C13.2903 4.90506 13.2869 4.87674 13.2781 4.84989L12.9557 3.85782C12.9428 3.81758 12.9182 3.78207 12.8851 3.75575C12.852 3.72943 12.8119 3.71348 12.7698 3.7099V3.7099ZM21.2321 3.71041C21.1899 3.71399 21.1498 3.72995 21.1167 3.75627C21.0836 3.78258 21.0591 3.81809 21.0461 3.85833L20.7235 4.85035C20.7147 4.87719 20.7113 4.90551 20.7135 4.93368C20.7157 4.96185 20.7234 4.9893 20.7363 5.01447C20.7491 5.03965 20.7668 5.06204 20.7883 5.08036C20.8098 5.09869 20.8347 5.11259 20.8615 5.12126C20.8884 5.13005 20.9167 5.13345 20.9449 5.13127C20.973 5.12909 21.0005 5.12137 21.0257 5.10855C21.0508 5.09574 21.0732 5.07807 21.0916 5.05658C21.1099 5.03508 21.1238 5.01018 21.1325 4.9833L21.455 3.99118C21.4638 3.96433 21.4672 3.93602 21.465 3.90785C21.4628 3.87969 21.4551 3.85224 21.4423 3.82707C21.4295 3.80189 21.4118 3.7795 21.3903 3.76117C21.3688 3.74285 21.3439 3.72894 21.3171 3.72027C21.2897 3.71134 21.2608 3.70799 21.2321 3.71041V3.71041ZM11.4062 4.20892C11.3774 4.20949 11.3491 4.21585 11.3228 4.22761C11.297 4.23904 11.2736 4.25545 11.2542 4.2759C11.2347 4.29636 11.2194 4.32046 11.2093 4.34682C11.1992 4.37318 11.1943 4.40129 11.1951 4.42952C11.1958 4.45776 11.2022 4.48556 11.2137 4.51135L12.2209 6.77749C12.2323 6.80332 12.2488 6.82665 12.2692 6.84613C12.2897 6.8656 12.3138 6.88085 12.3401 6.89098C12.3665 6.90112 12.3946 6.90595 12.4228 6.9052C12.4511 6.90444 12.4789 6.89812 12.5047 6.88659C12.5305 6.87517 12.5538 6.85877 12.5733 6.83832C12.5928 6.81787 12.6081 6.79377 12.6182 6.7674C12.6283 6.74104 12.6332 6.71293 12.6324 6.6847C12.6317 6.65646 12.6254 6.62865 12.6139 6.60285L11.6066 4.33677C11.5895 4.29807 11.5614 4.26528 11.5257 4.24253C11.4901 4.21977 11.4485 4.20806 11.4062 4.20887V4.20892ZM22.611 4.21648C22.5687 4.21567 22.5272 4.22734 22.4915 4.25003C22.4558 4.27273 22.4276 4.30544 22.4105 4.34407L21.4002 6.60883C21.3886 6.6346 21.3822 6.66241 21.3815 6.69064C21.3807 6.71888 21.3855 6.747 21.3956 6.77337C21.4057 6.79975 21.4209 6.82387 21.4404 6.84435C21.4598 6.86483 21.4831 6.88127 21.5089 6.89272C21.5347 6.90427 21.5625 6.91063 21.5908 6.91141C21.619 6.9122 21.6471 6.9074 21.6735 6.89729C21.6999 6.88718 21.724 6.87196 21.7445 6.85251C21.765 6.83305 21.7814 6.80974 21.7928 6.78392L22.8031 4.51926C22.8147 4.49349 22.8211 4.46568 22.8219 4.43744C22.8226 4.40919 22.8178 4.38107 22.8077 4.35469C22.7976 4.32831 22.7824 4.30418 22.7629 4.2837C22.7435 4.26322 22.7202 4.24678 22.6943 4.23533C22.6681 4.22356 22.6398 4.21716 22.611 4.21648V4.21648ZM10.1406 4.87854C10.0978 4.87547 10.0551 4.8854 10.0181 4.90704C9.99358 4.92112 9.9721 4.93989 9.95488 4.96229C9.93767 4.98468 9.92504 5.01026 9.91773 5.03755C9.91042 5.06484 9.90857 5.0933 9.91229 5.1213C9.91602 5.14931 9.92523 5.1763 9.93941 5.20074L10.461 6.10414C10.475 6.12863 10.4938 6.15011 10.5162 6.16732C10.5386 6.18454 10.5642 6.19717 10.5915 6.20448C10.6188 6.21179 10.6472 6.21364 10.6752 6.20991C10.7032 6.20619 10.7302 6.19698 10.7547 6.1828C10.7792 6.16872 10.8006 6.14995 10.8178 6.12755C10.8351 6.10515 10.8477 6.07958 10.855 6.05229C10.8623 6.025 10.8642 5.99654 10.8604 5.96853C10.8567 5.94053 10.8475 5.91354 10.8333 5.8891L10.3118 4.98575C10.2943 4.9552 10.2695 4.92943 10.2396 4.91073C10.2098 4.89203 10.1758 4.88098 10.1406 4.87854H10.1406ZM23.8593 4.87854C23.8241 4.88093 23.7901 4.89196 23.7603 4.91066C23.7304 4.92935 23.7056 4.95513 23.6882 4.9857L23.1665 5.8891C23.1523 5.91354 23.1431 5.94054 23.1394 5.96855C23.1357 5.99656 23.1375 6.02502 23.1449 6.05231C23.1522 6.0796 23.1648 6.10518 23.182 6.12757C23.1993 6.14996 23.2208 6.16873 23.2453 6.1828C23.2697 6.19698 23.2967 6.20619 23.3247 6.20991C23.3527 6.21364 23.3812 6.21179 23.4085 6.20448C23.4357 6.19717 23.4613 6.18454 23.4837 6.16732C23.5061 6.15011 23.5249 6.12863 23.539 6.10414L24.0605 5.20068C24.0747 5.17625 24.0839 5.14926 24.0876 5.12125C24.0913 5.09325 24.0895 5.06479 24.0822 5.0375C24.0749 5.01021 24.0623 4.98463 24.045 4.96224C24.0278 4.93984 24.0063 4.92107 23.9818 4.90699C23.9447 4.88548 23.902 4.87557 23.8593 4.87854ZM8.91154 5.64506C8.86871 5.6466 8.82731 5.66088 8.79263 5.68607C8.76973 5.70261 8.75031 5.72351 8.73551 5.74758C8.72071 5.77164 8.7108 5.79839 8.70637 5.82629C8.70193 5.85419 8.70305 5.88269 8.70965 5.91016C8.71626 5.93763 8.72823 5.96352 8.74487 5.98635L10.201 7.99368C10.2176 8.01658 10.2385 8.03599 10.2626 8.05079C10.2866 8.06559 10.3134 8.07549 10.3413 8.07993C10.3692 8.08437 10.3977 8.08325 10.4252 8.07665C10.4526 8.07004 10.4785 8.05808 10.5014 8.04144C10.5243 8.0249 10.5437 8.004 10.5585 7.97994C10.5733 7.95588 10.5832 7.92914 10.5876 7.90124C10.592 7.87335 10.5909 7.84485 10.5843 7.81739C10.5777 7.78993 10.5658 7.76404 10.5491 7.74121L9.09291 5.73388C9.0723 5.70533 9.04498 5.68229 9.01335 5.66681C8.98173 5.65133 8.94678 5.64387 8.91159 5.64511L8.91154 5.64506ZM25.1037 5.65599C25.0685 5.65469 25.0335 5.66209 25.0019 5.67753C24.9702 5.69297 24.9429 5.71598 24.9223 5.7445L23.4634 7.74989C23.4467 7.7727 23.4347 7.79858 23.4281 7.82604C23.4214 7.8535 23.4203 7.882 23.4247 7.90991C23.4291 7.93781 23.4389 7.96457 23.4537 7.98865C23.4685 8.01273 23.4879 8.03366 23.5108 8.05023C23.5336 8.06689 23.5594 8.07889 23.5869 8.08554C23.6144 8.09218 23.6428 8.09334 23.6708 8.08895C23.6987 8.08455 23.7254 8.07469 23.7495 8.05993C23.7736 8.04517 23.7945 8.0258 23.8111 8.00293L25.2699 5.99759C25.2866 5.97478 25.2986 5.9489 25.3052 5.92144C25.3118 5.89398 25.313 5.86548 25.3086 5.83758C25.3042 5.80968 25.2943 5.78292 25.2795 5.75884C25.2648 5.73476 25.2454 5.71383 25.2225 5.69726C25.1879 5.67194 25.1465 5.65756 25.1037 5.65599V5.65599ZM7.81302 6.56633C7.7848 6.56481 7.75656 6.5689 7.72993 6.57837C7.7033 6.58784 7.67882 6.6025 7.6579 6.6215C7.63687 6.64035 7.61976 6.66318 7.60757 6.68866C7.59538 6.71414 7.58835 6.74178 7.58687 6.76999C7.58539 6.7982 7.58949 6.82642 7.59895 6.85304C7.6084 6.87966 7.62302 6.90415 7.64196 6.9251L8.33993 7.70045C8.35879 7.72149 8.38161 7.73859 8.4071 7.75078C8.43258 7.76297 8.46022 7.77 8.48843 7.77148C8.51664 7.77295 8.54487 7.76884 8.57149 7.75938C8.5981 7.74992 8.62259 7.73529 8.64354 7.71633C8.66457 7.69747 8.68167 7.67465 8.69387 7.64916C8.70606 7.62367 8.71309 7.59603 8.71457 7.56782C8.71605 7.5396 8.71195 7.51138 8.70249 7.48475C8.69304 7.45813 8.67842 7.43364 8.65947 7.41268L7.9616 6.63738C7.94275 6.61633 7.91992 6.59922 7.89443 6.58703C7.86894 6.57484 7.84129 6.5678 7.81307 6.56633H7.81302ZM26.1884 6.56787C26.1314 6.57093 26.0779 6.5965 26.0398 6.63897L25.3419 7.41411C25.3229 7.43506 25.3083 7.45955 25.2988 7.48618C25.2893 7.5128 25.2852 7.54103 25.2867 7.56925C25.2882 7.59747 25.2952 7.62513 25.3074 7.65062C25.3196 7.67612 25.3367 7.69895 25.3577 7.71782C25.3787 7.73677 25.4032 7.75139 25.4298 7.76085C25.4564 7.77031 25.4846 7.77442 25.5129 7.77294C25.5411 7.77146 25.5687 7.76442 25.5942 7.75222C25.6197 7.74003 25.6425 7.72292 25.6614 7.70188L26.3594 6.92673C26.3783 6.90577 26.393 6.88127 26.4024 6.85465C26.4119 6.82802 26.416 6.79979 26.4145 6.77157C26.413 6.74335 26.406 6.71571 26.3938 6.69022C26.3816 6.66473 26.3645 6.64189 26.3435 6.62303C26.3225 6.60407 26.2981 6.58944 26.2715 6.57997C26.2448 6.5705 26.2166 6.56639 26.1884 6.56787H26.1884ZM6.76017 7.57766C6.73196 7.57918 6.70433 7.58624 6.67885 7.59844C6.65338 7.61064 6.63055 7.62774 6.61169 7.64876C6.59274 7.66971 6.57811 7.69421 6.56865 7.72083C6.55919 7.74745 6.55508 7.77568 6.55656 7.8039C6.55804 7.83211 6.56508 7.85976 6.57728 7.88524C6.58947 7.91073 6.60658 7.93356 6.62762 7.95241L8.47074 9.61155C8.4917 9.63049 8.51618 9.64511 8.5428 9.65457C8.56942 9.66402 8.59764 9.66813 8.62585 9.66665C8.65406 9.66517 8.6817 9.65813 8.70718 9.64594C8.73266 9.63375 8.75549 9.61665 8.77434 9.59561C8.7933 9.57467 8.80793 9.55018 8.81739 9.52357C8.82685 9.49695 8.83096 9.46872 8.82949 9.44051C8.82801 9.4123 8.82098 9.38466 8.80879 9.35918C8.7966 9.33369 8.77949 9.31087 8.75846 9.29201L6.91529 7.63287C6.89434 7.61391 6.86984 7.59927 6.84321 7.5898C6.81658 7.58033 6.78834 7.57623 6.76012 7.57771L6.76017 7.57766ZM27.2463 7.58496C27.2181 7.58342 27.1899 7.58748 27.1632 7.59692C27.1365 7.60637 27.112 7.621 27.0911 7.63997L25.2469 9.29783C25.2259 9.31667 25.2087 9.33948 25.1965 9.36495C25.1843 9.39042 25.1772 9.41805 25.1757 9.44626C25.1742 9.47447 25.1783 9.5027 25.1877 9.52933C25.1972 9.55596 25.2118 9.58046 25.2307 9.60144C25.2495 9.62249 25.2724 9.63961 25.2978 9.65182C25.3233 9.66403 25.351 9.67108 25.3792 9.67258C25.4074 9.67408 25.4356 9.67 25.4623 9.66056C25.4889 9.65112 25.5134 9.63651 25.5344 9.61758L27.3787 7.95972C27.3997 7.94088 27.4169 7.91806 27.4291 7.89259C27.4413 7.86711 27.4483 7.83948 27.4498 7.81127C27.4513 7.78306 27.4472 7.75483 27.4378 7.72821C27.4284 7.70158 27.4138 7.67708 27.3948 7.65611C27.376 7.63506 27.3532 7.61793 27.3277 7.60572C27.3022 7.59351 27.2746 7.58646 27.2463 7.58496V7.58496ZM5.8846 8.70355C5.84941 8.70228 5.81445 8.7097 5.78281 8.72517C5.75117 8.74064 5.72384 8.76367 5.70323 8.79222C5.68656 8.81504 5.67457 8.84093 5.66794 8.8684C5.66132 8.89587 5.66018 8.92438 5.66461 8.95228C5.66903 8.98019 5.67892 9.00695 5.69372 9.03102C5.70852 9.0551 5.72793 9.07601 5.75083 9.09256L6.59473 9.70563C6.61754 9.7223 6.64342 9.7343 6.67088 9.74094C6.69834 9.74757 6.72684 9.74871 6.75474 9.7443C6.78265 9.73989 6.8094 9.73 6.83348 9.71521C6.85755 9.70043 6.87846 9.68103 6.89501 9.65813C6.91167 9.63531 6.92366 9.60943 6.93028 9.58197C6.93691 9.55451 6.93805 9.526 6.93364 9.4981C6.92923 9.4702 6.91935 9.44344 6.90457 9.41936C6.88979 9.39529 6.8704 9.37436 6.84751 9.3578L6.00356 8.74467C5.96891 8.71939 5.92747 8.70507 5.8846 8.70355V8.70355ZM28.121 8.71137C28.0782 8.71289 28.0368 8.72717 28.0021 8.75238L27.1578 9.36495C27.1349 9.3815 27.1155 9.4024 27.1007 9.42647C27.0859 9.45053 27.076 9.47728 27.0715 9.50519C27.0671 9.53309 27.0682 9.5616 27.0748 9.58907C27.0814 9.61654 27.0934 9.64244 27.11 9.66528C27.1266 9.68819 27.1475 9.7076 27.1715 9.7224C27.1956 9.73721 27.2223 9.74711 27.2502 9.75155C27.2781 9.75599 27.3066 9.75487 27.3341 9.74826C27.3616 9.74165 27.3875 9.72968 27.4103 9.71304L28.2547 9.10042C28.2775 9.08388 28.2969 9.06298 28.3117 9.03892C28.3265 9.01486 28.3364 8.98811 28.3409 8.96021C28.3453 8.93232 28.3442 8.90382 28.3376 8.87636C28.331 8.8489 28.319 8.82302 28.3024 8.80019C28.2818 8.77163 28.2544 8.74859 28.2228 8.73309C28.1912 8.7176 28.1562 8.71014 28.121 8.71137V8.71137ZM5.06645 9.90443C5.03131 9.90682 4.99731 9.91786 4.96746 9.93655C4.93761 9.95524 4.91284 9.98102 4.89534 10.0116C4.88116 10.036 4.87194 10.063 4.86822 10.091C4.8645 10.119 4.86635 10.1475 4.87366 10.1748C4.88097 10.2021 4.89359 10.2276 4.91081 10.25C4.92803 10.2724 4.94951 10.2912 4.974 10.3053L7.12164 11.5452C7.14607 11.5594 7.17307 11.5686 7.20107 11.5723C7.22908 11.5761 7.25754 11.5742 7.28483 11.5669C7.31212 11.5596 7.33769 11.547 7.36009 11.5298C7.38249 11.5125 7.40126 11.4911 7.41533 11.4666C7.42952 11.4421 7.43873 11.4151 7.44245 11.3871C7.44617 11.3591 7.44433 11.3307 7.43702 11.3034C7.42971 11.2761 7.41708 11.2505 7.39986 11.2281C7.38264 11.2057 7.36117 11.187 7.33668 11.1729L5.18904 9.93293C5.15193 9.9114 5.10924 9.90148 5.06645 9.90443V9.90443ZM28.9335 9.90443C28.8907 9.90135 28.8479 9.91129 28.8109 9.93293L26.6633 11.1729C26.6388 11.187 26.6173 11.2057 26.6001 11.2281C26.5829 11.2505 26.5703 11.2761 26.563 11.3034C26.5556 11.3307 26.5538 11.3591 26.5575 11.3871C26.5612 11.4151 26.5705 11.4421 26.5846 11.4666C26.5987 11.4911 26.6175 11.5125 26.6399 11.5298C26.6623 11.547 26.6879 11.5596 26.7151 11.5669C26.7424 11.5742 26.7709 11.5761 26.7989 11.5723C26.8269 11.5686 26.8539 11.5594 26.8783 11.5452L29.026 10.3053C29.0505 10.2913 29.072 10.2725 29.0892 10.2501C29.1064 10.2277 29.1191 10.2021 29.1264 10.1748C29.1337 10.1475 29.1355 10.1191 29.1318 10.0911C29.1281 10.0631 29.1189 10.0361 29.1047 10.0116C29.0871 9.98109 29.0623 9.95534 29.0325 9.93665C29.0026 9.91796 28.9686 9.90691 28.9335 9.90448V9.90443ZM4.44775 11.1845C4.40547 11.1835 4.36387 11.1952 4.32819 11.2179C4.29251 11.2406 4.26435 11.2733 4.24727 11.312C4.23571 11.3378 4.22934 11.3656 4.22855 11.3938C4.22776 11.4221 4.23255 11.4502 4.24266 11.4766C4.25276 11.503 4.26798 11.5271 4.28743 11.5476C4.30688 11.5681 4.33019 11.5845 4.35602 11.5959L5.30876 12.0209C5.33453 12.0325 5.36234 12.0388 5.39058 12.0396C5.41882 12.0404 5.44694 12.0356 5.47332 12.0255C5.4997 12.0154 5.52383 12.0002 5.54432 11.9808C5.5648 11.9613 5.58124 11.938 5.5927 11.9122C5.60426 11.8864 5.61062 11.8586 5.61141 11.8303C5.6122 11.8021 5.6074 11.774 5.59729 11.7476C5.58719 11.7212 5.57196 11.6971 5.55251 11.6766C5.53305 11.6561 5.50973 11.6397 5.4839 11.6282L4.53121 11.2033C4.50493 11.1915 4.47655 11.1851 4.44775 11.1845V11.1845ZM29.5563 11.1934C29.5274 11.1939 29.499 11.2003 29.4727 11.2121L28.5198 11.6363C28.494 11.6478 28.4706 11.6642 28.4512 11.6847C28.4317 11.7051 28.4164 11.7292 28.4063 11.7556C28.3962 11.782 28.3913 11.8101 28.3921 11.8383C28.3929 11.8666 28.3992 11.8944 28.4107 11.9202C28.4222 11.946 28.4386 11.9694 28.4591 11.9888C28.4796 12.0083 28.5037 12.0235 28.5301 12.0337C28.5565 12.0438 28.5846 12.0486 28.6129 12.0478C28.6411 12.0471 28.6689 12.0407 28.6947 12.0292L29.6476 11.6049C29.6735 11.5935 29.6968 11.577 29.7162 11.5566C29.7357 11.5361 29.7509 11.512 29.7611 11.4856C29.7712 11.4592 29.776 11.4311 29.7752 11.4029C29.7745 11.3746 29.7681 11.3468 29.7566 11.3211C29.7395 11.2824 29.7114 11.2496 29.6757 11.2269C29.6401 11.2042 29.5985 11.1925 29.5563 11.1934ZM3.89643 12.5224C3.85431 12.5259 3.81418 12.5418 3.78108 12.5681C3.74799 12.5944 3.7234 12.6299 3.7104 12.6701C3.70159 12.6969 3.69817 12.7253 3.70033 12.7534C3.70249 12.7816 3.71019 12.809 3.72299 12.8342C3.73578 12.8594 3.75343 12.8818 3.77491 12.9002C3.79639 12.9185 3.82128 12.9324 3.84816 12.9411L6.20603 13.7094C6.23288 13.7182 6.2612 13.7217 6.28937 13.7195C6.31754 13.7173 6.34501 13.7096 6.3702 13.6968C6.39539 13.684 6.4178 13.6664 6.43614 13.6449C6.45449 13.6234 6.46841 13.5985 6.4771 13.5716C6.48591 13.5448 6.48933 13.5165 6.48717 13.4883C6.48501 13.4601 6.4773 13.4327 6.4645 13.4075C6.45169 13.3823 6.43404 13.3599 6.41255 13.3415C6.39107 13.3232 6.36617 13.3093 6.33929 13.3006L3.98142 12.5322C3.95404 12.5233 3.92513 12.5199 3.89643 12.5223V12.5224ZM30.1066 12.5316C30.0779 12.529 30.049 12.5324 30.0217 12.5415L27.6632 13.3081C27.6363 13.3168 27.6114 13.3307 27.5899 13.349C27.5684 13.3673 27.5508 13.3897 27.538 13.4149C27.5251 13.4401 27.5174 13.4676 27.5152 13.4957C27.5131 13.5239 27.5165 13.5522 27.5253 13.5791C27.534 13.6059 27.5479 13.6309 27.5662 13.6523C27.5845 13.6738 27.6069 13.6915 27.6321 13.7043C27.6573 13.7171 27.6847 13.7248 27.7129 13.727C27.7411 13.7292 27.7694 13.7258 27.7962 13.717L30.1546 12.9504C30.1815 12.9417 30.2064 12.9278 30.2279 12.9095C30.2494 12.8912 30.2671 12.8688 30.2799 12.8436C30.2927 12.8184 30.3005 12.791 30.3026 12.7628C30.3048 12.7346 30.3014 12.7063 30.2926 12.6794C30.2796 12.6392 30.2551 12.6037 30.2219 12.5774C30.1888 12.5511 30.1487 12.5351 30.1066 12.5315V12.5316ZM3.55293 13.9267C3.50339 13.9263 3.45524 13.943 3.41666 13.9741C3.37808 14.0052 3.35144 14.0487 3.34127 14.0971C3.33534 14.1248 3.33492 14.1533 3.34004 14.1811C3.34517 14.2089 3.35572 14.2354 3.37112 14.259C3.38651 14.2827 3.40643 14.3032 3.42973 14.3191C3.45303 14.3351 3.47926 14.3463 3.50691 14.3521L4.52728 14.569C4.5549 14.5749 4.58342 14.5753 4.61121 14.5702C4.63899 14.5651 4.66549 14.5545 4.68918 14.5391C4.71287 14.5238 4.73329 14.5038 4.74926 14.4805C4.76524 14.4572 4.77645 14.431 4.78226 14.4033C4.78819 14.3757 4.78861 14.3472 4.78349 14.3194C4.77837 14.2917 4.76781 14.2652 4.75243 14.2415C4.73704 14.2178 4.71713 14.1974 4.69383 14.1814C4.67053 14.1654 4.64431 14.1542 4.61666 14.1484L3.59635 13.9315C3.58207 13.9285 3.56752 13.9269 3.55293 13.9269V13.9267ZM30.4474 13.9287C30.4329 13.9291 30.4184 13.9306 30.4041 13.9333L29.3837 14.1501C29.356 14.1559 29.3298 14.1671 29.3065 14.1831C29.2832 14.1991 29.2633 14.2195 29.2479 14.2432C29.2325 14.2668 29.222 14.2933 29.2169 14.3211C29.2117 14.3489 29.2122 14.3774 29.2181 14.405C29.2239 14.4326 29.2351 14.4589 29.2511 14.4822C29.267 14.5055 29.2875 14.5254 29.3111 14.5408C29.3348 14.5562 29.3613 14.5668 29.3891 14.5719C29.4169 14.577 29.4454 14.5766 29.4731 14.5707L30.4934 14.354C30.521 14.3481 30.5472 14.3369 30.5705 14.321C30.5938 14.305 30.6138 14.2846 30.6292 14.2609C30.6446 14.2372 30.6551 14.2107 30.6603 14.1829C30.6654 14.1551 30.665 14.1266 30.6591 14.099C30.6489 14.0505 30.6222 14.0071 30.5836 13.976C30.5451 13.9449 30.4969 13.9282 30.4474 13.9285V13.9287ZM3.2929 15.3393C3.24362 15.3441 3.1975 15.3657 3.16238 15.4006C3.12725 15.4355 3.10527 15.4815 3.10018 15.5307C3.09714 15.5588 3.09968 15.5872 3.10765 15.6143C3.11562 15.6415 3.12887 15.6667 3.14663 15.6887C3.1644 15.7107 3.18633 15.7289 3.21117 15.7424C3.236 15.7559 3.26326 15.7643 3.29137 15.7672L5.75747 16.0279C5.78557 16.031 5.81399 16.0284 5.8411 16.0204C5.86822 16.0125 5.89349 15.9992 5.91546 15.9814C5.93744 15.9637 5.95568 15.9417 5.96915 15.9169C5.98263 15.892 5.99106 15.8648 5.99396 15.8367C5.997 15.8086 5.99445 15.7802 5.98647 15.753C5.97849 15.7259 5.96523 15.7007 5.94745 15.6787C5.92968 15.6567 5.90774 15.6385 5.88289 15.625C5.85805 15.6116 5.83079 15.6031 5.80268 15.6002L3.33652 15.3395C3.32202 15.338 3.30741 15.3379 3.2929 15.3393V15.3393ZM30.7092 15.3579C30.6947 15.3563 30.68 15.3564 30.6655 15.358L28.1991 15.6155C28.171 15.6183 28.1437 15.6267 28.1189 15.6402C28.094 15.6536 28.0721 15.6718 28.0543 15.6937C28.0365 15.7157 28.0232 15.7409 28.0152 15.768C28.0071 15.7951 28.0046 15.8235 28.0075 15.8516C28.0104 15.8797 28.0188 15.907 28.0322 15.9318C28.0457 15.9567 28.0639 15.9786 28.0858 15.9964C28.1078 16.0142 28.133 16.0275 28.1601 16.0355C28.1872 16.0435 28.2156 16.0461 28.2437 16.0431L30.7101 15.7857C30.7382 15.7828 30.7655 15.7744 30.7904 15.761C30.8152 15.7476 30.8372 15.7294 30.855 15.7074C30.8728 15.6855 30.886 15.6602 30.8941 15.6332C30.9021 15.6061 30.9047 15.5777 30.9017 15.5496C30.8967 15.5003 30.8748 15.4543 30.8397 15.4193C30.8046 15.3844 30.7585 15.3627 30.7092 15.3578V15.3579ZM3.25117 16.7853C3.22291 16.7853 3.19492 16.7908 3.1688 16.8016C3.14268 16.8123 3.11895 16.8282 3.09897 16.8482C3.07898 16.8681 3.06315 16.8919 3.05236 16.918C3.04158 16.9441 3.03607 16.9721 3.03613 17.0004C3.03608 17.0286 3.04161 17.0566 3.05239 17.0827C3.06318 17.1088 3.07902 17.1325 3.099 17.1525C3.11898 17.1725 3.14271 17.1883 3.16882 17.1991C3.19493 17.2099 3.22292 17.2154 3.25117 17.2153H4.29432C4.32257 17.2154 4.35055 17.2098 4.37667 17.1991C4.40278 17.1883 4.42651 17.1724 4.44649 17.1525C4.46647 17.1325 4.4823 17.1088 4.49309 17.0827C4.50388 17.0565 4.50941 17.0286 4.50935 17.0003C4.50941 16.9721 4.50389 16.9441 4.49311 16.918C4.48232 16.8918 4.46648 16.8681 4.4465 16.8481C4.42652 16.8281 4.40279 16.8123 4.37668 16.8015C4.35056 16.7907 4.32257 16.7852 4.29432 16.7853L3.25117 16.7853ZM29.7056 16.7853C29.6773 16.7853 29.6493 16.7908 29.6232 16.8016C29.5971 16.8123 29.5733 16.8282 29.5534 16.8482C29.5334 16.8681 29.5175 16.8919 29.5068 16.918C29.496 16.9441 29.4905 16.9721 29.4905 17.0004C29.4905 17.0286 29.496 17.0566 29.5068 17.0827C29.5176 17.1088 29.5334 17.1325 29.5534 17.1525C29.5734 17.1725 29.5971 17.1883 29.6232 17.1991C29.6493 17.2099 29.6773 17.2154 29.7056 17.2153H30.7487C30.777 17.2154 30.8049 17.2098 30.831 17.1991C30.8572 17.1883 30.8809 17.1724 30.9009 17.1525C30.9208 17.1325 30.9367 17.1088 30.9474 17.0827C30.9582 17.0565 30.9637 17.0286 30.9637 17.0003C30.9638 16.9721 30.9582 16.9441 30.9475 16.9179C30.9367 16.8918 30.9208 16.8681 30.9009 16.8481C30.8809 16.8281 30.8571 16.8123 30.831 16.8015C30.8049 16.7907 30.7769 16.7852 30.7487 16.7853L29.7056 16.7853ZM5.79976 17.9573C5.78526 17.9557 5.77063 17.9558 5.75614 17.9575L3.28963 18.2149C3.26152 18.2177 3.23426 18.2261 3.20941 18.2396C3.18456 18.253 3.1626 18.2712 3.1448 18.2932C3.12701 18.3151 3.11372 18.3403 3.1057 18.3674C3.09769 18.3945 3.0951 18.4229 3.09809 18.451C3.10096 18.4791 3.10935 18.5064 3.12278 18.5312C3.13621 18.5561 3.15442 18.578 3.17636 18.5958C3.1983 18.6136 3.22354 18.6269 3.25063 18.6349C3.27772 18.6429 3.30613 18.6455 3.33422 18.6425L5.80074 18.3851C5.82884 18.3822 5.8561 18.3739 5.88095 18.3604C5.90581 18.347 5.92776 18.3288 5.94556 18.3068C5.96336 18.2849 5.97665 18.2597 5.98466 18.2326C5.99268 18.2055 5.99527 18.1771 5.99227 18.149C5.98724 18.0997 5.96531 18.0537 5.93021 18.0188C5.89511 17.9838 5.849 17.9621 5.79971 17.9573H5.79976ZM28.1987 17.9725C28.1494 17.9773 28.1033 17.9989 28.0681 18.0338C28.033 18.0687 28.011 18.1147 28.006 18.164C28.0029 18.192 28.0055 18.2204 28.0134 18.2475C28.0214 18.2746 28.0347 18.2999 28.0524 18.3219C28.0702 18.3438 28.0921 18.3621 28.1169 18.3756C28.1418 18.389 28.169 18.3975 28.1971 18.4004L30.6633 18.6611C30.6913 18.6641 30.7198 18.6616 30.7469 18.6536C30.774 18.6456 30.7992 18.6324 30.8212 18.6146C30.8432 18.5968 30.8614 18.5749 30.8749 18.5501C30.8884 18.5252 30.8968 18.498 30.8997 18.4699C30.9027 18.4418 30.9002 18.4134 30.8922 18.3863C30.8842 18.3592 30.8709 18.3339 30.8532 18.3119C30.8354 18.29 30.8135 18.2717 30.7886 18.2583C30.7638 18.2448 30.7366 18.2364 30.7085 18.2335L28.2424 17.9727C28.2279 17.9712 28.2132 17.9711 28.1987 17.9725V17.9725ZM4.57034 19.425C4.55575 19.4251 4.54121 19.4266 4.52692 19.4296L3.50655 19.6464C3.47891 19.6522 3.45268 19.6634 3.42937 19.6794C3.40607 19.6953 3.38615 19.7157 3.37076 19.7394C3.35537 19.7631 3.34481 19.7896 3.33969 19.8174C3.33456 19.8452 3.33498 19.8737 3.34091 19.9013C3.34672 19.929 3.35793 19.9552 3.3739 19.9785C3.38988 20.0018 3.41029 20.0217 3.43399 20.0371C3.45768 20.0525 3.48418 20.0631 3.51196 20.0682C3.53974 20.0733 3.56827 20.0729 3.59589 20.067L4.61631 19.8503C4.64395 19.8445 4.67017 19.8333 4.69347 19.8173C4.71677 19.8013 4.73668 19.7809 4.75207 19.7572C4.76746 19.7335 4.77801 19.707 4.78313 19.6793C4.78825 19.6515 4.78783 19.623 4.7819 19.5953C4.77174 19.5469 4.74511 19.5034 4.70655 19.4723C4.66799 19.4412 4.61986 19.4245 4.57034 19.4248V19.425ZM29.4292 19.427C29.3797 19.4266 29.3316 19.4434 29.293 19.4744C29.2544 19.5055 29.2278 19.5489 29.2177 19.5974C29.2117 19.625 29.2113 19.6535 29.2164 19.6813C29.2215 19.7091 29.232 19.7356 29.2474 19.7593C29.2628 19.783 29.2827 19.8034 29.306 19.8194C29.3293 19.8354 29.3555 19.8466 29.3832 19.8524L30.4036 20.0692C30.4312 20.0752 30.4597 20.0756 30.4875 20.0705C30.5153 20.0654 30.5418 20.0549 30.5655 20.0395C30.5892 20.0241 30.6096 20.0042 30.6256 19.9809C30.6416 19.9576 30.6528 19.9314 30.6586 19.9037C30.6645 19.8761 30.665 19.8476 30.6598 19.8198C30.6547 19.792 30.6442 19.7655 30.6288 19.7418C30.6134 19.7181 30.5935 19.6976 30.5702 19.6816C30.5469 19.6657 30.5206 19.6544 30.493 19.6486L29.4726 19.4318C29.4584 19.4288 29.4438 19.4272 29.4292 19.4272V19.427ZM6.28857 20.2738C6.2599 20.2712 6.23099 20.2746 6.20368 20.2838L3.84525 21.0504C3.81837 21.0591 3.79346 21.073 3.77197 21.0913C3.75047 21.1096 3.73281 21.132 3.71999 21.1572C3.70717 21.1823 3.69945 21.2098 3.69727 21.238C3.69509 21.2661 3.6985 21.2944 3.70729 21.3213C3.71596 21.3482 3.72986 21.3731 3.74818 21.3946C3.76651 21.4161 3.7889 21.4337 3.81407 21.4466C3.83924 21.4594 3.8667 21.4671 3.89487 21.4693C3.92303 21.4715 3.95135 21.4681 3.9782 21.4593L6.33653 20.6926C6.36342 20.684 6.38833 20.6701 6.40983 20.6517C6.43133 20.6334 6.44901 20.611 6.46183 20.5858C6.47466 20.5607 6.48239 20.5332 6.48458 20.5051C6.48677 20.4769 6.48338 20.4486 6.4746 20.4217C6.46161 20.3815 6.43702 20.346 6.40393 20.3197C6.37083 20.2933 6.3307 20.2774 6.28857 20.2738V20.2738ZM27.7088 20.2815C27.6667 20.285 27.6266 20.3009 27.5935 20.3272C27.5604 20.3535 27.5358 20.389 27.5228 20.4292C27.514 20.456 27.5106 20.4843 27.5128 20.5125C27.5149 20.5407 27.5226 20.5681 27.5354 20.5933C27.5482 20.6185 27.5659 20.6409 27.5874 20.6592C27.6089 20.6776 27.6337 20.6915 27.6606 20.7002L30.0185 21.4685C30.0453 21.4773 30.0736 21.4807 30.1018 21.4786C30.13 21.4764 30.1574 21.4687 30.1826 21.4559C30.2078 21.4431 30.2302 21.4255 30.2486 21.404C30.2669 21.3825 30.2808 21.3576 30.2895 21.3307C30.2983 21.3038 30.3018 21.2755 30.2996 21.2474C30.2974 21.2192 30.2897 21.1917 30.2769 21.1665C30.2641 21.1414 30.2465 21.119 30.225 21.1006C30.2035 21.0823 30.1786 21.0684 30.1517 21.0597L27.7938 20.2914C27.7665 20.2824 27.7376 20.279 27.7088 20.2815V20.2815ZM5.38864 21.953C5.35985 21.9535 5.33147 21.9598 5.30518 21.9716L4.35214 22.3959C4.32631 22.4073 4.303 22.4238 4.28354 22.4442C4.26408 22.4647 4.24885 22.4888 4.23873 22.5152C4.22861 22.5416 4.2238 22.5697 4.22458 22.5979C4.22535 22.6261 4.23169 22.654 4.24324 22.6797C4.25467 22.7056 4.2711 22.7289 4.29157 22.7483C4.31204 22.7678 4.33615 22.783 4.36253 22.7932C4.3889 22.8033 4.41701 22.8081 4.44525 22.8073C4.47349 22.8066 4.50129 22.8002 4.52708 22.7887L5.48012 22.3644C5.50595 22.353 5.52926 22.3366 5.54872 22.3161C5.56818 22.2956 5.58341 22.2715 5.59353 22.2451C5.60365 22.2188 5.60846 22.1907 5.60768 22.1624C5.60691 22.1342 5.60057 22.1064 5.58902 22.0806C5.57191 22.0419 5.54376 22.0092 5.5081 21.9865C5.47245 21.9637 5.43087 21.9521 5.38859 21.9529L5.38864 21.953ZM28.6077 21.9611C28.5654 21.9602 28.5238 21.9718 28.4881 21.9945C28.4524 22.0172 28.4243 22.0499 28.4072 22.0886C28.3956 22.1144 28.3892 22.1422 28.3885 22.1704C28.3877 22.1987 28.3925 22.2268 28.4026 22.2532C28.4127 22.2796 28.4279 22.3037 28.4474 22.3242C28.4668 22.3447 28.4901 22.3611 28.516 22.3726L29.4686 22.7975C29.4943 22.8091 29.5221 22.8155 29.5504 22.8162C29.5786 22.817 29.6068 22.8122 29.6332 22.8021C29.6595 22.792 29.6837 22.7768 29.7042 22.7573C29.7247 22.7379 29.7411 22.7146 29.7525 22.6887C29.7641 22.6629 29.7705 22.6351 29.7712 22.6069C29.772 22.5787 29.7672 22.5506 29.7571 22.5242C29.747 22.4978 29.7318 22.4737 29.7123 22.4532C29.6929 22.4327 29.6696 22.4163 29.6438 22.4048L28.6912 21.9799C28.6649 21.9681 28.6365 21.9617 28.6077 21.9611V21.9611ZM7.24412 22.427C7.20132 22.4239 7.15859 22.4339 7.12154 22.4555L4.97395 23.6955C4.94945 23.7095 4.92798 23.7283 4.91076 23.7507C4.89354 23.7731 4.88091 23.7987 4.87361 23.826C4.8663 23.8532 4.86445 23.8817 4.86817 23.9097C4.87189 23.9377 4.88111 23.9647 4.89529 23.9891C4.90936 24.0136 4.92814 24.0351 4.95053 24.0523C4.97292 24.0695 4.99849 24.0822 5.02577 24.0895C5.05306 24.0968 5.08151 24.0986 5.10951 24.0949C5.13751 24.0912 5.1645 24.082 5.18893 24.0678L7.33652 22.828C7.36101 22.8139 7.38248 22.7951 7.3997 22.7727C7.41692 22.7503 7.42954 22.7247 7.43685 22.6974C7.44416 22.6701 7.44601 22.6417 7.44229 22.6137C7.43857 22.5856 7.42936 22.5587 7.41518 22.5342C7.39766 22.5037 7.37288 22.4779 7.34304 22.4592C7.31319 22.4405 7.27921 22.4294 7.24407 22.427H7.24412ZM26.7557 22.427C26.7206 22.4294 26.6866 22.4404 26.6567 22.4591C26.6268 22.4778 26.602 22.5036 26.5845 22.5342C26.5704 22.5586 26.5611 22.5856 26.5574 22.6136C26.5537 22.6416 26.5555 22.6701 26.5628 22.6974C26.5702 22.7247 26.5828 22.7503 26.6 22.7727C26.6172 22.7951 26.6387 22.8139 26.6632 22.828L28.8108 24.0678C28.8353 24.082 28.8623 24.0912 28.8903 24.0949C28.9183 24.0986 28.9468 24.0968 28.974 24.0895C29.0013 24.0822 29.0269 24.0695 29.0493 24.0523C29.0717 24.0351 29.0905 24.0136 29.1046 23.9891C29.1188 23.9647 29.128 23.9377 29.1317 23.9097C29.1354 23.8817 29.1336 23.8532 29.1263 23.826C29.119 23.7987 29.1063 23.7731 29.0891 23.7507C29.0719 23.7283 29.0504 23.7095 29.0259 23.6955L26.8782 22.4555C26.8412 22.434 26.7985 22.4241 26.7557 22.427V22.427ZM6.70848 24.2466C6.6656 24.2482 6.62415 24.2625 6.58947 24.2877L5.74516 24.9003C5.72226 24.9168 5.70285 24.9378 5.68804 24.9618C5.67324 24.9859 5.66334 25.0126 5.6589 25.0405C5.65446 25.0684 5.65558 25.0969 5.66219 25.1244C5.66879 25.1519 5.68076 25.1778 5.69741 25.2006C5.71395 25.2235 5.73485 25.2429 5.7589 25.2577C5.78296 25.2725 5.80971 25.2824 5.8376 25.2868C5.8655 25.2913 5.89399 25.2902 5.92146 25.2835C5.94892 25.2769 5.97481 25.265 5.99764 25.2483L6.84204 24.6357C6.86495 24.6192 6.88435 24.5983 6.89916 24.5742C6.91396 24.5502 6.92387 24.5234 6.92831 24.4955C6.93275 24.4676 6.93164 24.4392 6.92504 24.4117C6.91844 24.3842 6.90648 24.3583 6.88985 24.3355C6.86923 24.3069 6.84189 24.2839 6.81025 24.2684C6.77861 24.2529 6.74364 24.2454 6.70843 24.2466H6.70848ZM27.2862 24.2539C27.251 24.2526 27.216 24.26 27.1844 24.2755C27.1528 24.291 27.1254 24.314 27.1048 24.3425C27.0881 24.3654 27.0762 24.3913 27.0695 24.4187C27.0629 24.4462 27.0618 24.4747 27.0662 24.5026C27.0706 24.5305 27.0805 24.5573 27.0953 24.5813C27.1101 24.6054 27.1295 24.6263 27.1524 24.6429L27.9963 25.2561C28.0191 25.2727 28.045 25.2847 28.0725 25.2913C28.0999 25.298 28.1284 25.2991 28.1563 25.2947C28.1842 25.2902 28.211 25.2803 28.2351 25.2656C28.2591 25.2508 28.28 25.2314 28.2966 25.2085C28.3132 25.1856 28.3252 25.1598 28.3318 25.1323C28.3385 25.1049 28.3396 25.0764 28.3352 25.0485C28.3308 25.0206 28.3209 24.9938 28.3061 24.9698C28.2913 24.9457 28.272 24.9248 28.2491 24.9082L27.4052 24.295C27.3705 24.2697 27.3291 24.2554 27.2862 24.2538V24.2539ZM8.62065 24.3281C8.59244 24.3265 8.56419 24.3306 8.53756 24.3401C8.51092 24.3495 8.48642 24.3641 8.46548 24.3831L6.62124 26.041C6.60019 26.0598 6.58307 26.0826 6.57086 26.1081C6.55866 26.1336 6.5516 26.1612 6.5501 26.1894C6.5486 26.2176 6.55269 26.2458 6.56212 26.2725C6.57156 26.2991 6.58617 26.3236 6.6051 26.3446C6.62394 26.3656 6.64675 26.3827 6.67223 26.3949C6.6977 26.4071 6.72534 26.4142 6.75355 26.4157C6.78176 26.4172 6.80998 26.4131 6.83661 26.4037C6.86323 26.3942 6.88773 26.3796 6.9087 26.3607L8.75294 24.7028C8.77399 24.684 8.79111 24.6612 8.80332 24.6357C8.81553 24.6102 8.82258 24.5826 8.82408 24.5544C8.82558 24.5262 8.82149 24.498 8.81206 24.4713C8.80262 24.4447 8.78802 24.4202 8.76908 24.3992C8.75025 24.3782 8.72744 24.3611 8.70197 24.3488C8.6765 24.3366 8.64886 24.3296 8.62065 24.3281V24.3281ZM25.374 24.334C25.317 24.3371 25.2636 24.3626 25.2254 24.4051C25.2065 24.426 25.1918 24.4505 25.1824 24.4771C25.1729 24.5038 25.1688 24.532 25.1703 24.5602C25.1718 24.5884 25.1788 24.6161 25.191 24.6415C25.2032 24.667 25.2203 24.6899 25.2414 24.7087L27.0845 26.3679C27.1054 26.3868 27.1299 26.4014 27.1566 26.4109C27.1832 26.4203 27.2114 26.4244 27.2396 26.4229C27.2678 26.4215 27.2955 26.4144 27.321 26.4022C27.3464 26.39 27.3693 26.3729 27.3881 26.3519C27.4071 26.331 27.4217 26.3065 27.4312 26.2799C27.4406 26.2532 27.4447 26.225 27.4432 26.1968C27.4417 26.1686 27.4347 26.141 27.4225 26.1155C27.4103 26.09 27.3932 26.0672 27.3722 26.0483L25.529 24.3891C25.5081 24.3702 25.4836 24.3556 25.457 24.3461C25.4304 24.3366 25.4022 24.3325 25.374 24.334H25.374ZM10.3704 25.909C10.3352 25.9077 10.3002 25.9151 10.2685 25.9305C10.2369 25.9459 10.2095 25.969 10.1889 25.9975L8.73006 28.0028C8.71339 28.0256 8.70138 28.0515 8.69473 28.079C8.68808 28.1064 8.68692 28.1349 8.69132 28.1628C8.69571 28.1907 8.70558 28.2175 8.72034 28.2416C8.73511 28.2657 8.75448 28.2866 8.77736 28.3032C8.80016 28.3198 8.82603 28.3318 8.85349 28.3385C8.88095 28.3451 8.90944 28.3463 8.93735 28.3419C8.96526 28.3375 8.99202 28.3277 9.0161 28.3129C9.04019 28.2981 9.06112 28.2787 9.07769 28.2559L10.5366 26.2505C10.5532 26.2277 10.5652 26.2018 10.5719 26.1743C10.5785 26.1469 10.5797 26.1184 10.5753 26.0905C10.5709 26.0626 10.561 26.0358 10.5463 26.0117C10.5315 25.9877 10.5121 25.9667 10.4893 25.9501C10.4546 25.9248 10.4132 25.9105 10.3704 25.909V25.909ZM23.6176 25.918C23.5747 25.9195 23.5333 25.9338 23.4986 25.959C23.4757 25.9755 23.4563 25.9964 23.4415 26.0205C23.4267 26.0445 23.4168 26.0713 23.4124 26.0992C23.4079 26.1271 23.409 26.1556 23.4157 26.183C23.4223 26.2105 23.4342 26.2364 23.4509 26.2592L24.907 28.2665C24.9235 28.2895 24.9444 28.3089 24.9685 28.3237C24.9925 28.3385 25.0193 28.3484 25.0472 28.3528C25.0751 28.3573 25.1036 28.3562 25.131 28.3496C25.1585 28.343 25.1844 28.331 25.2072 28.3144C25.2301 28.2978 25.2496 28.2769 25.2644 28.2529C25.2792 28.2288 25.2891 28.202 25.2935 28.1741C25.298 28.1462 25.2969 28.1177 25.2903 28.0903C25.2837 28.0628 25.2717 28.0369 25.255 28.0141L23.7989 26.0067C23.7783 25.9782 23.751 25.9552 23.7193 25.9397C23.6877 25.9242 23.6528 25.9167 23.6176 25.918H23.6176ZM8.48714 26.2277C8.43015 26.2307 8.3767 26.2563 8.33855 26.2987L7.64058 27.074C7.62164 27.095 7.60701 27.1195 7.59755 27.1461C7.58809 27.1727 7.58398 27.201 7.58546 27.2292C7.58693 27.2574 7.59397 27.285 7.60615 27.3105C7.61834 27.336 7.63544 27.3588 7.65647 27.3777C7.67742 27.3966 7.70191 27.4113 7.72854 27.4207C7.75516 27.4302 7.78338 27.4343 7.81159 27.4328C7.8398 27.4313 7.86744 27.4243 7.89292 27.4121C7.9184 27.3999 7.94122 27.3828 7.96007 27.3617L8.65814 26.5866C8.67709 26.5656 8.69171 26.5411 8.70117 26.5145C8.71062 26.4879 8.71473 26.4596 8.71325 26.4314C8.71177 26.4032 8.70473 26.3755 8.69254 26.3501C8.68035 26.3246 8.66324 26.3017 8.64221 26.2829C8.62127 26.2639 8.59679 26.2493 8.57018 26.2398C8.54356 26.2304 8.51534 26.2263 8.48714 26.2278V26.2277ZM25.5115 26.2287C25.4833 26.2272 25.4551 26.2313 25.4285 26.2407C25.4019 26.2502 25.3774 26.2648 25.3565 26.2838C25.3355 26.3027 25.3183 26.3255 25.3062 26.351C25.294 26.3765 25.2869 26.4041 25.2854 26.4323C25.2839 26.4605 25.288 26.4887 25.2975 26.5154C25.3069 26.542 25.3216 26.5665 25.3405 26.5874L26.0384 27.3628C26.0572 27.3838 26.08 27.4009 26.1055 27.4131C26.131 27.4253 26.1586 27.4324 26.1869 27.4338C26.2151 27.4353 26.2433 27.4312 26.2699 27.4218C26.2965 27.4123 26.321 27.3977 26.342 27.3787C26.363 27.3599 26.3801 27.337 26.3923 27.3115C26.4045 27.286 26.4116 27.2584 26.413 27.2302C26.4145 27.202 26.4104 27.1737 26.4009 27.1471C26.3915 27.1205 26.3769 27.096 26.3579 27.075L25.66 26.2998C25.6412 26.2787 25.6184 26.2616 25.5929 26.2494C25.5674 26.2372 25.5397 26.2301 25.5115 26.2287L25.5115 26.2287ZM12.4076 27.0887C12.3653 27.0877 12.3237 27.0993 12.288 27.122C12.2524 27.1447 12.2242 27.1775 12.2071 27.2161L11.1967 29.4809C11.1852 29.5067 11.1788 29.5345 11.178 29.5627C11.1772 29.591 11.182 29.6191 11.1922 29.6454C11.2023 29.6718 11.2175 29.6959 11.2369 29.7164C11.2564 29.7369 11.2797 29.7533 11.3055 29.7648C11.3313 29.7764 11.3591 29.7827 11.3873 29.7835C11.4156 29.7843 11.4437 29.7795 11.4701 29.7694C11.4965 29.7593 11.5206 29.7441 11.5411 29.7246C11.5616 29.7052 11.578 29.6819 11.5895 29.656L12.5998 27.3913C12.6114 27.3656 12.6177 27.3378 12.6185 27.3095C12.6193 27.2813 12.6145 27.2531 12.6044 27.2268C12.5943 27.2004 12.5791 27.1763 12.5596 27.1558C12.5402 27.1353 12.5169 27.1189 12.491 27.1074C12.4647 27.0956 12.4364 27.0892 12.4076 27.0887V27.0887ZM21.5788 27.0949C21.55 27.0954 21.5216 27.1018 21.4953 27.1135C21.4694 27.1249 21.4461 27.1414 21.4266 27.1618C21.4071 27.1823 21.3919 27.2064 21.3817 27.2327C21.3716 27.2591 21.3668 27.2872 21.3675 27.3155C21.3683 27.3437 21.3746 27.3715 21.3861 27.3973L22.3934 29.6634C22.4048 29.6892 22.4212 29.7126 22.4417 29.732C22.4621 29.7515 22.4862 29.7668 22.5126 29.7769C22.539 29.787 22.5671 29.7919 22.5953 29.7911C22.6236 29.7904 22.6514 29.784 22.6772 29.7725C22.703 29.7611 22.7263 29.7447 22.7458 29.7242C22.7653 29.7038 22.7805 29.6797 22.7907 29.6533C22.8008 29.6269 22.8056 29.5988 22.8049 29.5706C22.8041 29.5424 22.7978 29.5146 22.7863 29.4888L21.779 27.2227C21.762 27.184 21.7338 27.1513 21.6982 27.1285C21.6626 27.1058 21.621 27.0941 21.5788 27.0949V27.0949ZM10.6321 27.7889C10.597 27.7913 10.563 27.8023 10.5331 27.821C10.5033 27.8397 10.4785 27.8655 10.461 27.896L9.93946 28.7994C9.92528 28.8239 9.91607 28.8509 9.91235 28.8789C9.90863 28.9069 9.91047 28.9353 9.91778 28.9626C9.92509 28.9899 9.93772 29.0155 9.95494 29.0379C9.97216 29.0603 9.99363 29.0791 10.0181 29.0931C10.0426 29.1073 10.0696 29.1165 10.0976 29.1202C10.1256 29.124 10.154 29.1221 10.1813 29.1148C10.2086 29.1075 10.2342 29.0949 10.2566 29.0777C10.279 29.0604 10.2977 29.039 10.3118 29.0145L10.8334 28.111C10.8476 28.0866 10.8568 28.0596 10.8605 28.0316C10.8642 28.0036 10.8624 27.9751 10.8551 27.9478C10.8478 27.9205 10.8351 27.895 10.8179 27.8726C10.8007 27.8502 10.7792 27.8314 10.7547 27.8173C10.7176 27.7958 10.6749 27.7859 10.6321 27.7889V27.7889ZM23.3678 27.7889C23.325 27.7858 23.2823 27.7958 23.2453 27.8174C23.2208 27.8314 23.1993 27.8502 23.1821 27.8726C23.1649 27.895 23.1523 27.9206 23.145 27.9479C23.1377 27.9752 23.1358 28.0036 23.1395 28.0316C23.1433 28.0596 23.1525 28.0866 23.1667 28.1111L23.6882 29.0145C23.7023 29.039 23.7211 29.0604 23.7435 29.0777C23.7658 29.0949 23.7914 29.1075 23.8187 29.1148C23.846 29.1221 23.8745 29.124 23.9025 29.1202C23.9305 29.1165 23.9575 29.1073 23.9819 29.0931C24.0064 29.0791 24.0279 29.0603 24.0451 29.0379C24.0623 29.0155 24.0749 28.9899 24.0822 28.9626C24.0896 28.9353 24.0914 28.9069 24.0877 28.8789C24.084 28.8509 24.0747 28.8239 24.0606 28.7994L23.539 27.8961C23.5215 27.8655 23.4967 27.8398 23.4668 27.8211C23.437 27.8024 23.4029 27.7913 23.3678 27.7889V27.7889ZM14.6568 27.8213C14.6073 27.8208 14.5592 27.8376 14.5206 27.8686C14.4821 27.8997 14.4554 27.9431 14.4453 27.9916L13.9299 30.4174C13.924 30.445 13.9236 30.4735 13.9287 30.5013C13.9338 30.5291 13.9444 30.5556 13.9598 30.5793C13.9752 30.603 13.9951 30.6234 14.0184 30.6394C14.0417 30.6554 14.0679 30.6666 14.0956 30.6724C14.1232 30.6783 14.1517 30.6787 14.1795 30.6736C14.2073 30.6685 14.2338 30.6579 14.2575 30.6426C14.2812 30.6272 14.3016 30.6072 14.3176 30.5839C14.3336 30.5606 14.3448 30.5344 14.3506 30.5067L14.866 28.081C14.8727 28.0498 14.8723 28.0174 14.8649 27.9863C14.8575 27.9553 14.8433 27.9262 14.8233 27.9014C14.8032 27.8765 14.7779 27.8564 14.7491 27.8426C14.7203 27.8287 14.6888 27.8215 14.6568 27.8214V27.8213ZM19.3355 27.8228C19.3036 27.8229 19.2721 27.8301 19.2433 27.8439C19.2145 27.8577 19.1892 27.8778 19.1692 27.9026C19.1491 27.9275 19.1349 27.9565 19.1275 27.9876C19.1201 28.0186 19.1197 28.0509 19.1264 28.0822L19.6399 30.5083C19.6457 30.536 19.6569 30.5622 19.6729 30.5855C19.6888 30.6089 19.7092 30.6288 19.7329 30.6442C19.7566 30.6596 19.7831 30.6702 19.8109 30.6753C19.8387 30.6805 19.8672 30.6801 19.8948 30.6742C19.9225 30.6684 19.9487 30.6572 19.972 30.6412C19.9953 30.6253 20.0153 30.6049 20.0307 30.5812C20.0461 30.5575 20.0567 30.531 20.0618 30.5032C20.067 30.4754 20.0666 30.4469 20.0607 30.4193L19.547 27.9933C19.5368 27.9448 19.5102 27.9013 19.4717 27.8702C19.4332 27.8391 19.385 27.8223 19.3355 27.8227V27.8228ZM17 28.0674C16.9717 28.0674 16.9437 28.0729 16.9176 28.0837C16.8915 28.0945 16.8678 28.1103 16.8478 28.1303C16.8278 28.1503 16.812 28.174 16.8012 28.2001C16.7904 28.2262 16.7849 28.2542 16.785 28.2825V30.7623C16.7849 30.7906 16.7904 30.8186 16.8012 30.8447C16.812 30.8708 16.8278 30.8945 16.8478 30.9145C16.8678 30.9345 16.8915 30.9503 16.9176 30.9611C16.9438 30.9719 16.9718 30.9774 17 30.9774C17.0283 30.9774 17.0562 30.9719 17.0823 30.9611C17.1085 30.9503 17.1322 30.9345 17.1521 30.9145C17.1721 30.8945 17.1879 30.8708 17.1987 30.8447C17.2095 30.8186 17.215 30.7906 17.2149 30.7623V28.2825C17.215 28.2543 17.2095 28.2263 17.1987 28.2002C17.1879 28.1741 17.1721 28.1503 17.1521 28.1303C17.1322 28.1104 17.1084 28.0945 17.0823 28.0837C17.0562 28.073 17.0282 28.0674 17 28.0675V28.0674ZM13.0535 28.8688C13.0114 28.8724 12.9712 28.8884 12.9381 28.9147C12.905 28.941 12.8804 28.9765 12.8674 29.0167L12.545 30.0088C12.5362 30.0356 12.5328 30.064 12.5349 30.0921C12.5371 30.1203 12.5448 30.1478 12.5577 30.1729C12.5705 30.1981 12.5882 30.2205 12.6097 30.2388C12.6312 30.2572 12.6561 30.2711 12.683 30.2798C12.7098 30.2885 12.7381 30.2919 12.7663 30.2897C12.7945 30.2875 12.8219 30.2798 12.8471 30.267C12.8723 30.2542 12.8947 30.2365 12.913 30.215C12.9313 30.1935 12.9452 30.1686 12.9539 30.1417L13.2763 29.1497C13.2851 29.1228 13.2885 29.0945 13.2863 29.0663C13.2842 29.0382 13.2764 29.0107 13.2636 28.9856C13.2508 28.9604 13.2331 28.938 13.2117 28.9197C13.1902 28.9013 13.1653 28.8874 13.1384 28.8788C13.111 28.8698 13.0822 28.8664 13.0535 28.8688V28.8688ZM20.9448 28.8694C20.9161 28.8667 20.8872 28.8701 20.8599 28.8792C20.833 28.8878 20.8081 28.9017 20.7866 28.9201C20.7651 28.9384 20.7474 28.9608 20.7346 28.986C20.7218 29.0111 20.714 29.0386 20.7118 29.0668C20.7097 29.0949 20.7131 29.1233 20.7218 29.1501L21.0441 30.1422C21.0528 30.1691 21.0667 30.194 21.0851 30.2155C21.1034 30.237 21.1258 30.2547 21.151 30.2675C21.1761 30.2803 21.2036 30.2881 21.2318 30.2902C21.2599 30.2924 21.2883 30.289 21.3151 30.2802C21.342 30.2715 21.3669 30.2577 21.3884 30.2393C21.4099 30.221 21.4276 30.1986 21.4404 30.1735C21.4533 30.1483 21.461 30.1208 21.4632 30.0927C21.4654 30.0645 21.462 30.0362 21.4532 30.0093L21.1308 29.0172C21.1178 28.977 21.0932 28.9415 21.0601 28.9152C21.0271 28.8889 20.987 28.873 20.9449 28.8694H20.9448ZM15.6505 29.4219C15.6012 29.4266 15.555 29.4483 15.5199 29.4832C15.4848 29.5181 15.4628 29.5641 15.4577 29.6134L15.3487 30.6509C15.3457 30.679 15.3482 30.7074 15.3562 30.7345C15.3642 30.7616 15.3775 30.7868 15.3953 30.8087C15.4131 30.8307 15.435 30.8489 15.4598 30.8624C15.4847 30.8758 15.5119 30.8842 15.54 30.8871C15.5681 30.8901 15.5965 30.8876 15.6236 30.8796C15.6507 30.8716 15.676 30.8583 15.6979 30.8405C15.7199 30.8228 15.7381 30.8008 15.7516 30.776C15.765 30.7511 15.7735 30.7239 15.7764 30.6958L15.8854 29.6584C15.8884 29.6303 15.8859 29.6019 15.8779 29.5748C15.8699 29.5477 15.8566 29.5224 15.8388 29.5005C15.8211 29.4785 15.7991 29.4603 15.7743 29.4468C15.7494 29.4334 15.7222 29.425 15.6941 29.4221C15.6796 29.4206 15.665 29.4205 15.6505 29.4219V29.4219ZM18.3409 29.4229C18.3264 29.4213 18.3117 29.4214 18.2972 29.4231C18.2691 29.426 18.2418 29.4343 18.2169 29.4478C18.1921 29.4612 18.1701 29.4794 18.1523 29.5014C18.1345 29.5233 18.1213 29.5485 18.1132 29.5756C18.1052 29.6027 18.1026 29.6311 18.1056 29.6592L18.214 30.6968C18.2169 30.7249 18.2253 30.7522 18.2387 30.777C18.2521 30.8018 18.2704 30.8238 18.2923 30.8416C18.3142 30.8594 18.3395 30.8727 18.3666 30.8807C18.3937 30.8887 18.4221 30.8912 18.4501 30.8882C18.4783 30.8854 18.5055 30.877 18.5304 30.8635C18.5552 30.8501 18.5772 30.8319 18.595 30.8099C18.6128 30.788 18.6261 30.7627 18.6341 30.7357C18.6421 30.7086 18.6447 30.6801 18.6417 30.6521L18.5334 29.6146C18.5284 29.5653 18.5064 29.5193 18.4713 29.4844C18.4362 29.4494 18.3901 29.4277 18.3408 29.4229H18.3409Z" fill="#F4F2F3"/>
<g opacity="0.409" filter="url(#filter0_f_9085_19217)">
<path d="M27.0763 8.40027L15.3137 15.2344L7.87646 26.9427L18.7565 18.884L27.0763 8.40027Z" fill="black"/>
</g>
<path d="M18.6856 18.7654L15.314 15.2346L27.2742 7.18896L18.6856 18.7654Z" fill="#FF5150"/>
<path d="M18.6858 18.7653L15.3142 15.2345L6.72559 26.811L18.6858 18.7653Z" fill="#F1F1F1"/>
<path opacity="0.243" d="M6.72559 26.8111L18.6858 18.7654L27.2745 7.18896L6.72559 26.8111Z" fill="black"/>
<defs>
<filter id="filter0_f_9085_19217" x="2.41745" y="2.94126" width="30.1177" height="29.4604" filterUnits="userSpaceOnUse" color-interpolation-filters="sRGB">
<feFlood flood-opacity="0" result="BackgroundImageFix"/>
<feBlend mode="normal" in="SourceGraphic" in2="BackgroundImageFix" result="shape"/>
<feGaussianBlur stdDeviation="2.72951" result="effect1_foregroundBlur_9085_19217"/>
</filter>
<linearGradient id="paint0_linear_9085_19217" x1="16.9994" y1="32.9997" x2="16.9994" y2="0.999916" gradientUnits="userSpaceOnUse">
<stop stop-color="#BDBDBD"/>
<stop offset="1" stop-color="white"/>
</linearGradient>
<radialGradient id="paint1_radial_9085_19217" cx="0" cy="0" r="1" gradientUnits="userSpaceOnUse" gradientTransform="translate(17.0666 14.8498) scale(16 16)">
<stop stop-color="#06C2E7"/>
<stop offset="0.25" stop-color="#0DB8EC"/>
<stop offset="0.5" stop-color="#12AEF1"/>
<stop offset="0.75" stop-color="#1F86F9"/>
<stop offset="1" stop-color="#107DDD"/>
</radialGradient>
</defs>
</svg>
