<svg width="32" height="32" viewBox="0 0 32 32" fill="none" xmlns="http://www.w3.org/2000/svg">
<g clip-path="url(#clip0_10000_23915)">
<path d="M31.7081 11.2292C31.3122 8.25635 30.2606 5.56264 28.4107 3.58942C26.4375 1.73952 23.7438 0.688 20.771 0.292057C17.9345 -0.0844133 16.0002 0.00645892 16.0002 0.00645892C16.0002 0.00645892 14.0659 -0.0844133 11.2294 0.292057C8.2566 0.688 5.56289 1.73952 3.59615 3.58942C1.73977 5.56264 0.688244 8.25635 0.292301 11.2292C-0.0841691 14.0657 0.00670306 16 0.00670306 16C0.00670306 16 -0.0841691 17.9342 0.292301 20.7708C0.688244 23.7436 1.73977 26.4373 3.58966 28.4105C5.56289 30.2669 8.2566 31.3184 11.2229 31.7144C14.0594 32.0908 15.9937 32 15.9937 32C15.9937 32 17.928 32.0908 20.7645 31.7144C23.7373 31.3184 26.431 30.2669 28.3978 28.4105C30.2542 26.4373 31.3057 23.7436 31.6951 20.7708C32.0716 17.9342 31.9807 16 31.9807 16C31.9807 16 32.0846 14.0657 31.7081 11.2292Z" fill="#7882FF"/>
<path d="M24.1915 13.6308C25.4572 18.1745 22.796 22.8868 18.2523 24.1525C13.7087 25.4183 8.99636 22.757 7.73064 18.2134C6.46492 13.6698 9.12618 8.95742 13.6698 7.6917C18.2134 6.42598 22.9258 9.08724 24.1915 13.6308Z" fill="white"/>
<path d="M24.1918 13.6307C24.6656 15.3378 24.5877 17.0644 24.0684 18.6222C24.0295 18.7455 23.9841 18.8754 23.9321 18.9987" fill="white"/>
<path d="M24.0552 13.6307C24.3862 14.8251 24.4511 16.0324 24.2759 17.1812Z" fill="white"/>
<path d="M21.6735 21.9196C19.512 21.9196 16.8832 21.3679 14.2609 20.3748C11.6386 19.3817 9.30834 18.0446 7.69212 16.6101C5.0698 14.2799 5.23208 12.4754 5.56311 11.6056C5.89415 10.7358 6.97163 9.27539 10.4767 9.27539C12.6382 9.27539 15.267 9.82711 17.8893 10.8202C20.5116 11.8133 22.8418 13.1504 24.458 14.5849C27.0803 16.9151 26.9181 18.7196 26.587 19.5894C26.2625 20.4592 25.185 21.9196 21.6735 21.9196ZM10.4832 11.9821C8.86047 11.9821 8.16595 12.3845 8.09455 12.5663C8.02315 12.748 8.28279 13.5139 9.49658 14.5914C10.8532 15.7922 12.9432 16.9865 15.228 17.8498C17.5128 18.7196 19.869 19.2194 21.6799 19.2194C23.3027 19.2194 23.9972 18.817 24.0686 18.6352C24.14 18.4535 23.8803 17.6876 22.673 16.6101C21.3165 15.4093 19.2264 14.2149 16.9416 13.3517C14.6438 12.4819 12.2941 11.9821 10.4832 11.9821Z" fill="#4D5CC1"/>
<path d="M8.09424 12.5923L24.0553 18.6548C24.5875 17.084 24.6719 15.3444 24.1916 13.6308C22.9259 9.08724 18.22 6.42598 13.6699 7.6917C11.0606 8.41868 9.07436 10.2816 8.09424 12.5923Z" fill="white"/>
</g>
<defs>
<clipPath id="clip0_10000_23915">
<rect width="32" height="32" fill="white"/>
</clipPath>
</defs>
</svg>
