<svg width="32" height="32" viewBox="0 0 32 32" fill="none" xmlns="http://www.w3.org/2000/svg">
<path d="M17.8253 2.38879L16.9738 5.77074C18.18 3.38213 20.0956 1.58473 22.2953 0C20.687 1.8684 19.2208 3.73697 18.322 5.60536C19.8357 3.47668 21.8697 2.29424 24.1637 1.51373C21.1127 4.23363 18.691 7.15234 16.8462 10.0849L15.3799 9.44641C15.6396 7.10507 16.5244 4.70675 17.8253 2.38879V2.38879Z" fill="#ABCD03"/>
<path d="M13.9097 8.82471L16.7006 9.98256C16.7006 10.6922 16.643 12.8568 17.0868 13.4953C21.7283 19.4731 20.9474 31.4559 16.1465 31.7633C8.8355 31.7633 6.04736 26.7967 6.04736 22.232C6.04736 18.0694 11.0376 15.3022 14.0178 12.8426C14.7746 12.1803 14.6431 10.7168 13.9097 8.82471V8.82471Z" fill="#FFFCDB"/>
<path d="M16.7017 9.9408L17.7075 10.4539C17.6129 11.116 17.7547 12.5826 18.4168 12.9608C21.3497 14.7819 24.1167 16.7686 25.2048 18.7553C29.0836 25.7561 22.4849 32.2363 16.785 31.6214C19.8832 29.3272 20.782 24.6208 19.6231 19.4883C19.1502 17.4779 18.4168 15.6568 17.1159 13.5991C16.5524 12.5892 16.7491 11.3364 16.7017 9.9408V9.9408Z" fill="#7D4698"/>
<path d="M16.2172 9.768L18.2985 10.0518C17.6835 12.0858 19.5048 13.5048 20.096 13.8361C21.4205 14.5693 22.6977 15.3261 23.7147 16.2484C24.6621 17.112 25.4187 18.164 25.9359 19.337C26.4532 20.5099 26.7197 21.778 26.7185 23.06C26.7185 25.6379 25.5358 28.1212 23.5492 29.7768C21.6808 31.3378 19.1029 32 16.5958 32C15.0348 32 13.6393 31.9292 12.1258 31.4323C8.67282 30.2734 6.09475 27.3171 5.88191 23.7693C5.69263 21.0021 6.30758 18.8971 8.45998 16.6976C9.57143 15.5387 11.8184 14.2143 13.3558 13.15C14.1128 12.6296 14.9169 11.1631 13.3794 8.3961L13.687 8.15955L15.9654 9.68557L14.0418 8.89277C14.2073 9.12933 14.6567 10.1937 14.7515 10.5011C14.9643 11.3761 14.8697 12.2278 14.6805 12.606C13.7109 14.3563 12.0553 14.8292 10.8491 15.8226C8.72044 17.5727 6.40265 18.9682 6.66276 23.7693C6.78104 26.1343 8.62589 29.0198 11.3929 30.368C12.9539 31.1249 14.7515 31.4323 16.5726 31.5269C18.2044 31.5979 21.3264 30.6281 23.0293 29.2091C24.8504 27.6955 25.8675 25.4013 25.8675 23.06C25.8675 20.6947 24.9214 18.4479 23.1476 16.8632C22.1305 15.9409 20.4514 14.8292 19.4108 14.2379C18.3702 13.6466 17.0693 11.9911 17.4949 10.4065L16.2172 9.768Z" fill="black"/>
<path d="M15.5787 13.2684C15.3659 14.3565 15.1294 16.3194 14.1833 17.0527C13.7812 17.3363 13.3791 17.6203 12.9534 17.904C11.2506 19.0631 9.54754 20.1508 8.76721 22.9417C8.60166 23.5331 8.74366 24.1716 8.88566 24.7628C9.31133 26.4657 10.5175 28.3105 11.4636 29.3986C11.4636 29.4458 11.6528 29.5641 11.6528 29.6114C12.4333 30.5339 12.6699 30.794 15.6262 31.4561L15.5552 31.7874C13.7814 31.3144 12.3151 30.8887 11.3926 29.8242C11.3926 29.8007 11.227 29.635 11.227 29.635C10.2337 28.4996 9.02732 26.6077 8.5781 24.8338C8.41255 24.1241 8.27072 23.5804 8.45982 22.847C9.26388 19.9617 11.0142 18.8263 12.788 17.6202C13.1901 17.3601 13.6631 17.1233 14.0415 16.8159C14.7745 16.2722 15.1765 14.6164 15.5787 13.2684Z" fill="black"/>
<path d="M16.3348 17.762C16.3585 18.9919 16.2385 19.6087 16.5459 20.4839C16.735 21.0042 17.374 21.7138 17.5633 22.3998C17.8234 23.3223 18.1067 24.3392 18.0828 24.9541C18.0828 25.6638 18.0385 26.9876 17.7311 28.4067C17.4966 29.5795 16.9565 30.5856 16.048 31.1559C15.1175 30.9644 14.0249 30.6373 13.38 30.0845C12.1266 28.9966 11.0164 27.1774 10.8744 25.5926C10.7562 24.2921 11.9607 22.3736 13.6398 21.404C15.0588 20.5762 15.3889 19.6328 15.6963 18.1191C15.2706 19.4435 14.8707 20.5539 13.499 21.2632C11.5123 22.304 10.493 24.0508 10.5876 25.7064C10.7294 27.8347 11.5818 29.2773 13.2609 30.4362C13.9704 30.9329 15.2959 31.4578 16.1237 31.5998V31.4915C16.7514 31.3739 17.5643 30.3429 17.9692 28.9479C18.324 27.6945 18.4638 26.0902 18.4399 25.0731C18.4162 24.4819 18.1554 23.2014 17.6822 22.0425C17.4221 21.404 17.0226 20.7657 16.7623 20.3163C16.4788 19.8666 16.4768 18.8971 16.3348 17.762V17.762Z" fill="black"/>
<path d="M16.1943 22.3998C16.2179 23.2276 16.5504 24.2881 16.6922 25.3762C16.8107 26.1804 16.7592 26.9883 16.7355 27.6979C16.7121 28.5193 16.4385 29.9911 16.0644 30.7069C15.7117 30.5451 15.5738 30.3605 15.3445 30.0628C15.0609 29.6607 14.8683 29.2586 14.679 28.7856C14.537 28.4308 14.3713 28.0247 14.3001 27.5518C14.2056 26.8423 14.2321 25.7322 15.0361 24.5969C15.6511 23.6981 15.792 23.6298 16.0049 22.5892C15.7209 23.5116 15.5091 23.6056 14.8467 24.3859C14.1136 25.2374 13.9917 26.4916 13.9917 27.5085C13.9917 27.9343 14.1614 28.4067 14.3271 28.856C14.5162 29.3291 14.6787 29.8001 14.9388 30.1548C15.3298 30.7299 15.8303 31.057 16.0752 31.1182C16.0769 31.1185 16.079 31.1178 16.0805 31.1182C16.0857 31.1194 16.0918 31.1225 16.0968 31.1233V31.0965C16.5557 30.5848 16.832 30.0765 16.9248 29.5649C17.0431 28.95 17.0702 28.3337 17.1413 27.6004C17.2123 26.9857 17.1608 26.1572 16.9953 25.3058C16.7589 24.2415 16.3597 23.1564 16.1943 22.3998V22.3998Z" fill="black"/>
<path d="M16.2644 12.275C16.2881 13.5047 16.3826 15.7992 16.7138 16.6978C16.8083 17.0052 17.6834 18.3533 18.2981 19.9852C18.724 21.1205 18.8185 22.1611 18.8895 22.4685C19.1734 23.8167 18.8185 26.0872 18.3454 28.2394C18.109 29.3983 17.3048 30.8411 16.3825 31.4087L16.1934 31.7398C16.7138 31.7161 17.9908 30.4627 18.4401 28.9017C19.1971 26.2528 19.5045 25.0229 19.1498 22.0901C19.1025 21.8061 18.9843 20.8367 18.5349 19.7959C17.8726 18.2112 16.9266 16.6976 16.8085 16.39C16.5955 15.8935 16.3116 13.7413 16.2644 12.275V12.275Z" fill="black"/>
<path d="M16.7082 10.5931C16.6379 11.8568 16.6192 12.3223 16.8556 13.2446C17.1157 14.2617 18.4403 15.728 18.9843 17.4073C20.0249 20.6238 19.7648 24.8337 19.0078 28.1211C18.7242 29.2799 17.3758 30.9593 16.0278 31.5031L17.0212 31.7397C17.5651 31.7159 18.9604 30.4152 19.5045 28.9252C20.3794 26.5837 20.5451 23.793 20.1903 20.8602C20.1666 20.5764 19.6934 18.0458 19.2442 16.9814C18.6056 15.3969 17.4702 13.9777 17.3521 13.6705C17.1394 13.1501 16.672 12.0696 16.7082 10.5931V10.5931Z" fill="black"/>
<path d="M15.9565 9.70349H16.0518V31.5271H15.9565V9.70349Z" fill="black"/>
</svg>
