<svg width="15" height="15" viewBox="0 0 15 15" fill="none" xmlns="http://www.w3.org/2000/svg">
<path d="M0 7.5C0 3.35786 3.35786 0 7.5 0C11.6421 0 15 3.35786 15 7.5C15 11.6421 11.6421 15 7.5 15C3.35786 15 0 11.6421 0 7.5Z" fill="#404BF2"/>
<path d="M7.75001 4C6.78505 4 6 4.78508 6 5.75004C6 5.94726 6.15988 6.10717 6.35713 6.10717C6.55438 6.10717 6.71426 5.94726 6.71426 5.75004C6.71426 5.17892 7.17889 4.71426 7.75001 4.71426C8.32113 4.71426 8.78577 5.17892 8.78577 5.75004C8.78577 6.07852 8.54824 6.29811 8.15694 6.62069C7.79878 6.91594 7.39289 7.25061 7.39289 7.78265V8.92843C7.39289 9.12562 7.55279 9.28556 7.75001 9.28556C7.94724 9.28556 8.10714 9.12562 8.10714 8.92843V7.78265C8.10714 7.58745 8.34082 7.39483 8.61129 7.17179C9.00725 6.84534 9.5 6.43907 9.5 5.75004C9.50003 4.78505 8.71495 4 7.75001 4Z" fill="white"/>
<path d="M7.75033 9.80308C7.49771 9.80308 7.29224 10.0086 7.29224 10.2612C7.29224 10.5138 7.49771 10.7193 7.75033 10.7193C8.00292 10.7193 8.20843 10.5138 8.20843 10.2612C8.20843 10.0086 8.00292 9.80308 7.75033 9.80308Z" fill="white"/>
</svg>
