<svg width="32" height="32" viewBox="0 0 32 32" fill="none" xmlns="http://www.w3.org/2000/svg">
<path d="M16 32C23.0088 32 26.9033 32 29.4552 29.4527C32 26.9054 32 23.0104 32 15.9965C32 8.98258 32 5.08754 29.4552 2.54024C26.9033 0 23.0088 0 16 0C8.99121 0 5.09666 0 2.54481 2.5473C0 5.0946 0 8.98964 0 16.0035C0 23.0174 0 26.9125 2.54481 29.4598C5.09666 32 8.99121 32 16 32V32Z" fill="#EF3939"/>
<path d="M26.4039 10.0834C24.8714 7.39495 22.3055 5.29925 19.0788 4.43134C12.6746 2.71667 6.09466 6.51293 4.37937 12.9129C3.5147 16.1306 4.04897 19.3976 5.6096 22.0649C5.63069 22.1001 5.65178 22.1425 5.67989 22.1778L11.3178 31.9506C12.2528 31.9789 13.2651 31.9859 14.3547 31.9859H15.9435C19.0577 31.9859 21.5604 31.9859 23.6061 31.7601C26.1579 31.4779 27.9857 30.8499 29.3987 29.4386C31.4584 27.3782 31.8521 24.4287 31.9294 19.6516C28.6394 13.9502 26.411 10.0904 26.4039 10.0834V10.0834Z" fill="url(#paint0_linear_9085_19213)"/>
<path d="M24.4218 7.5361C19.7469 2.85076 12.1617 2.85076 7.47979 7.5361C2.80491 12.2214 2.80491 19.8139 7.47979 24.4922C12.1547 29.1775 19.7399 29.1775 24.4218 24.4922C29.1037 19.8069 29.1037 12.2144 24.4218 7.5361V7.5361ZM23.7048 13.047C21.7294 16.4834 19.754 19.9198 17.7786 23.3632C17.413 24.0053 16.8787 24.3864 16.1476 24.4428C15.3322 24.4993 14.6854 24.1535 14.2707 23.4479C13.0193 21.2957 11.7821 19.1295 10.5448 16.9703C9.79262 15.6578 9.03339 14.3454 8.28119 13.0258C7.52197 11.6993 8.37961 10.0834 9.89807 10.0058C10.6995 9.96344 11.3181 10.3374 11.7258 11.036C12.2812 11.9886 12.8295 12.9553 13.3849 13.9149C13.7856 14.6064 14.1722 15.305 14.58 15.9824C15.1705 16.9773 16.0422 17.5348 17.2021 17.6053C18.8401 17.7041 20.3656 16.5116 20.5624 14.7687C20.5765 14.6417 20.5835 14.5076 20.5905 14.4441C20.5835 13.8796 20.478 13.3998 20.2531 12.9553C19.6415 11.7275 20.2953 10.3515 21.6239 10.0552C22.7065 9.81526 23.8313 10.6126 23.9719 11.7134C24.0422 12.1861 23.9438 12.6307 23.7048 13.047V13.047Z" fill="white"/>
<defs>
<linearGradient id="paint0_linear_9085_19213" x1="10.003" y1="5.61615" x2="25.254" y2="32.1228" gradientUnits="userSpaceOnUse">
<stop stop-opacity="0.2"/>
<stop offset="0.7908" stop-opacity="0.05"/>
</linearGradient>
</defs>
</svg>
