<svg width="32" height="32" viewBox="0 0 32 32" fill="none" xmlns="http://www.w3.org/2000/svg">
<path d="M16.3079 3.86365C12.8156 3.86365 9.46632 5.25096 6.99688 7.7204C4.52745 10.1898 3.14014 13.5391 3.14014 17.0314C3.14014 20.5237 4.52745 23.873 6.99688 26.3424C9.46632 28.8119 12.8156 30.1992 16.3079 30.1992C19.8002 30.1992 23.1495 28.8119 25.6189 26.3424C28.0883 23.873 29.4757 20.5237 29.4757 17.0314C29.4757 13.5391 28.0883 10.1898 25.6189 7.7204C23.1495 5.25096 19.8002 3.86365 16.3079 3.86365V3.86365Z" fill="#354358"/>
<path opacity="0.2" d="M17.8512 1.07013C17.508 1.0723 16.8535 1.12983 16.5186 1.22261C15.3999 1.5326 14.3566 2.98857 13.9703 4.04788C13.9122 4.20718 13.8374 4.3526 13.8032 4.36955C13.7689 4.38657 13.6351 4.41995 13.5066 4.44684C12.1828 4.72394 10.5665 5.33112 9.45852 5.96538C6.96719 7.39151 5.05609 9.416 3.81256 11.9455C3.11024 13.3741 2.71211 14.6844 2.48201 16.3257C2.38433 17.0225 2.38418 19.1313 2.48201 19.8286C2.92347 22.9688 4.2395 25.6604 6.40264 27.8516C8.86712 30.348 12.0313 31.7705 15.61 31.9915C16.0547 32.019 17.401 31.9756 17.9243 31.9163C19.3849 31.751 20.9402 31.3053 22.2773 30.6693C26.6369 28.5958 29.6086 24.439 30.1562 19.6531C30.1832 19.417 30.2061 18.772 30.2063 18.214C30.2911 16.62 29.6365 15.038 28.9802 13.8735C28.302 12.4683 28.1713 11.2504 28.0713 9.75274C28.0851 9.66127 28.0834 9.56652 28.0692 9.54387C26.2725 10.0964 24.7345 11.5481 23.7887 12.8913C23.1492 13.9118 22.7303 14.9544 22.7285 15.8724C22.8178 18.2152 24.8232 19.902 24.8674 22.0176C24.8674 24.2634 23.5148 26.4349 21.9076 27.9873C21.5843 28.2997 21.5065 28.357 21.4711 28.3215C21.4593 28.3098 21.5099 28.1721 21.5818 28.0145C22.7002 25.5602 22.4648 22.6184 20.7463 20.5576C20.5061 20.2695 19.5605 19.3349 19.4262 19.2521C19.4878 19.5764 19.5192 19.9058 19.5201 20.2359C19.5201 23.1891 17.1261 25.5832 14.1729 25.5832C11.2197 25.5832 8.82562 23.1891 8.82562 20.2359C8.82562 17.2827 11.2197 14.8886 14.1729 14.8886C14.5101 14.8896 14.8465 14.9225 15.1776 14.9868C15.1949 14.9878 15.2125 14.9878 15.2298 14.9889C15.2796 14.9464 15.3113 14.9078 15.3113 14.8949C15.3113 14.8121 13.9949 13.4942 13.6298 13.2114C12.8875 12.6365 12.0424 11.9433 11.0669 11.6908C10.8057 11.6232 10.6679 11.5691 10.6679 11.5341C10.6679 11.4348 11.5958 11.1586 12.6251 10.9513C13.876 10.6995 14.6875 10.6379 17.1118 10.613C18.1289 10.6025 19.1314 10.5763 19.3405 10.5545C21.9538 10.1333 24.056 8.42181 24.9922 6.50851C25.0185 6.42156 25.0156 6.42078 24.61 6.42078C23.7513 6.42078 22.887 6.24241 22.0643 5.87979C20.999 5.27537 20.0619 4.57518 18.9207 4.32987C18.6263 4.2666 17.8279 4.25544 17.3812 4.19409C17.2765 3.29718 17.6746 1.99636 18.058 1.41896C18.1533 1.2827 18.2242 1.1509 18.2168 1.12862C18.2024 1.08573 18.0571 1.0689 17.8512 1.07013V1.07013Z" fill="black"/>
<path d="M17.8512 0.000794708C17.508 0.0029657 16.8535 0.0604915 16.5186 0.153275C15.3999 0.463267 14.3566 1.91923 13.9703 2.97854C13.9122 3.13784 13.8374 3.28327 13.8032 3.30022C13.7689 3.31724 13.6351 3.35061 13.5066 3.3775C12.1828 3.65461 10.5665 4.26179 9.45852 4.89604C6.96719 6.32218 5.05609 8.34666 3.81256 10.8762C3.11024 12.3048 2.71211 13.6151 2.48201 15.2564C2.38433 15.9531 2.38418 18.0619 2.48201 18.7592C2.92347 21.8994 4.2395 24.591 6.40264 26.7822C8.86712 29.2787 12.0313 30.7012 15.61 30.9222C16.0547 30.9496 17.401 30.9062 17.9243 30.847C19.3849 30.6817 20.9402 30.236 22.2773 29.6C26.6369 27.5265 29.6086 23.3697 30.1562 18.5838C30.1832 18.3477 30.2061 17.7027 30.2063 17.1446C30.2911 15.5507 29.6365 13.9687 28.9802 12.8041C28.302 11.399 28.1713 10.1811 28.0713 8.68341C28.0851 8.59194 28.0834 8.49719 28.0692 8.47453C26.2725 9.02702 24.7345 10.4787 23.7887 11.822C23.1492 12.8425 22.7303 13.885 22.7285 14.8031C22.8178 17.1459 24.8232 18.8327 24.8674 20.9483C24.8674 23.1941 23.5148 25.3655 21.9076 26.918C21.5843 27.2304 21.5065 27.2876 21.4711 27.2522C21.4593 27.2405 21.5099 27.1028 21.5818 26.9452C22.7002 24.4908 22.4648 21.5491 20.7463 19.4882C20.5061 19.2002 19.5605 18.2655 19.4262 18.1827C19.4878 18.5071 19.5192 18.8364 19.5201 19.1666C19.5201 22.1198 17.1261 24.5138 14.1729 24.5138C11.2197 24.5138 8.82562 22.1198 8.82562 19.1666C8.82562 16.2133 11.2197 13.8193 14.1729 13.8193C14.5101 13.8203 14.8465 13.8531 15.1776 13.9175C15.1949 13.9184 15.2125 13.9184 15.2298 13.9196C15.2796 13.8771 15.3113 13.8384 15.3113 13.8256C15.3113 13.7428 13.9949 12.4248 13.6298 12.1421C12.8875 11.5671 12.0424 10.8739 11.0669 10.6214C10.8057 10.5539 10.6679 10.4997 10.6679 10.4648C10.6679 10.3655 11.5958 10.0893 12.6251 9.882C13.876 9.63016 14.6875 9.56855 17.1118 9.54362C18.1289 9.53314 19.1314 9.50694 19.3405 9.48514C21.9538 9.06401 24.056 7.35248 24.9922 5.43918C25.0185 5.35222 25.0156 5.35145 24.61 5.35145C23.7513 5.35145 22.887 5.17307 22.0643 4.81046C20.999 4.20603 20.0619 3.50585 18.9207 3.26053C18.6263 3.19726 17.8279 3.1861 17.3812 3.12476C17.2765 2.22785 17.6746 0.927026 18.058 0.34962C18.1533 0.213367 18.2242 0.0815618 18.2168 0.0592804C18.2024 0.0163986 18.0571 -0.000437861 17.8512 0.000795218V0.000794708Z" fill="#41A6CC"/>
<path opacity="0.2" d="M17.851 6.27948e-05C17.5079 0.00223378 16.8534 0.0597597 16.5184 0.152543C15.3997 0.462536 14.3565 1.91934 13.9701 2.97866C13.912 3.13795 13.8372 3.28338 13.803 3.30033C13.7687 3.31735 13.6349 3.35072 13.5064 3.37761C12.1826 3.65472 10.5663 4.2619 9.45835 4.89615C6.96703 6.32229 5.05592 8.34678 3.81239 10.8763C3.11007 12.3049 2.71194 13.6152 2.48184 15.2565C2.4181 15.7112 2.41226 16.6689 2.43171 17.5416C2.44209 17.0773 2.44792 16.5679 2.48184 16.3259C2.71194 14.6846 3.11007 13.3744 3.81239 11.9458C5.05592 9.41623 6.96703 7.39174 9.45835 5.96561C10.5663 5.33135 12.1826 4.72417 13.5064 4.44707C13.6349 4.42018 13.7687 4.3868 13.803 4.36978C13.8372 4.35283 13.912 4.20741 13.9701 4.04811C14.3565 2.9888 15.3997 1.53199 16.5184 1.222C16.8194 1.13863 17.356 1.08974 17.7153 1.07787C17.8221 0.791046 17.9382 0.529076 18.0578 0.348888C18.1531 0.212635 18.224 0.0808299 18.2166 0.0585485C18.2022 0.0156667 18.0569 -0.00117028 17.851 6.27948e-05V6.27948e-05ZM17.4521 3.13114C17.3849 3.50286 17.3437 3.87425 17.3811 4.19432C17.8277 4.25567 18.6262 4.26683 18.9205 4.33009C20.0617 4.57541 20.9988 5.27554 22.0641 5.87997C22.8163 6.21149 23.6033 6.38251 24.3889 6.41052C24.6192 6.09535 24.8296 5.77238 24.9926 5.43923C25.0188 5.35228 25.0159 5.35151 24.6103 5.35151C23.7516 5.35151 22.8868 5.17313 22.0641 4.81051C20.9988 4.20609 20.0617 3.50596 18.9205 3.26064C18.6388 3.20009 17.907 3.1859 17.4521 3.13114ZM28.0693 8.47423C26.2726 9.02672 24.7352 10.4793 23.7894 11.8225C23.1499 12.843 22.7302 13.8851 22.7283 14.8032C22.7346 14.9673 22.7694 15.1215 22.7931 15.2795C22.9256 14.517 23.2835 13.6993 23.7894 12.892C24.7352 11.5487 26.2726 10.0962 28.0693 9.54368C28.0835 9.56634 28.0852 9.66109 28.0714 9.75256C28.1714 11.2502 28.3018 12.4685 28.98 13.8737C29.5398 14.8669 30.094 16.1635 30.1936 17.5124C30.1963 17.3667 30.2061 17.2873 30.2062 17.1447C30.291 15.5508 29.6363 13.9688 28.98 12.8043C28.3018 11.3991 28.1714 10.1808 28.0714 8.6831C28.0852 8.59163 28.0835 8.49688 28.0693 8.47423ZM12.1111 11.0768C11.3305 11.2591 10.6678 11.4537 10.6678 11.5343C10.6678 11.5693 10.8055 11.6234 11.0667 11.6909C12.0422 11.9434 12.8873 12.6366 13.6296 13.2116C13.7528 13.307 14.037 13.586 14.2897 13.8298C14.5875 13.8373 14.8849 13.8607 15.1774 13.9176C15.1947 13.9185 15.2124 13.9185 15.2296 13.9197C15.2795 13.8772 15.3111 13.8385 15.3111 13.8257C15.3111 13.7428 13.9948 12.4249 13.6296 12.1421C13.1675 11.7842 12.6595 11.3916 12.1111 11.0768ZM19.426 18.1829C19.4876 18.5072 19.5191 18.8365 19.52 19.1667C19.52 19.2223 19.5133 19.2764 19.5116 19.3317C19.7341 19.5115 20.5224 20.2896 20.7461 20.5578C21.6483 21.6397 22.1299 22.9648 22.2333 24.3343C22.3562 22.5972 21.8822 20.8508 20.7461 19.4883C20.5059 19.2003 19.5603 18.2656 19.426 18.1829V18.1829ZM8.8526 19.7014C8.83516 19.8772 8.82545 20.0558 8.82545 20.2361C8.82545 23.1893 11.2195 25.5834 14.1727 25.5834C17.1259 25.5834 19.52 23.1893 19.52 20.2361C19.5196 20.0917 19.4903 19.9496 19.4782 19.8058C19.162 22.4573 16.9094 24.5139 14.1727 24.5139C11.3999 24.5139 9.12074 22.4037 8.8526 19.7014V19.7014ZM24.8171 21.6335C24.584 23.5897 23.3996 25.4433 21.9952 26.8283C21.8869 27.2317 21.7569 27.63 21.5816 28.0147C21.5097 28.1724 21.4592 28.31 21.4709 28.3218C21.5063 28.3572 21.5841 28.2999 21.9075 27.9876C23.5146 26.4351 24.8672 24.2637 24.8672 22.0178C24.8645 21.8867 24.834 21.7616 24.8171 21.6335V21.6335Z" fill="white"/>
</svg>
