<svg width="32" height="32" viewBox="0 0 32 32" fill="none" xmlns="http://www.w3.org/2000/svg">
<g clip-path="url(#clip0_10135_25861)">
<path d="M25.5 23.6749C25.1333 23.5583 24.8 23.3499 24.5667 23.1083C24.2333 22.7499 22.25 19.1499 22.25 18.8916C22.25 18.7499 22.2833 18.6833 22.3583 18.7166C22.4333 18.7416 22.6667 18.2999 23.0833 17.3333C23.7833 15.7416 23.8 15.7249 24.3833 16.1666C25.975 17.3833 27.3917 18.0083 28.875 18.1333C29.5 18.1916 29.6667 18.2666 29.6667 18.4999C29.6667 18.5833 29.9307 18.2089 29.9641 18.2256C30.0057 18.2339 29.3417 19.7666 28.7667 21.0499C27.7833 23.2666 27.7083 23.4083 27.425 23.5416C27.0917 23.7083 25.8583 23.7916 25.5 23.6749Z" fill="url(#paint0_linear_10135_25861)"/>
<path d="M4.67476 23.6083C4.3081 23.4583 4.29976 23.45 3.79143 22.2916C3.5081 21.65 3.12477 20.775 2.9331 20.3583L2.41602 19.1455L2.9831 19.6C3.37477 19.6083 4.2581 19.4 5.2081 19.0666C5.4831 18.975 5.9081 18.8416 6.14976 18.7666C6.44976 18.675 6.5831 18.6 6.5831 18.5C6.5831 18.4166 6.66643 18.3333 6.77476 18.3083C6.87476 18.2833 7.3081 18.1166 7.7331 17.925C8.1581 17.7333 8.5581 17.5833 8.62476 17.5833C8.69143 17.5833 8.74976 17.55 8.74976 17.5C8.74976 17.4583 8.79976 17.4166 8.8581 17.4166C8.91643 17.4166 9.2236 18.0355 9.24976 18.0916C9.5791 18.7989 9.64143 18.925 9.7581 18.7416C9.8081 18.6583 9.8331 18.7 9.8331 18.8666C9.8331 19.15 7.87476 22.6416 7.46643 23.0666C7.02476 23.5416 6.6331 23.6916 5.79143 23.725C5.22476 23.7416 4.94976 23.7166 4.67476 23.6083Z" fill="url(#paint1_linear_10135_25861)"/>
<path d="M25.5833 23.6667C25.5833 23.625 25.475 23.5834 25.3333 23.5834C25.125 23.5834 25.0833 23.55 25.0833 23.375C25.0833 23.1917 25.05 23.1667 24.7917 23.1667C24.5083 23.1667 24.5 23.1584 24.5 22.8584V22.55L24.8167 22.85C25.1583 23.1834 25.4917 23.3667 25.9 23.4584C26.2667 23.5334 26.2583 23.75 25.875 23.75C25.7167 23.75 25.5833 23.7167 25.5833 23.6667Z" fill="url(#paint2_radial_10135_25861)"/>
<path d="M26.0606 23.5354C26.0586 23.4718 26.6196 23.4869 26.8248 23.4166C26.995 23.3584 27.2831 23.2416 27.4581 23.1166C27.8081 22.8833 27.8748 22.8999 27.7998 23.2083C27.7581 23.3583 27.6915 23.4166 27.5415 23.4166C27.4165 23.4166 27.3331 23.4666 27.3331 23.5333C27.3331 23.6583 27.0831 23.7499 26.7331 23.7499C26.5831 23.7499 26.0631 23.6188 26.0606 23.5354Z" fill="url(#paint3_radial_10135_25861)"/>
<path d="M16.3668 21.7833C16.1668 21.425 16.0252 21.2583 15.9502 21.2833C15.8668 21.3166 15.8335 21.2583 15.8335 21.1083C15.8335 20.7167 17.6835 17.525 18.8835 15.85C19.5502 14.9167 19.6668 14.7917 19.9002 14.7667C20.1252 14.7417 20.1668 14.775 20.2168 14.9667C20.2502 15.0917 20.2418 15.2417 20.2002 15.3C19.4668 16.325 18.9168 17.1833 18.9168 17.2833C18.9168 17.35 18.8418 17.55 18.7585 17.725C18.4918 18.2417 17.1835 21.4833 17.1085 21.8166C17.0835 21.9166 17.0335 22 16.9918 22C16.9502 22 17.3228 23.1803 17.3228 23.272C17.3228 23.597 16.6668 22.325 16.3668 21.7833Z" fill="url(#paint4_radial_10135_25861)"/>
<path d="M23.9165 21.9583C23.9165 21.5999 24.0332 21.5833 24.2082 21.9166C24.3748 22.2333 24.3665 22.2499 24.1248 22.2499C23.9415 22.2499 23.9165 22.2166 23.9165 21.9583Z" fill="url(#paint5_radial_10135_25861)"/>
<path d="M23.5 21.2083C23.5 20.85 23.6158 20.8448 23.7908 21.1782C23.9574 21.4948 24.2266 21.8706 23.9849 21.8706C23.8016 21.8706 23.5 21.4667 23.5 21.2083Z" fill="url(#paint6_radial_10135_25861)"/>
<path d="M23.0832 20.4583C23.0832 20.225 23.0498 20.1666 22.9248 20.1666C22.7498 20.1666 22.6665 20.0083 22.6665 19.6583C22.6665 19.475 22.6248 19.4167 22.4998 19.4167C22.3998 19.4167 22.3165 19.3417 22.2832 19.2167C22.2165 18.9417 22.1956 18.6477 22.3217 18.6856C22.4407 18.7213 23.4998 20.6083 23.4998 20.7C23.4998 20.725 23.4082 20.75 23.2915 20.75C23.1082 20.75 23.0832 20.7166 23.0832 20.4583Z" fill="url(#paint7_radial_10135_25861)"/>
<path d="M25.2498 23.5833C25.2498 23.5417 25.1748 23.5 25.0832 23.5C24.9915 23.5 24.9165 23.4417 24.9165 23.375C24.9165 23.3083 24.8582 23.25 24.7832 23.25C24.5748 23.25 24.4165 23.0333 24.4165 22.7583C24.4165 22.45 24.4812 22.4388 24.6582 22.6917C24.8058 22.9025 25.3082 23.3 25.6082 23.375C25.9415 23.4583 25.8915 23.6667 25.5415 23.6667C25.3832 23.6667 25.2498 23.6333 25.2498 23.5833Z" fill="url(#paint8_radial_10135_25861)"/>
<path d="M16.7805 22.3516C16.6805 22.1183 16.6085 21.8417 16.7252 21.7667C16.7669 21.7334 16.8252 21.6334 16.8585 21.5417C16.9502 21.2 18.2252 18.05 18.4835 17.5084C18.5585 17.35 18.6252 17.1584 18.6252 17.0834C18.6335 17.0167 18.8335 16.6584 19.0752 16.2917C19.3169 15.925 19.4169 15.7417 19.3002 15.875C19.1835 16.0167 18.8085 16.5417 18.4835 17.0584C18.1502 17.575 17.8502 17.9917 17.8169 18C17.7752 18 17.7502 17.8667 17.7502 17.7084C17.7502 17.4584 17.7752 17.4167 17.9585 17.4167C18.1169 17.4167 18.1752 17.3584 18.2419 17.1084C18.2919 16.9334 18.3335 16.725 18.3335 16.65C18.3335 16.5667 18.3752 16.5 18.4252 16.5C18.5585 16.5 18.7419 16.2417 18.7502 16.0667C18.7502 15.9834 18.7919 15.9167 18.8335 15.9167C18.8835 15.9167 18.9169 15.8667 18.9169 15.8C18.9169 15.7334 18.9752 15.6667 19.0419 15.6334C19.1085 15.6084 19.1669 15.5334 19.1669 15.4667C19.1669 15.4084 19.2252 15.3334 19.2919 15.3C19.3585 15.275 19.4169 15.2167 19.4169 15.175C19.4169 15.075 19.8835 14.5834 19.9752 14.5834C20.0669 14.5834 20.487 15.4234 20.5559 15.5843C20.5834 15.6486 20.3835 15.5834 20.3502 15.5834C20.3169 15.5834 20.2252 15.7084 20.1585 15.8584C20.0835 16 19.6835 16.8 19.2669 17.625C18.8502 18.45 18.4835 19.2417 18.4502 19.375C18.3752 19.6917 17.8169 21.1 17.5169 21.725C17.1919 22.4 17.0669 22.5834 16.9085 22.5834C16.8335 22.5834 16.8305 22.4516 16.7805 22.3516Z" fill="url(#paint9_radial_10135_25861)"/>
<path d="M23.5835 21.375C23.5835 21.0167 23.6668 21.0084 23.8585 21.325C24.0418 21.6417 24.0418 21.6667 23.7918 21.6667C23.6085 21.6667 23.5835 21.6334 23.5835 21.375Z" fill="url(#paint10_radial_10135_25861)"/>
<path d="M23.1665 20.6251C23.1665 20.2667 23.2596 20.2527 23.4415 20.5751C23.7888 21.1905 23.7033 21.0597 23.3748 20.9167C23.2068 20.8436 23.1665 20.8834 23.1665 20.6251Z" fill="url(#paint11_radial_10135_25861)"/>
<path d="M2.85006 19.9416C2.74172 19.8166 2.49172 19.3583 2.29172 18.9083L1.80664 17.7584L2.34172 18.0583C3.34172 17.9416 7.58339 15.8999 7.58339 15.5416C7.58339 15.4499 7.88839 15.0954 7.93006 15.1621C7.94672 15.1788 8.27506 15.8749 8.54172 16.4833C8.84422 17.1686 8.97314 17.5592 9.0548 17.7304C9.11864 17.8643 9.01414 17.9074 8.91672 17.8749C8.83339 17.8499 8.45839 17.9666 8.07506 18.1333C7.69172 18.2999 7.24172 18.4916 7.08339 18.5583L6.79172 18.6749L7.16672 18.6333C7.65839 18.5833 7.45839 18.6999 6.60006 18.9583C6.25006 19.0583 5.73339 19.2249 5.45839 19.3249C4.92506 19.5083 3.45839 19.9166 3.25006 19.9416C3.18339 19.9499 3.10839 19.9999 3.08339 20.0583C3.05839 20.1249 2.97506 20.0749 2.85006 19.9416Z" fill="url(#paint12_linear_10135_25861)"/>
<path d="M2.24976 18.4833C2.24976 18.4 2.19976 18.3333 2.14142 18.3333C2.04142 18.3333 1.85559 17.921 1.46392 17.0044C1.44726 16.971 1.81642 16.9833 2.20809 16.8416C3.58309 16.3416 4.79142 15.6833 5.95809 14.8C6.66642 14.25 6.83309 14.1 6.83309 13.9666C6.83309 13.8916 6.89142 13.8333 6.95809 13.8333C7.02475 13.8333 7.08309 13.8 7.08309 13.75C7.08309 13.7083 7.13309 13.6666 7.19142 13.6666C7.29975 13.6666 8.03309 15.275 8.11642 15.7083C8.16642 15.9333 8.15809 15.9416 8.05809 15.8166C7.91642 15.6416 7.83309 15.625 7.83309 15.7833C7.83309 16.1 4.59142 17.725 2.83309 18.2833C2.58309 18.3666 2.34976 18.475 2.31642 18.5333C2.27476 18.5916 2.24976 18.575 2.24976 18.4833Z" fill="url(#paint13_linear_10135_25861)"/>
<path d="M6.5 23.4333C6.5 23.4 6.60833 23.3083 6.74167 23.225C6.86667 23.15 7.11667 22.95 7.28333 22.775L7.58333 22.4667V22.7417C7.58333 23.0333 7.425 23.25 7.21667 23.25C7.14167 23.25 7.08333 23.3083 7.08333 23.375C7.08333 23.4583 6.99167 23.5 6.79167 23.5C6.63333 23.5 6.5 23.4667 6.5 23.4333Z" fill="url(#paint14_linear_10135_25861)"/>
<path d="M1.27523 16.6333L0.941895 15.875L1.16689 15.825C1.90023 15.6667 3.50856 14.825 4.42523 14.1167C5.03356 13.65 6.16689 12.5083 6.16689 12.3667C6.16689 12.3 6.20856 12.25 6.25023 12.25C6.30023 12.25 6.33356 12.1917 6.33356 12.125C6.33356 12.0583 6.38373 12.0042 6.44189 12C6.47314 11.9977 6.53014 12.0295 6.62148 12.202C6.78873 12.5179 7.06331 13.1592 7.36139 13.8917C7.37398 13.9225 7.52723 14.2585 7.56889 14.3668C7.61056 14.4752 7.46689 14.3333 7.41689 14.3333C7.36689 14.3333 7.33356 14.275 7.33356 14.2083C7.33356 14.1417 7.27523 14.0833 7.20856 14.0833C7.14189 14.0833 7.08356 14.1417 7.08356 14.2167C7.08356 14.35 6.91689 14.5 6.20856 15.05C5.13356 15.8667 3.75856 16.6333 2.71689 17C2.48356 17.0833 2.18356 17.2 2.04189 17.25C1.90856 17.3083 1.75023 17.3667 1.70023 17.375C1.65023 17.3917 1.45856 17.0583 1.27523 16.6333Z" fill="url(#paint15_linear_10135_25861)"/>
<path d="M21.9664 29.575C21.0748 29.3667 20.2831 28.7417 19.7414 27.8167C19.2748 27.0167 19.2664 27 19.5664 27C19.6998 27 20.0748 26.875 20.3831 26.7333C21.0331 26.4333 21.8581 26.3333 22.3581 26.4917C22.6998 26.6083 23.5498 27.3667 24.0831 28.025L24.4581 28.5L24.9164 28.45L26.2214 26.6577C26.3608 26.4998 25.8641 27.6513 25.0998 28.6917C24.3831 29.4333 23.0248 29.825 21.9664 29.575Z" fill="url(#paint16_radial_10135_25861)"/>
<path d="M25.5 23.5834C25.5 23.4084 25.5833 23.3834 25.9 23.4667C26.2 23.55 26.125 23.75 25.7917 23.75C25.5583 23.75 25.5 23.7167 25.5 23.5834Z" fill="url(#paint17_radial_10135_25861)"/>
<path d="M16.9499 22.85C16.6999 22.3833 16.6999 22.375 16.8499 22.2166C17.0749 21.975 18.0499 19.7666 18.1999 19.15C18.2916 18.7583 19.9583 15.425 20.1166 15.3166C20.1833 15.2666 20.1833 15.25 20.1166 15.25C20.0666 15.25 20.0249 15.1916 20.0249 15.125C20.0249 14.875 20.2249 15.0083 20.4833 15.4416C20.7333 15.85 20.7749 16.1666 20.5833 16.1666C20.4666 16.1666 18.7666 19.6833 18.7083 20.0416C18.6166 20.6 18.4916 20.9166 17.9416 22.0416C17.6583 22.6333 19.6123 27.5885 19.6415 27.639C19.7684 27.8585 17.1916 23.2916 16.9499 22.85Z" fill="url(#paint18_radial_10135_25861)"/>
<path d="M24.6665 23.075V22.825L24.9165 23C25.2832 23.2583 25.2915 23.3333 24.9665 23.3333C24.6915 23.3333 24.6665 23.3166 24.6665 23.075Z" fill="url(#paint19_radial_10135_25861)"/>
<path d="M27.436 23.1419C27.436 23.1169 27.6331 23.0417 27.7915 22.875L28.088 22.5602L27.9415 22.9083C27.8498 23.1333 27.7581 23.25 27.6498 23.25C27.5665 23.25 27.436 23.1586 27.436 23.1419Z" fill="url(#paint20_radial_10135_25861)"/>
<path d="M24 22.125C24 21.7583 24.075 21.7583 24.3167 22.125L24.4942 22.4498L24.25 22.4166C24.0167 22.4166 24 22.3916 24 22.125Z" fill="url(#paint21_radial_10135_25861)"/>
<path d="M22.8335 20.0416C22.8335 19.6749 22.9085 19.6749 23.1502 20.0416L23.3364 20.3631L23.0835 20.3333C22.8502 20.3333 22.8335 20.3083 22.8335 20.0416Z" fill="url(#paint22_radial_10135_25861)"/>
<path d="M22.4165 19.2916C22.4165 18.9249 22.4915 18.9249 22.7332 19.2916L22.9498 19.6759L22.6665 19.5833C22.4332 19.5833 22.4165 19.5583 22.4165 19.2916Z" fill="url(#paint23_radial_10135_25861)"/>
<path d="M8.12513 15.95C8.05013 15.8334 8.00847 15.7167 8.02513 15.6917C8.05013 15.6667 8.13347 15.7667 8.20847 15.9084C8.3668 16.225 8.32513 16.25 8.12513 15.95Z" fill="url(#paint24_linear_10135_25861)"/>
<path d="M6.47484 28.1916C6.4415 28.1666 6.4165 28.0333 6.4165 27.9C6.4165 27.6916 6.4415 27.6666 6.70817 27.6666C6.98317 27.6666 6.99984 27.6833 6.99984 27.9583C6.99984 28.225 6.97484 28.25 6.7665 28.25C6.63317 28.25 6.49984 28.225 6.47484 28.1916Z" fill="#00B0E7"/>
<path d="M1.1168 16.175C1.15013 16.1333 1.1173 16.1202 1.07438 16.1071C0.994548 16.0829 0.385215 14.724 0.463465 14.6822C0.488465 14.6572 1.40846 14.3 2.0418 14.0583C2.18346 14 2.30846 13.9333 2.33346 13.9083C2.35846 13.875 2.6168 13.675 2.9168 13.45C3.95013 12.6916 5.07513 11.4833 5.20013 11C5.3168 10.525 5.38346 10.5166 5.78346 10.9083C6.18346 11.3083 6.57513 11.9583 6.6418 12.3416C6.6668 12.5333 6.65013 12.575 6.55013 12.5333C6.4668 12.5 6.4168 12.525 6.4168 12.6083C6.4168 12.7583 5.30013 13.8833 4.67513 14.3666C4.00846 14.8833 3.0668 15.425 2.27513 15.7583C1.85013 15.9333 1.58346 16.0916 1.58346 16.1666C1.58346 16.275 1.57513 16.275 1.50013 16.1666C1.45013 16.0916 1.3918 16.075 1.35846 16.125C1.27513 16.2333 1.05846 16.2833 1.1168 16.175Z" fill="url(#paint25_linear_10135_25861)"/>
<path d="M8.47516 29.5833C8.06683 29.475 7.3335 29.1 7.3335 29C7.3335 28.95 7.46683 28.9166 7.62516 28.9166C7.7835 28.9166 7.91683 28.9416 7.91683 28.9833C7.91683 29.0166 8.2835 29.0333 8.72516 29.025C9.30016 29.0083 9.60016 29.0333 9.77516 29.125C9.91683 29.1916 10.0752 29.25 10.1418 29.25C10.3002 29.25 10.2752 29.475 10.1085 29.5416C9.8585 29.6333 8.8085 29.6666 8.47516 29.5833Z" fill="url(#paint26_linear_10135_25861)"/>
<path d="M24.6665 28.875C24.6665 28.7834 24.6082 28.7584 24.4749 28.7917C24.3165 28.8334 24.2082 28.75 23.8415 28.3C23.2749 27.6 22.5332 26.925 22.1665 26.7667C21.9999 26.7 21.7332 26.6667 21.5332 26.6917C21.1332 26.7334 20.1999 27.1417 19.9665 27.3834C19.7832 27.5584 19.5999 27.6084 19.6165 27.4667C19.6165 27.4167 19.5915 27.3667 19.5499 27.3584C19.4832 27.3417 19.2415 26.9417 18.4749 25.5667L18.1582 25H18.4165C18.5832 25 18.6665 25.0417 18.6665 25.125C18.6665 25.2584 18.7999 25.3 18.8499 25.1834C18.8665 25.15 19.1915 24.8584 19.5832 24.55C20.2582 23.9917 20.2832 23.9667 20.2582 23.6584C20.2415 23.3417 20.2415 23.3334 20.5165 23.3334C20.7749 23.3334 20.8249 23.3917 21.2499 24.05C21.4999 24.45 21.9582 25 22.2582 25.2917C22.9499 25.9417 23.4082 26.1167 24.1582 26.0334C24.5165 25.9917 24.6665 26.0084 24.6665 26.075C24.6665 26.125 24.7082 26.1667 24.7665 26.1667C24.8165 26.1667 25.0415 26.3167 25.2582 26.5C25.4832 26.6834 25.7415 26.8334 25.8582 26.8334C25.9665 26.8334 26.1309 26.8528 26.1559 26.8778C26.0203 27.1333 25.4918 28.2318 25.0835 28.6568C24.6335 29.1401 24.6665 29.075 24.6665 28.875Z" fill="url(#paint27_radial_10135_25861)"/>
<path d="M17.4165 23.6583C17.1165 23.1417 17.0581 22.85 17.2165 22.7083C17.4165 22.525 18.3415 20.425 18.4248 19.9667C18.4748 19.7 18.6748 19.15 18.8748 18.75C19.0665 18.3417 19.2081 17.9917 19.1831 17.9667C19.1581 17.9417 19.1831 17.9167 19.2331 17.9167C19.2915 17.9167 19.3248 17.8917 19.3165 17.8583C19.2831 17.7667 20.2135 15.8322 20.3968 15.6322C20.5468 15.4739 20.5748 15.65 20.8248 16.05C21.0748 16.45 21.0748 16.4583 20.9248 16.7083C20.5665 17.3 19.9915 18.35 19.5831 19.1667C19.2165 19.8917 19.1415 20.1083 19.1581 20.4417C19.1748 20.8833 18.9915 21.4917 18.5581 22.4333C18.3998 22.7833 18.2415 23.1833 18.2081 23.3167C18.1831 23.4583 18.0998 23.6167 18.0331 23.675C17.9665 23.725 17.9165 23.8583 17.9165 23.9667C17.9165 24.3083 17.7081 24.1833 17.4165 23.6583Z" fill="url(#paint28_radial_10135_25861)"/>
<path d="M26.5914 23.625C26.6081 23.5417 26.7164 23.4583 26.8248 23.4417C26.9414 23.425 27.0748 23.375 27.1248 23.3333C27.1831 23.2917 27.2498 23.275 27.2748 23.3083C27.3081 23.3333 27.3331 23.3167 27.3331 23.2667C27.3331 23.2083 27.3748 23.1667 27.4248 23.1667C27.4831 23.1667 27.5609 23.0868 27.6331 23.025C27.7833 22.8962 27.7414 22.9 27.7498 23.15C27.7558 23.3332 27.6998 23.4417 27.6081 23.475C27.5248 23.5083 27.4331 23.5667 27.4081 23.6083C27.3748 23.65 27.1748 23.7083 26.9581 23.7333C26.6164 23.7667 26.5664 23.7583 26.5914 23.625Z" fill="url(#paint29_radial_10135_25861)"/>
<path d="M24.3332 22.9083C24.3332 22.8583 24.2749 22.7667 24.2082 22.7C24.0832 22.5667 24.0332 22 24.1499 22C24.1999 22 24.3499 22.2083 24.6999 22.775L24.8332 23H24.5832C24.4499 23 24.3332 22.9583 24.3332 22.9083Z" fill="url(#paint30_radial_10135_25861)"/>
<path d="M23.6665 21.5416C23.6665 21.1749 23.7415 21.1749 23.9832 21.5416L24.1867 21.8844L23.9165 21.8333C23.6832 21.8333 23.6665 21.8083 23.6665 21.5416Z" fill="url(#paint31_radial_10135_25861)"/>
<path d="M23.2498 20.7916C23.2498 20.5583 23.2165 20.5 23.0832 20.5C22.9498 20.5 22.9165 20.4416 22.9165 20.2083C22.9165 20.05 22.9415 19.9166 22.9665 19.9166C23.0415 19.9166 23.3248 20.2833 23.3332 20.375C23.3332 20.425 23.4248 20.6 23.5415 20.775L23.7805 21.1594L23.4998 21.0833C23.2665 21.0833 23.2498 21.0583 23.2498 20.7916Z" fill="url(#paint32_radial_10135_25861)"/>
<path d="M22.5 19.4583C22.5 19.1166 22.5417 19.1 22.7583 19.3583C22.9667 19.6166 22.9583 19.75 22.7083 19.75C22.525 19.75 22.5 19.7166 22.5 19.4583Z" fill="url(#paint33_radial_10135_25861)"/>
<path d="M24.2168 22.7C24.1918 22.625 24.1668 22.4583 24.1668 22.325C24.1668 22.1417 24.1252 22.0833 24.0002 22.0833C23.8668 22.0833 23.8335 22.025 23.8335 21.7833C23.8335 21.5167 23.8502 21.4917 23.9668 21.5917C24.0418 21.65 24.1585 21.8417 24.2252 22.0167C24.2918 22.1917 24.2782 22.3457 24.3282 22.3457C24.3698 22.3457 24.4835 22.375 24.4585 22.4167C24.4335 22.4667 24.4418 22.5 24.4835 22.5C24.5252 22.5 24.5835 22.575 24.6085 22.6667C24.6418 22.8 24.6085 22.8333 24.4585 22.8333C24.3502 22.8333 24.2418 22.775 24.2168 22.7Z" fill="url(#paint34_radial_10135_25861)"/>
<path d="M23.4165 21.025C23.4165 20.7334 23.4248 20.725 23.5748 20.8667C23.6582 20.95 23.7297 21.0889 23.7748 21.175C23.8349 21.2896 23.7748 21.3334 23.6165 21.3334C23.4415 21.3334 23.4165 21.2917 23.4165 21.025Z" fill="url(#paint35_radial_10135_25861)"/>
<path d="M23 20.275C23 19.975 23 19.975 23.15 20.1333C23.2333 20.2166 23.325 20.3583 23.3583 20.4416C23.4 20.55 23.3667 20.5833 23.2083 20.5833C23.025 20.5833 23 20.55 23 20.275Z" fill="url(#paint36_radial_10135_25861)"/>
<path d="M22.5835 19.525C22.5835 19.225 22.5835 19.225 22.7335 19.3833C22.8168 19.4666 22.9085 19.6083 22.9418 19.6916C22.9835 19.8 22.9502 19.8333 22.7918 19.8333C22.6085 19.8333 22.5835 19.8 22.5835 19.525Z" fill="url(#paint37_radial_10135_25861)"/>
<path d="M22.1664 18.8333C22.1664 18.6083 22.0323 18.2582 22.3163 18.664C22.3636 18.7315 22.4493 18.876 22.5109 18.9496C22.5443 19.0663 22.5164 19.0833 22.3664 19.0833C22.1998 19.0833 22.1664 19.0417 22.1664 18.8333Z" fill="url(#paint38_radial_10135_25861)"/>
<path d="M29.3834 18.9583C29.3584 18.8917 29.3584 18.7833 29.3834 18.725C29.4501 18.5333 29.2417 18.4417 28.6251 18.3833C27.1417 18.2583 25.7251 17.6333 24.1334 16.4167L23.8001 16.1583L23.5167 16.6C23.3667 16.8417 23.2501 17 23.2667 16.95C23.2834 16.9 23.7001 15.9333 24.2084 14.8C24.9334 13.1583 25.1501 12.75 25.2751 12.75C25.3667 12.75 25.6584 12.9917 25.9334 13.2917C26.6084 14.0167 27.5084 14.6083 28.3584 14.8833C28.9834 15.0917 29.1501 15.1083 30.2251 15.1L31.4084 15.0833L31.2584 15.4417C30.4667 17.2667 29.7251 18.875 29.6251 18.9667C29.4834 19.1167 29.4417 19.1167 29.3834 18.9583Z" fill="url(#paint39_linear_10135_25861)"/>
<path d="M1.60674 15.1991C1.56508 15.1408 0.724993 15.19 0.69166 15.215C0.644327 15.2242 0.57091 15.1113 0.465827 14.7777C0.408244 14.5949 0.10441 13.8275 0.19941 13.8022C0.255744 13.7872 0.220744 13.9043 0.20116 13.8445C0.164494 13.7323 0.233244 13.9164 0.22516 13.8132C0.18491 13.3026 0.483244 12.3483 0.531244 12.3034C0.737993 12.1096 1.33316 12.9167 1.33316 12.7917C1.33316 12.7334 1.51649 12.5667 1.73316 12.425C2.18316 12.1417 2.67483 11.6834 3.11649 11.1417C3.33316 10.8834 3.42483 10.675 3.46649 10.35L3.42341 9.9803C3.56891 9.8678 4.34008 10.0105 4.28858 10.0527C4.01016 9.92246 4.68008 10.17 5.11649 10.4C5.25666 10.474 5.46391 10.6133 5.54391 10.6875C5.71799 10.849 5.65041 10.9411 5.52483 11.0667C5.46649 11.125 5.43316 11.2167 5.46649 11.2584C5.53316 11.3667 4.79149 12.275 4.19149 12.8334C3.17483 13.7667 2.89983 14.0084 2.96649 13.9C3.03316 13.7834 2.79149 13.9417 2.62483 14.125C2.58316 14.1667 2.44149 14.25 2.32483 14.2917C1.09983 14.7667 1.98149 15.134 1.96483 15.2424C1.93983 15.3424 1.65674 15.2825 1.60674 15.1991Z" fill="url(#paint40_linear_10135_25861)"/>
<path d="M9.87504 29.5167C9.78338 29.5 9.66671 29.45 9.61671 29.4083C9.48338 29.3 8.50005 29.2417 8.20838 29.325C7.76671 29.45 6.90838 28.8583 6.40838 28.0917L6.21338 27.6442L6.52505 27.5167C6.71671 27.4 7.05005 27.1583 7.25838 26.9833C7.47505 26.8083 7.69171 26.6667 7.74171 26.6667C7.79171 26.6667 7.83338 26.6083 7.83338 26.5417C7.83338 26.45 7.92505 26.4167 8.19171 26.4167C9.05005 26.4167 10.0584 25.6083 10.9167 24.2333C11.3334 23.5667 11.4 23.5 11.6417 23.5C11.7834 23.5 11.9167 23.55 11.9417 23.6083C12 23.7583 11.925 25.7667 11.8167 26.725C11.7167 27.6417 11.7667 27.8333 12.1 27.8333C12.2417 27.8333 12.2334 27.8667 12.0084 28.1917C11.475 28.975 10.4167 29.6333 9.87504 29.5167Z" fill="url(#paint41_linear_10135_25861)"/>
<path d="M25.8335 27.2084C25.8335 27.1084 25.8002 27.0917 25.6918 27.1584C25.5835 27.2167 25.4502 27.15 25.0918 26.825C24.8418 26.6 24.5835 26.4167 24.5252 26.4167C24.4668 26.4167 24.4168 26.3917 24.4168 26.3584C24.4168 26.3167 24.1918 26.3084 23.9168 26.3167C23.2918 26.3584 22.7085 26.1667 22.2835 25.7917L21.9585 25.5084L22.2585 25.5C22.4252 25.5 22.5752 25.525 22.6085 25.55C22.6752 25.625 23.7252 25.6167 24.1585 25.5417C24.3585 25.5084 24.7835 25.3917 25.1002 25.275C25.4252 25.1667 25.9835 25.05 26.3502 25.025L27.0639 24.8234L26.8918 25.2584C26.1752 26.9417 25.8335 27.5667 25.8335 27.2084Z" fill="url(#paint42_radial_10135_25861)"/>
<path d="M18.5834 25.6667C18.5167 25.625 18.4917 25.5833 18.5334 25.5833C18.5834 25.5833 18.5417 25.525 18.4501 25.4583C18.3667 25.3917 18.3334 25.3333 18.3751 25.3333C18.4251 25.3333 18.4251 25.3083 18.3667 25.2667C18.2084 25.1583 17.6584 24.0917 17.6251 23.825C17.6001 23.625 17.6334 23.525 17.7417 23.4417C17.8334 23.3833 17.9251 23.2167 17.9584 23.075C17.9917 22.9333 18.1501 22.5333 18.3084 22.1833C18.7501 21.2167 18.9001 20.7083 18.8584 20.3083C18.8251 20.0167 18.8834 19.825 19.2084 19.1667C19.8084 17.9333 20.694 16.0573 20.794 16.0573C20.844 16.0573 21.0667 16.4583 21.2001 16.7083C21.4251 17.1167 21.5985 17.3098 21.4818 17.4432C21.3735 17.5765 20.2667 19.15 20.0167 19.6667C19.7501 20.2417 19.5751 20.8083 19.6167 21C19.6334 21.125 19.9084 21.6667 20.2167 22.2167C20.5251 22.7583 20.8584 23.3583 20.9501 23.5333C21.0501 23.7167 21.1834 23.9333 21.2584 24.0167C21.3334 24.1 21.4417 24.275 21.5084 24.4C21.5751 24.525 21.6751 24.6583 21.7251 24.6917C21.7834 24.725 21.8334 24.8917 21.8334 25.0583C21.8334 25.3583 21.8334 25.3583 21.6584 25.2C21.5584 25.1167 21.2917 24.7417 21.0501 24.3833C20.6417 23.75 20.6251 23.7333 20.5834 23.975C20.5501 24.1667 20.3751 24.3583 19.8334 24.7917C19.4417 25.1083 19.0417 25.45 18.9417 25.5583C18.7334 25.775 18.7501 25.775 18.5834 25.6667Z" fill="url(#paint43_radial_10135_25861)"/>
<path d="M25.6915 23.775C25.4665 23.7416 25.4165 23.7 25.4165 23.5416C25.4165 23.3583 25.4415 23.3416 25.6332 23.4166C25.7498 23.4666 26.0665 23.5 26.3332 23.5C26.5998 23.5 26.9165 23.4666 27.0332 23.4166C27.2248 23.35 27.2498 23.3583 27.2498 23.5333C27.2498 23.7 27.1998 23.7333 26.8665 23.7833C26.4665 23.8333 26.1665 23.8333 25.6915 23.775Z" fill="url(#paint44_radial_10135_25861)"/>
<path d="M24.75 23.1666C24.75 22.9416 24.725 22.9166 24.5 22.9166C24.2667 22.9166 24.25 22.8916 24.25 22.625C24.25 22.2583 24.325 22.2583 24.5667 22.625C24.6667 22.7833 24.8833 23 25.0417 23.1C25.4083 23.3416 25.4083 23.4166 25.0417 23.4166C24.775 23.4166 24.75 23.4 24.75 23.1666Z" fill="url(#paint45_radial_10135_25861)"/>
<path d="M7.4165 22.7C7.4165 22.6 7.69984 22.1666 7.7665 22.1666C7.79984 22.1666 7.83317 22.3 7.83317 22.4583C7.83317 22.7166 7.80817 22.75 7.62484 22.75C7.50817 22.75 7.4165 22.725 7.4165 22.7Z" fill="#00B2F7"/>
<path d="M23.8 22.0334C23.775 21.9584 23.75 21.7917 23.75 21.6584C23.75 21.475 23.7083 21.4167 23.5917 21.4167C23.4167 21.4167 23.3333 21.2584 23.3333 20.9084C23.3333 20.725 23.2917 20.6667 23.1667 20.6667C23.0333 20.6667 23 20.6084 23 20.375C23 20.2167 23.0333 20.0834 23.0667 20.0834C23.1333 20.0834 24.25 22.0084 24.25 22.1167C24.25 22.2334 23.85 22.1584 23.8 22.0334Z" fill="url(#paint46_radial_10135_25861)"/>
<path d="M22.5835 19.625C22.5835 19.2667 22.6668 19.2584 22.8585 19.575C23.0418 19.8917 23.0418 19.9167 22.7918 19.9167C22.6085 19.9167 22.5835 19.8834 22.5835 19.625Z" fill="url(#paint47_radial_10135_25861)"/>
<path d="M22.1665 18.8583L22.1748 18.5416L22.3748 18.775C22.6415 19.075 22.6332 19.1666 22.3748 19.1666C22.1915 19.1666 22.1665 19.1333 22.1665 18.8583Z" fill="url(#paint48_radial_10135_25861)"/>
<path d="M6.56678 12.5667C6.38345 12.3834 6.38345 12.3334 6.53345 12.3334C6.59178 12.3334 6.66678 12.4167 6.69178 12.5167C6.75845 12.75 6.74178 12.7584 6.56678 12.5667Z" fill="url(#paint49_linear_10135_25861)"/>
<path d="M7.43333 22.625C7.675 22.2583 7.75 22.2583 7.75 22.625C7.75 22.8916 7.73333 22.9166 7.5 22.9166H7.25L7.43333 22.625Z" fill="#00C8E6"/>
<path d="M9.1665 19.7083C9.1665 19.5916 9.43317 19.1666 9.49984 19.1666C9.54984 19.1666 9.58317 19.3 9.58317 19.4583C9.58317 19.7166 9.55817 19.75 9.37484 19.75C9.25817 19.75 9.1665 19.7333 9.1665 19.7083Z" fill="#00C8E6"/>
<path d="M0.182544 13.8728C0.014127 12.4391 0.77246 10.9679 1.93313 10.325C2.47263 10.0261 3.77254 9.83323 3.82288 9.99239C3.84788 10.0507 3.86463 10.2241 3.93129 10.1991C4.13963 10.1158 4.09146 10.1666 3.89146 10.4333C3.77479 10.5833 3.69979 10.75 3.72479 10.8C3.79979 11.0083 2.72479 12.175 2.04146 12.6333C1.81646 12.7916 1.62479 12.9583 1.62479 13.0166C1.62479 13.1416 1.55979 13.8957 1.49313 13.7957C1.45979 13.7457 1.56738 13.8895 1.49238 13.9561C1.39238 14.0311 0.209794 14.1046 0.182544 13.8728Z" fill="url(#paint50_linear_10135_25861)"/>
<path d="M11.5748 27.9417C11.4998 27.8083 11.4915 27.5583 11.5415 27.025C11.5832 26.625 11.6165 25.8167 11.6248 25.2333C11.6332 24.65 11.6582 24.1417 11.6915 24.1167C11.7832 24.0167 11.7582 23.9167 11.6415 23.9167C11.5832 23.9167 11.3165 24.25 11.0582 24.65C10.2582 25.9083 9.2665 26.6667 8.4415 26.6667C8.15816 26.6667 8.09983 26.6917 8.13316 26.7917C8.1665 26.875 8.13316 26.9167 8.0415 26.9167C7.9665 26.9167 7.72483 27.0583 7.50816 27.2333C7.29983 27.4083 7.00816 27.625 6.85816 27.7083C6.7165 27.7917 6.6165 27.9083 6.6415 27.9667C6.67483 28.05 6.6415 28.0583 6.47483 27.975C6.32483 27.9083 6.15816 27.6333 5.84983 26.95L4.80566 24.4333C6.31216 24.6778 8.25666 24.5433 8.25666 24.5433C8.915 24.435 8.40708 24.0026 9.02375 24.2109C9.72375 24.4526 8.83766 25.0231 9.43766 24.6231C9.621 24.4981 9.85983 24.538 9.94316 24.488C10.0348 24.4463 10.1677 24.6736 10.1677 24.6236C10.1677 24.5736 10.4715 24.8322 10.5465 24.7738C10.7798 24.5822 10.8748 24.2417 12.2165 21.95C12.9332 20.7167 13.8582 19.1583 14.2748 18.475C15.0082 17.3 15.0498 17.25 15.3082 17.25C15.5665 17.25 15.5832 17.2667 15.5832 17.525C15.5832 17.6667 15.4832 17.9417 15.3748 18.125C15.2582 18.3083 15.1665 18.5417 15.1665 18.6417C15.1665 18.7333 15.0748 19.0167 14.9582 19.2667C14.8415 19.5083 14.7498 19.7833 14.7498 19.875C14.7498 19.9667 14.6915 20.1583 14.6165 20.2917C14.3748 20.7417 13.8248 22.3583 13.4748 23.625C13.2082 24.6 13.1332 25.0333 13.1248 25.5833L13.1165 26.2917L12.5915 27.2167C12.1582 27.975 12.0332 28.1333 11.8748 28.1333C11.7582 28.1333 11.6332 28.0583 11.5748 27.9417Z" fill="url(#paint51_linear_10135_25861)"/>
<path d="M22.2251 25.7166C21.7501 25.3583 21.1668 24.5666 20.4001 23.2333C19.5418 21.725 19.3168 21.2833 19.2835 20.9916C19.2585 20.775 19.5085 19.9666 19.7668 19.4166C20.1001 18.7333 21.0251 17.0833 21.1335 16.9916C21.2835 16.8666 21.3085 16.9 21.6585 17.5083C21.8418 17.85 22.0249 18.0945 21.9499 18.1278C21.8416 18.1611 20.9168 19.575 20.9168 19.7333C20.9168 19.775 20.7835 20.0916 20.6251 20.425C20.4668 20.7666 20.3001 21.2666 20.2585 21.5416C20.1835 22 20.1918 22.075 20.4001 22.5C20.5251 22.75 20.6751 23 20.7335 23.0666C20.7835 23.125 20.8335 23.2333 20.8335 23.2916C20.8335 23.4 21.3001 23.5833 21.5668 23.5833C21.6168 23.5833 21.6668 23.6166 21.6668 23.6583C21.6668 23.6916 21.9918 23.6583 22.4001 23.575C22.8001 23.4916 23.4918 23.3916 23.9501 23.3666C24.6251 23.3166 24.7835 23.2833 24.8085 23.1666C24.8418 23.0416 24.8651 23.1307 25.3085 23.275C26.08 23.526 27.1119 23.571 27.7835 23.0083C28.018 22.8118 28.016 22.7727 27.3335 24.275C26.8753 25.2834 26.6668 25.6166 26.6668 25.325C26.6668 25.2083 26.0085 25.3083 25.2918 25.55C24.4418 25.825 23.7835 25.9416 23.3585 25.875C23.1335 25.8416 23.0001 25.85 23.0335 25.9C23.0585 25.9416 22.9668 25.975 22.8335 25.9833C22.6751 25.9833 22.4501 25.8916 22.2251 25.7166Z" fill="url(#paint52_radial_10135_25861)"/>
<path d="M24.0584 22.5417C23.9834 22.375 23.9167 22.1333 23.9167 22C23.9167 21.8083 23.8751 21.75 23.7584 21.75C23.5834 21.75 23.5001 21.5917 23.5001 21.2417C23.5001 21.0583 23.4584 21 23.3417 21C23.1667 21 23.0834 20.8417 23.0834 20.4917C23.0834 20.3083 23.0417 20.25 22.9251 20.25C22.7501 20.25 22.6667 20.0917 22.6667 19.7417C22.6667 19.5583 22.6251 19.5 22.5084 19.5C22.4251 19.5 22.3251 19.4417 22.3001 19.3667C22.2251 19.175 22.2417 18.75 22.3167 18.75C22.3584 18.75 22.8917 19.6667 23.5167 20.7917C24.6334 22.7917 24.6501 22.8333 24.4251 22.8333C24.2501 22.8333 24.1667 22.7667 24.0584 22.5417Z" fill="url(#paint53_radial_10135_25861)"/>
<path d="M9.26677 19.525C9.55844 18.9083 9.66677 18.85 9.66677 19.2917C9.66677 19.55 9.64177 19.5833 9.45011 19.5833C9.33344 19.5833 9.25011 19.5583 9.26677 19.525Z" fill="#00BFF9"/>
<path d="M20.6832 23.65C20.4582 23.2667 20.1415 22.725 19.9915 22.4417C19.7165 21.9417 19.7165 21.925 19.8665 21.7667C19.9498 21.6667 19.9915 21.5584 19.9665 21.5167C19.9082 21.4167 20.1832 20.5417 20.4415 20.025C20.5665 19.7834 20.6665 19.55 20.6665 19.5C20.6665 19.3334 21.5415 17.5917 21.6248 17.5917C21.6748 17.5834 21.8082 17.7667 21.9248 17.9834C24.3332 22.3917 24.7332 23.025 25.3332 23.3334C25.4915 23.425 25.5915 23.4917 25.5415 23.5C25.4998 23.5 25.5165 23.5417 25.5832 23.5917C25.6748 23.6584 25.6498 23.6667 25.4582 23.6167C24.9165 23.4834 23.3915 23.6417 22.0415 23.9584C21.5915 24.0667 21.5332 24.0584 21.4415 23.9417C21.3832 23.8667 21.3082 23.825 21.2832 23.8584C21.2498 23.8917 21.1665 23.8667 21.0998 23.8084C20.9915 23.725 20.9832 23.7334 21.0415 23.8334C21.1165 23.9584 21.1832 24.3334 21.1248 24.3334C21.1082 24.3334 20.9082 24.025 20.6832 23.65Z" fill="url(#paint54_radial_10135_25861)"/>
<path d="M4.98333 23.775C4.8 23.75 4.75 23.6917 4.75 23.5417C4.75 23.3584 4.76667 23.35 5 23.4334C5.14167 23.475 5.51667 23.5 5.825 23.4834C6.29167 23.4584 6.475 23.4 6.825 23.1917L7.25 22.925V23.1667C7.25 23.3334 7.20833 23.4167 7.125 23.4167C7.05833 23.4167 7 23.45 7 23.5C7 23.7167 5.75 23.8917 4.98333 23.775Z" fill="url(#paint55_linear_10135_25861)"/>
<path d="M25.8249 23.675C25.8833 23.6334 25.8999 23.5834 25.8666 23.5667C25.8249 23.5417 25.8416 23.5417 25.8999 23.5584C25.9666 23.5667 26.0666 23.5834 26.1333 23.5834C26.1999 23.5834 26.2499 23.625 26.2499 23.6667C26.2499 23.7167 26.1249 23.75 25.9833 23.75C25.7916 23.75 25.7416 23.725 25.8249 23.675Z" fill="url(#paint56_radial_10135_25861)"/>
<path d="M31.0418 15.5917C31.1335 15.4334 30.8501 15.3834 29.8335 15.3667C28.9501 15.3584 28.6918 15.325 28.1085 15.1334C27.2501 14.8584 26.3585 14.2667 25.6835 13.5417L25.1835 13L25.0085 13.225L24.7651 13.622L24.9085 13.2417C25.1835 12.475 25.7751 11.375 26.1251 11.0084C26.8668 10.2167 28.0335 9.81671 29.0668 10C30.8918 10.3167 32.1668 12.0584 31.8418 13.8084C31.7335 14.3917 31.3585 15.3334 31.2335 15.3334C31.1835 15.3334 31.1668 15.3834 31.1918 15.45C31.2168 15.5167 31.1835 15.5917 31.1168 15.6167C31.0501 15.6417 31.0168 15.6334 31.0418 15.5917Z" fill="url(#paint57_linear_10135_25861)"/>
<path d="M9.50016 25.1583C9.29182 25.125 8.50849 25.0667 7.75016 25.0417C6.99182 25.0167 6.13349 24.95 5.83349 24.8917C5.53349 24.8417 5.25016 24.8083 5.19182 24.8167C5.13349 24.8333 5.05016 24.7583 5.00016 24.6583C4.94182 24.5667 5.11949 25.0586 5.08424 25.0562C5.02507 25.0521 4.14399 23.0552 4.09674 22.9707C4.09266 22.9634 4.29182 23.05 4.54182 23.2083C5.13349 23.5583 5.67516 23.6417 6.27516 23.4667C7.03349 23.25 7.35016 22.8667 8.55849 20.75C9.78349 18.5833 9.91682 18.4 9.91682 18.8667C9.91682 19.175 9.83349 19.3333 9.65849 19.3333C9.53349 19.3333 9.50016 19.3917 9.50016 19.625C9.50016 19.825 9.45849 19.9167 9.37516 19.9167C9.30849 19.9167 9.25016 19.9917 9.25016 20.075C9.25016 20.325 9.15849 20.5 9.03349 20.5C8.96682 20.5 8.91682 20.575 8.91682 20.6583C8.91682 20.9083 8.82516 21.0833 8.70016 21.0833C8.63349 21.0833 8.58349 21.1583 8.58349 21.2417C8.58349 21.4917 8.49182 21.6667 8.36682 21.6667C8.30016 21.6667 8.25016 21.75 8.25016 21.8667C8.25016 22.05 8.28349 22.0667 8.98349 22.1167C9.38349 22.15 10.0668 22.225 10.5002 22.2917C10.9418 22.3583 11.4418 22.3917 11.6085 22.3583C11.8918 22.3167 11.9502 22.2583 12.4252 21.425C12.7085 20.9417 12.9668 20.525 13.0002 20.5C13.0335 20.475 13.0835 20.375 13.1168 20.275C13.1502 20.1667 13.2168 20.0833 13.2585 20.0833C13.3002 20.0833 13.3335 20.0333 13.3335 19.9667C13.3335 19.9 13.3835 19.7917 13.4502 19.7333C13.5085 19.6667 13.5918 19.5333 13.6168 19.4333C13.6502 19.3333 13.7168 19.25 13.7585 19.25C13.8002 19.25 13.8335 19.2 13.8335 19.1333C13.8335 19.0667 13.8835 18.9583 13.9502 18.9C14.0085 18.8333 14.0918 18.7 14.1168 18.6C14.1502 18.5 14.2168 18.4167 14.2585 18.4167C14.3002 18.4167 14.3335 18.3583 14.3335 18.2917C14.3335 18.225 14.3752 18.1667 14.4168 18.1667C14.4668 18.1667 14.5002 18.1167 14.5002 18.05C14.5002 17.9833 14.5502 17.875 14.6085 17.8167C14.6585 17.7583 14.7752 17.5667 14.8668 17.4C14.9502 17.2333 15.0918 17.0167 15.1752 16.925C15.2668 16.8333 15.3335 16.7167 15.3335 16.6667C15.3335 16.625 15.3752 16.5833 15.4168 16.5833C15.4668 16.5833 15.5002 16.525 15.5002 16.4583C15.5002 16.3917 15.5418 16.3333 15.5835 16.3333C15.6335 16.3333 15.6668 16.275 15.6668 16.2083C15.6668 16.1417 15.7085 16.0833 15.7502 16.0833C15.8002 16.0833 15.8335 16.025 15.8335 15.9583C15.8335 15.8917 15.8752 15.8333 15.9168 15.8333C15.9668 15.8333 16.0002 15.775 16.0002 15.7083C16.0002 15.6333 16.0585 15.5583 16.1252 15.5333C16.1918 15.5 16.2502 15.4333 16.2502 15.3667C16.2502 15.3 16.2918 15.25 16.3335 15.25C16.3835 15.25 16.4168 15.1917 16.4168 15.125C16.4168 15.05 16.4752 14.975 16.5418 14.95C16.6085 14.9167 16.6668 14.85 16.6668 14.7833C16.6668 14.7167 16.7085 14.6667 16.7502 14.6667C16.8002 14.6667 16.8335 14.6167 16.8335 14.55C16.8335 14.4833 16.9002 14.375 16.9835 14.3167C17.0585 14.2583 17.1752 14.1167 17.2335 14C17.4918 13.5167 17.8335 13.25 18.2085 13.25C18.4085 13.25 18.4835 13.3 18.5668 13.4917C18.7168 13.8333 19.1002 14 19.4835 13.9C19.6585 13.8583 19.9502 13.8 20.1502 13.775C20.4918 13.725 20.5002 13.7333 20.5002 13.975C20.5002 14.1167 20.3898 14.3511 20.3232 14.4011C20.1315 14.5594 18.6418 16.6417 18.1085 17.5C17.8335 17.9333 17.2502 18.9333 16.8168 19.7083C14.6585 23.5667 12.9713 26.6607 12.8547 26.6607C12.8213 26.6607 12.2131 24.6085 12.2547 24.5085C12.2964 24.4002 12.8584 23.8176 12.8251 23.7259C12.7667 23.5676 11.9557 24.0689 12.1224 23.8522C12.1891 23.7772 13.2964 21.7301 13.3547 21.4717C13.4131 21.2301 14.2309 19.2926 14.7976 18.2509C15.1476 17.5926 17.0002 17.05 17.0002 17C17.0002 16.9583 17.0418 16.9167 17.0835 16.9167C17.1335 16.9167 17.1668 16.8417 17.1668 16.75C17.1668 16.6583 17.2002 16.5833 17.2418 16.5833C17.3335 16.5833 17.9168 15.4 17.9168 15.2167C17.9168 15.1417 17.9585 15.0833 18.0085 15.0833C18.0585 15.0833 18.0752 15.0083 18.0418 14.9167C18.0085 14.825 18.0252 14.75 18.0752 14.75C18.1252 14.75 18.1668 14.675 18.1668 14.575C18.1668 14.3 18.7591 14.7284 18.9166 14.789C19.0249 14.8307 18.9962 17.6717 18.5554 14.874C18.5325 14.7283 18.1037 15.2822 18.0703 15.1906C18.0287 15.0656 18.9535 15.2537 18.5368 15.7621C17.2785 17.2954 14.9168 17.9167 12.6668 21.7917C10.9585 24.725 10.7002 25.1083 10.4918 25.0583C10.4085 25.0333 10.3335 25.05 10.3335 25.1C10.3335 25.1417 10.3002 25.15 10.2502 25.125C10.2085 25.1 10.1668 25.1167 10.1668 25.1583C10.1668 25.2583 10.0418 25.2583 9.50016 25.1583Z" fill="url(#paint58_linear_10135_25861)"/>
<path d="M9.47499 13.2416C9.08332 13.0333 8.59999 12.55 8.34999 12.0916C8.33116 12.104 8.09824 11.5622 8.12991 11.5414L9.10832 11.75H10.0583L9.99166 12.15C9.95832 12.3666 9.92499 12.7416 9.92499 12.9833C9.91666 13.2166 9.89166 13.4166 9.85832 13.4166C9.81666 13.4083 9.64999 13.3333 9.47499 13.2416Z" fill="url(#paint59_linear_10135_25861)"/>
<path d="M7.17497 22.9833C7.33331 22.825 7.93331 21.875 8.50831 20.8667C10.8166 16.8583 12.6333 13.7583 13.025 13.1667C13.4833 12.475 15.075 10.8417 15.6833 10.425L16.3342 10.0305L16.0833 10.3917C16.0833 10.525 15.95 10.875 15.7916 11.175C15.4583 11.8167 15.225 12.7 15.3 13.0917C15.3833 13.5084 15.65 13.9583 15.925 14.1167C16.1666 14.2583 16.1833 14.2583 16.6916 14.0083C17.3333 13.6917 17.5083 13.5833 17.65 13.4C17.7166 13.3084 17.8666 13.25 18.05 13.25C18.3166 13.25 18.3333 13.2667 18.325 13.525C18.3166 13.6667 18.3 13.725 18.275 13.6417C18.2583 13.5667 18.2083 13.5 18.175 13.5C17.8333 13.5 15.6833 16.65 13.4583 20.375C12.0333 22.775 11.7583 23.2167 11.875 22.9C11.9583 22.6917 11.85 22.55 11.7083 22.6667C11.6166 22.7417 11.4 22.7333 10.8166 22.6333C9.95831 22.4917 8.66664 22.3333 8.30831 22.3333C8.14997 22.3333 7.98331 22.4333 7.74997 22.6917C7.56664 22.8833 7.39164 23.0417 7.34997 23.0417C7.31664 23.05 7.19997 23.1 7.09164 23.1583C6.93331 23.2417 6.95831 23.2083 7.17497 22.9833Z" fill="url(#paint60_linear_10135_25861)"/>
<path d="M16.5834 19.9167C16.6751 19.7334 16.7751 19.5834 16.7918 19.5834C16.8168 19.5834 16.7584 19.7334 16.6668 19.9167C16.5751 20.1 16.4751 20.25 16.4584 20.25C16.4334 20.25 16.4918 20.1 16.5834 19.9167Z" fill="url(#paint61_linear_10135_25861)"/>
<path d="M16.9999 19.1667C17.0916 18.9834 17.1916 18.8334 17.2083 18.8334C17.2333 18.8334 17.1749 18.9834 17.0833 19.1667C16.9916 19.35 16.8916 19.5 16.8749 19.5C16.8499 19.5 16.9083 19.35 16.9999 19.1667Z" fill="url(#paint62_linear_10135_25861)"/>
<path d="M17.3417 18.5667C17.5334 18.2083 18.3667 16.875 18.6417 16.4917C18.7917 16.275 18.9167 16.0833 18.9167 16.05C18.9167 16.0167 19.0667 15.7917 19.2501 15.55C19.4334 15.3083 19.5834 15.0417 19.5834 14.9667C19.5834 14.8917 19.6251 14.85 19.6667 14.875C19.7417 14.925 19.7834 14.7917 19.7751 14.525C19.7667 14.4667 19.8084 14.4167 19.8501 14.4167C19.9667 14.4167 20.1667 14.1917 20.1084 14.1333C20.0251 14.05 19.9001 14.075 19.9584 14.1667C19.9917 14.2167 19.9084 14.225 19.7417 14.1917C19.5584 14.1583 19.4917 14.1667 19.5251 14.2333C19.5667 14.2833 19.5251 14.3 19.4167 14.275C19.2001 14.2167 19.2001 14 19.4167 14C19.5084 14 19.5834 13.9667 19.5834 13.9167C19.5834 13.875 19.6251 13.8333 19.6751 13.8333C19.7251 13.8333 19.9834 13.7333 20.2501 13.6167C20.5167 13.5 21.4866 13.0324 21.5312 12.9807C21.6563 12.8358 22.7352 11.8246 20.8582 13.7735C20.781 13.8537 20.0259 14.7742 19.9281 14.881C19.6196 15.2181 19.9314 14.7977 19.9251 14.8167C19.9167 14.85 19.6751 15.1917 19.3834 15.5833C18.7667 16.4167 18.1667 17.3 17.6751 18.15C17.4751 18.475 17.3001 18.75 17.2834 18.75C17.2584 18.75 17.2917 18.6667 17.3417 18.5667Z" fill="url(#paint63_linear_10135_25861)"/>
<path d="M9.85836 12.1416C9.90836 12.0083 9.1167 11.9583 8.95003 12.0916C8.85836 12.1666 8.83336 12.1583 8.83336 12.075C8.83336 11.9833 8.8167 11.9833 8.7667 12.0583C8.70836 12.1416 8.65003 12.1416 8.47503 12.0583C8.1917 11.9333 7.97161 11.3577 8.00003 10.6583C8.04686 9.50662 8.84653 8.83854 9.3782 8.79145C9.76545 8.75712 10.1043 8.78812 10.354 9.06737C10.6038 9.34662 10.6749 9.45045 10.6667 9.83329C10.6603 10.1332 10.5917 10.425 10.425 10.7916C10.2917 11.0833 10.1334 11.525 10.0667 11.7833C10.0084 12.0416 9.92503 12.25 9.8917 12.25C9.85003 12.25 9.83336 12.2 9.85836 12.1416Z" fill="url(#paint64_linear_10135_25861)"/>
<path d="M12.5165 10.4834C12.3165 10.2417 12.1415 9.35004 12.1415 8.58337C12.1332 7.71671 12.2582 7.01671 12.5248 6.37504C12.7248 5.88337 13.3915 4.83337 13.5082 4.83337C13.5498 4.83337 13.5832 4.96671 13.5832 5.12504C13.5832 5.36671 13.5498 5.41671 13.3998 5.41671C13.2582 5.41671 13.2415 5.44171 13.3165 5.51671C13.3748 5.57504 13.4165 5.68337 13.4165 5.76671C13.4165 6.14171 15.0832 6.92504 16.1998 7.07504C16.8332 7.16671 16.8665 7.15837 17.2165 6.95837C17.4082 6.84171 17.6832 6.75004 17.8248 6.75004C18.0665 6.75004 18.0832 6.72504 18.0832 6.45837C18.0832 6.26671 18.1248 6.16671 18.1998 6.16671C18.2582 6.16671 18.3332 6.05837 18.3665 5.91671C18.4082 5.70837 18.4498 5.66671 18.6665 5.66671C18.7998 5.66671 18.7208 4.80804 18.7208 4.84971C19.0859 4.80521 18.5299 6.34321 17.6643 6.90896C17.5643 6.95062 18.1168 6.79679 18.1002 6.88012C18.0418 7.08012 17.1248 7.68337 16.3498 8.00004C14.6498 8.70837 13.3748 9.55004 12.9165 10.2917C12.7248 10.6084 12.6498 10.6417 12.5165 10.4834Z" fill="url(#paint65_linear_10135_25861)"/>
<path d="M18.2502 13.625C18.2502 13.475 18.0752 13.4583 17.9335 13.6C17.8585 13.675 17.8335 13.6416 17.8335 13.4333C17.8335 13.1833 17.8502 13.1666 18.1252 13.1666C18.4002 13.1666 18.4168 13.1833 18.4168 13.4583C18.4168 13.6166 18.3835 13.75 18.3335 13.75C18.2918 13.75 18.2502 13.6916 18.2502 13.625Z" fill="#59E9FE"/>
<path d="M16.1248 7.35829C15.7165 7.29996 15.1165 7.15829 14.7915 7.04163C13.9915 6.74996 13.1915 6.23329 13.1498 5.98329C13.1331 5.87496 13.0831 5.79163 13.0248 5.79163C12.9748 5.79163 12.8896 5.96988 12.8562 5.93654C12.8235 5.89513 12.8746 5.67746 12.9081 5.66663C12.9416 5.65579 12.9758 5.62829 12.9665 5.59163C12.9571 5.55496 13.0508 5.42763 13.1248 5.29996C13.2106 5.15204 13.3102 5.03254 13.3331 5.00829C13.401 4.93646 13.6331 4.66663 13.7831 4.66663C13.8665 4.66663 14.0915 4.78329 14.2998 4.92496C14.8915 5.32496 15.6915 5.66663 16.2665 5.75829C16.7248 5.83329 16.8915 5.81663 17.6081 5.62496C18.0498 5.50829 18.5081 5.41663 18.6248 5.41663C18.8081 5.41663 18.8331 5.44996 18.8331 5.71663C18.8331 5.89163 18.7998 5.99163 18.7498 5.95829C18.7081 5.93329 18.6665 5.93329 18.6581 5.97496C18.6581 6.00829 18.6415 6.12496 18.6331 6.23329C18.6165 6.34163 18.4081 6.62496 18.1665 6.85829C17.9248 7.09996 17.7498 7.22496 17.7831 7.14162C17.8331 6.99996 17.8165 6.99996 17.5581 7.15829C17.0915 7.44996 16.9165 7.47496 16.1248 7.35829Z" fill="url(#paint66_linear_10135_25861)"/>
<path d="M21.875 5.08328C20.95 4.62494 20.7781 3.28694 21.6083 2.65828C21.8761 2.45544 22.5738 2.21228 22.7786 2.38028C22.987 2.59694 22.9251 2.71428 23.4417 2.68928C23.44 2.67486 23.8381 2.98278 23.875 3.28328C24.35 4.52494 23.0666 5.67494 21.875 5.08328Z" fill="url(#paint67_linear_10135_25861)"/>
<path d="M15.8919 5.99995C15.4252 5.91662 14.5835 5.54162 14.0335 5.15829C13.7085 4.93329 13.6169 4.90829 13.4919 4.99162C13.1585 5.19162 13.3585 4.90829 13.8585 4.45829C14.5752 3.80829 15.5335 3.34162 16.3002 3.27495C17.7919 3.14995 18.7232 4.0447 18.9018 5.2987C18.9406 5.5712 18.7405 6.24995 18.5744 6.35129C18.4082 6.45262 18.4298 6.30362 18.4298 6.25362C18.4298 6.21195 18.5319 6.04345 18.4903 6.11012C18.4236 6.21012 18.5835 6.07495 18.5835 5.90829V5.69162L17.8252 5.88329C17.0419 6.09162 16.5919 6.11662 15.8919 5.99995Z" fill="url(#paint68_linear_10135_25861)"/>
<path d="M23.7167 3.27501C23.6833 3.23334 23.3583 3.20834 23 3.20834C22.4083 3.20834 22.3333 3.19167 22.125 2.98334C22 2.85001 21.8167 2.75001 21.725 2.75001C21.475 2.75001 21.6917 2.53334 22.0667 2.40834C22.475 2.27501 22.7583 2.29167 23.1417 2.48334C23.5167 2.68334 23.7417 2.90834 23.7917 3.15834C23.825 3.35001 23.8167 3.36667 23.7167 3.27501Z" fill="url(#paint69_linear_10135_25861)"/>
<path d="M18.5167 14C18.4083 13.9 18.2833 13.725 18.2417 13.6084C18.175 13.4334 17.7602 13.6431 17.6602 13.7265C17.5519 13.8181 17.9167 13.5667 17.9167 13.3667C17.9167 13.175 18.0833 12.9417 18.6833 12.3C19.725 11.1834 20.175 10.8334 20.5833 10.8334C20.875 10.8334 20.9 10.85 20.95 11.15C21.075 11.9167 20.9167 12.9917 20.6333 13.275C20.5667 13.3334 20.5333 13.4834 20.5583 13.5917C20.5917 13.775 20.55 13.825 20.2333 13.95C20.0333 14.0334 19.6167 14.1167 19.2917 14.1417C18.775 14.175 18.6833 14.1584 18.5167 14Z" fill="url(#paint70_linear_10135_25861)"/>
<path d="M20.2998 13.8166C20.3415 13.7583 20.3165 13.7416 20.2248 13.7749C20.1415 13.8083 20.1082 13.7916 20.1248 13.7249C20.1498 13.6666 20.1832 13.5249 20.1998 13.3916C20.2248 13.2666 20.2998 13.1083 20.3665 13.0333C20.6415 12.7583 20.8665 11.5833 20.6582 11.4499C20.6082 11.4249 20.5832 11.3249 20.6082 11.2416C20.6332 11.1499 20.6165 11.0833 20.5832 11.0833C20.4332 11.0833 19.6665 11.7666 18.9332 12.5499L18.1665 13.3749V13.0749C18.1665 12.7333 18.2915 12.5833 18.5582 12.5833C18.7082 12.5833 18.7498 12.5416 18.7498 12.3499C18.7498 12.1833 18.8665 11.9999 19.1915 11.6833C19.4332 11.4416 19.6498 11.2499 19.6748 11.2499C19.6998 11.2499 19.8915 11.0916 20.0998 10.8999C20.8998 10.1583 22.0248 9.64161 23.0665 9.54161C23.6248 9.48328 23.6665 9.49161 23.8665 9.69161C24.1082 9.93328 24.2082 10.2416 24.1332 10.5333C24.1082 10.6499 23.7748 11.0166 23.3998 11.3499C23.0165 11.6833 22.3165 12.3416 21.8332 12.8083C21.3415 13.2833 20.8165 13.7083 20.6332 13.7833C20.2498 13.9416 20.2248 13.9416 20.2998 13.8166Z" fill="url(#paint71_linear_10135_25861)"/>
<path d="M15.8417 14.425C15.5001 14.3333 15.1667 13.825 15.0917 13.3C14.9667 12.3583 15.3334 11.0833 15.9501 10.35C16.4001 9.825 18.1167 9 19.3417 8.71666C21.1251 8.30833 22.7417 8.56667 23.6084 9.4C23.9834 9.75833 24.1667 10.075 24.1667 10.3667C24.1667 10.5833 23.9751 10.8333 23.8084 10.8333C23.7501 10.825 23.7917 10.7583 23.9001 10.675C24.1251 10.475 24.1334 10.25 23.9167 10C23.7834 9.84166 23.6751 9.80833 23.2917 9.81666C21.9751 9.825 20.3751 10.85 18.7334 12.725C17.9167 13.65 17.2167 14.2 16.6001 14.3833C16.1917 14.5083 16.1417 14.5083 15.8417 14.425Z" fill="url(#paint72_linear_10135_25861)"/>
</g>
<defs>
<linearGradient id="paint0_linear_10135_25861" x1="6.22831" y1="5.77251" x2="7.94271" y2="2.82113" gradientUnits="userSpaceOnUse">
<stop stop-color="#1964E7"/>
<stop offset="1" stop-color="#6884F2"/>
</linearGradient>
<linearGradient id="paint1_linear_10135_25861" x1="0.390391" y1="2.84285" x2="2.1048" y2="5.79423" gradientUnits="userSpaceOnUse">
<stop stop-color="#00CCE6"/>
<stop offset="1" stop-color="#0082E7"/>
</linearGradient>
<radialGradient id="paint2_radial_10135_25861" cx="0" cy="0" r="1" gradientUnits="userSpaceOnUse" gradientTransform="translate(6.68404 5.33861) scale(2.49566 2.49566)">
<stop offset="0.23" stop-color="#00CDFF"/>
<stop offset="0.49" stop-color="#00BCFA"/>
<stop offset="0.77" stop-color="#00ABF8"/>
<stop offset="1" stop-color="#0098F7"/>
</radialGradient>
<radialGradient id="paint3_radial_10135_25861" cx="0" cy="0" r="1" gradientUnits="userSpaceOnUse" gradientTransform="translate(6.68385 5.33847) scale(2.49566 2.49566)">
<stop offset="0.23" stop-color="#00CDFF"/>
<stop offset="0.49" stop-color="#00BCFA"/>
<stop offset="0.77" stop-color="#00ABF8"/>
<stop offset="1" stop-color="#0098F7"/>
</radialGradient>
<radialGradient id="paint4_radial_10135_25861" cx="0" cy="0" r="1" gradientUnits="userSpaceOnUse" gradientTransform="translate(6.68419 5.33853) scale(2.49566)">
<stop offset="0.23" stop-color="#00CDFF"/>
<stop offset="0.49" stop-color="#00BCFA"/>
<stop offset="0.77" stop-color="#00ABF8"/>
<stop offset="1" stop-color="#0098F7"/>
</radialGradient>
<radialGradient id="paint5_radial_10135_25861" cx="0" cy="0" r="1" gradientUnits="userSpaceOnUse" gradientTransform="translate(6.68391 5.33849) scale(2.49565 2.49566)">
<stop offset="0.23" stop-color="#00CDFF"/>
<stop offset="0.49" stop-color="#00BCFA"/>
<stop offset="0.77" stop-color="#00ABF8"/>
<stop offset="1" stop-color="#0098F7"/>
</radialGradient>
<radialGradient id="paint6_radial_10135_25861" cx="0" cy="0" r="1" gradientUnits="userSpaceOnUse" gradientTransform="translate(6.68403 5.33857) scale(2.49566 2.49566)">
<stop offset="0.23" stop-color="#00CDFF"/>
<stop offset="0.49" stop-color="#00BCFA"/>
<stop offset="0.77" stop-color="#00ABF8"/>
<stop offset="1" stop-color="#0098F7"/>
</radialGradient>
<radialGradient id="paint7_radial_10135_25861" cx="0" cy="0" r="1" gradientUnits="userSpaceOnUse" gradientTransform="translate(6.68385 5.33854) scale(2.49566 2.49566)">
<stop offset="0.23" stop-color="#00CDFF"/>
<stop offset="0.49" stop-color="#00BCFA"/>
<stop offset="0.77" stop-color="#00ABF8"/>
<stop offset="1" stop-color="#0098F7"/>
</radialGradient>
<radialGradient id="paint8_radial_10135_25861" cx="0" cy="0" r="1" gradientUnits="userSpaceOnUse" gradientTransform="translate(6.68388 5.33853) scale(2.49566 2.49566)">
<stop offset="0.23" stop-color="#00CDFF"/>
<stop offset="0.49" stop-color="#00BCFA"/>
<stop offset="0.77" stop-color="#00ABF8"/>
<stop offset="1" stop-color="#0098F7"/>
</radialGradient>
<radialGradient id="paint9_radial_10135_25861" cx="0" cy="0" r="1" gradientUnits="userSpaceOnUse" gradientTransform="translate(6.68423 5.33859) scale(2.49566)">
<stop offset="0.23" stop-color="#00CDFF"/>
<stop offset="0.49" stop-color="#00BCFA"/>
<stop offset="0.77" stop-color="#00ABF8"/>
<stop offset="1" stop-color="#0098F7"/>
</radialGradient>
<radialGradient id="paint10_radial_10135_25861" cx="0" cy="0" r="1" gradientUnits="userSpaceOnUse" gradientTransform="translate(6.68418 5.33857) scale(2.49566)">
<stop offset="0.23" stop-color="#00CDFF"/>
<stop offset="0.49" stop-color="#00BCFA"/>
<stop offset="0.77" stop-color="#00ABF8"/>
<stop offset="1" stop-color="#0098F7"/>
</radialGradient>
<radialGradient id="paint11_radial_10135_25861" cx="0" cy="0" r="1" gradientUnits="userSpaceOnUse" gradientTransform="translate(6.68392 5.33861) scale(2.49565 2.49566)">
<stop offset="0.23" stop-color="#00CDFF"/>
<stop offset="0.49" stop-color="#00BCFA"/>
<stop offset="0.77" stop-color="#00ABF8"/>
<stop offset="1" stop-color="#0098F7"/>
</radialGradient>
<linearGradient id="paint12_linear_10135_25861" x1="0.390683" y1="2.84282" x2="2.10509" y2="5.79421" gradientUnits="userSpaceOnUse">
<stop stop-color="#00CCE6"/>
<stop offset="1" stop-color="#0082E7"/>
</linearGradient>
<linearGradient id="paint13_linear_10135_25861" x1="0.390382" y1="2.84285" x2="2.10479" y2="5.79423" gradientUnits="userSpaceOnUse">
<stop stop-color="#00CCE6"/>
<stop offset="1" stop-color="#0082E7"/>
</linearGradient>
<linearGradient id="paint14_linear_10135_25861" x1="2.43056" y1="3.77606" x2="4.16667" y2="6.77085" gradientUnits="userSpaceOnUse">
<stop stop-color="#0CF4FF"/>
<stop offset="0.28" stop-color="#04EEFE"/>
<stop offset="1" stop-color="#00B1F7"/>
</linearGradient>
<linearGradient id="paint15_linear_10135_25861" x1="0.390853" y1="2.84287" x2="2.10526" y2="5.79426" gradientUnits="userSpaceOnUse">
<stop stop-color="#00CCE6"/>
<stop offset="1" stop-color="#0082E7"/>
</linearGradient>
<radialGradient id="paint16_radial_10135_25861" cx="0" cy="0" r="1" gradientUnits="userSpaceOnUse" gradientTransform="translate(6.68381 5.33855) scale(2.49566)">
<stop offset="0.23" stop-color="#00CDFF"/>
<stop offset="0.49" stop-color="#00BCFA"/>
<stop offset="0.77" stop-color="#00ABF8"/>
<stop offset="1" stop-color="#0098F7"/>
</radialGradient>
<radialGradient id="paint17_radial_10135_25861" cx="0" cy="0" r="1" gradientUnits="userSpaceOnUse" gradientTransform="translate(6.68406 5.33869) scale(2.49566 2.49565)">
<stop offset="0.23" stop-color="#00CDFF"/>
<stop offset="0.49" stop-color="#00BCFA"/>
<stop offset="0.77" stop-color="#00ABF8"/>
<stop offset="1" stop-color="#0098F7"/>
</radialGradient>
<radialGradient id="paint18_radial_10135_25861" cx="0" cy="0" r="1" gradientUnits="userSpaceOnUse" gradientTransform="translate(6.68396 5.33852) scale(2.49566)">
<stop offset="0.23" stop-color="#00CDFF"/>
<stop offset="0.49" stop-color="#00BCFA"/>
<stop offset="0.77" stop-color="#00ABF8"/>
<stop offset="1" stop-color="#0098F7"/>
</radialGradient>
<radialGradient id="paint19_radial_10135_25861" cx="0" cy="0" r="1" gradientUnits="userSpaceOnUse" gradientTransform="translate(6.68389 5.33843) scale(2.49566 2.49567)">
<stop offset="0.23" stop-color="#00CDFF"/>
<stop offset="0.49" stop-color="#00BCFA"/>
<stop offset="0.77" stop-color="#00ABF8"/>
<stop offset="1" stop-color="#0098F7"/>
</radialGradient>
<radialGradient id="paint20_radial_10135_25861" cx="0" cy="0" r="1" gradientUnits="userSpaceOnUse" gradientTransform="translate(6.6837 5.33852) scale(2.49567 2.49566)">
<stop offset="0.23" stop-color="#00CDFF"/>
<stop offset="0.49" stop-color="#00BCFA"/>
<stop offset="0.77" stop-color="#00ABF8"/>
<stop offset="1" stop-color="#0098F7"/>
</radialGradient>
<radialGradient id="paint21_radial_10135_25861" cx="0" cy="0" r="1" gradientUnits="userSpaceOnUse" gradientTransform="translate(6.68405 5.33849) scale(2.49566 2.49566)">
<stop offset="0.23" stop-color="#00CDFF"/>
<stop offset="0.49" stop-color="#00BCFA"/>
<stop offset="0.77" stop-color="#00ABF8"/>
<stop offset="1" stop-color="#0098F7"/>
</radialGradient>
<radialGradient id="paint22_radial_10135_25861" cx="0" cy="0" r="1" gradientUnits="userSpaceOnUse" gradientTransform="translate(6.68414 5.33847) scale(2.49567 2.49566)">
<stop offset="0.23" stop-color="#00CDFF"/>
<stop offset="0.49" stop-color="#00BCFA"/>
<stop offset="0.77" stop-color="#00ABF8"/>
<stop offset="1" stop-color="#0098F7"/>
</radialGradient>
<radialGradient id="paint23_radial_10135_25861" cx="0" cy="0" r="1" gradientUnits="userSpaceOnUse" gradientTransform="translate(6.6839 5.33847) scale(2.49565 2.49566)">
<stop offset="0.23" stop-color="#00CDFF"/>
<stop offset="0.49" stop-color="#00BCFA"/>
<stop offset="0.77" stop-color="#00ABF8"/>
<stop offset="1" stop-color="#0098F7"/>
</radialGradient>
<linearGradient id="paint24_linear_10135_25861" x1="0.390775" y1="2.84297" x2="2.10518" y2="5.79435" gradientUnits="userSpaceOnUse">
<stop stop-color="#00CCE6"/>
<stop offset="1" stop-color="#0082E7"/>
</linearGradient>
<linearGradient id="paint25_linear_10135_25861" x1="0.390757" y1="2.84285" x2="2.10517" y2="5.79424" gradientUnits="userSpaceOnUse">
<stop stop-color="#00CCE6"/>
<stop offset="1" stop-color="#0082E7"/>
</linearGradient>
<linearGradient id="paint26_linear_10135_25861" x1="2.43072" y1="3.77602" x2="4.16683" y2="6.77081" gradientUnits="userSpaceOnUse">
<stop stop-color="#0CF4FF"/>
<stop offset="0.28" stop-color="#04EEFE"/>
<stop offset="1" stop-color="#00B1F7"/>
</linearGradient>
<radialGradient id="paint27_radial_10135_25861" cx="0" cy="0" r="1" gradientUnits="userSpaceOnUse" gradientTransform="translate(6.6839 5.33859) scale(2.49566)">
<stop offset="0.23" stop-color="#00CDFF"/>
<stop offset="0.49" stop-color="#00BCFA"/>
<stop offset="0.77" stop-color="#00ABF8"/>
<stop offset="1" stop-color="#0098F7"/>
</radialGradient>
<radialGradient id="paint28_radial_10135_25861" cx="0" cy="0" r="1" gradientUnits="userSpaceOnUse" gradientTransform="translate(6.68382 5.33854) scale(2.49566)">
<stop offset="0.23" stop-color="#00CDFF"/>
<stop offset="0.49" stop-color="#00BCFA"/>
<stop offset="0.77" stop-color="#00ABF8"/>
<stop offset="1" stop-color="#0098F7"/>
</radialGradient>
<radialGradient id="paint29_radial_10135_25861" cx="0" cy="0" r="1" gradientUnits="userSpaceOnUse" gradientTransform="translate(6.68384 5.33854) scale(2.49565 2.49566)">
<stop offset="0.23" stop-color="#00CDFF"/>
<stop offset="0.49" stop-color="#00BCFA"/>
<stop offset="0.77" stop-color="#00ABF8"/>
<stop offset="1" stop-color="#0098F7"/>
</radialGradient>
<radialGradient id="paint30_radial_10135_25861" cx="0" cy="0" r="1" gradientUnits="userSpaceOnUse" gradientTransform="translate(6.68389 5.33854) scale(2.49566 2.49566)">
<stop offset="0.23" stop-color="#00CDFF"/>
<stop offset="0.49" stop-color="#00BCFA"/>
<stop offset="0.77" stop-color="#00ABF8"/>
<stop offset="1" stop-color="#0098F7"/>
</radialGradient>
<radialGradient id="paint31_radial_10135_25861" cx="0" cy="0" r="1" gradientUnits="userSpaceOnUse" gradientTransform="translate(6.68387 5.33846) scale(2.49566 2.49566)">
<stop offset="0.23" stop-color="#00CDFF"/>
<stop offset="0.49" stop-color="#00BCFA"/>
<stop offset="0.77" stop-color="#00ABF8"/>
<stop offset="1" stop-color="#0098F7"/>
</radialGradient>
<radialGradient id="paint32_radial_10135_25861" cx="0" cy="0" r="1" gradientUnits="userSpaceOnUse" gradientTransform="translate(6.68386 5.33852) scale(2.49566 2.49566)">
<stop offset="0.23" stop-color="#00CDFF"/>
<stop offset="0.49" stop-color="#00BCFA"/>
<stop offset="0.77" stop-color="#00ABF8"/>
<stop offset="1" stop-color="#0098F7"/>
</radialGradient>
<radialGradient id="paint33_radial_10135_25861" cx="0" cy="0" r="1" gradientUnits="userSpaceOnUse" gradientTransform="translate(6.68404 5.33852) scale(2.49566 2.49565)">
<stop offset="0.23" stop-color="#00CDFF"/>
<stop offset="0.49" stop-color="#00BCFA"/>
<stop offset="0.77" stop-color="#00ABF8"/>
<stop offset="1" stop-color="#0098F7"/>
</radialGradient>
<radialGradient id="paint34_radial_10135_25861" cx="0" cy="0" r="1" gradientUnits="userSpaceOnUse" gradientTransform="translate(6.68423 5.33854) scale(2.49565 2.49566)">
<stop offset="0.23" stop-color="#00CDFF"/>
<stop offset="0.49" stop-color="#00BCFA"/>
<stop offset="0.77" stop-color="#00ABF8"/>
<stop offset="1" stop-color="#0098F7"/>
</radialGradient>
<radialGradient id="paint35_radial_10135_25861" cx="0" cy="0" r="1" gradientUnits="userSpaceOnUse" gradientTransform="translate(6.68392 5.33852) scale(2.49565 2.49567)">
<stop offset="0.23" stop-color="#00CDFF"/>
<stop offset="0.49" stop-color="#00BCFA"/>
<stop offset="0.77" stop-color="#00ABF8"/>
<stop offset="1" stop-color="#0098F7"/>
</radialGradient>
<radialGradient id="paint36_radial_10135_25861" cx="0" cy="0" r="1" gradientUnits="userSpaceOnUse" gradientTransform="translate(6.68406 5.33852) scale(2.49566 2.49566)">
<stop offset="0.23" stop-color="#00CDFF"/>
<stop offset="0.49" stop-color="#00BCFA"/>
<stop offset="0.77" stop-color="#00ABF8"/>
<stop offset="1" stop-color="#0098F7"/>
</radialGradient>
<radialGradient id="paint37_radial_10135_25861" cx="0" cy="0" r="1" gradientUnits="userSpaceOnUse" gradientTransform="translate(6.68422 5.33852) scale(2.49566 2.49566)">
<stop offset="0.23" stop-color="#00CDFF"/>
<stop offset="0.49" stop-color="#00BCFA"/>
<stop offset="0.77" stop-color="#00ABF8"/>
<stop offset="1" stop-color="#0098F7"/>
</radialGradient>
<radialGradient id="paint38_radial_10135_25861" cx="0" cy="0" r="1" gradientUnits="userSpaceOnUse" gradientTransform="translate(6.68383 5.33855) scale(2.49565 2.49566)">
<stop offset="0.23" stop-color="#00CDFF"/>
<stop offset="0.49" stop-color="#00BCFA"/>
<stop offset="0.77" stop-color="#00ABF8"/>
<stop offset="1" stop-color="#0098F7"/>
</radialGradient>
<linearGradient id="paint39_linear_10135_25861" x1="6.22837" y1="5.77257" x2="7.94278" y2="2.82118" gradientUnits="userSpaceOnUse">
<stop stop-color="#1964E7"/>
<stop offset="1" stop-color="#6884F2"/>
</linearGradient>
<linearGradient id="paint40_linear_10135_25861" x1="0.390452" y1="2.84293" x2="2.10486" y2="5.79432" gradientUnits="userSpaceOnUse">
<stop stop-color="#00CCE6"/>
<stop offset="1" stop-color="#0082E7"/>
</linearGradient>
<linearGradient id="paint41_linear_10135_25861" x1="2.4306" y1="3.77605" x2="4.16671" y2="6.77084" gradientUnits="userSpaceOnUse">
<stop stop-color="#0CF4FF"/>
<stop offset="0.28" stop-color="#04EEFE"/>
<stop offset="1" stop-color="#00B1F7"/>
</linearGradient>
<radialGradient id="paint42_radial_10135_25861" cx="0" cy="0" r="1" gradientUnits="userSpaceOnUse" gradientTransform="translate(6.68419 5.33859) scale(2.49566 2.49566)">
<stop offset="0.23" stop-color="#00CDFF"/>
<stop offset="0.49" stop-color="#00BCFA"/>
<stop offset="0.77" stop-color="#00ABF8"/>
<stop offset="1" stop-color="#0098F7"/>
</radialGradient>
<radialGradient id="paint43_radial_10135_25861" cx="0" cy="0" r="1" gradientUnits="userSpaceOnUse" gradientTransform="translate(6.6841 5.33855) scale(2.49566)">
<stop offset="0.23" stop-color="#00CDFF"/>
<stop offset="0.49" stop-color="#00BCFA"/>
<stop offset="0.77" stop-color="#00ABF8"/>
<stop offset="1" stop-color="#0098F7"/>
</radialGradient>
<radialGradient id="paint44_radial_10135_25861" cx="0" cy="0" r="1" gradientUnits="userSpaceOnUse" gradientTransform="translate(6.68388 5.33849) scale(2.49566 2.49566)">
<stop offset="0.23" stop-color="#00CDFF"/>
<stop offset="0.49" stop-color="#00BCFA"/>
<stop offset="0.77" stop-color="#00ABF8"/>
<stop offset="1" stop-color="#0098F7"/>
</radialGradient>
<radialGradient id="paint45_radial_10135_25861" cx="0" cy="0" r="1" gradientUnits="userSpaceOnUse" gradientTransform="translate(6.68401 5.33853) scale(2.49566 2.49566)">
<stop offset="0.23" stop-color="#00CDFF"/>
<stop offset="0.49" stop-color="#00BCFA"/>
<stop offset="0.77" stop-color="#00ABF8"/>
<stop offset="1" stop-color="#0098F7"/>
</radialGradient>
<radialGradient id="paint46_radial_10135_25861" cx="0" cy="0" r="1" gradientUnits="userSpaceOnUse" gradientTransform="translate(6.68405 5.33859) scale(2.49566 2.49566)">
<stop offset="0.23" stop-color="#00CDFF"/>
<stop offset="0.49" stop-color="#00BCFA"/>
<stop offset="0.77" stop-color="#00ABF8"/>
<stop offset="1" stop-color="#0098F7"/>
</radialGradient>
<radialGradient id="paint47_radial_10135_25861" cx="0" cy="0" r="1" gradientUnits="userSpaceOnUse" gradientTransform="translate(6.68418 5.33857) scale(2.49566)">
<stop offset="0.23" stop-color="#00CDFF"/>
<stop offset="0.49" stop-color="#00BCFA"/>
<stop offset="0.77" stop-color="#00ABF8"/>
<stop offset="1" stop-color="#0098F7"/>
</radialGradient>
<radialGradient id="paint48_radial_10135_25861" cx="0" cy="0" r="1" gradientUnits="userSpaceOnUse" gradientTransform="translate(6.68389 5.3385) scale(2.49566 2.49566)">
<stop offset="0.23" stop-color="#00CDFF"/>
<stop offset="0.49" stop-color="#00BCFA"/>
<stop offset="0.77" stop-color="#00ABF8"/>
<stop offset="1" stop-color="#0098F7"/>
</radialGradient>
<linearGradient id="paint49_linear_10135_25861" x1="0.390744" y1="2.84293" x2="2.10515" y2="5.79432" gradientUnits="userSpaceOnUse">
<stop stop-color="#00CCE6"/>
<stop offset="1" stop-color="#0082E7"/>
</linearGradient>
<linearGradient id="paint50_linear_10135_25861" x1="0.390419" y1="2.84286" x2="2.10483" y2="5.79425" gradientUnits="userSpaceOnUse">
<stop stop-color="#00CCE6"/>
<stop offset="1" stop-color="#0082E7"/>
</linearGradient>
<linearGradient id="paint51_linear_10135_25861" x1="2.43039" y1="3.77605" x2="4.1665" y2="6.77084" gradientUnits="userSpaceOnUse">
<stop stop-color="#0CF4FF"/>
<stop offset="0.28" stop-color="#04EEFE"/>
<stop offset="1" stop-color="#00B1F7"/>
</linearGradient>
<radialGradient id="paint52_radial_10135_25861" cx="0" cy="0" r="1" gradientUnits="userSpaceOnUse" gradientTransform="translate(6.68417 5.33851) scale(2.49566)">
<stop offset="0.23" stop-color="#00CDFF"/>
<stop offset="0.49" stop-color="#00BCFA"/>
<stop offset="0.77" stop-color="#00ABF8"/>
<stop offset="1" stop-color="#0098F7"/>
</radialGradient>
<radialGradient id="paint53_radial_10135_25861" cx="0" cy="0" r="1" gradientUnits="userSpaceOnUse" gradientTransform="translate(6.6841 5.33855) scale(2.49566)">
<stop offset="0.23" stop-color="#00CDFF"/>
<stop offset="0.49" stop-color="#00BCFA"/>
<stop offset="0.77" stop-color="#00ABF8"/>
<stop offset="1" stop-color="#0098F7"/>
</radialGradient>
<radialGradient id="paint54_radial_10135_25861" cx="0" cy="0" r="1" gradientUnits="userSpaceOnUse" gradientTransform="translate(6.68385 5.33858) scale(2.49566)">
<stop offset="0.23" stop-color="#00CDFF"/>
<stop offset="0.49" stop-color="#00BCFA"/>
<stop offset="0.77" stop-color="#00ABF8"/>
<stop offset="1" stop-color="#0098F7"/>
</radialGradient>
<linearGradient id="paint55_linear_10135_25861" x1="2.43056" y1="3.77615" x2="4.16666" y2="6.77093" gradientUnits="userSpaceOnUse">
<stop stop-color="#0CF4FF"/>
<stop offset="0.28" stop-color="#04EEFE"/>
<stop offset="1" stop-color="#00B1F7"/>
</linearGradient>
<radialGradient id="paint56_radial_10135_25861" cx="0" cy="0" r="1" gradientUnits="userSpaceOnUse" gradientTransform="translate(6.68397 5.33866) scale(2.49566 2.49565)">
<stop offset="0.23" stop-color="#00CDFF"/>
<stop offset="0.49" stop-color="#00BCFA"/>
<stop offset="0.77" stop-color="#00ABF8"/>
<stop offset="1" stop-color="#0098F7"/>
</radialGradient>
<linearGradient id="paint57_linear_10135_25861" x1="6.22844" y1="5.77261" x2="7.94285" y2="2.82123" gradientUnits="userSpaceOnUse">
<stop stop-color="#1964E7"/>
<stop offset="1" stop-color="#6884F2"/>
</linearGradient>
<linearGradient id="paint58_linear_10135_25861" x1="2.43071" y1="3.77605" x2="4.16682" y2="6.77084" gradientUnits="userSpaceOnUse">
<stop stop-color="#0CF4FF"/>
<stop offset="0.28" stop-color="#04EEFE"/>
<stop offset="1" stop-color="#00B1F7"/>
</linearGradient>
<linearGradient id="paint59_linear_10135_25861" x1="2.43055" y1="2.36542" x2="2.43055" y2="3.38538" gradientUnits="userSpaceOnUse">
<stop stop-color="#40FAFD"/>
<stop offset="1" stop-color="#00E0FF"/>
</linearGradient>
<linearGradient id="paint60_linear_10135_25861" x1="2.43053" y1="3.77606" x2="4.16664" y2="6.77085" gradientUnits="userSpaceOnUse">
<stop stop-color="#0CF4FF"/>
<stop offset="0.28" stop-color="#04EEFE"/>
<stop offset="1" stop-color="#00B1F7"/>
</linearGradient>
<linearGradient id="paint61_linear_10135_25861" x1="2.43067" y1="3.7761" x2="4.16677" y2="6.77089" gradientUnits="userSpaceOnUse">
<stop stop-color="#0CF4FF"/>
<stop offset="0.28" stop-color="#04EEFE"/>
<stop offset="1" stop-color="#00B1F7"/>
</linearGradient>
<linearGradient id="paint62_linear_10135_25861" x1="2.4305" y1="3.7761" x2="4.16661" y2="6.77089" gradientUnits="userSpaceOnUse">
<stop stop-color="#0CF4FF"/>
<stop offset="0.28" stop-color="#04EEFE"/>
<stop offset="1" stop-color="#00B1F7"/>
</linearGradient>
<linearGradient id="paint63_linear_10135_25861" x1="2.43064" y1="3.77604" x2="4.16675" y2="6.77083" gradientUnits="userSpaceOnUse">
<stop stop-color="#0CF4FF"/>
<stop offset="0.28" stop-color="#04EEFE"/>
<stop offset="1" stop-color="#00B1F7"/>
</linearGradient>
<linearGradient id="paint64_linear_10135_25861" x1="2.43059" y1="2.36541" x2="2.43059" y2="3.38537" gradientUnits="userSpaceOnUse">
<stop stop-color="#40FAFD"/>
<stop offset="1" stop-color="#00E0FF"/>
</linearGradient>
<linearGradient id="paint65_linear_10135_25861" x1="4.0363" y1="0.933201" x2="4.0363" y2="2.64761" gradientUnits="userSpaceOnUse">
<stop stop-color="#8EF6FD"/>
<stop offset="1" stop-color="#2BE8FF"/>
</linearGradient>
<linearGradient id="paint66_linear_10135_25861" x1="4.03627" y1="0.93312" x2="4.03627" y2="2.64753" gradientUnits="userSpaceOnUse">
<stop stop-color="#8EF6FD"/>
<stop offset="1" stop-color="#2BE8FF"/>
</linearGradient>
<linearGradient id="paint67_linear_10135_25861" x1="5.85935" y1="0.672686" x2="5.85935" y2="1.25862" gradientUnits="userSpaceOnUse">
<stop stop-color="#92EEFE"/>
<stop offset="1" stop-color="#59E5FE"/>
</linearGradient>
<linearGradient id="paint68_linear_10135_25861" x1="4.03665" y1="0.933115" x2="4.03665" y2="2.64752" gradientUnits="userSpaceOnUse">
<stop stop-color="#8EF6FD"/>
<stop offset="1" stop-color="#2BE8FF"/>
</linearGradient>
<linearGradient id="paint69_linear_10135_25861" x1="5.8594" y1="0.672751" x2="5.8594" y2="1.25869" gradientUnits="userSpaceOnUse">
<stop stop-color="#92EEFE"/>
<stop offset="1" stop-color="#59E5FE"/>
</linearGradient>
<linearGradient id="paint70_linear_10135_25861" x1="4.75261" y1="2.3872" x2="5.40365" y2="3.49397" gradientUnits="userSpaceOnUse">
<stop stop-color="#A6FEFF"/>
<stop offset="0.53" stop-color="#BFFDFE"/>
<stop offset="1" stop-color="#97EDFF"/>
</linearGradient>
<linearGradient id="paint71_linear_10135_25861" x1="4.75245" y1="2.3871" x2="5.40349" y2="3.49387" gradientUnits="userSpaceOnUse">
<stop stop-color="#A6FEFF"/>
<stop offset="0.53" stop-color="#BFFDFE"/>
<stop offset="1" stop-color="#97EDFF"/>
</linearGradient>
<linearGradient id="paint72_linear_10135_25861" x1="4.75268" y1="2.38715" x2="5.40372" y2="3.49392" gradientUnits="userSpaceOnUse">
<stop stop-color="#A6FEFF"/>
<stop offset="0.53" stop-color="#BFFDFE"/>
<stop offset="1" stop-color="#97EDFF"/>
</linearGradient>
<clipPath id="clip0_10135_25861">
<rect width="32" height="32" fill="white"/>
</clipPath>
</defs>
</svg>
