<svg width="32" height="32" viewBox="0 0 32 32" fill="none" xmlns="http://www.w3.org/2000/svg">
<mask id="mask0_10661_4487" style="mask-type:luminance" maskUnits="userSpaceOnUse" x="-12" y="-11" width="56" height="56">
<path d="M0.597307 -10.0658C-6.0151 -10.0658 -11.3755 -4.70038 -11.3755 1.91815V32.7341C-11.3755 39.3527 -6.0151 44.7181 0.597307 44.7181H31.3845C37.9968 44.7181 43.3573 39.3527 43.3573 32.7341V1.91815C43.3573 -4.70038 37.9968 -10.0658 31.3845 -10.0658H0.597307Z" fill="white"/>
</mask>
<g mask="url(#mask0_10661_4487)">
<path d="M16.0001 -0.000335441C10.5934 -0.000335441 5.8951 2.6232 3.01302 6.6235C2.91521 6.75928 2.91328 6.94353 2.81969 7.08236C1.98037 8.328 2.64961 11.9432 2.18497 13.401C1.69334 14.9435 0.952148 15.3432 0.952148 17.0424C0.952148 20.116 2.11506 21.2012 3.64122 23.4233C6.46391 27.5335 10.2685 30.5503 16.0954 30.5503C25.0727 30.5503 30.5711 24.9414 30.5711 16.1826C30.5711 14.3836 29.7175 12.6916 29.5444 11.0207C29.3887 9.51785 29.8989 8.05377 29.029 6.81615C29.0133 6.79384 29.0643 6.73157 29.0485 6.70931C26.172 2.66075 21.4453 -0.000335441 16.0001 -0.000335441Z" fill="url(#paint0_linear_10661_4487)"/>
</g>
<mask id="mask1_10661_4487" style="mask-type:luminance" maskUnits="userSpaceOnUse" x="-12" y="-11" width="56" height="56">
<path d="M-11.353 -10.0658H43.3522V44.7181H-11.353V-10.0658Z" fill="white"/>
</mask>
<g mask="url(#mask1_10661_4487)">
<path d="M29.0498 6.71151C28.9061 6.69444 28.7495 6.68187 28.6045 6.66897C28.3605 6.6472 28.1143 6.63281 27.8669 6.62318C27.6737 6.61569 27.4799 6.61061 27.2849 6.61087C26.6494 6.61146 26.0145 6.65331 25.3844 6.73617C24.0039 6.91663 22.6762 7.28701 21.451 7.81307C20.6196 8.17013 19.4195 8.87275 18.8143 9.28598C17.645 10.0845 16.2083 11.186 14.9732 12.1835C13.2083 13.6087 11.1945 15.0559 9.06873 15.1393C5.54713 15.2775 2.62884 12.3677 2.62452 8.83947C2.62339 8.27472 2.69695 7.71231 2.84328 7.1669C2.89083 6.99019 2.94586 6.81647 3.00777 6.64613L3.01424 6.6235C1.11793 9.25618 0 12.4881 0 15.9818C0 17.4441 0.197184 18.86 0.56388 20.2059H0.563505C0.567886 20.2218 0.573764 20.2371 0.578198 20.2529C0.671389 20.5902 0.775655 20.9243 0.89083 21.2547C0.92299 21.3469 0.960013 21.4367 0.993776 21.5282C1.08689 21.7806 1.18343 22.0312 1.28883 22.2774C1.33574 22.3873 1.38649 22.4948 1.43585 22.6034C1.53778 22.8277 1.64313 23.0499 1.75495 23.2684C1.81273 23.3806 1.87186 23.4922 1.93231 23.603C2.04612 23.8132 2.16462 24.0207 2.28774 24.2256C2.35286 24.3346 2.41931 24.4428 2.48706 24.5502C2.61645 24.7543 2.75134 24.954 2.88955 25.1517C2.95884 25.2508 3.02679 25.3506 3.09827 25.4481C3.25117 25.6566 3.41101 25.8594 3.57363 26.06C3.63752 26.1388 3.69875 26.2198 3.76403 26.2974C3.97298 26.5451 4.18933 26.7864 4.4128 27.0211C4.43668 27.0462 4.45869 27.0729 4.48268 27.0978C4.73808 27.3629 5.00247 27.6191 5.27537 27.866C5.27948 27.8697 5.28312 27.8739 5.28723 27.8775L5.2867 27.8782C5.2867 27.8782 5.28621 27.8787 5.28595 27.8789H5.286C3.8026 29.3561 2.00411 30.5165 0 31.2495L0.000211945 31.2496C1.34925 31.7348 3.01028 31.9999 4.52611 31.9999C6.39047 31.9999 8.19842 31.5235 9.81067 30.7568C9.81356 30.7554 9.81612 30.7537 9.81901 30.7523C11.7215 31.5515 13.8075 31.9999 16 31.9999C24.8366 31.9999 32 24.8283 32 15.9818C32 12.5271 30.9077 9.32798 29.0498 6.71151Z" fill="white"/>
</g>
<mask id="mask2_10661_4487" style="mask-type:luminance" maskUnits="userSpaceOnUse" x="7" y="6" width="25" height="26">
<path d="M23.4338 9.34349C21.2485 11.2761 19.7667 15.1813 18.9707 17.2793L18.7367 17.8943C18.0234 19.7697 17.0465 22.3382 15.5129 23.9267C12.9374 26.5945 9.31734 28.7668 7.56934 29.4573L7.65038 29.6398L7.64247 29.643C8.33561 30.069 9.06025 30.4413 9.81006 30.7566C11.714 31.5573 13.8051 31.9999 15.9997 31.9999C24.8362 31.9999 31.9997 24.8283 31.9997 15.9817C31.9997 12.5275 30.9075 9.32867 29.0501 6.71242L29.0494 6.71151L28.8982 6.70851C28.7751 6.73178 25.9559 7.11308 23.4338 9.34349Z" fill="white"/>
</mask>
<g mask="url(#mask2_10661_4487)">
<path d="M23.4338 9.34349C21.2485 11.2761 19.7667 15.1813 18.9707 17.2793L18.7367 17.8943C18.0234 19.7697 17.0465 22.3382 15.5129 23.9267C12.9374 26.5945 9.31734 28.7668 7.56934 29.4573L7.65038 29.6398L7.64247 29.643C8.33561 30.069 9.06025 30.4413 9.81006 30.7566C11.714 31.5573 13.8051 31.9999 15.9997 31.9999C24.8362 31.9999 31.9997 24.8283 31.9997 15.9817C31.9997 12.5275 30.9075 9.32867 29.0501 6.71242L29.0494 6.71151L28.8982 6.70851C28.7751 6.73178 25.9559 7.11308 23.4338 9.34349Z" fill="url(#paint1_linear_10661_4487)"/>
</g>
<mask id="mask3_10661_4487" style="mask-type:luminance" maskUnits="userSpaceOnUse" x="-12" y="-11" width="56" height="56">
<path d="M-11.353 -10.0658H43.3522V44.7181H-11.353V-10.0658Z" fill="white"/>
</mask>
<g mask="url(#mask3_10661_4487)">
<path d="M16.7715 3.53003C16.974 3.53003 17.1388 3.36514 17.1388 3.16243C17.1388 2.95972 16.974 2.79478 16.7715 2.79478C16.5691 2.79478 16.4043 2.95972 16.4043 3.16243C16.4043 3.36514 16.5691 3.53003 16.7715 3.53003Z" fill="white"/>
<path d="M15.4337 7.83801C15.4925 7.83796 15.5489 7.81454 15.5905 7.77291C15.6321 7.73127 15.6555 7.67482 15.6555 7.61593C15.6555 7.55704 15.6321 7.50058 15.5905 7.45894C15.5489 7.41731 15.4925 7.3939 15.4337 7.39386C15.3749 7.3939 15.3185 7.41731 15.2769 7.45894C15.2354 7.50058 15.212 7.55704 15.2119 7.61593C15.212 7.67482 15.2354 7.73127 15.277 7.77291C15.3185 7.81454 15.3749 7.83796 15.4337 7.83801Z" fill="white"/>
<path d="M9.75986 10.4152C9.84802 10.4151 9.93254 10.3799 9.99488 10.3175C10.0572 10.2551 10.0923 10.1705 10.0924 10.0822C10.0923 9.9939 10.0572 9.90927 9.99488 9.84687C9.93253 9.78446 9.84801 9.74937 9.75986 9.7493C9.57646 9.7493 9.42725 9.89862 9.42725 10.0822C9.42737 10.1705 9.46246 10.2551 9.52481 10.3175C9.58717 10.38 9.67169 10.4151 9.75986 10.4152Z" fill="white"/>
<path d="M6.88082 8.43396C6.92782 8.43396 6.97289 8.41526 7.00612 8.38198C7.03935 8.3487 7.05802 8.30357 7.05802 8.2565C7.05802 8.20943 7.03935 8.1643 7.00612 8.13102C6.97289 8.09774 6.92782 8.07904 6.88082 8.07904C6.83382 8.07904 6.78875 8.09774 6.75552 8.13102C6.72228 8.1643 6.70361 8.20943 6.70361 8.2565C6.70361 8.30357 6.72228 8.3487 6.75552 8.38198C6.78875 8.41526 6.83382 8.43396 6.88082 8.43396Z" fill="white"/>
<path d="M20.8444 4.54163C20.8878 4.54158 20.9294 4.5243 20.9601 4.49357C20.9908 4.46284 21.008 4.42117 21.0081 4.3777C21.008 4.33425 20.9907 4.2926 20.96 4.26189C20.9294 4.23118 20.8877 4.21391 20.8444 4.21389C20.801 4.21391 20.7594 4.23118 20.7287 4.26189C20.698 4.2926 20.6807 4.33425 20.6807 4.3777C20.6807 4.42116 20.698 4.46283 20.7287 4.49357C20.7593 4.5243 20.801 4.54158 20.8444 4.54163Z" fill="white"/>
<path d="M10.9271 7.6427C10.9607 7.64266 10.9929 7.62927 11.0167 7.60547C11.0404 7.58167 11.0538 7.5494 11.0538 7.51574C11.0538 7.48209 11.0404 7.44983 11.0167 7.42604C10.9929 7.40225 10.9607 7.38887 10.9271 7.38884C10.8935 7.38887 10.8612 7.40225 10.8375 7.42604C10.8137 7.44983 10.8003 7.48209 10.8003 7.51574C10.8003 7.5494 10.8137 7.58167 10.8375 7.60547C10.8612 7.62927 10.8935 7.64266 10.9271 7.6427Z" fill="white"/>
<path d="M11.8424 6.18506C11.9102 6.18499 11.9751 6.15801 12.023 6.11003C12.0709 6.06206 12.0979 5.99701 12.098 5.92917C12.0979 5.86134 12.0709 5.79632 12.023 5.74837C11.9751 5.70042 11.9102 5.67346 11.8424 5.67338C11.7747 5.67346 11.7098 5.70042 11.6619 5.74837C11.614 5.79632 11.587 5.86134 11.5869 5.92917C11.587 5.99701 11.6139 6.06206 11.6618 6.11003C11.7097 6.15801 11.7747 6.18499 11.8424 6.18506Z" fill="white"/>
</g>
<mask id="mask4_10661_4487" style="mask-type:luminance" maskUnits="userSpaceOnUse" x="-1" y="6" width="31" height="26">
<path d="M27.2843 6.61087C26.6488 6.61149 26.014 6.65334 25.3839 6.73617C24.0034 6.91663 22.6756 7.28701 21.4505 7.81307C20.6191 8.17013 19.4189 8.87269 18.8138 9.28598C17.6445 10.0846 16.2078 11.186 14.9727 12.1835C13.2078 13.6087 11.1941 15.0559 9.06824 15.1393C5.54665 15.2775 2.62836 12.3677 2.62403 8.83947C2.62288 8.27472 2.69644 7.7123 2.8428 7.1669C2.89034 6.99014 2.94532 6.81647 3.00723 6.64613L3.01375 6.62355C1.11744 9.25618 -0.000488281 12.4881 -0.000488281 15.9817C-0.000488281 20.703 2.04065 24.9461 5.2868 27.8775L5.28616 27.8782C5.28616 27.8782 5.28573 27.8787 5.28546 27.8789H5.28551C3.80206 29.3561 2.00363 30.5165 -0.000488281 31.2495L-0.000274706 31.2495C1.34877 31.7348 3.00974 31.9999 4.52562 31.9999C6.38998 31.9999 8.19793 31.5234 9.81018 30.7568C11.4701 29.9675 12.9227 28.8703 14.014 27.6662C15.4663 26.0638 16.8925 22.9527 17.8957 20.5013C18.3444 19.5068 18.7137 18.5127 19.0354 17.6697C19.7777 15.7252 21.3 11.4967 23.5656 9.49313C26.0706 7.27786 29.0188 6.71729 29.0369 6.71386L29.0493 6.71151C28.9056 6.69444 28.7489 6.68187 28.604 6.66892C28.36 6.6472 28.1138 6.63276 27.8664 6.62318C27.6784 6.6159 27.4899 6.61087 27.3002 6.61087H27.2843Z" fill="white"/>
</mask>
<g mask="url(#mask4_10661_4487)">
<path d="M27.2843 6.61087C26.6488 6.61149 26.014 6.65334 25.3839 6.73617C24.0034 6.91663 22.6756 7.28701 21.4505 7.81307C20.6191 8.17013 19.4189 8.87269 18.8138 9.28598C17.6445 10.0846 16.2078 11.186 14.9727 12.1835C13.2078 13.6087 11.1941 15.0559 9.06824 15.1393C5.54665 15.2775 2.62836 12.3677 2.62403 8.83947C2.62288 8.27472 2.69644 7.7123 2.8428 7.1669C2.89034 6.99014 2.94532 6.81647 3.00723 6.64613L3.01375 6.62355C1.11744 9.25618 -0.000488281 12.4881 -0.000488281 15.9817C-0.000488281 20.703 2.04065 24.9461 5.2868 27.8775L5.28616 27.8782C5.28616 27.8782 5.28573 27.8787 5.28546 27.8789H5.28551C3.80206 29.3561 2.00363 30.5165 -0.000488281 31.2495L-0.000274706 31.2495C1.34877 31.7348 3.00974 31.9999 4.52562 31.9999C6.38998 31.9999 8.19793 31.5234 9.81018 30.7568C11.4701 29.9675 12.9227 28.8703 14.014 27.6662C15.4663 26.0638 16.8925 22.9527 17.8957 20.5013C18.3444 19.5068 18.7137 18.5127 19.0354 17.6697C19.7777 15.7252 21.3 11.4967 23.5656 9.49313C26.0706 7.27786 29.0188 6.71729 29.0369 6.71386L29.0493 6.71151C28.9056 6.69444 28.7489 6.68187 28.604 6.66892C28.36 6.6472 28.1138 6.63276 27.8664 6.62318C27.6784 6.6159 27.4899 6.61087 27.3002 6.61087H27.2843Z" fill="url(#paint2_linear_10661_4487)"/>
</g>
<mask id="mask5_10661_4487" style="mask-type:luminance" maskUnits="userSpaceOnUse" x="15" y="15" width="2" height="3">
<path d="M15.0122 16.1219C15.0122 16.6646 15.4044 17.1045 15.8881 17.1045C16.3718 17.1045 16.7639 16.6646 16.7639 16.1219C16.7639 15.5792 16.3718 15.1392 15.8881 15.1392C15.4044 15.1392 15.0122 15.5792 15.0122 16.1219Z" fill="white"/>
</mask>
<g mask="url(#mask5_10661_4487)">
<path d="M15.0122 16.1219C15.0122 16.6646 15.4044 17.1045 15.8881 17.1045C16.3718 17.1045 16.7639 16.6646 16.7639 16.1219C16.7639 15.5792 16.3718 15.1392 15.8881 15.1392C15.4044 15.1392 15.0122 15.5792 15.0122 16.1219Z" fill="url(#paint3_linear_10661_4487)"/>
</g>
<mask id="mask6_10661_4487" style="mask-type:luminance" maskUnits="userSpaceOnUse" x="-12" y="-11" width="56" height="56">
<path d="M-11.353 -10.0658H43.3522V44.7181H-11.353V-10.0658Z" fill="white"/>
</mask>
<g mask="url(#mask6_10661_4487)">
<mask id="mask7_10661_4487" style="mask-type:luminance" maskUnits="userSpaceOnUse" x="0" y="20" width="10" height="8">
<path d="M0.563477 20.2059H9.34025V27.8776H0.563477V20.2059Z" fill="white"/>
</mask>
<g mask="url(#mask7_10661_4487)">
<mask id="mask8_10661_4487" style="mask-type:luminance" maskUnits="userSpaceOnUse" x="0" y="20" width="10" height="8">
<path d="M0.563477 20.2059C1.38085 23.2051 3.04653 25.854 5.2872 27.8776C7.34159 25.8313 8.78786 23.1759 9.34025 20.2059H0.563477Z" fill="white"/>
</mask>
<g mask="url(#mask8_10661_4487)">
<path d="M0.563477 20.2059C1.38085 23.2051 3.04653 25.854 5.2872 27.8776C7.34159 25.8313 8.78786 23.1759 9.34025 20.2059H0.563477Z" fill="url(#paint4_linear_10661_4487)"/>
</g>
</g>
</g>
<defs>
<linearGradient id="paint0_linear_10661_4487" x1="16.0112" y1="-2.71093" x2="16.0112" y2="26.061" gradientUnits="userSpaceOnUse">
<stop stop-color="#2032AC"/>
<stop offset="0.496265" stop-color="#1B296D"/>
<stop offset="0.989583" stop-color="#1B296D"/>
<stop offset="1" stop-color="#1B296D"/>
</linearGradient>
<linearGradient id="paint1_linear_10661_4487" x1="19.7845" y1="6.4325" x2="19.7845" y2="32.2694" gradientUnits="userSpaceOnUse">
<stop stop-color="white"/>
<stop offset="0.783767" stop-color="#C3D4D9"/>
<stop offset="1" stop-color="#C3D4D9"/>
</linearGradient>
<linearGradient id="paint2_linear_10661_4487" x1="14.4985" y1="9.72879" x2="14.4985" y2="62.0298" gradientUnits="userSpaceOnUse">
<stop stop-color="#00DBB4"/>
<stop offset="0.114643" stop-color="#00DBB4"/>
<stop offset="0.920399" stop-color="#205BB6"/>
<stop offset="1" stop-color="#205BB6"/>
</linearGradient>
<linearGradient id="paint3_linear_10661_4487" x1="15.8805" y1="11.0913" x2="15.8805" y2="22.7714" gradientUnits="userSpaceOnUse">
<stop stop-color="#21CCB4"/>
<stop offset="0.179686" stop-color="#1F2DB7"/>
<stop offset="0.190264" stop-color="#1F2DB7"/>
<stop offset="0.5345" stop-color="#182353"/>
<stop offset="0.993329" stop-color="#182353"/>
<stop offset="1" stop-color="#182353"/>
</linearGradient>
<linearGradient id="paint4_linear_10661_4487" x1="4.94891" y1="86.6592" x2="4.94891" y2="20.2967" gradientUnits="userSpaceOnUse">
<stop/>
<stop offset="0.995413" stop-opacity="0"/>
<stop offset="1" stop-opacity="0"/>
</linearGradient>
</defs>
</svg>
