<svg width="32" height="32" viewBox="0 0 32 32" fill="none" xmlns="http://www.w3.org/2000/svg">
<path fill-rule="evenodd" clip-rule="evenodd" d="M32 16C32 24.8365 24.8365 32 16 32C7.1635 32 0 24.8365 0 16C0 7.1635 7.1635 0 16 0C24.8365 0 32 7.1635 32 16Z" fill="url(#paint0_linear_9085_19211)"/>
<path fill-rule="evenodd" clip-rule="evenodd" d="M31.2249 16C31.2249 24.4085 24.4084 31.225 15.9999 31.225C7.59138 31.225 0.774902 24.4085 0.774902 16C0.774902 7.5915 7.59138 0.775024 15.9999 0.775024C24.4084 0.775024 31.2249 7.5915 31.2249 16Z" fill="white"/>
<path fill-rule="evenodd" clip-rule="evenodd" d="M26.3001 9.40004L17.7376 17.775V28.1875C17.7376 28.375 16.9251 28.525 16.0001 28.5375C15.1126 28.525 14.2626 28.375 14.2626 28.1875V17.775L5.70008 9.40004C5.56256 9.26252 6.00008 8.61252 6.67508 7.93752C7.35008 7.26252 8.01256 6.82504 8.13756 6.96252L15.9876 14.625L23.8376 6.96252C23.9751 6.82504 24.6251 7.26252 25.3001 7.93752C25.9751 8.61252 26.4251 9.26252 26.3001 9.40004Z" fill="#EC1C24"/>
<defs>
<linearGradient id="paint0_linear_9085_19211" x1="16" y1="0" x2="16" y2="32" gradientUnits="userSpaceOnUse">
<stop stop-color="#F5F5F6"/>
<stop offset="1" stop-color="#EDEDEE"/>
</linearGradient>
</defs>
</svg>
