<svg width="29" height="28" viewBox="0 0 29 28" fill="none" xmlns="http://www.w3.org/2000/svg">
<g clip-path="url(#clip0_21737_133882)">
<path d="M22.5637 0H6.23628C2.79208 0 0 2.71005 0 6.05306V21.9469C0 25.29 2.79208 28 6.23628 28H22.5637C26.0079 28 28.8 25.29 28.8 21.9469V6.05306C28.8 2.71005 26.0079 0 22.5637 0Z" fill="black"/>
<path d="M7.05811 6.40527H8.32053V8.91606H11.1353V6.40527H12.3977V12.691H11.1353V10.0398H8.32053V12.691H7.05811V6.40527Z" fill="white"/>
<path d="M15.8018 6.40527H17.0455L19.0934 9.73251H19.1682L21.2162 6.40527H22.4692V12.691H21.2162V9.59205L21.291 8.53857H21.2162L19.5142 11.3566H18.7568L17.0455 8.53857H16.9707L17.0455 9.59205V12.691H15.8018V6.40527Z" fill="white"/>
<path d="M19.2289 21.7229C18.9357 21.7229 18.6553 21.6849 18.3876 21.6088C18.1199 21.5327 17.8745 21.4186 17.6514 21.2664C17.4284 21.1143 17.234 20.9299 17.0682 20.7134C16.9025 20.491 16.7719 20.2334 16.6763 19.9408L17.8904 19.5019C17.9797 19.8179 18.1358 20.0813 18.3589 20.292C18.582 20.4968 18.8752 20.5992 19.2385 20.5992C19.3723 20.5992 19.4998 20.5846 19.6209 20.5553C19.7484 20.5202 19.8599 20.4734 19.9555 20.4149C20.0575 20.3505 20.1372 20.2715 20.1945 20.1778C20.2519 20.0842 20.2806 19.9759 20.2806 19.853C20.2806 19.736 20.2582 19.6306 20.2136 19.537C20.169 19.4433 20.0925 19.3555 19.9842 19.2736C19.8822 19.1917 19.7452 19.1126 19.5731 19.0366C19.4074 18.9605 19.2002 18.8815 18.9517 18.7995L18.531 18.6591C18.3462 18.6005 18.1581 18.5215 17.9669 18.422C17.7821 18.3225 17.6132 18.2026 17.4602 18.0621C17.3073 17.9216 17.1798 17.7578 17.0778 17.5705C16.9822 17.3773 16.9344 17.1608 16.9344 16.9208C16.9344 16.675 16.9854 16.4468 17.0874 16.2361C17.1957 16.0195 17.3455 15.8322 17.5367 15.6742C17.7343 15.5103 17.9669 15.3845 18.2346 15.2967C18.5087 15.2031 18.8114 15.1562 19.1429 15.1562C19.487 15.1562 19.7834 15.2001 20.032 15.2879C20.2869 15.3699 20.5005 15.4781 20.6725 15.6128C20.851 15.7415 20.9944 15.8849 21.1028 16.0429C21.2111 16.201 21.2908 16.3502 21.3418 16.4907L20.2041 16.9296C20.1403 16.754 20.0224 16.596 19.8503 16.4555C19.6846 16.3151 19.4552 16.2448 19.162 16.2448C18.8815 16.2448 18.6489 16.3063 18.4641 16.4292C18.2792 16.5463 18.1868 16.7014 18.1868 16.8945C18.1868 17.0818 18.2761 17.2427 18.4545 17.3773C18.633 17.5061 18.9166 17.6319 19.3054 17.7548L19.7356 17.8865C20.0097 17.9743 20.2583 18.0767 20.4813 18.1938C20.7108 18.305 20.9052 18.4396 21.0645 18.5976C21.2302 18.7556 21.3545 18.9371 21.4374 19.1419C21.5266 19.3409 21.5712 19.5721 21.5712 19.8355C21.5712 20.1632 21.4979 20.4471 21.3513 20.687C21.2111 20.9211 21.0295 21.1143 20.8064 21.2664C20.5833 21.4186 20.3315 21.5327 20.0511 21.6088C19.7707 21.6849 19.4966 21.7229 19.2289 21.7229Z" fill="white"/>
<path d="M9.73121 21.7229C9.26082 21.7229 8.82277 21.6381 8.41706 21.4683C8.01723 21.2986 7.67032 21.0674 7.37633 20.7748C7.08233 20.4763 6.85008 20.1281 6.67957 19.7301C6.51493 19.3263 6.43262 18.8961 6.43262 18.4396C6.43262 17.9831 6.51493 17.5558 6.67957 17.1579C6.85008 16.754 7.08233 16.4058 7.37633 16.1132C7.67032 15.8147 8.01723 15.5806 8.41706 15.4108C8.82277 15.2411 9.26082 15.1562 9.73121 15.1562C10.2016 15.1562 10.6367 15.2411 11.0365 15.4108C11.4422 15.5806 11.7921 15.8147 12.0861 16.1132C12.3801 16.4058 12.6094 16.754 12.774 17.1579C12.9445 17.5558 13.0298 17.9831 13.0298 18.4396C13.0298 18.8961 12.9445 19.3263 12.774 19.7301C12.6094 20.1281 12.3801 20.4763 12.0861 20.7748C11.7921 21.0674 11.4422 21.2986 11.0365 21.4683C10.6367 21.6381 10.2016 21.7229 9.73121 21.7229ZM9.73121 20.5992C10.0252 20.5992 10.2986 20.5465 10.5514 20.4412C10.8102 20.3359 11.0336 20.1895 11.2217 20.0023C11.4158 19.815 11.5657 19.5896 11.6715 19.3263C11.7833 19.057 11.8391 18.7615 11.8391 18.4396C11.8391 18.1177 11.7833 17.8251 11.6715 17.5617C11.5657 17.2925 11.4158 17.0642 11.2217 16.8769C11.0336 16.6896 10.8102 16.5433 10.5514 16.438C10.2986 16.3326 10.0252 16.28 9.73121 16.28C9.43722 16.28 9.16085 16.3326 8.90214 16.438C8.64931 16.5433 8.42587 16.6896 8.23184 16.8769C8.04368 17.0642 7.89375 17.2925 7.78204 17.5617C7.6762 17.8251 7.62328 18.1177 7.62328 18.4396C7.62328 18.7615 7.6762 19.057 7.78204 19.3263C7.89375 19.5896 8.04368 19.815 8.23184 20.0023C8.42587 20.1895 8.64931 20.3359 8.90214 20.4412C9.16085 20.5465 9.43722 20.5992 9.73121 20.5992Z" fill="white"/>
<path d="M12.0656 22.3176H7.32812V23.3877H12.0656V22.3176Z" fill="#5B8AEE"/>
</g>
<defs>
<clipPath id="clip0_21737_133882">
<rect width="28.8" height="28" fill="white"/>
</clipPath>
</defs>
</svg>
