<svg width="28" height="28" viewBox="0 0 28 28" fill="none" xmlns="http://www.w3.org/2000/svg">
<g clip-path="url(#clip0_7188_15859)">
<path d="M25.7337 9.55043C25.6 9.62842 22.4174 11.2743 22.4174 14.9237C22.5674 19.0857 26.4337 20.5452 26.5 20.5452C26.4337 20.6232 25.9163 22.5335 24.3837 24.536C23.1674 26.2609 21.8174 28 19.7674 28C17.8174 28 17.1174 26.8504 14.8674 26.8504C12.4511 26.8504 11.7674 28 9.91735 28C7.86734 28 6.41734 26.1677 5.13473 24.459C3.46842 22.2225 2.05211 18.7129 2.00211 15.3431C1.96842 13.5574 2.33581 11.8021 3.26842 10.3111C4.58473 8.22963 6.93473 6.81667 9.50104 6.77008C11.4674 6.70829 13.2174 8.02807 14.4174 8.02807C15.5674 8.02807 17.7174 6.77008 20.15 6.77008C21.2 6.77109 24 7.06584 25.7337 9.55043ZM14.2511 6.41354C13.9011 4.78281 14.8674 3.15208 15.7674 2.11185C16.9174 0.853856 18.7337 0 20.3 0C20.4 1.63073 19.7663 3.23007 18.6337 4.39488C17.6174 5.65287 15.8674 6.59991 14.2511 6.41354Z" fill="#283544"/>
</g>
<defs>
<clipPath id="clip0_7188_15859">
<rect width="28" height="28" fill="white"/>
</clipPath>
</defs>
</svg>
