<svg width="32" height="32" viewBox="0 0 32 32" fill="none" xmlns="http://www.w3.org/2000/svg">
<g clip-path="url(#clip0_10344_26094)">
<path d="M20.6374 17.2309C22.4575 17.2309 25.093 16.8523 25.093 14.6828C25.0929 14.5168 25.0783 14.3512 25.0493 14.1878L23.9718 9.47012C23.7243 8.43632 23.5059 7.95582 21.6858 7.05307C20.2734 6.32504 17.2012 5.14563 16.2838 5.14563C15.4248 5.14563 15.1772 6.23767 14.1725 6.23767C13.197 6.23767 12.4835 5.42228 11.5662 5.42228C10.6926 5.42228 10.1247 6.01926 9.68789 7.24235C9.68789 7.24235 8.4648 10.6932 8.30463 11.2028C8.28058 11.293 8.27075 11.3863 8.27551 11.4795C8.26095 12.8191 13.5464 17.2164 20.6374 17.2309ZM25.3696 15.571C25.6172 16.765 25.6172 16.896 25.6172 17.0416C25.6172 19.0801 23.3312 20.2158 20.3171 20.2158C13.5028 20.2158 7.54748 16.2262 7.54748 13.5908C7.54682 13.2253 7.62115 12.8635 7.76589 12.5278C5.31971 12.6443 2.14551 13.0811 2.14551 15.8768C2.14551 20.4634 13.0077 26.1129 21.5984 26.1129C28.1944 26.1129 29.8543 23.128 29.8543 20.7691C29.8543 18.9199 28.2526 16.8232 25.3696 15.571Z" fill="#EE0000"/>
<path d="M25.3695 15.5709C25.617 16.7649 25.617 16.8959 25.617 17.0416C25.617 19.08 23.331 20.2158 20.317 20.2158C13.5026 20.2158 7.54737 16.2262 7.54737 13.5907C7.5467 13.2252 7.62103 12.8634 7.76578 12.5278L8.30452 11.2028C8.28046 11.2929 8.27063 11.3862 8.2754 11.4794C8.2754 12.819 13.5609 17.2163 20.6373 17.2163C22.4574 17.2163 25.0929 16.8377 25.0929 14.6682C25.0928 14.5022 25.0782 14.3365 25.0492 14.1731L25.3695 15.5709Z" fill="black"/>
</g>
<defs>
<clipPath id="clip0_10344_26094">
<rect width="28" height="21.2585" fill="white" transform="translate(2 5)"/>
</clipPath>
</defs>
</svg>
