<svg width="18" height="12" viewBox="0 0 18 12" fill="none" xmlns="http://www.w3.org/2000/svg">
<path d="M0 0H18V12H0V0Z" fill="#404BF2"/>
<path d="M8.75001 3C7.78505 3 7 3.78508 7 4.75004C7 4.94726 7.15988 5.10717 7.35713 5.10717C7.55438 5.10717 7.71426 4.94726 7.71426 4.75004C7.71426 4.17892 8.17889 3.71426 8.75001 3.71426C9.32113 3.71426 9.78577 4.17892 9.78577 4.75004C9.78577 5.07852 9.54824 5.29811 9.15694 5.62069C8.79878 5.91594 8.39289 6.25061 8.39289 6.78265V7.92843C8.39289 8.12562 8.55279 8.28556 8.75001 8.28556C8.94724 8.28556 9.10714 8.12562 9.10714 7.92843V6.78265C9.10714 6.58745 9.34082 6.39483 9.61129 6.17179C10.0072 5.84534 10.5 5.43907 10.5 4.75004C10.5 3.78505 9.71495 3 8.75001 3Z" fill="white"/>
<path d="M8.75033 8.80309C8.49771 8.80309 8.29224 9.00859 8.29224 9.26121C8.29224 9.51377 8.49771 9.71928 8.75033 9.71928C9.00292 9.71928 9.20843 9.51377 9.20843 9.26121C9.20843 9.00859 9.00292 8.80309 8.75033 8.80309Z" fill="white"/>
</svg>
