<svg width="28" height="28" viewBox="0 0 28 28" fill="none" xmlns="http://www.w3.org/2000/svg">
<path fill-rule="evenodd" clip-rule="evenodd" d="M10.1755 0.95247C11.2618 0.345764 12.5136 0 13.8462 0C15.1787 0 16.4306 0.345764 17.5168 0.95247L18.3116 0.157712C18.5218 -0.0525705 18.8628 -0.0525705 19.0731 0.157712C19.2833 0.367994 19.2833 0.708929 19.0731 0.919211L18.4351 1.55718C20.2286 2.93524 21.3846 5.10185 21.3846 7.53846H6.30769C6.30769 5.10185 7.46371 2.93524 9.25722 1.55718L8.61925 0.919211C8.40897 0.708929 8.40897 0.367994 8.61925 0.157712C8.82953 -0.0525705 9.17047 -0.0525705 9.38075 0.157712L10.1755 0.95247ZM11.6923 4.30769C11.6923 4.90246 11.2102 5.38462 10.6154 5.38462C10.0206 5.38462 9.53846 4.90246 9.53846 4.30769C9.53846 3.71292 10.0206 3.23077 10.6154 3.23077C11.2102 3.23077 11.6923 3.71292 11.6923 4.30769ZM17.0769 5.38462C17.6717 5.38462 18.1538 4.90246 18.1538 4.30769C18.1538 3.71292 17.6717 3.23077 17.0769 3.23077C16.4822 3.23077 16 3.71292 16 4.30769C16 4.90246 16.4822 5.38462 17.0769 5.38462Z" fill="#87C527"/>
<path d="M2 10.2308C2 9.33862 2.72323 8.61538 3.61538 8.61538C4.50754 8.61538 5.23077 9.33862 5.23077 10.2308V16.6923C5.23077 17.5845 4.50754 18.3077 3.61538 18.3077C2.72323 18.3077 2 17.5845 2 16.6923V10.2308Z" fill="#87C527"/>
<path d="M9.53846 22.6154V26.3846C9.53846 27.2768 10.2617 28 11.1538 28C12.046 28 12.7692 27.2768 12.7692 26.3846V22.6154H14.9231V26.3846C14.9231 27.2768 15.6463 28 16.5385 28C17.4306 28 18.1538 27.2768 18.1538 26.3846V22.6154H19.2308C20.4203 22.6154 21.3846 21.6511 21.3846 20.4615V8.61538H6.30769V20.4615C6.30769 21.6511 7.272 22.6154 8.46154 22.6154H9.53846Z" fill="#87C527"/>
<path d="M22.4615 10.2308C22.4615 9.33862 23.1848 8.61538 24.0769 8.61538C24.9691 8.61538 25.6923 9.33862 25.6923 10.2308V16.6923C25.6923 17.5845 24.9691 18.3077 24.0769 18.3077C23.1848 18.3077 22.4615 17.5845 22.4615 16.6923V10.2308Z" fill="#87C527"/>
</svg>
