<svg width="28" height="28" viewBox="0 0 28 28" fill="none" xmlns="http://www.w3.org/2000/svg">
<g clip-path="url(#clip0_7188_15903)">
<path d="M28 14C28 21.728 21.735 28 14 28C6.265 28 0 21.728 0 14C0 6.265 6.265 0 14 0C21.735 0 28 6.265 28 14Z" fill="#1D1D1D"/>
<path d="M6.95479 6L5.97739 10H9.33812C10.2351 10 11.017 9.37541 11.2345 8.48507C11.543 7.22278 10.6098 6 9.33811 6H6.95479Z" fill="white"/>
<path d="M5.97739 12L5 16H8.36072C9.25771 16 10.0396 15.3754 10.2571 14.4851C10.5656 13.2228 9.63245 12 8.36072 12H5.97739Z" fill="white"/>
<path d="M11.8418 16L12.8192 12H15.2025C16.4742 12 17.4073 13.2228 17.0989 14.4851C16.8814 15.3754 16.0995 16 15.2025 16H11.8418Z" fill="white"/>
<path d="M11.8418 18L10.8644 22H14.2251C15.1221 22 15.904 21.3754 16.1215 20.4851C16.43 19.2228 15.4968 18 14.2251 18H11.8418Z" fill="white"/>
<path d="M21.0669 20H17.7061L18.6835 16H21.0669C22.3386 16 23.2717 17.2228 22.9633 18.4851C22.7457 19.3754 21.9638 20 21.0669 20Z" fill="white"/>
<path d="M19.6609 10L18.6835 14H22.0442C22.9412 14 23.7231 13.3754 23.9407 12.4851C24.2491 11.2228 23.316 10 22.0442 10H19.6609Z" fill="white"/>
<path d="M12.8192 10L13.7966 6H16.1799C17.4516 6 18.3847 7.22278 18.0763 8.48507C17.8588 9.37541 17.0769 10 16.1799 10H12.8192Z" fill="white"/>
</g>
<defs>
<clipPath id="clip0_7188_15903">
<rect width="28" height="28" fill="white"/>
</clipPath>
</defs>
</svg>
