<svg width="29" height="28" viewBox="0 0 29 28" fill="none" xmlns="http://www.w3.org/2000/svg">
<path d="M13.9995 0.00382216C13.9995 0.00382216 22.2517 -0.365174 26.6268 7.8999H13.2974C13.2974 7.8999 10.7818 7.81911 8.63299 10.8599C8.01572 12.1363 7.35222 13.451 8.0968 16.042C7.02419 14.2313 2.40234 6.21234 2.40234 6.21234C2.40234 6.21234 5.66234 0.330569 13.9994 0.00382216H13.9995Z" fill="#EF3F36"/>
<path d="M26.1984 20.9856C26.1984 20.9856 22.3905 28.2935 13.0234 27.9321C14.1808 25.9369 19.69 16.4302 19.69 16.4302C19.69 16.4302 21.021 14.3005 19.4508 10.9253C18.6521 9.75278 17.8381 8.52647 15.2148 7.87287C17.3251 7.85377 26.6036 7.87287 26.6036 7.87287C26.6036 7.87287 30.0795 13.6278 26.1984 20.9856Z" fill="#FCD900"/>
<path d="M1.85833 21.0434C1.85833 21.0434 -2.58997 14.1045 2.40998 6.20081C3.56355 8.19601 9.07273 17.7028 9.07273 17.7028C9.07273 17.7028 10.261 19.9171 13.9763 20.2476C15.3922 20.1439 16.8659 20.0554 18.7488 18.1218C17.7108 19.9517 13.0541 27.9477 13.0541 27.9477C13.0541 27.9477 6.31036 28.0707 1.85822 21.0434H1.85833Z" fill="#61BC5B"/>
<path d="M13.0195 28.0014L14.8945 20.2054C14.8945 20.2054 16.9547 20.0438 18.6832 18.1564C17.6106 20.0363 13.0195 28.0014 13.0195 28.0014Z" fill="#5AB055"/>
<path d="M7.71875 14.089C7.71875 10.6523 10.5159 7.86523 13.9648 7.86523C17.4138 7.86523 20.2109 10.6523 20.2109 14.089C20.2109 17.5257 17.4138 20.3127 13.9648 20.3127C10.5159 20.3089 7.71875 17.5257 7.71875 14.089Z" fill="white"/>
<path d="M8.76367 14.0891C8.76367 11.2291 11.0901 8.9071 13.9644 8.9071C16.8347 8.9071 19.1649 11.2252 19.1649 14.0891C19.1649 16.9493 16.8386 19.2713 13.9644 19.2713C11.0939 19.2713 8.76367 16.9493 8.76367 14.0891Z" fill="url(#paint0_linear_7188_15906)"/>
<path d="M26.5997 7.87685L18.8798 10.1334C18.8798 10.1334 17.7147 8.43035 15.2109 7.87685C17.383 7.86528 26.5997 7.87685 26.5997 7.87685Z" fill="#EACA05"/>
<path d="M7.94637 15.7577C6.86215 13.8855 2.40234 6.2124 2.40234 6.2124L8.11992 11.8481C8.11992 11.8481 7.53343 13.0514 7.75343 14.7735L7.94626 15.7577H7.94637Z" fill="#DF3A32"/>
<defs>
<linearGradient id="paint0_linear_7188_15906" x1="13.9641" y1="8.98028" x2="13.9641" y2="18.9593" gradientUnits="userSpaceOnUse">
<stop stop-color="#86BBE5"/>
<stop offset="1" stop-color="#1072BA"/>
</linearGradient>
</defs>
</svg>
