<svg width="28" height="28" viewBox="0 0 28 28" fill="none" xmlns="http://www.w3.org/2000/svg">
<path d="M28 14.0004C28 6.26828 21.7318 0 13.9998 0C6.27112 0 0.00546875 6.26303 0 13.9906V24.8246C0.00415625 26.5792 1.42723 27.9997 3.18292 27.9997H14.0055C21.735 27.9966 28 21.7305 28 14.0004Z" fill="#294172"/>
<path d="M18.1101 3.31482C14.4888 3.31482 11.5427 6.26083 11.5427 9.88224V13.368H8.07133C4.45003 13.368 1.50391 16.3143 1.50391 19.9356C1.50391 23.5567 4.45003 26.503 8.07133 26.503C11.6926 26.503 14.6388 23.5567 14.6388 19.9356V16.4497H18.1101C21.7314 16.4497 24.6776 13.5035 24.6776 9.88224C24.6776 6.26083 21.7314 3.31482 18.1101 3.31482ZM11.567 19.9356C11.567 21.863 9.99884 23.4311 8.07133 23.4311C6.14381 23.4311 4.5757 21.863 4.5757 19.9356C4.5757 18.008 6.14381 16.4399 8.07133 16.4399H11.5427V16.4497H11.567V19.9356ZM18.1101 13.3779H14.6388V13.368H14.6146V9.88224C14.6146 7.95473 16.1827 6.38662 18.1101 6.38662C20.0375 6.38662 21.6057 7.95473 21.6057 9.88224C21.6057 11.8098 20.0375 13.3779 18.1101 13.3779Z" fill="#3C6EB4"/>
<path d="M19.5619 3.51395C19.0522 3.38073 18.6609 3.3186 18.1104 3.3186C14.4816 3.3186 11.5397 6.26068 11.5397 9.8892V13.3719H8.7878C7.92975 13.3719 7.23631 14.0462 7.23686 14.9027C7.23686 15.7539 7.92264 16.431 8.77161 16.431L11.05 16.4315C11.3205 16.4315 11.5399 16.6502 11.5399 16.9203V19.9339C11.5365 21.8469 9.98469 23.3966 8.07161 23.3966C7.42356 23.3966 7.26311 23.3117 6.82069 23.3117C5.89133 23.3117 5.26953 23.9347 5.26953 24.7913C5.26975 25.5 5.877 26.1092 6.62009 26.3036C7.12978 26.4369 7.52112 26.4991 8.07161 26.4991C11.7003 26.4991 14.6423 23.557 14.6423 19.9284V16.4458H17.3942C18.2522 16.4458 18.9457 15.7715 18.9451 14.915C18.9451 14.0637 18.2593 13.3867 17.4104 13.3867L15.132 13.3862C15.0022 13.3864 14.8777 13.3349 14.7858 13.2432C14.6939 13.1516 14.6422 13.0271 14.6421 12.8973V9.88373C14.6455 7.97065 16.1973 6.42103 18.1104 6.42103C18.7584 6.42103 18.9189 6.50601 19.3613 6.50601C20.2907 6.50601 20.9125 5.8829 20.9125 5.02639C20.9122 4.31763 20.305 3.70842 19.5619 3.51395Z" fill="white"/>
</svg>
