<svg width="28" height="28" viewBox="0 0 28 28" fill="none" xmlns="http://www.w3.org/2000/svg">
<path opacity="0.26" d="M3.3055 17.4875L3.30091 11.9287V10.264H0V1L13.9198 1.06783L18.2742 1.07743C23.4853 1.07743 27.9988 5.15209 27.9988 10.5335V26.9435H13.0302C7.82371 26.9435 3.3055 22.864 3.3055 17.4874V17.4875Z" fill="black"/>
<path d="M25.9993 22.652V10.7213C25.9993 6.73541 22.6174 3.50429 18.4447 3.50429H14.1136V3.49468L2.40039 3.44177V7.79485H4.19844C5.45357 7.79485 5.67527 8.69038 5.67527 9.9299L5.68456 17.6258C5.68456 21.6117 9.06651 24.8427 13.2346 24.8427H23.5257C24.8449 24.8427 25.9995 23.9792 25.9995 22.6519L25.9993 22.652Z" fill="url(#paint0_linear_7188_15919)"/>
<path opacity="0.175" d="M24.9781 23.66C22.3463 21.7855 20.4824 19.6322 18.9123 16.7817C15.8172 10.8723 16.5409 7.93866 8.87646 7.24695C6.66466 7.24695 5.19243 6.74097 2.86426 6.74097V7.57896C2.86426 7.57896 3.78428 8.06165 4.59297 8.06165C5.79889 8.06165 6.00811 8.92621 6.00811 10.1171L6.01577 17.4932C6.01577 21.323 9.27009 24.4268 13.2748 24.4268H23.1575C23.883 24.4268 24.5346 24.1314 24.9781 23.66Z" fill="url(#paint1_linear_7188_15919)"/>
<path d="M15.8188 7.9765C14.8797 7.9765 14.0453 8.33688 13.3748 9.03684C12.7047 9.73658 12.3529 10.61 12.3529 11.5957V16.5784H14.5394V11.5956C14.5394 11.2178 14.6586 10.9224 14.9197 10.6499C15.1815 10.3765 15.4589 10.2527 15.8188 10.2527C16.1864 10.2527 16.4595 10.376 16.722 10.6499C16.9829 10.9223 17.1023 11.2178 17.1023 11.5956V16.5783H19.2888V11.5956C19.2888 11.2178 19.408 10.9224 19.669 10.6499C19.9315 10.3758 20.2046 10.2527 20.5722 10.2527C20.9323 10.2527 21.2095 10.3765 21.4713 10.6499C21.7323 10.9223 21.8516 11.2178 21.8516 11.5956L21.8635 17.4175C21.8635 18.6596 20.7192 19.7062 19.2492 19.7062L12.1984 19.6776C11.064 19.6776 10.095 18.5362 10.095 17.0696V6.10608H8.02734V17.4914C8.02734 18.6993 8.45498 19.7587 9.28695 20.6153C9.99807 21.3407 10.8532 21.7701 11.8141 21.8762V21.9172H19.6651C20.8714 21.9172 21.9313 21.4535 22.7865 20.5538H22.7904C23.5176 19.7816 23.9427 18.8563 24.046 17.8148L24.0381 11.5957C24.0381 10.61 23.6863 9.73658 23.0162 9.03684C22.3457 8.33688 21.5113 7.9765 20.5722 7.9765C19.6503 7.9765 18.8437 8.33077 18.1916 8.97953C17.5413 8.33179 16.7402 7.9765 15.8188 7.9765Z" fill="black" fill-opacity="0.08"/>
<path d="M15.6443 8.03594C14.7051 8.03594 13.8706 8.39633 13.2001 9.09629C12.53 9.79603 12.1782 10.6694 12.1782 11.6551V16.6378H14.3647V11.6551C14.3647 11.2774 14.4839 10.982 14.745 10.7094C15.0068 10.4361 15.2842 10.3123 15.6443 10.3123C16.0117 10.3123 16.285 10.4355 16.5473 10.7094C16.8084 10.9819 16.9276 11.2774 16.9276 11.6551V16.6378H19.1142V11.6551C19.1142 11.2774 19.2334 10.982 19.4945 10.7094C19.7569 10.4354 20.03 10.3123 20.3976 10.3123C20.7577 10.3123 21.0349 10.4361 21.2968 10.7094C21.5579 10.9819 21.6771 11.2774 21.6771 11.6551L21.689 17.4771C21.689 18.7191 20.5446 19.7658 19.0746 19.7658L12.0236 19.7371C10.8892 19.7371 9.92031 18.5958 9.92031 17.1292V6.16553H7.85254V17.5508C7.85254 18.7588 8.28018 19.8181 9.11217 20.6747C9.8233 21.4002 10.6786 21.8704 11.6394 21.9767H19.4905C20.6969 21.9767 21.7569 21.513 22.612 20.6133H22.6159C23.3432 19.841 23.7682 18.9157 23.8716 17.8742L23.8637 11.6551C23.8637 10.6694 23.5119 9.79592 22.8417 9.09629C22.1712 8.39633 21.3367 8.03594 20.3976 8.03594C19.4759 8.03594 18.6692 8.39022 18.017 9.03898C17.3666 8.39124 16.5656 8.03594 15.6443 8.03594Z" fill="white"/>
<path d="M13.1662 26.495C8.19585 26.495 3.88272 22.6005 3.88272 17.468L3.87834 11.2359V9.64677H0.727051V1.72864L18.172 1.80246C23.1467 1.80246 27.4553 5.69228 27.4553 10.8294V26.495H13.1662ZM25.4308 22.2927V10.8294C25.4308 6.99974 22.1814 3.89534 18.1721 3.89534L2.75642 3.8352V7.55411H4.01713C4.87307 7.55411 5.90301 8.38543 5.90301 9.60539L5.91198 17.4634C5.91198 21.2932 9.16137 24.3976 13.1661 24.3976H23.0539C24.3215 24.3976 25.4308 23.5678 25.4308 22.2927Z" fill="white"/>
<defs>
<linearGradient id="paint0_linear_7188_15919" x1="4.65269" y1="6.17253" x2="17.3466" y2="19.6398" gradientUnits="userSpaceOnUse">
<stop stop-color="#C7F994"/>
<stop offset="1" stop-color="#87CF3E"/>
</linearGradient>
<linearGradient id="paint1_linear_7188_15919" x1="7.24523" y1="22.6119" x2="15.1539" y2="10.6143" gradientUnits="userSpaceOnUse">
<stop stop-color="#3D3D3D"/>
<stop offset="1" stop-opacity="0.114"/>
</linearGradient>
</defs>
</svg>
