<svg width="28" height="28" viewBox="0 0 28 28" fill="none" xmlns="http://www.w3.org/2000/svg">
<path d="M28 14C28 21.728 21.735 28 14 28C6.265 28 0 21.728 0 14C0 6.265 6.265 0 14 0C21.735 0 28 6.265 28 14Z" fill="#E95420"/>
<path d="M4.82154 12.1563C3.81185 12.1563 3 12.9865 3 14.0035C3 15.0205 3.81867 15.8507 4.82154 15.8507C5.82442 15.8507 6.64309 15.0205 6.64309 14.0035C6.64309 12.9795 5.82442 12.1563 4.82154 12.1563ZM17.8316 20.5482C16.9583 21.0602 16.665 22.1879 17.163 23.0734C17.6679 23.959 18.7799 24.2634 19.6531 23.7514C20.5264 23.2395 20.8197 22.1118 20.3217 21.2262C19.8101 20.3476 18.698 20.0432 17.8316 20.5482ZM8.77846 14.0035C8.77846 12.177 9.67217 10.565 11.0434 9.58955L9.71311 7.32725C8.1167 8.40651 6.93645 10.06 6.43842 11.9902C7.01149 12.4676 7.37989 13.194 7.37989 14.0035C7.37989 14.8129 7.01149 15.5393 6.43842 16.0167C6.92962 17.9469 8.1167 19.6004 9.71311 20.6797L11.0434 18.4174C9.67217 17.4419 8.77846 15.8299 8.77846 14.0035ZM14.0998 8.60715C16.8833 8.60715 19.1619 10.7657 19.4007 13.5261L22 13.4846C21.8704 11.4506 20.9971 9.62415 19.6463 8.28199C18.9504 8.54488 18.1522 8.50337 17.4632 8.10211C16.7673 7.69393 16.3375 7.01593 16.2147 6.26875C15.5393 6.08195 14.8298 5.97817 14.0998 5.97817C12.8377 5.97817 11.6506 6.27566 10.5932 6.80838L11.8621 9.10527C12.5375 8.78702 13.3016 8.60715 14.0998 8.60715ZM14.0998 19.3998C13.3016 19.3998 12.5375 19.2199 11.8553 18.9017L10.5864 21.1985C11.6438 21.7313 12.8377 22.0287 14.093 22.0287C14.823 22.0287 15.5325 21.925 16.2079 21.7382C16.3239 20.9979 16.7605 20.313 17.4564 19.9048C18.1454 19.4966 18.9504 19.462 19.6395 19.7249C20.9835 18.3828 21.8636 16.5563 21.9932 14.5223L19.3939 14.4808C19.1619 17.2343 16.8833 19.3998 14.0998 19.3998ZM17.8248 7.45178C18.698 7.96374 19.8101 7.65933 20.3149 6.77378C20.8197 5.88824 20.5196 4.76054 19.6463 4.24859C18.7731 3.73663 17.661 4.04104 17.1562 4.92659C16.6582 5.81213 16.9583 6.93983 17.8248 7.45178Z" fill="white"/>
</svg>
