<svg width="17" height="13" viewBox="0 0 17 13" fill="none" xmlns="http://www.w3.org/2000/svg">
<path d="M1.85 13C1.41 13 1.03333 12.8409 0.72 12.5227C0.406667 12.2044 0.25 11.8219 0.25 11.375V1.625C0.25 1.17812 0.406667 0.795573 0.72 0.477344C1.03333 0.159115 1.41 0 1.85 0H11.45C11.89 0 12.2667 0.159115 12.58 0.477344C12.8933 0.795573 13.05 1.17812 13.05 1.625V5.28125L15.57 2.72187C15.7033 2.58646 15.85 2.5526 16.01 2.62031C16.17 2.68802 16.25 2.81667 16.25 3.00625V9.99375C16.25 10.1833 16.17 10.312 16.01 10.3797C15.85 10.4474 15.7033 10.4135 15.57 10.2781L13.05 7.71875V11.375C13.05 11.8219 12.8933 12.2044 12.58 12.5227C12.2667 12.8409 11.89 13 11.45 13H1.85Z" fill="#283544"/>
</svg>
