<svg width="19" height="13" viewBox="0 0 19 13" fill="none" xmlns="http://www.w3.org/2000/svg">
<path d="M3.96299 13C3.15049 13 2.45648 12.7089 1.88096 12.1266C1.30544 11.5443 1.00413 10.8401 0.977051 10.0141C0.977051 9.89219 0.983822 9.77031 0.997363 9.64844C1.0109 9.52656 1.03122 9.40469 1.0583 9.28281L2.76455 2.45781C2.95413 1.72656 3.34007 1.13411 3.92236 0.680469C4.50466 0.226823 5.1682 0 5.91299 0H13.8349C14.5797 0 15.2432 0.226823 15.8255 0.680469C16.4078 1.13411 16.7937 1.72656 16.9833 2.45781L18.6896 9.28281C18.7166 9.40469 18.7403 9.52995 18.7606 9.65859C18.781 9.78724 18.7911 9.9125 18.7911 10.0344C18.7911 10.8604 18.4966 11.5612 17.9075 12.1367C17.3185 12.7122 16.6109 13 15.7849 13C15.2161 13 14.688 12.851 14.2005 12.5531C13.713 12.2552 13.3474 11.849 13.1036 11.3344L12.5349 10.1562C12.4672 10.0208 12.3656 9.91927 12.2302 9.85156C12.0948 9.78385 11.9526 9.75 11.8036 9.75H7.94424C7.79528 9.75 7.65309 9.78385 7.51768 9.85156C7.38226 9.91927 7.2807 10.0208 7.21299 10.1562L6.64424 11.3344C6.40049 11.849 6.03486 12.2552 5.54736 12.5531C5.05986 12.851 4.53174 13 3.96299 13ZM11.0927 5.6875C11.3229 5.6875 11.5159 5.60964 11.6716 5.45391C11.8273 5.29818 11.9052 5.10521 11.9052 4.875C11.9052 4.64479 11.8273 4.45182 11.6716 4.29609C11.5159 4.14036 11.3229 4.0625 11.0927 4.0625C10.8625 4.0625 10.6695 4.14036 10.5138 4.29609C10.358 4.45182 10.2802 4.64479 10.2802 4.875C10.2802 5.10521 10.358 5.29818 10.5138 5.45391C10.6695 5.60964 10.8625 5.6875 11.0927 5.6875ZM12.7177 4.0625C12.9479 4.0625 13.1409 3.98464 13.2966 3.82891C13.4523 3.67318 13.5302 3.48021 13.5302 3.25C13.5302 3.01979 13.4523 2.82682 13.2966 2.67109C13.1409 2.51536 12.9479 2.4375 12.7177 2.4375C12.4875 2.4375 12.2945 2.51536 12.1388 2.67109C11.983 2.82682 11.9052 3.01979 11.9052 3.25C11.9052 3.48021 11.983 3.67318 12.1388 3.82891C12.2945 3.98464 12.4875 4.0625 12.7177 4.0625ZM12.7177 7.3125C12.9479 7.3125 13.1409 7.23464 13.2966 7.07891C13.4523 6.92318 13.5302 6.73021 13.5302 6.5C13.5302 6.26979 13.4523 6.07682 13.2966 5.92109C13.1409 5.76536 12.9479 5.6875 12.7177 5.6875C12.4875 5.6875 12.2945 5.76536 12.1388 5.92109C11.983 6.07682 11.9052 6.26979 11.9052 6.5C11.9052 6.73021 11.983 6.92318 12.1388 7.07891C12.2945 7.23464 12.4875 7.3125 12.7177 7.3125ZM14.3427 5.6875C14.5729 5.6875 14.7659 5.60964 14.9216 5.45391C15.0773 5.29818 15.1552 5.10521 15.1552 4.875C15.1552 4.64479 15.0773 4.45182 14.9216 4.29609C14.7659 4.14036 14.5729 4.0625 14.3427 4.0625C14.1125 4.0625 13.9195 4.14036 13.7638 4.29609C13.608 4.45182 13.5302 4.64479 13.5302 4.875C13.5302 5.10521 13.608 5.29818 13.7638 5.45391C13.9195 5.60964 14.1125 5.6875 14.3427 5.6875ZM7.03018 6.90625C7.20622 6.90625 7.35179 6.8487 7.4669 6.73359C7.582 6.61849 7.63955 6.47292 7.63955 6.29688V5.48438H8.45205C8.62809 5.48438 8.77367 5.42682 8.88877 5.31172C9.00387 5.19661 9.06143 5.05104 9.06143 4.875C9.06143 4.69896 9.00387 4.55339 8.88877 4.43828C8.77367 4.32318 8.62809 4.26562 8.45205 4.26562H7.63955V3.45312C7.63955 3.27708 7.582 3.13151 7.4669 3.01641C7.35179 2.9013 7.20622 2.84375 7.03018 2.84375C6.85413 2.84375 6.70856 2.9013 6.59346 3.01641C6.47835 3.13151 6.4208 3.27708 6.4208 3.45312V4.26562H5.6083C5.43226 4.26562 5.28669 4.32318 5.17158 4.43828C5.05648 4.55339 4.99893 4.69896 4.99893 4.875C4.99893 5.05104 5.05648 5.19661 5.17158 5.31172C5.28669 5.42682 5.43226 5.48438 5.6083 5.48438H6.4208V6.29688C6.4208 6.47292 6.47835 6.61849 6.59346 6.73359C6.70856 6.8487 6.85413 6.90625 7.03018 6.90625Z" fill="#283544"/>
</svg>
