<svg width="14" height="13" viewBox="0 0 14 13" fill="none" xmlns="http://www.w3.org/2000/svg">
<path d="M5.89474 11.8529V10.3235H1.33203C0.959798 10.3235 0.644737 10.1897 0.386842 9.92206C0.128947 9.65441 0 9.32744 0 8.94113V1.3824C0 0.996093 0.128947 0.669118 0.386842 0.401471C0.644737 0.133824 0.959798 0 1.33203 0H12.668C13.0402 0 13.3553 0.133824 13.6132 0.401471C13.8711 0.669118 14 0.996093 14 1.3824V8.94113C14 9.32744 13.8711 9.65441 13.6132 9.92206C13.3553 10.1897 13.0402 10.3235 12.668 10.3235H8.10526V11.8529H9.02632C9.18314 11.8529 9.31442 11.9079 9.42016 12.0177C9.52602 12.1275 9.57895 12.2637 9.57895 12.4265C9.57895 12.5892 9.52602 12.7255 9.42016 12.8352C9.31442 12.9451 9.18314 13 9.02632 13H4.97368C4.81686 13 4.68558 12.9451 4.57984 12.8352C4.47398 12.7255 4.42105 12.5892 4.42105 12.4265C4.42105 12.2637 4.47398 12.1275 4.57984 12.0177C4.68558 11.9079 4.81686 11.8529 4.97368 11.8529H5.89474Z" fill="#283544"/>
</svg>
