<svg width="8" height="13" viewBox="0 0 8 13" fill="none" xmlns="http://www.w3.org/2000/svg">
<path fill-rule="evenodd" clip-rule="evenodd" d="M1.20028 0C0.541711 0 0 0.540126 0 1.20028V12.7045C7.83453e-06 12.7829 0.0311386 12.8581 0.0865454 12.9135C0.141952 12.9689 0.217098 13 0.295455 13H6.84624C7.46558 13 7.97727 12.4893 7.97727 11.869V0.295455C7.97726 0.217098 7.94613 0.141957 7.89073 0.0865499C7.83532 0.0311432 7.76017 7.83453e-06 7.68182 0H1.20028ZM1.29723 1.47727C1.30799 1.47668 1.31878 1.47668 1.32955 1.47727H6.64773C6.72592 1.47711 6.80097 1.50815 6.85638 1.56356C6.91178 1.61897 6.94301 1.6942 6.94318 1.77273V7.97727C6.94301 8.0558 6.91178 8.13104 6.85638 8.18645C6.80097 8.24185 6.72592 8.27289 6.64773 8.27273H1.32955C1.25135 8.27289 1.1763 8.24185 1.1209 8.18645C1.06549 8.13104 1.03426 8.0558 1.03409 7.97727V1.77273C1.03383 1.69953 1.06058 1.62883 1.10917 1.57426C1.15777 1.5197 1.22476 1.48515 1.29723 1.47727ZM1.625 8.72975C1.63423 8.72932 1.64347 8.72932 1.6527 8.72975H1.94815C2.02651 8.72976 2.10166 8.76089 2.15706 8.8163C2.21247 8.87171 2.2436 8.94685 2.24361 9.0252V9.32066C2.2436 9.39902 2.21247 9.47416 2.15706 9.52957C2.10166 9.58498 2.02651 9.61611 1.94815 9.61611H1.6527C1.57434 9.61611 1.4992 9.58498 1.44379 9.52957C1.38838 9.47416 1.35725 9.39902 1.35724 9.32066V9.0252C1.35693 8.95142 1.38423 8.88019 1.43378 8.82551C1.48333 8.77084 1.55154 8.73667 1.625 8.72975ZM3.81321 8.72975C3.82244 8.72932 3.83168 8.72932 3.84091 8.72975H4.13636C4.21472 8.72976 4.28987 8.76089 4.34527 8.8163C4.40068 8.87171 4.43181 8.94685 4.43182 9.0252V9.32066C4.43181 9.39902 4.40068 9.47416 4.34527 9.52957C4.28987 9.58498 4.21472 9.61611 4.13636 9.61611H3.84091C3.76255 9.61611 3.68741 9.58498 3.632 9.52957C3.57659 9.47416 3.54546 9.39902 3.54545 9.32066V9.0252C3.54514 8.95142 3.57244 8.88019 3.62199 8.82551C3.67154 8.77084 3.73975 8.73667 3.81321 8.72975ZM6.00142 8.72975C6.01065 8.72932 6.01989 8.72932 6.02912 8.72975H6.32457C6.40293 8.72976 6.47808 8.76089 6.53348 8.8163C6.58889 8.87171 6.62002 8.94685 6.62003 9.0252V9.32066C6.62002 9.39902 6.58889 9.47416 6.53348 9.52957C6.47808 9.58498 6.40293 9.61611 6.32457 9.61611H6.02912C5.95076 9.61611 5.87562 9.58498 5.82021 9.52957C5.7648 9.47416 5.73367 9.39902 5.73366 9.32066V9.0252C5.73335 8.95142 5.76065 8.88019 5.8102 8.82551C5.85975 8.77084 5.92796 8.73667 6.00142 8.72975ZM1.625 9.91158C1.63423 9.91114 1.64347 9.91114 1.6527 9.91158H1.94815C2.02651 9.91158 2.10166 9.94271 2.15706 9.99812C2.21247 10.0535 2.2436 10.1287 2.24361 10.207V10.5025C2.2436 10.5808 2.21247 10.656 2.15706 10.7114C2.10166 10.7668 2.02651 10.7979 1.94815 10.7979H1.6527C1.57434 10.7979 1.4992 10.7668 1.44379 10.7114C1.38838 10.656 1.35725 10.5808 1.35724 10.5025V10.207C1.35693 10.1332 1.38423 10.062 1.43378 10.0073C1.48333 9.95266 1.55154 9.9185 1.625 9.91158ZM3.81321 9.91158C3.82244 9.91114 3.83168 9.91114 3.84091 9.91158H4.13636C4.21472 9.91158 4.28987 9.94271 4.34527 9.99812C4.40068 10.0535 4.43181 10.1287 4.43182 10.207V10.5025C4.43181 10.5808 4.40068 10.656 4.34527 10.7114C4.28987 10.7668 4.21472 10.7979 4.13636 10.7979H3.84091C3.76255 10.7979 3.68741 10.7668 3.632 10.7114C3.57659 10.656 3.54546 10.5808 3.54545 10.5025V10.207C3.54514 10.1332 3.57244 10.062 3.62199 10.0073C3.67154 9.95266 3.73975 9.9185 3.81321 9.91158ZM6.00142 9.91158C6.01065 9.91114 6.01989 9.91114 6.02912 9.91158H6.32457C6.40293 9.91158 6.47808 9.94271 6.53348 9.99812C6.58889 10.0535 6.62002 10.1287 6.62003 10.207V10.5025C6.62002 10.5808 6.58889 10.656 6.53348 10.7114C6.47808 10.7668 6.40293 10.7979 6.32457 10.7979H6.02912C5.95076 10.7979 5.87562 10.7668 5.82021 10.7114C5.7648 10.656 5.73367 10.5808 5.73366 10.5025V10.207C5.73335 10.1332 5.76065 10.062 5.8102 10.0073C5.85975 9.95266 5.92796 9.9185 6.00142 9.91158ZM1.625 11.0934C1.63423 11.093 1.64347 11.093 1.6527 11.0934H1.94815C2.02651 11.0934 2.10166 11.1245 2.15706 11.1799C2.21247 11.2353 2.2436 11.3105 2.24361 11.3888V11.6843C2.2436 11.7627 2.21247 11.8378 2.15706 11.8932C2.10166 11.9486 2.02651 11.9797 1.94815 11.9798H1.6527C1.57434 11.9797 1.4992 11.9486 1.44379 11.8932C1.38838 11.8378 1.35725 11.7627 1.35724 11.6843V11.3888C1.35693 11.3151 1.38423 11.2438 1.43378 11.1891C1.48333 11.1345 1.55154 11.1003 1.625 11.0934ZM3.81321 11.0934C3.82244 11.093 3.83168 11.093 3.84091 11.0934H4.13636C4.21472 11.0934 4.28987 11.1245 4.34527 11.1799C4.40068 11.2353 4.43181 11.3105 4.43182 11.3888V11.6843C4.43181 11.7627 4.40068 11.8378 4.34527 11.8932C4.28987 11.9486 4.21472 11.9797 4.13636 11.9798H3.84091C3.76255 11.9797 3.68741 11.9486 3.632 11.8932C3.57659 11.8378 3.54546 11.7627 3.54545 11.6843V11.3888C3.54514 11.3151 3.57244 11.2438 3.62199 11.1891C3.67154 11.1345 3.73975 11.1003 3.81321 11.0934ZM6.00142 11.0934C6.01065 11.093 6.01989 11.093 6.02912 11.0934H6.32457C6.40293 11.0934 6.47808 11.1245 6.53348 11.1799C6.58889 11.2353 6.62002 11.3105 6.62003 11.3888V11.6843C6.62002 11.7627 6.58889 11.8378 6.53348 11.8932C6.47808 11.9486 6.40293 11.9797 6.32457 11.9798H6.02912C5.95076 11.9797 5.87562 11.9486 5.82021 11.8932C5.7648 11.8378 5.73367 11.7627 5.73366 11.6843V11.3888C5.73335 11.3151 5.76065 11.2438 5.8102 11.1891C5.85975 11.1345 5.92796 11.1003 6.00142 11.0934Z" fill="#283544"/>
</svg>
