<svg width="12" height="13" viewBox="0 0 12 13" fill="none" xmlns="http://www.w3.org/2000/svg">
<path fill-rule="evenodd" clip-rule="evenodd" d="M10.5629 13C7.5593 13 4.55384 13 1.54839 13C1.00113 13 0.555664 12.5693 0.555664 12.0423V0.955962C0.555664 0.428957 1.00113 0 1.54839 0H10.5629C11.1102 0 11.5557 0.43071 11.5557 0.955962V12.0423C11.5557 12.5693 11.1084 13 10.5629 13ZM9.83749 1.99246H2.27203V10.5191H9.83749V1.99246ZM1.82658 1.13454C1.57932 1.13454 1.38112 1.32714 1.38112 1.56525V10.9498C1.38112 11.1879 1.57932 11.3787 1.82658 11.3787H10.2829C10.5302 11.3787 10.7284 11.1879 10.7284 10.9498V1.56525C10.7284 1.32714 10.5302 1.13454 10.2829 1.13454H1.82658ZM6.05384 11.7236C5.85022 11.7236 5.68295 11.8847 5.68295 12.0826C5.68295 12.2822 5.85022 12.4415 6.05384 12.4415C6.26113 12.4415 6.42659 12.2822 6.42659 12.0826C6.42659 11.8847 6.26113 11.7236 6.05384 11.7236Z" fill="#283544"/>
</svg>
