<svg width="9" height="13" viewBox="0 0 9 13" fill="none" xmlns="http://www.w3.org/2000/svg">
<path fill-rule="evenodd" clip-rule="evenodd" d="M8.19444 0C8.39388 0 8.55556 0.161675 8.55556 0.361111V12.6389C8.55556 12.8383 8.39388 13 8.19444 13H0.611111C0.411675 13 0.25 12.8383 0.25 12.6389V0.361111C0.25 0.161675 0.411675 0 0.611111 0H8.19444ZM4.40278 6.86111C5.69911 6.86111 6.75 7.912 6.75 9.20833C6.75 10.5047 5.69911 11.5556 4.40278 11.5556C3.10644 11.5556 2.05556 10.5047 2.05556 9.20833C2.05556 7.912 3.10644 6.86111 4.40278 6.86111ZM4.40278 7.76389C5.20052 7.76389 5.84722 8.41059 5.84722 9.20833C5.84722 10.0061 5.20052 10.6528 4.40278 10.6528C3.60503 10.6528 2.95833 10.0061 2.95833 9.20833C2.95833 8.41059 3.60503 7.76389 4.40278 7.76389ZM4.40278 8.30556C3.90419 8.30556 3.5 8.70974 3.5 9.20833C3.5 9.70692 3.90419 10.1111 4.40278 10.1111C4.90137 10.1111 5.30556 9.70692 5.30556 9.20833C5.30556 8.70974 4.90137 8.30556 4.40278 8.30556ZM7.29167 1.26389V5.59722H1.51389V1.26389H7.29167Z" fill="#283544"/>
</svg>
