<svg width="10" height="13" viewBox="0 0 10 13" fill="none" xmlns="http://www.w3.org/2000/svg">
<path d="M8.26995 13H1.84138C1.48781 13 1.18513 12.8727 0.933343 12.6181C0.681557 12.3635 0.555664 12.0575 0.555664 11.7V1.3C0.555664 0.9425 0.681557 0.636458 0.933343 0.381875C1.18513 0.127292 1.48781 0 1.84138 0H8.26995C8.62352 0 8.9262 0.127292 9.17799 0.381875C9.42977 0.636458 9.55567 0.9425 9.55567 1.3V11.7C9.55567 12.0575 9.42977 12.3635 9.17799 12.6181C8.9262 12.8727 8.62352 13 8.26995 13ZM5.05566 4.55C5.40924 4.55 5.71191 4.42271 5.9637 4.16812C6.21549 3.91354 6.34138 3.6075 6.34138 3.25C6.34138 2.8925 6.21549 2.58646 5.9637 2.33187C5.71191 2.07729 5.40924 1.95 5.05566 1.95C4.70209 1.95 4.39941 2.07729 4.14763 2.33187C3.89584 2.58646 3.76995 2.8925 3.76995 3.25C3.76995 3.6075 3.89584 3.91354 4.14763 4.16812C4.39941 4.42271 4.70209 4.55 5.05566 4.55ZM5.05566 11.05C5.76281 11.05 6.36816 10.7954 6.87174 10.2862C7.37531 9.77708 7.62709 9.165 7.62709 8.45C7.62709 7.735 7.37531 7.12292 6.87174 6.61375C6.36816 6.10458 5.76281 5.85 5.05566 5.85C4.34852 5.85 3.74316 6.10458 3.23959 6.61375C2.73602 7.12292 2.48424 7.735 2.48424 8.45C2.48424 9.165 2.73602 9.77708 3.23959 10.2862C3.74316 10.7954 4.34852 11.05 5.05566 11.05ZM5.05566 9.75C4.70209 9.75 4.39941 9.62271 4.14763 9.36812C3.89584 9.11354 3.76995 8.8075 3.76995 8.45C3.76995 8.0925 3.89584 7.78646 4.14763 7.53187C4.39941 7.27729 4.70209 7.15 5.05566 7.15C5.40924 7.15 5.71191 7.27729 5.9637 7.53187C6.21549 7.78646 6.34138 8.0925 6.34138 8.45C6.34138 8.8075 6.21549 9.11354 5.9637 9.36812C5.71191 9.62271 5.40924 9.75 5.05566 9.75Z" fill="#283544"/>
</svg>
