<svg width="9" height="13" viewBox="0 0 9 13" fill="none" xmlns="http://www.w3.org/2000/svg">
<path d="M1.25152 13C0.901788 13 0.605769 12.8917 0.363462 12.675C0.121154 12.4583 0 12.1936 0 11.8809V1.11908C0 0.806361 0.121154 0.541667 0.363462 0.325C0.605769 0.108333 0.901788 0 1.25152 0H7.74848C8.09821 0 8.39423 0.108333 8.63654 0.325C8.87885 0.541667 9 0.806361 9 1.11908V11.8809C9 12.1936 8.87885 12.4583 8.63654 12.675C8.39423 12.8917 8.09821 13 7.74848 13H1.25152ZM1.03846 10.369H7.96154V2.63095H1.03846V10.369Z" fill="#283544"/>
</svg>
