<svg width="10" height="13" viewBox="0 0 10 13" fill="none" xmlns="http://www.w3.org/2000/svg">
<path d="M4.09138 13C3.81281 13 3.55834 12.916 3.32799 12.7481C3.09763 12.5802 2.93959 12.3554 2.85388 12.0737L2.48424 10.8225C2.41995 10.6058 2.32084 10.3865 2.18691 10.1644C2.05299 9.94229 1.87888 9.71208 1.66459 9.47375C1.30031 9.07292 1.02441 8.61792 0.836914 8.10875C0.649414 7.59958 0.555664 7.06333 0.555664 6.5C0.555664 5.9475 0.649414 5.41667 0.836914 4.9075C1.02441 4.39833 1.30031 3.93792 1.66459 3.52625C1.87888 3.27708 2.05299 3.04417 2.18691 2.8275C2.32084 2.61083 2.41995 2.39417 2.48424 2.1775L2.85388 0.92625C2.93959 0.644583 3.09763 0.419792 3.32799 0.251875C3.55834 0.0839583 3.81281 0 4.09138 0H6.01995C6.29852 0 6.55299 0.0839583 6.78334 0.251875C7.0137 0.419792 7.17174 0.644583 7.25745 0.92625L7.62709 2.1775C7.69138 2.39417 7.79049 2.61354 7.92441 2.83562C8.05834 3.05771 8.23245 3.28792 8.44674 3.52625C8.81102 3.92708 9.08691 4.38208 9.27442 4.89125C9.46192 5.40042 9.55567 5.93667 9.55567 6.5C9.55567 7.0525 9.46192 7.58333 9.27442 8.0925C9.08691 8.60167 8.81102 9.06208 8.44674 9.47375C8.23245 9.72292 8.05834 9.95583 7.92441 10.1725C7.79049 10.3892 7.69138 10.6058 7.62709 10.8225L7.25745 12.0737C7.17174 12.3554 7.0137 12.5802 6.78334 12.7481C6.55299 12.916 6.29852 13 6.01995 13H4.09138ZM5.05566 9.75C5.94495 9.75 6.70299 9.43312 7.32977 8.79937C7.95656 8.16562 8.26995 7.39917 8.26995 6.5C8.26995 5.60083 7.95656 4.83437 7.32977 4.20062C6.70299 3.56687 5.94495 3.25 5.05566 3.25C4.16638 3.25 3.40834 3.56687 2.78156 4.20062C2.15477 4.83437 1.84138 5.60083 1.84138 6.5C1.84138 7.39917 2.15477 8.16562 2.78156 8.79937C3.40834 9.43312 4.16638 9.75 5.05566 9.75Z" fill="#283544"/>
</svg>
