<svg width="24" height="24" viewBox="0 0 24 24" fill="none" xmlns="http://www.w3.org/2000/svg">
<path d="M12.0352 2C6.51516 2 2.03516 6.48 2.03516 12C2.03516 17.52 6.51516 22 12.0352 22C17.5552 22 22.0352 17.52 22.0352 12C22.0352 6.48 17.5552 2 12.0352 2ZM8.56516 13.47C8.85516 13.76 8.85516 14.24 8.56516 14.53C8.41516 14.68 8.22516 14.75 8.03516 14.75C7.84516 14.75 7.65516 14.68 7.50516 14.53L5.50516 12.53C5.21516 12.24 5.21516 11.76 5.50516 11.47L7.50516 9.47C7.79516 9.18 8.27516 9.18 8.56516 9.47C8.85516 9.76 8.85516 10.24 8.56516 10.53L7.09516 12L8.56516 13.47ZM13.7252 9.96L11.7252 14.63C11.6052 14.91 11.3252 15.08 11.0352 15.08C10.9352 15.08 10.8352 15.06 10.7452 15.02C10.3652 14.86 10.1852 14.42 10.3552 14.03L12.3552 9.36C12.5152 8.98 12.9552 8.8 13.3352 8.97C13.7152 9.14 13.8852 9.58 13.7252 9.96ZM18.5652 12.53L16.5652 14.53C16.4152 14.68 16.2252 14.75 16.0352 14.75C15.8452 14.75 15.6552 14.68 15.5052 14.53C15.2152 14.24 15.2152 13.76 15.5052 13.47L16.9752 12L15.5052 10.53C15.2152 10.24 15.2152 9.76 15.5052 9.47C15.7952 9.18 16.2752 9.18 16.5652 9.47L18.5652 11.47C18.8552 11.76 18.8552 12.24 18.5652 12.53Z" fill="#12121B"/>
</svg>
