<svg width="28" height="28" viewBox="0 0 28 28" fill="none" xmlns="http://www.w3.org/2000/svg">
<g clip-path="url(#clip0_7188_15876)">
<path d="M27.68 0.477941C29.1642 1.98476 25.0495 8.60818 24.3539 9.31505C23.6583 10.0205 21.8915 9.37146 20.4079 7.86429C18.9237 6.35748 18.2843 4.56263 18.9799 3.85611C19.6752 3.14924 26.1961 -1.02958 27.68 0.477941Z" fill="#B5010F"/>
<path d="M6.86599 2.07217C4.60004 0.766318 1.3757 -0.686209 0.34999 0.355589C-0.689264 1.41078 0.793252 4.75933 2.0925 7.06503C3.24873 5.0234 4.89334 3.3047 6.86599 2.07217Z" fill="#B5010F"/>
<path d="M16.2468 2.24684C16.9381 1.55556 18.5539 1.81949 18.5539 1.81949L18.7247 1.36737C18.7247 1.36737 17.1111 0.631989 14.3563 0.631989C6.91528 0.631989 0.882806 6.75795 0.882806 14.3163C0.882806 21.8733 6.91528 28 14.3563 28C21.7974 28 27.8295 21.8733 27.8295 14.3163C27.8295 12.4313 27.4533 10.6368 26.7744 9.00337C26.4392 10.1287 26.1814 10.528 25.3547 11.3547C24.1138 12.5956 21.069 11.5627 18.5539 9.0476C16.0389 6.53254 15.0059 3.48774 16.2468 2.24684Z" fill="#B5010F"/>
</g>
<defs>
<clipPath id="clip0_7188_15876">
<rect width="28" height="28" fill="white"/>
</clipPath>
</defs>
</svg>
